<svg version="1.2" xmlns="http://www.w3.org/2000/svg" viewBox="0 0 2400 1500" width="2400" height="1500"><style>.a{fill:#fff}.b{fill:#fff2b2}.c{fill:#4c4000}.d{fill:#333}</style><path class="a" d="m0 750v750h2400v-1500h-2400z"/><path  d="m1226.4 270.7c-0.2 0.7 0 1.3 0.6 1.3 0.7 0 1 75 1 223 0 148-0.3 223-1 223-0.6 0-0.8 0.6-0.5 1.3 0.3 0.6 1.9 1.2 3.5 1.2 1.6 0 3.2-0.6 3.5-1.2 0.3-0.7 0-1.3-0.5-1.3-0.7 0-1-75-1-223 0-148 0.3-223 1-223 0.5 0 0.8-0.6 0.5-1.2-0.3-0.7-1.9-1.3-3.6-1.4-1.7 0-3.2 0.5-3.5 1.3zm0 525c-0.2 0.7 0 1.3 0.6 1.3 0.7 0 1 75 1 223 0 148-0.3 223-1 223-0.6 0-0.8 0.6-0.5 1.3 0.3 0.6 1.9 1.2 3.5 1.2 1.6 0 3.2-0.6 3.5-1.2 0.3-0.7 0-1.3-0.5-1.3-0.7 0-1-75-1-223 0-148 0.3-223 1-223 0.5 0 0.8-0.6 0.5-1.2-0.3-0.7-1.9-1.3-3.6-1.4-1.7 0-3.2 0.5-3.5 1.3z"/><path class="b" d="m979.5 194.9c-1.6 0.4-4 1.3-5.3 1.9-1.2 0.7-3.1 3-4.2 5.2-1.8 3.7-2 6-2 30.5 0 24.5 0.2 26.8 2 30.5 1.1 2.2 3.4 4.8 5.3 5.7 3 1.7 11.3 1.8 127.2 2 98 0.2 124.2 0 124.7-1 0.4-0.6 0.8-9.6 0.8-20 0-18 0.1-18.7 2-18.7 1.9 0 2 0.7 2 18.7 0 10.4 0.4 19.4 0.8 20 0.5 1 26.7 1.2 124.7 1 115.9-0.2 124.2-0.3 127.2-2 1.9-0.9 4.2-3.5 5.3-5.7 1.8-3.7 2-6 2-30.5 0-24.5-0.2-26.8-2-30.5-1.1-2.2-3.4-4.8-5.3-5.8-3-1.6-17.2-1.7-252.7-1.9-137.2 0-250.9 0.2-252.5 0.6zm100 525c-1.7 0.4-4 1.4-5.2 2.2-1.2 0.8-2.9 2.9-3.8 4.6-1.2 2.7-1.5 8.1-1.5 30.8 0 22.7 0.3 28.1 1.5 30.7 0.9 1.8 3 4.2 4.8 5.3 3.1 1.9 5.2 2 77.2 2.3 58.5 0.2 74.2-0.1 74.7-1 0.4-0.7 0.8-6.6 0.8-13.1 0-11-0.1-11.7-2-11.7-1.8 0-2-0.7-2-8.8 0-5.7-0.4-9.1-1.2-10-0.7-0.7-2.4-1.2-3.8-1.2-1.4-0.1-3.3 0.7-4.2 1.7-1.4 1.4-1.8 3.6-1.8 10 0 7.6-0.2 8.3-2 8.3-1.9 0-2-0.7-2-11.5 0-10.8 0.1-11.5 2-11.5 1.3 0 2 0.7 2 1.7-0.1 1.7 0 1.7 1.7 0.1 1-1 3.4-1.8 5.5-1.8 2.7 0 4.4 0.7 5.8 2.2l2 2.3c0-22.9-0.2-30.2-0.5-31-0.4-1.3-9.4-1.5-72.8-1.4-39.7 0.1-73.5 0.4-75.2 0.8zm153.1 0.6c-0.3 0.8-0.6 17.6-0.6 37.2 0 19.7 0.4 36.4 0.8 37.1 0.5 0.9 16.2 1.2 74.7 1 72-0.3 74.1-0.4 77.2-2.3 1.8-1.1 3.9-3.5 4.8-5.3 1.2-2.6 1.5-8 1.5-30.7 0-22.7-0.3-28.1-1.5-30.8-0.9-1.7-3-4.1-4.8-5.2-3.1-1.9-5.2-2-77.3-2.3-65.8-0.2-74.2-0.1-74.8 1.3zm-286.1 524.4c-1.6 0.4-4 1.4-5.2 2.2-1.2 0.8-2.9 2.6-3.8 4.2-1.2 2.3-1.5 7.3-1.5 31.2 0 25.3 0.2 28.8 1.7 31.5 1 1.6 3.2 3.7 4.8 4.7 2.9 1.7 16.2 1.8 287.5 1.8 282.8 0 284.5 0 287.7-2 1.8-1.1 3.9-3.2 4.8-4.7 1.2-2.3 1.5-7.5 1.5-31.3 0-23.8-0.3-29-1.5-31.2-0.9-1.6-3-3.7-4.8-4.8-3.2-2-5.2-2-143.7-2.2-111.1-0.2-140.7 0-141.2 1-0.4 0.6-0.8 6.9-0.8 14 0 12 0.1 12.7 2 12.7 1.1 0 2 0.7 2 1.5 0 0.8-0.9 1.5-2 1.5-1.7 0-2 0.7-2 5 0 4.3-0.3 5-2 5-1.6 0-2-0.7-2-3.7 0-2.1-0.2-3.6-0.4-3.3-0.3 0.3-0.7 2.1-1 4-0.3 1.9-0.5 5.6-0.5 8.3-0.1 3.5-0.5 4.7-1.6 4.7-1.2 0-1.5-1.9-1.5-11.5v-11.5l5 1c0-20.2-0.2-26.7-0.5-27.5-0.4-1.3-16.7-1.5-139.3-1.4-76.3 0.1-140.1 0.4-141.7 0.8z"/><path class="c" d="m1228.2 250.3c0.3 16.3 0.5 19.2 1.8 19.2 1.3 0 1.5-2.9 1.8-19.3 0.2-18.7 0.2-19.2-1.8-19.2-2 0-2 0.5-1.8 19.2zm0.5 471c-0.3 0.7-0.4 17.5-0.3 37.3 0.1 31.3 0.3 36 1.6 36 1.3 0 1.5-4.8 1.5-36.9 0-27.3-0.3-37-1.2-37.3-0.6-0.3-1.4 0.1-1.6 0.9zm-0.2 524.4c-0.5 0.4-0.8 6.7-0.7 14.1 0.1 7.3 0.5 13.3 0.9 13.3 0.5 0 1.4-0.4 2.1-0.8 0.9-0.5 1.1-4.1 1-13.6-0.2-8.1-0.7-13.1-1.4-13.3-0.6-0.2-1.4 0-1.9 0.3zm0.5 30.1c-1 0.3-1.3 1.8-1.2 4.9 0.2 3.7 0.5 4.4 2.2 4.4 1.7 0 2-0.7 2-5 0-2.7-0.3-5-0.8-4.9-0.4 0-1.4 0.3-2.2 0.6z"/><path class="d" d="m509 136v19h9v-38h-9zm17-15.5c0 3.5 0 3.5 4.5 3.5 4.5 0 4.5 0 4.5-3.5 0-3.5 0-3.5-4.5-3.5-4.5 0-4.5 0-4.5 3.5zm458 0c0 3.5 0 3.5 4.5 3.5 4.5 0 4.5 0 4.5-3.5 0-3.5 0-3.5-4.5-3.5-4.5 0-4.5 0-4.5 3.5zm176.5-2.5c-1.2 0.5-2.6 1.8-3.3 2.9-0.7 1.2-1.2 3.2-1.2 4.6 0 2-0.5 2.5-2.5 2.5-2.1 0-2.5 0.5-2.5 3 0 2.5 0.4 3 2.5 3h2.5v21h9v-21c5.8-0.4 8.5-0.4 9.8-0.2 2.1 0.2 2.2 0.7 2.4 8.7 0.2 6.5 0.7 8.8 2.1 10.2 1.3 1.3 3.6 1.9 8.2 2.1l6.5 0.2c0-5.5-0.4-6-2.5-6-1.4 0-3.2-0.2-4-0.5-1.1-0.4-1.5-2.2-1.5-7.5v-7c8.8 0 9-0.1 9-3 0-2.9-0.2-3-4.5-3h-4.5v-8h-9c0 7.3-0.3 8-2 8-1.1 0-2.2 0.6-2.4 1.3-0.4 1-0.5 1-0.5 0-0.1-0.8-1.5-1.3-3.6-1.3-3 0-3.5-0.3-3.3-2.2 0.3-1.9 1-2.3 4-2.5 3.5-0.3 3.8-0.5 3.8-3.3 0-3-0.1-3-5.3-2.9-2.8 0-6.1 0.4-7.2 0.9zm234.5 6v7c-3.5-2.3-6.4-3-8.8-3-3.3 0-4.8 0.6-7.3 3-2.8 2.8-3 3.6-3.2 10.6-0.2 7.4-0.1 7.6 3.1 10.5 2.5 2.2 4.2 2.9 7.5 2.9 2.3 0 5.2-0.7 6.5-1.5 1.9-1.3 2.2-1.3 2.2 0 0 1.1 1.2 1.5 4.5 1.5h4.5v-38h-9zm51 12v19h9v-38h-9zm400 0v19h9v-38h-9zm105-15.5c0 3.5 0 3.5 4.5 3.5 4.5 0 4.5 0 4.5-3.5 0-3.5 0-3.5-4.5-3.5-4.5 0-4.5 0-4.5 3.5zm-1472 0.7c-0.5 1.3-3.7 9.4-7 18.1l-6 15.7c9.9 0 10-0.1 11-3.5l1-3.5h15c2 6.8 2.2 7 6.5 7 2.5 0 4.5-0.3 4.5-0.7 0-0.5-2.9-8.5-6.4-17.8l-6.4-17c-10.6-0.6-11.2-0.4-12.2 1.7zm299 15.8v18h9c0-19.3 0.3-21.9 1.3-21.7 0.6 0.2 2.6 3.6 4.2 7.6 2.8 6.6 3.2 7.1 6 7.1 2.8 0 3.2-0.5 6-7.1 1.6-4 3.6-7.4 4.3-7.6 0.9-0.2 1.2 2.4 1.2 10.7v11h9v-36l-12.4 0.5c-5.5 12.9-7.5 16.8-8 16.8-0.5 0.1-2.5-3.6-4.5-8.3l-3.7-8.5-12.3-0.6zm157 0l-0.1 18.1h9c0-19.9 0.4-24.2 0.9-23.5 0.6 0.5 2.5 4.5 4.3 8.7 3.1 7.3 3.5 7.8 6.3 7.8 2.8-0.1 3.3-0.7 6.2-7.3 1.7-4 3.6-7.4 4.2-7.5 0.8-0.2 1.1 3.1 1.1 10.8v11h9v-36h-12.5c-5.6 13.5-7.6 17.5-8.1 17.5-0.4 0-2.4-3.9-4.4-8.5l-3.7-8.5-12.2-0.6zm286-1.2c-3.5 9.2-6.6 17.3-6.9 18.1-0.5 1 0.5 1.2 4.4 1 4.6-0.4 5-0.6 6-3.7l1-3.3c14.9 0.6 14.9 0.6 16 3.9 0.9 3.1 1.3 3.3 5.7 3.2h4.8q-5.5-14.5-9.1-24.3l-4.4-11.7h-11.3zm36 1.3v18h9v-36h-9zm36 0v18h9c0-19.3 0.4-23.2 1-22.5 0.5 0.5 2.3 4.1 3.9 8 2.8 6.6 3.2 7 6.3 7 3.1 0 3.4-0.4 6.3-7.2 1.7-3.9 3.4-7.5 3.8-8 0.5-0.5 0.8 4.4 0.8 10.9l-0.1 11.8h9v-36l-11.5-0.1c-6.2 14-8.2 18.1-8.5 18.1-0.2 0-2.1-4.1-4.2-9l-3.8-9h-12zm256-16.9c-1.3 0.5-3.5 2-4.8 3.2-1.3 1.2-3 3.4-3.7 4.9-0.8 1.5-1.5 5.6-1.5 9 0 4.9 0.5 7 2.3 9.7 1.2 1.8 3.5 4.3 5.1 5.5 2 1.5 4.7 2.2 9.5 2.4 3.6 0.2 8.3-0.1 10.4-0.7 3.1-1 3.8-1.6 3.8-3.9 0-1.5-0.2-3.1-0.5-3.5-0.3-0.4-1.8-0.1-3.3 0.7-1.5 0.9-4.6 1.6-6.8 1.6-2.5 0-5-0.7-6.7-2-1.7-1.2-3.2-3.7-3.9-6.3-0.9-3.2-0.9-5.2 0-8 0.6-2.1 2.4-4.7 3.9-5.8 1.6-1.2 4.2-2 6.5-2 2.1 0 5 0.7 6.5 1.5 1.5 0.8 3.1 1.2 3.5 0.8 0.5-0.4 0.8-2 0.8-3.5 0-2.2-0.7-2.9-3.3-3.8-1.8-0.5-6-0.9-9.3-0.9-3.3 0-7.1 0.5-8.5 1.1zm33.1 10.6c-2.4 6.5-5.4 14.6-6.7 18l-2.4 6.3c9.3 0 9.6-0.2 10.6-3.3 1-3.2 1-3.2 8.5-3.6l7.4-0.3c2 6.4 2.4 6.7 7.1 7 3.9 0.3 4.8 0.1 4.3-1-0.3-0.7-3.4-8.9-7-18.1l-6.4-16.8-11.1 0.1zm34 6.2v18h9c0-19.8 0.3-24.1 0.9-23.5 0.5 0.6 2.4 4.5 4.2 8.8 3.2 7.3 3.6 7.8 6.4 7.7 2.7 0 3.2-0.6 6.1-7.3 1.7-3.9 3.6-7.3 4.2-7.4 0.8-0.2 1.2 3 1.2 10.7v11h9v-36h-12.5c-5.7 13.6-7.7 17.5-8.1 17.5-0.5 0-2.5-3.8-4.5-8.5l-3.6-8.5-12.2-0.6zm134.9-16.8c-1.3 0.5-3.5 2-4.8 3.2-1.3 1.2-3.1 3.5-3.9 5.2-0.9 1.6-1.6 5.4-1.6 8.5 0 3 0.7 6.8 1.6 8.5 0.8 1.6 2.6 3.9 3.9 5.1 1.3 1.2 3.6 2.7 5.1 3.3 1.5 0.6 5.4 1.1 8.7 1.1 3.3 0 7.2-0.5 8.5-1 2-0.8 2.5-1.7 2.5-4.5v-3.5c-4.6 2.3-7.8 3-10 3-3 0-4.8-0.8-7.2-3-3-2.7-3.3-3.4-3.3-9 0-5.7 0.3-6.4 3.3-9.1 2.4-2.2 4.2-2.9 7.2-2.9 2.2 0 5.5 0.6 7.2 1.5l3.2 1.5c-0.3-6.2-0.9-7.3-2.9-8-1.3-0.6-5.3-1-8.7-1-3.5 0.1-7.4 0.5-8.8 1.1zm-1014 3.9c0 3.3-0.3 4-2 4-1.5 0-2 0.6-2 3 0 2.3 0.5 3 2 3 1.8 0 2 0.6 2 6.2 0 3.4 0.5 7.7 1 9.5 0.6 2 2 3.7 3.5 4.3 1.4 0.5 4.8 1 7.5 1 4.9 0 5-0.1 5-3 0-2.6-0.4-3-2.5-3-1.3 0-3.1-0.3-4-0.5-1.1-0.4-1.5-2.2-1.5-7.5v-7c8.9 0 9-0.2 9-3 0-2.9-0.1-3-4.5-3h-4.5v-8h-9zm1191 0c0 3.3-0.3 4-2 4-1.5 0-2 0.6-2 3 0 2.3 0.5 3 2 3 1.9 0 2.1 0.7 2.3 8.5 0.2 7.9 0.5 8.8 2.7 10.6 1.9 1.4 4 1.9 8.3 1.9 5.7 0 5.7-0.1 5.7-3 0-2.6-0.4-3-2.5-3-1.3 0-3.1-0.3-4-0.5-1.1-0.4-1.5-2.2-1.5-7.5v-7c8.9 0 9-0.2 9-3 0-2.9-0.1-3-4.5-3h-4.5v-8h-9zm-881.2 3.8c-1.2 0.2-3.1 1.1-4 2-1.6 1.5-1.8 1.5-2.3-0.1-0.3-1.3-1.5-1.7-5-1.7h-4.5v27h9c0.1-11.3 0.6-15.7 1.3-17 1.1-2.1 2.1-2.6 6-2.8 4.7-0.2 4.7-0.3 4.7-3.6 0-2.1-0.6-3.6-1.5-3.8-0.8-0.2-2.4-0.2-3.7 0zm-520.8 13.7v13.5h9v-27h-9zm19-10c-2.9 3.1-3.2 4.1-3.1 9 0.1 3 0.8 6.8 1.6 8.5 0.9 1.6 2.9 3.6 4.5 4.5 1.7 0.8 4.3 1.5 5.8 1.5 1.5 0 4-0.9 5.5-2 2.5-1.9 2.7-1.9 2.7-0.3 0.1 1-0.6 2.7-1.4 3.8-1 1.4-2.6 2-5.7 2-2.4 0-5.6-0.4-7.1-0.8-2.6-0.7-2.8-0.5-2.8 2.3 0 2.2 0.6 3.2 2.5 4 1.4 0.5 4.7 0.9 7.3 0.9 2.6 0 6.6-0.9 9-2 3-1.4 4.7-3 5.7-5.4 1.1-2.6 1.5-7.2 1.5-16.5v-13c-7.8 0-9 0.3-9 1.5 0 1.3-0.2 1.3-2.2-0.1-1.3-0.8-4.4-1.5-6.9-1.5-4.1 0.1-5.1 0.5-7.9 3.6zm34 10v13.5h9c0-14 0.5-17.2 1.5-18.8 0.9-1.2 2.5-2.3 3.8-2.3 1.2 0 2.8 0.6 3.5 1.3q1.3 1.3 1.2 10.5v9.3h9c-0.5-21.1-0.7-22.1-3-24.5-1.9-2-3.4-2.6-6.7-2.6-2.4 0-5.2 0.6-6.4 1.3-1.7 1-2.2 1-2.5 0-0.2-0.8-2.1-1.2-4.9-1.2h-4.5zm36 0v13.5h9c0-14.3 0.5-18.2 1.3-19.4 0.8-1.1 2.2-1.7 3.7-1.5 2.5 0.4 2.5 0.5 2.8 10.6l0.2 10.3h9c0.5-15 1-18.2 2-19.4 0.9-1 2.5-1.7 3.8-1.7 1.2 0 2.5 0.7 2.7 1.6 0.3 0.8 0.5 5.5 0.5 10.5v9h9c-0.5-21.1-0.7-22.1-3-24.5-1.8-1.9-3.5-2.6-6.5-2.6-2.4 0-5 0.7-6.5 1.9-2.4 1.9-2.5 1.9-5 0-1.4-1.1-4-1.9-6-1.9-1.9 0-4.5 0.7-5.7 1.5-2 1.4-2.3 1.4-2.3 0.1 0-1.2-1.1-1.5-4.5-1.5h-4.5zm57.1-12.3c-1.3 0.7-3.5 2.9-4.8 4.8-1.5 2.2-2.3 4.9-2.3 7.5 0 2.2 0.9 5.4 2 7.2 1.1 1.8 3.4 3.9 5 4.8 1.7 0.8 5.6 1.5 8.8 1.5 3.1 0 7.2-0.5 9-1 2.8-0.9 3.2-1.5 3.2-4.5v-3.5c-5.4 2.3-9 3-11.5 3-3.5 0-4.8-0.5-6-2.3-0.8-1.2-1.5-2.6-1.5-3 0-0.4 4.5-0.7 10-0.7h10c0-4.7-0.6-7.4-1.5-9-0.8-1.7-2.8-3.7-4.5-4.5-1.6-0.9-5.3-1.5-8.2-1.5-2.9 0-6.4 0.5-7.7 1.2zm28.9 12.3v13.5h9c0-15.9 0.3-17.9 1.7-19.3 1-0.9 2.8-1.7 4.1-1.7 1.2 0 2.7 0.8 3.2 2 0.6 1.1 1 5.8 1 10.5v8.5h9.5c-1.2-19.1-1.8-22.1-3.3-24-1.5-2-2.9-2.6-6.8-2.8-3.1-0.2-5.7 0.3-7.1 1.2-2 1.4-2.3 1.4-2.3 0.1 0-1.2-1.1-1.5-4.5-1.5h-4.5zm128.1-12.9c-0.9 0.3-1.4 1.6-1.3 3.2 0.2 2.6 0.3 2.7 7.9 2.7 5.3 0 7.7 0.3 8 1.2 0.2 0.8-0.9 1.3-3.4 1.2-2.1 0-5.1 0.3-6.8 0.6-1.6 0.3-4 1.4-5.2 2.5-1.7 1.4-2.3 3.1-2.3 6.2 0 3.1 0.6 4.8 2.3 6.5 1.6 1.6 3.4 2.2 6.7 2.2 2.5 0.1 5.5-0.6 6.8-1.4 2-1.4 2.2-1.4 2.2 0 0 1.1 1.2 1.5 4.5 1.5h4.5c0-20.9 0-21.1-3-24-2.8-2.9-3.3-3-11.2-3-4.6 0.1-8.9 0.3-9.7 0.6zm31.9 17.9v18.5h9c0-9.3 0.5-12.3 1-12.5 0.6-0.3 1.6 0.2 2.3 1 0.8 1 2.8 1.5 5.5 1.5 2.3 0 5.4-0.8 6.8-1.8 1.4-1 3.2-3.4 4-5.5 0.8-2.1 1.4-4.9 1.4-6.2 0-1.4-0.6-4.2-1.4-6.3-0.8-2.1-2.6-4.5-4-5.5-1.4-1-4.3-1.7-6.4-1.7-2.1 0-4.8 0.7-6 1.7-2.1 1.7-2.2 1.7-2.7 0-0.3-1.3-1.5-1.7-5-1.7h-4.5zm38-14v4.5h9v-9h-9zm85 9v13.5h9v-27h-9zm23.3-12.6c-1.2 0.5-3.4 2.3-4.8 4-1.9 2.3-2.5 4.2-2.5 8.1 0 2.9 0.7 6.2 1.8 8 0.9 1.6 3.2 3.7 5 4.5 1.8 0.8 5.7 1.5 8.7 1.5 3.1 0 6.2-0.3 7-0.5 0.9-0.3 1.5-1.8 1.5-3.5v-3c-9.8 1.2-10.8 1-12.7-0.9q-2.3-2.1-2.3-5.6 0-3.5 2.3-5.7c1.9-1.9 2.9-2.1 7.5-1.5l5.2 0.7c0-4.8-0.6-6.2-1.5-6.5-0.8-0.3-4.1-0.5-7.2-0.5-3.2 0.1-6.8 0.5-8 0.9zm53.8 0.3c-1.3 0.7-3.5 2.9-4.8 4.8-1.5 2.2-2.3 4.9-2.3 7.5 0 2.5 0.8 5.3 2.3 7.5 1.3 1.9 3.4 4 4.8 4.7 1.3 0.7 5.2 1.2 8.7 1.2 5.7 0.1 6.5-0.2 10-3.4 3.6-3.3 3.7-3.6 3.7-10 0-6.5-0.1-6.8-3.7-10.1-3.5-3.2-4.3-3.4-10-3.4-3.5 0-7.4 0.5-8.7 1.2zm30.5 0.8c-2.1 1.6-2.7 2.9-2.7 5.5 0.1 2.2 0.9 4.2 2.4 5.5 1.2 1.1 4.3 2.2 6.7 2.5 2.5 0.3 5.2 1 6 1.4 1 0.6 1.3 1.5 0.8 2.5-0.6 1.2-2 1.5-6.5 1.2-3.2-0.2-6.6-0.7-7.5-1-1.5-0.5-1.8-0.1-1.8 2.9 0 2.8 0.5 3.6 2.3 3.9 1.2 0.3 5.3 0.5 9 0.5 3.7 0.1 7.9-0.5 9.3-1.2 1.3-0.7 2.9-2.5 3.5-4 0.5-1.6 0.6-3.7 0.1-5-0.5-1.2-1.5-2.8-2.3-3.5-0.7-0.6-4.2-1.6-7.6-2.2-5.1-0.8-6.2-1.4-6-2.8 0.2-1.2 1.3-1.8 3.7-2.1 2-0.2 5.2 0.2 7.3 0.8l3.7 1.1c0-6.4-0.4-7.1-2.2-7.5-1.3-0.3-5.2-0.5-8.9-0.5-5.1 0-7.2 0.4-9.3 2zm32.7 0c-1.8 1.1-3.9 3.5-4.8 5.5-0.8 1.9-1.5 4.6-1.5 6 0 1.3 0.7 4 1.5 6 0.9 1.9 3 4.4 4.8 5.5 2.3 1.4 5 2 9.5 2 5.7 0 6.5-0.3 10-3.5 3.6-3.3 3.7-3.6 3.7-10 0-6.5-0.1-6.8-3.7-10.1-3.5-3.2-4.3-3.4-10-3.4-4.5 0-7.2 0.5-9.5 2zm222 0c-1.8 1.1-3.9 3.5-4.8 5.5-0.8 1.9-1.5 4.6-1.5 6 0 1.3 0.7 4 1.5 6 0.9 1.9 3 4.4 4.8 5.5 2.3 1.4 5 2 9.5 2 5.7 0 6.5-0.3 10-3.5 3.6-3.3 3.7-3.6 3.7-10 0-6.5-0.1-6.8-3.7-10.1-3.5-3.2-4.3-3.4-10-3.4-4.5 0-7.2 0.5-9.5 2zm70.7-0.5c-1.4 0.7-3.2 2.4-4.1 3.7-0.9 1.2-1.9 4.1-2.2 6.3-0.3 2.2-0.1 5.5 0.6 7.4 0.7 2 2.7 4.5 4.7 5.8 2.8 1.9 4.9 2.3 10.3 2.3 3.7 0 7.9-0.5 9.2-1 2-0.8 2.5-1.7 2.5-4.5v-3.5c-5.4 2.3-8.7 3-10.7 3-2.1 0-4.5-0.6-5.4-1.3-0.9-0.7-1.9-2-2.2-3-0.6-1.6 0.3-1.7 9.8-1.7 9.9 0 10.5-0.2 10.5-2 0-1.1-0.6-3.5-1.3-5.3-0.7-1.8-2.6-4.3-4.2-5.5-2.4-1.9-4.2-2.3-9-2.2-3.3 0-7.1 0.7-8.5 1.5zm66.5 3.2c-2.7 2.7-4.8 5.5-4.7 6.3 0.1 0.8 2.5 3.7 5.2 6.5 4.8 4.7 5.1 4.9 6.8 3.2 1.6-1.6 1.6-1.8-0.8-4.2l-2.5-2.6h20l-4.5 4.6 4.1 4c6.9-7 8.9-9.9 8.9-11 0-1.1-2.1-4.2-4.7-6.8-4.4-4.5-4.7-4.6-6.5-3-1.7 1.7-1.7 1.8 0.5 4l2.2 2.3h-20c4.8-4.7 4.9-5.2 3.5-6.6-0.8-0.8-1.7-1.5-2-1.5-0.3 0-2.8 2.2-5.5 4.8zm202 0.1c-2.7 2.6-4.8 5.4-4.7 6.2 0.1 0.8 2.5 3.7 5.2 6.5 4.8 4.7 5.1 4.9 6.8 3.2 1.6-1.6 1.6-1.8-0.8-4.2l-2.5-2.6h20c-4.4 4.5-4.4 4.6-2.7 6.3 1.6 1.6 2 1.5 6.5-3 2.6-2.6 4.7-5.4 4.7-6.2 0-0.9-2.1-3.7-4.7-6.3-4.4-4.5-4.7-4.6-6.5-3-1.7 1.7-1.7 1.8 0.5 4l2.2 2.3h-20c4.5-4.5 4.5-4.6 2.7-6.3-1.7-1.6-2-1.5-6.7 3.1zm94.6-4.2c-0.9 0.3-1.4 1.6-1.3 3.2 0.2 2.7 0.3 2.7 7.1 2.2 5.2-0.4 7.3-0.2 8.7 1 1.6 1.3 1.2 1.5-4.8 2-4.5 0.3-7.5 1.1-9.4 2.6-2.2 1.6-2.9 3-3.1 6.2-0.2 3.3 0.2 4.7 2.2 6.7 1.9 1.8 3.6 2.5 6.8 2.5 2.3 0 5.2-0.7 6.5-1.5 2-1.4 2.3-1.4 2.7 0 0.4 1 1.9 1.5 5 1.5h4.5c0-10.5-0.5-15.6-0.9-18-0.6-2.9-1.9-5.4-3.5-6.8-2.2-2-3.6-2.2-10.8-2.2-4.6 0.1-8.9 0.3-9.7 0.6zm36.4 1.4c-1.6 1.1-3.5 3-4.2 4.2-0.7 1.2-1.2 4.5-1.2 7.3 0 2.7 0.5 6 1.2 7.2 0.7 1.2 2.6 3.1 4.2 4.2 2.2 1.5 4.7 2 9.5 2.1 3.6 0 8-0.5 9.8-1 2.6-0.8 3.2-1.6 3.3-3.8 0-1.5-0.3-3.1-0.5-3.5-0.3-0.4-2.1-0.1-4.1 0.8-1.9 0.8-5.3 1.5-7.5 1.5-2.2 0-4.6-0.7-5.5-1.5-0.8-0.9-1.5-2.2-1.5-3 0-1.3 1.8-1.5 10-1.5h10c0-3.9-0.6-6.4-1.5-8-0.8-1.7-2.7-4-4.2-5.1-2.1-1.5-4.3-2-8.8-2-4.2 0.1-6.8 0.6-9 2.1zm51.3-0.3c-1.5 1-3.4 3-4.2 4.5-0.9 1.5-1.6 4.9-1.5 7.5 0 2.6 0.5 5.8 1.2 7 0.7 1.2 2.6 3.1 4.2 4.2 2.2 1.5 4.7 2 9.5 2.1 3.6 0 8-0.5 9.8-1 2.8-0.9 3.2-1.5 3.2-4.5 0-2-0.1-3.6-0.2-3.6-0.2 0-2 0.7-4 1.5-2.1 0.9-5.5 1.6-7.5 1.6-2.3 0-4.4-0.7-5.5-1.8-0.9-0.9-1.7-2.3-1.7-3-0.1-0.9 2.6-1.2 10.2-1.2h10.2c-1.2-7.4-2.3-9.4-4.9-11.8-3.2-2.9-4.1-3.2-9.8-3.2q-6.3 0-9 1.7zm30.7 0.8c-1.8 1.7-2.4 3.4-2.2 5.6 0.1 2 1.1 3.8 2.7 5 1.4 1 4.8 2.3 7.5 2.8 2.8 0.6 5.3 1.2 5.5 1.5 0.3 0.3 0.2 1.2-0.2 2-0.6 1.2-2.1 1.5-6.5 1.2-3.2-0.2-6.6-0.7-7.5-1-1.4-0.5-1.8-0.1-1.8 2.4 0 2.2 0.6 3.2 2.5 4 1.4 0.5 5.5 1 9 1 3.6 0 7.7-0.6 9-1.3 1.4-0.7 3.1-2.6 3.7-4.2 0.8-2.4 0.8-3.7-0.3-5.8-0.8-1.7-2.6-3.2-4.4-3.7-1.6-0.5-4.9-1.2-7.2-1.5-3.3-0.4-4.2-0.9-4-2.3 0.2-1.2 1.3-1.8 3.7-2.1 2-0.2 5.2 0.2 7.3 0.8l3.7 1.1c0-6.4-0.4-7.1-2.2-7.5-1.3-0.3-5.3-0.5-9.1-0.5-5.9 0-7.1 0.3-9.2 2.5zm52.5 11v13.5h9v-27h-9zm18.6-11.5c-2.1 1.6-2.7 2.9-2.7 5.5 0.1 2.2 0.9 4.2 2.4 5.5 1.2 1.1 4.3 2.2 6.7 2.5 2.5 0.3 5.2 1 6 1.4 1 0.6 1.3 1.5 0.8 2.5-0.6 1.2-2 1.5-6.5 1.2-3.2-0.2-6.6-0.7-7.5-1-1.5-0.5-1.8-0.1-1.8 2.9 0 2.8 0.5 3.6 2.3 3.9 1.2 0.3 5.3 0.5 9 0.5 3.7 0.1 7.9-0.5 9.3-1.2 1.3-0.7 2.9-2.5 3.5-4 0.5-1.6 0.6-3.7 0.1-5-0.5-1.2-1.5-2.8-2.3-3.5-0.7-0.6-4.2-1.6-7.6-2.2-5.1-0.8-6.2-1.4-6-2.8 0.2-1.2 1.3-1.8 3.7-2.1 2-0.2 5.2 0.2 7.3 0.8l3.7 1.1c0-6.4-0.4-7.1-2.2-7.5-1.3-0.3-5.2-0.5-8.9-0.5-5.1 0-7.2 0.4-9.3 2zm-1070.6 20.5v4.5h9v-9h-9zm310 608c0 10.8 0.1 11.5 2 11.5 1.9 0 2-0.7 2-8.3 0-6.6 0.3-8.6 1.7-10 1-0.9 3-1.7 4.3-1.7 1.4-0.1 3.1 0.5 3.8 1.2 0.8 0.8 1.3 4.3 1.2 10 0 8.1 0.2 8.8 2 8.8 1.9 0 2-0.7 2-9.3 0.1-7.9-0.2-9.6-2-11.5-1.3-1.5-3.1-2.2-5.4-2.2-2 0-4.4 0.7-5.6 1.7-1.9 1.7-2 1.7-2 0 0-1.1-0.7-1.7-2-1.7-1.9 0-2 0.6-2 11.5zm13.8 525.2c0.2 9.2 0.5 11.3 1.7 11.3 1.2 0 1.6-1.3 1.6-5.3 0.1-2.9 0.3-5.7 0.4-6.2 0.1-0.6 0.3-2.1 0.4-3.3 0.1-1.2 0.8-2.9 1.7-3.7 0.9-0.9 2.9-1.5 4.5-1.5 2 0 2.9-0.5 2.7-1.5-0.2-1.1-1.8-1.4-6.7-1.2l-6.5 0.1z"/><path class="a" d="m484.5 130.5c-0.5 1.1-1.4 3.6-2.2 5.5-0.7 1.9-1.3 4.1-1.3 4.8 0 0.8 1.6 1.2 4.5 1.2 4.1 0 4.5-0.2 4.1-2.3-0.3-1.2-1.4-4.2-2.4-6.7-1.7-3.9-2.1-4.2-2.7-2.5zm745.9 3.8c-0.9 2.8-1.9 5.8-2 6.5-0.3 0.8 1.1 1.2 4.6 1.2h5c-2.9-10.1-4.3-13-4.8-13-0.6 0-1.8 2.4-2.8 5.3zm358.8 1.2l-2.2 6.5c8.5 0 9.9-0.4 9.6-1.2-0.1-0.7-1-3.7-2-6.5-0.9-2.9-2-5.3-2.4-5.3-0.5 0-1.8 2.9-3 6.5zm-1036.7 0.1c-1.1 1-1.6 3.1-1.6 6 0.1 3.4 0.6 4.7 2.4 5.9 1.2 0.8 2.8 1.5 3.5 1.5 0.6 0 2.1-0.9 3.2-2 1.3-1.3 2-3.4 2-5.8 0.1-2.3-0.6-4.4-1.7-5.4-1-1-2.8-1.8-4-1.8-1.2 0-2.9 0.7-3.8 1.6zm122.9 0.2c-1.7 1.6-1.5 1.7 3.2 2 2.7 0.2 5.4 0.1 5.9-0.2 0.6-0.3 0.4-1.2-0.5-2.1-0.8-0.9-2.7-1.6-4.2-1.5-1.5 0-3.4 0.8-4.4 1.8zm196.1 0.4c-1 1.2-1.7 3.6-1.6 5.3 0 1.6 0.8 4 1.6 5.3 0.9 1.3 2.5 2.2 4.3 2.2 1.5 0.1 3.4-0.7 4.2-1.6 0.8-0.9 1.5-3.6 1.5-5.9 0-2.3-0.7-5-1.5-5.9-0.8-0.9-2.7-1.7-4.2-1.6-1.6 0-3.4 0.9-4.3 2.2zm193 0c-1 1.2-1.7 3.6-1.6 5.3 0 1.6 0.8 4 1.6 5.3q1.5 2.2 4.5 2.2 3 0 4.5-2.2c0.8-1.3 1.5-3.6 1.5-5.3 0-1.7-0.7-4-1.5-5.2-1-1.5-2.5-2.3-4.5-2.3-1.8 0-3.5 0.8-4.5 2.2zm64.4-0.5c-0.8 0.9-1.4 3.5-1.4 5.8 0 2.3 0.7 5 1.5 5.9 0.8 0.9 2.7 1.7 4.2 1.6 1.8 0 3.4-0.9 4.3-2.2 0.8-1.3 1.5-3.6 1.5-5.3 0-1.7-0.7-4-1.5-5.2-1-1.5-2.5-2.3-4.4-2.3-1.6 0-3.5 0.7-4.2 1.7zm222 0c-0.8 0.9-1.4 3.5-1.4 5.8 0 2.3 0.7 5 1.5 5.9 0.8 0.9 2.7 1.7 4.2 1.6 1.8 0 3.4-0.9 4.3-2.2 0.8-1.3 1.5-3.6 1.5-5.3 0-1.7-0.7-4-1.5-5.2-1-1.5-2.5-2.3-4.4-2.3-1.6 0-3.5 0.7-4.2 1.7zm34.6-0.1c-1.1 1-1.6 3.1-1.6 6 0.1 2.5 0.7 5 1.6 5.9 0.8 0.8 2.6 1.5 3.9 1.5 1.4 0 3.2-0.7 4-1.5 1-0.9 1.6-3.2 1.6-6 0-2.7-0.6-5.1-1.5-6-0.8-0.8-2.6-1.5-3.9-1.5-1.4 0-3.2 0.7-4.1 1.6zm35.5-0.4c-0.8 0.7-1.3 1.6-1.2 2 0.1 0.4 2.7 0.8 5.7 0.8 5.2 0 5.4-0.1 4.5-2-0.7-1.4-2-2-4.3-2-1.8 0-3.9 0.5-4.7 1.2zm400 0c-0.8 0.7-1.3 1.6-1.2 2 0.1 0.4 2.7 0.8 5.7 0.8 3 0 5.5-0.3 5.5-0.7 0-0.5-0.5-1.4-1.2-2.1-0.7-0.7-2.7-1.2-4.3-1.2-1.7 0-3.7 0.5-4.5 1.2zm51 0c-0.8 0.7-1.3 1.6-1.2 2 0.1 0.4 2.7 0.8 5.7 0.8 3 0 5.5-0.3 5.5-0.7 0-0.5-0.5-1.4-1.2-2.1-0.7-0.7-2.7-1.2-4.3-1.2-1.7 0-3.7 0.5-4.5 1.2zm-1036.5 8.4c-0.9 0.8-1.6 1.8-1.6 2.2 0 0.4 0.6 1.3 1.3 2 0.7 0.7 2.3 1.2 3.5 1.2 1.2 0 2.9-0.7 3.7-1.5 0.9-0.8 1.6-2.4 1.6-3.5 0-1.6-0.7-2-3.4-2-1.9 0-4.2 0.7-5.1 1.6zm951.7-0.8c-0.7 0.4-1.2 1.8-1 3.2 0.2 2 1 2.6 3.3 2.8 1.7 0.2 3.5-0.2 4.1-1 0.6-0.7 1.4-2.3 1.8-3.6 0.5-2 0.3-2.2-3.2-2.2-2 0-4.3 0.4-5 0.8z"/><path class="d" d="m1025 214.5c0 1.8 0.5 2.5 2 2.5 1.5 0 2-0.7 2-2.5 0-1.8-0.5-2.5-2-2.5-1.5 0-2 0.7-2 2.5zm126-0.5c-1.1 1.1-2 3.3-2 5 0 2.3-0.4 3-2 3-1.1 0-2 0.7-2 1.5 0 0.8 0.9 1.5 2 1.5 1.9 0 2 0.7 2 10 0 9.3 0.1 10 2 10 1.9 0 2-0.7 2-10v-10h9c0 14.7 0.3 16.3 2 18q2 2 6 2c2.9 0 4-0.4 4-1.5 0-0.9-0.9-1.5-2.5-1.5-1.4 0-3.2-0.2-4-0.5-1.2-0.4-1.5-2.3-1.5-8.5v-8c6.9 0 8-0.4 8-1.5 0-1.1-1.1-1.5-4-1.5-3.9 0-4-0.1-4-3.5 0-2.8-0.4-3.5-2-3.5-1.6 0-2 0.7-2 3.5 0 3.5 0 3.5-4.5 3.5-4.5 0-4.5 0-4.3-3.3 0.3-2.8 0.7-3.2 3.5-3.5 2.2-0.1 3.3-0.7 3.3-1.7 0-1-1.1-1.5-3.5-1.5-2.2 0-4.3 0.8-5.5 2zm171 4.8c0.1 6.4 0 6.6-1.7 5-1-1-3.3-1.8-5-1.8-1.8 0-4 0.3-4.9 0.8-0.9 0.4-2.3 1.9-3 3.5-0.8 1.5-1.4 4.7-1.4 7.2 0 2.5 0.6 5.7 1.4 7.3 0.7 1.5 2.1 3 3 3.5 0.9 0.4 3.1 0.7 4.9 0.7 1.7 0 4-0.8 5-1.8 1.7-1.6 1.8-1.6 1.7 0.1 0 1 0.7 1.7 2 1.7 1.9 0 2-0.7 2-16.5 0-15.8-0.1-16.5-2-16.5-1.8 0-2 0.7-2 6.8zm37 9.7c0 15.8 0.1 16.5 2 16.5 1.9 0 2-0.7 2-16.5 0-15.8-0.1-16.5-2-16.5-1.9 0-2 0.7-2 16.5zm51 0c0 15.8 0.1 16.5 2 16.5 1.8 0 2-0.7 2-7.7 0-5.3 0.5-8.5 1.5-10 1.1-1.7 2.3-2.2 4.7-2 2.3 0.1 3.6 0.9 4.5 2.7 0.7 1.4 1.3 5.8 1.3 9.8 0 5.7 0.3 7.2 1.5 7.2 1.2 0 1.5-1.7 1.5-9.3 0-6.5-0.4-9.8-1.5-11.4-1.2-1.8-2.4-2.3-5.8-2.3-2.6 0-4.9 0.7-6 1.8-1.7 1.6-1.8 1.4-1.7-5 0-6.1-0.2-6.8-2-6.8-1.9 0-2 0.7-2 16.5zm27-14c0 1.8 0.5 2.5 2 2.5 1.5 0 2-0.7 2-2.5 0-1.8-0.5-2.5-2-2.5-1.5 0-2 0.7-2 2.5zm14-0.5c-1.1 1.1-2 3.3-2 5 0 2.3-0.4 3-2 3-1.1 0-2 0.7-2 1.5 0 0.8 0.9 1.5 2 1.5 1.9 0 2 0.7 2 10 0 9.3 0.1 10 2 10 1.9 0 2-0.7 2-10v-10h9c0.5 15.8 0.8 17.4 2.5 18.6 1.1 0.8 3.7 1.4 5.8 1.4 2.6 0 3.7-0.4 3.7-1.5 0-1-1-1.5-2.8-1.5-1.5 0-3.3-0.5-4-1.2-0.8-0.8-1.2-4-1.2-8.6v-7.2c6.9 0 8-0.4 8-1.5 0-1.1-1.1-1.5-4-1.5-3.9 0-4-0.1-4-3.5 0-2.8-0.4-3.5-2-3.5-1.6 0-2 0.7-2 3.5 0 3.5 0 3.5-4.5 3.5-4.3 0-4.5-0.1-4.5-3 0-1.8 0.6-3.2 1.5-3.5 0.8-0.3 2.4-0.5 3.5-0.5 1.1 0 2-0.7 2-1.5 0-1-1.1-1.5-3.5-1.5-2.2 0-4.3 0.8-5.5 2zm-461.9 15.4c-0.1 15 0 15.6 1.9 15.6 1.9 0 2-0.7 2-11 0-7.5 0.4-10.9 1.1-10.8 0.6 0.2 2.3 3.7 3.8 7.8 2.3 6.4 3.1 7.5 5 7.5 2 0 2.8-1.1 5.1-7.5 1.5-4.1 3.3-7.6 3.9-7.8 0.8-0.1 1.1 3.2 1.1 10.8 0 10.3 0.1 11 2 11 1.9 0 2-0.7 2-15.5v-15.5c-6.1 0.5-6.5 1-9.9 9.8-2 5.1-3.9 9.3-4.4 9.2-0.4 0-2.2-4.2-4-9.3-3.1-8.8-3.4-9.2-6.4-9.5l-3.2-0.3zm207.1-6.2c-1.9 5.1-4.4 12-5.8 15.5l-2.3 6.2c4 0.1 4.7-0.8 5.7-3.9l1.3-4.1h14c2.2 7.2 3 8.1 4.7 8.1l2.3-0.1c-4.1-10.4-6.7-17.3-8.4-22-2.7-7.2-3.5-8.5-5.7-8.7-2.2-0.3-2.7 0.4-5.8 9zm23.9 6.2v15.5h5v-31h-5zm26 0c0 14.9 0.1 15.5 2 15.5 1.9 0 2-0.6 1.9-12.2 0-6.8 0.4-11.9 0.8-11.4 0.4 0.4 2.1 4.5 3.8 9 2.6 7 3.4 8.1 5.4 8.1 2 0 2.7-1 4.9-7.4 1.5-4 3.2-7.5 3.9-7.7 1-0.3 1.3 2.3 1.3 10.6 0 10.4 0.1 11 2 11 1.9 0 2-0.6 2-15.5v-15.5c-6.5 0-6.6 0.2-10 9.7-2 5.3-3.8 9.7-4 9.9-0.3 0.2-2.2-4.1-4.2-9.4-3.4-9.1-3.7-9.7-6.6-10l-3.1-0.3zm139.5-13c-1.7 1.7-2.5 3.7-2.5 6 0 2.5 0.6 4.2 2.2 5.6 1.2 1.1 3.6 2.2 5.2 2.5 1.7 0.3 4.3 1.1 5.9 1.8 1.7 0.7 3 2.1 3.3 3.7 0.3 1.6-0.1 3.1-1.3 4.3-1.5 1.5-2.9 1.8-6.9 1.4-2.7-0.3-5.8-0.7-6.7-1.1-1.3-0.5-1.8-0.1-1.8 1.4 0 1.2 0.9 2.2 2.3 2.5 1.2 0.2 4.8 0.5 8 0.5 4.9 0 6.2-0.4 8.3-2.5 1.6-1.6 2.4-3.7 2.4-5.8 0-1.8-0.6-4.2-1.5-5.5-0.9-1.4-3.6-2.8-7.2-3.8-3.2-0.9-6.3-2.2-7.1-2.8-0.7-0.6-1.2-2.1-1.2-3.4 0-1.2 0.9-2.7 2-3.2 1.1-0.6 3.4-1 5-1 1.7 0 4.2 0.4 5.5 1 2.3 0.9 2.5 0.7 2.3-1.3-0.2-2-0.9-2.3-7-2.5-6.1-0.3-7-0.1-9.2 2.2zm-360.6 17.1c0 10.8 0.2 11.5 2 11.5 1.9 0 2-0.7 2-11.5 0-10.9-0.1-11.5-2-11.5-1.8 0-2 0.6-2 11.5zm13.4-9.2c-2.6 2.3-2.9 3.1-2.9 9.2 0 6 0.3 6.9 2.8 9.1 2.3 2 3.6 2.3 8.5 2.1 4.6-0.2 5.8-0.6 6-2 0.2-1.5-0.4-1.6-4.5-1.1-4.1 0.6-5.1 0.4-7-1.5-1.7-1.6-2.3-3.3-2.3-6.6 0-3.4 0.6-5.1 2.3-6.7 1.9-1.8 3-2 6.8-1.5 3.9 0.5 4.6 0.3 4.5-1.1-0.1-1.4-1.2-1.8-5.7-2-4.8-0.3-6.1 0-8.5 2.1zm20.6 9.2c0 10.8 0.2 11.5 2 11.5 1.9 0 2-0.7 2-7.8 0-5.2 0.5-8.5 1.5-10q1.5-2.2 4.5-2.2 3 0 3-1.5c0-1-0.9-1.5-2.4-1.5-1.4 0-3.4 0.8-4.6 1.7-1.9 1.7-2 1.7-2 0 0-1.1-0.7-1.7-2-1.7-1.8 0-2 0.6-2 11.5zm18.3-9.1c-2.5 2.2-2.8 3-2.8 9.1 0 6 0.3 6.9 2.8 9.1 2 1.7 3.9 2.4 7 2.4 2.3 0 5.2-0.7 6.5-1.5 1.2-0.9 2.7-3.3 3.2-5.5 0.6-2.2 0.7-5.7 0.4-7.8-0.4-2-1.8-4.7-3-6-1.7-1.6-3.6-2.2-6.8-2.2-3.3 0-5.2 0.6-7.3 2.4zm24.4-0.7c-1.1 1.1-1.6 3-1.4 5.3 0.2 3.3 0.6 3.6 6.2 5.5 3.2 1.1 6 2.5 6.2 3.2 0.2 0.7-0.2 2-0.9 2.9-1 1.3-2.4 1.5-7 1-4.7-0.5-5.8-0.4-5.8 0.9 0 0.8 1 1.7 2.3 2 1.2 0.3 4.4 0.4 7.1 0.3 4-0.3 5.3-0.8 7-3.1 2-2.6 2-3 0.6-5.5-1-1.8-3.1-3.2-6.2-4.2-2.6-0.9-5.3-2.1-6-2.7-1-1-1-1.6 0.2-2.9 1.2-1.3 2.6-1.6 6.7-1.1 4.5 0.5 5.2 0.3 5-1.1-0.1-1.4-1.4-1.8-6.2-2-4.8-0.3-6.4 0.1-7.8 1.5zm24.2-0.6c-0.8 0.5-2.3 2.3-3.2 3.9-0.9 1.6-1.7 4.5-1.7 6.5 0 1.9 0.7 4.8 1.5 6.5 0.9 1.6 2.4 3.4 3.5 4 1.1 0.5 3.7 1 5.8 1 2 0 4.7-0.7 6-1.5 1.2-0.8 2.7-3.2 3.4-5.3 0.6-2 0.8-5.4 0.5-7.5-0.4-2-1.8-4.9-3.2-6.2-1.9-1.9-3.5-2.5-6.7-2.5-2.4 0-5 0.5-5.9 1.1zm157.6 1.4c-1.4 1.3-2.7 4.2-3.1 6.2-0.3 2.1-0.1 5.5 0.5 7.5 0.6 2.1 2.1 4.5 3.4 5.3 1.2 0.8 3.9 1.5 6 1.5 2 0 4.6-0.5 5.7-1 1.1-0.6 2.7-2.4 3.5-4 0.9-1.7 1.5-4.6 1.5-6.5 0-2-0.6-4.9-1.5-6.5-0.8-1.7-2.4-3.5-3.5-4-1.1-0.6-3.8-1-6-1-3 0-4.7 0.6-6.5 2.5zm53.4-1.4c-0.8 0.5-2.3 2.3-3.2 3.9-0.9 1.6-1.7 4.5-1.7 6.5 0 1.9 0.5 4.5 1.2 5.7 0.6 1.3 2 3.1 3.2 4 1.4 1.1 3.9 1.7 7.4 1.8 2.9 0 5.9-0.3 6.7-0.5 0.9-0.3 1.5-1.4 1.5-2.5 0-1.7-0.3-1.9-2-1-1.1 0.5-3.8 1-6 1q-4 0-6-2c-1.1-1.1-2-2.9-2-4 0-1.9 0.7-2 8.8-2h8.7c-1.1-5.8-2.5-8.6-3.7-9.8-1.7-1.7-3.4-2.3-6.8-2.2-2.4 0-5.2 0.5-6.1 1.1zm100.1 10.4c0 10.8 0.2 11.5 2 11.5 1.9 0 2-0.7 2-11.5 0-10.9-0.1-11.5-2-11.5-1.8 0-2 0.6-2 11.5zm-202 506c0 1.8 0.6 2.5 2 2.5 1.5 0 2-0.7 2-2.5 0-1.9-0.5-2.5-2-2.5-1.4 0-2 0.6-2 2.5zm28 0c0 1.8 0.6 2.5 2 2.5 1.5 0 2-0.7 2-2.5 0-1.9-0.5-2.5-2-2.5-1.4 0-2 0.6-2 2.5zm54 0c0 1.8 0.6 2.5 2 2.5 1.5 0 2-0.7 2-2.5 0-1.9-0.5-2.5-2-2.5-1.4 0-2 0.6-2 2.5zm-223.5 2.7c-2.5 2.3-3.8 4.6-4.4 7.8-0.6 2.6-0.6 6.3 0 9 0.6 3.2 1.9 5.4 4.4 7.7 3.1 2.9 4.2 3.3 9 3.3 3.1 0 6.7-0.6 8.1-1.3 1.4-0.7 2.5-1.7 2.5-2.2 0-0.6-0.4-1.3-0.8-1.7-0.4-0.4-1.7-0.1-2.8 0.7-1.1 0.8-3.7 1.5-5.7 1.5-2.1 0-4.7-0.5-5.8-1-1.1-0.6-2.6-2.4-3.5-4-0.8-1.7-1.5-5.1-1.5-7.5 0-2.5 0.7-5.9 1.5-7.5 0.9-1.7 2.4-3.5 3.5-4 1.1-0.6 3.7-1 5.8-1 2 0 4.6 0.6 5.7 1.4 1.1 0.8 2.4 1.2 2.8 0.8 0.4-0.4 0.8-1.2 0.8-1.7 0-0.6-1.1-1.6-2.5-2.3-1.4-0.7-5-1.2-8-1.2-4.8 0-5.9 0.4-9.1 3.2zm33-2c-0.2 0.7-2.7 7.3-5.5 14.8-2.7 7.4-5 13.8-5 14.2 0 0.4 0.9 0.8 2 0.8 1.5 0 2.4-1.1 3.3-4.1l1.2-4 13.9 0.6c2 6 3 7.1 4.7 7.4 1.8 0.2 2.3 0 1.8-1-0.3-0.8-3-7.9-6-15.7-4.7-12.6-5.6-14.3-7.6-14.3-1.3 0.1-2.5 0.6-2.8 1.3zm21.5 14.3c0 14.8 0.1 15.5 2 15.5 1.9 0 2-0.7 2-11.5 0-6.4 0.4-11.4 0.8-11.2 0.4 0.2 2.1 4.1 3.7 8.6 2.4 6.4 3.4 8.1 5 8.1 1.6 0 2.7-1.7 5.2-8.2 1.7-4.6 3.6-8.4 4.2-8.6 0.8-0.2 1.1 3.3 1.1 11.3 0 10.8 0.2 11.5 2 11.5 2 0 2-0.7 2-15.5v-15.5c-6.4-0.1-6.5 0.1-10 9.5-1.9 5.2-3.9 9.4-4.3 9.2-0.5-0.1-2.6-4.4-4.5-9.5-3.4-8.6-3.9-9.3-6.4-9.3l-2.8 0.1zm49 0c0 14.8 0.1 15.5 2 15.5 2 0 2-0.7 2-15.5 0-14.9 0-15.5-2-15.5-1.9 0-2 0.6-2 15.5zm50-11c0 2.4-0.4 3.5-1.5 3.5-0.8 0-1.5 0.6-1.5 1.5 0 0.8 0.7 1.5 1.5 1.5 1.2 0 1.5 1.5 1.5 8 0 6.6 0.4 8.3 2 10q2 2 6 2c2.9 0 4-0.4 4-1.5 0-1-0.9-1.5-2.5-1.5-1.3 0-3.1-0.3-4-0.5-1.1-0.4-1.5-2.3-1.5-8.5v-8c6.9 0 8-0.4 8-1.5 0-1.1-1.1-1.5-4-1.5-3.9 0-4-0.1-4-3.5 0-2.9-0.3-3.5-2-3.5-1.6 0-2 0.6-2 3.5zm53 0c0 1.9-0.4 3.5-1 3.5-0.5 0-1 0.6-1 1.5 0 0.8 0.5 1.5 1 1.5 0.6 0 1.1 3.7 1.3 8.6 0.2 7.2 0.5 8.8 2.2 10 1.1 0.8 3.7 1.4 5.8 1.4 2.6 0 3.7-0.5 3.7-1.5 0-1-0.9-1.5-2.7-1.5-1.5 0-3.3-0.6-4-1.3-0.8-0.8-1.3-3.9-1.3-8.5v-7.2c6.9 0 8-0.4 8-1.5 0-1.1-1.1-1.5-4-1.5-3.9 0-4-0.1-4-3.5 0-2.9-0.3-3.5-2-3.5-1.6 0-2 0.6-2 3.5zm-65 15c0 10.8 0.2 11.5 2 11.5 1.9 0 2-0.7 2-11.5 0-10.9-0.1-11.5-2-11.5-1.8 0-2 0.6-2 11.5zm28 0c0 10.8 0.2 11.5 2 11.5 1.9 0 2-0.7 2-11.5 0-10.9-0.1-11.5-2-11.5-1.8 0-2 0.6-2 11.5zm13.1-10.9c-0.8 0.3-1.4 1.2-1.3 2 0.2 1.1 1.4 1.2 5.5 0.7 4.1-0.5 5.6-0.2 7 1 0.9 0.9 1.7 2.1 1.7 2.7 0 0.5-2.1 1-4.7 0.9-3.3 0-5.6 0.6-7.5 2-2.1 1.6-2.8 2.9-2.8 5.8 0 2.3 0.7 4.4 1.8 5.5 1 1 3.3 1.7 5.7 1.7 2.5 0 4.7-0.7 5.8-1.7 1.7-1.6 1.8-1.6 1.8 0-0.1 1.1 0.7 1.8 1.9 1.8 1.9 0 2-0.7 2.1-7.3 0-4-0.5-8.7-1-10.5-0.6-1.8-2-3.7-3.1-4.2-1.1-0.6-4.1-1-6.7-0.9-2.6 0-5.4 0.3-6.2 0.5zm40.9 10.9c0 10.8 0.2 11.5 2 11.5 1.9 0 2-0.7 2-11.5 0-10.9-0.1-11.5-2-11.5-1.8 0-2 0.6-2 11.5zm9-11.3c0 0.2 1.5 4.5 3.4 9.8 1.9 5.2 3.8 10.3 4.3 11.3q0.8 1.8 3.3 1.5c2.2-0.3 3-1.7 6.5-11.6 3.6-10.1 3.8-11.2 2.1-11-1.3 0.2-2.7 2.5-5 8.4-1.7 4.5-3.3 8.5-3.6 8.8-0.2 0.3-2-3.5-4-8.4-2.5-6.6-3.9-9-5.2-9-1 0-1.8 0.1-1.8 0.2zm29.7 1.8c-1.5 1.1-3.2 3.7-3.8 5.7-0.8 2.8-0.8 4.8 0 7.5 0.6 2.1 2.4 4.7 3.9 5.8 1.9 1.4 4.2 2 7.5 2 2.6 0 5.6-0.5 6.7-1 1.1-0.6 2-1.5 2-2 0-0.7-2.3-0.8-6.2-0.4-6.1 0.7-6.3 0.6-8.5-2.2-1.3-1.6-2.3-3.5-2.3-4.2 0-0.9 2.4-1.2 8.5-1.2h8.5c0.1-5.4-0.8-7.5-2.4-9.3-2-2.2-3.4-2.7-6.9-2.7-2.8 0-5.3 0.7-7 2zm-318.7 529.5c0 15.8 0.1 16.5 2 16.5 2 0 2-0.7 2-16.5 0-15.9 0-16.5-2-16.5-1.9 0-2 0.6-2 16.5zm75-14c0 1.8 0.6 2.5 2 2.5 1.5 0 2-0.7 2-2.5 0-1.9-0.5-2.5-2-2.5-1.4 0-2 0.6-2 2.5zm83 0c0 1.8 0.6 2.5 2 2.5 1.5 0 2-0.7 2-2.5 0-1.9-0.5-2.5-2-2.5-1.4 0-2 0.6-2 2.5zm120 0c0 1.8 0.6 2.5 2 2.5 1.5 0 2-0.7 2-2.5 0-1.9-0.5-2.5-2-2.5-1.4 0-2 0.6-2 2.5zm37 14c0 15.8 0.1 16.5 2 16.5 2 0 2-0.7 2-16.5 0-15.9 0-16.5-2-16.5-1.9 0-2 0.6-2 16.5zm26-10.5c0 5.6-0.1 5.9-2 5-1.1-0.6-3.6-1-5.6-1-2.6 0-4.1 0.7-5.7 2.6-1.7 2-2.2 3.9-2.2 8.9 0 5.4 0.4 6.7 2.5 8.9 1.7 1.8 3.6 2.6 5.8 2.6 1.8 0 4.1-0.5 5.2-1q2-1 2 0c0 0.5 0.9 1 2 1 2 0 2-0.7 2-16.5 0-15.9 0-16.5-2-16.5-1.7 0-2 0.6-2 6zm97 0c0 3.3-0.3 6-0.7 6-0.4 0-1.2-0.5-1.8-1-0.5-0.6-3-1-5.4-0.8-3.9 0.2-4.8 0.8-6.8 3.8-1.5 2.2-2.3 5-2.3 7.5 0 2.5 0.8 5.3 2.3 7.5 2 3 2.9 3.5 6.8 3.7 2.5 0.2 5-0.2 5.8-1 1.2-1 1.5-1 1.8 0 0.2 0.7 1 1.3 1.8 1.3 1.3 0 1.5-2.5 1.5-16.5 0-14-0.2-16.5-1.5-16.5-1.1 0-1.5 1.3-1.5 6zm-514.5-0.8c-2.5 2.3-3.8 4.6-4.4 7.8-0.6 2.6-0.6 6.3 0 9 0.6 3.2 1.9 5.4 4.4 7.7 3.1 2.9 4.2 3.3 9 3.3 3.1 0 6.7-0.6 8.1-1.3 1.4-0.7 2.5-1.7 2.5-2.2 0-0.6-0.4-1.3-0.8-1.7-0.4-0.4-1.7-0.1-2.8 0.7-1.1 0.8-3.7 1.5-5.7 1.5-2.1 0-4.7-0.5-5.8-1-1.1-0.6-2.6-2.4-3.5-4-0.8-1.7-1.5-5.1-1.5-7.5 0-2.5 0.7-5.9 1.5-7.5 0.9-1.7 2.4-3.5 3.5-4 1.1-0.6 3.7-1 5.8-1 2 0 4.6 0.6 5.7 1.4 1.1 0.8 2.4 1.2 2.8 0.8 0.4-0.4 0.8-1.2 0.8-1.7 0-0.6-1.1-1.6-2.5-2.3-1.4-0.7-5-1.2-8-1.2-4.8 0-5.9 0.4-9.1 3.2zm198.6 12.2c-0.1 14.9 0 15.6 1.9 15.6 1.9 0 2-0.7 2-11 0-7.5 0.4-10.9 1.1-10.8 0.6 0.2 2.4 3.6 3.9 7.8 2.3 6.3 3 7.5 5 7.5 1.9 0 2.7-1.2 5-7.5 1.6-4.2 3.3-7.6 3.9-7.8 0.8-0.1 1.1 3.2 1.1 10.8 0 10.3 0.2 11 2 11 2 0 2-0.7 2-15.5v-15.5c-6.1 0.5-6.4 0.9-9.9 9.8-1.9 5.1-3.9 9.2-4.3 9.2-0.4 0-2.2-4.2-4-9.3-3.2-8.8-3.4-9.2-6.5-9.5l-3.1-0.4zm134.9 0.1c0 14.8 0.1 15.5 2 15.5 1.8 0 2-0.7 2-7.5v-7.5c10.7 0 12-0.3 12-1.5 0-1.2-1.3-1.5-6-1.5h-6v-10c12.6 0 14-0.3 14-1.5 0-1.2-1.7-1.5-9-1.5h-9zm109 0c0 14.8 0.1 15.5 2 15.5 1.9 0 2-0.7 2-11.5 0-7.5 0.4-11.4 1.1-11.2 0.5 0.1 3.6 5.2 6.7 11.2 5 9.7 6.1 11 8.5 11.3l2.7 0.2c0-30.3-0.1-31-2-31-1.9 0-2 0.7-2 11.8-0.1 10.7-0.2 11.5-1.6 9.7-0.8-1.1-3.7-6.4-6.4-11.7-4.6-9.1-5.2-9.8-8-9.8h-3zm-307-11c0 2.5-0.4 3.5-1.5 3.5-0.8 0-1.5 0.7-1.5 1.5 0 0.8 0.7 1.5 1.5 1.5 1.2 0 1.5 1.6 1.5 8 0 6.7 0.3 8.3 2 10q2 2 6 2c2.9 0 4-0.4 4-1.5 0-0.9-0.9-1.5-2.5-1.5-1.4 0-3.2-0.2-4-0.5-1.2-0.4-1.5-2.3-1.5-8.5v-8c6.9 0 8-0.4 8-1.5 0-1.1-1.1-1.5-4-1.5-3.9 0-4-0.1-4-3.5 0-2.8-0.4-3.5-2-3.5-1.6 0-2 0.7-2 3.5zm-108.9 4.2c-0.8 0.2-1.4 1.1-1.3 1.9 0.2 1.1 1.3 1.3 5 0.8 2.8-0.4 5.6-0.2 7 0.5 1.2 0.6 2.2 1.8 2.2 2.6 0 1.1-1.4 1.6-5.4 1.8-3.7 0.1-6 0.8-7.5 2.2-1.4 1.3-2.2 3.2-2.2 5.5 0 2.1 0.8 4.2 1.8 5.2 1.1 1.1 3.4 1.8 5.8 1.8 2.4 0 4.7-0.7 5.8-1.8 1.7-1.6 1.8-1.6 1.7 0.1 0 1.1 0.8 1.7 2 1.7 1.8 0 2-0.7 2-8 0-4.7-0.6-9.1-1.4-10.7-0.7-1.6-2.1-3.1-3-3.5-0.9-0.5-3.7-0.8-6.3-0.7-2.7 0-5.4 0.3-6.2 0.6zm27.8 0.4c-0.9 0.6-2.3 2.3-3.2 4-1 1.6-1.7 4.5-1.7 6.4 0 1.9 0.5 4.5 1.1 5.8 0.6 1.2 2.1 3 3.3 3.9 1.4 1.2 3.9 1.8 7.4 1.8 2.8 0 5.9-0.2 6.7-0.5 0.8-0.3 1.5-1.4 1.5-2.5 0-1.7-0.3-1.8-2-1-1.1 0.6-3.8 1-6 1q-4 0-6-2c-1.1-1.1-2-2.9-2-4 0-1.8 0.7-2 8.8-2h8.7c-1.2-5.8-2.5-8.5-3.8-9.8-1.6-1.7-3.3-2.2-6.7-2.2-2.5 0-5.2 0.5-6.1 1.1zm36.4 0.7c-1.2 0.9-2.7 2.9-3.2 4.5-0.6 1.5-1.1 3.8-1.1 5.2 0 1.4 0.7 4 1.5 5.8 0.8 1.7 2.6 3.8 4 4.5 1.4 0.6 4.5 1.2 7 1.2 2.5 0 5.2-0.2 6-0.5 0.8-0.3 1.5-1.4 1.5-2.5 0-1.7-0.3-1.8-2-1-1.1 0.6-3.8 1-6 1-2.9 0-4.6-0.6-6-2.2-1.1-1.3-2-3.1-2-4 0-1.6 1.1-1.8 8.5-1.8h8.5c0-4.7-1.1-7.3-2.5-9-2.1-2.6-3.2-3-7.2-3-3 0-5.6 0.7-7 1.8zm23.2 0c-1 1-1.8 3-1.7 4.3 0.1 1.3 0.9 3.1 1.8 3.9 0.9 0.8 3.7 2.2 6.3 3 3.1 1 4.7 2.1 4.9 3.5 0.2 1.1-0.2 2.3-1 2.7-0.7 0.4-2.8 0.8-4.5 0.8-1.8 0-4.2-0.4-5.3-1-1.7-0.9-2-0.7-1.7 1.3 0.2 2 0.8 2.2 6.5 2.5 5.1 0.2 6.6-0.1 8.2-1.8 1.1-1.1 2-3 2-4.2 0-1.3-0.4-2.9-0.8-3.6-0.4-0.7-3.2-2.1-6.2-3.1-4.6-1.5-5.5-2.2-5.5-4.2 0-2.2 0.4-2.4 5.8-2.4 4.6 0 5.7-0.3 5.5-1.5-0.2-1.1-1.9-1.6-6.4-1.8-4.8-0.2-6.4 0.1-7.9 1.6zm37.5 9.7c0 10.8 0.1 11.5 2 11.5 1.9 0 2-0.7 2-11.5 0-10.8-0.1-11.5-2-11.5-1.9 0-2 0.7-2 11.5zm12.7-9.8c-1.1 1.2-1.7 3.1-1.5 5.3 0.3 3.3 0.6 3.6 6.2 5.5 3.3 1.1 6.1 2.6 6.3 3.3 0.2 0.6-0.3 1.9-0.9 2.8-1.1 1.4-2.4 1.5-7 1-4.8-0.5-5.8-0.3-5.8 0.9 0 0.8 1 1.8 2.3 2.1 1.2 0.3 4.4 0.4 7.1 0.2 4-0.2 5.3-0.8 7-3.1 2-2.6 2-3 0.6-5.5-1-1.8-3.1-3.2-6.2-4.2-2.6-0.8-5.3-2-6-2.7-1.1-1-1-1.5 0.2-2.9 1.2-1.3 2.6-1.5 6.7-1.1 4.4 0.5 5.1 0.3 5-1.1-0.2-1.3-1.5-1.8-6.3-2-4.7-0.2-6.4 0.1-7.7 1.5zm70.3 9.8c0 10.8 0.1 11.5 2 11.5 1.9 0 2-0.7 2-11.5 0-10.8-0.1-11.5-2-11.5-1.9 0-2 0.7-2 11.5zm11 0c0 10.8 0.1 11.5 2 11.5 1.8 0 2-0.7 2-7.7 0-5.3 0.5-8.5 1.5-10 1.1-1.7 2.5-2.3 5-2.3 2.4 0 3.5-0.4 3.5-1.5q0-1.5-3-1.5c-1.6 0-3.9 0.8-5 1.8-2 1.6-2.1 1.6-2 0 0-1.1-0.7-1.8-2-1.8-1.9 0-2 0.7-2 11.5zm34.5-8.7c-1.4 1.5-2.6 4.1-2.9 5.7-0.2 1.7-0.1 4.5 0.3 6.4 0.3 1.9 1.6 4.5 2.9 5.8 1.7 1.8 3.3 2.3 7.2 2.3 4.3 0 5.3-0.4 7.5-3 2-2.4 2.5-4.1 2.5-8.5 0-4.4-0.5-6.1-2.5-8.5-2.2-2.6-3.2-3-7.5-3-4.3 0-5.5 0.4-7.5 2.8zm23.5 8.7c0 10.8 0.1 11.5 2 11.5 1.8 0 2-0.7 2-7.7 0-5.3 0.5-8.5 1.5-10 1.1-1.7 2.5-2.3 5-2.3 2.4 0 3.5-0.4 3.5-1.5q0-1.5-3-1.5c-1.6 0-3.9 0.8-5 1.8-2 1.6-2.1 1.6-2 0 0-1.1-0.7-1.8-2-1.8-1.9 0-2 0.7-2 11.5zm51 0c0 10.8 0.1 11.5 2 11.5 1.9 0 2-0.7 2-11.5 0-10.8-0.1-11.5-2-11.5-1.9 0-2 0.7-2 11.5zm14.9-10.4c-0.9 0.6-2.3 2.3-3.2 4-1 1.6-1.7 4.5-1.7 6.4 0 1.9 0.7 4.9 1.5 6.5 0.8 1.7 2.4 3.5 3.5 4 1.1 0.6 4.3 1 7 1 2.8 0 5.7-0.2 6.5-0.5 0.8-0.3 1.5-1.4 1.5-2.5 0-1.7-0.3-1.8-2-1-1.1 0.6-3.8 1-6 1q-4 0-6-2c-1.1-1.1-2-2.9-2-4 0-1.8 0.7-2 8.8-2h8.7c-1.2-5.8-2.5-8.5-3.8-9.8-1.6-1.7-3.3-2.2-6.7-2.2-2.5 0-5.2 0.5-6.1 1.1zm105.6 2c-2.3 2.6-2.7 3.9-2.6 8.5 0.1 4.2 0.7 6.1 2.6 8.4 2.2 2.6 3.2 3 7.5 3 4.3 0 5.3-0.4 7.5-3 2-2.4 2.5-4.1 2.5-8.5 0-4.4-0.5-6.1-2.5-8.5-2.2-2.6-3.2-3-7.4-3-4.3 0-5.3 0.4-7.6 3.1zm53.2-1.1c-1.5 1.1-3.1 3.7-3.7 5.8-0.6 2.4-0.6 5 0 7.5 0.6 2.1 2.2 4.6 3.8 5.7 1.8 1.4 4.2 2.1 7.2 2 2.5 0 5.5-0.2 6.8-0.5 1.2-0.3 2.2-1.2 2.2-2 0-1.2-1-1.4-5.7-0.9-4.8 0.5-6.2 0.3-8-1.2-1.2-1.1-2.3-2.8-2.5-3.9-0.3-1.8 0.4-2 8.2-2.3l8.5-0.3c-1.1-6.9-2.2-9-3.7-10.2-1.4-1.1-3.9-1.8-6.4-1.7-2.5 0-5.1 0.8-6.7 2zm-211.7 9.5c0 1.2 1.3 1.5 5.5 1.5 4.2 0 5.5-0.3 5.5-1.5 0-1.1-1.3-1.5-5.5-1.5-4.2 0-5.5 0.4-5.5 1.5z"/><path class="b" d="m1199.1 226.3c-1.2 3.4-2.1 6.5-2.1 6.9 0 0.5 2.3 0.8 5 0.8 2.8 0 5-0.3 5-0.8 0-0.4-0.9-3.5-2-7-1.1-3.4-2.4-6.2-2.9-6.2-0.5 0-1.9 2.8-3 6.2zm-119.6 1c-1 1.3-1.7 4-1.6 6.3 0 2.2 0.8 5 1.6 6.2 0.9 1.5 2.5 2.3 4.3 2.3 1.5 0.1 3.6-0.9 4.7-2.1 1.4-1.4 2-3.5 2-6.4 0-2.9-0.6-5-2-6.4-1.1-1.2-3.2-2.2-4.7-2.1-1.6 0-3.4 0.9-4.3 2.2zm48.4-1.2c-0.9 0.6-1.9 2.5-2.3 4.3-0.5 1.7-0.5 4.7-0.2 6.4 0.4 2 1.5 3.7 2.9 4.4 1.2 0.6 3.3 0.9 4.7 0.6 1.4-0.3 3.1-1.7 3.8-3.1 0.6-1.4 1.2-3.7 1.2-5.1 0-1.4-0.5-3.5-1.1-4.8-0.7-1.2-1.7-2.5-2.3-2.9-0.6-0.4-2-0.8-3.1-0.8-1.1 0.1-2.7 0.5-3.6 1zm159.5-0.2c-0.6 0.4-1.6 1.7-2.3 2.9-0.6 1.3-1.1 3.4-1.1 4.8 0 1.4 0.6 3.7 1.3 5.1 0.6 1.4 2.3 2.8 3.7 3.1 1.4 0.3 3.5 0 4.8-0.6 1.3-0.7 2.4-2.4 2.8-4.4 0.3-1.7 0.3-4.7 0-6.5-0.3-1.8-1.5-3.6-2.6-4.2-1.1-0.6-2.8-1-3.7-1-1 0-2.3 0.4-2.9 0.8zm24 1.3c-1.2 1.4-1.9 3.6-1.9 6.4 0 2.9 0.6 5 2 6.4 1.1 1.2 3.2 2.2 4.8 2.1 1.7 0 3.3-0.8 4.2-2.3 0.8-1.2 1.5-4 1.5-6.2 0-2.2-0.7-5-1.5-6.3-1-1.4-2.5-2.2-4.4-2.2-1.6 0-3.6 0.9-4.7 2.1zm26.6-0.1c-1.1 1.1-2 2.4-2 3 0 0.6 2.8 1 6.5 1 5.1 0 6.5-0.3 6.5-1.5 0-0.8-0.7-2.2-1.5-3-0.8-0.8-2.8-1.5-4.5-1.5-1.7 0-3.9 0.9-5 2zm-209.2 518.7c-0.4 0.4-1.6 3.5-2.8 6.8-1.1 3.3-2 6.1-2 6.2 0 0.2 2.5 0.3 5.5 0.3h5.5c-3.3-9.7-4.6-12.9-4.9-13.3-0.4-0.5-1-0.5-1.3 0zm229.1 5.5c-0.9 0.7-1.9 2.1-2.3 3-0.5 1.6 0.2 1.8 6.4 1.8 6.2 0 6.9-0.2 6.3-1.8-0.3-0.9-1.1-2.3-1.7-3-0.6-0.7-2.5-1.3-4.1-1.2-1.7 0-3.8 0.6-4.6 1.2zm-77.5 7.8c-1.1 0.5-2.4 1.5-2.8 2.2-0.4 0.7-0.3 2.3 0.3 3.5 0.8 1.6 2 2.3 3.9 2.3 1.5 0 3.2-0.4 3.8-0.8 0.6-0.4 1.6-1.7 2.3-3 0.6-1.2 1.1-2.9 1.1-3.7 0-1-1-1.5-3.2-1.4-1.8 0-4.2 0.4-5.4 0.9zm-264.4 518c-1.1 1.1-2 2.4-2 3 0 0.6 2.8 1 6.5 1 5.1 0 6.5-0.3 6.5-1.5 0-0.8-0.7-2.2-1.5-3-0.8-0.8-2.8-1.5-4.5-1.5-1.7 0-3.9 0.9-5 2zm37 0c-1.1 1.1-2 2.4-2 3 0 0.6 2.8 1 6.5 1 5.1 0 6.5-0.3 6.5-1.5 0-0.8-0.7-2.2-1.5-3-0.8-0.8-2.8-1.5-4.5-1.5-1.7 0-3.9 0.9-5 2zm190.4 0.1c-1.2 1.4-1.9 3.6-1.9 6.4 0 2.9 0.6 5 2 6.4 1.1 1.2 3.2 2.2 4.8 2.1 1.7 0 3.3-0.8 4.2-2.3 0.8-1.2 1.5-4 1.5-6.2 0-2.2-0.7-5-1.5-6.3-1-1.4-2.5-2.2-4.4-2.2-1.6 0-3.6 0.9-4.7 2.1zm87.1-0.3c-1 1-1.8 2.4-1.7 3 0.1 0.8 2.5 1.2 6.7 1.2 4.5 0 6.5-0.4 6.5-1.3 0.1-0.6-0.7-2-1.7-2.9-1-1-3.2-1.8-4.9-1.8-1.7 0-3.9 0.8-4.9 1.8zm37 0.4c-1 1.3-1.7 4-1.6 6.3 0 2.2 0.8 5 1.6 6.2 0.9 1.5 2.5 2.3 4.3 2.3 1.5 0.1 3.5-0.7 4.4-1.7 1.2-1.2 1.8-3.5 1.8-6.8 0-3.5-0.5-5.5-1.7-6.7-1-1-3-1.8-4.5-1.8-1.7 0-3.3 0.9-4.3 2.2zm71 0c-1 1.3-1.7 4-1.6 6.3 0 2.2 0.8 5 1.6 6.2 0.9 1.5 2.5 2.3 4.3 2.3 1.5 0.1 3.6-0.9 4.7-2.1 1.4-1.4 2-3.5 2-6.4 0-2.9-0.6-5-2-6.4-1.1-1.2-3.2-2.2-4.7-2.1-1.6 0-3.4 0.9-4.3 2.2zm25 0c-1 1.3-1.7 4-1.6 6.3 0 2.2 0.8 5 1.6 6.2 0.9 1.5 2.5 2.3 4.3 2.3 1.5 0.1 3.6-0.9 4.7-2.1 1.4-1.4 2-3.5 2-6.4 0-2.9-0.6-5-2-6.4-1.1-1.2-3.2-2.2-4.7-2.1-1.6 0-3.4 0.9-4.3 2.2zm27.9-1.4c-0.6 0.4-1.6 1.7-2.3 2.9-1.1 2.3-1 2.3 5.9 2.3 3.8 0 7-0.3 7-0.8 0-0.4-0.7-1.7-1.5-3-1-1.5-2.5-2.2-4.7-2.2-1.8 0-3.8 0.4-4.4 0.8zm-499.9 8.1c-1.1 0.4-2.3 1.5-2.7 2.4-0.5 1-0.3 2.6 0.2 3.7q1 2 4 2c1.7 0 3.9-0.9 5-2 1.1-1.1 2-3.1 2-4.5 0-2.2-0.4-2.5-3.2-2.4-1.8 0-4.2 0.4-5.3 0.8z"/></svg>