<svg version="1.2" xmlns="http://www.w3.org/2000/svg" viewBox="0 0 1024 1024" width="1024" height="1024"><style>.a{opacity:1;fill:#fefefe}.b{fill:#b79451}.c{opacity:1;fill:#c8b69d}.d{fill:#010102}.e{opacity:1;fill:#333233}</style><path class="a" d="m0 512v512h1024v-1024h-1024z"/><path class="b" d="m46.5 55.6c-2.2 0.7-6 3.1-8.4 5.1-2.4 2.1-5.6 5.8-7 8.3l-2.6 4.5-0.5 708c3.6 7.7 6.4 11.8 8.6 13.9 2.1 2.2 5.9 4.9 8.4 6 4.5 2.1 5.1 2.1 172.5 2.4l168 0.2c-0.6 16.7-0.2 25.5 0.4 30.5 0.7 5 2.3 13.3 3.7 18.5 1.4 5.3 5.1 14.8 8.4 21.5 3.2 6.6 8.8 15.8 12.3 20.5 3.5 4.7 10 11.8 14.3 15.9 4.4 4 12.2 10.2 17.4 13.7 5.2 3.4 12.9 7.8 17 9.7 4.1 1.9 11.3 4.6 16 6 4.7 1.4 11.4 3.2 15 3.8 3.6 0.7 13.5 1.3 22 1.3 11 0 18.1-0.5 24.5-1.8 5-1 12.8-3.1 17.5-4.8 4.7-1.6 12.5-5.1 17.5-7.6 5-2.6 12.6-7.3 17-10.6 4.4-3.2 10.9-8.9 14.5-12.5 3.6-3.6 8.8-9.8 11.7-13.6 2.9-3.9 7.2-10.8 9.7-15.5 2.5-4.7 6.1-13.2 8-19 2-5.8 4.3-15.2 5.1-21 1-6.6 1.5-15 1.3-22.7l-0.3-12.3c325.6-0.5 336.2-0.6 339.8-2.3 2-0.9 5.8-3.7 8.4-6.1 2.8-2.5 5.7-6.5 7-9.5l2.3-5.1-0.5-707.5c-4-7-7.2-10.7-9.6-12.8-2.4-2-6.4-4.4-8.9-5.2-4-1.3-59.1-1.5-465.5-1.4-392 0-461.6 0.3-465 1.5z"/><path class="c" d="m283 53.7c125.7 0.2 330.9 0.2 456 0 125.1-0.1 22.3-0.2-228.5-0.2-250.8 0-353.2 0.1-227.5 0.2zm-255.5 374.8c0 192 0.1 270.3 0.2 174 0.2-96.2 0.2-253.3 0-349-0.1-95.7-0.2-17-0.2 175zm969 0.5c0 192.2 0.1 270.8 0.2 174.5 0.2-96.2 0.2-253.5 0-349.5-0.1-96-0.2-17.2-0.2 175z"/><path class="a" d="m46 61.4c-3.5 1.5-6.2 3.6-7.6 5.7-1.3 1.9-3 5.1-3.8 7.2-1.4 3.2-1.6 13.5-1.6 84.2v80.5h958c0-148-0.2-162.1-1.4-165-0.7-1.9-2.7-5-4.2-6.9-1.6-1.9-5.2-4.5-7.9-5.8l-5-2.3h-921zm-13 450.6c0 220.8 0.2 268.6 1.3 271.3 0.7 1.8 2.9 5 4.7 7.1 1.9 2.2 5.7 5 8.5 6.3l5 2.3h334c1.2-8.1 3.1-15.2 5.1-21 1.9-5.8 5.3-13.9 7.5-18 2.2-4.1 6.6-11 9.7-15.4 3.1-4.3 9.5-11.5 14.2-16 4.6-4.4 12.5-10.8 17.5-14 4.9-3.3 13.2-7.9 18.5-10.3 5.2-2.3 13.7-5.3 19-6.7 5.2-1.3 14.2-3 20-3.6 6.2-0.8 14.7-1 21-0.6 5.7 0.3 14.5 1.5 19.5 2.5 4.9 1.1 12.3 3.2 16.5 4.7 4.1 1.4 11.1 4.4 15.5 6.6 4.4 2.2 11.1 6.2 15 8.9 3.8 2.7 10.1 7.7 13.9 11.1 3.8 3.5 9.7 9.9 13.1 14.3 3.4 4.4 8 11.2 10.2 15 2.3 3.9 5.5 10.4 7.1 14.5 1.7 4.1 3.9 10.9 5 15 1.1 4.1 2.2 8.8 2.6 10.3l0.6 2.7 335.5-0.5c6.2-3.3 9.5-6 11.4-8.1 1.9-2.1 4-5.3 4.7-7.1 1.1-2.7 1.4-50.5 1.4-271.3v-268h-958zm462.5 187.1c-3.9 0.5-10 1.7-13.5 2.5-3.6 0.8-10.6 3.1-15.5 5.1-5 2-12.2 5.4-16 7.6-3.9 2.2-10.2 6.4-14 9.3-3.9 2.8-10.4 8.7-14.4 13-4.1 4.4-9.8 11.5-12.7 15.9-2.9 4.4-6.9 11.6-8.8 16-1.9 4.4-4.6 11.8-6 16.5-1.4 4.7-3 12.6-3.7 17.5-0.7 5.5-1 14.2-0.6 22.5 0.4 9.6 1.3 16.5 3.1 24 1.7 6.9 4.6 14.7 8.5 22.5 3.2 6.6 8.5 15.6 11.8 20 3.3 4.4 9.6 11.4 13.9 15.5 4.3 4.2 11.7 10.1 16.4 13.2 4.6 3.1 12.3 7.5 17 9.7 4.6 2.2 12.3 5.1 17 6.4 4.6 1.4 13 3.1 18.5 3.8 6.2 0.7 14.6 1 22.5 0.6 7.3-0.4 15.8-1.5 20.5-2.7 4.4-1.1 10.2-2.7 13-3.6 2.7-0.9 9.7-4 15.5-7 5.7-2.9 13.6-7.6 17.5-10.5 3.8-2.9 10.3-8.6 14.5-12.8 4.1-4.2 10-11.4 13.1-16.1 3.1-4.7 7-11.3 8.7-14.7 1.8-3.5 4.5-10.2 6.1-15 1.6-4.8 3.7-12.8 4.5-17.8 0.9-4.9 1.6-14.6 1.6-21.5 0-6.9-0.7-16.3-1.5-21-0.8-4.7-2.6-12.1-4.1-16.5-1.4-4.4-4.1-11.1-5.9-15-1.9-3.8-5.8-10.6-8.7-15-2.9-4.4-9.1-11.8-13.8-16.6-4.7-4.7-11.9-10.9-16-13.8-4.2-2.9-10.9-7-15-9-4.2-2.1-10.9-5-15-6.5-4.2-1.5-11.4-3.6-16-4.7-5.2-1.1-13.9-2.1-22-2.3-7.5-0.3-16.7 0-20.5 0.5z"/><path class="c" d="m991.5 159.5c0 44 0.1 61.8 0.2 39.5 0.2-22.3 0.2-58.3 0-80-0.1-21.7-0.2-3.5-0.2 40.5zm-959.2-71c0 3.8 0.2 5.2 0.4 3 0.2-2.2 0.2-5.3 0-7-0.2-1.7-0.4 0.2-0.4 4zm0.2 51c0 24.2 0.1 33.9 0.2 21.5 0.2-12.4 0.2-32.2 0-44-0.1-11.8-0.2-1.7-0.2 22.5zm-0.1 72c0 15.4 0.2 21.5 0.3 13.5 0.2-8 0.2-20.6 0-28-0.1-7.4-0.3-0.9-0.3 14.5zm0.1 298c0 146.3 0.1 205.9 0.2 132.5 0.2-73.4 0.2-193.1 0-266-0.1-72.9-0.2-12.8-0.2 133.5zm959 0.5c0 146.6 0.1 206.4 0.2 133 0.2-73.4 0.2-193.4 0-266.5-0.1-73.1-0.2-13.1-0.2 133.5z"/><path class="b" d="m99 298.8c-3 1.8-5.3 4.3-6.7 7.2l-2.3 4.5v184c3.6 7.1 6.3 10.2 8.8 12l4.4 3c260.4 0.4 317.6 0.1 320.1-0.5 2-0.6 5.1-2.2 6.8-3.8 1.8-1.5 3.9-4.1 4.8-5.7 1.4-2.6 1.7-10.8 2.1-69.3 0.3-36.4 0.3-66.2 0-66.2-0.3 0-0.4-11.6-0.2-25.7 0.2-15.7 0-27.2-0.7-29.3-0.5-1.9-1.9-4.7-3-6.3-1.2-1.5-3.9-3.6-6.1-4.7-3.9-2-6-2-163.8-2h-159.7zm497 0c-3 1.8-5.3 4.3-6.7 7.2l-2.3 4.5c0 180.3 0.1 184.7 1.9 188.3 1 2 3.2 4.9 5 6.5 1.7 1.5 4.8 3.2 6.8 3.7 2.5 0.6 59.6 1 159.8 1 100.2 0 157.3-0.4 159.7-1 2.1-0.5 5.2-2.2 6.9-3.7 1.8-1.6 4-4.5 5-6.5 1.8-3.6 1.9-8 1.9-95.8 0-88.5-0.1-92.1-1.9-95.7-1.1-2.1-3.2-5-4.8-6.5-1.5-1.5-4-3.1-5.6-3.7-1.9-0.8-51.8-1.1-162-1.1h-159.2zm-87.9 415.5c0 1.8 0.4 5.5 0.8 8.2 0.5 2.8 0.8 5.1 0.7 5.3 0 0.1-2.8-3.1-6.1-7.2-4.8-6-6.6-7.5-8.8-7.5-2.2-0.1-2.7 0.4-2.7 2.2 0 1.2 0.5 6.8 1.2 12.5 1.1 8.6 1.6 10.2 3 10.2 1 0 2-0.3 2.2-0.7 0.3-0.4 0-4.2-0.5-8.3-0.5-4.1-0.8-7.6-0.7-7.8 0.2-0.1 3.2 3.1 6.8 7.2 4.3 5 7.2 7.5 8.7 7.6 1.7 0 2.3-0.5 2.3-2.2 0-1.3-0.5-5.4-1-9.3-0.5-3.8-1.2-8.4-1.5-10.2-0.4-2.4-1-3.3-2.5-3.3-1.6 0-2 0.7-1.9 3.3zm27 1.7c-0.1 1.4 0.8 2.3 2.9 3 1.6 0.6 3 1.5 3 2 0 0.6-1.2 4.8-2.8 9.5-1.5 4.7-2.5 8.7-2.2 8.9 0.3 0.2 1.4 0.6 2.4 0.8 1.6 0.3 2.4-1 4.6-7.7 1.4-4.4 2.8-8.7 3.1-9.5 0.5-1.3 1.1-1.3 4.2-0.2 3.2 1 3.8 1 4.2-0.3 0.3-0.8 0.6-1.7 0.7-1.9 0-0.3-3.7-1.6-8.3-3.1-4.6-1.4-9.2-2.8-10.1-3.1-1.1-0.4-1.6 0.1-1.7 1.6zm-68.9 5c-1.7 1.1-3.9 3.7-4.8 5.8q-1.6 3.7-0.9 7.2c0.4 2 2.2 5.1 4.3 7.2 2.7 2.8 4.6 3.7 6.9 3.8 1.8 0 5-0.8 7-1.7 2-1 4.5-3.1 5.5-4.8 1.4-2.2 1.8-4.2 1.5-8-0.4-4.2-1.1-5.5-4.1-8.2-2.9-2.6-4.5-3.3-7.9-3.3-2.4 0-5.6 0.9-7.5 2zm92 9.8c-2.2 3.7-4.9 8.6-6.1 11-2.1 4.2-2.1 4.2-0.1 5.2 1.1 0.6 2.1 0.9 2.3 0.8 0.2-0.2 2.9-4.9 6-10.5 3.1-5.7 5.7-10.5 5.8-10.7 0-0.3-0.9-1-2-1.5-1.8-1-2.4-0.4-5.9 5.7zm-116 6.2l-6.2 5c9.1 10.5 12.7 14.4 13.9 15.5 1.5 1.5 2.4 1.7 3.3 1 0.7-0.6 3.4-2.9 6.1-5 3.5-2.9 4.5-4.3 3.7-5.2-0.8-1-2.1-0.5-5.8 2.2l-4.7 3.5-4-4.2c7.3-6.2 7.8-7 6.7-8.3-1.1-1.3-1.6-1.1-4.7 1.5-1.9 1.7-3.8 3-4.3 3-0.4 0-1.3-0.8-1.9-1.8-0.7-0.9-1.3-1.9-1.3-2.2 0-0.3 2-2.1 4.5-4 3.6-2.8 4.2-3.7 3.2-4.8-0.7-0.7-1.4-1.2-1.7-1.2-0.3 0-3.3 2.3-6.8 5zm126.2 4.2c-4.4 4.9-8 9.3-8.2 9.7-0.1 0.3 2.5 3.1 5.9 6.1 5.4 4.9 6.2 5.4 7.5 4 1.3-1.3 0.9-2-3.1-5.7-4.4-4.1-4.5-4.3-2.8-6.3 1-1.1 2.2-2 2.8-2 0.5 0.1 2.6 1.4 4.5 3.1 3.2 2.6 3.6 2.8 5 1.4 1.3-1.4 1.3-1.7-0.1-2.8-0.8-0.6-2.8-2.2-4.5-3.4l-2.9-2.3c3.1-3.1 4.3-4 4.7-4 0.5 0 2.5 1.6 4.5 3.5 3 2.7 4.1 3.2 5.1 2.2 0.7-0.6 1.3-1.5 1.4-1.8 0.1-0.4-2.6-2.9-5.9-5.7l-6.1-5zm17.9 17.6c-8.4 6.9-9.2 7.9-7.8 9.2 1.4 1.4 1.9 1.3 4.6-0.7 1.6-1.3 3.4-2.3 4-2.3 0.5 0 1.2 0.8 1.5 1.8 0.3 0.9-0.2 3.9-1 6.5-1.2 3.8-1.3 5-0.3 6.3 0.7 0.8 1.5 1.5 1.8 1.5 0.2 0 1.1-2.3 2-5.1 1.3-4.3 1.7-4.9 3.5-4.3 1.1 0.4 3.1 0.7 4.5 0.6 1.3-0.1 3.3-1.2 4.3-2.4 0.9-1.3 1.7-3.6 1.7-5.1 0-1.8-1.7-4.8-4.5-8.3-2.5-3-4.6-5.5-4.8-5.4-0.1 0-4.4 3.5-9.5 7.7zm-165.1-1.3c-0.9 1.2-0.6 2.5 1 5.8 1.2 2.3 4.1 7.4 6.6 11.2 4.1 6.4 4.6 6.9 5.9 5.3 1.2-1.5 1.1-2.2-0.4-4.7-1.7-2.8-1.7-2.9 1-6.5 2.3-3 3.2-3.5 5.5-3 1.9 0.4 3.3 0.1 4.3-1 0.8-0.9 1.2-1.8 1-2-0.3-0.2-5.3-1.8-11-3.5-5.8-1.7-11-3.1-11.7-3.1-0.6 0-1.6 0.7-2.2 1.5zm88.4 18c-1 9.9-2.2 18.9-2.6 20-0.6 1.7-1.3 1-5.1-4.9-2.4-3.8-4.4-6.5-4.6-6-0.1 0.5 0.7 3.6 1.8 6.9 1.1 3.3 2 6.8 2 7.8 0 1.6-0.2 1.6-2.8 0.1-1.5-0.8-4.3-3.2-6.2-5.3-2-2.1-7.5-6.8-12.3-10.5-4.8-3.6-8.9-6.5-9.1-6.3-0.2 0.1 3.1 4.5 7.4 9.7 4.4 5.3 9.3 11.9 10.9 14.8 1.7 2.9 3 5.4 2.8 5.7-0.1 0.3-3.6-0.6-7.7-2-4.2-1.3-7.6-2.3-7.7-2.2-0.2 0.1 2.9 1.9 6.7 4 3.8 2 7.2 4.2 7.5 4.7 0.2 0.6-0.8 1-2.3 1-1.5 0-10 1.2-18.9 2.8-8.9 1.5-16.1 2.8-16 2.9 0.1 0.1 7.1 0.9 15.7 1.8 8.5 0.9 16.9 1.8 18.7 2.1 1.8 0.2 3.3 0.8 3.3 1.2 0 0.4-3.6 2.4-8 4.5-4.4 2-7.9 3.9-7.8 4.2 0.2 0.3 4.2-0.8 9-2.5 4.8-1.6 8.8-2.9 8.8-2.7 0 0.1-1.1 2.3-2.5 4.7-1.4 2.5-6.3 9.3-11 15-4.7 5.8-8.5 10.9-8.5 11.3 0 0.4 2.8-1.4 6.2-4 3.5-2.6 9.3-7.5 13-11 3.7-3.4 7.7-6.3 8.8-6.3 1.1 0 2 0.1 2 0.3-0.1 0.1-1.1 4.3-2.3 9.3-1.2 5.1-1.9 9-1.5 8.8 0.4-0.2 0.8-0.9 0.8-1.6 0-0.7 1.9-4.6 4.2-8.8 4.1-7.4 4.2-7.4 4.9-4.5 0.5 1.7 1.5 10.2 2.4 19 0.8 8.8 1.5 16.7 1.5 17.5 0 1.4 0.1 1.4 0.9 0 0.5-0.8 1.6-6.6 2.5-13 0.9-6.3 1.6-14.5 1.6-18.2 0-3.7 0.3-6.8 0.7-6.8 0.4 0 1.4 1 2.3 2.3 0.8 1.2 2.9 4.7 4.7 7.7 1.8 3.1 3.2 5.1 3.2 4.5 0.1-0.5-0.8-4.1-1.9-8-1.1-3.8-2-7.5-2-8.2 0-0.7 0.4-1.3 1-1.3 0.5 0 3.3 2.2 6.2 4.9 2.9 2.6 9.4 8 14.5 12 5.1 3.9 9.3 6.9 9.3 6.6 0-0.2-3.3-4.6-7.3-9.7-4-5-9.1-11.9-11.4-15.2-2.3-3.4-4.1-6.2-4-6.4 0.1-0.1 3.5 0.9 7.7 2.3 4.1 1.4 7.6 2.4 7.7 2.3 0.1-0.2-3.1-2.1-7.2-4.3-4.1-2.2-7.5-4.3-7.5-4.7 0-0.4 0.4-0.8 1-0.8 0.5 0 9-1.1 18.7-2.5 9.8-1.4 18-2.7 18.3-2.9 0.2-0.3-1.6-0.7-4-1-2.5-0.3-10.6-1.3-18-2.1-7.5-0.8-14.4-1.2-15.5-0.9-1.8 0.6-1.9 0.5-0.5-0.9 0.8-0.8 5.1-3.3 9.5-5.6 4.4-2.2 7.4-4 6.7-4-0.7-0.1-4.9 1.3-9.5 2.9-4.5 1.7-8.3 2.9-8.4 2.8-0.1-0.2 0.8-2.2 2-4.5 1.2-2.4 4.4-6.9 7.2-10 2.8-3.2 7.5-8.9 10.5-12.8 3-3.8 4.8-6.5 4-5.9-0.9 0.6-4.5 3.3-8 5.9-3.6 2.7-9.8 8-13.8 11.7-4 3.8-7.7 6.8-8.2 6.8-0.6 0-1-0.6-1-1.5 0-0.8 1.1-5 2.4-9.2 1.4-4.3 2.3-7.9 2-8-0.2-0.2-1.2 1.2-2.1 3-0.8 1.8-3.2 5.9-5.2 9.2l-3.6 5.9c-1-10.8-1.8-19-2.5-25.4-0.6-6.3-1.5-12.6-1.9-14-0.6-1.7-1.4 3.4-2.6 15.5zm-96.5 39.7c-0.8 0.7-1.3 2-1.2 3 0.1 1 1.1 2.3 2.2 2.8q2 1 4 0c1.1-0.5 2-1.8 2-2.7 0-1-0.6-2.3-1.3-3-0.7-0.7-1.9-1.3-2.8-1.3-0.8 0-2.2 0.6-2.9 1.2zm193.5-0.6c-0.5 0.4-0.8 1.8-0.7 3.1 0.1 1.3 1.1 2.8 2.4 3.4 1.9 0.9 2.6 0.7 4.3-1 1.5-1.7 1.7-2.5 0.9-3.8-0.6-1-2.2-1.9-3.6-2.1-1.3-0.1-2.8 0.1-3.3 0.4zm-178.5 57.3c-3.1 3.1-3.8 4.7-3.9 8-0.1 3.4 0.4 4.6 3.1 7.2 1.8 1.7 4.2 3.3 5.3 3.6 1.4 0.4 3.1-0.6 5.7-3.3l3.8-3.9c-6.5-5.1-7.1-5.2-7.8-3.9-0.5 1-0.2 1.9 0.8 2.4 1.3 0.8 1.3 1.1 0 2.5-0.9 0.9-2.1 1.6-2.8 1.6-0.7-0.1-1.9-0.7-2.7-1.6-0.9-0.8-1.5-2.6-1.5-4 0-1.3 1.1-3.8 2.5-5.5 1.5-1.8 3.4-3 5-3 1.3 0 3.4 0.5 4.5 1 1.1 0.6 2.4 2.4 3 4 0.5 1.7 1.6 3 2.5 3 0.9 0 1.5-0.9 1.5-2.5 0-1.5-1.4-3.8-3.5-6-2.9-2.8-4.3-3.5-7.6-3.5-3.5 0-4.8 0.6-7.9 3.9zm150.8 0.7c-1.1 1.3-1.1 1.7 0.2 2.8 0.8 0.7 4.4 3.8 8 6.9 3.5 3.1 6.7 5.7 7 5.7 0.2 0.1 2.6-2.5 5.3-5.7 4.3-5.2 4.6-5.9 3.2-7.3-1.5-1.3-1.8-1.3-2.8 0.5-0.6 1.1-2.1 3.2-3.3 4.5l-2.2 2.5c-7.5-6.4-10.4-9-11.2-9.9-0.9-0.9-1.8-1.6-2.2-1.6-0.3 0-1.2 0.7-2 1.6zm-12 12c-1.1 1.3-0.8 3.2 2.2 12.9 3.1 10.2 3.6 11.2 5.2 10.2 1.2-0.8 1.5-1.9 1.1-3.2-0.3-1.1-0.8-2.4-1-3-0.2-0.5 1.3-2.3 3.4-3.9 3.3-2.5 4.1-2.7 6.3-1.7 2 1 2.8 0.9 4-0.3 1.3-1.3 0.7-1.8-5-4.6-3.6-1.8-8.2-4.3-10.3-5.6-2-1.3-3.9-2.4-4.1-2.4-0.2 0-1 0.7-1.8 1.6zm-118.1 2c-1.5 0.8-3.7 3.3-4.8 5.7-1.5 2.9-1.9 5.2-1.5 7.5 0.3 1.8 1.8 4.3 3.3 5.5 1.5 1.3 4.2 2.7 6 3 2.1 0.5 4.4 0.2 6.5-0.7 1.8-0.9 4.3-3.2 5.5-5.3 1.2-2.1 2.2-4.8 2.2-6 0.1-1.3-0.6-3.6-1.4-5.3-0.9-1.6-2.9-3.6-4.5-4.5-1.7-0.8-4.3-1.5-5.8-1.4-1.5 0-4 0.7-5.5 1.5zm101.3 8.8c-3.1 1.2-5.5 2.7-5.5 3.2 0 0.5 1.8 5.3 4 10.6l4 9.6c8.5-3.8 11.4-5.3 12-5.8 0.5-0.5 0.6-1.6 0.2-2.4-0.6-1.4-1.2-1.3-4.7 0.4-2.2 1.1-4.5 2-5 2-0.6 0-1.3-0.6-1.5-1.5-0.3-0.8-0.5-1.9-0.5-2.5 0-0.5 1.6-1.5 3.5-2.2 2.2-0.8 3.5-1.9 3.5-3 0-1-0.5-1.8-1-1.8-0.6 0-2.4 0.7-4 1.5-1.7 0.9-3.4 1.4-3.8 1.2-0.4-0.2-1.1-1.4-1.5-2.5-0.6-1.9-0.1-2.5 3.8-4.2 3.1-1.3 4.3-2.4 4-3.5-0.3-0.8-0.9-1.5-1.3-1.4-0.4 0-3.2 1-6.2 2.3zm-79.6 8.4c-2 4.2-3.8 8.9-4.1 10.2-0.5 2.3 0 2.7 5 4.8 3.1 1.2 6.1 2.2 6.7 2.2 0.5 0 1-0.6 1-1.5 0-0.8-1.8-2.1-4-3-2.2-0.8-4-1.8-4-2.2-0.1-0.4 1.5-4.4 3.4-8.8 1.9-4.4 3.2-8.3 3-8.7-0.2-0.4-1.1-0.8-1.9-0.8-1 0-3 3.1-5.1 7.8zm19.6 3.1c-0.5 2.6-1.4 7.6-2 11.1-0.6 3.6-0.8 6.8-0.5 7 0.4 0.3 3.5 0.6 7.1 0.8 5.9 0.2 6.6 0 9.4-2.8 2.6-2.6 3-3.7 2.9-8.2 0-2.9-0.5-6-1.2-6.9-0.7-0.8-2.2-2.1-3.5-2.7-1.2-0.6-4.3-1.6-6.8-2l-4.6-0.9zm40-4.2c-0.8 0.3-2.3 1.3-3.3 2.2-1 0.9-1.8 3-1.8 4.6 0 1.7 0.6 3.6 1.3 4.2 0.7 0.7 3.5 1.6 6.2 2 2.7 0.5 5.1 1.4 5.3 2.1 0.1 0.7-0.3 1.9-0.9 2.8-1 1.2-2.2 1.5-5 1-2.8-0.4-4.1-0.2-4.8 0.9-0.7 1.1-0.5 1.8 1 2.5 1.1 0.6 3.4 1 5.1 1 2.1 0 4-0.9 6-3 1.6-1.6 2.9-3.9 2.9-5 0-1.1-0.9-2.9-2-4-1.1-1.1-3.3-2-5-2-1.6 0-3.7-0.2-4.5-0.5-0.8-0.3-1.5-1.4-1.5-2.5 0-1.2 0.8-2.2 2-2.5 1.1-0.3 2.8-0.2 3.8 0.1 0.9 0.3 2.3-0.2 3-1 1-1.3 0.8-1.7-1.3-2.6-1.4-0.5-3.1-0.9-3.7-0.9-0.7 0-2 0.3-2.8 0.6z"/><path class="d" d="m661 104.7c-0.8 0.2-1.3 1.5-1.2 2.9 0.2 1.8 0.8 2.4 2.7 2.4 1.4 0 2.7-0.7 3-1.5 0.3-0.8-0.2-2.2-1-3-0.8-0.8-1.6-1.5-1.8-1.4-0.1 0-0.9 0.3-1.7 0.6zm-15 16c-0.1 13.9 0.2 16 1.7 17.5 1 1 3.3 1.8 5 1.8 2.6 0 3.3-0.4 3.3-2q0-2-2.3-2.3c-2.2-0.2-2.2-0.5-2.5-15.5l-0.2-15.2h-5zm-554.5-12.9c-1.6 1-3.8 3.4-4.7 5.5-1.1 2.2-1.8 6-1.8 9.9 0 4.2 0.6 7.4 1.9 9.7 1.1 2 3.4 4.3 5.3 5.3 1.8 1 5 1.8 7.1 1.8 2 0 5.1-0.7 6.7-1.6 1.7-0.8 3.5-2.4 4-3.5 0.8-1.5 0.7-2.2-0.5-3-1.1-0.7-2.2-0.3-4.5 1.5-1.6 1.4-4.1 2.5-5.5 2.5-1.3 0-3.4-0.4-4.5-1-1.1-0.5-2.6-2.3-3.5-4-0.8-1.6-1.5-5.3-1.5-8.2q0-5.2 2-8.5c1.2-1.9 3.2-3.5 4.8-3.9 1.5-0.3 3.7-0.3 5 0 1.2 0.4 2.8 1.7 3.5 3.1 1.1 2.1 1.5 2.2 3.4 1.2 1.9-1 2-1.5 1-3.5-0.6-1.3-2.4-3-3.9-3.8-1.5-0.7-4.7-1.3-7-1.3-2.4 0-5.6 0.8-7.3 1.8zm33.7 0.3c-0.5 1.3-3.4 8.8-6.4 16.7-3.1 7.9-5.6 14.5-5.7 14.7 0 0.3 1.1 0.4 2.4 0.4 2.1 0 2.9-0.8 4.3-4.5l1.7-4.5h13c3.2 8.2 4 9 6 9 1.4 0 2.5-0.3 2.5-0.7 0-0.4-2.8-7.9-6.3-16.8-5.1-13.3-6.5-16-8.4-16.3-1.5-0.2-2.4 0.4-3.1 2zm22.8 14.8v17h5l0.1-25.5c8 20.4 9 22.1 11 22.4 2.2 0.3 2.8-0.7 6.9-10.9l4.5-11.2 0.5 25.3 5-0.1v-34l-7.1 0.5c-7 17.9-9.2 23.3-9.4 23.5-0.3 0.3-0.9-0.8-1.5-2.5-0.6-1.6-2.6-7.1-4.5-12.2-3.5-9.2-3.5-9.3-7-9.3h-3.5zm53 0v17c19.7 0 20 0 20-2.2 0-2.2-0.3-2.2-7.5-2l-7.5 0.2v-30h-5zm30.3-14.9c-1.8 1.1-4 3.4-5 5.2-1.1 2.1-1.7 5.6-1.7 9.7-0.1 5.1 0.5 7.4 2.2 10.3 1.2 2.1 3.7 4.5 5.5 5.4 2.1 1.1 5 1.5 8.4 1.2 3.3-0.2 5.8-1 7.2-2.4 1.8-1.6 2.2-3.1 2.2-8.2l-0.1-6.3c-10.3 0-11 0.3-11 2 0 1.6 0.7 2 3 2 2.9 0 3 0.3 3 4q0 4-1.5 4.5c-0.8 0.3-2.9 0.6-4.7 0.6-2.1 0-4.1-0.8-5.5-2.3-1.3-1.2-2.7-4.2-3.3-6.5-0.6-2.8-0.6-5.7 0-8.5 0.6-2.3 1.9-5.3 3-6.5 1.3-1.5 3.1-2.3 5.3-2.3 1.9 0 4.2 0.9 5.5 2 1.3 1.2 3.1 1.8 4.2 1.5 1.1-0.2 2-0.9 2-1.5 0-0.5-0.8-1.7-1.7-2.6-1-0.9-2.8-2-4-2.5-1.3-0.5-4-0.8-6-0.8-2.1 0-5.2 0.9-7 2zm27.8-0.1c-1.8 1.1-3.3 2.7-3.2 3.5 0.1 0.9 0.9 1.8 1.9 2.1 0.9 0.2 2.4-0.2 3.2-1 0.9-0.8 2.7-1.5 4-1.5 1.4-0.1 3.1 0.5 3.8 1.2 0.7 0.7 1.2 2.6 1.2 4.2 0 1.8-1.4 4.9-3.4 7.5-1.9 2.5-5 6.1-7 8-2.1 2-3.6 4.5-3.6 5.8 0 2.2 0.4 2.2 9.5 2.2 9.2 0 9.5 0 9.5-2.2 0-2.1-0.3-2.2-6-2-3.3 0.1-6-0.1-6-0.5 0-0.4 1.6-2.3 3.6-4.3 1.9-1.9 4.7-5 6-7 1.8-2.5 2.5-4.7 2.5-8 0-3.3-0.6-5-2.3-6.7-1.3-1.3-4-2.5-6.3-2.8-2.9-0.4-4.9 0-7.4 1.5zm28-0.7c-1.3 0.7-3.5 2.8-4.8 4.8-1.9 2.9-2.3 4.7-2.3 10.9 0 5.1 0.6 8.7 1.8 11 0.9 2 2.9 4.1 4.2 4.8 1.4 0.7 4 1.2 5.8 1.2 2 0 4.4-0.9 6.2-2.5 1.7-1.3 3.5-4.1 4-6.2 0.6-2.1 1-6 1-8.8-0.1-2.7-0.6-6.5-1.3-8.4-0.6-1.8-2.3-4.2-3.7-5.2-1.3-1-3.8-2.1-5.5-2.4-1.6-0.3-4.1 0.1-5.4 0.8zm25.3-0.4c-1.2 0.5-2.9 1.8-3.8 3-1.4 2-1.4 2.2 0.2 3.1 1.2 0.6 2.4 0.4 3.7-0.6 1.1-0.7 3.2-1.4 4.5-1.4 1.4 0 3.1 0.6 3.8 1.3 0.7 0.7 1.3 2.3 1.2 3.5 0 1.2-0.5 3.3-1.1 4.5-0.7 1.2-3.8 5.2-7 8.7-3.4 3.8-5.8 7.5-5.8 8.8-0.1 2.2 0.2 2.2 9.4 2.2 9.5 0 9.5 0 9.5-2.5 0-2.4-0.1-2.4-6.4-2.2l-6.5 0.2c6.7-6.9 9.6-10.3 10.8-12 1.5-2 2.2-4.4 2.2-7.5 0-3.3-0.6-5-2.3-6.7-1.3-1.3-3.9-2.5-6.3-2.8-2.2-0.2-4.9 0-6.1 0.4zm63.8 14.4c-3.4 8.4-6.4 16.1-6.9 17.1-0.7 1.6-0.4 1.8 2.2 1.5 2.4-0.3 3.1-1 4.2-4.6l1.3-4.3h14c3.1 8.1 4 9.1 5.8 9.1 1.3 0 2.1-0.6 2-1.3-0.2-0.7-3-8.4-6.3-17-5.2-13.6-6.3-15.7-8.2-15.7-1.8 0-2.9 2-8.1 15.2zm27.8 1.7v17c19.4 0 20-0.1 20-2 0-1.8-0.6-2-7.5-2h-7.5v-11.5c12.7 0.5 13 0.4 13-1.7 0-2.1-0.3-2.2-6.5-2l-6.5 0.2v-10c14.9 0 15 0 15-2.5v-2.5h-20zm34.2-15.2c-1.9 1-4.2 3.3-5.3 5.2-1.3 2.5-1.9 5.6-1.9 10 0 4.8 0.6 7.4 2 9.8 1.1 1.8 3.5 4.1 5.3 5.2 1.8 1.2 5 2 7.2 2 2.3 0 5.5-0.8 7.3-2 2-1.2 4.1-3.8 5.4-6.7 1.7-3.9 2-5.9 1.5-10.8-0.3-3.3-1.3-7-2.1-8.2-0.9-1.2-3-3.1-4.8-4.2-1.8-1.2-5-2-7.3-2-2.2-0.1-5.5 0.7-7.3 1.7zm28.8 15.2v17h5l0.5-24.3c14 23.4 14.8 24.3 17.5 24.3h3v-34h-5c0 18.6-0.3 24-0.7 24-0.4 0-3.9-5.4-7.8-12-6.2-10.6-7.3-11.9-9.7-11.9l-2.8-0.1zm59.4-15.5c-1.7 0.8-3.9 2.7-4.9 4.2-1.2 1.8-2 5.3-2.3 9.3-0.2 3.6 0 8.1 0.6 10 0.6 2 2.5 4.8 4.2 6.3 1.9 1.7 4.2 2.7 6 2.7 1.7 0 4.2-0.5 5.7-1.2 1.4-0.7 3.4-2.9 4.5-5 1.2-2.5 1.8-5.9 1.8-10.3 0-3.5-0.6-7.9-1.3-9.7-0.8-1.8-2.2-4-3.3-5-1-0.9-3.2-1.9-4.9-2.2-1.6-0.3-4.4 0.1-6.1 0.9zm28.9-0.1c-2.1 0.8-4.1 2.7-5.7 5.7-1.8 3.1-2.6 5.9-2.6 9.4 0 2.8 0.5 6.7 1 8.8 0.6 2.1 2.4 4.9 4 6.2 1.8 1.5 4.3 2.5 6 2.5 1.7 0 4.4-0.6 6-1.5 1.7-0.8 3.7-3 4.5-5 0.9-2 1.5-6.5 1.5-10.7 0-5.5-0.5-8-2-10.5-1.1-1.8-3.5-3.9-5.5-4.8-1.9-0.8-3.6-1.4-3.7-1.4-0.2 0-1.7 0.6-3.5 1.3zm68.5-0.7c-0.3 0.5-3.3 7.9-6.7 16.6-3.3 8.7-6.1 16-6.1 16.2 0 0.3 1.2 0.5 2.5 0.5 2.1 0 2.9-0.8 4.3-4.5l1.7-4.5h13c3.2 8.2 4 9 6 9 2.2 0 2.4-0.3 1.9-2.2-0.4-1.2-3.3-8.8-6.4-16.8-4.5-11.2-6.2-14.5-7.7-14.8-1.1-0.1-2.3 0.1-2.5 0.5zm223.2 16.3v17h5l0.5-25.4c8.1 21.3 8.5 21.9 11.1 21.9 2.5 0 3-0.6 6.8-10.7 2.3-5.9 4.4-10.7 4.6-10.7 0.3 0 0.4 5.6 0.3 12.4l-0.3 12.5h5v-33l-7.4 0.5c-6.3 16.6-8.3 21.7-8.6 22-0.2 0.3-2.1-3.6-4.2-8.7-2-5.1-4.1-10.5-4.7-12-0.9-2.3-1.7-2.8-4.6-2.8h-3.5zm-513.4-11.7c-0.3 2.3-0.7 5.8-0.8 7.7l-0.3 3.5c9.2-0.5 11.7-0.1 13 0.9q2 1.5 2 5c0 2.1-0.8 4.3-2 5.6-1.1 1.2-3.1 2.1-4.5 2.1-1.3 0-3.5-0.7-4.7-1.5-1.8-1.3-2.6-1.3-3.8-0.3-0.9 0.7-1.5 1.6-1.5 2 0 0.4 1.5 1.5 3.3 2.4 2.3 1.1 4.7 1.4 8.2 1.1 3.8-0.4 5.6-1.2 7.3-3.1 1.2-1.5 2.5-3.9 2.9-5.4 0.3-1.5 0.1-4.4-0.5-6.5-0.8-2.4-2.3-4.5-4.4-5.8-2.4-1.5-4.3-1.9-7-1.5-3.3 0.5-3.8 0.3-3.8-1.5 0-1.1 0.3-2.6 0.5-3.5 0.4-1.1 2.1-1.5 7-1.5 5.9 0 6.5-0.2 6.5-2 0-1.8-0.6-2-8.4-2h-8.5zm240.5-2.2c0 1.8 0.8 2 6.9 2.2l6.9 0.3c-6.2 14.7-8.8 21.1-9.9 23.7l-1.9 4.8c4.9-0.5 5.8-2 11.1-14.5 3.2-7.7 5.9-15 5.9-16.3 0-2.1-0.3-2.2-9.5-2.2-8.8 0-9.5 0.1-9.5 2zm255 3c0 2.2-0.6 3.1-2 3.5-1.2 0.3-2 1.3-2 2.5q0 2 1.8 1.7c1.5-0.2 1.8 1 2.2 8.8 0.5 8.3 0.7 9 3 10.2 1.4 0.7 3.7 1.3 5.3 1.3 2 0 2.7-0.5 2.7-2 0-1.6-0.7-2-3-2-1.8 0-3.2-0.6-3.5-1.5-0.3-0.8-0.5-4.4-0.5-8v-6.5c6.2-0.4 7.4-1 7.7-2.3 0.2-1.4-0.4-1.7-3.7-1.7-3.9 0-4-0.1-4-3.5 0-2.8-0.4-3.5-2-3.5-1.6 0-2 0.7-2 3zm-151.7 4.5c-1.3 0.8-3 2.8-3.8 4.5-0.8 1.6-1.5 4.6-1.5 6.5 0 1.9 0.7 4.8 1.5 6.5 0.8 1.6 2.5 3.7 3.8 4.5 1.2 0.8 3.6 1.5 5.2 1.5 1.7 0 4-0.7 5.3-1.5 2.1-1.4 2.2-1.4 2.2 0.7 0 1.3-0.8 3.4-1.7 4.7-1.5 2-2.4 2.3-5.8 1.9-2.2-0.3-4.7-0.8-5.5-1.2-1-0.5-1.8-0.1-2.3 1.1-0.4 1-0.3 2.2 0.4 2.8 0.6 0.6 3.1 1.2 5.7 1.4 2.6 0.2 5.9 0.1 7.5-0.3 1.6-0.3 3.5-2 4.7-3.9 1.7-2.8 2-5 2-16.5v-13.2c-3.9 0-5 0.4-5 1 0 0.5-1 0.3-2.2-0.5-1.3-0.8-3.6-1.5-5.3-1.5-1.6 0-4 0.7-5.2 1.5zm31.3 0.6c-2.3 1.7-2.8 1.8-2.7 0.5 0.1-1-0.7-1.6-1.9-1.6-1.9 0-2 0.7-2 12 0 10.8 0.2 12 1.8 12 1.4 0 1.8-1.2 2.2-8.4 0.3-5.6 1-9.1 2.2-10.5 1-1.3 2.7-2.1 4.7-2.1 2.1 0 3.4 0.6 4.1 2 0.6 1.1 1 5.8 1 10.5 0 8.4 0 8.5 2.5 8.5 2.5 0 2.5-0.1 2.5-8.3 0-4.5-0.4-9.7-1-11.5-0.6-1.9-2-3.6-3.5-4.2-1.4-0.6-3.6-1-4.8-1-1.3 0-3.6 0.9-5.1 2.1zm28.4-0.1c-1.1 1.1-2.2 2-2.5 2-0.3 0-0.3-0.7 0-1.5 0.4-1.1-0.1-1.5-2-1.5h-2.5v24c5 0 5-0.1 5-8.8-0.1-7.8 0.2-8.9 2.1-10.5 1.2-0.9 2.9-1.7 3.8-1.7 0.9 0 2.2 0.5 2.9 1.2q1.2 1.3 1.2 10.5c0 9.3 0 9.3 2.5 9.3 2.5 0 2.5-0.1 2.5-8.8-0.1-7.1 0.3-9 1.7-10.4 1-1 2.7-1.8 3.8-1.8 1.1 0 2.6 0.5 3.3 1.2q1.2 1.3 1.2 10.5c0 9.3 0 9.3 2.5 9.3h2.5c0-19.3-0.2-20.2-2.5-22.5-1.4-1.4-3.7-2.5-5.2-2.5-1.6-0.1-3.9 0.8-5.3 1.9-2.5 1.9-2.5 1.9-5 0-1.4-1.1-3.7-2-5.2-1.9-1.6 0-3.7 0.9-4.8 2zm40.3-0.7c-1.3 0.7-3.2 2.9-4.3 4.8-1.1 1.8-2 4.7-2 6.4 0 1.6 0.8 4.6 1.8 6.5 0.9 1.9 2.8 4 4.2 4.7 1.4 0.7 4.2 1.3 6.3 1.3 2 0 4.8-0.6 6.2-1.3 1.4-0.6 2.5-1.4 2.5-1.7 0-0.3-0.4-1.1-0.8-1.8-0.5-1.1-1.2-1.1-2.9-0.3-1.3 0.6-4 1-6 0.8-3.1-0.2-3.9-0.7-5-3.5l-1.3-3.2h17c0-4.7-0.6-7.2-1.2-8.6-0.7-1.5-2.5-3.3-4-4-1.6-0.8-4-1.4-5.5-1.4-1.6 0-3.8 0.6-5 1.3zm28.8 0.2c-1.3 0.9-2.3 1.1-2.2 0.6 0-0.6-1-1.1-2.4-1.1h-2.5v24c5 0 5-0.1 5-8.3 0-5.7 0.5-8.9 1.5-10.5 0.9-1.3 2.6-2.2 4.3-2.2 1.5-0.1 3.4 0.7 4.2 1.6 1 1.2 1.6 4.3 1.7 10.3 0.2 7.8 0.4 8.6 2.3 8.8 1.9 0.3 2-0.2 2-9.7 0-9.3-0.2-10.2-2.5-12.5-1.6-1.6-3.6-2.5-5.7-2.5-1.8 0-4.4 0.7-5.7 1.5zm85.2 0c-2.6 1.2-3.1 1.8-2.3 3 0.8 1.1 1.5 1.2 3 0.5 1.1-0.6 3.5-1 5.3-1 1.7 0 3.8 0.5 4.5 1.2 0.7 0.7 1.2 2 1.2 2.8 0 1.1-1.6 1.7-5.7 2.2-3.2 0.5-6.8 1.5-8 2.3-1.7 1.1-2.3 2.5-2.3 5 0 2.2 0.8 4.3 2 5.5 1.3 1.3 3.3 2 5.8 2 2 0 4.7-0.7 6-1.5 2-1.3 2.3-1.3 3.5 0 0.6 0.9 2.2 1.6 3.5 1.5 1.5 0 2.2-0.6 2.2-2 0-1.1-0.7-2.2-1.5-2.5-1.2-0.4-1.5-2.3-1.5-8.3 0-4.2-0.4-8.2-0.8-8.8-0.4-0.6-1.7-1.6-2.9-2.3-1.3-0.6-3.8-1.1-5.5-1.1-1.8 0.1-4.8 0.7-6.5 1.5zm30.7 0.7c-2.1 1.9-2.4 2-2.2 0.5 0.1-1.2-0.5-1.7-2.3-1.7h-2.5v34c4.9 0 5-0.3 5-6 0-3.3 0.4-6 1-6 0.6 0 1.2 0.4 1.5 1 0.3 0.6 2.3 1 4.6 1 3.1 0 4.7-0.7 6.9-2.8 1.7-1.6 3-4.2 3.3-6.5 0.4-2.2 0.2-5.6-0.3-7.8-0.6-2.4-2.1-4.7-3.7-5.9-1.6-1.2-4.2-2.1-5.8-2-1.7 0-4.1 1-5.5 2.2zm-261 10.8c0 11.3 0.1 12 2 12 1.9 0 2-0.7 2-12 0-11.3-0.1-12-2-12-1.9 0-2 0.7-2 12zm-475-2c0 1.7 0.7 2 4.5 2 3.8 0 4.5-0.3 4.5-2 0-1.7-0.7-2-4.5-2-3.8 0-4.5 0.3-4.5 2zm172 0c0 1.7 0.7 2 4.5 2 3.8 0 4.5-0.3 4.5-2 0-1.7-0.7-2-4.5-2-3.8 0-4.5 0.3-4.5 2zm142 0c0 1.8 0.7 2 7 2 6.3 0 7-0.2 7-2 0-1.8-0.7-2-7-2-6.3 0-7 0.2-7 2zm96 0c0 1.8 0.7 2 6 2 5.3 0 6-0.2 6-2 0-1.8-0.7-2-6-2-5.3 0-6 0.2-6 2zm-470.5 49.5c-1.6 0.8-3.6 2.6-4.2 4-0.7 1.4-1.3 4.3-1.3 6.5 0 2.2 0.7 5.3 1.5 7q1.5 3 5 4c2.8 0.8 4.3 0.6 7.3-0.8 3-1.4 4-2.6 5.1-6.2 1.1-3.5 1.1-5.3 0.2-8.3-0.6-2-2.1-4.3-3.3-5.1-1.3-0.8-3.4-1.7-4.8-2-1.4-0.3-3.8 0.1-5.5 0.9zm99.8 0.5c-2.4 1.4-3.6 3.2-4.5 6.2-0.9 3.5-0.9 5.1 0.3 8.3 0.9 2.6 2.5 4.5 4.9 5.9 3 1.6 4 1.7 7.3 0.8 2-0.7 4-1.8 4.3-2.5 0.3-0.6 0.1-1.6-0.4-2.2q-1.1-1-2.7 0.7c-0.9 1-2.5 1.8-3.6 1.8-1 0-2.8-0.4-3.9-1-1.1-0.6-2.4-2.7-3-4.8q-1-3.7 0-7c0.6-1.7 1.9-3.6 3-4.2 1.1-0.6 2.8-1 3.8-1 0.9 0 2.5 0.7 3.5 1.5 0.9 0.8 2.2 1.3 2.7 1 0.6-0.3 1-0.9 1-1.5 0-0.6-1.6-1.7-3.5-2.5-1.9-0.8-4.1-1.5-4.7-1.5-0.7 0-2.8 0.9-4.5 2zm23-1.1c-1.1 0.5-2.9 1.7-3.7 2.7-0.9 1.1-1.9 3.9-2.3 6.4-0.4 3.1-0.1 5.5 1.1 7.7 0.9 1.8 3 4 4.6 4.8 1.7 0.8 4.3 1.3 6 1 1.7-0.3 4.1-1.8 5.5-3.5 1.9-2.3 2.5-4.1 2.5-8 0-4.1-0.5-5.6-2.7-8-1.6-1.7-4.1-3.2-5.8-3.5-1.6-0.2-4-0.1-5.2 0.4zm22.7-0.1c-1.2 0.6-1.5 2.9-1.5 11.5 0 9.5 0.2 10.7 1.8 10.7 1.5 0 1.7-1 1.6-7.3 0-3.9 0-7.6 0-8.2 0.1-0.6 2.4 2.7 5.1 7.2 3.6 6 5.6 8.3 7 8.3 1.9 0 2-0.7 2-11 0-9.1-0.3-11-1.5-11-1.2 0-1.5 1.7-1.7 8.2l-0.3 8.3c-7.9-13.6-10.4-17.5-10.6-17.4-0.2 0-1.1 0.3-1.9 0.7zm59.3 0.1c-1.1 0.5-2.9 1.8-4 3.1-1 1.2-1.9 4.3-2.1 6.9-0.3 3.6 0.2 5.4 2 8.1 1.5 2.3 3.6 3.8 5.8 4.4 2.5 0.6 4.4 0.5 6.5-0.5 2.7-1.3 3-2 3.3-6.2l0.2-4.7c-5.9 0-7 0.5-7 1.5 0 0.8 0.9 1.5 2 1.5 1.6 0 2 0.6 1.8 2.7-0.3 2.4-0.8 2.8-3.8 3.1-2.6 0.2-4-0.2-5.5-1.8-1.4-1.6-2-3.6-2-7 0-3 0.6-5.6 1.7-6.9 1-1.2 2.9-2.1 4.5-2.1 1.6-0.1 3.4 0.6 4.1 1.5 0.6 0.8 1.9 1.3 2.7 1 0.8-0.3 1.5-1 1.5-1.5 0-0.6-1.6-1.7-3.5-2.5-1.9-0.8-4.1-1.5-4.7-1.4-0.7 0-2.3 0.4-3.5 0.8zm32.7 7.9c0.1 7.1-0.3 9-1.7 10.5-1.3 1.3-2.6 1.7-4.5 1.3-2-0.4-3.1-1.5-3.8-3.9-0.6-1.7-1-6-1-9.5 0-4.8-0.3-6.2-1.5-6.2-1.2 0-1.5 1.4-1.5 7 0 4 0.6 8.5 1.5 10.5 0.9 2.1 2.6 3.9 4.3 4.5 1.5 0.6 3.9 0.8 5.5 0.5 1.5-0.3 3.4-1.5 4.2-2.8 1.1-1.5 1.5-4.7 1.5-10.8-0.1-6.8-0.4-8.8-1.6-9.3-1.3-0.4-1.5 0.8-1.4 8.2zm36.5 1.4c-2.1 5.7-4 10.9-4.1 11.5-0.2 0.7 0.3 1.3 1.1 1.3 0.8 0 2-1.4 2.5-3 0.9-2.7 1.4-3 5.5-3 4.1 0 4.6 0.3 5.5 3 0.6 1.8 1.7 3 2.8 3 1.5-0.1 1.1-1.6-2.8-11.6-2.5-6.3-5-11.4-5.6-11.4-0.5 0-2.8 4.6-4.9 10.2zm39.5 1.3c0 9.5 0.3 11.5 1.5 11.5 1.2 0 1.5-1.9 1.5-10.9-0.1-8.7-0.4-11-1.6-11.5-1.3-0.5-1.5 1.1-1.4 10.9zm15.5-10.1c-1.6 0.7-3.6 2.5-4.2 3.9-0.7 1.5-1.3 4.8-1.3 7.4 0 3.4 0.5 5.5 2 7 1.1 1.3 3.2 2.8 4.8 3.3q2.7 1.1 5.7 0.1c1.7-0.6 3.9-2.3 4.9-3.8 1.1-1.7 1.9-4.6 1.9-7.3 0.1-2.9-0.6-5.5-1.9-7.3-1-1.5-3.2-3.2-4.9-3.8-1.6-0.5-3.2-0.9-3.5-0.9-0.3 0.1-1.8 0.7-3.5 1.4zm80.3 0.1c-1.6 0.8-3.5 2.8-4.3 4.5-0.8 1.6-1.5 4.3-1.5 6 0 1.6 0.7 4.3 1.5 6 0.8 1.6 2.9 3.7 4.5 4.5 1.7 0.8 4.3 1.3 6 1 1.7-0.3 4.1-1.8 5.5-3.5 1.9-2.3 2.5-4.2 2.5-7.8 0-2.6-0.7-5.7-1.5-7-0.8-1.2-2.8-2.9-4.5-3.7-1.6-0.8-3.6-1.5-4.2-1.5-0.7 0.1-2.5 0.7-4 1.5zm89.6-0.5c-1.2 0.5-3.2 2.4-4.4 4.2-1.7 2.6-2 4.3-1.6 8.3 0.3 3.7 1.1 5.7 3.1 7.5 1.9 1.8 3.6 2.5 6.6 2.5 3.3 0 4.6-0.6 7-3.3 2.4-2.6 2.9-4.1 2.9-8.2 0-4.1-0.5-5.6-2.7-8-1.6-1.7-4.1-3.2-5.8-3.5-1.6-0.2-4 0-5.1 0.5zm50.6-0.3c-0.8 0.3-2.3 1.3-3.3 2.2-1 0.9-1.7 2.6-1.7 3.8 0 1.3 1.2 3.2 2.8 4.3 1.5 1.2 3.3 2.1 4 2 0.6 0 2.1 0.9 3.2 2 1.6 1.6 1.8 2.4 1 4-0.8 1.5-1.7 1.9-4.2 1.6-1.8-0.2-4.1-0.6-5.2-0.8-1-0.2-2 0.3-2.2 0.9-0.2 0.8 1.2 1.8 3.4 2.4 2 0.6 4.8 0.8 6.2 0.4 1.4-0.4 3.3-1.4 4.3-2.3 1-0.9 1.8-2.7 1.7-4 0-1.2-0.8-2.9-1.7-3.8-1-0.9-3.7-2.5-6-3.5-2.8-1.3-4.2-2.5-4-3.5 0.1-0.9 1-2.2 1.9-2.8 1.3-0.8 2.5-0.8 4.8 0.1 2.4 1 3.1 1 3.6 0 0.3-0.6 0.2-1.5-0.2-1.8-0.5-0.4-2.2-0.9-3.9-1.2-1.6-0.3-3.7-0.3-4.5 0zm31.3 1.3c-1.9 1.2-3.7 3.4-4.3 5.2-0.6 1.9-0.8 5-0.3 7.3 0.4 2.2 1.5 5 2.5 6.2 1 1.3 3 2.6 4.6 2.9 1.5 0.3 4.4 0.1 6.5-0.5 3.6-1.1 3.7-1.2 3.7-6.1v-5c-5.9 0-7 0.5-7 1.5 0 0.8 0.9 1.5 2 1.5 1.6 0 2 0.6 1.8 2.7-0.3 2.4-0.8 2.8-3.8 3.1-1.9 0.1-4.1-0.3-4.8-1-0.7-0.7-1.7-2.9-2.2-4.8-0.5-2-0.4-4.9 0.1-6.8 0.5-1.7 1.8-3.7 2.9-4.2 1.1-0.6 2.9-1 4-1 1.1 0 2.7 0.7 3.5 1.5 0.8 0.8 2 1.3 2.5 1 0.6-0.3 1-1 1-1.5 0-0.6-1.6-1.7-3.5-2.5-1.9-0.8-4.1-1.5-4.7-1.5-0.7 0-2.8 0.9-4.5 2zm23.6 9.5c-3.8 9.9-4.2 11.5-2.6 11.5 1 0 2.1-1.2 2.7-3 0.9-2.7 1.4-3 5.5-3 4.1 0 4.6 0.3 5.5 3 0.6 1.8 1.7 3 2.8 3 1.5-0.1 1.1-1.6-2.8-11.6-2.5-6.3-5-11.4-5.6-11.4-0.5 0-3 5.2-5.5 11.5zm81.4-9.5c-2.4 1.4-3.6 3.2-4.5 6.2-0.9 3.5-0.9 5.1 0.3 8.3 0.9 2.6 2.5 4.5 4.9 5.9 3 1.6 4 1.7 7.3 0.8 2-0.7 3.9-1.7 4.2-2.2 0.3-0.6 0.3-1.5 0-2-0.3-0.6-1.4-0.4-2.7 0.5-1.3 0.8-3.3 1.5-4.5 1.5-1.3 0-3.2-1-4.3-2.3-1.5-1.5-2-3.6-2-7 0-3.3 0.6-5.3 2-6.7 1.1-1.1 3-2 4.3-2 1.2 0 3 0.7 4 1.5 0.9 0.8 2.2 1.3 2.7 1 0.6-0.3 1-1 1-1.5 0-0.6-1.3-1.7-3-2.5-1.6-0.8-3.8-1.5-4.7-1.5-1 0-3.3 0.9-5 2zm18.6-1.4c0.1 0.2 1.7 3.2 3.6 6.6 2.6 4.7 3.5 7.5 3.5 11 0 3.6 0.4 4.8 1.5 4.8 1.1 0 1.5-1.2 1.5-4.8 0-3.5 0.9-6.2 3.3-10.6 1.8-3.2 3.2-6.1 3-6.5-0.1-0.3-1-0.3-1.8 0.1-0.8 0.5-2.4 2.7-3.6 5l-2.1 4.3c-4.1-7.3-6.1-9.6-7.2-9.9-1-0.2-1.8-0.2-1.7 0zm28.6 0.8c-1.6 0.7-3.6 2.6-4.2 4.2-0.7 1.6-1.4 3.8-1.4 4.9-0.1 1.1-0.2 3.1-0.1 4.5 0.1 1.4 1.3 3.7 2.7 5.2 1.4 1.6 3.7 3.1 5.3 3.4 1.6 0.4 4 0 6-1 1.7-0.9 3.2-2.3 3.2-3.1 0-0.8-0.3-1.5-0.7-1.5-0.5 0-1.7 0.7-2.8 1.5-1.1 0.9-3 1.5-4.2 1.5-1.3 0-3.2-1.2-4.3-2.8-1.2-1.5-2.1-4.2-2.1-6.2 0-2 0.9-4.7 2.1-6.3 1.2-1.7 2.9-2.7 4.5-2.7 1.4 0 3.2 0.7 4 1.5 0.8 0.8 2 1.3 2.5 1 0.6-0.3 1-1 1-1.5 0-0.6-1.3-1.7-3-2.5-1.6-0.8-3.6-1.5-4.2-1.5-0.7 0.1-2.6 0.7-4.3 1.4zm-766.5 10.6c0 9.1 0.3 11 1.5 11 1.2 0 1.6-1.7 1.8-8.3l0.2-8.2c4.8 13.5 5.9 15.4 7.1 15.2 1.1-0.1 2.8-3.2 4.8-8.2l3.1-8c0.4 14.9 0.9 17.5 1.8 17.5 0.9 0 1.2-2.9 1.2-11 0-10.3-0.1-11-2-11-1.6 0-2.6 1.6-5 8-1.6 4.4-3.3 8-3.7 8-0.5 0-2-3.6-3.5-8-2.4-6.8-3.1-8-5-8-2.2 0-2.3 0.3-2.3 11zm55 0v11c10.5 0 11.5-0.4 14.1-3 2.4-2.5 2.9-3.8 2.9-8 0-4.2-0.5-5.5-3-8-2.6-2.6-3.7-3-8.5-3h-5.5zm24 0v11c12.6 0 14-0.3 14-1.5 0-1.2-1.3-1.5-5.5-1.5-5.4 0-5.5 0-5.5-3 0-2.8 0.2-3 4-3 2.9 0 4-0.4 4-1.5 0-1.1-1.1-1.5-4-1.5-3.9 0-4-0.1-4-3.5v-3.5c8.8 0 10-0.4 10-1.5 0-1.2-1.4-1.5-6.5-1.5h-6.5zm20 0v11c11 0 14-0.4 14-1 0-0.6-2.4-1.1-5.2-1.3l-5.3-0.2c-0.5-17.6-0.8-19.5-2-19.5-1.2 0-1.5 1.9-1.5 11zm104 0c0 9.1 0.3 11 1.5 11 1.1 0 1.5-1.2 1.5-4.8v-4.7c7 0.4 8 0.1 8-1 0-1.1-1.1-1.5-4-1.5-3.9 0-4-0.1-4-3.5v-3.5c8.8 0 10-0.4 10-1.5 0-1.2-1.4-1.5-6.5-1.5h-6.5zm19 0c0 9.1 0.3 11 1.5 11 1.2 0 1.5-1.9 1.5-11 0-9.1-0.3-11-1.5-11-1.2 0-1.5 1.9-1.5 11zm60 0c0 9.1 0.3 11 1.5 11 1.1 0 1.5-1.2 1.5-4.5 0-4 0.3-4.5 2.3-4.5 1.6 0 2.8 1.1 4.5 4.5 1.2 2.5 2.9 4.5 3.7 4.5 0.8 0 1.5-0.2 1.5-0.5 0-0.3-0.9-2.3-2-4.5l-2-4c3.1-3.1 4-5.2 4-6.8 0.1-1.5-0.7-3.5-1.7-4.4-1.3-1.2-3.5-1.8-7.5-1.8h-5.8zm42-9.5c0 1 1.1 1.5 3.5 1.5h3.5c0 17.3 0.3 19 1.5 19 1.2 0 1.5-1.7 1.5-9.5v-9.5c5.9 0 7-0.5 7-1.5 0-1.2-1.6-1.5-8.5-1.5-6.9 0-8.5 0.3-8.5 1.5zm60 9.5c0 9.1 0.3 11 1.5 11 1.2 0 1.6-1.7 1.8-8.2l0.2-8.2c8.2 13.4 10.6 16.4 11.8 16.4 1.5 0 1.7-1.2 1.7-11 0-9.1-0.3-11-1.5-11-1.2 0-1.5 1.6-1.5 8.2v8.3c-8.6-14.2-10.6-16.5-12-16.5-1.9 0-2 0.7-2 11zm35 0c0 9.1 0.3 11 1.5 11 1.1 0 1.6-1.3 1.8-4.8l0.2-4.7c6.5 0.4 7.5 0.1 7.5-1 0-1.1-1.1-1.5-4-1.5-3.9 0-4-0.1-4-3.5v-3.5c9.7 0 11-0.3 11-1.5 0-1.2-1.4-1.5-7-1.5h-7zm46 0c0 9.1 0.3 11 1.5 11 1.1 0 1.5-1.2 1.5-4.5 0-4 0.3-4.5 2.3-4.5 1.6 0 2.8 1.1 4.5 4.5 1.5 3.1 2.8 4.5 4.2 4.5 1.9 0 1.9-0.1-0.4-4.3-2.5-4.2-2.5-4.2-0.5-6.7 1.1-1.4 2-3.6 2-5 0-1.4-0.8-3.3-1.8-4.2-1.3-1.2-3.5-1.8-7.5-1.8h-5.8zm32 0v11c11 0 14-0.4 14-1 0-0.6-2.5-1-5.5-1h-5.5c0-18.2-0.3-20-1.5-20-1.2 0-1.5 1.9-1.5 11zm19 0c0 9.1 0.3 11 1.5 11 1.2 0 1.5-1.9 1.5-11 0-9.1-0.3-11-1.5-11-1.2 0-1.5 1.9-1.5 11zm37 0c0 9.1 0.3 11 1.5 11 1.2 0 1.6-1.7 1.8-8.2l0.2-8.2c8.1 12.7 11.2 16.4 12 16.4 1.2 0 1.5-1.9 1.5-11 0-8.3-0.3-11-1.3-11-0.9 0-1.2 2.2-1.2 8 0 4.4-0.2 8-0.5 8-0.3 0-2.6-3.6-5.2-8-3.5-5.8-5.4-8-6.8-8-1.9 0-2 0.7-2 11zm106-9.5q0 1.5 3 1.5h3c0 17.3 0.3 19 1.5 19 1.2 0 1.5-1.7 1.5-9.5v-9.5c5.9 0 7-0.5 7-1.5 0-1.2-1.6-1.5-8-1.5-6.4 0-8 0.3-8 1.5zm23.8 9.5l-0.3 11c12.1 0 13.5-0.3 13.5-1.5 0-1.1-1.2-1.5-5-1.5-4.9 0-5-0.1-5-3 0-2.8 0.2-3 4-3 2.9 0 4-0.4 4-1.5 0-1.1-1.1-1.5-4-1.5-3.9 0-4-0.1-4-3.5v-3.5c8.8 0 10-0.4 10-1.5 0-1.2-1.4-1.5-6.4-1.5h-6.5zm103.2 0v11c11 0 14-0.4 14-1 0-0.6-2.5-1-5.5-1h-5.5c0-18.2-0.3-20-1.5-20-1.2 0-1.5 1.9-1.5 11zm21 0v11c12.6 0 14-0.3 14-1.5 0-1.2-1.3-1.5-5.5-1.5-5.4 0-5.5 0-5.5-3 0-2.8 0.2-3 4-3 2.9 0 4-0.4 4-1.5 0-1.1-1.1-1.5-4-1.5-3.9 0-4-0.1-4-3.5v-3.5c9.7 0 11-0.4 11-1.5 0-1.2-1.4-1.5-7-1.5h-7zm-336.1 166.4l0.6 6.6h-125.5v5h125.5c-1.1 9.3-1.1 11.9-0.6 11.7 0.5-0.1 6.1-3.4 12.5-7.2 6.3-3.9 11.6-7.2 11.6-7.5 0-0.3-5.2-3.7-11.6-7.5-6.5-3.9-12-7.2-12.5-7.3-0.4-0.2-0.4 2.6 0 6.2zm-334.4 197.3c-0.5 0.3-0.7 2.6-0.7 5 0.2 4.2 0.2 4.3-2.3 3.3q-2.5-1-5 0c-1.4 0.5-3 2.2-3.6 3.7-0.6 1.6-0.8 4.4-0.5 6.3 0.4 1.9 1.4 4.3 2.4 5.3 0.9 1 2.9 1.7 4.3 1.7 1.4 0 3.1-0.6 3.7-1.3 1-1 1.2-1 1.2 0 0 0.7 0.7 1.3 1.5 1.3 1.3 0 1.5-2.1 1.6-12.4 0.1-7.4-0.3-12.7-0.9-13-0.5-0.3-1.3-0.3-1.7 0.1zm127.6 12.2c-0.1 11 0.2 13.1 1.4 13.1 1.2 0 1.6-1.6 1.8-7.3l0.2-7.2h7c0.5 12.9 0.8 14.5 2 14.5 1.2 0 1.5-1.4 1.5-6.5 0-3.6-0.3-7.2-0.7-8.2-0.4-0.9-1.8-2-3-2.5-1.4-0.5-3.3-0.4-4.8 0.2-2.4 1-2.5 0.9-2.7-3.7-0.2-2.5-0.8-4.8-1.4-5.1-0.8-0.2-1.2 3.4-1.3 12.7zm346-8l-0.1 5.1c-5-1.9-6-1.7-8-0.2-2 1.5-2.5 2.9-2.7 7-0.2 4.1 0.1 5.6 1.7 7.2 1.1 1.1 3.1 2 4.5 2 1.4 0 2.8-0.6 3.1-1.3 0.5-0.9 0.9-0.9 1.8 0.1 0.6 0.7 1.5 1.2 1.9 1.2 0.4 0 0.6-5.7 0.5-12.7-0.2-8.3-0.7-12.8-1.4-13.1-0.8-0.2-1.2 1.4-1.3 4.7zm212.9 0.1c0 4.9 0 5-2.5 4q-2.5-1-5 0c-1.4 0.5-2.9 1.9-3.5 3-0.5 1.1-1 3.5-1 5.2 0 1.8 0.9 4.5 2 6 1.4 1.9 2.9 2.8 4.8 2.8 1.6 0 3.4-0.6 4-1.3 1-1 1.2-1 1.2 0 0 0.7 0.5 1.3 1 1.3 0.6 0 1-5 1-13 0-8-0.4-13-1-13-0.5 0-1 2.2-1 5zm-668.5-3.3c-0.4 0.3-0.7 2.1-0.7 4 0.2 2.3-0.2 3.3-1.3 3.3-0.8 0-1.5 0.4-1.5 1 0 0.5 0.7 1 1.5 1 1.2 0 1.5 1.5 1.5 7.5 0 4.3 0.4 7.5 1 7.5 0.6 0 1-3.2 1-7.5 0-6.8 0.2-7.5 2-7.5 1.1 0 2.2-0.5 2.5-1 0.3-0.6-0.6-1-2-1-2.1 0-2.4-0.4-2.2-2.8 0.2-2.2 0.8-2.8 3.1-3 1.5-0.2 2.5-0.8 2.2-1.3-0.3-0.5-1.9-0.9-3.4-0.9-1.6 0-3.2 0.3-3.7 0.7zm474 0c-0.4 0.3-0.7 2.1-0.7 4 0.2 2.3-0.2 3.3-1.3 3.3-0.8 0-1.5 0.4-1.5 1 0 0.5 0.7 1 1.5 1 1.2 0 1.5 1.5 1.5 7.5 0 4.3 0.4 7.5 1 7.5 0.6 0 1-3.2 1-7.5 0-7.3 0.1-7.5 2.5-7.5 1.4 0 2.5-0.5 2.5-1 0-0.6-1.1-1-2.5-1-2.1 0-2.4-0.4-2.2-2.8 0.2-2.2 0.8-2.8 3-3 1.5-0.1 2.7-0.7 2.7-1.2 0-0.6-1.5-1-3.3-1-1.9 0-3.7 0.3-4.2 0.7zm-580.5 1.8c0 1 1.1 1.5 3.5 1.5h3.5c0 19.2 0.3 21 1.5 21 1.3 0 1.5-1.8 1.5-10.5v-10.5c6 0 7-0.5 7-1.5 0-1.2-1.6-1.5-8.5-1.5-6.9 0-8.5 0.3-8.5 1.5zm476 0c0 1 1.1 1.5 3.5 1.5h3.5c0 19.2 0.3 21 1.5 21 1.3 0 1.5-1.8 1.5-10.5v-10.5c6 0 7-0.5 7-1.5 0-1.2-1.6-1.5-8.5-1.5-6.9 0-8.5 0.3-8.5 1.5zm-272 3c0 1.6-0.6 2.5-1.5 2.5-0.8 0-1.5 0.4-1.5 1 0 0.5 0.7 1 1.5 1 1.2 0 1.6 1.6 1.8 7.2l0.2 7.3c5.1 0.4 6.5 0 6.5-0.5 0-0.6-1.1-1.2-2.5-1.5-2.3-0.5-2.5-0.9-2.5-6.5 0-5.7 0.1-6 2.5-6 1.4 0 2.5-0.5 2.5-1 0-0.6-1.1-1-2.5-1-2 0-2.5-0.5-2.5-2.5 0-1.4-0.4-2.5-1-2.5-0.5 0-1 1.1-1 2.5zm440 0c0 1.6-0.6 2.5-1.5 2.5-0.8 0-1.5 0.4-1.5 1 0 0.5 0.7 1 1.5 1 1.2 0 1.6 1.6 1.8 7.2l0.2 7.3c5.5 0.4 6.4 0.1 6.2-0.8-0.2-0.6-1.3-1.3-2.5-1.5-2-0.2-2.2-0.8-2.2-6.2 0-5.7 0.1-6 2.5-6 1.4 0 2.5-0.5 2.5-1 0-0.6-1.1-1-2.5-1-2 0-2.5-0.5-2.5-2.5 0-1.4-0.4-2.5-1-2.5-0.5 0-1 1.1-1 2.5zm59 0c0 1.4-0.5 2.7-1.2 3-1 0.4-1 0.6 0 1 0.8 0.3 1.2 2.5 1.2 6 0 3 0.5 6.4 1 7.5q1 2 4 2c1.9 0 2.9-0.5 2.7-1.3-0.2-0.6-1.2-1.2-2.3-1.2-1.6 0-1.9-0.8-2.1-6.3-0.3-5.6-0.1-6.2 1.7-6.2 1.1 0 2-0.5 2-1 0-0.6-0.9-1-2-1-1.5 0-2-0.7-2-2.5 0-1.6-0.6-2.5-1.5-2.5-0.9 0-1.5 0.9-1.5 2.5zm-657.3 2.1c-0.4 0.4-2.1 0.6-3.7 0.6l-3-0.2c0 15.4 0.3 17 1.5 17 1.2 0 1.5-1.3 1.5-6 0-3.3 0.2-6.7 0.5-7.5 0.3-0.9 1.7-1.5 3.5-1.5q3 0 4 2c0.6 1.1 1 4.5 1 7.5 0 3 0.5 5.5 1 5.5 0.6 0 1-2.9 1-6.8 0-3.9-0.5-7.4-1.2-8.4-0.7-0.9-2.2-1.9-3.4-2.2-1.1-0.3-2.4-0.3-2.7 0zm16.8 0.3c-1.1 0.4-2.6 2.1-3.3 3.7-0.8 1.7-1.1 4.4-0.8 6.6 0.4 2.4 1.5 4.4 2.9 5.3 1.2 0.8 3.2 1.5 4.5 1.5 1.2 0 3.1-0.5 4.2-1 1.1-0.6 1.8-1.5 1.5-2q-0.5-1-2.5 0c-1.1 0.5-2.7 1-3.5 1-0.8 0-2.2-0.7-3-1.5-0.8-0.8-1.5-2.2-1.5-3 0-1.2 1.3-1.5 5.5-1.5 5.3 0 5.5-0.1 5.5-2.8 0.1-1.5-0.7-3.4-1.7-4.3-1-0.9-2.7-1.9-3.8-2.2-1.1-0.3-2.9-0.2-4 0.2zm57.6 0.5c-1.1 0.6-2.7 2.3-3.5 3.6-1.1 1.7-1.4 3.7-1.1 6 0.4 1.9 1.6 4.3 2.8 5.3 1.2 1 3.3 1.8 4.7 1.8 1.4 0 3.5-1.1 4.7-2.3 1.6-1.6 2.3-3.5 2.3-6.3 0-2.2-0.6-4.9-1.3-6-0.8-1.1-2.6-2.3-4-2.6-1.5-0.3-3.5-0.1-4.6 0.5zm19.9-0.5c-0.8 0.5-2 0.7-2.7 0.5-1-0.3-1.3 1.7-1.3 8.1 0 5 0.4 8.5 1 8.5 0.6 0 1.1-3 1.3-6.6 0.1-4.7 0.7-6.9 1.7-7.5 0.8-0.4 2.4-1 3.5-1.4 1.7-0.5 1.8-0.8 0.5-1.5-0.8-0.6-1.7-1-2-1-0.3 0-1.2 0.4-2 0.9zm22 0.1c-0.8 0.5-2.3 0.7-3.2 0.5-1.6-0.5-1.8 0.4-1.8 8 0 5 0.4 8.5 1 8.5 0.6 0 1-2.7 1-6.3-0.1-3.8 0.4-6.7 1.2-7.5 0.7-0.7 2.4-1.1 3.8-1 2.4 0.3 2.5 0.6 2.8 7.5 0.2 5.7 0.5 7.3 1.7 7.3 1.2 0 1.6-1.6 1.8-7.3 0.2-6.6 0.4-7.2 2.5-7.5 1.2-0.2 2.9 0.2 3.7 1 1.2 0.9 1.6 3.1 1.6 7.5-0.1 3.6 0.4 6.3 0.9 6.3 0.6 0 1-3 1-7 0-5.7-0.4-7.4-2-9-1.3-1.4-2.7-1.8-4.2-1.4-1.3 0.4-2.7 1-3.3 1.4-0.5 0.5-1.9 0.2-3-0.6-1.1-0.8-2.4-1.4-3-1.4-0.5 0-1.7 0.5-2.5 1zm22.1-0.3c0 0.4 1.3 4.6 3.1 9.3 2.5 7 2.9 8.9 2 10.7-0.7 1.3-2.1 2.3-3.2 2.3-1.1 0-1.8 0.4-1.5 1 0.3 0.5 1.3 1 2.3 1 0.9 0 2.5-0.7 3.4-1.7 0.9-1 3.2-6.5 5.3-12.3 2-5.8 3.5-10.6 3.3-10.7-0.1-0.1-0.8 0.1-1.3 0.5-0.6 0.4-2.2 3.5-3.5 6.9-1.4 3.5-2.6 6.2-2.7 6 0-0.1-1.2-3.1-2.6-6.7-1.3-3.6-2.9-6.7-3.4-6.8-0.6-0.2-1.1 0-1.2 0.5zm63.3 0.3c-1.2 0.4-2.7 1.4-3.2 2.1-0.5 0.8-1.1 2.5-1.2 3.9-0.1 1.4-0.2 3.5-0.1 4.7 0.1 1.3 1 3.2 2.1 4.3 1.1 1.1 3.3 2 4.8 2 1.5 0 3.4-0.4 4.2-0.9 0.8-0.5 1.2-1.4 0.8-2-0.6-0.8-1.3-0.8-2.8 0.1-1.5 1-2.4 1-3.7 0.2-1-0.6-2.2-2.3-2.8-3.8-0.7-1.7-0.6-3.5 0.1-5.4 0.9-2.5 1.4-2.7 6-2.5 4.2 0.2 4.7 0 3.4-1.1-0.8-0.8-2.4-1.6-3.5-1.9-1.1-0.3-3-0.2-4.1 0.3zm273.3-0.4c-0.4 0.4-2.1 0.6-3.7 0.6l-3-0.2c0 15.4 0.3 17 1.5 17 1.2 0 1.6-1.6 1.8-7.3l0.2-7.2c5.1-0.5 6.4-0.1 7.3 1.2 0.7 1 1.2 4.4 1.2 7.5 0 3.2 0.5 5.8 1 5.8 0.6 0 1-2.9 1-6.8 0-3.9-0.5-7.4-1.2-8.4-0.7-0.9-2.2-1.9-3.4-2.2-1.1-0.3-2.4-0.3-2.7 0zm15.2 1.3c-2 1.6-2.4 2.9-2.4 7.1 0 4.3 0.4 5.5 2.5 7.1 1.4 1.1 3.5 2 4.8 1.9 1.2 0 3.1-0.5 4.2-1 1.1-0.6 1.8-1.5 1.5-2q-0.5-1-2.5 0c-1.1 0.5-2.7 1-3.5 1-0.8 0-2.2-0.7-3-1.5-0.8-0.8-1.5-2.2-1.5-3 0-1.2 1.3-1.5 5.5-1.5 5.2 0 5.5-0.1 5.5-2.5 0-1.4-1.1-3.6-2.5-5-1.4-1.4-3.3-2.5-4.4-2.5-1 0-2.9 0.9-4.2 1.9zm56.5 0.4c-2.4 2.1-2.9 3.3-2.9 7.2 0 3.8 0.5 5 2.5 6.6 1.4 1.1 3.8 2 5.3 1.9 1.8 0 3.4-0.9 4.8-2.8 1.1-1.5 2-4.3 2-6.2 0-1.9-0.8-4.5-1.8-5.7-1-1.2-2.9-2.5-4.4-2.8-1.9-0.5-3.3 0-5.5 1.8zm21.1-1.4c-1.1 0.5-2.5 0.7-3.2 0.5-1-0.3-1.3 1.8-1.3 8.1 0 5 0.4 8.5 1 8.5 0.6 0 1-2.7 1-6.3-0.1-3.9 0.4-6.6 1.2-7.3 0.7-0.7 2.2-1.3 3.2-1.5 1.1-0.2 1.9-0.9 1.8-1.4-0.1-0.6-0.5-1.1-0.9-1.2-0.4-0.1-1.7 0.2-2.8 0.6zm16.6 0.1c-1.9 0.7-2.4 1.6-2.3 4 0.2 2.5 0.9 3.3 4.7 5 2.5 1.1 4.5 2.7 4.5 3.5 0 0.8-1 1.8-2.2 2.1-1.3 0.3-3.3 0.1-4.5-0.5-1.8-0.9-2.4-0.8-2.8 0.4-0.3 0.8 0.2 1.7 1 2 0.8 0.3 3 0.5 4.8 0.5 1.8 0.1 3.8-0.5 4.5-1.2 0.7-0.7 1.2-2.4 1-3.8-0.2-1.7-1.5-3.2-4.3-4.7-2.2-1.2-4-2.8-4-3.5 0-0.8 1.5-1.3 4-1.4 2.2 0 4.1-0.6 4.3-1.2 0.1-0.7-0.3-1.2-1-1.2-0.7 0-2.2-0.2-3.3-0.5-1.1-0.2-3.1 0-4.4 0.5zm58.4 1.5c-1.6 1.6-2.4 3.6-2.5 6.2 0 2.4 0.7 4.8 2 6.5 1.3 1.8 2.9 2.8 4.5 2.8 1.4 0 3.4-0.5 4.5-1 1.1-0.6 1.8-1.5 1.5-2-0.3-0.7-1.3-0.6-2.7 0.1-1.5 0.7-3 0.8-4.3 0.2-1.1-0.6-2.3-2.2-2.7-3.6-0.5-1.7-0.3-3.8 0.5-5.5 1.2-2.4 1.8-2.7 5.5-2.5 2.3 0.2 4.2 0 4.2-0.5 0.1-0.4-1.1-1.3-2.5-2-1.3-0.6-3.2-1.2-4-1.2-0.9 0-2.7 1.1-4 2.5zm50.5-1.6c-0.8 0.5-2.3 0.7-3.2 0.5-1.6-0.4-1.8 0.5-1.8 8.1 0 6.9 0.3 8.5 1.5 8.5 1.2 0 1.5-1.3 1.5-6 0-3.3 0.2-6.7 0.5-7.5 0.3-0.8 1.6-1.5 3-1.5 1.5 0 2.4-0.5 2.2-1.3-0.2-0.6-0.8-1.3-1.3-1.4-0.5-0.2-1.6 0.1-2.4 0.6zm10.5 0.1c-1.1 0.5-2.5 2.4-3.2 4.2-0.7 2.2-0.8 4.5-0.2 7 0.5 2.1 1.8 4.2 2.9 4.8 1.1 0.5 2.9 1 4 1 1.1 0 2.9-0.5 4-1 1.1-0.6 1.8-1.5 1.5-2-0.3-0.6-1.5-0.6-3.4 0.2-2.6 1.1-3.2 1.1-5.1-0.7-1.1-1.1-2-2.6-2-3.3 0-0.8 1.9-1.2 6-1.2 5.7 0 6-0.1 5.4-2.3-0.3-1.2-0.7-3-1-4-0.2-0.9-1.5-2.2-2.9-2.7-1.4-0.6-2.8-1-3.2-0.9-0.4 0-1.7 0.4-2.8 0.9zm-729.5 7c0 4.9 0.5 7.5 1.5 8.5 0.8 0.8 2.4 1.5 3.5 1.5 1.1 0 2.9-0.5 4-1q2-1 2 0c0 0.5 0.5 1 1 1 0.6 0 1-3.5 1-8.5 0-5-0.4-8.5-1-8.5-0.5 0-1 2.6-1 5.7 0.1 4.3-0.4 6.3-1.7 7.5-1 1-2.5 1.8-3.3 1.8-0.8 0-2.1-0.5-2.8-1.2-0.7-0.8-1.2-3.8-1.2-7.6 0-3.5-0.4-6.2-1-6.2-0.6 0-1 3-1 7zm215 1.5c0 6.9 0.3 8.5 1.5 8.5 1.2 0 1.5-1.6 1.5-8.5 0-6.9-0.3-8.5-1.5-8.5-1.2 0-1.5 1.6-1.5 8.5zm260-2.3c0 4 0.6 7.1 1.5 8.5 1 1.5 2.5 2.3 4.3 2.3 1.6 0 3.4-0.6 4-1.3 1-1 1.2-1 1.2 0 0 0.7 0.6 1.3 1.3 1.3 0.9 0 1.2-2.4 1.2-8.5 0-6.1-0.3-8.5-1.2-8.5-0.9 0-1.3 2-1.3 6.5 0 5.5-0.3 6.7-2 7.5-1.1 0.5-2.8 0.8-3.7 0.5-1-0.2-2.1-1.4-2.5-2.7-0.4-1.3-0.8-4.4-0.8-7.1 0-2.6-0.4-4.7-1-4.7-0.5 0-1 2.8-1 6.2zm159.9 2.4c0.1 6.7 0.4 8.4 1.6 8.4 1.2 0 1.5-1.3 1.5-6 0-3.3 0.2-6.7 0.5-7.5 0.3-0.8 1.6-1.5 3-1.5 1.4 0 2.5-0.4 2.4-1-0.1-0.5-2.2-0.9-4.6-0.8l-4.5 0.1zm13.1-1.7c0 4.9 0.4 7.5 1.5 8.5 0.8 0.8 2.8 1.5 4.3 1.5 1.5 0 3.3-0.5 4-1.2 1-1 1.2-1 1.2 0 0 0.7 0.4 1.2 1 1.2 0.6 0 1-3.5 1-8.5 0-5-0.4-8.5-1-8.5-0.6 0-1 2.7-1 6 0 4.2-0.5 6.5-1.6 7.5-0.8 0.8-2.3 1.5-3.2 1.5-1 0.1-2.3-0.5-3-1.2-0.7-0.8-1.2-3.8-1.2-7.5 0-3.5-0.4-6.3-1-6.3-0.6 0-1 3-1 7zm47-0.7c0 3.9 0.5 7.1 1.5 8.5 0.9 1.4 2.5 2.2 4.3 2.2 1.5 0 3.3-0.5 4-1.2 1-1 1.2-1 1.2 0 0 0.7 0.6 1.2 1.2 1.2 0.9 0 1.3-2.4 1.4-8.5 0.1-6.6-0.1-8.5-1.2-8.5-1.1 0-1.4 1.6-1.4 6.5 0 5.5-0.3 6.7-2 7.5-1.1 0.6-2.9 0.8-4 0.5-1.2-0.3-2.1-1.4-2.1-2.7-0.1-1.3-0.1-4.4-0.1-7 0.1-3.6-0.3-4.8-1.4-4.8-1.1 0-1.4 1.5-1.4 6.3zm-479 35.7c0 4.7-0.1 5-2 4-1.1-0.5-3.2-1-4.7-1-1.5 0-3.2 0.8-3.9 1.8-0.7 0.9-1.6 2.8-1.9 4.2-0.4 1.4-0.2 4.1 0.3 6 0.7 2.3 2.1 4 3.9 4.9 2 0.9 3.4 1 4.8 0.3 1.1-0.5 2.8-0.8 3.7-0.6 1.6 0.4 1.8-0.7 1.8-12.1 0-7.6-0.4-12.5-1-12.5-0.6 0-1 2.3-1 5zm480 0.3c0 4.2-0.2 5-1.2 4-0.7-0.7-2.6-1.3-4.3-1.3-1.7 0-3.5 0.8-4.1 1.8-0.7 0.9-1.6 2.8-1.9 4.2-0.4 1.4-0.2 4.1 0.3 6 0.7 2.3 2.1 4 3.9 4.9 2 0.9 3.4 1 4.8 0.3 1.1-0.5 2.8-0.8 3.7-0.6 1.6 0.4 1.8-0.7 1.8-12.1 0-10.4-0.3-12.5-1.5-12.5-1.2 0-1.5 1.3-1.5 5.3zm-597 0.2c0 1.6-0.6 2.5-1.5 2.5-0.8 0-1.5 0.5-1.5 1 0 0.6 0.7 1 1.5 1 1.2 0 1.5 1.6 1.7 7.3l0.3 7.2c5 0.4 6.5 0.1 6.5-0.5 0-0.5-0.9-1-2-1-1.8 0-2-0.6-2-5.5 0-3 0.1-5.8 0.2-6.2 0.2-0.4 1.1-0.8 2-0.8 1 0 1.8-0.5 1.8-1.2 0-0.7-1-1.3-2.3-1.3-1.7 0-2.2-0.6-2.1-2.5 0.1-1.5-0.4-2.5-1.2-2.5-0.8 0-1.4 1.1-1.4 2.5zm481 0c0 1.6-0.6 2.5-1.5 2.5-0.8 0-1.5 0.5-1.5 1 0 0.6 0.7 1 1.5 1 1.2 0 1.5 1.6 1.7 7.3l0.3 7.2c5 0.4 6.5 0.1 6.5-0.5 0-0.5-1-1.1-2.3-1.2-2-0.3-2.2-0.9-2.5-6.5-0.2-5.9-0.1-6.3 1.9-6 1.2 0.1 2.4-0.3 2.5-1 0.3-0.8-0.6-1.3-2.1-1.3-2 0-2.5-0.5-2.5-2.5 0-1.4-0.5-2.5-1-2.5-0.6 0-1 1.1-1 2.5zm-595 4.5q-2 2-2 6c0 2.2 0.4 4.9 1 6 0.5 1.1 2.1 2.5 3.5 3q2.5 1 5.5 0c1.6-0.5 2.8-1.4 2.5-2-0.3-0.6-2.1-0.7-4.5-0.2-3.6 0.7-4 0.5-5-2-0.5-1.5-1-3.6-1.1-4.5 0-1 0.9-2.9 2-4.3 1.8-2.3 2.2-2.4 5-1.2 2 0.8 3.3 0.9 3.6 0.2 0.3-0.5-0.4-1.4-1.5-2-1.1-0.5-3.1-1-4.5-1-1.4 0-3.4 0.9-4.5 2zm17 0.1c-1.9 1.6-2.3 2.9-2.2 6.5 0.1 3.2 0.9 5.1 2.7 6.9 1.4 1.4 3.4 2.5 4.5 2.5 1.1 0 3.2-1.1 4.7-2.4 2.3-2 2.8-3.2 2.8-7.1 0-3.8-0.5-5-2.5-6.6-1.4-1.1-3.7-1.9-5.1-1.9-1.4 0-3.6 0.9-4.9 2.1zm32-0.1c-1.4 1.5-2 3.4-2 6.8-0.1 3.2 0.5 5.3 1.7 6.5 1 0.9 2.7 1.8 3.8 1.9 1.1 0.1 3.2-0.1 4.7-0.5 1.6-0.4 2.6-1.1 2.3-1.7-0.3-0.6-2.1-0.7-4.5-0.2-3.6 0.7-4 0.5-5-2-0.5-1.5-1-3.6-1.1-4.5 0-1 0.9-2.9 2-4.3 1.8-2.3 2.2-2.4 5-1.2 2 0.8 3.3 0.9 3.6 0.2 0.3-0.5-0.4-1.4-1.5-2-1.1-0.5-3.1-1-4.5-1-1.4 0-3.4 0.9-4.5 2zm15.9 6.7c0.1 6.7 0.4 8.3 1.6 8.3 1.2 0 1.5-1.3 1.5-6.2 0-3.6 0.5-6.8 1.2-7.5 0.6-0.7 2-1.3 3-1.3 1 0 1.7-0.4 1.7-0.9-0.1-0.6-2.2-1-4.7-0.9l-4.5 0.1zm14.6-7.9c-0.6 0.4-1.7 1.8-2.3 3-0.6 1.2-1.1 3.4-1.1 4.8 0 1.3 0.6 3.7 1.3 5.2 0.8 1.5 2.5 3 3.8 3.4 1.3 0.4 3.8 0.3 5.6-0.2 1.8-0.5 3-1.4 2.8-1.9-0.3-0.6-1.9-0.7-3.9-0.3-2.5 0.5-3.9 0.3-5.1-0.7-0.9-0.9-1.6-2.3-1.6-3.3 0.1-1.4 1-1.7 5.6-1.7 5.2 0 5.5-0.2 5.5-2.5 0-1.4-0.9-3.4-2-4.5-1.1-1.1-3.3-2-4.8-2-1.5 0-3.2 0.3-3.8 0.7zm16.6-0.1c-0.8 0.3-1.3 0.9-1.2 1.4 0.1 0.5 2.1 0.8 4.4 0.7 4-0.2 4.3-0.1 4.5 2.5 0.3 2.6 0 2.8-3.5 2.8-2.1 0-4.4 0.5-5 1.2-0.7 0.7-1.3 2.5-1.2 4 0 2 0.7 3 2.5 3.8 1.5 0.6 3.3 0.6 4.7 0 1.3-0.5 3.2-0.7 4.3-0.4 1.8 0.4 1.9 0 1.6-5.9-0.2-3.4-1-7.3-1.7-8.5-1-1.6-2.3-2.2-4.7-2.2-1.8 0.1-3.9 0.3-4.7 0.6zm30 7.9c0 5 0.4 8.5 1 8.5 0.6 0 1-3.5 1-8.5 0-5-0.4-8.5-1-8.5-0.6 0-1 3.5-1 8.5zm11.2-7.9c-0.7 0.3-1.9 2-2.8 3.7-1.1 2-1.4 4.3-1 6.4 0.3 1.9 1.7 4.1 3.3 5.3 1.5 1.1 3.6 2 4.6 2 1 0 2.9-1.2 4.2-2.5 1.9-2 2.5-3.6 2.5-7 0-3.2-0.6-5.1-2-6.5-1.1-1.1-3.3-2-4.8-2-1.5 0.1-3.3 0.3-4 0.6zm16.8 7.9c0 5 0.4 8.5 1 8.5 0.5 0 1-2.9 1-6.5 0-6 0.2-6.6 2.5-7.8 1.9-0.9 3-1 4.3-0.1 1.2 0.8 1.7 2.8 1.9 7.7 0.2 3.7 0.7 6.7 1.3 6.7 0.5 0 1-3.1 1-7.3 0-4.5-0.5-7.7-1.3-8.5-0.7-0.7-2.6-1.3-4.3-1.3-1.7 0-3.6 0.6-4.2 1.3-1 1-1.3 1-1.2 0 0-0.7-0.5-1.2-1-1.2-0.6 0-1 3.5-1 8.5zm28.7-7.5c-0.9 0.5-1.5 1.4-1.2 2 0.3 0.6 1.2 0.6 2.7-0.1 1.3-0.7 3.3-0.9 4.5-0.5 1.6 0.4 2.3 1.3 2.3 3.1 0 2.2-0.4 2.5-3.8 2.5-2.1 0-4.4 0.5-5 1.2-0.7 0.7-1.3 2.5-1.2 4 0 2 0.7 3 2.5 3.8 1.5 0.6 3.3 0.6 4.7 0 1.3-0.5 3.2-0.7 4.3-0.4 1.8 0.4 1.9 0 1.6-5.9-0.2-3.4-1-7.3-1.7-8.5-1-1.6-2.4-2.2-4.7-2.2-1.8 0-4 0.4-5 1zm17.1 7.6c0.1 6.7 0.5 8.4 1.7 8.4 1.1 0 1.5-1.4 1.4-6.3 0-4.5 0.4-6.6 1.5-7.5 0.9-0.7 2.6-1 3.9-0.7 2.1 0.4 2.3 1.1 2.5 7.5 0.1 5.4 0.5 7 1.7 7 1.2 0 1.5-1.5 1.5-7 0-4.9-0.5-7.5-1.5-8.5-1.1-1.1-3.3-1.5-7.2-1.4l-5.7 0.2zm307.9-6.9c-0.9 0.9-1.9 3.3-2.2 5.2-0.3 2 0 4.6 0.7 6 0.8 1.4 2.5 3.1 3.8 3.8 1.8 0.9 3.4 0.9 5.7 0.2 1.8-0.5 3.1-1.4 2.8-2-0.3-0.6-1.9-0.7-3.9-0.2-2.5 0.5-3.9 0.3-5-0.8-1-0.8-1.7-2.3-1.6-3.2 0-1.5 1-1.8 5.7-1.8 5.7 0 5.8 0 5.4-2.7-0.2-1.5-1.1-3.6-2-4.6-0.9-1-3-1.7-4.7-1.7-1.7 0-3.8 0.8-4.7 1.8zm16.6 1.6c1.3 1.8 2.5 3.8 2.6 4.5 0 0.6-1 2.8-2.4 4.9-1.8 2.6-2.1 3.8-1.3 4.1 0.7 0.2 1.7-0.3 2.3-1.2 0.5-0.8 1.6-2.3 2.2-3.3 1.3-1.8 1.3-1.8 2.5 0 0.7 1 1.7 2.5 2.3 3.3 0.5 0.9 1.6 1.4 2.3 1.2 0.8-0.3 0.5-1.5-1.3-4.1-1.4-2.1-2.5-4.3-2.5-5 0-0.7 0.9-2.4 2-3.8 1.1-1.3 2-2.8 2-3.2 0-0.4-0.6-0.8-1.3-0.8-0.6 0-1.8 1.1-2.5 2.5-0.6 1.4-1.7 2.5-2.2 2.5-0.6 0-1.6-1.1-2.3-2.5-0.6-1.4-2-2.5-3-2.5-1.7 0-1.7 0.3 0.6 3.4zm15.7-0.7c-1.3 1.5-2.2 3.9-2.1 5.7 0 1.7 0.8 4.1 1.6 5.4 0.8 1.2 2.6 2.7 4 3.2q2.5 1 5.5 0c1.6-0.5 2.7-1.3 2.4-1.7-0.3-0.4-2.2-0.6-4.2-0.5-2.1 0.2-4.3-0.3-5-1-0.7-0.7-1.3-2.1-1.2-3 0-1.5 1-1.8 5.7-1.8 5.7 0 5.8 0 5.4-2.7-0.2-1.5-1.1-3.6-2-4.6-0.9-1-3-1.7-4.8-1.7-2.2 0-3.8 0.8-5.3 2.7zm18.7-0.9c-0.9 0.9-1.9 3.3-2.2 5.2-0.3 2 0 4.6 0.7 6 0.8 1.4 2.6 3.1 4.1 3.8 1.9 0.9 3.4 0.9 5.2 0.2 1.4-0.5 2.5-1.4 2.5-2 0-0.6-1.5-0.7-3.8-0.3-3 0.5-4 0.2-5-1.3-0.7-1-1.2-3.2-1.3-4.9 0-1.8 0.8-3.7 2.1-4.7 1.2-1 2.7-1.8 3.3-1.8 0.7 0 1.6 0.5 2.2 1.1 0.5 0.6 1.7 0.8 2.5 0.4 1.3-0.7 1.2-1-0.5-2.1-1.1-0.8-3.4-1.4-5.1-1.4-1.7 0-3.8 0.8-4.7 1.8zm15.3 4.7c0 3.6 0.3 7.3 0.7 8.2 0.5 0.9 1.8 2 3 2.5q2.3 0.8 5.3-0.7c1.6-0.8 2.8-1 2.5-0.5-0.3 0.6 0.2 1 1 1 1.2 0 1.5-1.6 1.5-8.5 0-7-0.3-8.5-1.6-8.5-1.2 0-1.6 1.4-1.7 7.3l-0.2 7.2h-7c-0.5-12.9-0.9-14.5-2-14.5-1.2 0-1.5 1.4-1.5 6.5zm33 2c0 5 0.4 8.5 1 8.5 0.6 0 1-3.5 1-8.5 0-5-0.4-8.5-1-8.5-0.6 0-1 3.5-1 8.5zm10.2-7c-1.2 0.8-2.5 2.8-2.8 4.3-0.3 1.5-0.1 4.3 0.5 6.2 0.6 2.3 2 4 3.8 4.8 2.1 1 3.5 1 5.5 0.3 1.6-0.6 3.2-2 3.8-3.1 0.5-1.1 1-3.8 1-6q0-4-2-6c-1.1-1.1-3.2-2-4.8-2-1.5 0-3.7 0.7-5 1.5zm16.8 7c0 6.9 0.3 8.5 1.5 8.5 1.2 0 1.5-1.3 1.5-6.2 0-3.6 0.5-6.8 1.2-7.5 0.6-0.7 2.1-1.3 3.2-1.3 1.2 0 2.7 0.6 3.4 1.3 0.7 0.7 1.2 3.7 1.2 7.5 0 3.5 0.4 6.2 1 6.2 0.6 0 1-2.8 1-6.5 0-3.5-0.5-7.4-1-8.5-0.7-1.4-2-2-4.3-2-1.8 0-3.9 0.6-4.5 1.3-1 1-1.2 1-1.2 0 0-0.7-0.7-1.3-1.5-1.3-1.2 0-1.5 1.6-1.5 8.5zm30-7.8c-0.8 0.3-1.3 1.1-1.2 1.9 0.2 1.2 0.7 1.2 3.1 0.2 2.4-1.1 3.2-1 4.5 0.2 0.9 0.9 1.7 2.3 1.6 3.3 0 1.3-0.9 1.7-4 1.7-3 0-4.4 0.6-5.5 2.3-1 1.4-1.2 2.9-0.8 4.1 0.5 1.1 1.8 2.3 3 2.8 1.3 0.5 3.3 0.4 4.5-0.1 1.3-0.5 3.2-0.7 4.3-0.5 1.8 0.5 2 0.1 1.6-5.3-0.2-3.2-0.8-6.9-1.5-8.3-0.8-1.9-2-2.5-4.6-2.7-1.9-0.1-4.2 0.1-5 0.4zm16.8 8c0.2 6.6 0.5 8.3 1.7 8.3 1.2 0 1.6-1.5 1.7-6.6 0.2-5.1 0.7-6.9 2-7.8 1.3-0.8 2.3-0.8 3.5 0 1.4 0.9 1.9 2.7 2 7.8 0.2 4.5 0.7 6.6 1.5 6.6 1 0 1.2-1.9 1-7.2-0.2-4-0.9-7.9-1.5-8.6-0.8-0.8-3.2-1.2-6.7-1l-5.4 0.3zm-646.8-0.3c0 1.2 1.2 1.5 4.5 1.5 3.3 0 4.5-0.3 4.5-1.5 0-1.1-1.2-1.5-4.5-1.5-3.3 0-4.5 0.4-4.5 1.5zm-47 30.7c-0.8 0.7-1.3 2.5-1.2 4 0.1 2-0.3 2.8-1.3 2.8-0.8 0-1.5 0.5-1.5 1 0 0.6 0.7 1 1.5 1 1.2 0 1.5 1.5 1.5 7.5 0 4.4 0.4 7.5 1 7.5 0.5 0 1.1-3.2 1.2-7.2 0.3-6.4 0.5-7.3 2.2-7.3 1.1 0 2.1-0.5 2.3-1.2 0.2-0.8-0.7-1.3-2.2-1.3-1.7 0-2.5-0.5-2.6-1.7 0-1 0.6-2.3 1.3-3 0.8-0.8 2.1-1 3.2-0.5 1.5 0.6 1.8 0.4 1.5-0.8-0.3-0.8-1.7-1.6-3-1.7-1.3-0.2-3.1 0.2-3.9 0.9zm10.2 11.1l0.3 12.2c4.3 0.4 5.5 0.1 5.5-0.5 0-0.5-0.9-1-2-1-1.9 0-2-0.6-2-11.5 0-7.2-0.4-11.5-1-11.5-0.7 0-1 4.4-0.8 12.3zm162.8-0.3c0 8.7 0.3 12.2 1.2 12.6 0.7 0.3 2.4 0.4 3.8 0.2l2.5-0.4-5.5-2.4c0-17.6-0.4-22-1-22-0.6 0-1 4.7-1 12zm484 0c0 8.7 0.3 12.2 1.2 12.6 0.7 0.3 2.4 0.4 3.8 0.2l2.5-0.4-5.5-2.4c0.4-19.2 0.2-22-0.8-22-0.9 0-1.2 3.1-1.2 12zm66 0.5c0 7.7 0.4 12.5 1 12.5 0.5 0 1-2.1 1-4.7l0.1-4.8c3.2 3.9 4.8 6.1 5.7 7.4 0.9 1.3 2.3 2.2 3 2 0.9-0.2 0.4-1.6-1.7-4.6-1.7-2.3-3.1-4.6-3.1-5-0.1-0.4 1.1-1.9 2.5-3.3 1.4-1.3 2.5-2.8 2.5-3.2 0-0.4-0.7-0.8-1.5-0.8-0.8 0-2.6 1.4-4 3-1.4 1.7-2.7 3-3 3-0.3 0-0.5-3.1-0.5-7 0-4-0.4-7-1-7-0.6 0-1 4.9-1 12.5zm-667-7c0 1.6-0.6 2.5-1.5 2.5-0.8 0-1.5 0.5-1.5 1 0 0.6 0.7 1.3 1.5 1.5 1.1 0.4 1.6 2.3 1.7 7.3l0.3 6.7c5 0.4 6.5 0.1 6.5-0.5 0-0.5-1-1.1-2.3-1.2-2-0.2-2.2-0.8-2.2-6.3 0-5.4 0.2-6 2.2-6.2 1.3-0.1 2.3-0.7 2.3-1.3 0-0.5-1.1-1-2.5-1-2 0-2.5-0.5-2.5-2.5 0-1.3-0.5-2.5-1-2.5-0.6 0-1 1.2-1 2.5zm178.5-1c-0.3 0.9-0.3 2 0 2.5 0.3 0.6-0.4 1-1.5 1-1.1 0-2 0.5-2 1 0 0.6 0.8 1.2 1.7 1.3 1.4 0.2 1.6 1.2 1.4 5.2-0.2 2.8 0.2 6.1 0.8 7.3 0.8 1.6 2 2.2 4.1 2.2 1.6 0 3-0.4 3-1 0-0.5-1.1-1-2.5-1-2.4 0-2.5-0.2-2.5-6.5 0-6 0.1-6.4 2.1-6.2 1.2 0.1 2.4-0.3 2.5-1 0.3-0.8-0.6-1.3-2.1-1.3-2 0-2.5-0.5-2.5-2.5 0-1.3-0.5-2.5-1-2.5-0.6 0-1.3 0.7-1.5 1.5zm344.6 1c-0.1 1.5-0.7 2.5-1.6 2.5-0.8 0-1.5 0.5-1.5 1 0 0.6 0.7 1 1.5 1 1.2 0 1.5 1.4 1.5 6 0 3.3 0.2 6.7 0.5 7.5 0.3 0.9 1.7 1.5 3.5 1.5 1.6 0 3-0.4 3-1 0-0.5-1-1.1-2.1-1.2-1.9-0.2-2.1-1-2.3-6.3-0.1-5.6 0-5.9 2.1-5.7 1.5 0.2 2.3-0.3 2.3-1.3 0-0.9-1-1.5-2.5-1.5-1.9 0-2.5-0.4-2.4-2.1 0.1-1.2-0.3-2.4-0.9-2.6-0.5-0.2-1 0.7-1.1 2.2zm96.9 0c0 1.6-0.6 2.5-1.5 2.5-0.8 0-1.5 0.7-1.5 1.5 0 0.9 0.6 1.3 1.5 1 1.2-0.4 1.5 0.9 1.7 6.8l0.3 7.2c5 0.4 6.5 0.1 6.5-0.5 0-0.5-1-1.1-2.3-1.2-2-0.2-2.2-0.8-2.2-6.3 0-5.2 0.2-6 1.9-6 1.1 0 2.1-0.5 2.3-1.2 0.2-0.8-0.7-1.3-2.2-1.3-2 0-2.5-0.5-2.5-2.5 0-1.3-0.5-2.5-1-2.5-0.6 0-1 1.2-1 2.5zm-708.2 11.3c0.1 6.6 0.5 8.2 1.7 8.2 1.1 0 1.3-0.7 0.9-3.2-0.4-1.8-0.4-4.9 0-7 0.5-3.1 1.1-3.9 3.6-4.5 1.7-0.4 2.9-1.1 2.8-1.5-0.1-0.4-2.3-0.6-4.7-0.5l-4.5 0.2zm13.1-6.1c-1.2 1.5-2.1 3.9-2 5.5 0 1.6 0.6 3.9 1.2 5.1 0.7 1.2 1.7 2.6 2.3 3 0.6 0.4 2.5 0.7 4.3 0.7 1.8 0.1 4-0.2 4.8-0.4 0.8-0.3 1.5-1 1.5-1.5 0-0.7-1.5-0.8-3.9-0.3-2.9 0.6-4.3 0.4-5.6-0.7-0.9-0.9-1.6-2.3-1.6-3.3 0.1-1.5 1.1-1.7 6.1-1.7h6c-1-4.3-2-6.3-2.9-7.3-0.9-1-3-1.8-4.8-1.8-2.2 0.1-3.9 0.9-5.4 2.7zm40.1-0.6c-1.4 1.3-2 3.3-2 6.2 0 2.3 0.6 5.3 1.5 6.5 1.2 1.9 2.3 2.2 6.2 2 2.7-0.1 4.8-0.8 5-1.5 0.2-0.9-0.8-1.1-4-0.6-3.4 0.5-4.4 0.3-5.5-1.3-0.7-1-1.2-2.4-1.2-3.1 0-0.8 1.9-1.2 6-1.2 4.6 0 6-0.4 6-1.5 0-0.9-0.5-2.6-1.2-3.8-0.6-1.2-1.6-2.6-2.2-3-0.6-0.4-2.4-0.7-3.9-0.7-1.5 0-3.6 0.9-4.7 2zm18 0.3c-1.8 1.7-2.4 3.3-2.2 6.2 0.1 2.2 0.8 5 1.7 6.2 1.1 1.6 2.5 2.3 5 2.3 1.9 0 4.2-0.3 5-0.5 0.8-0.3 1.5-1 1.5-1.5 0-0.6-1.5-0.8-3.8-0.4-3.2 0.6-4 0.3-5.5-1.7q-1.8-2.4-1.3-5.4c0.3-1.7 1.3-3.7 2.2-4.5 1.3-1.3 2.1-1.3 4.5-0.3 1.8 0.8 3.1 0.9 3.4 0.3 0.3-0.6-0.4-1.5-1.5-2-1.1-0.6-3.1-1-4.3-1-1.3 0-3.4 1-4.7 2.3zm29 6.2c0 5 0.4 8.5 1 8.5 0.6 0 1-3.5 1-8.5 0-5-0.4-8.5-1-8.5-0.6 0-1 3.5-1 8.5zm6.4-6.8c0.4 1 2 4.8 3.4 8.6 1.7 4.4 3.2 6.7 4.1 6.5 0.7-0.2 2.6-3.7 4.2-7.8 1.6-4.2 2.9-7.9 2.9-8.3 0-0.4-0.5-0.6-1.1-0.5-0.6 0.1-2.2 3.2-3.5 6.8-1.4 3.5-2.5 6.6-2.7 6.7-0.1 0.1-1.3-3-2.7-6.8-1.5-4.1-3.1-7-3.9-6.9-1 0-1.2 0.5-0.7 1.7zm20.2-0.2c-0.9 0.8-1.9 2.7-2.2 4.2-0.4 1.5-0.4 4.1 0 5.8 0.4 1.6 1.2 3.5 1.9 4.3 0.6 0.7 2.9 1.2 4.9 1.2 2.1 0 4.5-0.3 5.3-0.5 0.8-0.3 1.3-1 1-1.5-0.3-0.6-1.9-0.7-3.9-0.3-2.5 0.6-3.9 0.3-5.1-0.7-0.9-0.9-1.6-2.3-1.6-3.3 0.1-1.4 1-1.7 5.6-1.7 5.2 0 5.5-0.2 5.5-2.5 0-1.4-0.9-3.4-2-4.5-1.1-1.1-3.3-2-4.9-2-1.7 0-3.7 0.6-4.5 1.5zm25.3 1.1c-1.2 1.5-2.1 3.9-2 5.5 0 1.6 0.6 3.9 1.2 5.1 0.7 1.2 1.7 2.6 2.3 3 0.6 0.4 2.5 0.7 4.3 0.7 1.8 0.1 4-0.2 4.8-0.4 0.8-0.3 1.3-1 1-1.5-0.3-0.6-1.9-0.7-3.9-0.3-2.5 0.6-3.9 0.3-5.1-0.7-0.9-0.9-1.6-2.3-1.6-3.3 0.1-1.4 1-1.7 5.6-1.7 5.2 0 5.5-0.2 5.5-2.5 0-1.4-0.9-3.4-2-4.5-1.1-1.1-3.3-2-5-2q-2.9 0-5.1 2.6zm16.2-0.9c0.9 1 2.1 2.8 2.8 4 0.9 1.9 0.6 3-1.4 6.8-1.7 2.9-2.1 4.5-1.3 4.5 0.7 0 2.2-1.7 3.4-3.8l2.1-3.7c3.3 5.8 5 7.5 5.8 7.5 1.1 0 0.9-0.9-1-4-1.4-2.2-2.5-4.6-2.5-5.3 0-0.7 0.9-2.4 2-3.7 1.1-1.4 1.9-2.9 2-3.3 0-0.4-0.6-0.8-1.3-0.8-0.7 0-1.9 1.2-2.7 2.6-0.8 1.4-1.9 2.5-2.3 2.5-0.4 0-1.3-1.2-2-2.6-0.7-1.4-2.1-2.5-3.2-2.5-1.9 0-1.9 0.1-0.4 1.8zm16.9 10.8c0 10.4 0.2 12.5 1.5 12.5 1.1 0 1.5-1.2 1.5-4.5 0-4.3 0.1-4.5 2.2-3.7 1.3 0.5 3.5 0.5 5 0 2-0.6 3.1-1.8 3.9-4.6 0.9-3 0.8-4.5-0.5-7.5-1.2-2.6-2.4-3.9-4.4-4.4-1.5-0.3-3.5-0.1-4.5 0.5-1.1 0.8-1.9 0.8-2.2 0.2-0.3-0.6-1-1-1.5-1-0.6 0-1 4.8-1 12.5zm30.9-9.9c-1.4 1.8-2.1 3.9-2 6.5 0.1 2.8 0.8 4.6 2.8 6.5 2.2 2.1 3.4 2.5 5.8 2 1.6-0.4 3.8-1.7 4.8-2.9 1-1.2 1.8-3.8 1.8-5.7 0-2-1-4.8-2.1-6.3-1.5-2.1-2.9-2.7-5.5-2.7-2.4 0-4 0.7-5.6 2.6zm17.9 6c0.2 6.7 0.5 8.4 1.7 8.4 1.2 0 1.5-1.4 1.5-6.3 0-3.6 0.5-6.8 1.2-7.5 0.6-0.7 2-1.2 3-1.2 1 0 1.7-0.4 1.6-0.9-0.1-0.5-2.2-0.9-4.6-0.9l-4.5 0.1zm14.9-7.7c-1 0.6-1.5 1.5-1.3 2 0.3 0.7 1.6 0.6 3.5-0.2 2.6-1.1 3.3-1 4.8 0.4 1.1 1.1 1.4 2.3 1 3.3-0.5 0.9-2.1 1.5-4.2 1.5-1.9 0-4.1 0.7-5 1.5-0.9 0.8-1.6 2.3-1.6 3.3 0 0.9 0.7 2.4 1.6 3.2 1 0.9 3 1.4 4.8 1.2 1.7-0.2 4.4-0.3 5.9-0.3 2.4 0.1 2.6-0.1 1.7-1.9-0.5-1.1-1-4.5-1-7.5 0-4.5-0.3-5.7-2-6.5-1.1-0.5-3-1-4.2-1-1.3 0.1-3.1 0.5-4 1zm30 7.5c-0.2 6.3 0 8.5 1 8.5 0.9 0 1.2-2.3 1.2-8.5 0-4.7-0.4-8.5-0.9-8.5-0.5 0-1.1 3.8-1.3 8.5zm9.7-6c-1.6 1.6-2.4 3.6-2.5 6.2 0 2.3 0.7 4.8 1.7 6.1 1.3 1.7 3 2.4 5.5 2.5 2.2 0.1 4.4-0.4 5.3-1.3 0.9-0.8 1.9-3.5 2.2-6 0.4-3.6 0.1-5-1.6-7.2-1.5-2-3-2.8-5.1-2.8-1.9 0-4 0.9-5.5 2.5zm17.5 6.3c0 6.6 0.3 8.2 1.5 8.2 1.2 0 1.6-1.5 1.8-6.6 0.2-5.1 0.6-6.9 2-7.8 1.3-0.8 2.2-0.8 3.5 0 1.3 0.9 1.8 2.7 2 7.8 0.2 5.1 0.6 6.6 1.7 6.6 1.2 0 1.5-1.3 1.5-6.2 0-4-0.5-7.1-1.5-8.5-1.3-2-2.2-2.2-7-2l-5.5 0.2zm217-6.4c-1.8 1.7-2.3 3.3-2.2 6.2 0.1 2.2 0.9 5 1.9 6.4 1.3 1.7 2.8 2.3 5.3 2.3 2.7 0 4.1-0.7 5.9-2.8 1.9-2.4 2.3-3.7 1.8-6.9-0.3-2.6-1.4-4.7-2.9-5.8-1.2-1-3.4-1.8-4.9-1.8-1.4 0-3.6 1.1-4.9 2.4zm18 10.2c0 10.4 0.3 12.5 1.5 12.5 1.1 0 1.5-1.2 1.5-4.5 0-4.3 0.1-4.5 2.3-3.7 1.2 0.5 2.9 0.7 3.7 0.4 0.9-0.3 2.3-1.2 3.3-2.1 1-0.9 2.1-3 2.4-4.6 0.3-1.8-0.1-4.3-1.1-6.3-1-2.1-2.6-3.5-4.3-3.9-1.5-0.3-3.6-0.1-4.5 0.5-1.2 0.8-2 0.8-2.3 0.2-0.2-0.6-0.9-1-1.5-1-0.6 0-1 4.8-1 12.5zm21-10.5c-1.3 1.3-2 3.3-2 6.2 0 2.4 0.7 5.3 1.5 6.5 1.3 1.9 2.3 2.2 6.2 2 2.7-0.1 4.8-0.8 5-1.5 0.2-0.9-0.8-1.1-3.9-0.6-3.5 0.5-4.5 0.3-5.5-1.3-0.7-1-1.3-2.4-1.3-3.1 0-0.8 1.9-1.2 6-1.2 4.7 0 6-0.4 6-1.5 0-0.9-0.5-2.5-1.1-3.8-0.7-1.2-1.7-2.6-2.3-3-0.6-0.4-2.3-0.7-3.8-0.7-1.5 0-3.7 0.9-4.8 2zm16.9 6.6c0.1 6.7 0.4 8.4 1.6 8.4 1.2 0 1.5-1.4 1.5-6.3 0-3.6 0.5-6.8 1.2-7.5 0.7-0.7 2-1.2 3-1.2 1 0 1.8-0.4 1.7-0.9-0.1-0.5-2.2-0.9-4.7-0.9l-4.5 0.1zm14.6-7.3c-1.4 1-1.6 1.5-0.7 2 0.7 0.3 1.5 0.2 1.8-0.4 0.2-0.5 1.5-1 2.7-1 1.3 0 2.8 0.6 3.5 1.3 0.7 0.7 1.3 2 1.3 3 0 1.3-0.9 1.7-4 1.7-2.1 0-4.6 0.7-5.5 1.5-0.8 0.9-1.5 2.4-1.5 3.5 0 1.1 1.1 2.8 2.5 3.8 2.2 1.5 3 1.5 5 0.5 1.5-0.8 3.5-1 5.2-0.5 2.5 0.7 2.6 0.6 1.5-1.5-0.7-1.3-1.2-4.7-1.2-7.8 0-4.5-0.4-5.7-2-6.5-1.1-0.5-3.1-1-4.3-1-1.3 0-3.2 0.6-4.3 1.4zm29.7 7c-0.1 6.3 0.2 8.6 1.1 8.6 0.9 0 1.3-2.3 1.2-8.2 0-5-0.4-8.4-1.1-8.6q-1.1-0.3-1.2 8.2zm9.9-6.4c-1.4 1.4-2 3.4-2.1 6.3 0 2.6 0.7 5.1 1.8 6.5 1.1 1.5 3 2.4 5 2.5 2.2 0.2 3.9-0.5 5.5-2.1 1.7-1.7 2.3-3.4 2.3-6.8 0-3.7-0.5-4.9-2.5-6.5-1.4-1.1-3.8-1.9-5.3-1.9-1.5 0-3.6 0.9-4.7 2zm18 6.5c0 5 0.4 8.5 1 8.5 0.5 0 1-2.5 0.9-5.7 0-4.7 0.4-6.1 2.2-7.5 1.2-1 2.6-1.8 3.3-1.8 0.6 0 1.6 0.6 2.3 1.3 0.8 0.7 1.3 3.7 1.3 7.5 0 4.3 0.4 6.2 1.2 6.2 0.9 0 1.3-2 1.3-6.8 0-4.7-0.5-7.4-1.5-8.6-0.9-0.9-2.9-1.6-4.6-1.6-1.7 0-3.6 0.6-4.2 1.3-1 1-1.3 1-1.2 0 0-0.7-0.5-1.3-1-1.3-0.6 0-1 3.5-1 8.5zm21-7.8c-0.8 0.3-1.3 1.1-1.2 1.9 0.1 1.2 0.7 1.2 3.1 0.2 2.4-1.1 3.1-1 4.5 0.2 0.9 0.9 1.6 2.3 1.6 3.3 0 1.3-0.9 1.7-4 1.7-2.1 0-4.6 0.7-5.5 1.5-0.8 0.9-1.6 2.3-1.6 3.3 0 0.9 0.6 2.3 1.3 3 0.7 0.7 2.4 1.3 3.8 1.3 1.3 0 4-0.1 6-0.2l3.5-0.1c-1.3-11.1-2.2-14.9-2.8-15.6-0.7-0.7-2.6-1.2-4.2-1.1-1.7 0-3.7 0.3-4.5 0.6zm49.5 0c-1.1 0.3-1.9 0.9-1.8 1.4 0.2 0.5 2 0.6 4.2 0.2 3.7-0.7 4.1-0.6 4.9 1.7 0.5 1.4 0.8 2.9 0.6 3.3-0.3 0.4-1.8 0.7-3.4 0.7-1.7 0-3.9 0.5-5 1q-2 1-2 4c0 2.3 0.6 3.3 2.5 4 1.8 0.8 3.2 0.6 5.5-0.5 1.6-0.8 3-1 3-0.5 0 0.6 0.5 1 1.2 1 0.9 0 1.2-1.7 0.9-6.2-0.2-3.5-1-7.3-1.7-8.5-1-1.5-2.3-2.2-4.2-2.2-1.5 0.1-3.6 0.4-4.7 0.6zm17.1 1.6c-1 1.4-1.2 2.8-0.7 3.7 0.5 0.9 2.6 2.4 4.7 3.5 2.1 1.1 3.9 2.7 3.9 3.5 0 1.1-1.2 1.5-4.8 1.5-2.7 0-4.6 0.5-4.4 1 0.2 0.6 1.9 1.2 3.7 1.3 1.9 0.2 4.5 0.1 5.7-0.2 1.7-0.4 2.3-1.3 2.3-3.6 0-2.6-0.6-3.2-4.5-5-3.2-1.4-4.4-2.5-4.2-3.7 0.2-1.4 1.1-1.7 4.5-1.5 2.3 0.1 4.2-0.2 4.2-0.8 0-0.5-0.7-1.2-1.5-1.5-0.9-0.2-2.9-0.5-4.5-0.5-1.9 0-3.4 0.8-4.4 2.3zm33.9-1.2c-1.1 0.6-1.8 2-1.7 3.5 0.1 1.8 1.3 3 4.7 4.7 2.8 1.4 4.5 2.9 4.5 4 0 1.4-0.8 1.7-4.8 1.5-2.6-0.1-4.6 0.2-4.5 0.8 0.1 0.5 2.5 1 5.3 1.2 4.4 0.2 5.1 0 6.2-2.3 1.1-2.1 1-2.7-0.7-4.5-1.1-1.1-2.5-2-3-2-0.6 0-2-0.6-3.3-1.5-1.5-1-2-2-1.5-3.1 0.6-1.2 1.6-1.5 4.5-1 2.3 0.4 3.8 0.2 3.8-0.4 0-0.5-0.7-1.2-1.5-1.5-0.9-0.2-2.5-0.5-3.8-0.4-1.2 0-3.1 0.4-4.2 1z"/><path class="c" d="m645.4 120.5c0 8.8 0.2 12.2 0.3 7.5 0.2-4.7 0.2-11.9 0-16-0.1-4.1-0.3-0.3-0.3 8.5zm-72-13.3c-0.3 0.7-0.4 2-0.1 2.8 0.4 0.9 0.6 0.7 0.6-0.7 0.1-2.2 0.5-2.3 9.9-2.6l9.7-0.3c-16.8-0.3-19.7 0-20.1 0.9zm128.1 9c-0.2 0.7-0.3 6.5-0.2 12.8l0.2 11.4c0.8-19.8 0.9-25.5 0.7-25.5-0.1 0-0.5 0.6-0.7 1.3zm28 0c-0.2 0.7-0.3 6.5-0.2 12.8l0.3 11.4c0.4-24.1 0.5-24.5 2.7-24.9l2.2-0.3c-3.5-0.2-4.8 0.3-5 1zm-64.1 11.7c0 6.9 0.1 9.6 0.3 6 0.2-3.6 0.2-9.2 0-12.5-0.2-3.3-0.3-0.4-0.3 6.5zm-470.3-2.8c-0.1 2.6-0.4 2.8-4.8 3.1l-4.8 0.3c7.7 0.3 9.7-0.1 10.1-0.9 0.3-0.6 0.3-2.1 0.1-3.2-0.3-1.5-0.5-1.3-0.6 0.7zm413 0c-0.1 2.7-0.3 2.8-6.3 3.1l-6.3 0.3c10.4 0.3 12.7 0 13.1-0.9 0.3-0.6 0.3-2.1 0.1-3.2-0.3-1.5-0.5-1.3-0.6 0.7zm-105.1 3.5c1.9 0.2 5.3 0.2 7.5 0 2.2-0.2 0.6-0.4-3.5-0.4-4.1 0-5.9 0.2-4 0.4zm-189.5 57c0 11 0.1 11.8 2 12q2.1 0.2 0.3-0.3c-1.6-0.3-1.8-1.9-2.1-11.9l-0.3-11.5zm52.9-3.2c0 4.9 0.2 7.2 0.4 5 0.2-2.2 0.2-6.3 0-9-0.2-2.8-0.4-1-0.4 4zm7.1 3.2c0.1 11 0.2 11.7 2.1 11.9q2.1 0.3 0.2-0.2c-1.5-0.4-1.8-2-2-11.9l-0.3-11.5zm-282 0.7c0 9 0.3 11 1.5 11.1 0.8 0.1 0.9 0 0.3-0.2-0.9-0.3-1.4-3.6-1.6-11.1l-0.3-10.8zm464.9-2c0 5.5 0.2 7.6 0.4 4.5 0.2-3 0.2-7.5 0-10-0.2-2.4-0.4 0-0.4 5.5zm-261.9 2c0 9 0.3 11 1.6 11.1 0.8 0.1 0.9 0 0.2-0.2-0.9-0.3-1.3-3.6-1.5-11.1l-0.4-10.8zm-120-5.2c0.1 3.1 0.3 3.2 3.9 3.2 3.6 0 3.6 0 0.2-0.2-3.1-0.2-3.5-0.6-3.8-3.3-0.4-2.8-0.4-2.8-0.3 0.3zm728 0c0.1 3.1 0.3 3.2 4.1 3.3l4 0.1c-7.1-0.6-7.5-1-7.8-3.7-0.4-2.8-0.4-2.8-0.3 0.3zm-792 8.7c0.1 5.9 0.4 7.5 1.6 7.6 0.8 0.1 0.9 0 0.3-0.2-0.9-0.2-1.4-2.9-1.6-7.6l-0.3-7.3zm677.5 5.3c0 1.5-1.1 1.8-7.2 2.1l-7.3 0.3c13.1 0.3 14.6 0.1 14.8-1.2 0.2-0.8 0.2-1.8 0-2.2-0.2-0.4-0.3 0-0.3 1zm-614 2.5c2 0.2 5.3 0.2 7.5 0 2.2-0.2 0.7-0.4-3.5-0.4-4.1 0-5.9 0.2-4 0.4zm20 0c2 0.2 5.3 0.2 7.5 0 2.2-0.2 0.7-0.4-3.5-0.4-4.1 0-5.9 0.2-4 0.4zm398 0c2 0.2 5.3 0.2 7.5 0 2.2-0.2 0.7-0.4-3.5-0.4-4.1 0-5.9 0.2-4 0.4zm289 0c2 0.2 5.3 0.2 7.5 0 2.2-0.2 0.7-0.4-3.5-0.4-4.1 0-5.9 0.2-4 0.4zm21 0c2 0.2 5.3 0.2 7.5 0 2.2-0.2 0.7-0.4-3.5-0.4-4.1 0-5.9 0.2-4 0.4zm-716.5 98c43.5 0.1 114.1 0.1 157 0 42.9-0.1 7.4-0.3-79-0.3-86.3 0-121.4 0.2-78 0.3zm497 0c43.5 0.1 114.1 0.1 157 0 42.9-0.1 7.4-0.3-79-0.3-86.3 0-121.4 0.2-78 0.3zm-96.7 41.3c-0.1 12.6 0.1 23 0.5 23 0.4 0 0.7-10.4 0.7-23 0-12.7-0.2-23-0.4-23-0.3 0-0.6 10.3-0.8 23zm-149.5 22.5c-0.4 0.8-0.4 1.8 0 2.2 0.4 0.4 0.8 0 0.8-1-0.1-1.6 3.7-1.8 62.7-2l62.7-0.3c-117.9-0.4-125.6-0.3-126.2 1.1zm149.7 67.8l0.5 65.2c0.4-100 0.2-129.4-0.2-129.7-0.4-0.4-0.5 28.6-0.3 64.5zm-289.6 138.7c0 5.2 0.2 7.2 0.4 4.5 0.2-2.8 0.2-7.1 0-9.5-0.2-2.5-0.4-0.3-0.4 5zm-123 0.5c0 4.9 0.1 7.2 0.4 5 0.2-2.2 0.2-6.3 0-9-0.2-2.8-0.4-1-0.4 4zm648 0c0 4.9 0.1 7.2 0.4 5 0.2-2.2 0.2-6.3 0-9-0.2-2.8-0.4-1-0.4 4zm-73 0.5c0 4.6 0.1 6.4 0.4 4 0.2-2.5 0.2-6.3 0-8.5-0.3-2.2-0.4-0.2-0.4 4.5zm-29 0.5c0 4.4 0.1 5.9 0.4 3.5 0.2-2.5 0.2-6.1 0-8-0.3-2-0.4 0.1-0.4 4.5zm3 0c0 4.4 0.1 5.9 0.4 3.5 0.2-2.5 0.2-6.1 0-8-0.3-2-0.4 0.1-0.4 4.5zm-344 38.5c0 5.2 0.2 7.2 0.4 4.5 0.2-2.8 0.2-7.1 0-9.5-0.2-2.5-0.4-0.3-0.4 5zm-108 5c0 4.6 0.1 6.4 0.4 4 0.2-2.5 0.2-6.3 0-8.5-0.3-2.2-0.4-0.2-0.4 4.5zm3 0c0 4.6 0.1 6.4 0.4 4 0.2-2.5 0.2-6.3 0-8.5-0.3-2.2-0.4-0.2-0.4 4.5zm481 0.5c0 4.9 0.1 7.2 0.4 5 0.2-2.2 0.2-6.3 0-9-0.2-2.8-0.4-1-0.4 4zm-3 0c0 4.4 0.1 5.9 0.4 3.5 0.2-2.5 0.2-6.1 0-8-0.3-2-0.4 0.1-0.4 4.5zm-549 46c0 4.9 0.1 7.2 0.4 5 0.2-2.2 0.2-6.3 0-9-0.2-2.8-0.4-1-0.4 4zm-69.2 1.2c-0.2 6.4-0.4 7.2-1.9 6.7-1.4-0.5-1.5-0.3-0.5 0.7q1.2 1.4 2.2 0.4c0.6-0.6 0.9-4.2 0.7-8l-0.3-7zm25.8-0.8l-6.5 0.7c9.7 0.2 12.7-0.1 13-0.7 0.2-0.5 0.4-0.9 0.2-0.8-0.1 0.1-3.1 0.4-6.7 0.8zm510-0.3c-3 0.3-5.8 0.7-6.2 1.1-0.4 0.4 1.9 0.6 5 0.4 3.2-0.2 6.2-0.8 6.7-1.3 0.5-0.5 0.7-0.8 0.5-0.7-0.3 0.1-3 0.3-6 0.5z"/><path fill-rule="evenodd" class="e" d="m338.5 106.7c2.8 0.2 6.8 0.2 9 0 2.2-0.2-0.1-0.3-5-0.3-4.9 0-6.8 0.1-4 0.3zm127.9 16.3c0 9.6 0.2 13.4 0.3 8.5 0.2-5 0.2-12.8 0-17.5-0.1-4.7-0.3-0.6-0.3 9zm20.6-1.8c-0.3 4.8-0.2 8.4 0.3 8 0.4-0.4 0.6-4.3 0.5-8.7l-0.3-8zm173.5-4.9c-0.3 0.7-0.3 6.5-0.2 12.8l0.3 11.4c0.4-24.1 0.5-24.5 2.6-24.9l2.3-0.3c-3.5-0.2-4.8 0.3-5 1zm166.2 3.4c0.6 0.4 1.3 3.9 1.6 7.8l0.3 7c-0.1-13.1-0.5-14.9-1.6-15.3q-1.6-0.4-0.3 0.5zm-323.7 4c1.9 0.2 5.3 0.2 7.5 0 2.2-0.2 0.6-0.4-3.5-0.4-4.1 0-5.9 0.2-4 0.4zm312.3 7.8c0 3.8 0.2 5.2 0.4 3 0.2-2.2 0.2-5.4 0-7-0.2-1.7-0.4 0.1-0.4 4zm-109 1.5c0 4.1 0.2 5.9 0.4 4 0.2-1.9 0.2-5.3 0-7.5-0.2-2.2-0.4-0.6-0.4 3.5zm-582.3-1.3c1.9 0.2 5.3 0.2 7.5 0 2.2-0.2 0.6-0.4-3.5-0.4-4.1 0-5.9 0.2-4 0.4zm256 0c1.9 0.2 5.3 0.2 7.5 0 2.2-0.2 0.6-0.4-3.5-0.4-4.1 0-5.9 0.2-4 0.4zm-171 4c1.9 0.2 5.3 0.2 7.5 0 2.2-0.2 0.6-0.4-3.5-0.4-4.1 0-5.9 0.2-4 0.4zm204 0c2.5 0.2 6.1 0.2 8 0 1.9-0.2-0.1-0.4-4.5-0.4-4.4 0-6 0.2-3.5 0.4zm-235.8 39c4.4 0.2 6.9 0.7 7.1 1.5 0.2 0.7 0.3 0.6 0.3-0.2-0.1-1.2-1.7-1.5-7.1-1.6l-7-0.1zm15 0c1.5 0.3 1.8 1.8 2 10.1l0.2 9.8 11 0.2-10.5-0.7c0-19.8 0-20-2.2-19.9-1.6 0.1-1.7 0.2-0.5 0.5zm158-0.1c1.4 0.4 1.8 1.8 2.1 7.2l0.3 6.8c-0.2-13.3-0.4-14-2.2-14.2q-2.1-0.2-0.2 0.2zm74 0.1c7.3 0.3 8.8 0.6 9.2 2.1q0.5 1.9 0.2-0.2c-0.2-1.9-0.9-2-9.2-2.1l-9-0.1zm14 10.6c-0.1 6.5 0.1 11.9 0.5 12.2 0.5 0.2 0.7-3.3 0.5-7.8-0.1-4.5-0.4-10-0.6-12.2-0.1-2.2-0.3 1.3-0.4 7.8zm53-10.7c1.6 0.4 1.8 2 2.1 11.7l0.3 11.2c-0.1-22.2-0.2-22.9-2.1-23.1q-2.1-0.3-0.3 0.2zm22.8 0.2c1.9 0.2 5.3 0.2 7.5 0 2.2-0.2 0.6-0.4-3.5-0.4-4.1 0-5.9 0.2-4 0.4zm146.2-0.2c1.6 0.4 1.8 2 2.1 11.7l0.3 11.2c-0.1-22.2-0.2-22.9-2.1-23.1q-2.1-0.3-0.3 0.2zm90 1c-0.4 0.8-0.4 1.8 0.1 2.2 0.4 0.4 0.7 0 0.7-1 0-1.5 1.2-1.8 8.2-2l8.3-0.3c-14.8-0.4-16.7-0.1-17.3 1.1zm24.3-0.2c-0.3 0.7-0.4 5.8-0.2 11.2l0.3 9.9 0.4-21.5 13.5-0.6c-11.6-0.3-13.7 0-14 1zm127.5-0.6c1.9 0.2 5.3 0.2 7.5 0 2.2-0.2 0.6-0.4-3.5-0.4-4.1 0-5.9 0.2-4 0.4zm-788.6 11.2c0 5.8 0.1 8.1 0.3 5 0.2-3 0.2-7.7 0-10.5-0.2-2.7-0.3-0.2-0.3 5.5zm156 0c0 5.8 0.1 8.1 0.3 5 0.2-3 0.2-7.7 0-10.5-0.2-2.7-0.3-0.2-0.3 5.5zm156.6 2.3c-0.3 5.3-0.2 9.3 0.3 9 0.4-0.4 0.6-4.8 0.4-9.8l-0.2-9zm11.4 173.8l0.1 2.5h125.5l-125-0.5c-0.6-4-0.7-4-0.6-2zm480 200c0 7.5 0.1 10.4 0.3 6.5 0.2-3.8 0.2-9.9 0-13.5-0.2-3.5-0.3-0.4-0.3 7zm-747.1-3.6c-0.4 0.8-0.4 3.8-0.2 6.8l0.5 5.3c0.3-10.2 0.8-12.6 1.6-12.9 1-0.3 1-0.4 0-0.5-0.7 0-1.6 0.6-1.9 1.3zm105.1 0c-0.3 0.7-0.3 4.9-0.2 9.2l0.4 7.9c0.3-14.7 0.8-17.6 1.6-17.9 1-0.3 1-0.4 0-0.5-0.7 0-1.5 0.5-1.8 1.3zm542.9 0c-0.4 0.8-0.4 3.8-0.2 6.8l0.5 5.3c0.3-10.2 0.8-12.6 1.6-12.9 1-0.3 1-0.4 0-0.5-0.7 0-1.6 0.6-1.9 1.3zm-170 7.6c0 4.2 0.2 6 0.4 4 0.2-1.9 0.2-5.3 0-7.5-0.2-2.2-0.4-0.6-0.4 3.5zm-403 1.5c0 4.4 0.2 6 0.4 3.5 0.2-2.4 0.2-6 0-8-0.2-1.9-0.4 0.1-0.4 4.5zm72 1c0 3.9 0.2 5.2 0.4 3 0.2-2.2 0.2-5.3 0-7-0.2-1.6-0.4 0.2-0.4 4zm-19 43c0 5 0.2 7.2 0.4 5 0.2-2.2 0.2-6.2 0-9-0.2-2.7-0.4-0.9-0.4 4zm-156.9 41c0 6.6 0.1 9.1 0.3 5.5 0.2-3.5 0.2-8.9 0-12-0.2-3-0.3-0.1-0.3 6.5zm166-0.5c0 6.4 0.1 8.8 0.3 5.5 0.2-3.3 0.2-8.4 0-11.5-0.2-3-0.3-0.3-0.3 6zm546.8 1.3c-0.1 7 0.1 12.9 0.5 13.2 0.4 0.2 0.7-3.5 0.5-8.3-0.1-4.8-0.4-10.7-0.6-13.2-0.1-2.4-0.3 1.3-0.4 8.3zm-62.8-0.8c0 6.1 0.1 8.3 0.3 5 0.2-3.3 0.2-8.2 0-11-0.2-2.7-0.3 0-0.3 6zm-413.1 4.5c0 4.7 0.2 6.5 0.4 4 0.2-2.4 0.2-6.3 0-8.5-0.2-2.2-0.4-0.1-0.4 4.5zm347 1c0 4.2 0.2 6 0.4 4 0.2-1.9 0.2-5.3 0-7.5-0.2-2.2-0.4-0.6-0.4 3.5zm27.7 2.2c-0.3 3.7-0.2 6.4 0.3 6 0.4-0.3 0.6-3.4 0.4-6.7l-0.2-6z"/><path class="a" d="m441.5 110.9c-1.1 0.4-2.8 2.4-3.8 4.4-0.9 2.1-1.7 5.5-1.7 7.7 0 2.2 0.7 5.3 1.5 7 0.8 1.6 2.5 3.7 3.8 4.5 1.2 0.8 3.2 1.5 4.5 1.5 1.2 0 3.4-1.1 5-2.4 2.3-2.1 2.8-3.4 3.1-8.8 0.2-4.4-0.1-7.3-1.3-9.6-0.9-1.7-2.5-3.7-3.6-4.2-1.1-0.6-2.8-1-3.8-0.9-0.9 0-2.6 0.4-3.7 0.8zm-154.2 2.8c-1.3 1.9-1.8 4.7-1.8 9.4 0 4 0.6 7.6 1.5 9.3 1.1 1.9 2.3 2.6 4.2 2.6 1.8 0 3.4-0.8 4.3-2.3 1-1.4 1.5-4.6 1.5-9 0-3.7-0.5-7.7-1.1-9-0.7-1.2-1.7-2.5-2.3-2.9-0.6-0.4-1.9-0.8-2.8-0.8-1 0-2.6 1.2-3.5 2.7zm241.1-1.9c-0.6 0.4-1.7 1.8-2.4 3.2-0.8 1.4-1.4 5.2-1.4 8.5 0 3.9 0.6 7 1.7 8.7 1.1 1.9 2.5 2.8 4.2 2.8 1.5 0 3.1-0.9 3.9-2.3 0.8-1.2 1.8-3.8 2.1-5.7 0.4-1.9 0.2-5.9-0.4-8.8q-1.1-5.2-3.1-6.2c-1.1-0.6-2.3-1-2.8-1-0.4 0-1.2 0.4-1.8 0.8zm28 0c-0.6 0.4-1.6 1.7-2.3 2.9-0.6 1.3-1.1 5-1.1 8.3 0 3.3 0.7 7.3 1.5 9 1 2 2.3 3 3.7 3 1.3 0.1 3-0.7 4-1.7 0.9-1 1.9-3.6 2.3-5.8 0.4-2.2 0.5-5.9 0.1-8.3-0.3-2.3-1.5-5.1-2.6-6.2-1.1-1.1-2.6-2-3.3-2-0.6 0-1.7 0.4-2.3 0.8zm66.8 8.8l-2.2 6.4h10c-3.4-8.9-4.6-11.8-4.9-12.2-0.3-0.3-1.6 2.3-2.9 5.8zm-498 0.4l-2.2 6h10c-2.9-9.3-4.1-12-4.7-12-0.5 0-1.9 2.7-3.1 6zm256.2 0l-1.9 5.9 9.5 0.1c-2.9-9.3-4.1-12-4.7-12-0.5 0-1.8 2.7-2.9 6zm298.8-0.5c-1.2 0.8-2.5 3-2.8 4.7-0.3 1.8-0.1 4.4 0.5 5.8 0.6 1.4 2.2 3.1 3.6 3.7 1.7 0.9 3.1 1 4.5 0.3 1.1-0.6 2.5-2.2 3.1-3.8 0.6-1.5 0.8-4.2 0.5-6-0.3-1.7-1.6-3.9-2.9-4.7-1.2-0.8-2.7-1.5-3.2-1.5-0.6 0-2 0.7-3.3 1.5zm99.2-0.7c-0.6 0.4-1.6 1.7-2.3 2.9-1.1 2.3-1 2.3 4.9 2.3 3.3 0 6-0.3 6-0.8 0-0.4-0.7-1.7-1.5-3-0.8-1.2-2.5-2.2-3.8-2.2-1.2 0-2.7 0.4-3.3 0.8zm143.8 0.7c-1.2 0.8-2.5 2.7-2.8 4.2-0.3 1.6-0.3 4.3 0 6 0.4 2.2 1.5 3.7 3.1 4.5 2 1 3 1 5 0 1.6-0.8 2.8-2.5 3.4-5 0.6-2.3 0.6-4.8 0-6.5-0.5-1.5-1.8-3.2-2.9-3.7-1.1-0.6-2.3-1-2.8-1-0.4 0-1.7 0.7-3 1.5zm-29.6 9.7c-1 0.8-1.6 2.2-1.4 3.3 0.2 1.3 1.2 2.1 3.1 2.2 1.5 0.2 3.6-0.1 4.7-0.7 1.2-0.6 2-2 2-3.5 0-2.2-0.4-2.5-3.3-2.5-1.8 0-4.1 0.6-5.1 1.2zm-767.7 48.7c-2 1.6-2.4 2.9-2.4 7.1 0 4.3 0.4 5.5 2.5 7.1 1.4 1.1 3.1 2 3.8 1.9 0.7 0 2.4-1.1 3.7-2.5 1.8-1.8 2.5-3.6 2.5-6.5 0-2.9-0.7-4.7-2.5-6.5-1.4-1.4-3.1-2.5-3.9-2.5-0.7 0-2.4 0.9-3.7 1.9zm122.1 0.4c-1.9 1.8-2.3 3.3-2.2 6.8 0.1 3.1 0.8 5.1 2.4 6.7 1.7 1.8 3 2.2 5 1.8 2-0.4 3.3-1.7 4.3-4.1 1.2-2.7 1.3-4.4 0.5-7.5-0.6-2.3-1.9-4.4-3-5-1.1-0.6-2.6-1-3.3-1-0.8 0-2.4 1-3.7 2.3zm206.9-0.4c-2 1.6-2.4 2.9-2.4 7.1 0 4.3 0.4 5.5 2.5 7.1 1.4 1.1 2.9 2 3.5 2 0.5 0 2.1-0.9 3.5-2 2.1-1.6 2.5-2.8 2.5-7.1 0-4.3-0.4-5.5-2.5-7.1-1.4-1.1-3-2-3.6-1.9-0.6 0-2.2 0.9-3.5 1.9zm80.6 0.6c-1.8 1.7-2.4 3.6-2.5 6.7 0 3.2 0.5 4.9 2.2 6.6 1.7 1.8 3 2.2 5 1.8 2-0.4 3.3-1.7 4.4-4.4 1.3-3 1.4-4.4 0.5-7.5-0.6-2-2-4.1-3.1-4.7-1.1-0.6-2.5-1-3-1-0.6 0-2.2 1.1-3.5 2.5zm88.5-0.3c-1.5 1.6-2.1 3.5-2.1 6.7 0 3.6 0.6 5.1 2.6 7.1 2.2 2.1 3 2.4 5.3 1.5 1.8-0.7 3.1-2.3 3.9-4.5 0.8-2.4 0.9-4.7 0.2-7.3-0.5-2-1.8-4.1-2.9-4.7-1.1-0.6-2.7-1-3.5-1-0.8 0-2.4 1-3.5 2.2zm-474 6.8v8c5.3 0 7.6-0.7 8.4-1.5 0.9-0.8 1.9-2.7 2.2-4.3 0.3-1.5-0.2-4.4-1-6.5-1.5-3.4-1.9-3.7-5.6-3.7h-4zm227.1-4.6c-0.1 3.5 0 3.6 3.6 3.3 3.5-0.2 3.8-0.4 3.8-3.2 0-2.7-0.3-3-3.7-3.3-3.6-0.3-3.7-0.2-3.7 3.2zm182.9 0.1c0 3.3 0.2 3.5 3.5 3.5 2.5 0 3.8-0.6 4.5-2 0.7-1.4 0.6-2.5-0.3-3.5-0.6-0.9-2.7-1.6-4.5-1.5-3 0-3.2 0.2-3.2 3.5zm-156.8 1.9c-0.6 2-1.1 3.8-1 4.1 0.2 0.3 1.5 0.4 2.9 0.3l2.6-0.3-3.2-7.7zm330.5 0.6l-1.8 4h7c-2.4-5.8-3.2-7.6-3.3-7.7-0.1-0.2-1 1.5-1.9 3.7zm-632.3 119c-1.6 1.1-3.7 3.5-4.7 5.2-1.6 3-1.8 7.6-1.8 53.6v50.2l6.9 7.5h324.3l5.8-6.5c0-98.2-0.1-102.7-1.7-105.2-1-1.5-3.1-3.6-4.8-4.8-2.9-2-4.2-2-162-2-156.6 0-159 0.1-162 2zm497.3-0.2c-1.5 0.9-3.6 3.3-4.7 5.2-1.9 3.4-2 5.5-2.1 53.5 0 48.8 0 50.1 2 52.8 1.1 1.5 3.4 3.4 5 4.2 2.7 1.3 22.8 1.5 162.7 1.5h159.6l7.7-7.5c0-90.8-0.2-101-1.3-103.2-0.8-1.5-2.8-4-4.5-5.5l-3.2-2.8c-308.2 0.1-318.6 0.2-321.2 1.8zm-7 154.6c0.3 32.9 0.5 37.5 2 40 1 1.6 3 3.9 4.6 5l2.8 2.1c310.7 0.5 316.5 0.5 319.8-1.3 2-1 4.6-3.4 5.8-5.3 2.3-3.4 2.3-3.5 2.3-40.1l-0.1-36.8c-7.9 4-9.7 4-169.7 3.8l-161.8-0.3-6-4.3zm-496.9 0.3c0.1 30.1 0.4 36.9 1.7 39.4 0.8 1.6 2.9 4 4.7 5.2l3.3 2.3c310.4 0.5 316.1 0.4 319.5-1.4 1.9-1 4.5-3.4 5.7-5.2 2.3-3.4 2.3-3.6 2.3-39.7 0-19.9-0.2-36.2-0.3-36.3-0.1 0-1.6 0.7-3.2 1.5-2.7 1.4-21.8 1.6-164.5 1.6-156.7 0-161.7-0.1-165.5-1.9l-3.9-1.9zm107.2 103.5c-0.8 0.7-1.3 1.9-1.2 2.6 0.1 0.8 1.7 1.3 4.2 1.3 3.5 0 4-0.3 3.7-2.3-0.1-1.5-1-2.3-2.7-2.5-1.4-0.2-3.2 0.3-4 0.9zm17.9 0.8c-0.6 1.1-1.1 2.9-1 4 0 1.2 0.5 3 1.1 4.1q1 2 4 2c1.8 0 3.2-0.6 3.5-1.5 0.3-0.8 0.5-3 0.5-4.8 0-1.8-0.6-3.8-1.3-4.5-0.6-0.7-2.2-1.2-3.4-1.2-1.3 0-2.8 0.9-3.4 1.9zm39 0c-0.6 1.1-1.1 2.9-1 4 0 1.2 0.5 3 1.1 4.1q1 2 4 2c1.8 0 3.2-0.6 3.5-1.5 0.3-0.8 0.5-3 0.5-4.8 0-1.8-0.6-3.8-1.3-4.5-0.6-0.7-2.2-1.2-3.4-1.2-1.3 0-2.8 0.9-3.4 1.9zm418.1-0.8c-0.8 0.7-1.3 1.9-1.2 2.6 0.1 0.8 1.7 1.3 4.2 1.3 3.5 0 4-0.3 3.7-2.3-0.1-1.5-1-2.3-2.7-2.5-1.4-0.2-3.2 0.3-4 0.9zm17.4 1.1c-0.9 1.2-1.6 3.1-1.5 4.3 0 1.1 0.6 2.8 1.3 3.8 0.9 1.2 2.2 1.7 4.3 1.5 2.8-0.3 3-0.6 3.2-4.8 0.2-2.6-0.2-5.1-1-5.8-0.6-0.7-2-1.3-2.9-1.3-1 0.1-2.5 1.1-3.4 2.3zm38.7 0.4c-0.5 1.4-1 3.2-1 4-0.1 0.7 0.3 2.3 0.9 3.4 0.5 1.1 2 2 3.3 2 1.2 0 2.8-0.6 3.5-1.3 0.7-0.7 1.2-2.8 1.2-4.7 0-1.9-0.6-4.1-1.3-4.8-0.6-0.7-2.2-1.2-3.5-1.2-1.5 0-2.5 0.8-3.1 2.6zm155.8-0.7c-0.6 1.1-1.1 2.2-1 2.5 0 0.3 2.1 0.6 4.6 0.6 2.5 0 4.5-0.2 4.5-0.5 0-0.3-0.5-1.4-1-2.5-0.6-1.2-2-2-3.5-2-1.4 0-2.9 0.8-3.6 1.9zm18.1-0.7c-0.8 0.7-1.3 2.7-1.2 4.7 0.1 2 0.7 4.2 1.4 4.9 0.7 0.6 2.2 1.2 3.3 1.2 1.2 0 2.6-0.6 3.3-1.3 0.7-0.7 1.2-2.5 1.2-4 0-1.5-0.5-3.6-1-4.7-0.6-1.1-2-2-3.3-2-1.3 0-2.9 0.5-3.7 1.2zm-742.4 45.3c-0.9 0.8-1.8 2.4-2.1 3.5-0.3 1.1 0 3.2 0.7 4.7 0.8 1.7 2.2 2.9 3.5 3 1.4 0.2 2.8-0.6 3.8-2 0.8-1.2 1.5-3.2 1.5-4.5 0-1.2-0.9-3.1-2-4.2-1.1-1.1-2.4-2-2.9-2-0.6 0-1.7 0.7-2.5 1.5zm60.9 0c-0.9 0.9-1.6 2-1.6 2.6 0.1 0.5 2.2 0.9 4.8 0.9l4.8 0.1c-2.5-3.6-3.9-4.7-4.8-4.9-0.8-0.2-2.2 0.4-3.2 1.3zm57.5 0.5c-1.1 1.1-2 3-2 4.2 0 1.3 0.6 3.3 1.5 4.5 0.8 1.3 2.3 2.3 3.2 2.3 1 0.1 2.5-0.7 3.3-1.6 0.8-1 1.5-3.3 1.5-5.1q0-3.5-2-4.9c-1.1-0.8-2.4-1.4-2.8-1.4-0.4 0-1.6 0.9-2.7 2zm85 0c-1.1 1.1-2 3-2 4.2 0 1.3 0.6 3.3 1.5 4.5 0.8 1.3 2.3 2.3 3.3 2.3 1 0 2.3-0.6 3-1.3 0.7-0.7 1.2-3.1 1.2-5.5 0-3.2-0.5-4.5-2-5.2-1.1-0.6-2.2-1-2.5-1-0.3 0-1.4 0.9-2.5 2zm287.4-1.3c-0.6 0.4-1.4 1.6-1.7 2.5-0.6 1.5-0.1 1.8 4 1.8l4.8 0.1c-2.5-3.6-3.9-4.7-4.6-4.9-0.8-0.1-1.9 0.1-2.5 0.5zm32.1 0.8c-0.9 0.9-1.6 2-1.6 2.6 0.1 0.5 2.2 0.9 4.8 0.9l4.8 0.1c-2.5-3.6-3.9-4.7-4.8-4.9-0.8-0.2-2.2 0.4-3.2 1.3zm76.6 0c-1.7 1.2-2.4 2.5-2.3 4.8 0.1 1.7 0.7 4 1.4 5 0.8 1.2 2.2 1.7 3.8 1.5 1.5-0.2 2.9-1.3 3.7-3.1 1-2 1-3.4 0.2-5.5-0.6-1.5-1.6-3-2.2-3.4-0.7-0.5-1.4-0.8-1.7-0.8-0.3 0-1.6 0.7-2.9 1.5zm84.3 0.7c-0.9 1.2-1.6 3.5-1.5 5 0 1.5 0.8 3.5 1.6 4.3 0.8 0.8 2.3 1.5 3.3 1.5 1 0 2.3-0.6 3-1.3 0.7-0.7 1.2-2.9 1.2-5 0-2-0.7-4.4-1.5-5.2-0.8-0.8-2.2-1.5-3-1.5-0.8 0-2.2 1-3.1 2.2zm-606.2 7c-0.9 1-0.9 1.6 0.1 2.6 0.6 0.7 1.9 1.3 2.7 1.2 0.9 0 2.1-0.6 2.8-1.3 0.7-0.7 1.2-1.8 1.2-2.5 0-0.7-1.3-1.2-2.8-1.2-1.6 0-3.3 0.5-4 1.2zm86.9 0.3c-0.6 0.8-0.9 1.9-0.6 2.5 0.3 0.5 1.5 1 2.8 1 1.2 0 2.8-0.6 3.5-1.3 0.7-0.7 1.2-1.8 1.2-2.5 0-0.7-1.3-1.2-2.9-1.2-1.6 0-3.4 0.7-4 1.5zm480.9-0.6c-1 0.6-1.2 1.5-0.8 2.5 0.4 0.9 1.8 1.6 3.1 1.6 1.2 0 2.8-0.6 3.5-1.3 0.7-0.7 1.2-1.8 1.2-2.5 0-0.7-1.2-1.2-2.8-1.2-1.5 0-3.4 0.4-4.2 0.9zm-694.5 38.7c-0.9 0.8-1.6 1.9-1.6 2.5 0.1 0.5 2.1 0.9 4.6 0.9 2.5 0 4.5-0.4 4.5-0.8 0-0.4-0.8-1.5-1.7-2.4-1-1-2.3-1.8-3-1.8-0.6 0-1.9 0.7-2.8 1.6zm39.5-0.4c-0.8 0.6-1.3 1.8-1.2 2.5 0.1 0.8 1.7 1.3 4.2 1.3 2.2 0 4-0.5 4-1 0-0.6-0.7-1.7-1.5-2.5-0.8-0.8-2.1-1.5-2.8-1.5-0.7 0-1.9 0.5-2.7 1.2zm73.6-0.1c-1.1 0.5-1.9 1.6-1.8 2.4 0.1 1 1.4 1.5 4.2 1.5 2.5 0 4-0.5 4-1.3 0-0.7-0.6-1.8-1.3-2.5-0.6-0.7-1.7-1.2-2.2-1.2-0.6 0-1.9 0.5-2.9 1.1zm25.9 0.4c-0.9 0.9-1.6 2-1.6 2.6 0.1 0.5 2.2 0.9 4.8 0.9l4.8 0.1c-2.5-3.6-3.9-4.7-4.8-4.9-0.8-0.2-2.2 0.4-3.2 1.3zm35 0.1c-1 0.9-1.6 3-1.6 5.2 0 2 0.6 4.3 1.3 5 0.7 0.6 2.1 1.2 3 1.2 1 0 2.5-1 3.3-2.3 0.8-1.2 1.5-3.2 1.5-4.5 0-1.2-0.9-3.1-2-4.2-1.1-1.1-2.4-2-2.9-2-0.6 0-1.7 0.7-2.6 1.6zm29 0.2c-1.2 1.2-1.8 3.1-1.7 5.3 0.1 1.8 0.7 4 1.4 4.7 0.7 0.6 2.2 1.2 3.3 1.2 1.2 0 2.6-0.6 3.3-1.3 0.7-0.7 1.2-2.8 1.2-4.7 0-2.1-0.7-4.2-1.7-5.2-1-1-2.3-1.8-2.9-1.8-0.6 0-1.9 0.8-2.9 1.8zm72 0c-1.2 1.2-1.8 3.1-1.7 5.3 0.1 1.8 0.7 4 1.4 4.7 0.7 0.6 2.3 1.2 3.5 1.2 1.3 0 2.7-0.9 3.3-2 0.5-1.1 1-3.4 1-5q0-3-2.3-4.5c-1.2-0.9-2.5-1.5-2.8-1.5-0.4 0-1.4 0.8-2.4 1.8zm235-0.4c-1.3 0.9-2 2.6-2 4.9 0 1.8 0.7 4.1 1.5 5.1 0.8 0.9 2.2 1.7 3.2 1.6 0.9 0 2.3-0.7 3.2-1.5 0.9-0.8 1.6-2.9 1.6-4.5 0-1.7-0.9-3.9-2-5-1.1-1.1-2.4-2-2.8-2-0.4 0-1.7 0.6-2.7 1.4zm20 0.2c-1 0.9-1.6 3-1.6 5.2 0 2 0.6 4.3 1.3 5 0.7 0.6 2.1 1.2 3 1.2 1 0 2.5-1 3.3-2.3 0.8-1.2 1.5-3.2 1.5-4.5 0-1.2-0.9-3.1-2-4.2-1.1-1.1-2.4-2-2.9-2-0.6 0-1.7 0.7-2.6 1.6zm18.5-0.4c-0.8 0.6-1.3 1.8-1.2 2.5 0.1 0.8 1.7 1.3 4.2 1.3 2.9 0 4-0.4 4-1.5 0-0.8-0.9-2-2-2.5-1.1-0.6-2.4-1-2.8-1-0.5 0-1.4 0.5-2.2 1.2zm71.5 0.2c-1.3 0.9-2 2.6-2 4.9 0 1.8 0.7 4.1 1.5 5.1 0.8 0.9 2.2 1.7 3.2 1.6 0.9 0 2.3-0.7 3.2-1.5 0.9-0.8 1.6-2.9 1.6-4.5 0-1.7-0.9-3.9-2-5-1.1-1.1-2.4-2-2.8-2-0.4 0-1.7 0.6-2.7 1.4zm-386 8.1c-0.3 0.8-0.3 1.9 0 2.5 0.3 0.5 1.6 1 3 1 1.5 0 2.9-0.8 3.5-2 0.5-1.1 1-2.2 1-2.5 0-0.3-1.6-0.5-3.5-0.5-2.3 0-3.7 0.5-4 1.5zm344.7 0c-0.4 0.9-0.3 2 0.3 2.6 0.5 0.6 2.1 0.8 3.5 0.6 1.4-0.3 2.8-1.5 3.2-2.6 0.7-1.9 0.4-2.1-2.7-2.1-2.2 0-3.8 0.6-4.3 1.5zm78.3 0c-0.3 0.8-0.3 1.9 0 2.5 0.3 0.5 1.5 1 2.8 1 1.2 0 2.8-0.6 3.5-1.3 0.7-0.7 1.2-1.8 1.2-2.5 0-0.7-1.4-1.2-3.5-1.2-2.3 0-3.7 0.5-4 1.5zm49.7 0c-0.4 0.9-0.3 2 0.3 2.6 0.5 0.6 2.2 0.8 3.7 0.5 1.9-0.4 2.8-1.2 2.8-2.6 0-1.6-0.7-2-3-2-1.8 0-3.4 0.6-3.8 1.5zm-354 64c-1.2 0.8-2.4 2.8-2.7 4.5-0.3 1.7 0.1 4.3 1 6 0.8 1.6 2.5 3.7 3.7 4.5 1.3 0.8 3.1 1.5 4.1 1.5 1 0 3-1.3 4.4-2.8 2.2-2.3 2.5-3.3 2-6.7-0.4-2.2-1.7-5-2.9-6.3-1.3-1.2-3.4-2.3-4.8-2.2-1.4 0-3.5 0.6-4.8 1.5zm123.9 35.7l-2.2 2.3c4.7 4.2 6.5 5.5 7 5.5 0.5 0 1.6-0.7 2.5-1.5 0.9-0.8 1.6-1.9 1.6-2.3 0-0.4-0.9-2-2-3.5-1.1-1.5-2.6-2.7-3.3-2.7-0.8 0-2.4 1-3.6 2.2zm-165.9 1.4c-0.1 0.5 0.7 2.3 1.8 4.1l2 3.3c3.1-3.9 3.9-5.2 3.8-5.4 0-0.2-1.2-0.7-2.6-1-1.4-0.3-3.1-0.9-3.7-1.2-0.7-0.4-1.3-0.2-1.3 0.2zm76.8 47.3c-3.2 3.3-3.8 4.6-3.9 8.5-0.1 2.5 0.6 5.9 1.4 7.6 0.9 1.8 3.1 3.7 5.7 4.9 2.6 1.1 5.5 1.7 7.3 1.4 1.6-0.3 4.2-1.1 5.7-1.9 1.5-0.8 3.5-2.8 4.3-4.4 0.8-1.7 1.5-4.8 1.5-7 0-2.2-0.7-5.3-1.6-6.8-0.8-1.5-2.8-3.5-4.5-4.5-1.6-1-4.9-1.7-7.5-1.7-4.1 0-5.1 0.5-8.4 3.9zm-53.6 83.2c-1.6 1.8-2.6 4.1-2.5 5.7 0.1 1.5 0.4 3.2 0.8 3.8 0.5 0.6 1.8 1.6 3 2.2q2.3 1.2 4.9 0.2c1.4-0.5 3.2-1.9 4-3.2 0.8-1.3 1.4-3.8 1.4-5.6 0-2.2-0.7-3.7-2.3-4.7-1.2-0.9-3.2-1.5-4.4-1.5-1.2 0-3.4 1.4-4.9 3.1zm121.8 0.1c0.6 1.8 1.2 3.4 1.4 3.5 0.2 0.2 1.3-0.2 2.4-0.7 1.1-0.6 2-1.4 2-1.8 0-0.4-1.3-1.5-3-2.5-1.7-0.9-3.2-1.7-3.4-1.7-0.3 0 0 1.4 0.6 3.2zm-78.1 22c-0.9 5.8-0.9 7.4 0.1 8 0.7 0.4 1.8 0.8 2.5 0.8 0.7 0 2-0.4 2.9-0.8 0.9-0.4 2.3-2 3-3.5 0.8-1.5 1.4-3.8 1.4-5.2 0-1.4-0.9-3.4-2-4.5-1.1-1.1-3.1-2-4.4-2-2.2 0-2.5 0.6-3.5 7.2z"/><path class="c" d="m186.5 300.7c42.9 0.2 112.6 0.2 155 0 42.4-0.1 7.3-0.2-78-0.2-85.3 0-119.9 0.1-77 0.2zm495 0c42.9 0.2 113.3 0.2 156.5 0 43.2-0.1 8.1-0.2-78-0.2-86.1 0-121.4 0.1-78.5 0.2zm-90 60.8c0 26.4 0.1 37 0.2 23.5 0.2-13.5 0.2-35.1 0-48-0.1-12.9-0.2-1.9-0.2 24.5zm-497 1c0 26.4 0.1 37 0.2 23.5 0.2-13.5 0.2-35.1 0-48-0.1-12.9-0.2-1.9-0.2 24.5zm0 92.5c0 19.5 0.1 27.4 0.2 17.5 0.2-9.9 0.2-25.9 0-35.5-0.1-9.6-0.2-1.5-0.2 18zm497 2c0 19.5 0.1 27.4 0.2 17.5 0.2-9.9 0.2-25.9 0-35.5-0.1-9.6-0.2-1.5-0.2 18z"/><path class="b" d="m806.3 357c0 4.1 0.2 5.9 0.4 4 0.2-1.9 0.2-5.3 0-7.5-0.2-2.2-0.4-0.6-0.4 3.5z"/><path class="d" d="m186 341.9c-1.4 0.4-3.5 1.4-4.8 2.2-1.3 0.8-3.2 3.1-4.3 5.2-1.3 2.6-1.9 5.8-1.9 10.5 0 4.4 0.6 7.9 1.8 10.2 0.9 1.9 3.3 4.5 5.2 5.8 2.6 1.6 5 2.3 9 2.3 4 0 6.3-0.6 8.3-2.1 2.5-1.9 2.7-2.5 2.7-9.5v-7.5c-11.7 0-12 0.1-12 2.5 0 2.2 0.4 2.5 3.5 2.5 3.5 0 3.5 0 3.2 4.3-0.2 4-0.4 4.2-4.2 5.1-3.2 0.7-4.6 0.6-6.8-0.7-1.5-0.9-3.4-3.3-4.2-5.2-0.8-1.9-1.5-5.5-1.5-8 0-2.5 0.8-6.1 1.7-8 1-1.9 2.8-3.9 4-4.5 1.3-0.5 3.4-1 4.8-1 1.4 0 3.6 1 4.9 2.3 2.1 2 2.5 2.1 4.4 0.7 1.7-1.2 1.9-1.8 0.9-3.2-0.7-1-2.9-2.4-5-3.3-2-0.8-4.5-1.5-5.5-1.4-0.9 0-2.8 0.4-4.2 0.8zm495.5 0.2c-1.6 0.5-4.1 1.9-5.4 3.2-1.3 1.2-3 3.7-3.7 5.5-0.8 1.7-1.4 5.8-1.4 9 0 3.5 0.8 7.3 2 10 1.1 2.3 3.4 5.1 5.2 6.2 2.3 1.4 5.1 2 8.8 2 3.7 0 6.5-0.6 8.7-2 3.3-2 3.3-2.1 3.3-9.5v-7.5c-11.7 0-12 0.1-12 2.5 0 2.1 0.5 2.5 3 2.5 2.8 0 3 0.2 3 4 0 2.9-0.5 4.2-1.8 4.7-0.9 0.4-3.4 0.7-5.5 0.8-3 0-4.4-0.6-6.3-2.7-1.3-1.6-2.7-4.5-3-6.5-0.4-2.1-0.3-5.8 0.1-8.3 0.5-2.9 1.7-5.5 3.5-7.2 1.9-1.8 3.9-2.8 5.9-2.8 1.9 0 4.1 0.9 5.4 2.3 2.2 2 2.6 2.1 4.6 0.7 1.2-0.8 2.2-1.8 2.1-2.2 0-0.5-1.2-1.7-2.8-2.7-1.5-1.1-4.5-2.2-6.7-2.5-2.2-0.3-5.4-0.1-7 0.5zm-470.5 17.9v18c4.9 0 5-0.2 5-7v-7c11.7-0.5 13.3-0.9 15.4-3 1.5-1.4 2.9-3.8 3.2-5.5 0.3-1.6 0.3-4.5 0-6.2-0.4-2.3-1.6-3.9-3.9-5.3-2.5-1.6-5-2-11.5-2h-8.2zm29-15.5c0 2.4 0.3 2.5 5.5 2.5h5.5v31h5v-31c10.7 0 11-0.1 11-2.5v-2.5h-27zm467 15.5v18c5.3-0.5 5.4-0.6 5.1-7l-0.2-6.5c11.7-0.9 13.6-1.5 15.6-3.5 1.5-1.5 2.8-4.1 3.2-6.5 0.4-2.7 0-5.1-1.1-7.2-0.9-1.8-2.7-3.7-4.1-4.3-1.4-0.5-6.1-1-10.5-1h-8zm29-15.5c0 2.4 0.3 2.5 5.5 2.5h5.5v31h5v-31c10.7 0 11-0.1 11-2.5v-2.5h-27zm-439.1 9c-6.6 8.4-8.2 11.1-8.1 13.5l0.2 3h16c0 7.6 0.3 8 2.5 8 2.3 0 2.5-0.4 2.5-4 0-3.6 0.3-4 2.5-4 2 0 2.5-0.5 2.5-2.5 0-2-0.5-2.5-2.5-2.5h-2.5c0-21.9 0-22-2.4-22-1.8 0-4.3 2.4-10.7 10.5zm37.9-7.2c-4.2 2.8-4.6 3.4-3.5 5 1.2 1.8 1.3 1.8 5-0.2l3.7-2.1v29h5v-35c-4.3 0.1-7.6 1.5-10.2 3.3zm461.9 2c-2.4 2.8-6.2 7.7-8.5 10.7-2.5 3.3-4.2 6.6-4.2 8.3v2.7h17c0 7.6 0.3 8 2.5 8 2.3 0 2.5-0.4 2.5-4 0-3.6 0.3-4 2.5-4 2 0 2.5-0.5 2.5-2.5 0-2-0.5-2.5-2.5-2.5h-2.5c0-22 0-22-2.4-22-1.7 0-3.8 1.6-6.9 5.3zm33.7-0.5c-0.4 2.6-0.8 6.3-0.8 8.2l-0.1 3.5c10.7-0.5 12.4-0.2 13.8 1.2 1.1 1.1 1.8 3.3 1.7 5.6 0 2.3-0.7 4.4-2 5.7-1.1 1.1-3.4 2-5.2 2-1.8 0.1-4-0.6-4.8-1.5-0.8-0.9-2-1.6-2.5-1.6-0.5 0-1.6 0.7-2.2 1.6-1.1 1.2-0.8 1.8 1.5 3.5 1.9 1.5 4.2 2.1 8.2 2.1 4 0 6.3-0.6 8.3-2.1 1.6-1.2 3.2-3.7 3.9-6.2 0.8-3.3 0.8-5.2 0-8-0.8-2.5-2.4-4.5-4.4-5.8-2.3-1.5-4.6-2-7.5-1.8-3.3 0.2-4.3-0.1-4.3-1.2 0-0.8 0.2-2.5 0.5-3.7 0.5-2.1 1.1-2.3 7.5-2.3 6.3 0 7-0.2 7-2 0-1.9-0.7-2-8.9-2h-9zm-560.4 13.8c0 2.4 0.2 2.5 7 2.5 6.8 0 7-0.1 7-2.5 0-2.5-0.2-2.5-7-2.5-6.8 0-7 0-7 2.5zm495 0c0 2.4 0.2 2.5 7 2.5 6.8 0 7-0.1 7-2.5 0-2.5-0.2-2.5-7-2.5-6.8 0-7 0-7 2.5zm-443.6 10.7c-0.3 0.7-0.4 2.2-0.2 3.3 0.2 1.3 1.1 2 2.8 2 1.6 0 2.6-0.7 2.7-1.8 0.2-1-0.3-2.4-0.9-3.3-0.7-0.8-1.9-1.5-2.6-1.5-0.7 0-1.5 0.6-1.8 1.3zm495.7 0.5c-0.6 1.1-0.6 2.4 0 3.5 0.5 1 1.8 1.8 2.9 1.8 1.2 0 2.2-0.9 2.5-2 0.3-1.1-0.1-2.7-0.7-3.6-0.7-0.8-1.8-1.5-2.5-1.5-0.7 0-1.7 0.8-2.2 1.8zm-686 83c-1.1 0.2-3.2 1.8-4.7 3.6-2.3 2.8-2.6 3.8-2.1 8.7 0.4 4.3 1 5.9 3.1 7.7 1.6 1.4 3.9 2.3 6.1 2.3 2.2 0 4.5-0.9 6.3-2.4 2.4-2.1 2.5-2.4 1-3-1.1-0.4-2.3 0-3 0.9-0.7 0.8-2.4 1.5-3.8 1.5-1.4 0-3.3-0.8-4.2-1.8-0.9-0.9-2-3.1-2.3-4.7-0.4-1.7-0.2-4.3 0.4-5.8 0.6-1.5 2.2-3.3 3.5-4 2.1-1.1 2.9-1 5.3 0.6 2 1.3 3.1 1.5 3.8 0.7q1-1.1 0-2c-0.5-0.6-2.4-1.4-4.2-1.8-1.8-0.4-4.1-0.6-5.2-0.5zm15 10.1c-0.1 10 0.1 11.1 1.7 11.1 1.4 0 1.7-0.7 1.5-4-0.3-3.8-0.2-3.9 2.7-3.9 2.5 0 3.1 0.4 3.6 2.7 0.3 1.5 1.1 3.3 1.7 4 0.7 0.8 2.2 1.3 3.5 1.3 1.2 0 2.2-0.5 2.2-1 0-0.6-0.8-1.2-1.7-1.4-1-0.1-2.1-1.6-2.6-3.2-0.5-2.1-0.3-3.4 0.8-4.4 0.8-0.9 1.5-3.1 1.5-5 0.1-2.2-0.6-4.1-1.6-5-1-0.9-4.3-1.7-7.4-1.9l-5.7-0.4zm21.8 0.1v11c12.6 0 14-0.3 14-1.5 0-1.1-1.2-1.5-5.5-1.5h-5.5v-7c8.3 0 9.5-0.3 9.5-1.5 0-1.1-1.2-1.5-4.7-1.5-4.4 0-4.8-0.2-4.8-2.5 0-2.3 0.3-2.5 5.5-2.5 4.9 0 5.5-0.2 5.5-2 0-1.8-0.6-2-7-2h-7zm25.7-10.3c-0.3 0.5-2.1 5-4.1 10.1-2 5.1-3.6 9.7-3.6 10.2 0 0.6 0.7 1 1.5 1 0.9 0 2-1.3 2.5-3 0.9-2.6 1.5-3 5-3 3.5 0 4.2 0.4 5.3 3 0.7 1.8 2 3 3 3 1.5 0 1.2-1.4-2.5-10.6-2.3-5.9-4.8-10.9-5.4-11.1-0.6-0.2-1.4 0-1.7 0.4zm11.3 1.3c0 1.6 0.7 2 3.5 2h3.5c0 16.4 0.3 18 1.5 18 1.3 0 1.5-1.6 1.5-9v-9c6.4 0 7-0.4 7-2 0-1.8-0.6-2-8.5-2-7.8 0-8.5 0.2-8.5 2zm22 9c0 9.1 0.3 11 1.5 11 1.3 0 1.5-1.9 1.5-11 0-9.1-0.2-11-1.5-11-1.2 0-1.5 1.9-1.5 11zm8-10.2c0 0.4 1.7 5.3 3.8 11 2.5 6.7 4.2 10.2 5.2 10.2q1.5 0 4.9-9.7c1.9-5.4 3.6-10.3 3.8-11 0.2-0.7-0.2-1.3-0.9-1.3-0.7 0-2.6 3.5-4.2 7.7-1.5 4.3-3.1 8.2-3.5 8.6-0.3 0.4-1.9-3.1-3.6-7.8-1.6-4.6-3.5-8.5-4.2-8.5-0.7 0-1.3 0.4-1.3 0.8zm22 10.2v11c12.6 0 14-0.3 14-1.5 0-1.1-1.2-1.5-5.5-1.5h-5.5c0-7 0.1-7 4.5-7 3.4 0 4.5-0.4 4.5-1.5 0-1.1-1.1-1.5-4.5-1.5-4.1 0-4.5-0.2-4.5-2.5 0-2.3 0.3-2.5 5.5-2.5 4.9 0 5.5-0.2 5.5-2 0-1.8-0.6-2-7-2h-7zm28.7-1.7c-1.9 5.1-3.7 10-4.1 11q-0.6 1.7 0.9 1.7c0.9 0 2-1.3 2.5-3 1-2.7 1.4-3 5.5-3 4.1 0 4.6 0.3 5.5 3 0.6 1.7 1.7 3 2.5 3 0.9 0 1.5-0.2 1.5-0.5 0-0.2-1.8-5.2-4-11-2.4-6.4-4.5-10.5-5.4-10.5-0.8 0-2.7 3.7-4.9 9.3zm18.3 1.7c0 9.1 0.3 11 1.5 11 1.2 0 1.6-1.7 1.8-8.2l0.2-8.2c8.2 13.5 10.7 16.4 11.8 16.4 1.5 0 1.7-1.2 1.7-11 0-9.1-0.2-11-1.5-11-1.2 0-1.5 1.6-1.5 8.3v8.2c-8.5-13.4-11.1-16.5-12.2-16.5-1.6 0-1.8 1.2-1.8 11zm25-8c-2.2 2.3-2.8 3.8-2.9 7.5 0 2.5 0.4 5.7 0.9 7 0.6 1.4 2.5 3.3 4.3 4.2 2 0.9 4.3 1.3 6 1 1.5-0.4 3.4-1.5 4.3-2.4 0.9-1 1.2-2.1 0.8-2.6-0.5-0.5-2-0.1-3.4 0.8-1.4 1-3.5 1.5-5 1.2-1.3-0.3-3-1.7-3.7-3.1-0.7-1.4-1.3-4.1-1.3-6.1 0-2.1 0.8-4.2 2-5.5 1.1-1.1 3.1-2 4.3-2 1.2 0 2.8 0.6 3.5 1.5 0.7 0.8 1.9 1.3 2.7 1 0.9-0.2 1.3-1 1.1-1.7-0.3-0.7-1.7-1.8-3-2.5-1.4-0.7-3.7-1.3-5.1-1.3-1.6 0-3.8 1.2-5.5 3zm19 8c0 9.1 0.3 11 1.5 11 1.2 0 1.5-1.2 1.5-5v-5h10c0 8.8 0.4 10 1.5 10 1.3 0 1.5-1.9 1.5-11 0-9.1-0.2-11-1.5-11-1.1 0-1.5 1.2-1.5 4.5v4.5h-10c0-7.8-0.4-9-1.5-9-1.2 0-1.5 1.9-1.5 11zm27.4-10c-1.2 0.4-3 1.8-4 3-1.3 1.6-1.9 3.9-1.9 7.7 0 4.7 0.4 5.8 2.8 7.9 1.7 1.5 4 2.4 6 2.5 1.8 0 4.5-0.9 6-2 1.8-1.4 2.9-3.4 3.4-5.8 0.3-2.1 0.1-5.5-0.5-7.5-0.9-2.9-2-4.1-4.7-5.3-1.9-0.8-3.8-1.4-4.2-1.4-0.4 0-1.7 0.4-2.9 0.9zm17.6 10c0 9.1 0.3 11 1.5 11 1.1 0 1.5-1.1 1.5-4 0-3.4 0.3-4 2.3-4 1.6 0 2.8 1 4.2 4 1.5 3 2.6 4.1 4.3 4.1 1.2-0.1 2.2-0.5 2.2-1.1 0-0.5-0.6-1.2-1.5-1.5-0.8-0.2-1.9-1.6-2.5-3-0.8-2-0.6-2.9 1-4.5 1.1-1.1 2-3.3 2-5 0-1.6-0.9-3.9-2-5-1.5-1.5-3.3-2-7.5-2h-5.5zm219.1-9.8c-0.1 0.7-1.9 5.7-4.1 11.1-3.4 8.4-3.7 9.7-2.2 9.7 1 0 2.3-1.2 3-3 1.1-2.6 1.7-3 5.2-3 3.6 0 4.1 0.4 5 3 0.6 1.7 1.7 3 2.5 3 0.9 0 1.5-0.3 1.5-0.7 0-0.4-1.7-5.3-3.9-10.8-2.2-5.8-4.5-10.1-5.4-10.3-0.8-0.2-1.5 0.3-1.6 1zm17.4 1.5c-1.6 1.5-2.7 3.7-2.7 5.2-0.1 1.5 0 4 0.2 5.6 0.1 1.7 0.6 3.8 1.1 4.8 0.5 0.9 2.5 2.4 4.4 3.2 2.7 1.2 4.4 1.3 7 0.5 3.4-0.9 3.5-1.1 3.5-6v-5c-5.9 0-7 0.5-7 1.5 0 1 1 1.5 2.5 1.5 1.7 0 2.5 0.6 2.6 1.8 0 0.9-0.6 2.3-1.2 3-0.7 0.7-2.3 1.2-3.6 1.2-1.2 0-3.2-0.9-4.3-2-1.4-1.4-2-3.3-2-6.7 0-3.7 0.5-5.2 2.1-6.5 1.2-1 3.1-1.8 4.3-1.8 1.2 0 2.8 0.7 3.6 1.5 1.1 1.2 1.8 1.3 2.5 0.5 0.7-0.8 0.3-1.7-1.5-3.1-1.3-1.1-3.9-1.9-5.6-1.9-1.9 0-4.1 1-5.9 2.7zm19.5 8.4v10.9c11.6 0 13-0.3 13-1.5 0-1.1-1.2-1.5-5.5-1.5h-5.5v-7c8.8 0 10-0.3 10-1.5 0-1.1-1.2-1.5-5-1.5-4.6 0-5-0.1-5-2.5 0-2.3 0.3-2.5 5.5-2.5 4.7 0 5.5-0.2 5.5-1.8 0-1.6-0.9-1.9-6.5-2l-6.5-0.1zm18 0c0 9.1 0.3 11 1.5 11 1.2 0 1.6-1.7 1.8-8.2l0.2-8.2c8.1 13.3 10.7 16.3 11.8 16.3 1.5 0.1 1.7-1.1 1.7-10.9 0-9.1-0.3-11-1.5-11-1.2 0-1.5 1.6-1.5 8.2l-0.1 8.3c-8.5-13.5-11-16.5-12.1-16.5-1.6 0-1.8 1.2-1.8 11zm20-9c0 1.6 0.7 2 3.5 2h3.5c0 16.3 0.3 18 1.5 18 1.2 0 1.5-1.7 1.5-9v-9c6.3 0 7-0.4 7-2 0-1.9-0.7-2-8.5-2-7.8 0-8.5 0.1-8.5 2zm22 9c0 9.1 0.3 11 1.5 11 1.2 0 1.5-1.9 1.5-11 0-9.1-0.3-11-1.5-11-1.2 0-1.5 1.9-1.5 11zm13.4-10c-1.2 0.5-2.9 1.9-3.8 3.2-0.9 1.2-1.7 4.3-1.8 6.8-0.1 2.7 0.4 5.5 1.5 7.2 0.9 1.5 2.9 3.2 4.5 3.8 1.5 0.6 3.8 0.8 5.2 0.5 1.4-0.2 3.1-1.2 3.8-2 0.6-0.8 1-2 0.7-2.5-0.3-0.6-1.4-0.4-2.7 0.5-1.3 0.8-3.1 1.5-4 1.5-1 0-2.7-1-3.8-2.3-1.3-1.4-2-3.6-2-6.2 0-2.5 0.7-4.9 1.9-6.3 1-1.2 2.9-2.3 4.2-2.3 1.3 0 3.1 0.7 3.9 1.6 1.1 1.1 1.8 1.2 2.5 0.4 0.7-0.7 0.2-1.7-1.5-3-1.4-1.1-3.4-2-4.5-1.9-1.1 0-3 0.5-4.1 1zm24.7 9.2c-2.3 5.7-4.1 10.6-4.1 11 0 0.4 0.7 0.8 1.5 0.8 0.8 0 2-1.4 2.5-3 0.9-2.8 1.4-3 5.5-3 4.2 0 4.5 0.2 5 3 0.4 2.1 1.1 3 2.5 3 1.9 0 1.9-0.2-0.6-6.8-1.5-3.7-3.3-8.6-4-11-0.8-2.3-2-4.2-2.8-4.2-0.9 0-3 4-5.5 10.2zm18.9 0.8v11c11.6 0 13-0.4 13-1.5 0-1.2-1.2-1.5-5-1.5h-5c0-17.3-0.3-19-1.5-19-1.2 0-1.5 1.9-1.5 11zm17 0c0 9.1 0.3 11 1.5 11 1.2 0 1.5-1.9 1.5-11 0-9.1-0.3-11-1.5-11-1.2 0-1.5 1.9-1.5 11zm12.9-10c-0.9 0.6-2.3 2.4-3.3 4-0.9 1.6-1.6 4.4-1.6 6.2 0 1.8 1 4.8 2.2 6.7 1.3 2 3.6 3.9 5.3 4.4 2.1 0.6 3.9 0.5 6-0.5 2.7-1.2 3-1.9 3.3-6.1l0.2-4.7c-5.9 0-7 0.4-7 1.5 0 0.8 0.9 1.5 2 1.5 1.5 0 2 0.6 2 2.5 0 1.7-0.7 2.6-2.2 3.1-1.3 0.3-3.3 0.1-4.5-0.5-1.3-0.6-2.7-2.7-3.3-4.6-0.5-2-0.7-4.5-0.4-5.8 0.4-1.2 1.2-3 1.9-4 0.8-0.9 2.5-1.7 3.9-1.7 1.4 0 3.5 0.5 4.6 1.2 1 0.7 2.3 0.9 2.7 0.4 0.4-0.4-0.3-1.7-1.7-2.8-1.4-1-3.8-1.9-5.5-1.8-1.6 0-3.7 0.5-4.6 1zm18.1 10c0 9.1 0.3 11 1.5 11 1.2 0 1.5-1.6 1.5-8.3v-8.2c8.6 13.5 11.1 16.5 12.3 16.5 1.5 0 1.7-1.2 1.7-11 0-9.4-0.2-11-1.6-11-1.3 0-1.6 1.5-1.7 8.2l-0.2 8.3c-8.1-12.8-11.2-16.5-12-16.5-1.2 0-1.5 1.9-1.5 11zm22 0c0 9.1 0.3 11 1.5 11 1.2 0 1.6-1.7 1.8-7.7l0.2-7.7c4.4 10.8 5.8 12.9 7 12.9 1.2 0 2.6-2.1 4.4-6.5l2.6-6.4c0.4 13.7 0.8 15.4 2 15.4 1.2 0 1.5-1.9 1.5-11 0-9.8-0.2-11-1.7-11.1-1.3 0-2.8 2.3-5.3 8-1.9 4.4-3.6 7.9-3.6 7.8-0.1-0.1-1.6-3.7-3.3-8-2.4-6-3.5-7.7-5.1-7.7-1.9 0-2 0.6-2 11zm26 0v11c12.6 0 14-0.3 14-1.5 0-1.2-1.3-1.5-5.5-1.5h-5.5v-7c8.8 0 10-0.4 10-1.5 0-1.2-1.2-1.5-5-1.5-4.7 0-5-0.2-5-2.5 0-2.4 0.3-2.5 5.5-2.5 4.8 0 5.5-0.3 5.5-2 0-1.8-0.7-2-7-2h-7zm19.5 0c0 8.1 0.3 11 1.3 11 0.8 0 1.3-2.5 1.5-8.3l0.2-8.2c8.1 12.8 11.2 16.5 12 16.5 1.2 0 1.5-1.9 1.5-11 0-9.1-0.3-11-1.5-11-1.2 0-1.5 1.5-1.5 8.2v8.3c-8.1-12.8-11.2-16.5-12-16.5-1.3 0-1.6 1.7-1.5 11zm20.5-9c0 1.6 0.7 2 3.5 2h3.5c0 16.3 0.3 18 1.5 18 1.2 0 1.5-1.7 1.5-9v-9c6.3 0 7-0.4 7-2 0-1.9-0.7-2-8.5-2-7.8 0-8.5 0.1-8.5 2z"/><path fill-rule="evenodd" class="c" d="m217.5 341.3c3.8 0 5.2 0.2 3 0.4-2.2 0.2-5.3 0.2-7 0-1.7-0.2 0.2-0.4 4-0.4zm22.1 0.1l27.9 0.1 0.1 2.5c0.1 2 0 2.1-0.3 0.2-0.3-2.1-0.7-2.2-14-2.5zm524.9 0l-28.5 0.6-0.1 2.7c-0.1 2.1-0.2 2.3-0.6 0.8-0.2-1.1-0.2-2.6 0.1-3.3 0.4-0.9 4.2-1.1 29.1-0.8zm-454.2 1.4c0.4 0.4 0.6 5.6 0.2 22.7l-0.5-11.7c-0.3-6.4-0.2-11.4 0.3-11zm-53.5 11.2c0.1 4.1 0.1 11.3 0 16-0.2 4.7-0.4 1.3-0.4-7.5 0-8.8 0.2-12.6 0.4-8.5zm83 3c0.1 4.1 0.1 10.6 0 14.5-0.2 3.8-0.4 0.5-0.4-7.5 0-8 0.2-11.1 0.4-7zm-137.1 5c0.2 1.9 0.3 5.5 0 8-0.2 2.5-0.3 0.9-0.3-3.5-0.1-4.4 0.1-6.4 0.3-4.5zm74.3 2.3c4.1 0 5.7 0.2 3.5 0.4-2.2 0.2-5.6 0.2-7.5 0-1.9-0.2-0.1-0.4 4-0.4zm495 0c4.1 0 5.7 0.2 3.5 0.4-2.2 0.2-5.6 0.2-7.5 0-1.9-0.2-0.1-0.4 4-0.4zm-407.3 95.2c0.2 2.7 0.2 7.7 0 11-0.2 3.3-0.3 1-0.3-5 0-6.1 0.1-8.8 0.3-6zm449 0.5c0.2 3 0.2 8.4 0 12-0.1 3.6-0.3 1.1-0.3-5.5 0-6.6 0.1-9.5 0.3-6.5zm-48 1c0.2 2.5 0.2 6.7 0 9.5-0.2 2.7-0.3 0.7-0.3-4.5 0-5.2 0.1-7.5 0.3-5zm61.9-4c0.2 0 0.4 2.9 0.4 6.5 0 3.6-0.3 6.5-0.7 6.5-0.5 0-0.6-2.9-0.5-6.5 0.2-3.6 0.6-6.5 0.8-6.5zm-611.9 6.5c0.3 2.7 0.2 6.8 0 9-0.2 2.2-0.3-0.1-0.3-5 0-5 0.1-6.8 0.3-4zm92 2.5c0.2 1.9 0.3 5.5 0 8-0.2 2.5-0.3 0.9-0.3-3.5-0.1-4.4 0.1-6.4 0.3-4.5z"/><path class="e" d="m835 342.7c2.5 0.2 6.8 0.2 9.5 0 2.8-0.2 0.7-0.3-4.5-0.3-5.2 0-7.5 0.1-5 0.3zm-82.6 19.8c0 8.8 0.2 12.2 0.3 7.5 0.2-4.7 0.2-11.9 0-16-0.1-4.1-0.3-0.3-0.3 8.5zm-536.1 8.5c0 4.1 0.2 5.9 0.4 4 0.2-1.9 0.2-5.3 0-7.5-0.2-2.2-0.4-0.6-0.4 3.5zm13.9 94.8c-0.2 9.7-0.4 11.2-1.9 11.6-1.7 0.3-1.7 0.4 0 0.5 0.9 0 1.9-0.5 2.2-1.1 0.3-0.7 0.4-6 0.2-11.8l-0.3-10.5zm418.3 0.8v11c13.2 0 14-0.3 14.2-2q0.2-2.2-0.2-0.3c-0.4 1.4-1.6 1.8-7 1.8h-6.5l-0.6-21.5zm60-0.1c0.1 9.1 0.3 11 1.6 11.1 0.8 0.1 0.9 0 0.2-0.2-0.9-0.2-1.3-3.6-1.5-11.1l-0.3-10.7zm-11.3 1.2c-0.2 7.9-0.4 9.3-1.9 9.6-1.7 0.4-1.7 0.4 0 0.5 0.9 0.1 2-0.4 2.2-1.1 0.3-0.7 0.4-5.1 0.2-9.7l-0.3-8.5zm-526.2 9.9c1.9 0.3 5.3 0.3 7.5 0 2.2-0.2 0.6-0.4-3.5-0.4-4.1 0-5.9 0.2-4 0.4zm89 0c1.9 0.3 5.3 0.3 7.5 0 2.2-0.2 0.6-0.4-3.5-0.4-4.1 0-5.9 0.2-4 0.4z"/><path class="a" d="m217.2 352.4l-0.2 6.6c6.2 0 8.9-0.4 10-1 1.5-0.7 2-2 2-4.7 0.1-2.1-0.5-4.3-1.2-5-0.7-0.7-3.4-1.5-5.9-1.9l-4.6-0.7zm496 0l-0.1 6.7c6.2 0 8.9-0.5 10-1 1.4-0.8 2-2.1 2-4.8 0-2-0.5-4.3-1.2-4.9-0.8-0.7-3.4-1.6-5.9-1.9l-4.6-0.7zm-414 5.6l-5.2 7h11c0-10.8-0.1-14-0.3-14-0.2 0-2.6 3.2-5.5 7zm495.4 0l-5.6 7h12c0-10.8-0.2-14-0.4-14-0.2 0-2.9 3.2-6 7zm-644.6 104.5c0 3.3 0.2 3.5 3.2 3.3 1.7-0.2 3.6-0.9 4.1-1.8 0.6-0.8 0.7-2.3 0.4-3.2-0.5-1.2-1.8-1.8-4.2-1.8-3.3 0-3.5 0.2-3.5 3.5zm224.5-1.9c-1 1-1.6 3.1-1.6 5.7 0 2.7 0.7 4.9 1.8 6 1 0.9 2.7 1.7 3.8 1.7 1.1 0.1 2.8-0.7 3.7-1.7 1-1 1.8-3.4 1.8-5.5 0-2.1-0.4-4.7-1-5.8-0.6-1.3-2-2-3.9-2-1.6 0-3.7 0.7-4.6 1.6zm22.6 1.9c-0.1 3 0.2 3.5 2.2 3.5 1.2 0.1 3-0.5 4.1-1.2 1-0.7 1.6-2.1 1.4-3.3-0.2-1.5-1.2-2-4-2.3-3.6-0.3-3.7-0.2-3.7 3.3zm-107.4-0.5c-0.3 1.4-0.8 3.3-1.1 4.3-0.5 1.3 0 1.7 1.9 1.7 1.4 0 2.5-0.3 2.5-0.7 0.1-0.4-0.6-2.3-1.3-4.3-1.4-3.4-1.4-3.4-2-1zm-96.6 2.5c-1.1 3.5-1.1 3.5 1.9 3.5 2.9 0 3-0.1 2.2-3.5-0.5-1.9-1.4-3.5-1.9-3.5-0.6 0-1.5 1.6-2.2 3.5zm419.2 0c-1.3 3.5-1.3 3.5 1.7 3.5 2.9 0 3-0.1 1.8-2.7-0.6-1.5-1.4-3.1-1.7-3.5-0.3-0.4-1.1 0.8-1.8 2.7zm138.5-0.5c-1.4 3.5-1.4 3.5 1.1 3.8 1.5 0.2 2.7 0.2 2.9 0 0.1-0.1-0.4-1.8-1.2-3.8l-1.4-3.5z"/><path class="e" d="m712.3 352.5c0 3.9 0.2 5.2 0.4 3 0.2-2.2 0.2-5.4 0-7-0.2-1.6-0.4 0.1-0.4 4z"/></svg>