<svg version="1.2" xmlns="http://www.w3.org/2000/svg" viewBox="0 0 1024 1024" width="1024" height="1024"><style>.a{opacity:1;fill:#0f0f0a}.b{fill:#504022}</style><rect width="1024" height="1024" /><path fill-rule="evenodd" class="a" d="m0 0h1024v1024h-1024zm502.8 94.6c-0.2 0.1-5.5 0.3-11.8 0.5-6.3 0.2-12.9 0.6-14.5 1.1-1.6 0.4-5.9 0.9-9.5 1.2-3.6 0.3-8.4 1-10.8 1.6-2.3 0.5-4.6 0.8-5.2 0.5-0.6-0.3-1.2 0-1.5 0.5-0.3 0.6-1.5 0.9-2.8 0.9-1.2-0.1-4.7 0.7-7.7 1.8-4.2 1.5-6 1.7-7.5 0.9-1.5-0.8-1.8-0.8-1.3 0.2 0.5 0.8 0 1.4-1.5 1.6-1.2 0.3-2.8 0-3.5-0.7-1.1-1-1.3-0.9-0.8 0.3 0.4 0.8 0.1 1.5-0.6 1.6-0.7 0-6.9 1.9-13.8 4.2-6.9 2.3-14.4 4.8-16.8 5.7-2.3 0.8-4.8 1.2-5.4 0.8q-1.3-0.8-0.5 0.5 0.7 1.2-2.3 2.2c-1.6 0.6-3 0.7-3 0.3 0.1-0.5-0.6-0.2-1.5 0.5-0.8 0.6-2.1 0.9-2.7 0.5q-1.3-0.8-0.5 0.5c0.4 0.7-0.1 1.6-1.3 2.2-1.4 0.7-2.1 0.7-2.4-0.2-0.4-1-0.5-1-0.5 0-0.1 0.6-0.5 1.2-1.1 1.2-0.6 0-0.9-0.3-0.9-0.7 0.1-0.5 0.1-1.2 0-1.8 0-0.5-0.6-0.1-1.3 0.9-0.7 1-1.9 1.6-2.6 1.3-0.6-0.4-1-1.1-0.7-1.7 0.3-0.5 0.1-1-0.5-1-0.6 0-1 0.7-1 1.5 0 0.8 0.6 1.7 1.2 1.9 0.7 0.3 0.4 0.5-0.7 0.5-1.7 0.1-1.7 0.3-0.5 1.1 0.8 0.5 1.2 1.3 0.8 1.7-0.4 0.4-1.3 0.3-2-0.3-1-0.9-1.8-0.7-3.3 0.8-1.5 1.4-1.7 1.8-0.5 1.8 1.3 0 1.3 0.1 0 0.9-0.8 0.5-2.1 0.7-2.8 0.5-0.6-0.2-1.2 0-1.2 0.6 0 0.6-0.3 1-0.8 1-0.4 0-1.7-0.9-3-2-1.2-1.1-3-1.8-4-1.6-1.6 0.3-1.6 0.4 0 0.5 1.1 0.1 1.6 0.7 1.3 1.6q-0.5 1.5 1.7 1.8c2.3 0.3 2.3 0.4-0.2 1.4-1.4 0.6-3.2 1.8-4 2.7-0.8 0.9-1.9 1.7-2.5 1.7-0.6 0-1.6 0.7-2.2 1.7-1.1 1.5-1.4 1.5-2.2 0.2-0.7-1.2-1-1.1-1.5 0.8-0.4 1.6-1.1 2-2.4 1.5-1.2-0.5-1.5-0.4-1 0.5 0.5 0.7 0 1.5-1.5 2.1-1.2 0.5-3.7 2.3-5.5 4-1.7 1.7-3.2 2.9-3.2 2.6 0-0.3-0.6 0-1.3 0.5-0.6 0.6-3.7 2.9-6.7 5.2-3 2.4-5.7 4.5-6 4.8-0.3 0.3-2.3 1.8-4.5 3.5-2.2 1.6-4.3 3.5-4.8 4.2-0.4 0.8-1.6 1.1-3 0.7-1.3-0.3-1.7-0.2-0.9 0.3 0.9 0.6 0.4 1.6-1.8 3.8-1.6 1.7-3.3 2.6-3.7 2.2-0.5-0.4-0.1-1.2 0.7-1.7 1.3-0.8 1.3-1.1 0.1-2.2-1-1-1.2-1-0.7 0 0.3 0.6 0.2 1.2-0.4 1.2-0.6 0-0.7 1.2-0.4 2.8 0.6 2.4 0.4 2.6-1.2 1.9-1.1-0.5-1.6-0.5-1.1 0 0.4 0.4-1.3 2.7-3.8 5.1-2.5 2.3-4.2 4.4-3.8 4.7 0.5 0.3 0.1 0.6-0.7 0.6-0.8 0.1-2.2 0.1-3 0q-1.4 0-0.3 0.4c0.7 0.3 1.3 0.9 1.3 1.5 0 0.6-0.6 0.8-1.3 0.6-0.6-0.2-1.8 0.9-2.5 2.5-0.8 2-1.9 2.9-3.5 2.9-1.7 0-1.9 0.2-0.7 0.9 1.3 0.8 1.3 0.9 0 1.6-0.8 0.4-1.9 0.2-2.5-0.4-0.6-0.6-1.3-1.1-1.8-1.1-0.4 0-0.7 0.4-0.7 1 0 0.6 0.9 1.2 2 1.5 1.1 0.3 2 0.9 2 1.5 0 0.6-1 0.7-2.3 0.4-1.2-0.3-1.7-0.2-1 0.3 0.7 0.5-0.9 3.3-5.3 8.8-3.6 4.4-7 7.8-7.7 7.7-0.7-0.2-0.9 0-0.5 0.5 0.4 0.4 0.2 1.7-0.4 2.8l-1.1 2c-1.5-3.9-1.6-3.9-1.6-1.7-0.1 1.2-0.2 2.6-0.4 3-0.1 0.5-2.2 4-4.7 7.9-2.5 3.9-4.8 7-5.3 6.7-0.4-0.2-0.7 0.7-0.7 2.1 0 1.8-0.5 2.5-2 2.5-1.1 0-2.7 0.2-3.5 0.5-0.9 0.3-1.3 1.3-1 2.5 0.3 1.1 0.1 2-0.5 2-0.6 0-0.7 0.6-0.4 1.3 0.5 0.9 0.9 0.7 1.5-0.5 0.5-1 1.5-1.8 2.1-1.8 1 0 1 0.2 0.1 0.8-0.6 0.4-2.5 3.7-4.2 7.5-1.7 3.7-3.5 6.7-4.1 6.7-0.6 0-0.8 0.4-0.5 1 0.3 0.6-0.9 3.6-2.5 6.8-1.7 3.1-3.5 7.2-4 9-0.6 1.8-1.5 3-2.3 2.8-0.6-0.2-2 0.1-3 0.5-0.9 0.5-1.7 1.6-1.7 2.4 0 0.8-0.6 1.7-1.3 1.9-0.6 0.2-0.2 0.3 0.9 0.2q2.1-0.1 1.5-1.5c-0.4-0.9-0.1-1.1 1.1-0.7 1 0.3 1.8 0.9 1.8 1.4 0 0.4-0.7 1.6-1.5 2.7-0.9 1.1-1.5 1.4-1.5 0.8 0-0.7-0.4-1.3-1-1.3q-1 0 0 2c0.6 1.1 1 2.2 1 2.5 0 0.3-1.2 1.2-2.8 2-1.9 1-2.2 1.4-1 1.5 1 0 1.6 0.6 1.5 1.3-0.2 0.6-1.5 1.5-2.8 1.9q-2.4 0.6-0.7 0.7c1 0.1 1.8 0.5 1.8 1.1 0 0.6-0.3 0.8-0.8 0.6-0.4-0.2-0.7 1.4-0.7 3.6 0 2.8-0.6 4.3-2 5.3-1.6 1.1-1.7 1.4-0.5 1.8 1.2 0.3 1.2 0.7 0.3 1.8-0.6 0.8-1.5 3.1-2 5.3-0.4 2.1-1.1 4-1.6 4.2-0.4 0.2-0.7-0.2-0.7-0.8q0.1-1.3-1.7 0.4c-1 0.9-2.7 1.6-3.8 1.4-1.1-0.2-1.4-0.2-0.8 0 0.7 0.2 1.3 0.8 1.3 1.4 0 0.6 0.7 1 1.5 1 0.8 0 1.3-0.4 1-1-0.3-0.6 0.1-1 0.7-1 0.7 0 1.3 0.7 1.3 1.5 0 0.8-0.6 1.5-1.3 1.5-0.6 0-1.2 0.4-1.2 1 0 0.6 0.4 1 1 1 0.6 0 1 0.3 1 0.8 0 0.4-1.1 1.3-2.5 2-1.4 0.6-2.5 1.8-2.5 2.5-0.1 1 0.2 1 1.5 0 1.2-1.1 1.6-1 2 0.5 0.3 0.9 0.2 2.5-0.2 3.5-0.5 1-1.4 1.6-2.1 1.3-0.6-0.3-2-0.9-3-1.3-1.4-0.6-1.5-0.4-0.5 1 1.1 1.4 1 1.9-0.6 3-1.6 1-1.7 1.4-0.5 2.5 0.8 0.7 2.1 0.9 2.9 0.5 0.9-0.5 1.8-1.4 2-2 0.3-0.7 0.1-1.3-0.3-1.3-0.4 0-1.3 0.6-2 1.3-0.7 0.6-1.2 0.9-1.2 0.5 0-0.5 0.6-1.4 1.2-2.1 0.7-0.8 1.9-1.2 2.5-1 0.7 0.2 1.3 1.2 1.3 2.3 0 1.1-0.4 2-1 2-0.6 0-0.8 0.7-0.5 1.5 0.3 0.8 0.1 1.5-0.5 1.5q-1 0 0 2.5c0.9 2.3 0.8 2.5-1.8 2.5-2.3-0.1-2.4-0.2-1-1 1.3-0.7 1.5-1.4 0.8-2.5-0.7-1.1-0.6-1.6 0.7-2 1-0.3 1.5-0.7 1-1-0.4-0.3-2.1 0.2-3.7 1-1.7 0.8-3 1.7-3 2 0 0.3 0.4 0.3 1 0 0.6-0.3 1.8-0.1 2.7 0.4 1.6 0.8 1.6 0.9-0.5 1.5-1.2 0.3-2.6 1.5-3.2 2.6-0.7 1.4-0.7 2.1 0.2 2.4 0.7 0.2 2 0 2.8-0.5 1.3-0.7 1.2-0.9-0.3-0.9-0.9 0-1.5-0.4-1.2-1 0.3-0.6 1.3-0.7 2.7-0.1 1.4 0.5 2.2 1.6 2.1 2.7-0.2 1.1-0.5 3.7-0.7 5.9-0.3 2.2-0.5 4.6-0.5 5.3-0.1 0.6-0.8 1.2-1.6 1.2-0.8 0-1.5 0.4-1.5 1 0 0.6 0.7 0.8 1.5 0.5 0.8-0.3 1.5-0.3 1.5 0 0 0.3-0.8 1.7-1.7 3.3-1.7 2.6-1.7 2.7 0.1 1.2 1.8-1.4 1.9-1.3 1.3 1-0.4 1.4-0.7 2.9-0.6 3.5 0 0.6-0.8 0.3-1.8-0.4-1.6-1.4-1.7-1.3-0.3 0.2 0.9 1 1.4 3.1 1.2 5.2-0.1 2.5-0.6 3.3-1.5 2.8-1-0.5-1-0.3 0 1 1 1.4 1 1.8 0 2.1-1 0.4-1 0.5 0 0.5 0.7 0.1 1.1 0.5 0.8 1.1-0.3 0.6-0.1 1.9 0.5 3 0.6 1.1 0.7 2.2 0.2 2.4-0.4 0.3-0.6 1.6-0.5 3 0.2 1.5-0.2 2.7-1 2.7-0.6 0.1-1.5 0.1-2 0-0.4 0-0.5 0.3-0.2 0.9 0.3 0.6-0.1 1.2-0.8 1.4-0.6 0.2-0.9 0.6-0.5 1 0.5 0.3 1.4-0.1 2.2-0.9 0.8-0.8 1.8-1.5 2.3-1.5 0.4 0 0.8 0.9 0.8 2 0 1.6-0.7 2-3 2-2.4-0.1-2.8 0.2-1.8 1.2 0.7 0.7 1 1.6 0.6 2.1-0.3 0.4-1.8 0.7-3.2 0.7-1.4 0-2.4 0.2-2.1 0.4 0.3 0.3 2.3 0.7 4.5 1 3.1 0.4 3.7 0.2 2.8-0.7-0.6-0.7-1-1.8-0.7-2.4 0.2-0.7 1.1-1.3 1.9-1.3 1.1 0 1.4 1 1.2 4.3-0.1 2.6-0.8 4.5-1.7 4.9-1.2 0.5-1.2 0.7 0.2 0.7 1.5 0.1 1.8 1 1.7 5.9-0.1 3.1 0 5.9 0.1 6.2 0.1 0.3 0.3 1.6 0.5 3 0.2 1.4 0.5 4.1 0.7 6.2 0.2 2 0.6 4 1 4.5 0.5 0.4 0.2 1.4-0.5 2.1-0.9 1-0.9 1.3 0 1.2 0.7 0 1.7 1.8 2.3 4q1 4 0 4.5c-0.6 0.3-1.8 0-2.8-0.7-1.4-1-1.5-1-0.4 0.2 0.7 0.8 1.2 1.9 1.2 2.5 0.1 0.6-1 0.1-2.2-1-1.3-1.1-2-1.5-1.6-1 0.5 0.6-0.1 1.6-1.2 2.3-1.1 0.6-2 1.8-1.9 2.5 0 1 0.1 1 0.5 0 0.2-0.7 1.1-1.3 1.9-1.3 0.8 0 1.5-0.6 1.5-1.2-0.1-1 0.2-1 1.5 0 0.9 0.7 1.7 0.8 2 0.2 0.3-0.6 1.1-1 1.7-1 1-0.1 1 0.2 0 1.5-0.6 0.8-0.8 1.6-0.3 1.8 0.5 0.1 1.2 1.4 1.5 3 0.3 1.5 0.2 2.7-0.4 2.7-0.6 0-1-0.7-1-1.5 0-0.8-0.3-1.5-0.8-1.5-0.4 0-0.7 0.7-0.7 1.5 0 0.8 0.4 1.5 1 1.5 0.6-0.1 0.4 0.6-0.3 1.5-0.7 0.8-1.7 1.2-2.4 0.8q-1.3-0.8-0.5 0.5c0.4 0.6 1.4 1 2.2 0.7 0.8-0.3 1.5-0.9 1.5-1.5 0-0.6 0.7-1 1.5-1 1.1 0 1.4 1 1.2 3.9-0.1 2.4 0.2 3.6 0.8 3.2 0.6-0.3 0.7 0.1 0.2 1.2-0.4 0.9-0.3 1.9 0.3 2.2 0.6 0.3 1.3 2.6 1.6 5.3 0.4 2.6 1.7 7.8 2.9 11.7 1.3 3.9 2.8 9 3.5 11.5 0.7 2.5 1.3 5.2 1.5 6 0.1 0.8 0.7 2.4 1.2 3.5 0.6 1.1 0.8 2.7 0.5 3.5q-0.6 1.5 0.6 0.8c0.7-0.5 1.4-0.2 1.6 0.5 0.3 0.6-0.1 1.9-0.7 2.7-0.7 0.8-0.9 1.1-0.5 0.7 0.5-0.4 1.5 0 2.3 0.8 0.8 0.8 1.4 1.8 1.3 2.3-0.1 0.4 0.5 2.1 1.4 3.7 0.8 1.6 1.8 4.2 2.2 5.8 0.4 1.8 0.2 2.8-0.7 3.1-0.6 0.1-0.1 0.1 1.3-0.1 1.4-0.3 2.2-0.2 1.7 0.1-0.4 0.3 0.4 2.3 1.7 4.4 1.2 2 2.7 4.8 3.1 6.2 0.4 1.4 1.1 2.7 1.4 3 0.4 0.3 2.2 3.4 4 7 1.9 3.6 4.2 7.7 5.3 9.3 1.1 1.6 1.6 3.6 1.2 5-0.4 1.7-0.3 1.9 0.5 0.7 0.6-0.8 1.1-1 1.2-0.5 0.1 0.5 0.1 1.3 0 1.8 0 0.4 0.5 0.7 1.1 0.7 0.7 0 2.6 2.3 4.2 5.2 1.6 2.9 3.4 5.8 4 6.3 0.6 0.6 3.2 4.2 5.8 8 2.5 3.9 5.6 7.7 6.7 8.5 1.8 1.4 1.9 1.6 0.3 2.6-1.5 1-1.4 1.1 0.8 1 1.7-0.1 2.5 0.4 2.5 1.5 0 0.9 0.3 1.5 0.7 1.3 0.5-0.2 2.6 1.7 4.8 4.4 2.4 2.8 3.8 5.3 3.4 6.2-0.3 0.8-0.2 1.2 0.3 0.7 0.4-0.4 2 0.5 3.6 2 1.5 1.6 2.7 3.4 2.7 4.1 0 0.6 0.4 1 1 0.7 0.6-0.3 1.9 0.5 3 1.8 1.1 1.2 2.4 2.7 2.9 3.2 0.5 0.5 2.3 2.1 4.1 3.5 1.7 1.4 4.1 3.3 5.3 4.4 1.2 1 4.2 3.5 6.7 5.5 2.5 2 4.8 4.1 5.2 4.6 0.4 0.5 0.5 1.3 0.2 1.8-0.2 0.4 0.4 0.7 1.3 0.7 1 0 3.2 1.1 4.8 2.5 2.3 1.9 2.6 2.5 1.2 2.5-0.9 0-1.9-0.6-2.1-1.2-0.1-0.7-1.5-1.5-2.9-1.8-1.5-0.3-2.7-0.2-2.7 0.3 0 0.4 0.9 0.7 2 0.7 1.1 0 2.2 0.5 2.5 1 0.3 0.6-0.6 0.8-2.3 0.5-1.5-0.3-2.3-0.2-1.9 0.2 0.5 0.5 1.3 0.9 1.8 1.1 0.5 0.1 1.9 0.2 3.1 0.2 2.1-0.1 2.1 0.1 0.8 1.5-0.8 0.9-1.1 1.6-0.5 1.6 0.6 0.1-0.1 0.5-1.5 0.9-2.4 0.8-2.4 0.8-0.3 0.9 1.7 0.1 2.2 0.6 1.8 1.9-0.5 1.6-0.4 1.6 0.7 0 0.7-1 1.6-1.7 2-1.8 0.5 0 0.6 0.7 0.3 1.5-0.3 0.8-0.1 1.3 0.5 1 0.6-0.3 1.2 0.5 1.4 1.8l0.3 2.2c0.2-3.5 1.4-5.2 2.8-6 2.3-1.4 2.8-1.3 5.5 0.3 1.6 0.9 3 2.3 3 3 0 0.6-0.6 1.4-1.3 1.7-0.9 0.4-0.8 0.7 0.3 1.1 1.2 0.5 1.2 0.8-0.5 2-1.9 1.5-1.9 1.5 0.2 0.5 1.4-0.7 2.1-1.7 1.8-2.6-0.3-0.8-0.1-1.7 0.5-2 0.6-0.3 1.2 0.4 1.5 1.5 0.3 1.1 0.1 2.2-0.5 2.5-0.6 0.3-0.8 1-0.5 1.5 0.3 0.5 1.2 1 2 1 0.9 0 1.2-0.5 0.8-1.2-0.4-0.7-0.9-2.1-1-3q-0.3-1.8 0.9-1.1c0.7 0.4 3.3 2.1 5.8 3.7 3.2 2.2 4 3.2 2.7 3.3-0.9 0.2-1.7 0.4-1.7 0.6 0 0.1 0.6 1.6 1.5 3.2 0.9 1.9 1.5 2.4 1.5 1.3 0-1-0.4-2-1-2.3-0.6-0.3-0.2-1.1 0.7-1.9 1-0.8 2.2-1.2 2.8-1 0.6 0.2 1.3 1.3 1.7 2.4 0.5 1.1 1.1 1.9 1.5 1.8 0.5-0.1 2 0.3 3.6 0.8 1.5 0.5 3 1.5 3.2 2.2 0.3 0.6 0.1 1.4-0.5 1.7-0.6 0.3-1 1.3-1 2.3-0.1 1.4 0.2 1.3 1.7-0.6 1.6-2.2 2-2.2 4.5-1 1.5 0.7 2.5 1.8 2.1 2.3-0.3 0.6-0.9 0.4-1.4-0.5-0.8-1.3-1-1.3-1.8 0-0.7 1-0.5 2.1 0.5 3.3 0.8 1 1 1.9 0.4 2.2-0.6 0.3-1.9 0.3-3 0-1.1-0.3-2 0-2 0.5 0 0.5 1.2 1.2 2.7 1.4 1.6 0.3 3-0.1 3.3-0.7 0.2-0.7 1.1-1.8 1.8-2.4 1.1-1.1 1-1.3-0.7-1.3-1.2 0-2.3-0.3-2.5-0.7-0.2-0.5 1.2-0.9 3.2-1 2.1 0 4.5 0.3 5.4 0.8 1 0.5 1.6 1.6 1.3 2.4-0.4 1.1-0.1 1.3 1.2 0.8 1.2-0.6 1.5-0.4 1.2 0.7-0.3 0.8-1.5 1.6-2.7 1.8-1.2 0.1-2.2 0.7-2.2 1.2 0 0.6 1.4 0.8 3.2 0.4 1.8-0.3 3.5-0.1 3.8 0.3 0.3 0.5 1.9 0.6 3.5 0.2 1.6-0.4 2.2-0.7 1.2-0.8-0.9 0-1.7-0.6-1.7-1.1 0-0.5 0.2-1 0.5-1 0.3 0 3 1.1 6 2.5 3.9 1.8 5.4 2.9 5 4-0.3 0.8-0.9 1.3-1.5 1-0.6-0.3-1 0.3-1 1.3-0.1 1.5 0.1 1.5 1.7 0.2 1-0.8 2-1.8 2.3-2.2 0.3-0.4 1.6-0.4 3-0.1l2.5 0.6-5 2.8c3.9-1 6.7-1 8.7-0.7 2.9 0.5 3.8 1.1 3.8 2.6 0 1.1 0.6 1.9 1.2 1.8 0.7-0.2 1.5-0.7 1.8-1.2 0.3-0.4 3.6 0.2 7.5 1.4 3.9 1.2 7.7 2.3 8.5 2.5 0.8 0.2 6.2 1.3 12 2.5 5.8 1.2 10.8 2.4 11.2 2.6 0.5 0.2 0.5 1 0.1 1.7-0.5 0.9-0.4 0.9 0.8 0 1.1-1 2.7-1 6.9-0.2 3 0.5 8.9 1.2 13 1.4 4.1 0.3 8.9 0.9 10.5 1.5 1.6 0.6 6.5 0.9 10.7 0.8 4.3-0.2 7.8-0.6 7.8-1 0-0.5 1-0.8 2.2-0.8 1.9 0 2-0.2 0.8-1.1-1.2-0.8-1-0.9 1-0.5 2.2 0.6 2.3 0.5 1-0.9-1.3-1.4-1.3-1.6 0-1.5 0.8 0 1.2-0.3 0.8-0.7-0.4-0.4 0-1.4 1-2.1 0.9-0.8 1.3-1.1 0.7-0.9-0.6 0.3-0.9-2.8-0.7-8.6 0.2-5.1 0.9-9.8 1.5-10.6 0.7-0.8 0.8-1.2 0.2-0.9-0.6 0.4-1.1-2.6-1.2-8q-0.2-8.7 1-9.4c0.9-0.6 0.9-0.8-0.1-0.8-0.7 0-1.2-1.5-1.2-4.2 0-2.4 0.5-4.9 1.2-5.7 1-1.1 1-1.3 0-0.7-0.9 0.4-1.2-0.6-1.2-3.9 0-3 0.4-4.5 1.2-4.5 1 0.1 1-0.2 0.1-1.2-0.8-0.9-1.2-9-1.2-28-0.1-20.8 0.2-26.8 1.1-26.8 1 0.1 1-0.2 0-1.2-0.6-0.7-1.1-2.9-0.9-4.8 0.2-1.9 0.6-4.1 1-4.7 0.4-0.7 0.3-1.3-0.3-1.3-0.6 0-0.9-6.7-0.8-18.7 0.2-10.4 0.6-19.3 1-19.8 0.4-0.5 0.3-1.7-0.3-2.5-0.5-0.8-0.9-2.5-0.9-3.7 0-1.3 0.4-2.3 1-2.3 0.6 0 0.7-0.7 0.2-1.7-0.5-1-0.8-32.4-0.8-69.8l0.1-68c-16.7 0.4-22.4 0.1-23.5-0.5q-2-1-1.5 0c0.3 0.7-7.3 0.9-22.3 0.6-12.5-0.3-29.7-0.7-38.2-1-8.5-0.2-17.8-0.8-20.5-1.1-2.8-0.4-5.4-1.1-6-1.6-0.6-0.5-1.4-0.9-2-0.9-0.6 0-0.3 0.5 0.5 1.1 1.3 0.9 1.2 1-0.3 0.5-0.9-0.3-2.3-0.6-3-0.7-0.6 0 0.6-0.7 2.8-1.5 2.2-0.8 8.2-1.5 13.5-1.5 5.2-0.1 10.5-0.6 11.7-1 1.6-0.6 2.3-0.5 2.3 0.3 0 0.7-0.4 1.7-0.9 2.3q-1 1 1.7 1.3c2.2 0.2 2.5 0 1.4-1-0.7-0.7-1.2-1.9-1.2-2.6 0-0.9 4.1-1.2 17-1.2 9.4 0 17.4-0.2 18-0.5 0.6-0.3 1.2-0.1 1.5 0.5 0.3 0.6 1.1 0.7 1.7 0.3 0.7-0.4 11.3-0.6 23.5-0.5 12.3 0.1 22.7 0.4 23.3 0.7 0.6 0.3 0.9-1.1 0.7-3.5-0.1-2.2 0.1-4 0.5-4 0.5 0 0.6-0.4 0.3-1-0.3-0.6-0.8-4-1.1-7.8-0.3-3.7-1-7.7-1.5-9-0.5-1.2-0.8-2.5-0.7-3 0.1-0.4-0.6-2.2-1.5-4-0.9-1.7-1.7-3.4-1.7-3.7 0-0.3 0.6-0.2 1.2 0.2q1.3 0.8 0.5-0.5c-0.4-0.6-1.1-1-1.7-0.7-0.6 0.3-1.5-0.5-2.2-1.8-0.7-1.2-1.1-2.8-1-3.5 0.1-0.6-0.1-1-0.6-0.7-0.4 0.2-2.6-1.6-5-4-2.3-2.5-4.2-4.7-4.2-5 0-0.3-2.5-2.9-5.5-5.8-3.1-2.8-5.5-5.8-5.5-6.5 0-0.6-0.4-1.3-0.8-1.5-0.4-0.1-1.9-1.8-3.2-3.7-1.4-1.9-3.5-5.5-4.7-8-1.3-2.5-2.4-5.9-2.5-7.5-0.2-1.6-0.9-3.6-1.6-4.3-0.6-0.6-1.3-2.2-1.3-3.5-0.1-1.2-0.4-6.4-0.5-11.5-0.4-8.2-0.2-9.2 1.3-9.2 1.4 0 1.5-0.2 0.4-0.8-0.9-0.5-1.1-1.7-0.7-3.7 0.3-1.6 0.8-3.9 1-5 0.2-1.1 1.1-4 2-6.5 1-2.5 3.5-7.9 5.8-12 2.2-4.1 7.8-12.4 12.3-18.5 4.5-6.1 9.3-12.8 10.5-15 1.3-2.2 4-7.4 6.1-11.5 2.1-4.1 4.5-10.2 5.4-13.5 0.9-3.3 1.9-9.6 2.2-14 0.5-7.2 0.2-9-2.6-17.5-1.7-5.2-3.7-10.4-4.3-11.5-0.6-1.1-1.3-5.8-1.6-10.5-0.3-6.2 0.1-9.7 1.2-12.8 0.9-2.3 2-4.2 2.6-4.2 0.6 0 0.9-0.4 0.7-1-0.1-0.5 0.6-2 1.6-3.2 0.9-1.3 2.6-3.4 3.6-4.8 1.1-1.4 2.2-2.2 2.5-1.8 0.3 0.5-0.2 2-1.3 3.5-1 1.6-1.8 3.8-1.7 4.9 0.1 1.2-0.2 2-0.7 1.8-0.4-0.2-0.7 0-0.7 0.6 0 0.6 0.4 1.2 1 1.5 0.6 0.3 0.7 1.1 0.1 2.2-0.6 1.1-0.6 2.4-0.1 3.3 0.5 0.8 0.7 1.8 0.4 2.2-0.2 0.5 0.3 2.6 1.1 4.8 0.8 2.2 1.3 4.4 1 5-0.3 0.6-0.2 1.1 0.2 1.2 0.5 0.2 1.9 2.5 3.3 5.2 1.4 2.8 4.1 7.5 6.1 10.5 2 3.1 4.5 7.6 5.7 10.1 1.1 2.5 2.8 7.2 3.7 10.5 1.2 3.8 1.8 9.1 1.8 14.5-0.1 6.2-0.8 10.5-2.6 16-1.3 4.1-4.1 10.7-6.2 14.5-2.1 3.8-5.8 9.9-8.3 13.5-2.5 3.6-6.4 8.8-8.6 11.5-2.2 2.7-4.3 5.2-4.7 5.5-0.3 0.3-3 4.3-6 8.9-3 4.6-5.5 8.7-5.7 9.2-0.1 0.5-0.2 1.3-0.2 1.9 0 0.6-0.6 0.7-1.2 0.3q-1.3-0.8-0.5 0.5c0.4 0.6-0.2 3.9-1.3 7.2-1.1 3.3-2.1 8.6-2.1 11.8-0.1 3.1 0.6 8.6 1.6 12.2 0.9 3.6 2.5 8.1 3.6 10 1 1.9 1.6 3.8 1.2 4.3-0.3 0.4-0.2 0.7 0.3 0.7 0.5 0 2.2 2.3 3.8 5.2 1.6 2.9 4.8 8 7 11.3 2.2 3.3 4.7 6.8 5.6 7.8 0.8 1 2.3 2.8 3.3 4 1 1.2 1.7 2.6 1.7 3.2-0.1 0.6 0.7 0.3 1.6-0.5 0.9-0.8 3.2-4.5 5-8.3 2.5-4.9 3.5-8.4 3.8-12.9 0.2-4.2-0.2-7.3-1.2-9.3-0.8-1.6-2.2-3.8-3.1-4.8-0.9-0.9-1.3-1.9-0.9-2.2 0.5-0.3-0.1-1.5-1.2-2.7-1.2-1.3-3-5.1-4-8.5-1.3-3.9-2-8.9-1.9-13 0.1-3.8 0.8-8.6 1.6-10.8 0.8-2.2 2.4-5.9 3.4-8.2 1-2.4 3.5-6.7 5.6-9.5 2-2.9 5.7-7.8 8.3-10.8 2.6-3 6.3-8 8.3-11 1.9-3 4.5-8 5.7-11 1.3-3 2.4-6.4 2.6-7.5 0.1-1.1 0.3-3.2 0.3-4.7 0.1-1.6 0.4-2.8 0.8-2.8 0.5 0 0.9 0.6 1 1.3 0.1 0.6 0.7 4.6 1.3 8.7 0.7 4.1 0.9 9.8 0.6 12.5-0.2 2.8-1 6.8-1.6 9-0.6 2.2-2.5 6.9-4.2 10.5-1.7 3.6-3.4 6.7-3.7 7-0.4 0.3-1.7 3.6-2.9 7.5-1.2 3.9-2.2 9.4-2.2 12.5 0 3 0.5 7.5 1.1 10 0.6 2.5 2 6.4 3.2 8.8 1.2 2.3 2.7 4.2 3.2 4.2 0.5-0.1 1.8-1.1 2.8-2.3 1-1.2 1.7-2.5 1.7-2.9 0-0.5 0.9-2.7 1.9-5 1.1-2.4 2.5-8.9 3.3-14.5 0.7-5.6 1.6-9.9 1.9-9.5 0.4 0.4 1.7 5.2 2.8 10.7 1.3 5.6 2.1 12.6 2 16-0.2 3.3-0.7 7.8-1.2 10-0.5 2.2-1.6 5.6-2.4 7.5-0.8 1.9-2.9 5.9-4.7 8.8-1.8 3.1-3.6 5-4.4 4.7-0.7-0.3-1 0.1-0.7 1 0.3 0.9-2.8 5-8.3 10.8-4.8 5-10.3 11.2-12 13.7-1.8 2.5-4.1 7.4-5.2 11-1 3.6-1.9 9.6-2 13.5-0.1 3.9-0.1 8.2-0.1 9.8l0.1 2.7c23.6 0.1 35.5 0.1 41.5 0.1 7.6 0 11.2 0.3 11.7 1.2 0.6 0.9 0.8 0.9 0.8 0 0-0.7 0.9-1.3 2-1.3 1.3 0 1.8 0.4 1.3 1.3-0.5 0.9-0.4 0.9 0.8 0 0.8-0.6 2.3-1.2 3.4-1.2 1.1 0 4.5 0 7.5 0 3-0.1 8 0 11 0.2 4.2 0.2 5.4 0.6 5.2 1.7-0.2 1.2 0 1.2 1-0.1q1.3-1.6 4.3-1.2c2.6 0.4 2.9 0.8 2.6 3.1-0.4 1.9-0.1 2.5 0.7 2 0.7-0.5 1-1.1 0.8-1.5-0.3-0.5-0.1-1.5 0.5-2.3 0.7-1.3 0.9-1.2 0.9 0.3 0 0.9 0.5 2 1.2 2.5 0.8 0.5 1 0.1 0.5-1.5-0.6-2-0.4-2.2 1.6-1.8 1.2 0.3 2.5 1.1 2.9 1.8q0.6 1.2 1.1-0.8c0.4-1.9 0.4-1.9 1.3-0.2 0.6 1.3 0.5 2.2-0.6 2.9-1.2 0.8-1.2 0.9 0.3 0.4 0.9-0.3 1.7-0.2 1.7 0.4 0 0.6-0.9 1-2 1-1.1 0-2.2-0.4-2.5-1-0.3-0.6-1-1-1.5-1-0.5 0-0.8 0.4-0.5 1 0.3 0.6-1.3 1.1-3.7 1.2-2.4 0.1-5.2 0.2-6.3 0.3-1.1 0.1-3.1-0.5-4.5-1.3-2.3-1.5-2.4-1.4-1 0.2 1.4 1.6 1.2 1.7-2.5 1.7-2.2 0-8 0.2-13 0.5-7.8 0.4-9.2 0.3-10.8-1.3-1.7-1.7-1.8-1.7-1.3 0 0.6 1.6-1.2 1.7-27.1 1.7-21.3 0-28 0.3-28.5 1.2-0.4 0.7-0.7 3.6-0.7 6.3 0 2.8 0 22.3-0.1 43.5-0.2 27.1-0.6 38.9-1.4 39.9-0.8 1.2-0.8 1.3 0.2 0.8 0.9-0.5 1.2 1 1.1 6.6-0.1 4-0.7 7.5-1.3 7.9-0.6 0.4-0.7 0.8-0.1 0.8 0.7 0 1.1 23.1 1.2 66.7 0.2 51.5-0.1 67-1 67.5-0.9 0.6-0.9 0.8 0.1 0.8 0.6 0 1.2 0.5 1.2 1 0 0.5-0.7 0.8-1.5 0.5-0.8-0.3-1.5 0-1.5 0.5 0 0.5 0.8 1.2 1.8 1.6 1.5 0.4 1.5 0.6 0.2 1.4-0.8 0.5-1 1-0.5 1 0.5 0 1 2.4 1 5.4 0 3.3-0.4 5.2-1 4.9-0.5-0.3-0.4 0 0.3 0.8 0.7 0.8 1.2 4.1 1.2 8.1 0 6.2-0.2 6.8-2.2 7.3-1.3 0.2-2.8 0-3.3-0.6q-1-0.9 1.3-0.9c1.2 0 2.4-0.7 2.7-1.5 0.4-1.3 0.2-1.3-2.5 0-2.2 1.1-3.6 1.2-5 0.5-1.1-0.5-2-0.8-2-0.5 0 0.3 1.6 1.4 3.5 2.5 1.9 1.1 4.4 1.8 5.5 1.5 1.6-0.4 2 0 2 2 0 1.7-0.9 3-2.7 4-1.6 0.8-2.5 1.4-2 1.5 0.4 0 1.6-0.5 2.7-1 1.9-1 2-0.7 1.8 8-0.2 5-0.6 9-1 9-0.5 0-0.7-0.5-0.5-1.2 0.1-0.6-0.7-1.3-1.8-1.6-1.1-0.2-2.5 0.2-3 0.8-0.7 0.9-0.4 1 1.5 0.4 1.8-0.6 2.3-0.4 1.8 0.4-0.5 0.7-0.3 1.2 0.4 1.2 0.9 0 0.9 0.3 0 1.2-0.9 1-1.4 1-2.7 0-1.2-1-2-0.8-4.2 1.3-1.6 1.4-2.5 2.7-2 3 0.4 0.3 1.6 0 2.7-0.5 1.5-0.7 2.4-0.6 3.5 0.5 0.8 0.8 2.1 1.5 2.8 1.5q1.2 0-0.3-0.9c-1.3-0.7-1.2-1 0.5-2 1.1-0.6 1.4-1.1 0.8-1.1-0.7 0-1.1-0.5-0.8-1 0.3-0.5 1-1 1.5-1 0.6 0 0.9 2.5 0.8 5.9-0.2 3.2 0 5.7 0.5 5.5 0.4-0.2 0.7 0.2 0.7 0.8 0 0.7 1.4 2.7 3.2 4.5 3.3 3.1 3.4 3.2 14.5 3.5 6.1 0.2 10.9 0 10.7-0.5-0.2-0.4 1.9-0.8 4.7-1q5.2-0.2 5.5 1c0.2 0.7 1 1 1.7 0.7 0.9-0.5 0.8-0.9-0.3-1.5-1.3-0.8-1.3-0.9 0-1 0.8 0 2.7-0.1 4.3-0.2q2.7-0.2 2.2 1c-0.3 0.9 0.2 1.1 1.8 0.8 1.6-0.4 2.2-0.1 2.2 1.2 0 1-0.5 2.4-1.2 3-0.6 0.7-1.4 1.3-1.7 1.3-0.3 0-0.3-0.6 0.2-1.2q0.7-1.3-0.5-0.5c-0.8 0.4-1.4 0.2-1.6-0.6-0.2-0.7-0.7-0.3-1.1 0.8-0.4 1.1-0.4 1.7 0.1 1.2 0.4-0.4 1.6 0.1 2.5 1 1.7 1.7 1.8 1.7 2.4-0.2 0.6-1.7 0.8-1.8 1.6-0.5 0.7 1.1 0.9 0.6 0.6-1.7-0.2-1.8 0-3.3 0.5-3.3 0.4 0 1.1-0.1 1.6-0.3 0.5-0.1 1.3-0.6 1.8-1.1 0.4-0.5 0.3-0.6-0.4-0.3-0.7 0.4-1.3 0.1-1.3-0.6q0-1.2-1 0.3-1 1.5-1 0.2c0-0.8-0.8-1-2.2-0.6-1.3 0.4-2.1 0.4-1.8 0 0.3-0.3 2.2-1.1 4.3-1.6q3.7-1 3.2 0c-0.3 0.5 0 1 0.5 1 0.5 0 1-0.5 1-1 0-0.5 0.9-1 2-1 1.2 0 1.8 0.5 1.4 1.2-0.3 0.7 0.2 0.4 1.1-0.7 1.2-1.5 2.8-2 6.8-2 2.9 0 5.7-0.5 6.2-1.2 0.5-0.6 2.6-1.6 4.5-2.1 3.4-0.9 3.5-0.8 3.8 1.9 0.1 1.6-0.1 2.7-0.5 2.5-0.5-0.2-0.8 0.6-0.8 1.9 0 1.3 0.3 2.1 0.8 1.9 0.4-0.2 0.5-0.9 0.2-1.4-0.3-0.5 0.5-1.4 1.8-1.9 1.2-0.5 2.5-0.7 3-0.5 0.4 0.2 0.7-0.1 0.7-0.6 0-0.5-0.9-0.8-2-0.5-1.7 0.4-2 0.1-1.7-2.4 0.2-2.4 0.5-2.7 1.6-1.8 1.2 0.9 1.3 0.9 0.8-0.1-0.5-0.8 0.3-1.5 2.1-2.1 1.5-0.5 3.6-1.2 4.7-1.5 1.1-0.3 2.3-0.6 2.8-0.6 0.4 0 2.8-0.9 5.5-2 2.6-1.2 5.3-1.8 6-1.5 0.6 0.3 1.2 0 1.2-0.5 0-0.5 1.9-1.7 4.3-2.6 2.6-1 4.8-1.3 5.7-0.8 1.1 0.7 1.3 0.5 0.7-0.4-0.5-0.8 1-2 4.6-3.8 3.2-1.6 6-2.4 7.5-2 1.7 0.5 2.1 0.2 1.7-0.9-0.3-0.9 0.2-1.6 1.3-1.7 0.9 0 2.3 0 3 0 0.6 0.1 1.1-0.3 1-1-0.2-0.7 1.4-1.7 3.5-2.3 2-0.5 3.7-1.6 3.7-2.3 0-0.6 0.8-1.4 1.8-1.7 0.9-0.3 2.1-0.4 2.7-0.2 0.5 0.1 0.9 0.5 0.7 0.9-0.1 0.5 0.3 0.6 0.8 0.3 0.5-0.3 0.7-1.1 0.4-1.8-0.3-0.6 0.2-1.8 1-2.5 0.9-0.6 2.3-1 3.1-0.7 1 0.3 1.5-0.1 1.5-1.3 0-1.5 0.1-1.5 1.8 0.3 1.1 1.1 1.8 2.3 1.6 2.7-0.2 0.5-0.9 0.6-1.4 0.3-0.5-0.3-1 0-1 0.5 0 0.5 0.3 1 0.8 1 0.4 0 1.4-0.4 2.2-1 1.3-0.8 1.3-1.1-0.2-2.9-1.7-2-1.7-2.1 0-3 0.9-0.4 2.4-1.5 3.2-2.2 0.9-0.8 3-2.4 4.8-3.7 1.7-1.2 3.5-2.2 4-2.2 0.4-0.1 0 0.7-0.8 1.7-1.4 1.6-1.4 1.7 0.3 0.5 0.9-0.6 1.5-1.5 1.2-2-0.3-0.4 1.4-2.3 3.6-4.2 2.3-1.9 5.7-4.9 7.7-6.5 1.9-1.6 4.7-3.1 6.1-3.2 1.4-0.2 3.5-0.3 4.6-0.3 1.6-0.1 1.7-0.2 0.5-1-0.9-0.5-2.2-0.5-3.2 0.1-1 0.5-2 0.8-2.3 0.6-0.3-0.1 1.2-1.4 3.2-2.8 2.1-1.5 6.1-4.8 8.8-7.3 3.7-3.5 5.2-4.4 5.8-3.4q0.9 1.3 0.3-0.5c-0.4-1.2 0.8-3.1 4.2-6.2 4.4-4.3 4.8-4.5 6.1-2.8 1.2 1.7 1.3 1.6 0.7-0.5-0.4-1.5 0.1-2.8 1.7-4.2 1.2-1 1.9-1.9 1.5-2-0.5 0 1-1.9 3.2-4.3 2.2-2.3 4-4.7 3.9-5.2 0-0.5 0.7-0.3 1.6 0.5 1.5 1.4 1.6 1.3 0.8-0.3-0.6-1.4-0.1-2.4 1.7-4.1 1.4-1.3 4-3.9 5.8-6 1.7-2 3.2-3.9 3.2-4.4 0.1-0.4 1.2-1.7 2.5-3 1.4-1.2 2.2-2.4 1.8-2.7-0.5-0.3 0-0.5 1-0.5 0.9 0 1.7 0.6 1.7 1.2 0 0.7 0.7 1.3 1.5 1.3 0.8 0 1.5-0.2 1.5-0.5 0-0.3-0.9-1.1-2-1.8-1.1-0.6-2-1.5-2-2 0-0.4 1.8-2.6 4-5 2.2-2.3 4-4.7 4-5.2 0-0.5 0.7-1 1.5-1 0.8 0 1.4-0.8 1.3-1.8-0.1-0.9 0.9-3.2 2.2-5 1.4-1.8 2.6-2.9 2.8-2.3 0.1 0.6-0.6 1.8-1.5 2.6-1.7 1.3-1.6 1.3 0.6 0.7 1.9-0.6 2.2-1.2 1.7-3.5-0.5-2.1 0-3.3 2.2-5.4 1.5-1.4 2.1-2.3 1.5-2q-1.3 0.7-0.8-0.8c0.3-0.8 1-1.3 1.5-1 0.5 0.3 0.8-0.2 0.5-1-0.3-0.9 0.1-1.5 1-1.5 0.8 0 1.7 0.6 1.9 1.2 0.4 1 0.5 1 0.5 0 0.1-0.6-0.6-1.4-1.4-1.7-1.3-0.4-1.3-0.9-0.3-3.3 0.7-1.5 1.6-2.9 2.1-3.2 0.5-0.3 0.9-0.9 1-1.5 0.1-0.5 0.5-0.9 1-0.7 0.4 0.1 0.5-0.3 0.2-0.8-0.3-0.5 0.3-2.6 1.3-4.5q1.7-3.5 2.4-2.2c0.5 0.8 0.8 0.7 0.8-0.6 0-1.2 0.8-1.7 2.8-1.8 1.5-0.1 3-0.1 3.5 0 0.4 0 0.7-0.4 0.7-0.9 0-0.6-1.2-0.7-2.7-0.4-1.6 0.3-3.4 0.8-4 1-0.7 0.2-1.1-0.2-0.9-0.9 0.2-0.6 0.9-1.1 1.5-1 0.6 0.2 1 0 1-0.5-0.1-0.4 0-1.6 0.1-2.7 0.1-1.1 0.3-1.4 0.6-0.8 0.2 0.7 0.9 1.3 1.4 1.3 0.5 0 0.9-0.6 0.8-1.3-0.2-0.6-1-1.5-1.8-2-0.9-0.4-0.4-0.5 1.3-0.2 2.2 0.4 2.8 0.1 3.3-1.8 0.3-1.2 0.1-2.7-0.5-3.2-0.8-0.7-0.9-0.3-0.6 1.3 0.3 1.2 0 2.2-0.5 2.2-0.5 0-0.9-1.2-0.7-2.8 0.2-1.5 1.6-6 3.3-10 2.2-5.4 3.3-7.1 4.4-6.6 1.2 0.5 1.3 0.3 0.3-1-0.9-1-1-2-0.4-2.9 0.6-0.6 1.3-3.2 1.8-5.6 0.6-3.1 1.5-4.8 3.3-5.8 2.3-1.3 2.3-1.4 0.3-0.9-1.3 0.3-2.3 0.5-2.3 0.3 0-0.1 0.8-2.5 1.8-5.2 1.1-2.9 2.2-4.5 2.5-3.8 0.4 0.7 1.3 1.3 2 1.3 0.6 0 0.2-0.8-1.1-1.8-2-1.5-2.2-2.1-1.2-4.5 0.5-1.5 1.3-4.2 1.6-6 0.3-1.7 0.8-4.2 1-5.5 0.2-1.2 0.6-3.2 0.8-4.5 0.2-1.2 0.9-4.9 1.6-8.2 0.7-3.3 1.4-7.4 1.5-9 0.2-1.6 0.4-3.6 0.4-4.3 0.1-0.6 0.6-1 1.1-0.7 0.5 0.3 1 0.1 1-0.5 0-0.6-0.5-1-1-1-0.5 0-0.8-0.8-0.6-1.8 0.3-0.9 0.8-5.1 1.2-9.2 0.5-4.1 0.8-13 0.9-19.8 0-7.4 0.4-12.2 1-12.2q1 0 0-0.8c-0.5-0.4-1-1.9-1-3.4 0-1.6 0.3-2.8 0.8-2.8 0.4 0 0.8 0.5 1 1.1 0.1 0.6 1 0.1 2-1 1.3-1.6 1.4-2.3 0.5-2.8q-1.3-0.8-0.5 0.5c0.4 0.6 0.2 1.4-0.3 1.7-0.5 0.3-1 0.1-1-0.5 0-0.6-0.6-0.9-1.2-0.8-0.9 0.2-1.3-1.2-1.3-4.5 0-2.6-0.5-4.7-1-4.7-0.5 0-0.3-0.4 0.5-0.9 1-0.6 1.2-1.3 0.5-2.2-0.5-0.8-1-2.1-1.2-2.9-0.1-0.8-0.5-3.9-0.8-6.8-0.3-2.8-0.7-5.5-0.9-6-0.3-0.4-0.8-4.3-1.1-8.7-0.4-4.4-0.8-8.9-0.9-10-0.1-1.1-0.6-3.1-1-4.5-0.5-1.7-0.4-2.7 0.6-3.2 0.9-0.6 1-0.8 0.1-0.8-0.7 0-1.1-0.4-0.8-1 0.3-0.6 0.2-1-0.2-1-0.5 0-1.3-1.6-2-3.7-0.7-2.1-1.4-5.3-1.7-7.1-0.4-2-0.2-3 0.4-2.7 0.5 0.3 1.9-0.1 2.9-0.8 1.1-0.7 1.6-1.8 1.3-2.6-0.5-1-0.2-1.1 1.3-0.6 1.6 0.5 1.7 0.5 0.5-0.3-1-0.7-2.1-0.7-3.5 0-1.1 0.6-2.2 1.3-2.5 1.6-0.3 0.3 0.3 0.2 1.3-0.1q1.7-0.7 1.4 0.5c-0.2 0.7-0.8 1.4-1.3 1.5-0.5 0.2-1.5-0.1-2.2-0.5-0.7-0.4-1.6-2.3-2.1-4.2-0.6-1.9-1.3-4.6-1.7-6l-0.7-2.5c3.4 3.9 4.3 4.6 4.3 4 0-0.6-1.1-2.1-2.4-3.5-1.3-1.4-3.3-5.1-4.5-8.3-1.3-3.6-1.8-6.1-1.2-7 0.6-0.8 0.4-1.9-0.5-3.2-0.8-1.1-1.4-1.6-1.4-1-0.1 0.6-0.5 0.2-1-0.8-0.6-0.9-0.8-2.1-0.5-2.7 0.3-0.6 0.2-1.2-0.2-1.4-0.5-0.2-1.8-2.2-3-4.5-1.3-2.2-2-4.4-1.5-4.7 0.4-0.3-0.2-1.2-1.3-2-1.1-0.7-1.7-1.7-1.3-2.1 0.4-0.5-0.1-2-1.2-3.6-1.1-1.5-1.7-2.7-1.2-2.7 0.4 0-0.1-0.5-1-1-1-0.6-1.8-1.4-1.8-2 0-0.6 0.8-0.7 1.8-0.3 1.2 0.5 1.5 0.4 1-0.5-0.5-0.6-1.4-1.2-2-1.2-0.7 0-1.9-1.2-2.5-2.8-1-2.1-1-2.9 0-3.5 0.7-0.5 0.4-0.6-0.8-0.2-1.4 0.4-2.2 0-2.7-1.2-0.4-1-1.5-3.4-2.4-5.3-1.4-3.2-1.4-3.4 0-2.8 0.9 0.5 1.6 0.4 1.6-0.2 0-0.6-0.9-1-2-1-1.1 0-2.3-0.8-2.7-1.8-0.4-0.9-1.7-2.8-3-4.2-1.3-1.4-2.3-2.8-2.3-3.3 0-0.4 0.6-0.4 1.3-0.1 0.6 0.4 0-0.4-1.5-1.7-1.5-1.3-2.7-3-2.8-3.7 0-0.6-0.5-1.2-1-1.2-0.5 0-1.2-0.8-1.5-1.8-0.3-0.9 0-2 0.7-2.4 0.8-0.4 1-1.3 0.5-2.5-0.7-1.7-0.8-1.7-2.3 0.2-1.5 1.9-1.5 1.9-0.8-0.5 0.6-1.8 0.4-2.3-0.4-1.8-0.7 0.5-2 0-3-1-0.9-0.9-2.5-2.9-3.5-4.5-0.9-1.5-1.5-3.4-1.2-4.2 0.3-0.9-0.1-1.5-1-1.5-0.8 0-1.5-0.6-1.5-1.3 0-0.6-0.3-0.9-0.7-0.5-0.5 0.5-1.4 0.3-2-0.2-0.7-0.6-1.1-1.9-0.8-3 0.3-1.1 0-2-0.5-2-0.5 0-0.8 0.4-0.5 1 0.3 0.6 0 1-0.5 1-0.5 0-2.5-1.6-4.2-3.6-1.8-2-3.3-3.9-3.3-4.4 0-0.4-1.5-1.9-3.2-3.4-2-1.5-3-3.1-2.6-3.9 0.3-0.6 0.3-0.9 0-0.5-0.4 0.5-1.8-0.2-3.1-1.5-1.3-1.2-5.7-5.4-9.8-9.2-4.1-3.8-9.5-8.6-12.1-10.5-2.5-1.9-4.8-4.3-5.1-5.3-0.4-1-1.2-1.5-2.1-1.2q-1.5 0.5-1.5-1.5c0-1.2-0.5-1.8-1.2-1.5-0.7 0.3-2.3-0.4-3.5-1.5-1.3-1.1-3-2-3.8-2-0.8 0-1.7-0.7-2-1.5-0.3-0.8 0.1-2.2 0.8-3 1-1.3 1-1.6 0-1.5-0.7 0-1.5 0.9-1.8 2-0.4 1.8-0.7 1.8-2 0.5-0.8-0.8-2.4-1.7-3.5-2-1.1-0.3-2-0.9-2-1.5 0-0.6 0.5-0.8 1-0.5 0.5 0.3 1 0.1 1-0.5 0-0.6-0.8-0.9-1.7-0.7-1 0.2-3.5-0.5-5.5-1.5-2.1-1-3.8-2.2-3.8-2.8 0-0.6-0.7-1-1.5-1-0.8 0-2.1-0.6-2.8-1.3-0.7-0.6-1.8-1.3-2.5-1.5-0.6-0.1-2.4-1-3.8-2-1.8-1.2-2.2-1.9-1.2-2.4 0.7-0.4 1.7-0.2 2.1 0.5q0.9 1.3 0.4-0.3c-0.2-0.8-0.8-1.4-1.3-1.3-0.5 0.1-1.8-0.6-2.9-1.5-1.9-1.6-1.9-1.6-0.7 0 0.6 1 0.9 1.9 0.5 2.1-0.5 0.2-3.7-1.2-7.3-2.9-3.6-1.8-5.9-3.3-5.2-3.3 0.6-0.1 1.2-0.4 1.2-0.9 0-0.4-1.7-0.8-3.8-1-2-0.1-5.3-1.1-7.2-2.1-1.9-1.1-5.6-2.8-8.2-4-2.7-1.2-5.3-1.9-5.8-1.6-0.5 0.3-1.2-0.1-1.4-0.8-0.2-0.6-3.1-2.1-6.5-3.2-4-1.3-5.7-2.3-4.8-2.8 0.7-0.5-0.2-0.6-2-0.3-2.5 0.5-3.3 0.2-3.3-0.9q0-1.5-2-1c-1.1 0.3-2 0-2-0.5 0-0.6-0.8-0.7-1.7-0.3-1.3 0.5-1.6 0.4-1-0.5 0.4-0.6 0.2-1.4-0.3-1.7-0.5-0.3-0.9 0-0.7 0.6 0.1 0.6-0.4 1.3-1 1.5-0.7 0.2-1.3-0.1-1.3-0.6 0-0.6-1.8-1.2-4-1.5-2.3-0.3-4.3-1.2-4.8-2.1-0.4-1-0.1-1.9 0.8-2.4 1.3-0.8 1.3-1-0.3-1.7-0.9-0.4-2-0.5-2.4-0.1-0.3 0.5-0.1 0.8 0.5 0.8 0.7 0 1 0.7 0.7 1.5-0.3 0.9-1.7 1.5-3.5 1.5-1.6 0-3-0.5-3-1 0-0.6-0.5-0.8-1-0.5-0.5 0.3-3.6 0-6.8-0.6-3.1-0.6-7.5-1.5-9.7-2.1-2.2-0.5-4.9-1.7-6-2.6q-2-1.7-0.7-0.2c0.7 0.8 1.2 1.9 1.2 2.5 0 0.5-1-0.1-2.2-1.5-1.7-2-2-2.1-1.4-0.5 0.7 1.7 0.5 1.9-1 1.1-1.1-0.5-2.8-0.9-3.9-0.9-1.1 0-6.3-0.6-11.5-1.3-5.2-0.7-17-1.5-26.2-1.7-9.3-0.2-16.9-0.3-17-0.1zm-145.8 28.6c-0.1 0.7-0.8 1.9-1.8 2.6-1.6 1.1-1.6 1.2 0.1 0.7 1.1-0.3 1.7 0 1.7 1 0 0.8 0.2 1.5 0.5 1.5 0.3 0 1.6-0.9 3-2 2.4-1.9 2.4-2 0.5-2.5-1.1-0.3-2-1-2-1.5 0-0.6-0.4-1-1-1-0.6 0-1 0.6-1 1.2zm-116 100.8c0 0.6 0.6 1.3 1.3 1.7 0.9 0.4 0.8 0.9-0.4 1.7-0.9 0.6-2.1 2.2-2.8 3.6-1 1.9-0.5 1.6 1.7-1 2.4-2.7 2.9-3.9 2.1-5.3-0.5-0.9-1.1-1.7-1.4-1.7-0.3 0-0.5 0.4-0.5 1zm-22.7 44c0.3 0.8 0.1 2.2-0.4 3-0.7 1.2-0.9 1-1-0.8-0.1-1.3-0.5-2.1-1-1.8-0.5 0.4-0.5 1.5 0.1 2.6 0.6 1.1 2 2 3.3 2 1.7 0 1.9-0.2 0.7-0.9-0.8-0.5-1.2-1.3-0.8-1.7 0.4-0.5 0.2-1.6-0.4-2.4-0.9-1.3-0.9-1.3-0.5 0zm183.4 446.5c0.2 0.8 0.7 1.3 1.3 1 0.6-0.3 1 0 1 0.5 0 0.5-1.1 1.5-2.5 2-1.4 0.5-2.7 1.5-3 2q-0.5 1 1.3 0c0.9-0.5 2.1-0.6 2.5-0.2 0.4 0.4 0.7 0.1 0.7-0.6 0-0.6 0.6-1 1.3-0.8 0.7 0.2 1.2-0.6 1.2-1.9 0-1.3-0.2-2.2-0.5-1.9-0.3 0.2-1.2-0.1-2.1-0.7-1.2-0.7-1.5-0.6-1.2 0.6z"/><path fill-rule="evenodd" class="b" d="m511.5 83.3c12.6 0 25.7 0.3 29 0.8 3.3 0.4 8 1 10.5 1.3 2.5 0.3 6.1 0.8 8 1.2 1.9 0.3 3.6 1 3.8 1.5 0.1 0.5 0.7 0.9 1.2 0.9 0.5 0 0.8-0.5 0.5-1-0.3-0.6 0.6-0.8 2.3-0.6 1.5 0.3 3 0.5 3.5 0.5 0.4 0.1 0.5 0.4 0.3 0.9-0.2 0.4 1 0.6 2.8 0.6 1.7-0.1 3.9 0.1 4.8 0.5 1.4 0.5 1.5 0.9 0.5 1.9-1 1.1-1.3 1.1-1.8 0-0.5-1-0.8-1-1.3 0-0.3 0.6-0.1 1.2 0.4 1.2 0.5 0 0.8 0.5 0.5 1q-0.5 1 1.5 0c1.1-0.5 2.2-1.7 2.5-2.5q0.5-1.5 2.8-0.9c1.2 0.3 2.9 0.8 3.7 1.1 0.8 0.4 1.8 0.5 2.3 0.5 0.4-0.1 0.7 0.3 0.7 0.8 0 0.5 0.6 0.7 1.3 0.4 0.6-0.3 3.6-0.1 6.5 0.5 2.8 0.6 5.2 1.6 5.2 2.1 0 0.5 0.3 0.9 0.8 0.9 0.4-0.1 1.5-0.1 2.5 0 0.9 0 2.7 1.1 3.8 2.4 1.7 1.6 2 1.8 1.5 0.5-0.4-1.3-0.2-1.7 0.9-1.3 0.8 0.3 1.5 1 1.5 1.5 0 0.5 0.9 0.8 2 0.5 1.1-0.3 2.6-0.1 3.3 0.4 0.6 0.4 2.9 1.3 5 2 2.5 0.7 3.5 1.5 3 2.3-0.6 0.9-0.3 1 1 0.5 1-0.4 3.5 0.1 6 1.2 3.8 1.7 4 2 2.2 2.9-1.1 0.6-1.8 1.3-1.5 1.6 0.3 0.3 1.4-0.2 2.5-1.2 1.9-1.7 2.2-1.7 7.5 0.4 3 1.3 5.5 2.7 5.5 3.3 0 0.5 0.4 1.3 0.9 1.8 0.5 0.4 0.6 0.3 0.3-0.4-0.4-0.7-0.4-1.3 0.1-1.3 0.4 0 2.6 0.8 4.9 1.8 2.4 0.9 4.3 2.3 4.3 3 0 0.6-0.6 1.4-1.2 1.6-1 0.4-1 0.5 0 0.5 0.6 0.1 1.4-0.6 1.7-1.4 0.4-1.3 1.1-1.2 4.3 0.6 2 1.2 7.3 4.2 11.7 6.7 4.4 2.4 8.9 5 10 5.6 1.1 0.7 3.5 2.1 5.3 3.1 1.7 1.1 3 2.3 2.7 2.8-0.3 0.4-0.2 0.5 0.3 0.2 0.4-0.2 2.4 0.5 4.5 1.5 2 1.1 3.8 2.3 4 2.8 0.1 0.4 3.1 2.7 6.7 5.2 3.6 2.4 7.1 4.9 7.7 5.5 0.7 0.5 2.5 2.1 4.1 3.5 1.5 1.4 4.1 3.6 5.9 5 2.1 1.7 2.9 3.1 2.6 4.5-0.4 1.6-0.3 1.7 0.6 0.5 0.9-1.3 1.4-1.1 3.8 1.2 1.5 1.4 5.5 5.2 8.8 8.3 3.3 3.1 5.1 5.3 4 4.9-1.1-0.4-0.2 0.6 2 2.1 2.2 1.6 4.8 3.8 5.7 4.9 1 1.2 1.7 2.7 1.8 3.4 0 0.6 0.6 1.5 1.3 1.9 0.9 0.6 0.9 0.4 0.3-0.7-0.5-0.8 0.3-0.3 1.7 1.3 1.5 1.5 2.7 3.1 2.7 3.7 0 0.6 0.5 1 1 1 0.5 0 0.8 0.4 0.5 1-0.3 0.6 0.2 0.7 1.2 0.3 1.4-0.7 1.6-0.4 1 1.2-0.5 1.1-0.6 1.7-0.3 1.3 0.3-0.5 1.7 0.5 3.1 2.2 1.4 1.7 2.3 3.4 2 4-0.3 0.6 0.3 1.1 1.3 1.3 0.9 0.2 2.5 2 3.5 4 0.9 2 2.2 3.7 2.9 3.7 0.6 0 0.8 0.2 0.5 0.5-0.4 0.3 0.7 2 2.3 3.8 1.7 1.7 3.3 4 3.5 5 0.3 0.9 1.6 2.8 3 4.2 1.4 1.4 2.5 3.2 2.5 4 0 0.8 0.5 1.6 1.1 1.8 0.6 0.1 1.1 1.4 1.2 2.9 0.1 1.6 0.8 2.8 1.5 2.8 0.6 0 1 0.6 0.8 1.3-0.2 0.6-0.9 1.1-1.5 1-0.6-0.2-1.3 0.4-1.6 1.2-0.3 0.8-0.2 1.5 0.3 1.5 0.4 0 1.5-0.7 2.5-1.5 1.5-1.4 1.8-1.2 3.3 1.8 0.9 1.7 2.2 3.5 2.8 3.9 0.6 0.4 0.8 0.8 0.4 0.8-0.5 0-0.1 0.7 0.7 1.5 0.8 0.8 1.5 1.9 1.5 2.5 0 0.6-0.8 1.2-1.7 1.4-1.3 0.3-1.1 0.4 0.5 0.5 1.6 0.1 2.9 1.5 4.7 4.9 1.4 2.6 2.5 5 2.5 5.5 0 0.4 1.1 3.1 2.5 6 1.4 2.8 2.3 5.8 2 6.5-0.3 0.6 0 1.2 0.5 1.2 0.5 0 1.8 1.9 2.7 4.3 0.9 2.3 1.7 4.4 1.8 4.7 0.1 0.3 0.6 1.6 1.2 3 0.6 1.4 1.8 4.6 2.7 7.3 0.9 2.6 1.3 5.3 0.9 6q-0.8 1.2 0.5 0.5c0.8-0.5 1.4 0 1.8 1.5 0.4 1.2 1.6 5.6 2.6 9.7 1 4.1 2 7.9 2.1 8.5 0.2 0.6 0.5 1.4 0.8 2 0.3 0.6 0.6 2.2 0.7 3.8 0.1 1.5 0.6 3.5 1.1 4.5 0.5 0.9 1.1 3.7 1.2 6.2 0.1 2.5 0.6 4.9 1 5.5 0.5 0.6 1.1 3.3 1.3 6 0.3 2.8 0.7 6.1 1 7.5 0.2 1.4 0.8 4.8 1.1 7.5 0.4 2.8 1.1 6.7 1.6 8.8 0.6 2.4 0.5 3.9-0.1 4.2-0.5 0.3-1 0.9-1 1.5 0 0.6 0.3 0.8 0.7 0.6 0.5-0.2 0.9 0.9 1 2.5 0.3 2.4-0.1 3-2.5 3.5-2.1 0.5-2.4 0.8-1.2 1.5 0.9 0.4 2 0.3 2.8-0.4 1-0.9 1.3-0.9 1.2 0.1 0 0.6-0.7 1.4-1.5 1.7-0.8 0.3-1.5 0.9-1.5 1.5 0 0.6 0.6 0.8 1.3 0.5 0.6-0.3 1.2 0.2 1.2 1 0 0.8-0.6 1.5-1.3 1.5-0.6 0-1.6-0.8-2.2-1.7-0.5-1-1-1.2-1-0.5 0 0.6 1 1.9 2.3 2.7 1.3 0.9 2.2 2.6 2.3 4.3 0 1.5-0.7 3.3-1.5 4-0.9 0.8-1 1.1-0.3 0.8 0.8-0.4 1.2 0.6 1.2 3.4 0 3.1-0.4 4-1.7 4.1-1.7 0.1-1.7 0.2 0 0.5 0.9 0.2 1.7 0.8 1.7 1.4 0 0.6-0.6 1-1.2 1q-1.3 0 0.2 1c1 0.6 1.4 2.3 1.3 4.7-0.1 2.1-0.2 6.1-0.3 8.8-0.1 2.8-0.4 5.4-0.7 6-0.3 0.6-0.7 4.1-0.9 8-0.2 3.9-0.7 7.1-1.1 7.3-0.4 0.1-0.7 2.2-0.5 4.7 0.1 3.1-0.3 5-1.4 6-0.8 0.8-1.1 1.5-0.5 1.5 0.7 0 0.8 0.9 0.5 2.3-0.4 1.2-0.8 3.4-1 5-0.2 1.5-0.9 3.6-1.4 4.7-0.5 1.1-1.2 3.5-1.4 5.3-0.2 1.7-0.9 5.1-1.5 7.5-0.6 2.3-1.9 4.7-2.8 5.3-1.7 1-1.7 1 0 0.5 0.9-0.3 1.7-0.2 1.7 0.4 0 0.6-0.5 1-1 1-0.5 0-0.8 0.4-0.5 1 0.3 0.6-0.4 3.9-1.5 7.5-1.1 3.6-2.5 6.3-3 6-0.6-0.3-0.8 0.4-0.4 1.8 0.4 1.2 0.1 3.1-0.5 4.2-0.6 1.1-2 4.6-3.1 7.8-1.2 3.5-2.6 5.7-3.5 5.7-0.8 0-1.8 0.6-2.2 1.2-0.6 0.9-0.3 1 1 0.5 0.9-0.4 1.7-0.3 1.7 0.3 0 0.5-0.7 1.7-1.5 2.5-0.8 0.8-1.3 1.6-1 1.8 0.3 0.1-0.9 3.8-2.7 8.2-1.8 4.4-4.1 8.8-5 9.8-1.7 1.6-1.9 1.6-2.8 0-0.5-1-1-1.3-1-0.8-0.1 0.5 0.5 1.6 1.2 2.2 1.1 1 0.8 2.2-1.2 6.5-1.3 2.9-3.2 6-4.2 6.8-1 0.8-1.5 1.8-1.3 2.3 0.3 0.4-0.6 2.5-2 4.7-1.4 2.2-2.5 4.2-2.5 4.5 0 0.3-1 1.8-2.2 3.5-1.3 1.6-2.6 2.7-3 2.5-0.5-0.3-0.5 0.1-0.2 0.8 0.3 0.6-0.2 2-1.1 3-0.9 0.9-1.4 1.7-1.1 1.7 0.3 0-0.2 0.8-1.1 1.9-1 1-2.9 3.3-4.3 5-2.1 2.6-2.7 2.9-4 1.9-1.3-1.1-1.3-1.1-0.2 0.5 1 1.4 0.9 2.2-0.5 4.7-1 1.6-2.4 3-3 3-0.7 0-1.2 0.3-1.1 0.8 0.1 0.4-0.5 1.9-1.5 3.5-0.9 1.5-2 2.5-2.4 2.3-0.5-0.2-0.8 0.2-0.8 0.9 0 0.6-2.1 3.5-4.7 6.3-3.4 3.7-5.3 5-6.5 4.6-1.5-0.5-1.5-0.4-0.3 0.4 1.3 0.9 1 1.6-1.9 4.9-1.9 2.1-5.9 6.4-9 9.5-3.1 3.2-6.3 5.8-7.1 5.8-0.8 0-1.2 0.2-0.7 0.5 0.4 0.3-1 2.1-3 4-2.1 2-4.7 4.4-5.8 5.5-1.1 1-4.7 3.9-8 6.4-3.3 2.5-6.6 5-7.2 5.6-0.9 0.7-1.3 0.6-1.3-0.2 0.1-0.7-0.6-1.9-1.5-2.5-0.9-0.8-1.7-0.9-2-0.3-0.3 0.5 0.2 1 1 1 0.8 0 1.5 0.9 1.5 2 0 1.2-1.1 2.6-2.7 3.4q-2.8 1.4-4.5 0.5c-1-0.5-2.1-0.7-2.5-0.4-0.3 0.3 0 0.5 0.8 0.5 1.2 0 1.1 0.2-0.1 1.1-1.2 0.8-1 0.9 0.8 0.5 1.2-0.3 2.2-0.1 2.2 0.4 0 0.5-1.1 1.2-2.5 1.5-1.4 0.3-2.5 1-2.5 1.5 0 0.5-0.7 0.8-1.5 0.5-0.8-0.3-1.3 0-1 0.5 0.3 0.5-1.4 2.3-3.7 4-3.5 2.4-4.6 2.7-5.6 1.7-1.1-1-1.2-0.8-0.6 0.8 0.7 1.7 0.5 1.9-0.9 1.3-1-0.5-1.5-0.4-1.2 0.2 0.3 0.5-0.5 1.7-1.7 2.5-1.3 0.8-2.6 1.5-3 1.5-0.5 0-0.8-0.6-0.8-1.2 0-0.7-1.1-1.3-2.4-1.3-1.3 0-2.8 0.4-3.3 0.8-0.4 0.5-0.3 0.8 0.2 0.7 0.5-0.1 1.8-0.2 2.8-0.1 0.9 0 1.7 0.8 1.7 1.6 0 0.8-0.5 1.5-1 1.5-0.5 0-1.2-0.5-1.5-1-0.3-0.5-1-1-1.5-1-0.5 0-1 0.5-1 1 0 0.5 0.5 0.8 1 0.5 0.5-0.3 1 0 1 0.5 0 0.5-1.6 1.8-3.6 2.8-2 0.9-4.2 2.3-4.8 3-0.6 0.7-1.4 1.3-1.8 1.2-0.5 0-0.6-0.7-0.3-1.5 0.3-0.8 0-1.7-0.5-2-0.5-0.3-0.8 0.1-0.5 0.8 0.3 0.6-0.3 2-1.5 3-1.1 0.9-2.6 1.4-3.2 1q-1.3-0.8-0.5 0.5c0.4 0.8-0.1 1.4-1.5 1.8-1.4 0.3-2.6 0-3.1-0.8q-0.9-1.3-0.3 0.5c0.4 1.1-0.1 2-1.4 2.7q-2 1-2 0c0-0.5-0.5-0.8-1-0.5-0.5 0.3-0.8 1-0.5 1.5 0.3 0.5-1 1.5-2.7 2.1-1.8 0.7-3.8 1.1-4.3 1-0.5-0.1-1.7 0.5-2.5 1.4-0.8 0.8-3.1 1.9-5 2.4-1.9 0.5-3.8 0.6-4.2 0.3-0.5-0.4-0.2-1.3 0.5-2 1-1 0.8-1.3-0.8-1.3-1.1 0-1.7 0.4-1.3 0.8 0.5 0.4 0.2 1.4-0.5 2.2-0.9 1.2-0.9 1.3 0.1 0.8 0.6-0.4 1.2-0.2 1.2 0.3 0 0.5-0.7 1-1.5 1-0.8 0-1.6 0.5-1.7 1.1-0.2 0.6-2.2 1.1-4.4 1.2-2.3 0.1-4 0.5-3.8 1 0.2 0.4-1.7 1.4-4.3 2.2-2.7 0.8-6 1.7-7.5 2-1.6 0.3-4 1-5.5 1.6-2.4 1-2.7 0.9-2-0.5 0.4-0.9 0.2-1.9-0.5-2.3q-1.3-0.8-0.5 0.5c0.4 0.6 0.2 1.2-0.3 1.2-0.5 0-0.8 0.5-0.5 1 0.3 0.5 0.2 1.1-0.2 1.1-0.5 0.1-2.4 0.3-4.3 0.4-1.9 0.1-4.2 0.5-5 0.9-0.8 0.3-3.7 1-6.5 1.5-2.7 0.5-5.3 0.7-5.7 0.5-0.5-0.2-1 0.1-1.3 0.6-0.3 0.5-2.3 1.2-4.5 1.5-2.9 0.4-4.7 0-6.7-1.4-1.9-1.3-3.3-1.7-4.3-1-1.2 0.7-1 0.9 0.8 0.9 1.6 0 2 0.4 1.5 1.6-0.5 0.8-1.4 1.3-2 1-0.7-0.3-1.1-0.1-0.8 0.4 0.3 0.5-0.3 0.9-1.2 0.8-1 0-4.7 0.2-8.3 0.7-3.6 0.4-8.1 0.9-10 1.1-1.9 0.2-14.7 0.4-28.5 0.4-13.7 0-25.2-0.3-25.5-0.7-0.3-0.4-3.9-0.9-8-1.1-5.4-0.2-8-0.7-9.3-2-1.4-1.3-1.7-1.4-1.3-0.2 0.4 1.1-0.1 1.4-1.9 1.3q-2.5-0.3-1.8-1.5c0.4-0.8-0.1-0.7-1.1 0.2-0.9 0.8-1.7 1-1.6 0.5 0-0.5-1.5-1.1-3.2-1.1-1.8-0.1-5.1-0.4-7.3-0.7-2.2-0.3-6-1.2-8.5-2.1-2.5-0.8-4.9-1.2-5.5-0.9-0.6 0.2-2.8-0.3-5-1.3-2.2-1-4.8-1.7-5.7-1.6q-1.8 0.2-1-1c0.5-0.9 0.2-1-1-0.5-1.2 0.4-1.8 0.3-1.8-0.5 0.1-0.9-0.4-0.9-1.6 0.2-1.6 1.4-1.7 1.3-1-0.5 0.6-1.6 0.5-1.8-0.6-0.8-0.9 0.8-1.9 0.9-3 0.3-1-0.6-3-1.2-4.5-1.4-1.6-0.2-3.8-0.6-5-1-1.3-0.3-2.3-1.4-2.3-2.3 0-1.4-0.2-1.5-0.8-0.5-0.6 1.2-1.2 1.1-3.7-0.1-2.4-1.3-2.6-1.6-1-1.6 1.1-0.1 2.8-0.2 3.8-0.3 0.9-0.2 1.7-0.6 1.7-1 0-0.5 0.6-0.6 1.3-0.4 0.7 0.2 1.2-0.6 1.2-1.9 0-1.3-0.2-2.2-0.5-1.9-0.3 0.2-1.3-0.1-2.2-0.6-1.4-0.8-1.7-0.7-1.3 0.5 0.3 0.8 0.9 1.3 1.5 1 0.6-0.3 1 0 1 0.5 0 0.5-1.4 1.7-3 2.5-2.7 1.3-3 1.3-3 0 0-1.3-0.2-1.3-1.6 0-0.8 0.8-2.4 1.5-3.5 1.5-1.5 0-1.8-0.6-1.6-2.9 0.1-2.3-0.1-2.7-1.1-1.7-1.1 0.9-1.1 1.2 0 1.8 1 0.6 1 0.8-0.2 0.8-0.8 0-3-0.9-4.7-2q-3.3-2-3.3-0.7c0.1 0.8-0.4 0.8-1.6-0.3-1.5-1.4-1.5-1.6 0.2-2.3 1.1-0.4 0.6-0.5-1.1-0.1-2.5 0.5-2.9 0.4-2.2-1 0.4-1 0.3-1.5-0.5-1.4-0.7 0-2.9 0-4.8-0.1-2.9-0.2-3.1-0.4-1.5-1 1.1-0.5 2.8-0.5 3.8 0 1 0.6 1.7 0.5 1.7-0.1 0-0.5 0.4-0.8 1-0.5 0.6 0.3 0.7-0.2 0.3-1.3-0.4-1-0.8-1.2-1-0.5-0.2 0.7-1 1.3-1.8 1.3-0.8 0-1.5-0.5-1.5-1 0-0.6-1.3-0.3-3 0.5-1.7 0.8-3 1.1-3 0.5 0-0.5-0.7-1-1.5-1-0.8 0-1.5-0.5-1.5-1 0-0.5-1.4-1.2-3-1.5-1.6-0.3-3.3-1.1-3.6-1.8-0.3-0.6-0.1-1.7 0.5-2.2 0.6-0.5 1.1-1.3 1.1-1.8 0-0.4-0.4-0.7-1-0.7-0.6 0-0.8 0.5-0.5 1 0.3 0.5 0.1 1-0.5 1-0.6 0-0.7-1-0.3-2.3 0.5-1.6 0.3-2-0.5-1.5-0.7 0.5-1.2 1.5-1.2 2.3 0 0.9-0.9 1.5-2.5 1.5-1.4 0-3-0.9-3.7-2-0.7-1.1-1.6-1.7-2.1-1.2-0.4 0.4-0.8 0.2-0.7-0.3 0-0.5 0.5-1.6 1.2-2.3 0.7-0.6 2.3-1.2 3.7-1.2 1.5 0 3.2 0.5 4 1.2 1.1 1 1.3 1 0.7 0-0.4-0.8 0.2-1.2 1.7-1.2 1.3 0 1.7-0.3 1-0.8-0.6-0.4-3.1-0.7-5.6-0.7-2.8 0-5.3 0.7-6.6 1.7-1.7 1.5-2.5 1.6-4.3 0.7-1.3-0.6-3.1-1.9-4-2.8-1-0.9-1.5-1.9-1.3-2.4 0.3-0.4 0.9-0.7 1.5-0.7 0.6 0 1.2 0.8 1.4 1.7q0.4 1.8 0.5 0.3c0-0.8-0.4-2.2-0.9-3-0.9-1.3-1.2-1.3-2 0.2-0.6 1-1.6 1.8-2.2 1.8-0.7 0-2.8-1.2-4.5-2.5-1.8-1.4-3.1-3-2.8-3.5 0.3-0.5-0.1-1.1-0.7-1.2-0.7 0-1.7-0.2-2.3-0.3-0.6 0-2.6-1.1-4.5-2.2-2.5-1.5-3.1-2.3-2-2.6 0.9-0.4 0.7-0.6-0.7-0.6-1.3-0.1-2.3-0.7-2.3-1.6 0-0.8-0.4-1.3-1-1-0.6 0.3-1.8-0.4-2.7-1.5-1-1-2.1-1.7-2.5-1.5-0.5 0.3-1.7-0.7-2.8-2.3-1.2-1.5-2-2.2-2-1.7 0.1 0.5-0.6 0.3-1.5-0.5-1.3-1.2-1.3-1.7-0.3-2.2 1-0.6 1-0.8 0.1-0.8-0.7 0-1.5-0.8-1.7-1.8-0.3-1.2-0.4-1-0.5 0.5 0 1.3-0.5 2.1-1.1 1.8-0.6-0.3-0.7-1.3-0.4-2.3 0.5-1.4 0.4-1.5-0.5-0.2-0.9 1.3-1.7 0.9-4.9-2.5-2-2.2-5-4.8-6.5-5.8-1.5-0.9-2.6-2.2-2.4-2.9 0.1-0.6-0.7-1.4-1.8-1.6-1.1-0.3-3.7-2.3-5.8-4.6-2-2.3-3.7-4.7-3.7-5.4 0-0.6-0.3-1-0.7-0.7-0.5 0.2-2.8-2-5.3-5-2.5-3-4.8-5.5-5.2-5.5-0.5 0-0.8-0.5-0.8-1 0-0.5-0.8-2-1.7-3.1-1-1.2-3-3.6-4.5-5.3-1.5-1.7-4.1-4.7-5.7-6.6-1.7-1.9-3.4-4.4-3.7-5.5-0.4-1.1-1.5-2.8-2.5-3.8-1.1-0.9-1.9-1.9-1.9-2.2 0-0.3 0-0.8 0-1.3 0-0.4-1.1-1.9-2.5-3.5-1.8-1.9-2.4-3.6-2.2-6.1 0.1-1.9-0.1-3.7-0.5-4-0.5-0.3-1-0.1-1.3 0.4-0.3 0.5-0.1 1 0.5 1 0.6 0 0.8 0.7 0.5 1.5-0.3 1-1.4 0.1-3.5-3-1.7-2.5-3-5-3-5.5 0-0.5-0.4-1-1-1-0.6 0-0.8-0.5-0.5-1 0.3-0.5 0.1-1-0.5-1-0.6 0-0.8-0.7-0.5-1.5 0.3-0.8 0.1-1.3-0.5-1-0.6 0.3-1.6-1-2.4-2.8-0.8-1.7-2.1-3.9-3-4.7-1-0.8-2.4-3.6-3.1-6.3-0.8-2.6-1.9-4.7-2.5-4.7-0.6 0-0.9-0.3-0.8-0.8 0.1-0.4-0.4-2.1-1.1-3.7-0.6-1.6-0.9-3.6-0.6-4.3 0.3-0.6 0.2-1-0.2-0.8-0.5 0.2-1.3-0.1-1.9-0.8-0.5-0.6-1.2-1.6-1.3-2.1-0.2-0.5-0.5-1.5-0.7-2-0.2-0.5-1.2-3.4-2.4-6.3-1.4-3.7-1.6-5.2-0.7-5.2 0.8 0 0.6-0.4-0.4-1.2-0.9-0.7-1.9-2.1-2.3-3.1-0.3-1-0.1-1.9 0.7-2.1q1.2-0.4-0.3-0.5c-0.8 0-2-1.7-2.7-3.8-0.7-2.1-1-4.1-0.7-4.6 0.2-0.4 0-0.7-0.6-0.7-0.6 0-0.8-1-0.5-2.3 0.3-1.2 0.2-1.9-0.2-1.4-0.5 0.4-1.6-1.6-2.6-4.5-1-2.9-2-6.9-2.2-8.8-0.2-1.9-1.1-5.4-1.9-7.8-1.2-3.2-1.3-4.2-0.3-4.2 1 0.1 1-0.2 0-1.5-0.7-0.8-1.1-2.4-0.8-3.5 0.3-1.1 0.1-2-0.5-2-0.6 0-0.7-0.8-0.3-1.8 0.5-1.2 0.4-1.5-0.5-1-0.6 0.5-1.2 0.4-1.2-0.2 0-0.6 0.6-1 1.3-1 0.7 0.1 0.4-0.8-0.8-2-1.2-1.2-1.5-2.1-0.7-2 0.6 0 1.4-0.9 1.7-2 0.3-1.1 1.2-2 2-2 0.8 0 1.5-0.6 1.5-1.3-0.1-1 0.2-1 1.5 0 0.9 0.8 1.7 0.9 2 0.3 0.3-0.6 1.1-1 1.8-1 1-0.1 1 0.2 0 1.5-0.7 0.8-0.9 1.6-0.4 1.7 0.5 0.2 1.2 1.5 1.5 3 0.3 1.6 0.2 2.8-0.4 2.8-0.6 0-1-0.7-1-1.5 0-0.8-0.3-1.5-0.7-1.5-0.5 0-0.8 0.7-0.8 1.5 0 0.8 0.4 1.5 1 1.5 0.6-0.1 0.4 0.6-0.2 1.5-0.8 0.8-1.8 1.2-2.5 0.8q-1.3-0.8-0.5 0.5c0.4 0.6 1.4 1 2.2 0.7 0.8-0.3 1.5-0.9 1.5-1.5 0-0.6 0.7-1 1.5-1 1.1 0 1.4 1 1.3 3.9-0.2 2.4 0.1 3.6 0.7 3.2 0.6-0.3 0.7 0.1 0.2 1.1-0.4 1-0.3 2 0.3 2.3 0.6 0.3 1.3 2.6 1.6 5.2 0.4 2.7 1.7 7.9 2.9 11.8 1.3 3.9 2.8 9 3.5 11.5 0.7 2.5 1.3 5.2 1.5 6 0.1 0.8 0.7 2.4 1.2 3.5 0.6 1.1 0.8 2.7 0.5 3.5q-0.6 1.5 0.6 0.7c0.7-0.4 1.4-0.1 1.6 0.5 0.3 0.7 0.2 1.8-0.2 2.3-0.4 0.5-0.6 0.9-0.5 0.7 0.2-0.1 1 0.5 1.8 1.3 0.8 0.8 1.4 1.8 1.3 2.2-0.1 0.5 0.5 2.2 1.4 3.8 0.8 1.6 1.8 4.2 2.2 5.7 0.4 1.9 0.2 2.9-0.6 3.2-0.7 0.1-0.2 0.1 1.2-0.1 1.4-0.3 2.2-0.2 1.8 0.1-0.5 0.3 0.3 2.3 1.6 4.3 1.2 2.1 2.7 4.9 3.1 6.3 0.4 1.4 1.1 2.7 1.4 3 0.4 0.3 2.2 3.4 4 7 1.9 3.6 4.2 7.7 5.3 9.2 1.1 1.7 1.6 3.7 1.2 5-0.4 1.8-0.3 2 0.5 0.8 0.6-0.8 1.1-1 1.2-0.5 0.1 0.5 0.1 1.3 0 1.7 0 0.5 0.5 0.8 1.2 0.8 0.6 0 2.5 2.3 4.1 5.2 1.6 2.9 3.4 5.8 4 6.3 0.6 0.6 3.2 4.2 5.8 8 2.5 3.9 5.6 7.7 6.7 8.5 1.8 1.4 1.9 1.6 0.3 2.6-1.5 1-1.4 1.1 0.8 1 1.7-0.1 2.5 0.4 2.5 1.5 0 0.9 0.3 1.5 0.8 1.3 0.4-0.2 2.5 1.7 4.7 4.3 2.4 2.9 3.8 5.4 3.4 6.3-0.3 0.8-0.2 1.2 0.3 0.7 0.4-0.4 2 0.5 3.6 2 1.5 1.6 2.7 3.4 2.7 4 0 0.7 0.4 1.1 1 0.8 0.6-0.3 1.9 0.5 3 1.7 1.1 1.3 2.4 2.8 2.9 3.3 0.5 0.5 2.3 2.1 4.1 3.5 1.7 1.4 4.1 3.3 5.3 4.4 1.2 1 4.2 3.5 6.7 5.5 2.5 2 4.8 4.1 5.2 4.6 0.4 0.5 0.5 1.3 0.2 1.7-0.2 0.5 0.4 0.8 1.4 0.8 0.9 0 3.1 1.1 4.7 2.5 2.3 1.9 2.6 2.5 1.3 2.5-1 0-2-0.6-2.2-1.3-0.1-0.6-1.5-1.4-2.9-1.7-1.5-0.3-2.7-0.2-2.7 0.2 0 0.5 0.9 0.8 2 0.8 1.1 0 2.2 0.5 2.5 1 0.3 0.6-0.6 0.8-2.2 0.5-1.6-0.3-2.4-0.2-2 0.2 0.5 0.5 1.3 0.9 1.8 1 0.5 0.2 1.9 0.3 3.2 0.3 2-0.1 2 0.1 0.7 1.5-0.8 0.9-1.1 1.6-0.5 1.6 0.6 0.1-0.1 0.5-1.5 0.9-2.4 0.8-2.4 0.8-0.2 0.9 1.6 0.1 2.1 0.6 1.7 1.8-0.5 1.7-0.4 1.7 0.7 0.1 0.7-1 1.6-1.7 2.1-1.8 0.4 0 0.5 0.7 0.2 1.5-0.3 0.8-0.1 1.3 0.5 1 0.6-0.3 1.1 0.5 1.1 1.7 0.2 2 0.2 2 0.5 0.3 0.2-1.1 1.5-2.8 2.9-3.8 2.4-1.6 2.6-1.6 5.5 0 1.6 1 3 2.4 3 3 0 0.7-0.6 1.5-1.2 1.8-1 0.4-0.9 0.7 0.2 1.1 1.2 0.5 1.2 0.8-0.5 2-1.9 1.5-1.9 1.5 0.3 0.5 1.3-0.7 2-1.7 1.7-2.6-0.3-0.8-0.1-1.7 0.5-2 0.6-0.3 1.2 0.4 1.5 1.5 0.3 1.1 0.1 2.2-0.5 2.5-0.6 0.3-0.8 1-0.5 1.5 0.3 0.5 1.2 1 2 1 0.9 0 1.2-0.5 0.8-1.3-0.4-0.6-0.9-2-1-3q-0.3-1.7 1-1c0.6 0.4 3.2 2.1 5.7 3.7 3.2 2.2 4 3.2 2.8 3.3-1 0.2-1.8 0.4-1.8 0.5 0 0.2 0.6 1.7 1.5 3.3 0.9 1.9 1.5 2.4 1.5 1.2 0-0.9-0.4-1.9-1-2.2-0.6-0.3-0.2-1.1 0.8-1.9 0.9-0.8 2.1-1.2 2.7-1 0.6 0.2 1.3 1.3 1.8 2.4 0.4 1.1 1 1.9 1.5 1.8 0.4-0.1 1.9 0.3 3.5 0.8 1.5 0.5 3 1.5 3.2 2.1 0.3 0.7 0.1 1.5-0.5 1.8-0.6 0.3-1 1.3-1 2.2-0.1 1.5 0.2 1.4 1.7-0.5 1.6-2.2 2-2.2 4.5-1 1.5 0.7 2.5 1.8 2.1 2.3-0.3 0.6-0.9 0.4-1.4-0.5-0.8-1.3-1-1.3-1.8 0-0.7 1-0.5 2.1 0.5 3.2 0.8 1.1 1 2 0.4 2.3-0.6 0.3-1.9 0.3-3 0-1.1-0.3-2 0-2 0.5 0 0.5 1.2 1.2 2.8 1.4 1.5 0.3 2.9-0.1 3.2-0.7 0.2-0.7 1.1-1.8 1.8-2.5 1.1-1 1-1.2-0.7-1.2-1.2 0-2.3-0.3-2.5-0.8-0.2-0.4 1.2-0.8 3.2-0.9 2.1 0 4.5 0.3 5.5 0.8 0.9 0.5 1.5 1.6 1.2 2.4-0.4 1.1-0.1 1.3 1.2 0.7 1.2-0.5 1.5-0.3 1.2 0.8-0.3 0.8-1.5 1.6-2.7 1.7-1.2 0.2-2.2 0.8-2.2 1.3 0 0.6 1.4 0.8 3.3 0.4 1.7-0.3 3.4-0.1 3.7 0.3 0.3 0.5 1.9 0.6 3.5 0.2 1.6-0.4 2.2-0.7 1.3-0.8-1 0-1.8-0.6-1.8-1.1 0-0.5 0.2-1 0.5-1 0.3 0 3 1.1 6 2.5 3.9 1.8 5.4 2.9 5 4-0.3 0.8-0.9 1.3-1.5 1-0.6-0.3-1 0.3-1 1.2-0.1 1.6 0.1 1.6 1.7 0.3 1-0.8 2-1.8 2.3-2.2 0.3-0.4 1.6-0.4 5.5 0.5l-5 2.8 2.5-0.7c1.4-0.3 4.2-0.3 6.3 0 2.8 0.5 3.7 1.1 3.7 2.6 0 1.1 0.6 1.9 1.3 1.8 0.6-0.2 1.4-0.7 1.7-1.2 0.3-0.4 3.6 0.2 7.5 1.4 3.9 1.2 7.7 2.3 8.5 2.5 0.8 0.2 6.2 1.3 12 2.5 5.8 1.2 10.8 2.4 11.3 2.6 0.4 0.2 0.4 1 0 1.6-0.5 1-0.4 1 0.8 0.1 1.1-1 2.7-1 6.9-0.2 3 0.5 8.9 1.2 13 1.4 4.1 0.3 8.9 0.9 10.5 1.5 1.6 0.6 6.5 0.9 10.7 0.8 4.3-0.2 7.8-0.6 7.8-1.1 0-0.4 1-0.7 2.3-0.7 1.8 0 1.9-0.2 0.7-1.1-1.2-0.8-1-0.9 1-0.5 2.2 0.6 2.3 0.5 1-0.9-1.3-1.4-1.3-1.6 0-1.5 0.8 0 1.2-0.3 0.8-0.7-0.4-0.4 0-1.4 1-2.1 0.9-0.8 1.3-1.1 0.7-0.9-0.6 0.3-0.9-2.8-0.7-8.6 0.2-5.1 0.9-9.8 1.5-10.6 0.7-0.8 0.8-1.2 0.2-0.9-0.6 0.4-1.1-2.6-1.2-8q-0.2-8.7 1-9.4c0.9-0.6 0.9-0.8 0-0.8-0.8 0-1.3-1.5-1.3-4.3 0-2.3 0.5-4.8 1.2-5.6 1-1.1 1-1.3 0.1-0.7-1 0.4-1.3-0.6-1.3-3.9 0-3 0.4-4.5 1.3-4.5 0.9 0.1 0.9-0.2 0-1.2-0.8-0.9-1.2-9-1.2-28.1-0.1-20.7 0.2-26.7 1.2-26.7 0.9 0.1 0.9-0.2-0.1-1.2-0.6-0.7-1.1-2.9-0.9-4.8 0.2-1.9 0.6-4.1 1-4.8 0.4-0.6 0.3-1.2-0.3-1.2-0.6 0-0.9-6.8-0.7-18.8 0.1-10.3 0.5-19.2 0.9-19.7 0.4-0.5 0.3-1.7-0.3-2.5-0.5-0.8-0.9-2.5-0.9-3.8 0-1.2 0.4-2.2 1-2.2 0.6 0 0.7-0.7 0.2-1.8-0.5-0.9-0.8-32.3-0.7-137.7l-10.7 0.2c-6 0.2-11.7-0.2-12.8-0.7q-2-1-1.5 0c0.3 0.7-7.3 0.9-22.2 0.6-12.6-0.3-29.8-0.7-38.3-1-8.5-0.2-17.8-0.8-20.5-1.1-2.8-0.4-5.4-1.1-6-1.6-0.6-0.5-1.4-0.9-2-0.9-0.6 0-0.3 0.5 0.5 1.1 1.3 0.9 1.2 1-0.2 0.5-1-0.3-2.4-0.6-3-0.7-0.7 0 0.5-0.7 2.7-1.5 2.2-0.8 8.2-1.5 13.5-1.5 5.2-0.1 10.5-0.6 11.8-1 1.5-0.6 2.2-0.5 2.2 0.3 0 0.7-0.4 1.7-0.9 2.3q-1 1 1.7 1.3c2.2 0.2 2.5 0 1.4-1-0.7-0.7-1.2-1.9-1.2-2.6 0-0.9 4.1-1.2 17-1.2 9.4 0 17.4-0.2 18-0.5 0.6-0.3 1.2-0.1 1.5 0.5 0.3 0.5 1.1 0.7 1.7 0.3 0.7-0.4 11.3-0.6 23.6-0.5 12.2 0.1 22.6 0.4 23.2 0.7 0.6 0.3 0.9-1.1 0.7-3.5-0.1-2.2 0.1-4 0.5-4 0.5 0 0.6-0.5 0.3-1-0.3-0.6-0.8-4-1.1-7.8-0.3-3.7-1-7.7-1.5-9-0.5-1.2-0.8-2.5-0.7-3 0.1-0.4-0.6-2.2-1.5-4-0.9-1.7-1.7-3.4-1.7-3.7 0-0.3 0.6-0.2 1.2 0.2q1.3 0.8 0.5-0.5c-0.4-0.6-1.1-1-1.7-0.7-0.6 0.3-1.5-0.5-2.2-1.8-0.7-1.2-1.1-2.8-1-3.5 0.1-0.6-0.1-1-0.6-0.7-0.4 0.2-2.6-1.6-5-4-2.3-2.5-4.2-4.7-4.2-5 0-0.3-2.5-2.9-5.5-5.8-3.1-2.8-5.5-5.8-5.5-6.5 0-0.6-0.4-1.3-0.8-1.5-0.4-0.1-1.9-1.8-3.2-3.7-1.4-1.9-3.5-5.5-4.7-8-1.3-2.5-2.4-5.9-2.5-7.5-0.2-1.6-0.9-3.6-1.6-4.3-0.6-0.6-1.3-2.2-1.3-3.5-0.1-1.2-0.4-6.4-0.5-11.5-0.4-8.2-0.2-9.2 1.3-9.2 1.4 0 1.5-0.2 0.4-0.8-0.9-0.5-1.1-1.7-0.7-3.7 0.3-1.6 0.8-3.9 1-5 0.2-1.1 1.1-4 2-6.5 1-2.5 3.5-7.9 5.8-12 2.2-4.1 7.8-12.5 12.3-18.5 4.5-6.1 9.3-12.8 10.5-15 1.3-2.2 4-7.4 6.1-11.5 2.1-4.1 4.5-10.2 5.4-13.5 0.9-3.3 1.9-9.6 2.2-14 0.5-7.2 0.2-9-2.6-17.5-1.7-5.2-3.7-10.4-4.3-11.5-0.6-1.1-1.3-5.8-1.6-10.5-0.3-6.2 0.1-9.7 1.2-12.8 0.9-2.3 2-4.2 2.6-4.2 0.6 0 0.9-0.4 0.7-1-0.1-0.5 0.6-2 1.6-3.2 0.9-1.3 2.6-3.4 3.6-4.8 1.1-1.4 2.2-2.2 2.5-1.8 0.3 0.5-0.2 2-1.3 3.5-1 1.6-1.8 3.8-1.7 4.9 0.1 1.2-0.2 2-0.7 1.8-0.4-0.2-0.7 0-0.7 0.6 0 0.5 0.4 1.2 1 1.5 0.6 0.3 0.7 1.1 0.1 2.2-0.6 1.1-0.6 2.4-0.1 3.3 0.5 0.8 0.7 1.8 0.4 2.2-0.2 0.5 0.3 2.6 1.1 4.8 0.8 2.2 1.3 4.4 1 5-0.3 0.5-0.2 1.1 0.2 1.2 0.5 0.2 1.9 2.5 3.3 5.2 1.4 2.8 4.1 7.5 6.1 10.5 2 3.1 4.5 7.6 5.7 10.1 1.1 2.5 2.8 7.2 3.7 10.5 1.2 3.8 1.8 9.1 1.8 14.5-0.1 6.2-0.8 10.5-2.6 16-1.3 4.1-4.1 10.6-6.2 14.5-2.1 3.8-5.8 9.9-8.3 13.5-2.5 3.6-6.4 8.7-8.6 11.5-2.2 2.7-4.3 5.2-4.7 5.5-0.3 0.3-3 4.3-6 8.9-3 4.6-5.5 8.7-5.7 9.2-0.1 0.5-0.2 1.3-0.2 1.9 0 0.6-0.6 0.7-1.2 0.2q-1.3-0.7-0.5 0.5c0.4 0.7-0.2 4-1.3 7.3-1.1 3.3-2.1 8.6-2.1 11.7-0.1 3.2 0.6 8.7 1.6 12.3 0.9 3.6 2.5 8.1 3.6 10 1 1.9 1.6 3.8 1.2 4.2-0.3 0.5-0.2 0.8 0.3 0.8 0.5 0 2.2 2.3 3.8 5.2 1.6 2.9 4.8 8 7 11.3 2.2 3.3 4.7 6.8 5.6 7.8 0.8 1 2.3 2.8 3.3 4 1 1.2 1.7 2.6 1.7 3.2-0.1 0.5 0.7 0.3 1.6-0.5 0.9-0.8 3.2-4.5 5-8.3 2.5-4.9 3.5-8.4 3.8-13 0.2-4.1-0.2-7.2-1.2-9.2-0.8-1.6-2.2-3.8-3.1-4.8-0.9-0.9-1.3-1.9-0.8-2.2 0.4-0.3-0.2-1.5-1.3-2.8-1.2-1.2-3-5-4-8.5-1.3-3.8-2-8.8-1.9-13 0.1-3.7 0.8-8.5 1.6-10.7 0.8-2.2 2.4-5.9 3.4-8.3 1-2.3 3.5-6.6 5.6-9.5 2-2.8 5.7-7.7 8.3-10.7 2.6-3 6.3-8 8.3-11 1.9-3 4.5-8 5.7-11 1.3-3 2.4-6.4 2.6-7.5 0.1-1.1 0.3-3.2 0.3-4.8 0.1-1.5 0.4-2.7 0.8-2.7 0.5 0 0.9 0.6 1 1.2 0.1 0.7 0.7 4.7 1.3 8.8 0.7 4.1 0.9 9.7 0.6 12.5-0.2 2.7-1 6.8-1.6 9-0.6 2.2-2.5 6.9-4.2 10.5-1.7 3.6-3.4 6.7-3.7 7-0.4 0.3-1.7 3.6-2.9 7.5-1.2 3.9-2.2 9.4-2.2 12.5 0 3 0.5 7.5 1.1 10 0.6 2.5 2 6.4 3.2 8.8 1.2 2.3 2.7 4.2 3.2 4.2 0.5-0.1 1.8-1.1 2.8-2.3 1-1.2 1.7-2.5 1.7-3 0-0.4 0.9-2.6 1.9-5 1.1-2.3 2.5-8.8 3.3-14.4 0.7-5.6 1.6-9.9 1.9-9.5 0.4 0.4 1.7 5.2 2.8 10.7 1.3 5.6 2.1 12.6 2 16-0.2 3.3-0.7 7.8-1.2 10-0.5 2.2-1.6 5.6-2.4 7.5-0.8 1.9-2.9 5.9-4.7 8.8-1.8 3.1-3.6 5-4.4 4.7-0.7-0.3-1 0.1-0.7 1 0.3 0.9-2.8 5-8.3 10.7-4.8 5.1-10.3 11.3-12 13.8-1.8 2.5-4.1 7.4-5.2 11-1 3.6-1.9 9.6-2 13.5-0.1 3.9-0.1 8.2 0 12.5h15.3c8.3 0.1 20.2 0.1 26.2 0.1 7.6 0 11.2 0.3 11.7 1.2 0.6 0.9 0.8 0.9 0.8-0.1 0-0.6 0.9-1.2 2-1.2 1.3 0 1.8 0.4 1.3 1.2-0.5 1-0.4 1 0.8 0.1 0.8-0.6 2.3-1.2 3.4-1.2 1.1 0 4.5 0 7.5 0 3-0.1 8 0 11 0.2 4.2 0.2 5.4 0.6 5.2 1.7-0.2 1.2 0 1.2 1-0.1q1.3-1.6 4.3-1.2c2.6 0.4 2.9 0.8 2.6 3.1-0.4 1.9-0.1 2.5 0.7 1.9 0.7-0.4 1-1 0.8-1.5-0.3-0.4-0.1-1.4 0.5-2.2 0.7-1.3 0.9-1.2 0.9 0.2 0 1 0.5 2.1 1.2 2.5 0.8 0.6 1 0.2 0.5-1.5-0.6-1.9-0.4-2.1 1.6-1.7 1.2 0.3 2.5 1.1 2.9 1.8q0.6 1.2 1.1-0.8c0.4-1.9 0.4-1.9 1.3-0.2 0.6 1.3 0.5 2.2-0.6 2.9-1.2 0.8-1.2 0.9 0.3 0.4 0.9-0.3 1.7-0.2 1.7 0.4 0 0.5-0.9 1-2 1-1.1 0-2.2-0.5-2.5-1-0.3-0.6-1-1-1.5-1-0.5 0-0.8 0.4-0.5 1 0.3 0.6-1.3 1.1-3.7 1.2-2.4 0-5.9 0.2-7.8 0.3-1.9 0.1-9.1 0.5-16 0.9-11.3 0.6-12.7 0.5-14.3-1.1-1.7-1.7-1.8-1.7-1.3-0.1 0.6 1.7-1.2 1.8-27.1 1.8-21.3 0-28 0.3-28.5 1.2-0.4 0.7-0.7 3.5-0.7 6.3 0 2.7 0 22.3-0.1 43.5-0.2 27.1-0.6 38.9-1.4 39.9-0.8 1.2-0.8 1.3 0.2 0.8 0.9-0.5 1.2 1 1.1 6.5-0.1 4.1-0.7 7.6-1.3 8-0.6 0.4-0.7 0.8-0.1 0.8 0.7 0 1.1 23.1 1.2 66.7 0.2 51.5-0.1 67-1 67.5-0.9 0.6-0.9 0.8 0.1 0.8 0.6 0 1.2 0.5 1.2 1 0 0.5-0.7 0.8-1.5 0.5-0.8-0.3-1.5 0-1.5 0.5 0 0.5 0.8 1.2 1.8 1.6 1.5 0.4 1.5 0.6 0.2 1.4-0.8 0.5-1 1-0.5 1 0.5 0 1 2.4 1 5.4 0 3.3-0.4 5.2-1 4.9-0.5-0.3-0.4 0 0.3 0.8 0.7 0.8 1.2 4.1 1.2 8.1 0 6.2-0.2 6.8-2.2 7.3-1.3 0.2-2.8 0-3.3-0.6q-1-0.9 1.3-0.9c1.2 0 2.4-0.7 2.7-1.5 0.4-1.3 0.2-1.3-2.5 0-2.2 1.1-3.6 1.2-5 0.5-1.1-0.5-2-0.8-2-0.5 0 0.3 1.6 1.4 3.5 2.5 1.9 1.1 4.4 1.8 5.5 1.5 1.6-0.4 2 0 2 2 0 1.7-0.9 3-2.7 4-1.6 0.8-2.5 1.4-2 1.5 0.4 0 1.6-0.5 2.7-1 1.9-1 2-0.7 1.8 8-0.2 5-0.6 9-1 9-0.5 0-0.7-0.5-0.5-1.2 0.1-0.6-0.7-1.3-1.8-1.6-1.1-0.2-2.5 0.2-3 0.8-0.7 0.9-0.4 1 1.5 0.4 1.8-0.6 2.3-0.4 1.8 0.4-0.5 0.7-0.3 1.2 0.4 1.2 0.9 0 0.9 0.3 0 1.2-0.9 1-1.4 1-2.7 0-1.2-1-2-0.8-4.2 1.3-1.6 1.4-2.5 2.7-2 3 0.4 0.3 1.6 0 2.7-0.5 1.5-0.7 2.4-0.6 3.5 0.5 0.8 0.8 2.1 1.5 2.8 1.5q1.2 0-0.3-0.9c-1.3-0.7-1.2-1 0.5-2 1.1-0.6 1.4-1.1 0.8-1.1-0.7 0-1.1-0.5-0.8-1 0.3-0.5 1-1 1.5-1 0.6 0 0.9 2.5 0.8 5.9-0.2 3.2 0 5.7 0.5 5.5 0.4-0.2 0.7 0.2 0.7 0.8 0 0.7 1.4 2.7 3.2 4.5 3.3 3.1 3.4 3.2 14.5 3.5 6.1 0.2 10.9 0 10.7-0.5-0.2-0.4 1.9-0.8 4.7-1q5.2-0.2 5.5 1c0.2 0.7 1 1 1.7 0.7 0.9-0.5 0.8-0.9-0.3-1.5-1.3-0.8-1.3-0.9 0-1 0.8 0 2.7-0.1 4.3-0.2q2.7-0.2 2.2 1c-0.3 0.9 0.2 1.1 1.8 0.8 1.6-0.4 2.2-0.1 2.2 1.2 0 1-0.5 2.4-1.2 3-0.6 0.7-1.4 1.3-1.7 1.3-0.3 0-0.3-0.6 0.1-1.3q0.8-1.2-0.5-0.5c-0.7 0.5-1.3 0.3-1.5-0.5-0.2-0.7-0.7-0.3-1.1 0.8-0.4 1.1-0.4 1.7 0.1 1.2 0.4-0.4 1.6 0.1 2.5 1 1.7 1.7 1.8 1.7 2.4-0.2 0.6-1.7 0.8-1.8 1.6-0.5 0.7 1.1 0.9 0.6 0.6-1.7-0.2-1.8 0-3.3 0.5-3.3 0.4 0 1.1-0.1 1.6-0.3 0.5-0.1 1.3-0.6 1.8-1.1 0.4-0.5 0.3-0.6-0.4-0.3-0.7 0.4-1.3 0.1-1.3-0.6q0-1.2-1 0.3-1 1.5-1 0.2c0-0.8-0.8-1-2.2-0.6-1.3 0.4-2.1 0.4-1.8 0 0.3-0.3 2.2-1.1 4.3-1.6q3.7-1 3.2 0c-0.3 0.5 0 1 0.5 1 0.5 0 1-0.5 1-1 0-0.5 0.9-1 2-1 1.2 0 1.8 0.5 1.4 1.2-0.3 0.7 0.2 0.4 1.1-0.7 1.2-1.5 2.8-2 6.8-2 2.9 0 5.7-0.5 6.2-1.2 0.5-0.6 2.6-1.6 4.5-2.1 3.4-0.9 3.5-0.8 3.8 1.9 0.1 1.6-0.1 2.7-0.5 2.5-0.5-0.2-0.8 0.6-0.8 1.9 0 1.3 0.3 2.1 0.8 1.9 0.4-0.2 0.5-0.9 0.2-1.4-0.3-0.5 0.5-1.4 1.8-1.9 1.2-0.5 2.5-0.7 3-0.5 0.4 0.2 0.7-0.1 0.7-0.6 0-0.5-0.9-0.8-2-0.5-1.7 0.4-2 0.1-1.7-2.4 0.2-2.4 0.5-2.7 1.6-1.8 1.2 0.9 1.3 0.9 0.8-0.1-0.5-0.8 0.3-1.5 2.1-2.1 1.5-0.5 3.6-1.2 4.7-1.5 1.1-0.3 2.3-0.6 2.8-0.6 0.4 0 2.8-0.9 5.5-2 2.6-1.2 5.3-1.8 6-1.5 0.6 0.3 1.2 0 1.2-0.5 0-0.5 1.9-1.7 4.3-2.6 2.6-1 4.8-1.3 5.7-0.8 1.1 0.7 1.3 0.5 0.7-0.4-0.5-0.8 1-2 4.6-3.8 3.2-1.6 6-2.4 7.5-2 1.7 0.5 2.1 0.2 1.7-0.9-0.3-0.9 0.2-1.6 1.3-1.7 0.9 0 2.3 0 3 0 0.6 0.1 1.1-0.3 1-1-0.2-0.7 1.4-1.7 3.5-2.3 2-0.5 3.7-1.6 3.7-2.3 0-0.6 0.8-1.4 1.8-1.7 0.9-0.3 2.1-0.4 2.7-0.2 0.5 0.1 0.9 0.5 0.7 0.9-0.1 0.5 0.3 0.6 0.8 0.3 0.5-0.3 0.7-1.1 0.4-1.8-0.3-0.6 0.2-1.8 1-2.5 0.9-0.6 2.3-1 3.1-0.7 1 0.3 1.5-0.1 1.5-1.3 0-1.5 0.1-1.5 1.8 0.3 1.1 1.1 1.8 2.3 1.6 2.7-0.2 0.5-0.9 0.6-1.4 0.3-0.5-0.3-1 0-1 0.5 0 0.5 0.3 1 0.8 1 0.4 0 1.4-0.4 2.2-1 1.3-0.8 1.3-1.1-0.2-2.9-1.7-2-1.7-2.1 0-3 0.9-0.4 2.4-1.5 3.2-2.2 0.9-0.8 3-2.4 4.8-3.7 1.7-1.2 3.5-2.2 4-2.2 0.4-0.1 0 0.7-0.8 1.7-1.4 1.6-1.4 1.7 0.3 0.5 0.9-0.6 1.5-1.5 1.2-2-0.3-0.4 1.4-2.3 3.6-4.2 2.3-1.9 5.7-4.9 7.7-6.5 1.9-1.6 4.7-3.1 6.1-3.2 1.4-0.2 3.5-0.3 4.6-0.3 1.6-0.1 1.7-0.2 0.5-1-0.9-0.5-2.2-0.5-3.2 0.1-1 0.5-2 0.8-2.3 0.6-0.3-0.1 1.2-1.4 3.2-2.8 2.1-1.5 6.1-4.8 8.8-7.3 3.7-3.5 5.2-4.4 5.8-3.4q0.9 1.3 0.3-0.5c-0.4-1.2 0.8-3.1 4.2-6.2 4.4-4.3 4.8-4.5 6.1-2.8 1.2 1.7 1.3 1.6 0.7-0.5-0.4-1.5 0.1-2.8 1.7-4.2 1.2-1 1.9-1.9 1.5-2-0.5 0 1-1.9 3.2-4.3 2.2-2.3 4-4.7 3.9-5.2 0-0.5 0.7-0.3 1.6 0.5 1.5 1.4 1.6 1.3 0.8-0.3-0.6-1.4-0.1-2.4 1.7-4.1 1.4-1.3 4-3.9 5.8-6 1.7-2 3.2-3.9 3.2-4.4 0.1-0.4 1.2-1.7 2.5-3 1.4-1.2 2.2-2.4 1.8-2.7-0.5-0.3 0-0.5 1-0.5 0.9 0 1.7 0.6 1.7 1.2 0 0.7 0.7 1.3 1.5 1.3 0.8 0 1.5-0.2 1.5-0.5 0-0.3-0.9-1.1-2-1.8-1.1-0.6-2-1.5-2-2 0-0.4 1.8-2.6 4-5 2.2-2.3 4-4.7 4-5.2 0-0.5 0.7-1 1.5-1 0.8 0 1.4-0.8 1.3-1.8-0.1-0.9 0.9-3.2 2.2-5 1.4-1.8 2.6-2.9 2.8-2.3 0.1 0.6-0.6 1.8-1.5 2.6-1.7 1.3-1.6 1.3 0.6 0.7 1.9-0.6 2.2-1.2 1.7-3.5-0.5-2.1 0-3.3 2.2-5.4 1.5-1.4 2.1-2.3 1.5-2q-1.3 0.7-0.8-0.8c0.3-0.8 1-1.3 1.5-1 0.5 0.3 0.8-0.2 0.5-1-0.3-0.9 0.1-1.5 1-1.5 0.8 0 1.7 0.6 1.9 1.2 0.4 1 0.5 1 0.5 0 0.1-0.6-0.6-1.4-1.4-1.7-1.3-0.4-1.3-0.9-0.3-3.3 0.7-1.5 1.6-2.9 2.1-3.2 0.5-0.3 0.9-1 1-1.5 0.1-0.5 0.5-0.9 0.9-0.8 0.5 0.2 0.6-0.2 0.3-0.7-0.3-0.5 0.3-2.6 1.3-4.5q1.7-3.5 2.4-2.2c0.5 0.8 0.8 0.7 0.8-0.6 0-1.2 0.8-1.7 2.8-1.8 1.5-0.1 3-0.1 3.5 0 0.4 0 0.7-0.4 0.7-0.9 0-0.6-1.2-0.7-2.7-0.4-1.6 0.3-3.4 0.8-4 1-0.7 0.2-1.1-0.2-0.9-0.9 0.2-0.6 0.9-1.1 1.5-1 0.6 0.2 1 0 1-0.5-0.1-0.4 0-1.6 0.1-2.7 0.1-1.1 0.3-1.4 0.6-0.8 0.2 0.7 0.9 1.3 1.4 1.3 0.5 0 0.9-0.6 0.8-1.3-0.2-0.6-1-1.5-1.8-2-0.9-0.4-0.4-0.5 1.3-0.2 2.2 0.4 2.8 0.1 3.3-1.8 0.3-1.2 0.1-2.7-0.5-3.2-0.8-0.7-0.9-0.3-0.6 1.2 0.3 1.3 0 2.3-0.5 2.3-0.5 0-0.9-1.2-0.7-2.8 0.2-1.5 1.6-6 3.3-10 2.2-5.4 3.3-7.1 4.4-6.6 1.2 0.5 1.3 0.3 0.3-1-0.9-1-1-2-0.4-2.9 0.6-0.6 1.3-3.2 1.8-5.6 0.6-3.1 1.5-4.8 3.3-5.8 2.3-1.3 2.3-1.4 0.3-0.9-1.3 0.3-2.3 0.5-2.3 0.3 0-0.1 0.8-2.5 1.8-5.2 1.1-2.9 2.2-4.5 2.5-3.8 0.4 0.7 1.3 1.3 2 1.3 0.6 0 0.2-0.8-1.1-1.8-2-1.5-2.2-2.1-1.2-4.5 0.5-1.5 1.3-4.2 1.6-6 0.3-1.7 0.8-4.2 1-5.5 0.2-1.2 0.6-3.2 0.8-4.5 0.2-1.2 0.9-4.9 1.6-8.2 0.7-3.3 1.4-7.4 1.5-9 0.2-1.6 0.4-3.6 0.4-4.3 0.1-0.6 0.6-1 1.1-0.7 0.5 0.3 1 0 1-0.5 0-0.6-0.5-1-1-1-0.5 0-0.8-0.8-0.6-1.8 0.3-0.9 0.8-5.1 1.2-9.2 0.5-4.1 0.8-13 0.9-19.8 0-7.4 0.4-12.2 1-12.2q1 0 0-0.8c-0.5-0.4-1-1.9-1-3.4 0-1.6 0.3-2.8 0.8-2.8 0.4 0 0.8 0.5 1 1.1 0.1 0.6 1 0.1 2-1 1.3-1.6 1.4-2.3 0.5-2.8q-1.3-0.8-0.5 0.5c0.4 0.6 0.2 1.4-0.3 1.7-0.5 0.3-1 0-1-0.5 0-0.6-0.6-0.9-1.2-0.8-0.9 0.2-1.3-1.2-1.3-4.5 0-2.6-0.5-4.7-1-4.7-0.5 0-0.3-0.4 0.5-0.9 1-0.6 1.2-1.3 0.5-2.2-0.5-0.8-1-2.1-1.2-2.9-0.1-0.8-0.5-3.9-0.8-6.8-0.3-2.8-0.7-5.5-0.9-6-0.3-0.4-0.8-4.3-1.1-8.7-0.4-4.4-0.8-8.9-0.9-10-0.1-1.1-0.6-3.1-1-4.5-0.5-1.7-0.4-2.7 0.6-3.2 0.9-0.6 1-0.8 0.1-0.8-0.7 0-1.1-0.5-0.8-1 0.3-0.6 0.2-1-0.2-1-0.5 0-1.3-1.6-2-3.7-0.7-2.1-1.4-5.3-1.7-7.1-0.4-2-0.2-3 0.4-2.7 0.5 0.3 1.9-0.1 2.9-0.8 1.1-0.7 1.6-1.8 1.3-2.6-0.5-1-0.2-1.1 1.3-0.6 1.6 0.5 1.7 0.5 0.5-0.3-1-0.7-2.1-0.7-3.5 0-1.1 0.6-2.2 1.3-2.5 1.6-0.3 0.3 0.3 0.2 1.3-0.1q1.7-0.7 1.3 0.5c-0.1 0.7-0.7 1.4-1.2 1.5-0.5 0.2-1.5-0.1-2.2-0.5-0.7-0.4-1.6-2.3-2.1-4.2-0.6-1.9-1.3-4.6-2.4-8.5l2.2 2.5c1.2 1.4 2.1 2 2.1 1.5 0-0.6-1.1-2.1-2.4-3.5-1.3-1.4-3.3-5.1-4.5-8.3-1.3-3.6-1.8-6.1-1.2-7 0.6-0.8 0.4-1.9-0.5-3.2-0.8-1.1-1.4-1.6-1.4-1-0.1 0.5-0.5 0.2-1-0.8-0.6-0.9-0.8-2.2-0.5-2.7 0.3-0.6 0.2-1.2-0.2-1.4-0.5-0.2-1.8-2.2-3-4.5-1.3-2.2-2-4.4-1.5-4.7 0.4-0.3-0.2-1.2-1.3-2-1.1-0.7-1.7-1.7-1.3-2.1 0.4-0.5-0.1-2-1.2-3.6-1.1-1.5-1.7-2.7-1.2-2.7 0.4 0-0.1-0.5-1-1-1-0.6-1.8-1.5-1.8-2 0-0.6 0.8-0.7 1.8-0.3 1.2 0.5 1.5 0.4 1-0.5-0.5-0.6-1.4-1.2-2-1.2-0.7 0-1.9-1.2-2.5-2.8-1-2.1-1-2.9 0-3.5 0.7-0.5 0.4-0.6-0.8-0.2-1.4 0.4-2.2 0-2.7-1.2-0.4-1-1.5-3.4-2.4-5.3-1.4-3.2-1.4-3.4 0-2.8 0.9 0.5 1.6 0.4 1.6-0.2 0-0.6-0.9-1-2-1-1.1 0-2.3-0.8-2.7-1.8-0.4-0.9-1.7-2.8-3-4.2-1.3-1.4-2.3-2.8-2.3-3.3 0-0.4 0.6-0.4 1.3-0.1 0.6 0.4 0-0.4-1.5-1.7-1.5-1.3-2.7-3-2.8-3.7 0-0.6-0.5-1.2-1-1.2-0.5 0-1.2-0.8-1.5-1.8-0.3-0.9 0-2 0.7-2.4 0.8-0.4 1-1.3 0.5-2.5-0.7-1.7-0.8-1.7-2.3 0.2-1.5 1.9-1.5 1.9-0.8-0.5 0.6-1.8 0.4-2.3-0.4-1.8-0.7 0.5-2 0-3-1-0.9-0.9-2.5-2.9-3.5-4.5-0.9-1.5-1.5-3.4-1.2-4.2 0.3-0.9-0.1-1.5-1-1.5-0.8 0-1.5-0.6-1.5-1.3 0-0.6-0.3-0.9-0.7-0.5-0.5 0.5-1.4 0.3-2-0.2-0.7-0.6-1.1-1.9-0.8-3 0.3-1.1 0-2-0.5-2-0.5 0-0.8 0.4-0.5 1 0.3 0.5 0 1-0.5 1-0.5 0-2.5-1.6-4.2-3.6-1.8-2-3.3-3.9-3.3-4.4 0-0.4-1.5-1.9-3.2-3.4-2-1.5-3-3.1-2.6-3.9 0.3-0.6 0.3-0.9 0-0.5-0.4 0.5-1.8-0.2-3.1-1.5-1.3-1.2-5.7-5.4-9.8-9.2-4.1-3.9-9.5-8.6-12.1-10.5-2.5-1.9-4.8-4.3-5.1-5.3-0.4-1-1.2-1.5-2.1-1.2q-1.5 0.5-1.5-1.5c0-1.2-0.5-1.8-1.2-1.5-0.7 0.3-2.3-0.4-3.5-1.5-1.3-1.1-3-2-3.8-2-0.8 0-1.7-0.7-2-1.5-0.3-0.8 0.1-2.2 0.8-3 1-1.3 1-1.6 0-1.5-0.7 0-1.5 0.9-1.8 2-0.4 1.8-0.7 1.8-2 0.5-0.8-0.8-2.4-1.7-3.5-2-1.1-0.3-2-1-2-1.5 0-0.6 0.5-0.8 1-0.5 0.5 0.3 1 0 1-0.5 0-0.6-0.8-0.9-1.7-0.7-1 0.2-3.5-0.5-5.5-1.5-2.1-1-3.8-2.3-3.8-2.8 0-0.6-0.7-1-1.5-1-0.8 0-2.1-0.6-2.8-1.3-0.7-0.6-1.8-1.3-2.5-1.5-0.6-0.1-2.4-1-3.8-2-1.8-1.2-2.2-1.9-1.2-2.4 0.7-0.4 1.7-0.2 2.1 0.5 0.7 0.9 0.8 0.9 0.5-0.1-0.2-0.6-0.8-1.2-1.3-1.3-0.5 0-1.9-0.8-3-1.7-1.9-1.6-1.9-1.6-0.7 0 0.6 1 0.9 1.9 0.5 2.1-0.5 0.2-3.7-1.2-7.3-2.9-3.6-1.8-5.9-3.3-5.2-3.3 0.6-0.1 1.2-0.4 1.2-0.9 0-0.4-1.7-0.8-3.8-1-2-0.1-5.3-1.1-7.2-2.1-1.9-1.1-5.6-2.8-8.2-4-2.7-1.2-5.3-1.9-5.8-1.6-0.5 0.3-1.2-0.1-1.4-0.8-0.2-0.6-3.1-2.1-6.5-3.2-4-1.3-5.7-2.3-4.8-2.8 0.7-0.5-0.2-0.6-2-0.3-2.5 0.5-3.3 0.2-3.3-0.9q0-1.5-2-1c-1.1 0.3-2 0-2-0.5 0-0.6-0.8-0.7-1.7-0.3-1.3 0.5-1.6 0.4-1-0.5 0.4-0.6 0.2-1.4-0.3-1.7-0.5-0.3-0.9 0-0.7 0.6 0.1 0.6-0.4 1.3-1 1.5-0.7 0.2-1.3-0.1-1.3-0.6 0-0.6-1.8-1.2-4-1.5-2.3-0.3-4.3-1.2-4.7-2.1-0.5-1-0.2-1.9 0.7-2.4 1.3-0.8 1.3-1-0.3-1.7-0.9-0.4-2-0.5-2.4-0.1-0.3 0.5-0.1 0.8 0.5 0.8 0.7 0 1 0.7 0.7 1.5-0.3 0.9-1.7 1.5-3.5 1.5-1.6 0-3-0.5-3-1 0-0.6-0.5-0.8-1-0.5-0.5 0.3-3.6 0-6.7-0.6-3.2-0.6-7.6-1.5-9.8-2.1-2.2-0.5-4.9-1.7-6-2.6q-2-1.7-0.7-0.2c0.7 0.8 1.2 1.9 1.2 2.5 0 0.5-1-0.1-2.2-1.5-1.7-2-2-2.1-1.4-0.5 0.7 1.7 0.5 1.9-1 1.1-1.1-0.5-2.8-0.9-3.9-0.9-1.1 0-6.3-0.6-11.5-1.4-6.4-0.9-17.8-1.4-34.5-1.3-13.7 0-26.6 0.2-28.5 0.4-1.9 0.1-5.5 0.6-8 1-2.5 0.4-6.7 0.9-9.5 1.1-2.7 0.2-6.9 0.9-9.2 1.5-2.4 0.5-4.7 0.8-5.3 0.5-0.6-0.3-1.2-0.1-1.5 0.5-0.3 0.5-1.5 0.9-2.7 0.9-1.3-0.1-4.8 0.7-7.8 1.8-4.2 1.5-6 1.7-7.5 0.9-1.5-0.8-1.8-0.8-1.2 0.2 0.4 0.8-0.1 1.4-1.5 1.6-1.3 0.3-2.9 0-3.6-0.7-1.1-1-1.3-0.9-0.8 0.3 0.4 0.8 0.1 1.5-0.6 1.6-0.7 0-6.9 1.9-13.8 4.2-6.9 2.3-14.4 4.8-16.8 5.7-2.3 0.8-4.8 1.2-5.4 0.8q-1.3-0.8-0.5 0.5 0.7 1.2-2.3 2.2c-1.6 0.5-3 0.7-3 0.2 0.1-0.4-0.6-0.1-1.5 0.5-0.8 0.7-2.1 1-2.7 0.6q-1.3-0.8-0.5 0.5c0.4 0.7-0.1 1.6-1.3 2.2-1.5 0.7-2 0.7-2.1-0.3 0-1-0.1-1-0.5 0-0.2 0.7-0.8 1.3-1.4 1.3-0.6 0-0.9-0.3-0.9-0.8 0.1-0.4 0.1-1.2 0-1.7 0-0.6-0.6-0.1-1.3 0.9-0.7 1-1.9 1.6-2.5 1.3-0.7-0.4-1.1-1.2-0.8-1.7 0.3-0.6 0.1-1-0.5-1-0.6 0-1 0.7-1 1.5 0 0.8 0.6 1.7 1.3 1.9 0.6 0.3 0.3 0.5-0.8 0.5-1.7 0.1-1.7 0.3-0.5 1.1 0.8 0.5 1.2 1.3 0.8 1.7-0.4 0.4-1.3 0.3-2-0.3-1-0.9-1.7-0.7-3 0.7-1.1 1.2-1.2 1.9-0.5 1.9 0.7 0 0.6 0.4-0.3 0.9-0.8 0.5-2.1 0.7-2.7 0.5-0.7-0.2-1.3 0-1.3 0.6 0 0.5-0.3 1-0.7 1-0.5 0-1.8-0.9-3-2-1.3-1.1-3.1-1.9-4-1.9-1.7 0.1-1.7 0.2 0 0.5 1 0.2 1.5 1 1.2 1.9q-0.5 1.5 1.8 1.8c2.2 0.3 2.2 0.4-0.3 1.4-1.4 0.6-3.2 1.8-4 2.7-0.8 0.9-1.9 1.7-2.5 1.7-0.6 0-1.6 0.7-2.2 1.7-1.1 1.5-1.4 1.5-2.2 0.2-0.7-1.2-1-1.1-1.5 0.7-0.4 1.7-1.1 2.1-2.3 1.6-1.3-0.5-1.6-0.4-1 0.5 0.4 0.7-0.1 1.5-1.5 2.1-1.3 0.5-3.8 2.3-5.5 4-1.8 1.7-3.3 2.9-3.3 2.6 0-0.3-0.6 0-1.2 0.5-0.7 0.6-3.8 2.9-6.8 5.2-3 2.4-5.7 4.5-6 4.8-0.3 0.3-2.3 1.8-4.5 3.5-2.2 1.6-4.3 3.5-4.7 4.2-0.5 0.8-1.7 1.1-3 0.7-1.4-0.3-1.8-0.2-1 0.3 0.9 0.6 0.4 1.6-1.8 3.8-1.6 1.6-3.3 2.6-3.7 2.2-0.5-0.4-0.1-1.2 0.7-1.7 1.3-0.8 1.3-1.1 0.1-2.2-1-1-1.2-1-0.7-0.1 0.3 0.7 0.2 1.3-0.4 1.3-0.6 0-0.7 1.2-0.4 2.7 0.6 2.5 0.4 2.7-1.2 2-1.1-0.5-1.6-0.5-1.1 0 0.4 0.4-1.3 2.7-3.8 5-2.5 2.4-4.2 4.5-3.7 4.8 0.4 0.3 0 0.6-0.8 0.6-0.8 0.1-2.2 0.1-3 0q-1.4 0-0.2 0.4c0.6 0.3 1.2 0.9 1.2 1.5 0 0.5-0.6 0.8-1.2 0.6-0.7-0.2-1.9 0.9-2.5 2.5-0.9 2-2 2.9-3.5 2.9-1.8 0-2 0.2-0.8 0.9 1.3 0.8 1.3 0.9 0 1.6-0.8 0.4-1.9 0.2-2.5-0.4-0.6-0.6-1.3-1.1-1.7-1.1-0.5 0-0.8 0.4-0.8 1 0 0.5 0.9 1.2 2 1.5 1.1 0.3 2 0.9 2 1.5 0 0.5-1 0.7-2.2 0.4-1.3-0.3-1.8-0.2-1.1 0.3 0.7 0.5-0.9 3.3-5.3 8.8-3.6 4.4-7 7.8-7.7 7.7-0.7-0.2-0.9 0-0.5 0.5 0.4 0.4 0.2 1.7-1.5 4.8l-0.8-2c-0.7-1.9-0.8-1.9-0.8 0.2-0.1 1.3-0.2 2.7-0.3 3.1-0.2 0.5-2.3 4-4.8 7.9-2.5 3.9-4.8 7-5.2 6.7-0.5-0.2-0.8 0.7-0.8 2.1 0 1.8-0.5 2.5-2 2.5-1.1 0-2.7 0.2-3.5 0.5-0.9 0.3-1.3 1.3-1 2.5 0.3 1.4 1 1.8 2.3 1.4 1-0.4 1.3-0.3 0.5 0.3-0.6 0.4-2.5 3.8-4.2 7.5-1.7 3.8-3.5 6.8-4.1 6.8-0.6 0-0.8 0.4-0.5 1 0.3 0.5-0.9 3.6-2.5 6.7-1.7 3.2-3.5 7.3-4 9-0.6 1.9-1.5 3.1-2.2 2.9-0.7-0.2-2.1 0.1-3 0.5-1 0.5-1.8 1.6-1.8 2.4 0 0.8-0.6 1.7-1.2 1.9-0.7 0.2-0.3 0.3 0.8 0.2q2.1-0.1 1.5-1.5c-0.4-0.9-0.1-1.1 1.2-0.7 0.9 0.3 1.7 0.9 1.7 1.3 0 0.5-0.7 1.7-1.5 2.8-0.9 1.1-1.5 1.4-1.5 0.7 0-0.6-0.4-1.2-1-1.2q-1 0 0 2c0.6 1.1 1 2.2 1 2.5 0 0.3-1.2 1.2-2.7 2-2 1-2.3 1.4-1 1.5 0.9 0 1.5 0.6 1.4 1.2-0.2 0.7-1.5 1.6-2.8 2q-2.4 0.6-0.6 0.7c0.9 0.1 1.7 0.5 1.7 1.1 0 0.5-0.3 0.8-0.7 0.6-0.5-0.2-0.8 1.4-0.8 3.6 0 2.8-0.6 4.3-2 5.3-1.6 1.1-1.7 1.4-0.5 1.8 1.2 0.3 1.2 0.7 0.3 1.8-0.6 0.8-1.5 3.1-2 5.3-0.4 2.1-1.1 4-1.5 4.2-0.5 0.2-0.8-0.2-0.8-0.9q0.1-1.2-1.7 0.5c-1 0.9-2.7 1.6-3.8 1.4-1.1-0.2-1.4-0.2-0.7 0 0.6 0.2 1.2 0.8 1.2 1.4 0 0.5 0.7 1 1.5 1 0.8 0 1.3-0.5 1-1-0.3-0.6 0.1-1 0.8-1 0.6 0 1.2 0.7 1.2 1.5 0 0.8-0.6 1.5-1.2 1.5-0.7 0-1.3 0.4-1.3 1 0 0.5 0.4 1 1 1 0.6 0 1 0.3 1 0.7 0 0.5-1.1 1.4-2.5 2-1.4 0.7-2.5 1.9-2.5 2.5-0.1 1 0.2 1 1.5 0 1.2-1 1.6-0.9 2 0.5 0.3 1 0.3 2.6 0 3.5-0.3 1.1-1.1 1.6-2 1.3-0.8-0.3-2.3-0.8-3.2-1.2-1.5-0.6-1.6-0.4-0.5 1 1 1.4 0.9 1.9-0.7 2.9-1.6 1.1-1.7 1.5-0.5 2.5 0.8 0.8 2.1 1 2.9 0.5 0.9-0.4 1.8-1.3 2-2 0.3-0.6 0.1-1.2-0.3-1.2-0.4 0-1.3 0.6-2 1.2-0.7 0.7-1.2 1-1.2 0.5 0-0.4 0.6-1.3 1.3-2 0.6-0.8 1.8-1.2 2.5-1 0.6 0.2 1.2 1.2 1.2 2.3 0 1.1-0.4 2-1 2-0.6 0-0.8 0.7-0.5 1.5 0.3 0.8 0.1 1.5-0.5 1.5q-1 0 0 2.5c0.9 2.3 0.8 2.5-1.7 2.5-2.4-0.1-2.5-0.2-1-1 1.2-0.7 1.4-1.4 0.7-2.5-0.7-1.1-0.6-1.6 0.8-2 0.9-0.3 1.4-0.7 1-1-0.5-0.3-2.1 0.2-3.8 1-1.7 0.8-3 1.7-3 2 0 0.3 0.4 0.3 1 0 0.6-0.3 1.8-0.1 2.8 0.4 1.5 0.8 1.5 0.9-0.5 1.5-1.3 0.3-2.7 1.5-3.3 2.6-0.7 1.4-0.7 2.1 0.3 2.4 0.6 0.2 1.9 0 2.7-0.5 1.3-0.7 1.2-0.9-0.2-0.9-1 0-1.6-0.5-1.3-1 0.3-0.6 1.3-0.7 2.8-0.1 1.3 0.5 2.1 1.6 2 2.7-0.2 1.1-0.5 3.7-0.7 5.9-0.3 2.2-0.5 4.6-0.5 5.2-0.1 0.7-0.8 1.3-1.6 1.3-0.8 0-1.5 0.4-1.5 1 0 0.5 0.7 0.8 1.5 0.5 0.8-0.3 1.5-0.3 1.5 0 0 0.3-0.8 1.7-1.7 3.2-1.7 2.7-1.7 2.7 0 1.3 1-0.8 1.8-1.1 1.7-0.5 0 0.5-0.4 2-0.8 3.2-0.6 1.8-1 2-2.2 1.1-1.3-1.1-1.3-1 0 0.5 0.9 1 1.4 3.1 1.3 5.2-0.2 2.5-0.7 3.3-1.5 2.8-0.8-0.4-0.7 0.1 0.2 1.1 1.3 1.5 1.3 1.7 0 1.7q-1.4 0.1-0.2 0.5c0.6 0.2 1 0.8 0.7 1.4-0.3 0.5-0.1 1.9 0.5 3 0.6 1.1 0.7 2.2 0.3 2.4-0.5 0.3-0.7 1.6-0.5 3 0.1 1.5-0.3 2.7-1 2.7-0.7 0.1-1.6 0.1-2 0-0.5 0-0.6 0.3-0.3 0.9 0.3 0.5-0.1 1.2-0.7 1.4-0.7 0.2-1 0.6-0.5 1 0.4 0.3 1.3-0.1 2.1-0.9 0.8-0.8 1.8-1.5 2.3-1.5 0.4 0 0.8 0.9 0.8 2 0 1.6-0.7 2-3 2-2.4-0.1-2.8 0.2-1.8 1.2 0.7 0.7 1 1.6 0.6 2.1-0.3 0.4-1.8 0.7-3.2 0.7-1.4 0-2.4 0.2-2.1 0.4 0.3 0.3 2.3 0.7 4.5 1 3.1 0.4 3.7 0.2 2.8-0.7-0.6-0.7-1-1.8-0.7-2.5 0.2-0.6 1.1-1.2 1.9-1.2 1.1 0 1.4 1 1.3 4.2-0.2 2.7-0.9 4.6-1.8 5-1.2 0.5-1.2 0.7 0.3 0.7 1.4 0.1 1.7 1 1.6 5.8-0.1 3.2 0 6 0.1 6.3 0.1 0.3 0.3 1.6 0.5 3 0.2 1.4 0.5 4.1 0.7 6.2 0.2 2 0.6 4 1 4.5 0.5 0.4 0.2 1.4-0.5 2.1-0.9 1-0.9 1.3 0.1 1.2 0.6 0 1.6 1.8 2.2 4q1 4 0 4.5c-0.6 0.3-1.8 0-2.7-0.7-1.5-1-1.6-1-0.5 0.2 0.7 0.8 1.2 1.9 1.2 2.5 0.1 0.5-0.9 0.1-2.1-1-1.3-1.1-2-1.6-1.8-1 0.3 0.5-0.8 2.4-5.3 7l0.6-3.8c0.4-2.2 0.2-3.7-0.4-3.7-0.6 0-0.8-0.7-0.5-1.5 0.3-0.8 0.1-1.7-0.5-2-0.6-0.3-1-1-1-1.5 0-0.6 0.6-1 1.3-1 0.6 0.1 1.9-0.6 2.7-1.5 1.1-1.1 1.1-1.6 0.3-1.5-0.7 0-1.3 0.4-1.3 1 0 0.5-0.7 1-1.5 1-0.8 0-1.5-0.3-1.6-0.8 0-0.4-0.2-1.7-0.5-3-0.2-1.2 0-2 0.6-1.7 0.6 0.3 1.2-0.2 1.5-1 0.3-0.8 0.1-1.3-0.5-1-0.6 0.3-1.4-0.3-1.9-1.3-0.5-0.9-1-6.1-1.2-11.4-0.3-6.1 0-9.8 0.6-9.8 0.6 0 0.5-0.4-0.1-0.8-0.7-0.4-1.3-2.9-1.5-5.5-0.4-4.2-0.2-4.7 1.4-4.3 0.9 0.4 1.7 0.1 1.7-0.4 0-0.6-0.7-1-1.5-1-1.1 0-1.4-0.7-1-2.5 0.3-1.5 0.1-2.3-0.5-2-0.6 0.3-0.8-0.1-0.6-0.8 0.3-0.6 0.7-5 1-9.7 0.4-4.7 1.2-9.1 1.9-9.8 0.9-1 0.9-1.3 0-1.2-1 0-1.2-1.6-0.7-6.3 0.3-3.4 0.8-7.6 1-9.2 0.3-1.6 0.6-5 0.8-7.5 0.1-2.5 0.6-4.4 1.1-4.3 0.6 0.1 1-1.5 0.9-3.5 0-2.1 0.5-4.6 1.2-5.7 0.7-1.1 1-2.8 0.8-3.8-0.2-0.9 0-1.7 0.6-1.7 0.6 0 1.2 0.8 1.4 1.7 0.3 1.3 0.4 1.1 0.5-0.5 0.1-1.3-0.5-2.2-1.4-2.2-0.8 0-1.3-0.5-1-1 0.3-0.6 1.2-0.8 2-0.5 1.2 0.4 1.2 0-0.2-2.1-1.7-2.5-1.7-2.6 0-2 0.9 0.3 1.7 0.1 1.7-0.4 0-0.6-0.4-1-1-1-0.6 0-1-0.7-1-1.5q0-1.5 3-1.5c1.7 0 3 0.4 3 1 0 0.5-0.6 0.8-1.2 0.6-0.7-0.2-1.3 0.5-1.3 1.4 0 1.4 0.4 1.6 1.8 0.9 0.9-0.5 1.7-1.8 1.7-2.9 0-1.6-0.7-2-3.5-2-1.9 0-3.5-0.1-3.5-0.3 0.1-0.1 0.9-2.7 2-5.7 1-3 2.3-5.5 2.8-5.5 0.6 0 1.4-0.4 1.9-0.9 0.5-0.5 0.3-0.6-0.3-0.1-0.8 0.5-1-0.5-0.6-3.6 0.2-2.4 1.7-7.8 3.3-11.9 1.6-4.1 2.7-7.7 2.4-8-0.2-0.3 0.2-1.7 1-3.3 0.8-1.5 1.9-2.5 2.5-2.2 0.6 0.3 1 0 1-0.5 0-0.6-0.4-1.1-0.9-1.3-0.5-0.1 0-2 1.1-4.2 1.1-2.2 2.1-4.9 2.4-6 0.2-1.1 1.5-4.3 2.9-7 1.3-2.8 2.5-4.7 2.5-4.3 0 0.5 0 1.1 0.1 1.5 0.1 0.5 0.5 1.6 1 2.5 0.5 1 1.9 1.8 3.2 1.8 1.7 0 1.9-0.2 0.7-0.9-0.8-0.5-1.2-1.3-0.8-1.7 0.4-0.5 0.2-1.6-0.4-2.4-0.9-1.3-0.9-1.3-0.5 0 0.3 0.8 0.2 2.2-0.3 3-0.6 1.1-1 0.3-1.5-2.5-0.4-2.2-0.5-4.2-0.3-4.5 0.1-0.3 0.5-0.4 0.8-0.3 0.3 0.1 0.6-0.4 0.7-1 0.1-0.7 0.3-2 0.5-3 0.2-1 1-2.4 1.8-3 0.8-0.7 1.5-1.7 1.5-2.2 0.1-0.6 1-2.5 2-4.2 1.1-1.8 2.7-3.3 3.5-3.4q1.5-0.1 0.3-0.5c-0.8-0.2-1-1.1-0.6-2.2 0.4-0.9 1.4-2.4 2.2-3.3 0.9-0.9 2.7-3.8 4.1-6.4 1.4-2.6 3.3-5.3 4.2-5.9 1-0.6 1.6-1.3 1.3-1.6-0.3-0.3 0.4-0.8 1.5-1.3 1.1-0.4 2.2-0.3 2.5 0.3 0.3 0.5-0.1 1.3-0.9 1.7-0.7 0.5-1.9 1.9-2.5 3.3-1 1.9-0.6 1.7 1.7-1 2.5-2.9 2.9-3.9 2-5.5-0.9-1.7-1.1-1.8-1.9-0.5q-0.9 1.5-0.9 0.2c0-0.6 1.3-2.6 3-4.2 1.7-1.7 2.7-3.2 2.3-3.5-0.5-0.3 0-0.7 1-1 0.9-0.3 1.7-1.2 1.7-2 0-0.8 1.1-2.3 2.3-3.3 1.3-0.9 2.7-2.7 3-4 0.5-1.4 1.3-2 2.2-1.7 0.8 0.3 1.7-0.2 2-1 0.3-0.8 0.9-1.3 1.5-1 0.6 0.3 1 0 1-0.5 0-0.6-0.4-1-0.8-1-0.4 0-1.3 0.6-2 1.2-0.7 0.7-1.2 0.8-1.2 0.3 0-0.6 1.5-2.6 6.9-8l3.6 4.5 1-2.3c0.6-1.3 0.7-2.3 0.3-2.1-0.5 0.2-0.8-0.3-0.8-1.1 0-0.8-0.6-1.5-1.2-1.5-0.8 0.1-0.5-0.8 0.7-2 1.1-1.1 2.9-2.1 4-2.1 1.1 0 1.4-0.2 0.8-0.5-1-0.3-0.8-0.9 0.5-2.4 0.9-1.1 2.1-1.6 2.7-1.2 0.5 0.4 0.7 0.3 0.3-0.3-0.4-0.6 0.7-2.4 2.4-4 1.7-1.7 3.5-3 3.9-3 0.4 0 1.1-0.4 1.6-0.9 0.5-0.5 0.2-0.6-0.7-0.1-0.8 0.4 1.4-2.1 5-5.5 3.6-3.5 7.9-7.5 9.5-9 1.6-1.4 4.8-4 7-5.6 2.2-1.6 4.6-3.5 5.3-4.2 0.6-0.6 1.8-0.9 2.4-0.5q1.3 0.8 0.5-0.5c-0.4-0.8 0.8-2.3 3.6-4.3 2.3-1.7 5.7-3.8 7.5-4.5 1.7-0.8 3.4-1.9 3.7-2.4 0.3-0.6 1.2-0.8 2-0.5 0.8 0.3 1.3 0 1-0.5-0.3-0.6 0.2-1.7 1-2.5 1.1-1.1 1.5-1.1 1.6-0.3 0 0.7 0.4 0.3 1-1 0.5-1.2 1.7-2.3 2.7-2.3 0.9-0.1 2-0.1 2.5 0 0.4 0 0.5-0.4 0.2-0.9-0.3-0.6 2-2.4 5-4 3.5-1.9 6.1-2.7 7.1-2.3 1.2 0.6 1.5 0.4 1.3-0.6-0.2-0.9 0.5-1.6 1.6-1.8 1.6-0.3 1.7-0.2 0.5 0.6-0.8 0.6-1.1 1.1-0.5 1.1 0.6 0 1.8-0.9 2.8-2 0.9-1.1 2-1.7 2.5-1.4 0.4 0.4 0.1 0.8-0.5 1-0.7 0.2-1.3 1-1.3 1.6-0.1 0.7-0.8 1.9-1.8 2.6-1.6 1.1-1.6 1.2 0.1 0.7 1.1-0.3 1.7 0 1.7 1 0 0.8 0.2 1.5 0.5 1.5 0.3 0 1.7-0.9 3.3-2 1.7-1.3 2.2-2.1 1.2-2.1q-1.4-0.1-0.2-0.5c0.6-0.2 1.2-1.3 1.2-2.4 0-1.2 0.7-2 1.8-2 1.5 0 1.5-0.2 0.2-1.1-1.2-0.8-1-0.9 1-0.5 2 0.5 2.4 0.3 1.8-0.9-0.5-0.9-0.4-1.3 0.2-1 0.6 0.3 1 0 1-0.5 0-0.6 0.5-0.7 1.2-0.3 0.8 0.6 1 0.1 0.5-1.7-0.4-1.4-0.5-1.9-0.2-1.3 0.3 0.7 1.2 1.3 2 1.3 0.8 0 1.3 0.4 1 1-0.3 0.5-0.1 1.2 0.5 1.5 0.6 0.3 0.9 0.2 0.9-0.3-0.1-0.4-0.1-1.3 0-2 0-0.6 0.5-1 1.1-0.7 0.6 0.3 1.1 0 1.3-0.5 0.1-0.6 0.9-1.2 1.7-1.3 0.8-0.2 2.1-0.6 2.8-1 0.6-0.4 1.6-0.5 2.2-0.2 0.6 0.3 1.2-0.2 1.5-1 0.3-0.8-0.1-1.7-0.7-1.9-0.7-0.3 0.1-0.2 1.7 0.1 1.6 0.3 3.9 0.1 5-0.5 1.3-0.6 2.7-0.7 3.8-0.1 1.3 0.7 1.6 0.6 1.2-0.6-0.3-0.8-0.9-1.3-1.5-1-0.6 0.3-0.8-0.2-0.5-1 0.3-0.8 0.9-1.5 1.5-1.5 0.6 0 1.2 0.6 1.4 1.2 0.3 1 0.8 1 2.5 0 1.1-0.6 2.8-1.2 3.6-1.2 0.8 0 1.9-1 2.4-2.3 0.6-1.4 1-1.7 1.2-0.7 0.1 0.8 0.1 1.8 0 2.2 0 0.5 0.8 0.3 1.9-0.2 1.6-0.8 2-0.7 2 0.5 0 0.8-0.6 1.7-1.2 2-0.7 0.2-0.4 0.3 0.7 0.2 1.4-0.2 1.9-0.9 1.7-2.2-0.2-1.6 0.6-2.3 4-3.3 3.6-1.1 4.4-1.1 4.9 0 0.5 1 0.8 1 1.3 0 0.3-0.6 0.2-1.2-0.4-1.2-0.6 0-0.9-0.9-0.7-2 0.1-1.1 0.6-1.8 1.2-1.6 0.6 0.2 0.9 0.9 0.8 1.5-0.2 0.6 0.4 0.8 1.5 0.5 1.4-0.6 1.5-0.8 0.2-1.4-1-0.6 0.2-1.3 4-2.5 4.6-1.4 5.6-1.5 6.2-0.4 0.6 1.1 0.8 1 0.8-0.4 0-1.2 1.1-1.9 4.3-2.3 2.3-0.4 4.8-0.4 5.5 0 0.6 0.3 1.2 0.1 1.2-0.4 0-0.6 1.9-1.2 4.3-1.5 2.3-0.3 5.6-0.8 7.2-1 1.6-0.3 4-0.7 5.3-1 1.2-0.3 2.2-0.1 2.2 0.5q0 1 1.8 0c0.9-0.6 6-1.4 11.2-1.9 5.2-0.5 19.9-0.9 32.5-0.8zm-40 730.3c1.1 0.1 4.7 0.7 14 2.5l0.7 5.7c0.5 3.1 0.6 5.9 0.3 6.2-0.3 0.3-0.9-0.6-1.5-2-0.5-1.4-1.5-3.2-2.2-4.1-0.7-0.9-3.1-2.5-5.3-3.6-2.5-1.2-5.5-1.8-7.7-1.6-2.1 0.2-5.7 1.2-8 2.2-2.4 1.1-5.1 2.9-6 4-1 1.2-2.5 3.6-3.4 5.4-1.1 2.1-1.7 6-1.8 11.4 0 4.4 0.2 7.9 0.7 7.7 0.4-0.2 1.1 1 1.7 2.6 0.6 1.7 0.7 3 0.3 3-0.5 0-0.2 0.4 0.5 0.8 0.7 0.4 1.4 1.6 1.6 2.7 0.2 1.1 1.2 2.1 2.2 2.2 1 0.2 2.1 0.6 2.4 1.1 0.3 0.4 2.5 1.5 5 2.4 2.6 1 6 1.5 8 1.2 1.9-0.3 5.3-1.5 7.5-2.8 2.2-1.3 5.2-3.8 6.7-5.7 1.5-1.9 2.8-3.2 2.7-2.9 0 0.3-0.6 2.8-1.3 5.5-1.2 4.7-1.5 5.1-6.2 6.7-2.7 0.9-7.9 1.7-11.6 1.7-3.8 0.1-6.8-0.2-6.8-0.6 0-0.5-1.3-0.7-2.8-0.5-1.5 0.2-3.4-0.3-4.2-1.1-0.8-0.8-2.5-1.7-3.7-2.1-1.3-0.3-3.6-2.3-5.2-4.3-1.5-2.1-3.4-4.9-4.1-6.3-0.7-1.4-1.4-5.4-1.6-9q-0.3-6.5 1.1-9.2c0.8-1.6 1.5-3 1.5-3.3 0-0.3 0-0.9 0-1.5 0-0.5 2-3 4.5-5.5 2.8-2.8 5-4.2 5.7-3.7q1.3 0.7 0.5-0.5c-0.4-0.8 0-1.5 1.1-1.9 0.9-0.4 4.2-1.2 7.2-1.8 3-0.6 6.4-1.1 7.5-1zm-160.7 0.4c0.4 0 1.1 0.3 1.5 0.7 0.5 0.5 2.7 0.8 5 0.7 2.3 0 4.8-0.4 5.4-0.7 0.7-0.4 1.6-0.4 1.9-0.1 0.3 0.3-0.1 1-1 1.5-0.9 0.5-2.5 1.9-3.6 3.2-1.1 1.2-1.7 2.4-1.5 2.7 0.2 0.3-0.7 1.1-2 1.8-2.1 1-2.5 1-2.5-0.3 0-0.8 0.7-1.5 1.5-1.5 1.1 0 0.8-0.8-1-2.7-1.4-1.6-3-2.9-3.5-3-0.6-0.2-1.2-0.3-1.5-0.3-0.3 0-0.3-0.4 0-1 0.4-0.5 0.9-1 1.3-1zm116.4 0c0.4 0 0.8 0.3 0.8 0.8 0 0.4-0.9 1.3-2 2-1.1 0.6-2.6 2.7-3.4 4.5-0.8 1.9-1.1 4.5-0.7 6.4 0.4 2.4 0.3 3.1-0.7 2.8-0.6-0.3-1 0-0.7 0.5 0.3 0.6 0.2 1.2-0.3 1.3-0.4 0.2-0.1 0.2 0.5 0 1-0.2 1.2 3.4 1 16.3-0.1 9.4-0.6 16.9-1.2 17.2-0.6 0.5-0.7-0.1-0.2-1.3 0.5-1.1 0.5-1.7 0-1.2-0.4 0.4-3.2-1.7-6-4.5-2.9-2.9-5.3-5.9-5.3-6.5 0-0.7-0.5-1.3-1-1.3-0.6 0-0.8-0.4-0.5-1 0.3-0.5-0.1-1-0.8-1-0.6 0-4.6-3.7-8.7-8.2-4.1-4.5-9-9.8-14.1-15.3v11c-0.1 6.1 0 13.3 0.1 16 0.1 2.8 0.7 6.1 1.3 7.5 0.7 1.4 2.2 3 3.5 3.5 1.2 0.6 2.2 1.2 2.2 1.5 0 0.3-4.4 0.6-19.5 0.9l3.2-1.9c1.8-1.1 3.7-2.9 4.3-4 0.5-1.1 1-2.9 1-4 0-1.3 0.5-1.8 1.2-1.4 1 0.6 1 0.4 0-0.7-0.7-0.8-1.2-2.9-1.2-4.6 0-2 0.5-3.3 1.2-3.3 1 0.1 1-0.3 0.2-1.2-0.6-0.7-0.9-4.8-0.8-9.3 0.2-4.4 0.5-8.6 0.8-9.2 0.3-0.7 0.1-1.3-0.4-1.3-0.6 0-0.9-1.1-0.8-2.4 0.2-1.3 0-2.2-0.5-2-0.4 0.2-0.9-0.3-1.2-1.1-0.3-0.8-1.7-2.1-3.3-2.7-2.6-1.2-2.6-1.3 2.3-1.6 3.5-0.2 5.1 0.1 5.4 1 0.2 1 0.5 1 1.2-0.2 0.7-1.2 1.1-1.1 2.6 1 1 1.4 4.7 5.9 8.3 10 3.6 4.1 6.8 7.6 7.2 7.8 0.5 0.1 0.8 0.7 0.8 1.2 0 0.6-1 0.7-2.3 0.4-1.2-0.4-1.8-0.3-1.4 0.2 0.5 0.5 1.8 0.9 2.8 0.9 1.1 0 4.4 2.7 7.7 6.2 3.1 3.5 6.3 6.4 7 6.5 1 0.2 1.3-2.9 1.2-14.2 0-8-0.2-14.7-0.5-15-0.3-0.3-0.5-0.8-0.5-1.2 0-0.5 0.7-0.8 1.5-0.8 0.8 0 1.7-0.3 1.9-0.7 0.2-0.5-1.1-0.9-3-1-1.9-0.2-4.2-0.7-5.2-1.2-1.2-0.7 0.5-1 5.6-1 4.1 0 7.6-0.2 8-0.5 0.3-0.3 0.9-0.6 1.4-0.6zm130.5 0.1c0.2 0 0.3 0.4 0.3 0.9 0 0.6-1 1.3-2.3 1.7-1.2 0.3-2.7 1.1-3.3 1.7-0.7 0.6-0.9 2.3-0.5 3.9 0.5 2.6 0.4 2.8-1.4 2.1-1.8-0.7-1.9-0.6-0.5 1.1 1.2 1.4 1.5 4.7 1.5 14.2 0 6.7-0.2 12.3-0.5 12.3-0.3 0-0.6 1.2-0.7 2.8-0.1 1.5-0.9 3.2-1.7 3.7-0.9 0.6-1.4 1.3-1.1 1.8 0.3 0.4-0.4 1.2-1.5 1.7-1.1 0.6-2.5 0.8-3 0.5-0.5-0.3-0.9-0.2-0.8 0.3 0.2 0.4 0 0.7-0.3 0.7-0.3 0-1.4 0.7-2.4 1.5-1.3 1.1-4 1.5-9.4 1.4-4.2 0-8.7-0.7-10.1-1.4-1.4-0.7-3.7-2.6-5.3-4.1-1.5-1.6-3.3-5.3-4.1-8.1-0.9-3.1-1.5-10.2-1.5-16.8 0-6.3-0.3-12.6-0.6-14-0.3-1.5-1.7-3.1-3.5-4-1.7-0.8-3.1-1.7-3-2 0-0.3 4.6-0.6 10.2-0.6 7.9-0.1 9.9 0.1 8.7 1-0.9 0.6-2.1 2.1-2.7 3.4-0.7 1.3-1.2 6.9-1.2 13.5 0 6.1 0.2 13 0.5 15.2 0.3 2.2 0.8 4.9 1.1 6 0.4 1.1 2 3.2 3.5 4.8 1.6 1.5 3.2 2.8 3.6 2.8 0.5 0.1 2.6 0.3 4.8 0.5 2.2 0.1 5.6-0.3 7.5-0.9 1.9-0.5 5.2-2.8 7.2-4.9 2.1-2.1 3.8-4.1 3.8-4.5 0-0.5-0.7 0.1-1.5 1.2-0.9 1.1-1.5 1.6-1.5 1 0-0.5 0.2-2 0.5-3.2 0.3-1.5 0.9-2 1.7-1.5 0.9 0.5 1 0.3 0.3-0.8-0.5-0.8-1-6.9-1.2-13.5-0.1-6.6-0.4-12.7-0.6-13.5-0.2-0.8-0.7-2.3-1-3.2-0.4-1-1.6-1.8-2.7-1.8-1.1 0-2.3-0.5-2.8-1.2-0.5-0.9 0.3-1.1 3.3-0.6 2.2 0.2 6.2 0.2 9-0.2 2.7-0.4 5.1-0.8 5.2-0.9zm14 0.3c0.7 0.3 5.7 0.6 11 0.7 8.3 0.1 9.4 0.2 7.2 1.2-1.4 0.7-3.2 1.7-4 2.4-1.1 0.9-1.4 5.1-1.2 21.5 0.1 11.2 0.5 20.5 0.7 20.8 0.3 0.3 0.1 1.4-0.5 2.5-0.9 1.7-0.8 1.8 0.3 0.4 0.7-0.9 1.8-1.7 2.3-1.8 0.5-0.2 1.3 0.3 1.7 1.1 0.6 1 0.8 1 0.8 0.1 0-0.9 1.6-1.2 5.5-1 3 0.1 5.5-0.1 5.5-0.5 0-0.5 0.8-1 1.7-1.3 1-0.2 3.1-2.1 7.5-8l-0.7 3.5c-0.4 1.9-0.8 4.4-1 5.5-0.1 1.1-0.3 2.6-0.4 3.3-0.1 0.7-1.6 1.2-4.4 1.1-2.3 0-4.8-0.6-5.6-1.2-1.2-0.9-1.3-0.9-0.8 0.1 0.5 0.9-2.4 1.2-26.8 1.3l3.3-3.3c1.8-1.8 3.3-4 3.3-4.8 0.1-0.8 0-3.9 0-6.7-0.1-2.9 0.4-5.5 0.9-5.8 0.7-0.3 0.7-1.8 0.1-4.2-0.6-2.1-1-6.9-1-10.8 0-3.8-0.3-8.3-0.8-9.8-0.5-1.7-1.9-3.3-3.6-4-1.5-0.7-2.6-1.6-2.5-2.1 0-0.4 0.7-0.5 1.5-0.2zm99.2 0.2c0.3 0.3-0.1 0.9-0.9 1.4-0.8 0.6-2.2 1-3 1-1.3 0-1.5 2.8-1.7 18.2-0.2 13.7-0.6 19.2-1.8 22.1-0.8 2-3 4.7-4.8 6-2.3 1.6-4.6 2.2-8.4 2.2-2.8 0-4.9 0.3-4.7 0.8 0.2 0.4-1.3 0.5-3.4 0.2-2-0.2-5.3-1.1-7.2-1.9-1.9-0.8-4.5-2.5-5.7-3.8-1.3-1.2-2.6-3.4-3-4.8-0.4-1.4-0.9-9.1-1-17.2-0.2-8.2-0.6-15.3-1.1-15.9-0.4-0.6-0.1-1.4 0.6-1.8 0.8-0.4-0.3-1.3-2.8-2.6-2.2-1.1-4-2.3-4-2.7 0-0.5 4.5-0.7 10-0.5 5.5 0.1 10 0.5 10 1 0 0.4-0.5 0.7-1 0.7-0.5 0-1.3 0-1.8-0.1-0.4 0-1 0.6-1.5 1.5-0.4 0.9-0.7 1.9-0.6 2.4 0 0.4-0.8 1-1.8 1.4-1.3 0.5-1.4 0.7-0.3 0.7 1.3 0.1 1.4 2.2 1.1 13.9-0.3 10.3 0 14.6 1.1 17.2 0.8 1.9 3 4.7 4.9 6.2 1.9 1.4 4.8 2.7 6.4 2.8 1.6 0.1 3.2 0.1 3.5 0 0.3-0.2 1.6-0.3 3-0.4 1.4-0.1 3.4-0.7 4.5-1.4 1.1-0.6 2.4-0.8 2.9-0.4 0.5 0.4 0.6 0.1 0.3-0.5-0.4-0.7-0.3-1.9 0.2-2.5 0.4-0.7 1.2-2.6 1.6-4.3 0.4-1.6 0.6-9.1 0.5-16.5-0.1-7.4-0.3-14.6-0.4-16-0.1-1.8-1.1-3-7.1-5.8l7.9-0.1c4.4-0.1 8.2-0.3 8.5-0.6 0.2-0.3 0.7-0.2 1 0.1zm73.8-0.1c0.2 0.3 0.1 1-0.2 1.5-0.3 0.6-1.2 1-2 1-0.8 0-2 1.1-2.5 2.5-0.7 1.7-0.7 6.9 0 15.8 0.6 7.2 0.8 13.8 0.5 14.5-0.3 0.6 0 1.2 0.5 1.2 0.5 0 1.2 1.7 1.6 3.8 0.3 2 0.7 4.5 1 5.5 0.2 0.9 1.9 2.6 6.9 5.9l-3.5-0.7c-1.9-0.4-4.2-0.8-5-0.8-0.8 0-3.8 0.1-6.5 0.3-2.8 0.2-5.1-0.1-5.1-0.6-0.1-0.5 0.3-0.8 1-0.6 0.6 0.1 1.9-0.5 2.9-1.5 1.6-1.5 1.8-2.8 1.2-7.8-0.3-3.3-0.8-6.2-1-6.5-0.2-0.3-0.7-4.8-1.1-10-0.4-5.2-1-10.6-1.4-12-0.6-2.2-0.8-2-1.3 1.8-0.4 2.3-1.2 4.2-1.7 4.2-0.5 0-1 0.7-1 1.5 0 0.8-0.3 1.3-0.8 1.1-0.4-0.2-0.8 0.8-0.9 2.2-0.1 1.5-0.7 2.9-1.3 3.2-0.7 0.3-1.1 1-1 1.5 0 0.6-0.6 2.9-1.5 5.3-0.8 2.3-2.1 4.2-2.8 4.2-0.6 0-0.9 0.3-0.5 0.7 0.5 0.5 0.2 1.4-0.5 2.1-0.6 0.7-0.9 1.3-0.5 1.2 0.5 0-0.4 2.4-4.5 10.5l-9.3-19.2c-5.2-10.6-9.6-19.2-9.9-19-0.3 0.1-0.5 6.7-0.5 14.7 0.1 8 0.2 16 0.3 17.8 0.1 1.7 0.5 3.2 0.9 3.2 0.5 0 1.3 0.2 1.8 0.5 0.5 0.3 1.5 0.5 2 0.5 0.5 0 1 0.3 1 0.8 0 0.4-3.8 0.7-8.5 0.7-4.7 0-8.5-0.3-8.5-0.7 0-0.5 0.9-1 2-1.3 1.1-0.3 2.6-1.5 3.4-2.7 0.8-1.3 1.6-4.7 1.8-7.7 0.2-3 0.9-6.1 1.5-6.8 0.7-0.7 0.9-1.4 0.4-1.5-0.6-0.2-1-2.1-1.1-4.3 0-2.2 0-6.8 0-10.2 0-4.4 0.4-6.3 1.2-6.3q1.3 0-0.2-1c-0.8-0.5-1.2-1.3-0.8-1.7 0.5-0.4 0.2-1.4-0.5-2.2-1-1.2-0.9-1.4 0.5-0.8q1.8 0.7 1-0.4c-0.4-0.6-1.4-0.9-2.2-0.6-0.8 0.2-2.6-0.2-4-0.9-2.3-1.2-1.9-1.3 11.5-1.4l2.9 6.2c1.6 3.5 4 8.8 5.4 11.8 1.4 3 3.8 8.3 5.3 11.8 1.6 3.4 2.9 6.5 2.9 7-0.1 0.4 0.7 1.4 1.6 2.2 1 0.9 1.5 1 1.1 0.3-0.4-0.7-0.1-2.5 0.7-4 0.7-1.6 2.6-5.5 4.1-8.8 1.6-3.3 3-6.7 3.1-7.5 0.2-0.8 1.2-3.3 2.3-5.5 1-2.2 2.4-5.3 3.1-7 0.7-1.6 0.9-3.8 0.6-4.7-0.5-1.6 0.1-1.8 5.8-1.6 3.5 0.1 6.8-0.1 7.2-0.5 0.4-0.4 0.9-0.5 1.1-0.2zm-457.3 0.5c2.1 0.1 2.1 0.1 0.1 1.5-1.1 0.9-2.3 1.5-2.8 1.5-0.4 0-0.9 0.9-1.2 2-0.3 1.1-0.1 2 0.5 2 0.6 0 1.5 1.2 2 2.8 0.8 2 0.7 2.9-0.2 3.5-1 0.7-0.9 0.8 0.2 0.4 1.1-0.4 2.6 2.1 5.7 9.4 2.4 5.4 4.4 11 4.5 12.3 0.2 1.4 0.5 2.3 0.8 2.1 0.3-0.2 1.2 0.6 2.1 1.8 1.1 1.5 1.6 1.7 1.6 0.7 0-0.8 1.1-3.7 2.5-6.5 1.3-2.7 2.8-6.2 3.1-7.7 0.4-1.6 1.1-2.6 1.7-2.3 0.6 0.3 0.7-0.1 0.4-0.7-0.3-0.7 0.5-3.1 1.8-5.3 1.2-2.2 2.3-4.6 2.3-5.4 0-0.8 0.8-1.6 1.7-1.8 1.1-0.2 1.8 0.3 1.8 1.2 0 0.8-0.8 2.3-1.8 3.3-1 0.9-1.7 2.3-1.5 3 0.2 0.6-0.4 1.2-1.2 1.2-0.8 0-1.5 0.5-1.5 1 0 0.5 0.4 0.8 1 0.5 0.6-0.3 1 0 1 0.5 0 0.5-0.4 1-1 1-0.6 0-0.9 0.3-0.9 0.8 0.1 0.4 0.1 1.5 0 2.5 0 0.9-0.8 2.4-1.6 3.2-0.8 0.8-1.5 1.7-1.5 2 0 0.3-0.4 2.1-1 4-0.7 2.4-1.4 3.3-2.2 2.8q-1.3-0.8-0.5 0.5c0.4 0.6-0.6 4.1-2.3 7.7-1.6 3.6-3.3 6.7-3.8 6.9-0.4 0.3-1.4-1.5-2.2-3.9-0.9-2.6-1.1-4.4-0.5-4.5 0.6 0 0-0.7-1.3-1.5-1.2-0.8-2-2.2-1.7-3 0.3-0.8-0.1-1.5-0.8-1.5-0.7-0.1-0.5-0.6 0.5-1.5 1-0.9 1.4-1.7 0.8-2-0.6-0.3-1.2 0.1-1.4 0.8-0.2 0.6-2-2.4-4-6.8-2.1-4.4-3.5-8.6-3.2-9.2 0.3-0.7 0.2-1.1-0.4-0.8-0.6 0.3-2.2-2.5-3.7-6.2-1.4-3.8-3.8-7.8-7.8-11.2h6.4c3.5 0 6.7-0.3 6.9-0.6 0.3-0.3 1.5-0.5 2.6-0.5zm56.6 0.2c4.7 0.2 6.1 0.6 6 1.8 0 1.3 0.1 1.3 1 0 0.5-0.8 1.9-1.6 3-1.7 1.1-0.2 1.8 0.2 1.5 0.7-0.3 0.5-1.2 1-2 1-0.8 0-1.7 1.1-2 2.5-0.3 1.4-0.9 2.5-1.5 2.5-0.6 0-0.7 1-0.4 2.3 0.3 1.2 0.6 2.7 0.6 3.2 0 0.5-0.1 2.1-0.2 3.5 0 1.4 0.1 8.4 0.3 15.5 0.3 7.2 0.8 13.8 1.1 14.8 0.3 0.9 1.5 1.9 2.6 2.2 1.1 0.3 2 0.8 2 1.3 0 0.4-4.7 0.8-10.5 1-6.7 0.1-10.3-0.2-10-0.8 0.3-0.5 1.1-1 1.7-1 0.7 0 2.3-1 3.6-2.3 1.6-1.5 2.2-3.3 2.2-5.9 0-2.7 0.6-4.2 2-5 1.1-0.7 2-2 2-2.8 0.1-1-0.6-0.6-3.9 3.5l-0.1-13.2c0-10 0.3-13.3 1.2-13.3 1 0 1-0.2 0-0.8-0.8-0.4-1.3-1.2-1.2-1.7 0-0.5-0.2-1.9-0.6-3-0.3-1.1-0.6-2.3-0.5-2.7 0.1-0.5-0.6-0.6-1.4-0.3-0.8 0.3-1.8 0-2.1-0.5-0.4-0.7 1.6-1 5.6-0.8zm-15.8 81.3c6.4 0.7 8.7 1.3 8.3 2.3-0.3 0.6-0.1 1 0.5 0.7 0.6-0.3 1 1 1 3 0 1.9 0.2 4.2 0.5 5 0.3 0.8 0.1 1.5-0.5 1.5-0.6 0-1.2-1.1-1.5-2.5-0.3-1.5-2-3.5-4.3-4.9-2.1-1.3-6.1-2.6-9.5-3-3.4-0.3-5.9-0.2-6.2 0.4-0.3 0.6-0.9 0.8-1.5 0.5-0.6-0.3-2.5 0.8-4.3 2.5-1.7 1.6-3.6 2.6-4.1 2.2-0.5-0.4-0.6-0.2-0.3 0.3 0.4 0.6-0.2 1.9-1.3 3-1.2 1.3-2.1 3.9-2.5 7.3-0.5 4.9-0.6 5.2-2.8 4.3-1.2-0.4-3.1-0.5-4.2-0.1-1.5 0.6-1.3 0.8 1.2 0.6 1.8 0 3.8 0.5 4.5 1.2 0.7 0.7 1.3 3 1.4 5 0.1 2 1.2 5.7 2.4 8.2 1.3 2.5 3.4 5.4 4.8 6.5 1.4 1.1 3.5 2.5 4.6 3.2 1.2 0.7 3.7 1.3 5.6 1.3 1.9 0 5.3-0.6 7.5-1.4 2.2-0.8 4.4-1.2 4.8-0.8 0.5 0.4 0.7 0.1 0.5-0.7-0.2-0.7 0.4-1.6 1.2-1.9 1.1-0.5 1.3-0.2 0.5 0.8-0.7 1.1-0.6 1.3 0.3 0.8 0.6-0.5 1-1.2 0.7-1.8-0.3-0.5 0.2-1.6 1-2.2 0.9-0.7 1.6-1.9 1.5-2.5 0-0.7 0.4-1.5 1-1.8 0.6-0.3 0.8 0.6 0.6 2.3-0.2 1.5-0.7 3.9-1 5.5-0.3 1.5-1 2.7-1.6 2.7-0.6 0-1.3 0.2-1.8 0.3-0.4 0.2-1.9 0.9-3.5 1.5-1.5 0.7-4.2 1.4-6 1.6-1.7 0.2-6.1 0-9.7-0.5-3.6-0.5-7.5-1.5-8.7-2.1-1.2-0.7-2.1-1.5-1.9-1.8 0.2-0.3-0.4-0.5-1.3-0.5-0.9 0-1.5-0.6-1.4-1.2 0.2-0.7 0-1.1-0.5-0.8-0.4 0.2-1.4-0.3-2.3-1.3-0.9-0.9-2.7-3.7-4.1-6.2-2-3.6-2.5-5.7-2.3-10.5 0.1-3.3 0.2-7 0.3-8.2 0.1-1.3 0.6-2.3 1.2-2.3 0.6 0 0.7 0.6 0.3 1.3q-0.8 1.2 0.5 0.5c0.9-0.6 0.9-1.1-0.1-2.3-1-1.3-1-1.6 0-1.5 0.7 0 1.5-0.8 1.8-1.7 0.3-1 1.2-2.7 2-3.8 1.3-1.8 1.6-1.8 3-0.5 1.4 1.3 1.5 1.3 1-0.5-0.4-1.4 0.1-2.4 1.7-3.4 1.3-0.8 5-2.2 8.3-3.1 4.9-1.3 7.5-1.4 14.7-0.5zm50.2-0.3c0.5-0.1 1.1 0.7 1.3 1.8 0.1 1.1-0.3 2.2-1 2.4-0.6 0.3-0.4 0.5 0.5 0.5 1.1 0.1 1.6 0.7 1.3 1.6-0.3 0.8-0.1 1.5 0.5 1.5 0.6 0 0.8 0.7 0.5 1.5-0.3 0.8-0.1 1.6 0.4 1.8 0.5 0.1 2.2 3.6 3.6 7.7 1.5 4.1 2.8 8.2 2.9 9.2 0 0.9 0.4 1.4 0.8 1.2 0.5-0.2 1.1 0.8 1.5 2.4 0.3 1.5 1.8 5.4 3.3 8.7 1.5 3.3 4 7 8.5 10.3l-6.8-0.1c-3.7-0.1-6.7-0.5-6.7-0.9 0-0.5-0.9-0.2-2 0.5-1 0.6-2.3 0.8-2.7 0.4-0.4-0.5 0.1-1.5 1.2-2.3 1.1-0.8 2-2.3 1.9-3.2 0-0.9-1.1-3.8-2.2-6.4-1.2-2.7-2.2-5.1-2.2-5.5 0-0.5-3.6-0.8-8.1-0.8-7 0-8.2 0.3-9.2 2-0.7 1.1-1.5 3.4-2 5-0.4 1.7-1 4.2-1.2 5.8-0.4 2.2 0 2.9 2.2 3.9 2.5 1 2.6 1.2 0.8 1.5-1.1 0.3-2.7 0.1-3.5-0.3-0.8-0.4-1.7-0.7-2-0.6-0.3 0-2.5 0.3-9.5 1.1l3.5-3.2c1.9-1.8 3.5-3.7 3.6-4.2 0-0.6 0.6-2.3 1.3-4 0.7-1.6 1.9-4.3 2.6-6 0.8-1.6 2.4-5.7 3.6-9 1.2-3.3 2.5-6.4 3-7 0.5-0.5 0.9-1.8 0.9-2.7 0-1 0.6-2.9 1.2-4.3 0.7-1.4 1.9-2.5 2.5-2.5 0.7 0 1.3-0.4 1.3-1 0-0.5-0.4-0.8-1-0.5-0.6 0.3-1-0.2-1-1 0-0.8-0.2-2.2-0.5-3-0.4-1.1 0.4-1.6 2.7-1.8 1.8-0.2 3.7-0.5 4.2-0.5zm206.3 0.3c0.7 0.3 2.8 0.5 4.5 0.5 1.8 0 4.1 0.5 5 1.2 1 0.7 2.2 3.2 2.8 5.6 0.5 2.3 0.7 4.2 0.2 4.2-0.4 0-1.6-1.5-2.6-3.3-1.1-1.7-1.9-3.4-1.9-3.7 0.1-0.3-0.4-0.6-1-0.8-0.7-0.1-3-0.5-5.2-0.8-2.5-0.4-4.9-0.1-6.5 0.7-1.4 0.7-2.7 1.3-3 1.2-0.3-0.1-0.6 1.7-0.8 4-0.2 3 0.3 4.9 1.7 6.7 1.1 1.4 1.7 2.9 1.3 3.3-0.4 0.5 0.1 0.6 1 0.3 1-0.3 1.8-0.3 1.8 0.2 0 0.4 1.2 1 2.7 1.4 1.6 0.3 5.2 2.5 8 4.7 2.9 2.3 5.8 5.3 6.4 6.9 0.7 1.5 1.1 4.3 1.1 6.2-0.1 1.9-0.8 4.5-1.7 5.8-0.8 1.2-3 3.1-4.8 4.2q-3.2 2-8.5 2c-2.8 0-7.3-0.6-9.8-1.2-2.6-0.7-5-1.7-5.4-2.3-0.4-0.5-1-2.9-1.4-5.2-0.3-2.4-0.3-4.3 0.1-4.3 0.5 0 1.8 1.7 2.9 3.7 1.3 2.2 3.7 4.5 5.8 5.6 2 0.9 5.1 1.7 6.8 1.7 1.8 0 4.3-0.7 5.5-1.5 1.3-0.8 2.8-2.4 3.3-3.5 0.7-1.3 0.7-3.1 0-5.2-0.5-1.8-2.2-4.4-3.7-5.8-1.5-1.4-4.5-3.3-6.6-4.3-2.8-1.3-3.6-2.1-3.1-3.4q0.6-1.9-0.3-0.4c-0.7 1.1-1.3 1-3.6-0.3-1.5-0.9-2.7-2-2.7-2.6 0-0.5-0.7-1.7-1.5-2.5-0.8-0.8-1.5-3.1-1.5-5 0-1.9 0.6-4.7 1.4-6.2 0.7-1.6 2.2-3.5 3.2-4.3 1-0.8 3.4-2 5.4-2.7 1.9-0.7 4.1-1 4.7-0.8zm102.5-0.5c0.4 0 0.8 0.2 0.8 0.5 0 0.3-1.4 1.5-3.1 2.8-2.2 1.5-3.3 1.8-3.8 1-0.3-0.6-0.6 8-0.5 19 0.1 11.1 0.4 21.4 0.8 23q0.6 2.7 2.8 3c1.2 0.1 2.3 0.7 2.5 1.2 0.2 0.6-1.4 0.8-4 0.4-2.3-0.3-7-0.4-10.5-0.2-3.9 0.2-6-0.1-5.7-0.7 0.3-0.5 1.1-1 1.7-1 0.7 0.1 1.9-0.5 2.5-1.2 0.7-0.7 1.5-2.4 1.8-3.8 0.3-1.4 0.5-9.9 0.6-19 0-9.1-0.2-17.2-0.5-18-0.3-0.8-2-2.2-3.8-3.1-2.9-1.5-3-1.8-1.3-2.2 1.1-0.2 5.6-0.5 10-0.7 4.4-0.1 8.2-0.3 8.4-0.6 0.2-0.2 0.8-0.4 1.3-0.4zm31.3 0.7c1.1 0.2 3.4 0.5 5 0.7 1.6 0.2 3.3 0.4 3.7 0.5 0.5 0 0.7 1.2 0.5 2.6-0.1 1.3 0.1 2.5 0.5 2.5 0.5 0 0.8 1.5 0.7 6.5l-1.9-3.7c-1.1-2.1-3-4.5-4.3-5.3-1.2-0.8-4.4-1.5-7-1.5-3.3 0-5.2 0.5-6 1.7-0.7 0.9-1.2 3.5-1.2 5.7 0 3 0.7 4.7 2.5 6.6 1.4 1.4 5 3.7 8 5.1 3 1.5 7.2 4.7 9.3 7 2.9 3.4 3.7 5.2 3.7 8.2 0 2-0.8 5.1-1.8 6.7-0.9 1.7-2.3 2.8-3 2.5-0.6-0.3-1.1 0-1 0.7 0.2 0.6-1.1 1.8-2.7 2.6-1.7 0.8-5.3 1.4-8 1.4-2.8-0.1-5.2-0.5-5.5-0.9-0.3-0.5-2.1-0.9-4-1-1.9-0.1-3.8-0.8-4.2-1.5-0.4-0.7-0.9-3.1-1.2-5.3-0.4-2.2-0.5-4.1-0.4-4.3 0.2-0.1 1.6 1.6 3.3 3.9 1.6 2.3 4.2 4.8 5.7 5.5 1.6 0.8 4.4 1.4 6.3 1.4 1.9 0 4.7-0.6 6.2-1.4 1.6-0.7 3.1-2.1 3.5-3 0.5-0.9 0.8-2.8 0.8-4.3 0-1.6-1.1-4-2.5-5.5-1.4-1.6-5.5-4.7-9.3-7.1-3.7-2.4-7.7-5.6-8.8-7.2-1.2-1.7-2.5-4.1-3-5.5-0.6-2-0.5-2.3 0.7-1.6 1.1 0.7 1.2 0.6 0.2-0.5-1-1.1-0.9-2.1 0.3-4.9 0.9-1.9 2.1-4.1 2.8-4.7 0.7-0.7 2-1 2.9-0.8 1 0.3 1.7 0.1 1.7-0.5 0-0.5 1.2-1.1 2.7-1.3 1.6-0.2 3.7-0.2 4.8 0zm-305.5 0.3h17.5c13.4 0 17.5 0.3 17.3 1.3-0.1 0.6 0.2 3.2 0.6 5.7 0.4 2.5 0.6 4.6 0.4 4.8-0.2 0.1-1.3-1.3-2.6-3.3-1.2-1.9-3.4-4.1-5-4.9-1.8-1-4-1.2-6.7-0.7-2.2 0.4-4.3 0.8-4.8 0.9-0.4 0.1-1.3 0.2-2 0.2-0.8 0-1.2 1.8-1 6.3 0.1 3.4 0.2 7.9 0.2 10 0.1 2 0.5 3.7 1.1 3.7 0.5 0 0.8-0.3 0.6-0.7-0.3-0.5 2.3-1.1 5.7-1.5 4.5-0.6 6.8-1.4 10.3-5.3l0.1 6c0 3.3 0.3 7 0.7 8.3 0.3 1.2 0.2 2.2-0.4 2.2-0.6 0-1-0.6-1-1.2 0-0.7-1.4-2.9-3.1-4.8-1.8-1.9-2.9-3-2.6-2.5 0.3 0.6-1.8 1-5.6 1-6 0-6.2 0.1-5.9 2.5 0.1 1.4-0.4 2.8-1 3.2-1 0.6-1 0.8-0.1 0.8 0.9 0 1.3 2 1.3 6.8 0 4-0.5 7.3-1.2 8.2-1.1 1.2-1 1.2 0.4 0.2 1.3-0.8 2.4-0.9 3.8-0.2q2 1 2.5 0c0.3-0.6 1.9-0.7 3.7-0.4 2.1 0.4 4.5 0.1 6.5-1 1.8-0.9 4.4-2.6 5.6-3.8 1.3-1.3 2.9-3.2 3.5-4.3 0.6-1.1 1.2-1.4 1.2-0.7 0 0.6-0.7 3.7-3 12.2l-5.3 0.1c-2.8 0.1-11.4 0.2-18.9 0.3-7.6 0-13.8 0-13.8-0.1 0-0.2 1.8-1.1 4-2 2.2-1 3.8-2 3.5-2.3-0.2-0.3-0.6-9.2-1-39.3zm52.5 0.1h10.7c5.9 0 10.7 0.4 10.7 0.9 0.1 0.5-1.1 1.3-2.5 1.7-1.5 0.4-3 1.5-3.5 2.5-0.5 1-0.9 5.4-0.9 9.8 0 5.7-0.3 8-1.2 8-0.8 0-0.9 0.3-0.3 0.7 0.6 0.4 1.1 3.9 1.2 7.8 0.2 3.8 0.5 8.9 1.3 15.5l9.4-0.3c7.8-0.2 9.3-0.5 8.7-1.7-0.4-1.1-0.1-1.3 1.2-0.8 1 0.5 1.5 0.4 1.2-0.2-0.3-0.6 0.6-2.2 2-3.5 2.4-2.4 2.5-2.4 2.5-0.5 0 1.1-0.7 2.6-1.5 3.5-0.8 0.8-1.1 2-0.7 2.7 0.5 0.9 0.2 1-1.3 0.4-1.6-0.6-1.7-0.5-0.7 0.5 0.7 0.8 1.3 1.7 1.2 2.1 0 0.4-0.7 0.8-1.5 0.8-0.8 0-1.5-0.6-1.6-1.3 0-1-0.1-1-0.5 0-0.2 0.7-1.4 1.2-2.6 1.2-2.2-0.1-2.2-0.1-0.3-0.9 1.7-0.8 1.8-0.9 0.3-1-1 0-2 0.4-2.3 1-0.3 0.5-1.8 1-3.5 1-1.7 0-3-0.6-3.1-1.3 0-1-0.1-1-0.5 0-0.2 0.7-1.3 1.3-2.4 1.3-1.1 0-1.8-0.5-1.5-1 0.3-0.6-0.2-1-1-1-0.8 0-1.5 0.4-1.5 1 0 0.5-3.1 1-14.5 1l2.8-2.5c1.5-1.4 3.2-2.3 3.7-2 0.6 0.2 1 0 1-0.5 0-0.6-0.4-1-1-1-0.5 0-0.9-0.9-0.7-2 0.1-1.1 0.7-2.1 1.2-2.1 0.6 0 0.4-0.3-0.3-0.7-0.9-0.6-1-1.4-0.2-3.5 0.6-1.5 0.7-2.6 0.3-2.3-0.4 0.2-0.9-4.6-1.1-10.8-0.1-6.1-0.4-12.7-0.6-14.6-0.3-2.4-1.3-4.2-3.2-5.7zm56.7 0c3.2 0.2 5.7 0.6 5.8 1.1 0 0.4-0.6 0.7-1.3 0.7-0.7 0-0.2 0.7 1 1.5 1.8 1.3 2.3 2.5 2.3 6.5 0 4.4-0.3 4.9-1.8 4.3-1.7-0.6-1.7-0.6 0 1 1 1 1.8 2.9 1.8 4.2 0 1.4 0.5 2.6 1.2 2.6 0.7 0 3 0.2 5 0.3 2.1 0.1 3.8-0.2 3.8-0.6 0-0.4 0.3-0.6 0.7-0.4 0.4 0.2 1.8 0 3-0.5 1.3-0.5 2.7-1.9 3.2-3.1 0.6-1.7 0.9 0.1 1.2 6.5 0.2 4.8 0.1 8.7-0.1 8.7-0.3 0-1.3-1.3-2.3-3-1.4-2.4-1.5-3.3-0.5-4.5 1-1.2 1-1.5 0-1.5-0.7 0-1.2 0.5-1.2 1 0 0.7-2.4 0.8-6.3 0.4-3.4-0.3-6.6-0.7-7-1-0.4-0.2-0.7 4.1-0.7 9.6 0 7 0.4 10.4 1.3 11.3 0.7 0.7 3.5 1.2 6.2 1.1 2.7 0 6.3-0.4 8-0.8 1.7-0.4 4.5-2.6 6.7-5.1 2.1-2.5 3.8-4.2 3.8-4 0 0.3-0.7 3.1-1.6 6.3-0.8 3.1-1.6 5.8-1.7 6-0.1 0.1-8.4 0.3-18.4 0.5-10 0.1-18-0.1-17.7-0.5 0.2-0.4 1.3-0.8 2.4-0.8 1.5 0 2.1-0.8 2.6-3.7 0.3-2.1 0.5-10.4 0.5-18.5-0.1-12.9 0.1-15 1.6-16.5 1-1 1.4-1.4 0.8-1-0.5 0.4-1.3 0.7-1.7 0.7-0.5 0-0.8-0.3-0.7-0.7 0-0.4 0-2 0-3.5-0.1-1.8-0.6-2.6-1.4-2.2-0.7 0.3-1.9-0.2-2.7-1.1-1.4-1.4-1-1.5 4.2-1.3zm10.3 0c2.2 0 4.6 0.5 5.4 1.1 1.1 1 1.3 1 0.8 0-0.6-1 0.5-1.2 4.2-1 2.9 0.1 4.7 0.6 4.3 1.2-0.3 0.6 0.1 0.5 0.8-0.2 0.8-0.7 1.7-1.3 2.2-1.3 0.4 0 1 1.9 1.4 4.3 0.3 2.3 0.4 5.1 0.1 6.2-0.3 1.7-0.8 1.4-2.8-2-1.3-2.2-2.4-4.2-2.3-4.5 0.1-0.2-3.8-0.5-8.6-0.5-4.9 0-9.2-0.3-9.7-0.7-0.5-0.5-0.3-0.8 0.4-0.8 0.7 0 0.9-0.3 0.5-0.8-0.4-0.5 1.1-0.9 3.3-1zm84.2 0.3c2.6 0 5.1 0.4 5.5 1q0.7 1 0.6-0.1c-0.1-0.7 4.8-1.1 31.4-1.1l-0.1 4.4c-0.1 2.4 0.1 4.8 0.4 5.3 0.2 0.6 0.1 1-0.3 1-0.4 0-1.4-1-2.2-2.2-0.9-1.2-1.5-2.9-1.5-3.8 0-1-0.9-1.4-2.8-1.2-1.5 0.1-2.7-0.2-2.7-0.8 0-0.6-1.1-0.6-3.3 0-1.8 0.5-3.5 0.8-3.7 0.5-0.3-0.2-1.4 0.3-2.5 1.1-1.1 0.9-1.5 1.3-0.8 1 1-0.4 1.3 3.7 1.6 18.7 0.2 10.6 0.6 19.9 1 20.7 0.3 0.9 2.1 2.3 3.9 3.2 3.2 1.7 3.1 1.7-8.4 1.5-6.4-0.1-11.6-0.3-11.5-0.4 0.1-0.1 1.7-1 3.7-2 2.4-1.2 3.5-2.5 3.7-4.3 0.1-1.3 0.2-10.6 0.3-20.5 0-11.8-0.3-18.2-1-18.7-0.6-0.4-2.8-0.5-4.8-0.4-2.1 0.2-5.2 0.7-7 1-2.1 0.4-3 1.1-2.7 1.9 0.3 0.7-0.1 1.9-1 2.7-1.4 1.4-1.6 1.2-1.3-2.1 0.1-2 0.6-3.5 1-3.3 0.4 0.3 0.5-0.4 0.2-1.3-0.5-1.5 0.2-1.8 4.3-1.8z"/><path class="b" d="m366 161.3c0.1 1.7 0.1 3.4 0 3.7-0.1 0.3-0.3 2.7-0.4 5.5-0.2 2.7-0.6 8.4-1 12.5-0.5 4.1-0.9 7.6-0.9 7.7-0.1 0.1-2.9-1.6-6.2-3.7-3.3-2.2-6.4-3.6-7-3.2-0.5 0.4-0.7 0.3-0.3-0.3 0.4-0.6 0.4-1.4 0-2-0.4-0.6-2.8-2.7-5.5-4.8-2.6-2-4.9-3.6-5.2-3.5-0.3 0.2 0.7 1.8 2.2 3.7 1.5 1.9 3.6 4.2 4.5 5.2 1 1.1 1.5 2.1 1.1 2.4-0.3 0.3-0.1 0.5 0.5 0.5 0.7 0 1.8 1.2 2.6 2.7 0.8 1.6 3 4.5 5 6.5l3.6 3.8c-6.6 0.2-8.8 0.2-9.3 0.1-0.4 0-0.7 0.3-0.7 0.9 0 0.5-1.5 1-3.2 0.9-1.8 0-5.9 0.3-9.1 0.8-3.1 0.4-5.6 1.2-5.4 1.8 0.2 0.5 2.8 1.3 5.8 1.7 3 0.3 8.5 1.1 12.4 1.7 3.9 0.6 7.1 1.3 7.3 1.6 0.1 0.3-1 1.7-2.5 3.1-2.3 2.2-2.6 2.8-1.3 3.5 1.3 0.7 1.2 0.9-0.2 0.9-1 0-1.8 0.7-1.8 1.5 0 0.9-0.6 1.3-1.5 1-0.8-0.3-1.5-0.1-1.5 0.5 0 0.5 0.6 1 1.3 1.1 0.6 0 0.2 0.4-1 1-1.3 0.5-2.3 1.6-2.3 2.4 0 0.8-0.4 1.3-1 1-0.6-0.3-1 0.2-1 1 0 0.8-0.6 1.8-1.2 2.2-0.7 0.5-2.2 1.9-3.3 3.3-1.1 1.3-1.3 2-0.5 1.4 0.8-0.6 5.6-4.1 10.5-7.9 4.9-3.8 10.2-8 11.8-9.4 2.6-2.4 2.7-2.5 2.8-0.6 0 1.1 0.2 4.2 0.4 7 0.2 2.7 0.9 8.5 1.7 12.7 0.7 4.2 1.4 7.6 1.5 7.5 0.1-0.1 0.5-2.7 0.8-5.7 0.4-3 0.8-7.1 0.9-9 0-1.9 0.4-3.7 0.7-4 0.4-0.3 1-2.5 1.3-5 0.4-2.5 0.9-4.7 1.1-5 0.3-0.3 1.3 0.2 2.2 1.1 1 0.9 6.1 5.2 11.3 9.5 5.2 4.4 10.2 8.4 11 8.9 0.8 0.4 0.4-0.5-1-2.1-1.4-1.6-3.3-3.8-4.3-4.9-1-1.1-3.6-4.6-5.7-7.8-2.2-3.1-4-6.1-4-6.7 0-0.6-0.4-1-1-1-0.6 0-1-0.3-1-0.8 0-0.4 1.9-1.3 4.2-2 2.4-0.7 5.8-1.3 7.6-1.5 1.7-0.1 3.2-0.5 3.2-1 0-0.4 0.4-0.5 1-0.2 0.6 0.3 3.6 0.2 6.7-0.1 3.2-0.3 5.6-0.7 5.3-0.9-0.3-0.2-2.1-0.6-4-0.9-1.9-0.2-4.3-0.7-5.3-1-1-0.4-1.7-0.1-1.7 0.6 0.1 1-0.2 1-1.2 0.1-0.7-0.7-2.9-1.5-4.8-1.8-1.9-0.4-5.4-0.9-7.7-1.3-3.5-0.6-4-1-3.2-2.5 0.5-0.9 3.5-4.7 6.6-8.5 3.2-3.7 6.8-8.2 8-10 1.3-1.7 2.1-3.2 1.8-3.2-0.3 0-2 1-3.8 2.2-1.7 1.2-3.4 2.3-3.7 2.5-0.3 0.2 0.2 0.9 1 1.4 1.3 0.9 1.2 1-0.3 0.5-1-0.4-3.5 0.6-6.5 2.6-2.6 1.8-5.3 3.8-6 4.5-0.7 0.7-2 1.3-2.8 1.3-0.8 0-1.8-1.6-2.4-3.8-0.5-2-1-4.8-1-6.2 0-1.4-0.7-5-1.6-8-1-3-1.7-7.2-1.7-9.3-0.1-2-0.5-3.7-1-3.7-0.5 0-0.8 1.5-0.7 3.2zm289 10.3c-0.6 6.6-1.2 13.3-1.3 15-0.1 1.6-0.7 3.5-1.2 4.1-0.5 0.7-1.2 0.9-1.5 0.5-0.3-0.3-3.2-2.6-6.5-5.1-3.3-2.5-6.1-4.7-6.2-5-0.1-0.3-2.6-2.5-5.5-5-5.1-4.4-5.2-4.4-3.3-1.2 1.1 1.8 2.3 3.2 2.7 3.2 0.5 0 0.8 0.6 0.8 1.2 0 0.7 2 3.4 4.5 6 2.5 2.7 4.5 5 4.5 5.3 0 0.3 0.9 1.5 2 2.7 1.1 1.3 2 2.9 2 3.5 0 0.8-1.8 1.5-4.3 1.9-2.3 0.3-8.2 1.2-13.2 2-5 0.8-9.3 1.8-9.7 2.2-0.4 0.4 2.5 1.3 6.5 1.9 3.9 0.7 9 1.5 11.2 1.8 2.2 0.3 5 1.1 6.2 1.8 2.2 1.2 2.2 1.3 0.6 3.7-0.9 1.4-2.5 3.1-3.5 3.7-1.1 0.8-1.6 2.1-1.3 3.3 0.3 1.1 0 2-0.5 2-0.5 0-1.3 0-1.8 0.1-0.4 0-1.5 0.7-2.5 1.5-1.1 0.9-1.4 2-1 3.1 0.5 1.3 0.4 1.6-0.5 1-0.7-0.4-1.8 0.2-2.7 1.8-0.8 1.4-1.3 2.5-1 2.5 0.3 0 3.2-1.9 6.5-4.3 3.3-2.3 5.6-4.6 5.2-5.1-0.4-0.6-0.2-0.6 0.7 0 0.8 0.6 1.6 0.5 2-0.1 0.3-0.6 2.5-2.7 4.8-4.8 2.4-2 4.8-3.5 5.3-3.2 0.5 0.3 0.8 1.1 0.6 1.7-0.2 0.7 0 3.5 0.5 6.3 0.6 2.7 1.2 7.7 1.5 11 0.4 3.3 0.6 6.8 0.5 7.7-0.1 1 0.4 2 0.9 2.3 0.6 0.3 1.1-1.3 1.2-3.8 0.1-2.3 0.2-5.2 0.2-6.4 0.1-1.3 0.4-2.3 0.8-2.3 0.5 0 0.8-3 0.8-6.8 0-3.7 0.2-7.5 0.5-8.5 0.3-0.9 0.8-1.7 1.2-1.7 0.5 0 2.6 1.5 4.8 3.5 2.2 1.9 7.5 6.2 11.7 9.5 4.6 3.5 7.4 5.2 6.8 4-0.5-1.1-1.7-2.2-2.5-2.5-0.8-0.3-1.5-1.1-1.5-1.8-0.1-0.6-1.3-2.8-2.8-4.8-1.5-2-4.2-5.6-6-8l-3.3-4.4c16.7-3.4 23.1-4.4 24.8-4.5 2.5 0 3.3-0.4 3.3-1.8 0-1-0.3-1.3-0.8-0.6-0.4 0.6-1.6 1-2.7 0.9-1.1-0.1-3.1-0.7-4.5-1.3-1.4-0.5-5-1.3-8-1.6-3-0.3-6.4-0.9-7.5-1.3-1.4-0.5-1.8-0.3-1.3 0.5 0.6 0.9 0.2 0.9-1.2-0.1-1.1-0.6-2-1.5-2-2 0-0.4 0.6-1.3 1.2-2 0.7-0.6 3.1-3.7 5.4-6.7 2.2-3 5.2-7.2 6.7-9.3 1.5-2 2.6-3.9 2.4-4.2-0.1-0.3-0.9 0.2-1.7 1-0.8 0.9-2.1 1.6-2.8 1.5-0.6 0-1.2 0.4-1.2 1 0 0.6-0.5 1-1 1-0.5 0-3 1.6-5.5 3.5-2.8 2.1-4.2 4-3.8 4.7 0.3 0.7 0.2 1-0.3 0.5-0.5-0.4-2 0-3.4 0.9-1.4 0.9-2.8 1.2-3.2 0.7-0.4-0.4-1-3.5-1.3-6.8-0.3-3.3-1.2-9.6-2.1-14-0.8-4.4-1.7-8.2-1.9-8.5-0.2-0.3-0.9 4.9-1.5 11.5zm-370.1 116c0 1.6-0.2 5.2-0.5 8-0.2 2.7-0.9 7.9-1.5 11.5-0.5 3.6-1.2 7.5-1.5 8.7-0.2 1.3-1.1 2.3-1.9 2.3-0.8 0-1.5-0.4-1.5-1 0-0.6-1.5-1.7-3.2-2.6-1.8-1-6-3.7-9.3-6.2-3.3-2.6-6.3-5.1-6.7-5.7-0.4-0.5-1-0.8-1.3-0.5-0.3 0.3 1.1 2.5 3.1 5 2 2.5 4.9 6.3 6.3 8.5 1.4 2.2 3.8 5.2 5.4 6.7 1.8 1.9 2.3 2.9 1.5 3.2-0.7 0.3-4.2 0.9-7.8 1.5-3.6 0.6-7.9 1.4-9.5 1.7-1.6 0.3-4.6 0.6-6.7 0.7-2 0.1-4 0.5-4.5 0.9-0.4 0.4 0.3 1 1.7 1.2 1.4 0.3 5 0.8 8 1.2 3 0.4 7.1 0.8 9 0.9 1.9 0.1 4.1 0.5 4.8 0.8 0.6 0.4 2.3 0.8 3.7 0.9 1.9 0.2 2.2 0.5 1.3 1.3-0.8 0.6-2.9 3.5-4.8 6.5-1.9 3-3.8 5.7-4.3 6-0.5 0.3-0.9 0.9-0.8 1.5 0 0.6-1.1 2.2-2.5 3.7-1.3 1.6-2.4 3.1-2.4 3.5-0.1 0.5 0.7 0 1.7-1 1-0.9 2.2-1.4 2.6-1 0.5 0.5 0.7 0.2 0.5-0.6-0.2-0.8 1.7-2.7 4.2-4.4 2.5-1.6 6.1-4.2 8-5.7 2.6-2 3.8-2.4 4.6-1.6 0.6 0.6 1.9 7.7 3 15.9 1 8.1 2.1 14.7 2.4 14.7 0.3 0 0.6-1.5 0.7-3.3 0.1-1.7 0.4-4.3 0.7-5.7 0.3-1.4 0.8-4.3 1.1-6.5 0.3-2.2 0.9-6.7 1.5-10 0.5-3.3 1-6.1 1-6.3 0-0.1 0.6-0.2 1.3-0.2 0.6 0 3.5 2 6.2 4.5 2.8 2.5 5.6 4.5 6.3 4.5 0.6 0 1.2 0.4 1.2 1 0 0.6 1.2 2.1 2.8 3.5 1.5 1.4 3 2.5 3.5 2.5 0.4 0-1.3-3-3.7-6.8-2.5-3.7-5.8-8.3-7.5-10.2-1.7-1.9-3-4.1-3.1-4.8 0-0.6 1-1.4 2.3-1.6 1.2-0.3 4.5-0.8 7.2-1.1 2.8-0.3 6.4-1 8-1.5 1.6-0.4 5.3-1.2 8-1.6l5-0.8c-10.1-1-16.8-1.7-21.4-2.2-5.3-0.6-8.6-1.4-9-2.2-0.3-0.8-0.1-1.7 0.5-2 0.6-0.4 3.5-4.1 6.4-8.2 2.9-4.1 5.6-7.7 5.9-8 0.3-0.3 1.3-1.3 2.1-2.3 0.8-1 1.1-1.8 0.5-1.8-0.5 0-1.9 0.9-3 1.9-1.1 1-2.8 2.1-3.7 2.5-1.1 0.4-1.5 1.2-1 1.9q0.7 1.3-0.5 0.5c-0.8-0.4-3.2 0.8-6 3-2.7 2-4.9 4-5 4.5-0.2 0.4-1 0.8-1.8 0.8-0.8 0-1.7-0.8-1.9-1.8-0.3-0.9-0.7-3.5-1-5.7-0.3-2.2-0.8-6-1.1-8.5-0.3-2.5-1-7.2-1.6-10.5-0.5-3.3-1.2-6.2-1.4-6.5-0.3-0.3-0.6 0.9-0.6 2.5zm453.1 3.2c-0.2 2.6-0.4 6.4-0.7 8.3-0.2 1.9-0.7 6.9-1.1 11.2-0.4 4.2-1 7.9-1.5 8.2-0.4 0.3-1.7 0.1-3-0.6-1.2-0.6-4.1-2.7-6.5-4.5-2.3-1.8-4.8-3-5.5-2.6-0.6 0.3-0.9 0.3-0.5 0 0.5-0.4-1.3-2.7-4-5.1-2.6-2.4-4.8-4.2-5-4-0.1 0.2 1.1 2.3 2.7 4.6 1.6 2.4 4.5 6.3 6.6 8.8 2 2.5 4.4 5.7 5.1 7.2 0.8 1.6 1.3 3 1.1 3.2-0.1 0.3-4.5 1.1-9.7 2-5.2 0.8-9.8 1.3-10.3 1-0.4-0.2-0.7 0-0.7 0.6 0 0.6-0.3 0.9-0.8 0.9-0.4-0.1-1.5-0.1-2.5 0-0.9 0-1.7 0.4-1.7 0.8 0 0.5 0.8 0.9 1.7 0.9 1 0.1 4.5 0.4 7.8 0.7 3.3 0.3 7.8 0.8 10 1.2 2.2 0.3 5 0.8 6.2 1.1l2.3 0.4c-3.1 3.5-4 4.8-4 5.2 0 0.5-0.8 1.8-1.8 2.9-0.9 1.2-2.3 2.7-3 3.5-0.6 0.8-1 1.6-0.7 1.9 0.3 0.3-0.4 1.1-1.5 1.7-1.1 0.7-2 1.9-2 2.5 0 0.7-0.8 1.5-1.8 1.8-0.9 0.3-1.4 0.9-1 1.3 0.4 0.4 4.7-2 9.5-5.3 4.8-3.3 9.3-6.6 10-7.3 0.7-0.6 1.5-1.1 1.8-1 0.2 0.2 1.1 5.2 2 11.3 0.8 6 1.7 11.9 2 13 0.2 1.1 0.4 3.4 0.4 5 0 1.8 0.4 2.6 0.9 2 0.5-0.6 1.5-5.5 2.2-11 0.7-5.5 1.4-10.7 1.5-11.5 0.1-0.8 0.5-3.4 0.8-5.8l0.7-4.2c6.2 4.6 8.7 5.8 9.5 5.5 0.8-0.3 1.4-0.2 1.3 0.2-0.2 0.5 0.5 1.9 1.5 3.3 0.9 1.4 1.7 2.2 1.7 1.7 0-0.4 1.2 0.7 2.7 2.4 1.6 1.8 3.6 3.6 4.5 4 1 0.5 1.8 0.7 1.8 0.4 0-0.3-0.6-1.1-1.3-1.8-0.6-0.6-3-3.9-5.2-7.2-2.2-3.3-5.2-7.7-6.7-9.8-1.6-2-2.7-3.8-2.6-4 0.2-0.2 3-0.8 6.3-1.5 3.3-0.7 7.2-1.2 8.7-1.2 2.2 0 2.7-0.4 2.2-1.8-0.5-1.4-0.3-1.5 1-0.5 0.9 0.7 3 1.1 4.6 0.8 1.6-0.3 3.2-0.9 3.5-1.5 0.3-0.6-0.5-1.1-1.8-1.1-1.2-0.1-3.1-0.3-4.2-0.4-1.1-0.1-5.1-0.5-9-0.9-3.9-0.4-8-0.9-9.3-1.2-1.2-0.2-2.2-0.7-2.2-1.2 0-0.4 3.6-5.4 7.9-11.2 4.4-5.8 7.7-10.7 7.5-11-0.2-0.3-1.7 0.6-3.2 2.1-1.5 1.4-4.7 3.8-7.2 5.4-2.5 1.7-5.2 3.8-6 4.7-0.8 0.9-2.2 1.7-3 1.8-1.3 0-1.3 0.1 0 1 1.2 0.8 1.1 1-0.8 1-1.2 0-2.4-0.3-2.6-0.8-0.2-0.4-0.7-3-1-5.7-0.3-2.8-1-8.6-1.7-13-0.6-4.4-1.1-9-1-10.3 0-1.2-0.3-2.5-0.8-2.8-0.5-0.3-1 1.6-1.1 4.3zm-112.8 112.9c0.2 1 1 2 1.8 2.3q1.5 0.5 0.7-0.7c-0.4-0.7-0.1-1.2 0.8-1.2 0.8 0 1.3 0.4 1 1-0.3 0.5 0.1 1.1 0.7 1.1 0.7 0.1 1.8 0 2.3-0.1 0.5-0.1 2.9-0.2 5.2-0.1 2.4 0 4.5-0.2 4.7-0.7 0.2-0.4-2.3-1-5.7-1.4-3.4-0.4-7.5-1-9-1.3-2.3-0.5-2.8-0.2-2.5 1.1zm112.6 46.2c-0.5 3.7-1 9.2-1.3 12.2-0.3 3-0.7 7.9-1 10.7-0.3 2.9-1 5.3-1.5 5.3-0.5 0-3.4-1.6-6.2-3.5-2.9-1.9-6-4-6.9-4.7-1-0.7-3.3-2.8-5.3-4.6-2-1.7-3.8-3.2-4.1-3.2-0.3 0 0.1 1.1 0.8 2.4 0.6 1.3 2.6 4 4.2 6 1.6 2.1 4.9 6.1 7.3 8.9l4.3 5.2c-9.8 1.8-16.1 2.9-20.4 3.7-4.2 0.7-7.7 1.6-7.7 2 0 0.5 1 0.8 2.3 0.9 1.2 0 3.1 0.3 4.2 0.5 1.1 0.3 3.8 0.7 6 0.9 2.2 0.3 6.5 1 9.5 1.6 3 0.6 5.6 1.3 5.8 1.5 0.1 0.2-0.3 1-0.8 1.6-0.6 0.7-1.8 2.3-2.8 3.5-0.9 1.1-2.4 3.1-3.2 4.3-0.8 1.2-2.3 3.2-3.4 4.3-1 1.2-2.6 3.2-3.5 4.5-0.9 1.2-1.4 2.5-1.1 2.7 0.3 0.2 2-0.9 3.8-2.5 1.7-1.7 3.5-3 4-3 0.4 0 2.1-1.1 3.7-2.4 1.6-1.4 3.8-3.2 4.8-4 0.9-0.9 2.6-2.1 3.7-2.6 1.6-0.8 2.1-0.6 2.4 0.7 0.2 1 0.7 4 1.1 6.8 0.3 2.7 0.8 6.4 1 8 0.3 1.6 0.7 5.7 1 9 0.4 3.3 0.8 6.2 1.1 6.5 0.2 0.3 0.6 0.3 0.8 0 0.2-0.3 0.6-5.2 1-11 0.3-5.8 0.9-12.8 1.2-15.5 0.4-2.8 0.8-5.1 1-5.3 0.2-0.1 5.5 3.8 11.7 8.8 6.1 4.9 11.4 8.7 11.7 8.4 0.3-0.3 0-0.8-0.6-1.2-0.5-0.4-2.2-2.4-3.7-4.5-1.7-2.4-3.1-3.4-3.9-3q-1.3 0.8-0.5-0.5c0.4-0.7-1.1-3.3-3.8-6.7-2.5-3-4.5-5.8-4.5-6.3 0-0.4 6.6-2 14.7-3.5 8.2-1.6 15.5-2.9 16.3-3.1 0.8-0.1-2.8-0.8-8-1.5-5.2-0.8-10.2-1.5-11-1.6-0.8-0.1-3.7-0.5-6.5-1-2.7-0.4-5.7-1.1-6.5-1.6-1.3-0.7-1.3-0.8 0-0.9 0.8 0 2.8-1.9 4.3-4.2 1.5-2.4 4.4-6 6.2-8.1 1.9-2 3.2-3.7 2.8-3.7-0.5 0 0.3-0.9 1.7-2 1.4-1.1 2.2-2.2 1.8-2.5-0.5-0.3-2.3 0.8-4 2.3-1.8 1.5-5.1 4.1-7.3 5.7-2.2 1.6-4.2 3.2-4.5 3.5-0.3 0.3-1.7 1.3-3.2 2.3-1.6 0.9-3 1.4-3.2 0.9-0.2-0.4-0.6-3-0.9-5.7-0.3-2.8-1.1-10-1.8-16-0.6-6.1-1.4-11.3-1.8-11.7-0.3-0.4-0.9 2.3-1.3 6zm-452.8 0.2c0 1.9-0.5 7.5-1.1 12.5-0.6 4.9-1.4 10.7-1.8 12.8l-0.6 3.8c-6.6-5.5-8.9-6.9-9.5-6.6-0.5 0.3-1.3-0.3-1.7-1.3-0.5-1.1-3.4-4-6.5-6.5-3.2-2.6-6-4.7-6.3-4.7-0.3 0 1.1 2 3 4.5 2.3 2.9 3.9 4.2 4.7 3.7q1.3-0.7 0.5 0.5c-0.4 0.8 1.3 3.8 4.3 7.8 2.8 3.6 5.6 6.7 6.3 6.8 0.6 0.2-0.4 0.9-2.3 1.5-1.9 0.6-5.3 1.3-7.5 1.6-2.2 0.2-6.4 0.7-9.2 1-4.6 0.5-5.2 0.8-4.4 2.3 0.6 1.2 2.7 2.1 6.2 2.6 3 0.5 6.8 1.1 8.4 1.3 1.6 0.2 3.9 0.6 5 0.8 1.1 0.2 2.1 0.7 2.3 1.2 0.1 0.5-1.1 2.5-2.9 4.4-1.7 1.9-3.9 5.3-4.9 7.5-1.1 2.2-1.9 3.5-1.9 3 0-0.6-0.7-0.3-1.6 0.5-1.3 1.2-1.3 1.6-0.3 2.2 0.7 0.4 1.5 0.3 1.8-0.1 0.3-0.4 3.5-2.8 7.3-5.4 3.7-2.6 7.2-4.7 7.7-4.7 0.6 0 1.1-0.8 1.1-1.8 0.1-0.9 0-2.2-0.1-2.7-0.1-0.6 0.2-0.6 0.7-0.2 0.4 0.5 0.8 3.2 0.9 6 0 2.9 0.4 9.7 0.8 15.2 0.5 5.5 1.1 10.5 1.4 11 0.4 0.5 0.5 2.2 0.4 3.7-0.1 1.6 0.3 2.8 0.8 2.8 0.6 0 0.9-2.5 0.8-5.8-0.1-3.1 0.1-6.2 0.4-6.7 0.2-0.5 0.6-3.3 0.7-6 0.1-2.8 0.5-7.6 0.9-10.7 0.4-3.6 0.3-5.8-0.3-5.9-0.5 0-0.1-0.4 1-0.8 1.6-0.6 3.2 0.2 7.5 3.8 3 2.5 5.9 4.9 6.5 5.4 0.5 0.4 3.3 2.7 6 5.1 2.8 2.5 5.1 4.3 5.3 4 0.1-0.2-1.8-3-4.3-6.2-2.5-3.1-5.3-6.6-6.3-7.7-1-1.1-3-3.7-4.5-5.8l-2.7-3.7c3.9-1.6 5.9-2 7-2q2 0 1.5-1.5c-0.3-0.8 0-1.5 0.5-1.5 0.6 0 1 0.6 1 1.2 0 1 1.4 1.1 5.8 0.4 3.1-0.5 5.9-1.1 6.2-1.3 0.3-0.2-0.2-0.8-1-1.3q-1.5-1-0.2-1c0.6 0 1.4 0.6 1.7 1.2 0.3 0.7 1.9 1.2 3.5 1 1.7-0.1 2.8-0.7 2.5-1.2-0.3-0.6-2.6-1.3-5.2-1.6-2.7-0.4-7.5-0.8-10.8-0.9-3.3-0.1-7.7-0.8-9.7-1.6l-3.7-1.4c3.3-4.6 6.8-8.7 9.8-12 3.1-3.3 6.6-7.3 7.9-8.8 1.2-1.5 1.9-2.7 1.5-2.7-0.5-0.1-1.5 0.7-2.3 1.6-0.8 0.9-2.9 2.3-4.5 3.2-1.6 0.8-3.2 1.8-3.5 2.2-0.3 0.4-3.3 2.4-6.7 4.4-3.5 2-6.5 4-6.8 4.6-0.3 0.5-0.9 1-1.5 1-0.5 0-0.9-0.6-0.9-1.3 0.1-0.6 0.1-2 0-3-0.1-1.1-0.5-1.4-1.3-1-0.9 0.6-1 0.4-0.3-0.7 0.5-0.8 0.8-3.5 0.6-6-0.2-2.5-0.8-4.8-1.4-5.2-0.9-0.6-0.9-0.8 0.1-0.8 0.6 0 0.9-0.6 0.5-1.3-0.4-0.6-0.9-3.5-1.1-6.2-0.2-2.8-0.6-5.2-0.8-5.5-0.3-0.3-0.4 1.1-0.4 3zm-35.4 39c-0.3 0.5-1.8 0.7-3.3 0.4-2.2-0.4-2.5-0.3-1.3 0.5 0.8 0.6 2.7 1.1 4.3 1.1 1.5 0 2.7-0.4 2.8-0.9 0.1-0.6-0.4-1.2-0.9-1.6-0.6-0.3-1.3-0.1-1.6 0.5zm406.4 79c-0.1 3-0.4 7.3-0.8 9.5-0.3 2.2-0.6 6.8-0.6 10.2-0.1 3.3-0.3 6-0.6 5.8-0.3-0.2-0.8 1.5-1.2 3.8-0.4 2.3-1 4.3-1.3 4.4-0.3 0.2-4.7-3-9.7-7-5.1-4.1-10.1-8.1-11-9-1-1-2-1.5-2.3-1.2-0.3 0.3 0.5 1.7 1.8 3.1 1.2 1.4 2.1 2.7 2 3-0.2 0.2 1.1 2.1 2.9 4.1 1.7 2.1 3.7 3.9 4.2 3.9 0.6 0.1 1.6 0.3 2.1 0.4 0.6 0.1 0.2 0.4-0.8 0.8-1.6 0.6-1.3 1.2 2 4.4 3.7 3.6 3.7 3.7 1.3 3.6-1.4 0-6.8 0.7-12 1.6-5.2 0.8-10.6 1.8-12 2-1.4 0.3-3.2 0.5-4 0.5-0.8 0-1.1 0.4-0.7 0.8 0.5 0.4 2.1 0.9 3.5 0.9 1.5 0.1 2.7 0.3 2.7 0.4 0 0.1 2 0.3 4.5 0.5 2.5 0.1 7 0.8 10 1.5 3 0.7 6.5 1.1 7.7 0.9q2.2-0.4 2 1c-0.1 0.8-1.1 2.4-2.2 3.5-1.1 1.2-3.3 3.9-5 6-1.6 2.1-2.9 4.2-2.7 4.7 0.1 0.5-0.5 0.9-1.3 0.9-0.8 0-1.7 1.1-2 2.5-0.3 1.4-0.9 2.3-1.5 2-0.5-0.3-0.8 0.2-0.5 1 0.4 1.2 1.2 1 3.9-1.3 1.9-1.5 6.2-4.6 9.5-7 3.4-2.3 5.9-4.7 5.6-5.2-0.3-0.6 0.3-0.8 1.3-0.5 1 0.4 1.8 1.8 2 3.8 0.1 1.8 0.4 4.1 0.7 5.2 0.2 1.1 0.4 2 0.5 2 0.1 0 0.3 1.8 0.5 4 0.1 2.2 0.8 7.4 1.6 11.5 1.2 7.4 1.3 7.4 2 3.5 0.4-2.2 1.1-8.8 1.6-14.8 0.6-8.3 0.5-10.7-0.4-10.7-0.7 0-1.3-0.5-1.3-1 0-0.6 0.7-0.7 1.6-0.3 1.2 0.6 1.5 0.4 1-1-0.3-0.9-0.3-1.9 0.2-2.2 0.4-0.2 3.4 1.6 6.7 4.1 3.3 2.5 6.7 5 7.5 5.7 0.8 0.7 3.1 2.5 5 3.9 1.9 1.5 3.8 2.8 4.3 2.8 0.4 0-3-5.1-7.4-11.3-6-8.2-7.8-11.4-6.8-11.9 0.8-0.3 4-0.9 7.2-1.2 3.1-0.3 5.7-0.9 5.7-1.4 0-0.4 1.2-0.6 2.5-0.5 1.4 0.2 2.5 0 2.5-0.5 0-0.4-0.4-1.2-0.8-1.8-0.4-0.6-2-1.4-3.7-1.7-1.6-0.3-5.2-0.9-8-1.3-2.7-0.3-5.5-0.7-6.2-0.8-0.8-0.1-0.8-0.7-0.1-2.1 0.6-1.1 3.6-5.1 6.7-9 3.2-3.9 6.3-8.1 7.1-9.5 1.3-2.4 1.2-2.4-0.6-0.7-1 0.9-2.2 1.5-2.6 1.2-0.5-0.3-1.5 0.6-2.3 2-0.8 1.4-2.4 2.5-3.5 2.5q-2 0-1.5 1.5c0.3 0.8 0.1 1.3-0.5 1-0.5-0.3-2 0.3-3.1 1.2-1.2 1-2.6 2.3-3.3 2.9-0.6 0.5-1.9 1.3-2.8 1.7-1.4 0.5-1.8 0.2-1.9-1.6-0.1-1.2-0.2-3.6-0.4-5.2-0.1-1.6-0.3-3-0.4-3-0.1 0-0.4-2-0.5-4.5-0.2-2.5-0.6-7.4-1.1-11-0.4-3.6-1.1-8.1-1.5-10-0.7-3.3-0.8-3.2-1 2zm-290.1 6.7c-0.1 3.8-0.3 8.4-0.5 10.3-0.2 1.9-0.5 6.3-0.6 9.7-0.2 3.4-0.6 6.4-1 6.7-0.5 0.3-2.9-1-5.5-3-2.7-2-5.2-4.4-5.7-5.3-0.7-1.4-0.9-1.4-1.7-0.1-0.7 1.3-0.9 1.2-0.9-0.3 0-0.9-0.6-2-1.2-2.5q-1.3-0.7-0.5 0.5c0.4 0.7 0.4 1.3 0 1.3-0.5 0.1-1.5-0.6-2.3-1.5-0.8-0.9-1-1.5-0.5-1.5 0.6 0-0.1-0.8-1.5-1.9-1.4-1-2.6-1.9-2.8-1.8-0.1 0.1 1.6 3 3.8 6.4 3.5 5.6 4.2 6.2 5.8 5 1.5-1.1 1.6-1 0.5 0.5-1.1 1.5-0.8 2.5 2.2 6.3 3.1 4 3.3 4.5 1.5 4.5-1.1 0-2.3 0.1-2.7 0.3-0.5 0.2-2.4 0.7-4.3 1-1.9 0.4-5.5 0.9-8 1.2-2.5 0.3-5.1 1-5.7 1.5-0.9 0.7-1.5 0.6-1.8-0.3-0.4-1-0.6-1-1 0-0.3 0.9-1.7 1.1-4.2 0.7-2.1-0.3-3.6-0.4-3.3-0.1 0.3 0.3 4.8 1.3 10 2.2 5.2 0.9 12.2 1.9 15.5 2.2 3.3 0.3 6.1 0.6 6.2 0.6 0.1 0.1-2.6 4.3-6 9.3-3.4 5.1-7.1 10.1-8.2 11.3-1.1 1.2-1.7 2.2-1.2 2.1 0.4 0 2.6-1.5 5-3.4 2.3-1.8 5.6-4 7.2-4.9 1.7-0.8 4.1-2.7 5.5-4.1 1.4-1.5 3.1-2.6 3.8-2.6 0.6 0 1.6 1 2.1 2.2 0.5 1.3 1.2 7.5 1.6 13.8 0.4 6.3 1.1 12.2 1.6 13 0.6 1 0.9 0 1.1-3.3 0.2-2.6 0.3-5.9 0.3-7.5 0-1.5 0.3-2.9 0.7-3.2 0.3-0.3 0.9-4 1.2-8.3 0.3-4.2 0.8-8.2 1.1-8.7 0.3-0.5 1.1-1 1.8-1q1.2 0-0.3 1c-1.3 0.9-1.3 1 0 0.9 0.8 0 2.2 0.8 3 1.7 0.8 0.9 4 3.4 7 5.5 3 2.1 7 5.1 8.8 6.8 1.7 1.7 3.4 3 3.7 2.8 0.3-0.1-1.2-2.1-3.2-4.4-2.1-2.3-3.7-4.4-3.6-4.5 0.2-0.2-2-3.1-4.7-6.6-2.8-3.4-5-7-4.9-8 0-0.9 0.2-1.1 0.5-0.5 0.3 1 1.2 1 4.2-0.1 2-0.7 4.3-1.1 5-1 0.7 0.3 1.2-0.5 1.2-1.9 0.1-1.9 0.2-2 1-0.5 0.8 1.5 1.9 1.7 6.3 1.2 2.8-0.4 5.7-0.9 6.2-1.2 0.6-0.4 2.1-0.5 3.5-0.3 1.4 0.2 2.1-0.1 1.6-0.6-0.4-0.4-2.5-1-4.6-1.3-2.4-0.3-3.5-0.1-3.2 0.5 0.3 0.5-0.1 0.5-0.9-0.2-0.8-0.6-2.7-1.4-4.4-1.7-1.6-0.2-5.5-0.8-8.5-1.2-3-0.4-6.3-0.8-7.2-0.8-1-0.1-1.8-0.4-1.8-0.9 0-0.4 0.7-0.7 1.5-0.7 0.8 0 1.6-0.6 1.6-1.3 0.1-0.6 0.1-1.5 0-2 0-0.4 0.2-0.5 0.7-0.3 0.4 0.3 1.6-0.7 2.7-2.2 1.1-1.4 4.1-5.3 6.6-8.7 2.5-3.3 4.9-6.7 5.4-7.5 0.4-0.8-0.5-0.4-2.1 1-1.6 1.4-4 3.1-5.4 3.8-1.4 0.7-4 2.6-5.7 4.2-1.8 1.7-3.6 2.7-4 2.2-0.3-0.4-0.3-0.1 0 0.5 0.4 0.8-0.5 2.1-2.3 3.3-1.6 1.1-3.4 1.8-4 1.5-0.5-0.3-1.3-2.4-1.6-4.8-0.4-2.3-0.8-5.6-1-7.2-0.2-1.6-0.6-3.9-0.8-5-0.2-1.1-0.7-5-1-8.8-0.4-3.7-1.1-6.7-1.6-6.7-0.6 0-1.1 3-1.1 6.7zm322.1 37c0 0.4 0.4 1.3 0.8 2 0.4 0.7 1.9 1 3.7 0.7 1.7-0.3 3.4-0.9 4-1.5 0.6-0.6 0.6-0.9 0-1-0.6 0-2.7-0.2-4.7-0.5-2.1-0.3-3.7-0.1-3.8 0.3zm-368.6 56.3c0.3 0.5-0.2 1-1.1 1-1.4-0.1-1.1 0.4 1 2 2.4 1.8 2.9 1.8 4.2 0.5 0.8-0.8 1.5-1.7 1.5-2 0-0.3-0.9-0.3-2 0-1.1 0.3-2 0-2-0.5 0-0.5 0.5-0.8 1-0.5 0.6 0.3 1 0 1-0.5 0-0.5-0.9-1-2.1-1-1.2 0-1.8 0.5-1.5 1z"/></svg>