<svg version="1.2" xmlns="http://www.w3.org/2000/svg" viewBox="0 0 1024 1536" width="1024" height="1536"><style>.a{fill:#fefefe}.b{opacity:1;fill:#be9108}</style><path class="a" d="m0 768v768h1024v-1536h-1024z"/><path class="b" d="m487.5 362.7c-2.8 0.1-11.5 1-19.5 1.8-8 0.9-20.4 2.8-27.5 4.1-7.1 1.4-16.6 3.5-21 4.6-4.4 1-14.3 4-22 6.5-7.7 2.5-19.2 6.7-25.5 9.3-6.3 2.6-16.2 7.1-22 10-5.8 2.9-16.8 8.7-24.5 12.8-7.7 4.2-18.9 11.2-25 15.6-6.1 4.3-14.1 10.4-18 13.5-3.9 3-12.4 10.2-19 16-6.6 5.8-16.1 14.6-21 19.5-5 5-12.9 13.8-17.6 19.6-4.7 5.8-13 16.8-18.5 24.5-5.5 7.7-12.9 19-16.6 25-3.6 6-9.5 16.9-13 24-3.6 7.1-9.2 19.8-12.6 28-3.3 8.3-7.2 18.8-8.6 23.5-1.4 4.7-4.6 16.6-7 26.5-2.4 9.9-5.6 25.2-7 34-1.4 8.8-3.1 21.4-3.7 28-0.7 7-0.9 19.7-0.6 30.5 0.3 10.2 1.3 25.9 2.1 35 0.9 9.1 2.1 19.4 2.7 23 0.6 3.6 1.9 10.1 2.9 14.5 1 4.4 2.8 12.5 3.9 18 1.1 5.5 3.3 14.3 4.9 19.5 1.6 5.2 5.5 16.3 8.7 24.5 3.1 8.3 9.8 22.9 14.7 32.5 5 9.6 11.5 21.5 14.5 26.5 3.1 5 8.5 13.3 12.1 18.5 3.7 5.2 10.1 13.8 14.3 19 4.2 5.2 14.6 16.5 23 25.1 8.5 8.6 19.2 19 23.9 23.1 4.7 4.1 13.7 11.3 20 16 6.3 4.7 16.7 11.9 23 16 6.3 4.1 16.2 10.1 22 13.3 5.8 3.2 14.6 7.8 19.5 10.1 4.9 2.3 14.4 6.3 21 8.9 6.6 2.6 18.8 6.9 27 9.6 8.3 2.8 21.1 6.3 28.5 7.8 7.4 1.6 19.4 3.8 26.5 5 7.1 1.1 20.4 2.7 29.5 3.5 9.1 0.9 23.5 1.6 32 1.6 8.5 0 20.7-0.5 27-1 6.3-0.6 16.9-1.7 23.5-2.5 6.6-0.9 19-2.9 27.5-4.6 8.5-1.7 22.5-5.1 31-7.5 8.5-2.5 19.5-6.1 24.5-7.9 5-1.9 16.2-6.8 25-11 8.8-4.2 19.8-10 24.5-12.8 4.7-2.8 14.8-9.2 22.5-14.2 7.7-5.1 17.8-12.2 22.5-16 4.7-3.7 12.8-10.5 18-15 5.2-4.6 16-15 24-23.1 8-8.2 18.6-19.9 23.4-25.9 4.9-6 13.5-18 19.1-26.5 5.7-8.5 14.5-23.8 19.6-34 5.2-10.2 12-25 15.1-33 3.1-8 6.3-16.7 7.2-19.5 0.8-2.7 3.3-12 5.5-20.5 2.2-8.5 4.9-20.5 6-26.5 1.1-6 2.7-16.6 3.5-23.5 0.8-6.9 2-20.6 2.7-30.5 1-14.1 1-22.2 0.1-37.5-0.7-10.7-2.3-26.7-3.7-35.5-1.4-8.8-3.7-20.7-5-26.5-1.4-5.8-4.2-16.4-6.1-23.5-2-7.1-6.3-20.2-9.6-29-3.2-8.8-9-22.5-12.9-30.5-3.9-8-9.3-18.5-12.1-23.5-2.9-5-7.8-13-11.1-18-3.3-5-7.6-11.2-9.6-14-1.9-2.7-6.9-9.3-10.9-14.5-4.1-5.2-14-16.4-22-24.9-8.1-8.5-21-20.7-28.7-27.1-7.7-6.4-17.4-14.1-21.5-17.1-4.1-3-12.9-9.1-19.5-13.5-6.6-4.4-14-9.2-16.5-10.6-2.5-1.4-11.2-6-19.5-10.1-8.2-4.1-21.5-9.9-29.5-13-8-3.1-21.7-7.6-30.5-10.1-8.8-2.5-21.9-5.6-29-7-7.1-1.4-15.9-3-19.5-3.6-3.6-0.5-14.8-1.7-25-2.5-10.2-0.8-25.9-1.4-35-1.3-9.1 0.1-18.8 0.3-21.5 0.5z"/><path class="a" d="m493 375c-8.5 0.4-20 1.3-25.5 2-5.5 0.6-15.9 2.3-23 3.6-7.1 1.4-18.4 3.9-25 5.5-6.6 1.7-18.5 5.2-26.5 7.9-8 2.7-17.4 6.1-21 7.6-3.6 1.4-13.5 6.1-22 10.4-8.5 4.3-18.9 9.8-23 12.2-4.1 2.5-10.9 6.6-15 9.3-4.1 2.6-11.3 7.7-16 11.4-4.7 3.6-11 8.6-14 11-3 2.5-11.6 10-19 16.7-7.4 6.7-17.3 16.6-22 21.9-4.7 5.4-11.1 13.2-14.4 17.4-3.2 4.2-8.9 11.9-12.6 17.1-3.7 5.2-9.2 13.5-12.2 18.5-3 5-8 13.7-11 19.5-3.1 5.8-8.7 17.9-12.6 27-3.8 9.1-8.7 22.1-11 29-2.2 6.9-4.9 15.6-6 19.5-1.2 3.9-3 11-4.1 16-1.2 5-3 14.4-4.1 21-1.1 6.6-2.7 20.5-3.6 31-0.9 11.2-1.4 23.7-1.1 30.5 0.3 6.3 1 17.1 1.6 24 0.7 6.9 2.3 19.9 3.6 29 1.3 9.1 3.4 21.2 4.6 27 1.1 5.8 3.7 15.7 5.6 22 1.9 6.3 5.5 16.9 8 23.5 2.4 6.6 8.5 20.3 13.4 30.5 5 10.2 11.3 22.3 14.2 27 2.8 4.7 8.9 14.1 13.5 21 4.7 6.9 11.2 15.9 14.6 20 3.3 4.1 12.6 14.2 20.6 22.4 8 8.2 19.4 19 25.5 24 6.1 5 14.6 11.9 19 15.2 4.4 3.4 13.2 9.5 19.5 13.6 6.3 4.1 16.4 10.3 22.5 13.6 6.1 3.4 17.1 8.9 24.5 12.3 7.4 3.4 17.6 7.6 22.5 9.4 4.9 1.8 15.3 5.2 23 7.5 7.7 2.3 19.2 5.2 25.5 6.5 6.3 1.3 15.8 3.1 21 3.9 5.2 0.8 16 2.2 24 3 8 0.8 21.7 1.8 30.5 2.2 9.4 0.3 23.9 0.1 35-0.6 10.5-0.7 25.5-2.2 33.5-3.5 8-1.3 20.6-3.7 28-5.5 7.4-1.7 19.1-4.9 26-7.1 6.9-2.3 17.2-6 23-8.4 5.8-2.3 17.7-7.9 26.5-12.4 8.8-4.4 20-10.6 25-13.7 5-3.1 14.2-9.3 20.5-13.8 6.3-4.4 16.2-12 22-16.7 5.8-4.7 13.2-11 16.4-14 3.3-3 11.8-11.7 19-19.4 7.2-7.7 16.3-18.3 20.2-23.5 3.9-5.2 10.5-14.5 14.6-20.5 4.1-6 10.2-16 13.6-22 3.4-6 9.5-18.2 13.6-27 4-8.8 8.6-19.4 10.1-23.5 1.5-4.1 4.4-13.4 6.6-20.5 2.2-7.1 5.2-18.4 6.8-25 1.6-6.6 3.9-18.5 5.1-26.5 1.2-8 2.7-20.1 3.2-27 0.5-6.9 1.1-19.7 1.5-28.5 0.3-9.5 0.1-20.5-0.6-27-0.7-6-2.1-17.5-3.2-25.5-1.1-8-2.7-17.6-3.6-21.5-0.8-3.9-2.9-11.7-4.5-17.5-1.7-5.8-4.1-14.3-5.3-19-1.2-4.7-3.7-12.8-5.5-18-1.8-5.2-5.7-15.1-8.6-22-3-6.9-8.6-18.4-12.6-25.5-3.9-7.1-9.8-17.3-13.1-22.5-3.3-5.2-9.2-13.9-13.1-19.4-3.9-5.4-10.5-13.9-14.7-19-4.2-5-12.1-13.6-17.5-19.2-5.4-5.6-14.9-14.3-20.9-19.4-6-5.1-16.9-13.7-24-19-7.1-5.3-17.3-12.3-22.5-15.6-5.2-3.3-15.8-9.5-23.5-13.7-7.7-4.2-18.2-9.5-23.3-11.7-5-2.2-14.5-5.8-20.9-8-6.5-2.3-17.2-5.6-23.8-7.5-6.6-1.8-15.8-4.3-20.5-5.4-4.7-1.1-11.2-2.4-14.5-3-3.3-0.6-13.6-1.9-23-3-9.4-1.1-24-2.2-32.5-2.4-8.5-0.2-22.5-0.1-31 0.3z"/><path class="b" d="m508.5 389.3c-0.2 0.6-1.6 4.8-3 9.2-1.3 4.4-2.5 8.7-2.5 9.5 0.1 0.9 0.8 0.4 2-1.3 1.7-2.3 2.7-2.7 6.5-2.7 3.7 0 4.6 0.4 5 2 0.3 1.1 1.2 2 2 2 1.2 0 0.6-2.2-2.5-10-2.6-6.5-4.5-10-5.5-10-0.9 0-1.8 0.6-2 1.2zm42.5 7.8c-1.3 1.3-2 3.4-2 5.7-0.1 2.4 0.6 4.5 1.7 5.5 1.1 1.1 3.4 1.8 6 1.8 3.2 0 4.3-0.4 4.3-1.5 0-1.2-0.7-1.3-3.4-0.8-2.5 0.6-3.9 0.4-5-0.7-0.9-0.8-1.7-2.1-1.6-2.8 0-0.8 1.7-1.1 5.5-1 4.9 0.3 5.5 0.1 5.5-1.7 0-1.1-0.7-3-1.5-4.3q-1.5-2.2-4.5-2.2c-1.7 0-3.9 0.9-5 2zm42.7 4.2c-0.2 0.7-1 4.3-1.8 7.9-1.2 5.9-1.2 6.9 0.1 8.3 0.8 0.9 2.5 1.7 3.7 1.6 1.3 0 2.3-0.5 2.3-1 0-0.6-0.9-1-2-1-1.6 0-2-0.7-2-3 0-1.6 0.5-4.1 1-5.5 0.6-1.4 2-2.7 3.2-2.9l2.3-0.3c-3.6-1.5-4.4-2.5-4.3-3.6 0.2-0.9-0.2-1.7-0.9-1.7-0.6 0-1.3 0.6-1.6 1.2zm-166.2 3c-1.1 0.6-2.3 1.7-2.8 2.4-0.4 0.8-0.3 2.3 0.3 3.4 0.7 1.5 2.2 2.1 5.2 2.2 3.5 0.3 4.3 0.7 4.3 2.3 0 1.6-0.8 2-4.3 2.2-2.3 0.2-4.2 0.7-4.2 1.3 0 0.5 1.4 1 3 1 1.6 0 4.1-0.5 5.5-1 1.9-0.8 2.5-1.7 2.5-4 0-1.8-0.6-3.2-1.5-3.5-0.8-0.3-3.1-0.5-5-0.5-2.8 0-3.5-0.4-3.5-2 0-1.2 0.8-2.2 2-2.5 1.1-0.3 2.9-0.3 4 0 1.3 0.3 1.9 0.1 1.7-0.8-0.2-0.6-1.4-1.3-2.8-1.4-1.3-0.1-3.3 0.3-4.4 0.9zm-40 11.8c-0.3 0.5-1.4 1-2.5 1-1.1 0-2 0.6-2 1.2 0 0.7 0.7 3.8 1.6 6.8 1 3 2 5.8 2.3 6.2 0.3 0.4 1.2 0.4 1.9 0 1-0.6 0.9-1.5-0.3-4.5-0.8-2-1.5-4.5-1.5-5.5-0.1-0.9 0.6-2.4 1.5-3.2 1.2-1.1 2.1-1.2 3.2-0.5 0.9 0.5 2.2 3.1 2.9 5.7 0.9 3 2 4.8 2.9 4.8 0.8 0 1.5-0.5 1.5-1 0-0.6-1.1-3.5-2.5-6.5-2.2-4.9-2.8-5.5-5.5-5.5-1.6 0-3.1 0.4-3.5 1zm242.9-0.2c-0.5 0.4-1.8 1.8-2.7 3.2-1 1.4-1.7 3.5-1.7 4.7 0 1.3 1.1 3.4 2.5 4.8 1.6 1.6 3.6 2.5 5.5 2.5 1.6 0 3-0.5 3-1 0-0.6-1.2-1-2.8-1-1.5 0-3.3-0.5-4-1.2-0.7-0.7-1.2-2.3-1.2-3.6 0-1.2 0.2-2.2 0.5-2.2 0.3 0 2.4 0.9 4.7 2.1 3.5 1.7 4.4 1.8 5 0.7 0.4-0.7 0.8-2.3 0.8-3.6 0-1.3-1.2-3.1-2.8-4.2-1.5-1.2-3.4-2-4.2-2-0.8 0-2 0.4-2.6 0.8zm35.2 22.4c-2 3.5-3.3 6.7-2.9 7.1 0.4 0.5 1.9-1.2 3.3-3.7 1.4-2.5 3.3-4.8 4.3-5.1 0.9-0.3 2.4 0.2 3.2 1 1.3 1.3 1.6 1.3 2 0 0.3-0.8 0.3-1.9 0-2.5-0.3-0.6-1.4-1-2.5-1-1.1 0-2-0.4-2-1 0-0.6-0.4-1-0.9-1-0.5 0-2.5 2.8-4.5 6.2zm-317.1-2.7c-1.8 1.8-2.3 3.2-1.9 4.7 0.3 1.3 1.4 3.4 2.3 4.8 1.1 1.5 3 2.6 4.7 2.8 1.8 0.2 4-0.5 5.7-1.7 1.5-1.2 2.7-2.9 2.7-3.9 0-1.4-0.5-1.2-2.7 1-1.6 1.5-3.5 2.8-4.3 2.8-0.8 0-2.1-0.5-2.8-1.2-0.7-0.7-1.2-1.5-1.3-1.8 0-0.3 1.4-1.2 3.2-2 1.7-0.8 3.7-2.1 4.3-2.8 0.8-0.9 0.6-1.7-0.9-3.3-1.1-1.1-3-2-4.3-1.9-1.3 0-3.4 1.1-4.7 2.5zm-31.3 19.1c-0.9 0.3-0.6 1.6 0.8 4.6 1.1 2.4 2 4.9 2 5.5 0 0.7-2.3-0.3-5.3-2.3-2.8-1.9-5.5-3.2-6-2.7-0.4 0.4 1.7 2.8 4.8 5.3 3 2.5 6.3 4.5 7.3 4.5 1.3 0 1.7-0.8 1.5-3.5-0.1-1.9-1-5.3-2.1-7.6-1-2.3-2.4-4-3-3.8zm383.3 4.8c-2.2 3.3-3.1 5.5-2.5 6.1 0.5 0.5 1.1 0.8 1.3 0.5 0.1-0.3 1.5-2.2 3-4.3 1.6-2.1 3.5-3.7 4.7-3.7 1.1 0 2.3 0.8 2.6 1.7 0.4 1.2-0.5 3.4-2.5 6-1.7 2.4-2.9 4.7-2.6 5.3 0.3 0.5 1 0.8 1.5 0.5 0.5-0.3 2.4-2.5 4-5 1.8-2.7 2.8-5.3 2.5-6.5-0.3-1.1-2.3-2.8-4.5-3.9l-4.1-1.8zm-421.9 17.7c-1.5 1.1-2.7 2.6-2.7 3.2q0.1 1.2 1.2 0.2c0.8-0.7 3 1 7.2 5.5 3.4 3.6 6.5 6.6 6.9 6.7 0.5 0.2 0.8-0.3 0.8-1 0-0.7-2.5-3.8-5.5-7-3.9-4-5.3-6.3-5-7.7 0.2-1.1 0.3-2 0.1-2-0.1 0-1.5 0.9-3 2.1zm458.5 3.8c0 0.6 0.8 1.3 1.9 1.6 1.1 0.3 2.4 1.3 3 2.2 0.5 1 0.6 2.4 0.2 3-0.5 1-1.4 0.6-3.2-1.2-1.3-1.4-3.3-2.6-4.2-2.5-1 0-2.6 1.1-3.5 2.6-1.8 2.5-1.8 2.5 2.5 6.5l4.2 3.9c3.5-4.2 5.1-6.1 5.7-7 0.7-0.8 1.3-2.2 1.3-3 0.1-0.8-0.7-2.5-1.7-3.7-1-1.2-2.7-2.4-3.9-2.8-1.3-0.4-2.2-0.2-2.3 0.4zm-239.6 15.8c-2.2 0.2-10.5 1.2-18.5 2.3-7.9 1.1-19 3.1-24.5 4.4-5.5 1.4-14.5 4-20 5.9-5.5 1.9-16.5 6.5-24.5 10.1-7.9 3.7-17.6 8.5-21.5 10.8-3.8 2.3-11.5 7.3-17 11.2-5.5 3.9-13.8 10.2-18.5 14.2-4.6 3.9-12.3 11.1-17 16-4.7 4.9-11.7 13.2-15.6 18.4-3.9 5.2-9.5 13.5-12.6 18.5-3 4.9-7.3 12.6-9.5 17-2.2 4.4-5.9 12.3-8.1 17.5-2.2 5.2-5.2 13.1-6.5 17.5-1.4 4.4-3.7 12.3-5.2 17.5-1.4 5.2-3.8 14.9-5.2 21.5-2.1 9.9-2.6 15.7-3 33-0.3 13.3-0.1 24.3 0.7 30 0.6 4.9 2.2 14.2 3.5 20.5 1.3 6.3 3.7 15.8 5.4 21 1.7 5.2 4.9 13.9 7.1 19.2 2.2 5.4 7 15.3 10.6 22 3.7 6.8 9.1 16.1 12.2 20.8 3 4.7 8.9 12.8 13.1 18 4.1 5.2 13.4 15.3 20.6 22.5 9.2 9.2 16.7 15.5 25.5 21.6 6.9 4.7 15.2 10.1 18.5 12.1 3.3 2 11.4 6.3 18 9.6 6.6 3.3 18.1 8.2 25.5 11 7.5 2.8 16.5 5.7 20 6.5 3.6 0.9 11.9 2.4 18.5 3.6 6.6 1.1 19.7 2.5 29 3.1 12.1 0.8 21.1 0.8 31 0.1 7.7-0.6 19.7-2 26.5-3.2 6.9-1.1 13-2.3 13.5-2.7 0.6-0.3 4.1-1.4 7.8-2.4 3.7-1 13.1-4.3 21-7.4 7.8-3.1 18.2-7.6 23-10 4.8-2.4 14-7.9 20.5-12.1 6.4-4.2 16.2-11 21.7-15.2 5.5-4.1 15.9-13.4 23.1-20.6 7.1-7.1 15.1-15.7 17.6-19 2.5-3.3 7.3-10.5 10.8-16 3.4-5.5 8.6-14.7 11.5-20.5 2.9-5.8 7.1-14.8 9.3-20 2.2-5.2 5.4-13.8 7-19 1.7-5.2 4-13.3 5.1-18 1.2-4.7 2.8-13 3.7-18.5 0.9-5.5 1.8-18.6 2.1-29 0.4-11.7 0.1-23.6-0.6-31-0.6-6.6-2.3-16.7-3.7-22.5-1.3-5.8-4.1-15.7-6-22-2-6.3-5.8-16.7-8.6-23-2.7-6.3-7.9-16.9-11.5-23.5-3.6-6.6-9.3-16.1-12.6-21-3.3-5-8.6-12.2-11.7-16-3.2-3.9-9.9-11.1-15.1-16.1-5.2-4.9-14.5-12.8-20.9-17.6-6.3-4.7-17-12-23.7-16.2-6.8-4.2-16.7-9.8-22-12.5-5.4-2.7-12.2-5.9-15.3-7.2-3-1.2-9.5-3.4-14.5-5-4.9-1.5-12.1-3.5-16-4.4-3.8-0.9-10.1-2.2-14-3-3.8-0.8-10.8-1.9-15.5-2.5-4.6-0.6-15.7-0.9-24.5-0.9-8.8 0.1-17.8 0.4-20 0.6zm-242.5 12.5c0.1 0.7 1.6 4.1 3.5 7.5 2 3.5 3.2 6.3 2.8 6.3-0.4 0-3.8-1.6-7.5-3.5-3.9-2-7-3.1-7.3-2.5-0.2 0.5 0.1 1.3 0.8 1.7 0.7 0.4 4.3 2.2 8 4 3.7 1.8 7.4 3.3 8.2 3.3 0.9 0 1.5-0.4 1.5-0.8 0-0.4-1.7-4.4-3.8-9-2-4.5-4.3-8.2-5-8.2-0.6 0-1.2 0.5-1.2 1.2zm531.3 37.8c-4.4 3-6.8 5.2-6 5.6 0.7 0.3 2.4 0 3.7-0.6 1.4-0.7 3.1-0.9 3.8-0.6 0.9 0.4 1 2.2 0.5 6.3-0.5 4.8-0.4 5.7 0.8 5.2 0.8-0.3 1.7-2.1 1.9-4 0.4-2.7 0.9-3.4 2.5-3.1 1.1 0.2 3 0.1 4.3-0.2 1.6-0.4 2.2-1.4 2.2-3.1 0-1.4-1.2-4.3-2.7-6.5-1.5-2.3-3-4.1-3.3-4-0.2 0-3.7 2.2-7.7 5zm-581.4 35.7c-0.7 1.8-0.7 3.3-0.1 4.3 0.6 0.8 1.6 1.9 2.4 2.4 0.9 0.6 2.4 0.2 4.6-1.3 1.8-1.1 3.7-1.9 4.2-1.6 0.6 0.3 1 0.9 1 1.5 0 0.5-0.9 1.9-2 3-1.4 1.4-1.7 2.4-1 3.2 0.8 1 1.4 0.8 2.5-0.7 0.8-1.1 1.8-3.1 2.2-4.5 0.3-1.4 0.2-3.2-0.4-4-0.5-0.8-1.7-1.6-2.6-1.8-0.9-0.1-3 0.7-4.7 1.8-1.6 1.1-3.2 2-3.5 2-0.2 0-0.5-0.9-0.5-2 0-1.1 0.5-2.2 1-2.5 0.6-0.3 1-1 1-1.5 0-0.6-0.7-1-1.5-1-0.8 0-2 1.2-2.6 2.7zm601.7 1.4c-1.9 1.3-2.7 2.9-2.7 4.7 0 1.5 1 3.6 2.1 4.7 1.1 1.1 2.4 1.6 2.8 1.2 0.4-0.5 0.2-1.1-0.4-1.5-0.7-0.4-1.5-2-1.8-3.5-0.4-1.7-0.1-3 0.7-3.4 0.7-0.4 1.8 0.2 2.4 1.3 0.7 1 1.8 2.7 2.5 3.8 1.1 1.5 1.7 1.6 3.6 0.7 1.3-0.7 2.2-2 2.3-3.4 0-1.2-1-3.2-2.3-4.4-1.2-1.3-3.2-2.3-4.4-2.3-1.1 0-3.3 0.9-4.8 2.1zm-617.5 37.4c-0.5 1.5-0.9 3.5-1 4.5 0 1.1 0.4 2.2 0.9 2.5 0.6 0.3 1-0.4 1-1.5 0-1.1 0.3-2.7 0.5-3.5 0.3-0.8 1.4-1.5 2.5-1.5 1.8 0 1.9 0.3 1 2.5-0.5 1.4-1 3.2-1 4 0 0.8 0.7 2.2 1.5 3 0.9 0.8 1.9 1.5 2.5 1.5 0.5 0 1.6-0.7 2.5-1.5 0.8-0.8 1.5-2.9 1.5-4.5 0-1.7 0.5-3 1-3 0.6 0 1-0.5 1-1 0-0.6-1.8-1.7-4-2.5-2.2-0.8-5.1-1.5-6.5-1.5-1.8 0-2.8 0.7-3.4 2.5zm636.9 0.4c-0.6 1.1-1.1 3.3-1.1 5 0.1 1.7-0.2 3.1-0.6 3.1-0.4 0.1-1.3-0.6-2-1.5-0.7-0.8-1-2.6-0.8-4 0.3-1.4 0.1-2.4-0.4-2.2-0.6 0.2-1.3 1.5-1.6 2.8-0.3 1.3 0 3.4 0.7 4.7q1.3 2.2 4.1 2.2c1.8 0 2.9-0.6 3.2-1.8 0.2-0.9 0.6-3.2 1-5 0.3-1.9 1-3.1 1.8-2.9 0.7 0.2 1.3 2 1.5 4 0.1 2 0.7 3.7 1.2 3.7 0.6 0 1-1.6 1-3.5 0-1.9-0.6-4.2-1.5-5-0.8-0.8-2.4-1.5-3.4-1.5-1.1 0-2.5 0.9-3.1 1.9zm9.1 36.2c-1.3 0.5-2.7 1.5-3.2 2.2-0.5 0.6-0.8 2.4-0.9 3.9 0 1.5 0.7 3.5 1.5 4.3 0.9 0.8 3.2 1.5 5.3 1.5 2 0 4.8-0.8 6.1-1.8 2-1.4 2.3-2.3 1.7-5.2-0.3-1.9-1.2-4.1-1.8-4.8-0.7-0.7-2.4-1.3-3.8-1.2-1.3 0.1-3.5 0.6-4.9 1.1zm-658 1.8q-0.1 2.1-2.1 2.1c-1.1 0-2 0.6-2 1.5 0 0.8 0.9 1.5 2 1.5 1.5 0 1.9 0.5 1.5 2q-0.5 2 1 2c0.9 0 1.5-0.7 1.5-1.5 0-1.2 1.3-1.5 5.5-1.5 4 0 5.7-0.4 6-1.5 0.3-0.8 0.5-2.4 0.5-3.5 0-1.1-0.6-2-1.5-2-0.8 0-1.5 0.9-1.5 2 0 1.5-0.6 2-2.7 1.9-1.5 0-3.4-0.4-4.3-0.7-0.8-0.4-1.5-1.4-1.5-2.1 0-0.8-0.5-1.6-1.1-1.9-0.6-0.2-1.2 0.6-1.3 1.7zm666.7 37.9c-1.5 0.3-3.7 0.7-5 0.9-1.3 0.2-2.5 1-2.6 1.8-0.1 1.2 0.7 1.4 4.1 0.9 3.4-0.5 4.6-0.2 6.5 1.5 1.2 1.1 2.1 2.6 1.9 3.3-0.2 0.7-1.9 1.6-3.8 2-1.8 0.5-4.4 0.8-5.6 0.8-1.4 0-2.3 0.6-2.3 1.5 0 0.8 0.9 1.5 2 1.5 1.1 0 4.1-0.6 6.7-1.3 2.7-0.7 5-2 5.5-3.2 0.8-1.6 0.4-2.6-1.8-4.8-2.8-2.7-2.8-2.8-0.6-2.7 1.3 0 2.1-0.5 1.9-1.3-0.2-0.7-1.2-1.3-2.3-1.3-1-0.1-3.1 0.1-4.6 0.4zm-671.6 6.1c-0.2 1.9 0.3 2.1 6.3 2.1 5.1 0 6.5-0.3 6.5-1.5 0-1.2-1.2-1.5-5-1.5-2.7 0-5.6-0.3-6.3-0.6-0.9-0.4-1.4 0.1-1.5 1.5zm-4.2 35.3c-0.7 1.3-0.9 3.3-0.4 4.8 0.4 1.4 0.7 3.3 0.6 4.2-0.2 1.6 0.8 1.8 7.3 1.8 6 0 7.5-0.3 7.5-1.5 0-1.2-1.2-1.5-5.2-1.5-2.9 0-5.8-0.5-6.5-1.3-0.7-0.6-1.3-2.2-1.3-3.5 0-1.2 0.5-2.4 1-2.7 0.6-0.3 1-1 1-1.5 0-0.6-0.6-1-1.4-1-0.9 0-2 1-2.6 2.2zm670.6 3.4c-0.5 0.4-0.8 1.8-0.7 3 0.1 1.3 0.6 2.6 1.1 2.9 0.6 0.3 1 0.9 1 1.5 0 0.5-0.4 0.8-1 0.5-0.5-0.3-1 0.2-1 1 0 1.2 1.4 1.5 6.3 1.5 5.7 0 6.3-0.2 7.5-2.5 0.7-1.4 1.2-3.6 1.2-5 0-1.6-0.5-2.5-1.5-2.5-1.1 0-1.3 0.5-0.7 2 0.5 1.3 0.1 2.5-1.3 3.9-1.1 1.1-2.3 1.8-2.7 1.6-0.4-0.3-0.7-2.2-0.5-4.3 0.2-3.6 0.1-3.7-3.3-4-2-0.2-3.9 0-4.4 0.4zm-1.6 39.9c0 1.1 1.2 1.5 4.3 1.5 2.3 0 4.8 0.5 5.5 1.2 0.7 0.7 1.3 2.4 1.3 3.8-0.1 2.5-0.1 2.5-6.1 1.7-5-0.6-6-0.5-6 0.8 0 1.1 1.6 1.6 5.8 2 4.7 0.5 6.1 0.2 7.5-1.2 1.3-1.3 1.6-2.9 1.4-5.8-0.4-3.8-0.7-4.1-4.3-4.7-2.1-0.4-5.1-0.7-6.6-0.8-1.8 0-2.8 0.5-2.8 1.5zm-662.8 1.3c-0.7 0.5-1.5 2.4-1.8 4.3-0.5 2.6-0.2 3.9 1.5 5.6q2.1 2.3 5.6 2.3c2 0 4.4-0.5 5.5-1 1.7-0.8 2-2 2-6.5 0-3-0.4-5.5-1-5.5-0.5 0-1 2-1 4.5 0 3.1-0.4 4.6-1.5 5-0.8 0.3-1.9 0.5-2.5 0.5-0.5 0-1-2.3-1-5 0-4.5-0.2-5-2.2-5-1.3 0-2.8 0.4-3.6 0.8zm3.1 40.4c0.3 0.9 2.8 1.2 8.6 1l8.1-0.2c-10.4 8.7-13.5 11.6-13.5 12.1 0 0.5 0.4 0.9 0.8 0.9 0.4 0 3.8-2.4 7.5-5.2 3.7-2.9 7.2-5.5 7.7-6 0.7-0.5 0.5-1.3-0.5-2.3-1.1-1.2-3.5-1.6-10.3-1.6-6.7 0.1-8.8 0.4-8.4 1.3zm663.7 0.8c0 1.6-0.5 1.9-2.5 1.5-1.3-0.3-3.5-0.8-4.9-1.1-1.4-0.3-2.9 0-4 1-0.8 0.9-1.6 2-1.6 2.6 0 0.5 0.7 1 1.5 1 0.9 0 1.6-0.5 1.8-1 0.1-0.7 1.6-0.8 4.2-0.2 2.9 0.6 4 1.3 3.8 2.5-0.2 0.9 0.2 1.7 0.7 1.7 0.6 0 1.3-0.5 1.5-1 0.3-0.6 1.4-1 2.5-1 1.1 0 2-0.7 2-1.5 0-0.8-0.8-1.5-1.7-1.5-1.3-0.1-1.7-0.8-1.6-2.5 0.1-1.4-0.2-2.5-0.7-2.5-0.5 0-1 0.9-1 2zm-24.6 37.9c-0.2 0.9-0.3 1.6-0.1 1.7 0.1 0 3.4 1.3 7.2 2.7 3.9 1.5 7.4 2.7 7.8 2.7 0.4 0 0.6-0.6 0.5-1.4-0.1-0.7-3.5-2.7-7.5-4.3-6.5-2.6-7.5-2.8-7.9-1.4zm-594.4 31.8c0 0.4 0.7 1.5 1.5 2.3 0.9 0.8 1.6 1.9 1.6 2.5 0 0.5-1.3 1.6-2.8 2.3-2.6 1.2-2.9 1.1-5-1.2-1.3-1.5-2.8-2.5-3.4-2.4-0.6 0.2 0 1.7 1.5 3.5 2.6 3.2 2.6 3.3 0.6 4.3-1.1 0.6-1.8 1.6-1.5 2.5 0.4 1.2 0.9 1.3 2.6 0.2 1.6-1 2.1-1 2.8 0.3 0.5 0.8 1.4 1.1 2 0.7 0.8-0.5 0.8-1.2 0.1-2.2-0.7-1.2-0.3-1.9 2-3.3 1.7-0.9 3.3-2.5 3.5-3.5 0.3-0.9-0.1-2.8-1-4.2-0.8-1.4-2.1-2.5-3-2.5-0.8 0-1.5 0.3-1.5 0.7zm572.5 2.4c-1.5 1.7-2.7 3.7-2.6 4.5 0.1 0.7 1.4 2.4 2.9 3.7 1.5 1.3 3.9 2.6 5.2 3.1 2 0.6 3.1 0.2 5.4-2.1 1.9-1.9 2.7-3.4 2.2-4.6-0.3-0.9-1-1.7-1.6-1.7-0.5 0-1 0.7-1 1.5 0 0.8-0.6 2.2-1.4 3-0.8 0.8-1.9 1.5-2.5 1.5-0.6 0-0.8-0.8-0.5-1.8 0.4-0.9 1.2-2.9 1.8-4.4 1-2.4 0.8-3-0.9-4.3-1.1-0.8-2.5-1.5-3.1-1.5-0.7 0-2.4 1.4-3.9 3.1zm-551.9 32.9c-0.3 0.5 0.6 2 2.1 3.2 1.5 1.3 2.4 2.8 2 3.5-0.4 0.7-1.2 1.3-1.9 1.3-0.7 0-2.4-1.1-3.8-2.5-1.3-1.4-2.8-2.6-3.2-2.5-0.4 0-0.8 0.5-0.8 1.2 0 0.7 0.9 2 2 2.8 1.1 0.8 2 2 2 2.7 0 0.7-0.5 1.6-1.2 1.9-0.7 0.3-2.7-0.9-4.4-2.8-2.2-2.2-3.4-2.9-3.8-2.1-0.3 0.7 0.5 2.5 1.9 4 1.4 1.5 2.5 3.3 2.5 4 0 0.7 0.5 1.5 1 1.8 0.6 0.3 4-1.5 7.5-4 3.6-2.5 6.5-4.7 6.5-5 0-0.3-1.4-2.3-3.2-4.5-1.8-2.2-3.6-4-4-4-0.4 0-0.9 0.4-1.2 1zm529.8 0.7c-0.9 1.5-0.5 2.2 2.8 4.5 2.8 2 4 2.4 4.4 1.5 0.4-0.7-0.8-2.7-2.7-4.5-3.1-2.9-3.5-3.1-4.5-1.5zm-40.4 42.3c-3 2.6-4.2 4.2-3.5 4.9 0.7 0.7 2.2 0.1 4.8-1.9l3.7-3c9 9.5 10.8 10.8 11.5 10 0.7-0.7-1-3-5.5-7.5l-6.5-6.4zm-438.8 17.9c0.2 0.4 3.7 3.8 7.8 7.4 4.1 3.6 8 6.6 8.5 6.7 0.6 0 1-0.4 1-0.8 0-0.5-3.7-3.8-8.2-7.5-4.6-3.7-8.6-6.7-8.9-6.7-0.3 0-0.4 0.4-0.2 0.9zm403.7 9.3l-3.6 3.3c6 8.1 8.1 10.5 8.6 10.5 0.4 0 1.1-0.2 1.5-0.5 0.3-0.3-0.8-2.2-2.5-4.3-2.4-2.9-2.9-4.3-2.5-6.5 0.4-1.8 1.2-2.7 2.6-2.7 1.1 0 3.4 1.7 5.1 3.7 2.4 2.9 3.3 3.5 4.2 2.6 0.9-0.9 0.5-2.1-2-5.2-2.1-2.7-4.1-4.1-5.6-4.1-1.2 0-3.9 1.5-5.8 3.2zm-28.8 17.5c-1 0.3-1.4 1.7-1.3 3.9 0.1 1.9 0 3.4-0.3 3.4-0.3 0-1.6-0.6-3-1.3-1.9-0.9-2.8-0.9-3.7-0.1-1 0.9-0.4 1.6 2.7 3 3.7 1.8 4 2.2 3.8 5.6-0.2 3 0 3.7 1.2 3.3 0.8-0.3 1.5-1.6 1.5-3 0-1.4 0.2-2.5 0.5-2.5 0.3 0 1.5 0.4 2.8 0.9 1.2 0.5 2.9 0.6 3.7 0.1 0.8-0.5 1.3-1 1-1.2-0.3-0.2-2.2-1.1-4.2-2.1-3.7-1.7-3.8-1.8-3.2-6.2 0.3-2.5 0.4-4.5 0.2-4.4-0.1 0-0.9 0.3-1.7 0.6zm-299.5 12.8c-0.6 0.4-0.6 2.6-0.2 5.4l0.9 4.6c-6.5 2.3-8.3 3.3-8.3 3.7 0 0.5 1.3 0.6 2.8 0.4 1.5-0.2 3.5-0.6 4.5-1 1.4-0.5 1.8 0 2 2.6 0.1 1.7 0.8 3.3 1.5 3.5 0.8 0.2 1.2-1.1 1.2-4.5 0-4.4 0.2-4.8 3.8-6.9 3.2-1.9 3.5-2.3 1.9-3-1.1-0.5-2.2-0.3-2.9 0.4-0.7 0.7-1.8 1.3-2.5 1.3-0.7 0-1.3-0.8-1.3-1.8 0-0.9-0.5-2.5-1.2-3.5-0.7-1-1.7-1.5-2.2-1.2zm37.1 19.2c-0.8 1-2 3-2.6 4.5-0.6 1.6-1.1 3.2-1.1 3.8 0 0.5 1.1 2.1 2.5 3.5 1.4 1.4 3.7 2.5 5.3 2.5 1.5 0 3.5-0.7 4.4-1.7 0.9-1 2.2-3 2.7-4.6 0.8-1.8 0.8-3.4 0.1-5-0.5-1.2-2.1-2.8-3.5-3.5-1.4-0.6-3.3-1.2-4.3-1.2-1.1 0-2.6 0.8-3.5 1.7zm162.2 8.4c-0.2 1.7 0 3.2 0.4 3.5 0.4 0.2 0.7 2 0.7 3.9 0 1.9 0.5 4.6 1 6 0.8 1.9 1.8 2.5 4 2.5q3 0 3-1.5 0-1.5-2-1c-1.5 0.4-2.1-0.1-2.4-1.8-0.3-1.2-0.7-3.7-1-5.5-0.5-2.7-0.3-3.2 1.4-3.2 1.1 0 2-0.5 2-1 0-0.6-0.9-1-2-1q-2 0-2-2c0-1.1-0.6-2-1.4-2-0.8 0-1.5 1.3-1.7 3.1zm-121.3 8.2c-1.8 2.8-3.8 6.2-4.4 7.4-0.7 1.3-1.2 2.7-1.2 3.3 0 0.5 0.6 1 1.3 1 0.7 0 2.3-2.3 3.7-5.1 1.4-2.8 3.1-5.5 3.8-6 0.9-0.7 1.4 0.2 1.8 3.3 0.3 2.4 0.7 5.8 1 7.5 0.3 2.1 1 3.3 1.9 3.3 0.8 0 1.3-0.6 1.1-1.3-0.2-0.6-0.8-4.9-1.3-9.4-0.7-6.4-1.3-8.3-2.7-8.7-1.2-0.4-2.6 0.9-5 4.7zm81-3c-1.4 0.9-1.9 2.4-1.8 5.7 0.1 2.9 0.8 5.2 1.9 6.3 1.3 1.3 3 1.7 6.2 1.5 2.5-0.2 4.6-0.8 4.8-1.3 0.2-0.6-1.6-0.8-4.7-0.5-3.6 0.4-5 0.1-5-0.8 0-0.6-0.2-1.9-0.5-2.7-0.4-1.2 0.6-1.5 5-1.5 4.9 0 5.5-0.2 5.5-2 0-1.1-0.9-2.9-2-4-1.1-1.1-3.2-2-4.8-2-1.5 0-3.6 0.6-4.6 1.3z"/><path fill-rule="evenodd" class="a" d="m509.1 395.1c-0.7 2.4-1.5 5-1.7 5.6-0.3 0.9 0.9 1.3 3.6 1.3 3.4 0 3.9-0.3 3.4-1.8-0.4-0.9-1.2-3.1-1.8-4.8-0.6-1.8-1.3-3.5-1.6-3.9-0.3-0.4-1.1 1.3-1.9 3.6zm43.4 2.5c-0.4 0.4-0.8 1.3-0.7 2.1 0.1 0.8 1.5 1.3 3.7 1.3 2.8 0 3.4-0.4 3.2-1.8-0.1-1-1.2-1.8-2.7-2-1.4-0.2-3 0-3.5 0.4zm78.5 20.6c-0.8 0.7-1.3 1.4-1.2 1.7 0.1 0.4 1.3 1.2 2.7 1.8 1.4 0.7 3 1.3 3.5 1.3 0.5 0 1-1.1 1-2.5 0-1.4-0.7-2.7-1.5-3-0.8-0.3-1.9-0.5-2.3-0.5-0.4 0-1.4 0.5-2.2 1.2zm-281.5 19.5c-0.4 1.5-0.5 2.9-0.3 3.1 0.2 0.1 1.8-0.5 3.5-1.5 1.8-1 3.1-2.3 3-2.8-0.2-0.6-1.5-1.1-2.9-1.3-2.2-0.3-2.7 0.2-3.3 2.5zm383.8 50q-0.6 1.8 1.8 3.6c2 1.5 2.6 1.6 3.8 0.5 0.7-0.7 1-1.9 0.7-2.6-0.3-0.6-1.3-1.2-2.1-1.2-0.8 0-1.5-0.5-1.5-1 0-0.6-0.5-1-1-1-0.6 0-1.3 0.8-1.7 1.7zm-244.3 21.4c-5.2 1-13.8 3.3-19 5-5.2 1.7-13.8 5.3-19 8-5.2 2.7-13.6 7.8-18.5 11.4-5 3.5-15 11.4-22.3 17.5-7.2 6-13.2 11.5-13.2 12 0 0.6 9.2 1 25.5 1 23 0 25.7-0.2 27.1-1.8 0.9-0.9 3.6-5.3 6-9.7 2.5-4.4 6.4-10.5 8.7-13.5 2.3-3 6.9-8.3 10.2-11.8 3.3-3.5 8.2-8.1 11-10.1 2.7-1.9 8.4-5 12.5-6.8 6.7-2.9 7.1-3.3 4-3.2-1.9 0-7.8 0.9-13 2zm47 1.7c4.6 2.3 10.1 6.2 14.4 10.2 3.8 3.6 9.7 9.9 13.1 14 3.4 4.1 9 11.8 12.5 17 3.5 5.2 7 10.1 7.9 10.8 1.2 0.9 8 1.2 27.1 1.2l25.5 0.1c-3.9-4.1-7.9-7.6-11.5-10.4-3.6-2.9-9.7-7.9-13.5-11.2-3.9-3.3-10.6-8.6-15-11.6-4.4-3.1-10.7-7-14-8.6-3.3-1.7-12.3-5.1-20-7.6-7.7-2.5-17-5.3-20.8-6.1-3.7-0.9-8.2-1.6-10-1.6-2.9 0-2.4 0.4 4.3 3.8zm-33.5 0.6c-3.3 1.2-9.2 4.3-13 6.7-4 2.6-10 7.8-14 12.3-3.9 4.3-8.8 10.3-10.9 13.4-2.2 3.2-5.7 8.7-7.8 12.4-2.1 3.8-3.7 7-3.6 7.3 0.2 0.3 11.2 0.2 24.5-0.2l24.3-0.8c0.7-3.9 1.1-7.3 1.5-10 0.3-2.8 1.7-10.9 3-18 1.3-7.2 2.5-15.8 2.8-19.3 0.3-3.4 0.2-6.2-0.2-6.1-0.3 0-3.3 1.1-6.6 2.3zm6.5 24.1c-2.5 14.5-4.3 26.7-4 27 0.3 0.3 4.9 0.2 10.3-0.3 8.8-0.6 9.7-0.9 9.7-2.7 0-1.1-0.9-7.4-2-14-1-6.6-2.8-16-4-21-1.1-5-2.5-10.5-3-12.3-0.6-1.7-1.3-3.2-1.8-3.2-0.4 0-2.7 11.9-5.2 26.5zm10.4-24.4c0.2 1.3 1.7 8.9 3.4 16.9 1.7 8 3.6 19 4.4 24.4 0.7 5.4 1.8 10 2.3 10.2 0.5 0.2 11.9 0.5 25.3 0.6 13.3 0.2 24.2 0 24.2-0.5 0-0.4-3-5.3-6.8-10.9-3.7-5.6-10.5-14.4-15.2-19.7-4.7-5.2-11.2-11.5-14.5-13.9-3.3-2.4-8.5-5.2-11.5-6.3-3-1.2-7-2.3-8.7-2.6-3-0.6-3.2-0.4-2.9 1.8zm-62.4 1.9c-2.5 0.5-10.8 2.9-18.5 5.4-8.2 2.6-19.6 7.3-27.5 11.3-7.4 3.8-20.3 11.2-28.5 16.5-8.3 5.3-17 11.5-19.5 13.7l-4.5 4c30.8 0.2 33.2 0 34.5-1.5 0.8-0.9 6-5.6 11.5-10.3 5.5-4.7 12.1-10.3 14.7-12.4 2.9-2.2 5.3-3.4 6-3q1.3 0.8 0.5-0.5c-0.4-0.7 0.6-2.1 2.8-3.7 2-1.4 4-2.2 4.7-1.8q1.3 0.8 0.5-0.5-0.7-1.2 5-4.9c3.2-2 10.3-5.8 15.8-8.4 5.5-2.7 9.3-4.8 8.5-4.7-0.8 0-3.5 0.4-6 0.8zm115.5 2c4.4 1.7 10.2 4.2 13 5.7 2.7 1.4 7.9 4.6 11.5 6.9 3.6 2.4 8.8 6.3 11.7 8.6 2.9 2.4 9.6 8 15 12.4 5.4 4.5 11.4 9.8 13.3 11.8l3.5 3.6c20.5 0 26.3-0.3 26.1-0.8-0.2-0.4-4.5-3.9-9.7-7.8-5.2-3.9-11.7-8.6-14.4-10.6-2.8-1.9-9-5.8-14-8.7-5-3-12.8-7.1-17.5-9.3-4.7-2.2-11.9-5.3-16-7-4.1-1.6-12-4.1-17.5-5.4-5.5-1.3-10.7-2.4-11.5-2.4-0.8 0.1 2.1 1.4 6.5 3zm219.5 31.8l-2.5 2c3.1 3.3 4.8 4.3 5.7 4.2 1 0 2-0.3 2.2-0.8 0.2-0.4-0.3-2.2-1.3-4l-1.6-3.3zm-286.3 18.9c-0.3 0.4-0.8 4.3-1.2 8.7-0.5 4.8-0.5 7.8 0.1 7.4 0.5-0.4 4.5 0.5 8.9 2 7.9 2.6 8 2.7 10.8 8.2l2.8 5.4c-0.9-15.5-1.1-22.8-1.1-26.2v-6.3c-15.4 0-20.1 0.4-20.3 0.8zm-29.3 1.1c-2.2 0.3-6.7 2.3-10 4.3-3.2 2-9.5 5-13.9 6.8-4.4 1.8-7.9 3.6-7.8 4.1 0.2 0.5 0.5 0.9 0.8 0.9 0.3 0 3.7-1.5 7.7-3.3 4-1.8 10.2-4.3 13.8-5.5 3.6-1.1 11.2-3.1 17-4.3 5.8-1.2 12.3-2.5 14.5-2.9 2.8-0.5 0.6-0.7-7-0.7-6.1 0-12.8 0.3-15.1 0.6zm52.6 6.1v7c3.5-2.1 6.3-3.3 8.5-4 2.2-0.7 6.3-2.6 9.2-4.1 2.9-1.6 5.2-2.9 5-2.9-0.1 0-3.8-0.7-8.2-1.5-4.4-0.8-9.5-1.4-11.3-1.4l-3.2-0.1zm27-5.3c1.9 0.8 6.6 2.2 10.5 2.9 3.8 0.8 9.5 2.1 12.5 2.9 3 0.8 5.6 1.2 5.7 1 0.2-0.3-0.2-1.5-0.8-2.7-0.7-1.3-1.9-3.1-2.8-4.1-1.4-1.5-3.3-1.7-15.1-1.6-13 0.1-13.4 0.2-10 1.6zm29.1-1.3c0 0.4 0.7 2.3 1.8 4.4 1.8 3.6 2.3 3.9 14.2 7.4 6.8 2 15.9 4.2 20.1 4.8 4.3 0.5 11.9 2.3 17 3.9 5.1 1.6 11.2 3.2 13.5 3.5 2.4 0.4 4.3 0.4 4.3 0.1 0-0.2-2.8-4.2-6.3-8.7-3.5-4.6-7.2-9.7-8.3-11.5l-1.9-3.3c-38.8 0-51-0.3-52.1-0.6-1.2-0.3-2.2-0.3-2.3 0zm-235.9 6.1c-3.2 2.9-9 9.3-13 14.2-3.9 4.9-11.1 14.5-15.9 21.3-4.8 6.9-10.9 16.7-13.5 21.8l-4.8 9.2h19c9.6-11.2 16.7-18.7 21.9-24 5.1-5.2 12.3-12.8 15.8-17 3.5-4.1 6.6-8.8 7-10.5 0.3-1.6 1.9-4.4 3.5-6.2 1.9-2.2 3.7-3.3 5.5-3.2 1.8 0 3.9-1.1 5.8-3 1.6-1.7 3.4-2.7 4-2.3 0.6 0.4 0.7 0.2 0.2-0.5-0.4-0.7 0-1.8 0.8-2.5 0.9-0.7 1.6-1.6 1.5-2 0-0.4-7.3-0.8-16.1-0.8h-16.1zm37.3 0.6l-5.9 6c11.7 0 14-0.5 18.5-2.9 3-1.5 7.7-3.7 10.3-4.7 2.7-1.1 5.4-2.5 6-3.2 0.9-1-1.1-1.3-10.9-1.2h-12zm46.5-2.9c-2.4 1.6-5.4 3.3-6.5 3.8-1.2 0.5-2.4 1.5-2.8 2-0.4 0.7 0.4 1.1 2.3 1.1 1.7 0 6.5-1.3 10.8-3 4.2-1.6 8.5-3.8 9.4-5 1.6-2 1.5-2-3.5-1.9-3.9 0-6.3 0.8-9.7 3zm212.1 0.1c1.3 1.8 4.8 6.7 7.8 10.8 3 4.1 9.6 11.8 14.6 17 4.9 5.3 10.7 11.8 12.8 14.5 2.1 2.8 9.1 9.8 15.5 15.7l11.7 10.7c13.5 0.1 14.5-0.1 14.6-1.7 0-0.9-2.6-6-5.7-11.2-3.1-5.2-8.6-14-12.2-19.5-3.5-5.5-8.9-12.9-11.9-16.5-3-3.6-9.2-10.2-13.6-14.8l-8.2-8.3-27.7 0.1zm-149.1 5c-2.5 3.9-5.5 8.1-6.7 9.2-1.2 1.1-3.1 4.6-4.2 7.8-1.2 3.2-1.9 6.5-1.7 7.5 0.2 1 0.7 3 1 4.5 0.4 1.7 1.3 2.8 2.4 2.8 0.9 0 2.7-1 3.8-2.3 1.2-1.2 3.3-4.3 4.8-6.8 1.4-2.5 2.6-6 2.5-8 0-3.1 0.2-3.3 1.6-2 1.5 1.4 1.6 1 1.6-4-0.1-3 0.2-7.8 0.4-10.7 0.3-2.9 0.2-5.2-0.2-5.2-0.4 0-2.8 3.2-5.3 7.2zm-92 4.7c-4.1 1.5-10.9 4.4-15 6.5-4.1 2.1-8.7 4.8-10.3 5.9-1.5 1.2-2.7 2.5-2.7 2.9 0 0.4 1 0.5 2.3 0.2 2.2-0.6 2.1-0.5-0.3 1.5l-2.5 2.1c4.7-1 7.8-1.7 10-2.2 2.2-0.5 7.4-2.3 11.5-4 4.1-1.7 8-3.5 8.5-3.9 0.6-0.5-0.9-0.6-3.5-0.3-2.5 0.4-6.7 1.7-9.5 3-2.7 1.3-5.7 2.3-6.5 2.3-0.8 0 1-1.6 4-3.7 3-2.1 9.8-5.9 15-8.4 5.2-2.6 8.8-4.7 8-4.7-0.8 0-4.9 1.3-9 2.8zm184-2.2c0 0.7 1.5 5 3.4 9.5 1.8 4.5 4.5 11.8 6 16.2 1.4 4.4 4.1 13.7 6 20.5 2 7.1 3.5 11.2 3.6 9.5 0-1.6-2-9.9-4.5-18.5-2.4-8.5-6.3-20.2-8.5-26-2.2-5.7-4.5-10.9-5-11.5q-1-1-1 0.3zm-157.2 9.8c-3.5 3-8.5 7-11.3 8.8-2.7 1.8-6.1 3.6-7.5 3.9-1.4 0.3-5.2 2.6-8.5 5.1-3.3 2.5-7.8 6-10.1 7.8-3.6 3-4 3.6-3 5.7 0.8 1.6 1.7 2.1 2.9 1.7 1.2-0.4 1.7 0 1.7 1.2 0.1 1-1.1 2.3-2.5 3-1.4 0.7-4.6 3.2-7.2 5.6l-4.8 4.5c-0.3-8 0.1-11.3 0.7-12.4 0.6-1.1 1.9-2.5 2.7-3.2 1.4-1 1.1-1.2-1.6-1.2-1.8 0-4.4 0.4-5.8 0.9-1.4 0.6-2.5 1.6-2.5 2.3 0 0.7-0.7 2.5-1.5 4-0.8 1.5-1.3 3.2-1 3.7 0.3 0.6 1.6 1 3 1 1.4 0 2.5 0.4 2.5 0.9 0 0.5-0.6 1.4-1.5 2-0.8 0.6-1.3 1.5-1.1 1.9 0.3 0.4-1.6 1.1-4.2 1.5-2.6 0.4-9.5 0.8-15.4 0.8-6.5-0.1-10.8 0.3-10.8 0.9 0 0.7 13.8 1 39.3 1h39.2c2.9-12 7.1-24.5 11.1-35.5 4.1-11 7.4-20.3 7.4-20.7 0-0.4-0.9-0.8-2-0.8-1.1 0-4.8 2.5-8.2 5.6zm100 22.6l0.7 27.6c-11.6 1-17.2 1.4-20 1.6-2.7 0.1 0.7 0.4 7.8 0.5l12.7 0.1c0.2 4.3 0.8 17.5 1.5 32l1.4 26.5-0.9-58.5c15.7 0 17.2 0.3 16.2 1.3-0.7 0.7-1.2 2.3-1.2 3.5 0 1.6 0.6 2.3 2.3 2.3 1.2 0 2.8-0.7 3.5-1.5 0.6-0.9 1-2.5 0.7-3.6-0.5-1.9-0.1-2 69.3-1.6 38.3 0.3 67.7 0.2 65.2-0.1-4.3-0.4-4.7-0.8-11.5-10-3.8-5.2-10.1-12.4-14-16-3.8-3.5-10.1-8.5-14-11-3.8-2.6-12.2-7.7-18.5-11.5-6.3-3.7-11.9-6.8-12.5-6.7-0.5 0 1.3 1.3 4 3 2.8 1.7 8.2 5.1 12.1 7.7 3.9 2.6 10.7 7.2 15 10.2 4.4 3 10.3 7.7 13.3 10.5 2.9 2.8 7.1 7.5 9.4 10.5 2.3 3.1 5.5 7 7.2 8.8 2.1 2.3 2.6 3.3 1.5 3.4-0.8 0.1-24.7 0.1-53 0-28.3-0.1-61.4-0.5-73.5-0.8l-22-0.6c-1.2-38.2-2-50.6-2.5-52.3-0.5-1.8-0.6 7.3-0.2 24.7zm280.2-25.2c0 0.6 0.5 1.9 1 3 0.6 1.1 1.7 2 2.5 2 0.8 0 1.5-0.4 1.5-1 0-0.5-0.4-1.9-1-3-0.5-1.1-1.7-2-2.5-2-0.8 0-1.5 0.5-1.5 1zm-309.8 5.4c-0.8 2.8-1.4 12.3-1.7 26.7-0.3 18.8-0.2 20.7 0.5 11.4 0.5-6 1.5-17.9 2.2-26.3 0.6-8.5 1-15.6 0.7-15.8-0.2-0.2-1 1.6-1.7 4zm-28.4 1.6c-1.8 1.6-3 3.1-2.5 3.5 0.4 0.3 1.7-0.5 2.9-1.7 1.1-1.2 1.8-1.6 1.4-0.8-0.4 0.9 0 0.6 0.9-0.5 0.8-1.1 1.5-2.3 1.5-2.7 0-0.4-0.2-0.8-0.5-0.8-0.2 0-1.9 1.4-3.7 3zm-8.4 7.4c-2.3 1.3-6 4.8-8.2 7.7-2.2 3-4.4 6.6-5 7.9-0.5 1.5-0.6 3.5-0.1 4.8 0.8 2 1.6 2.2 7.7 2.2 4.7 0 7.5-0.5 9.5-1.7l2.7-1.8c-7-5.4-9-7.1-9-7.2 0-0.1 1.4-2.8 3.1-6 1.7-3.2 3.5-6.3 4-7 0.5-0.7 0.6-1.2 0.2-1.2-0.4 0-2.6 1-4.9 2.3zm-110.7 14.9c-2.4 3.4-6.2 9.4-8.4 13.2-2.2 3.9-4.3 8.1-4.6 9.3-0.4 1.3-0.3 2.2 0.3 2.2 0.6 0 2.4-2.8 4.2-6.2 1.7-3.4 4.8-9 6.8-12.3 2-3.3 4.4-7.4 5.3-9.2 0.8-1.8 1.4-3.3 1.2-3.3-0.2 0-2.3 2.9-4.8 6.3zm140.3-3.3c-0.5 1.1-2.9 2.9-5.2 4-2.4 1.1-5.4 2-6.8 2-1.4 0-4.2 1.5-6.5 3.6l-4 3.5c5.4-0.7 8.4-1.2 10-1.5 2.4-0.5 2.6-0.4 1 0.4-1.6 0.7-1.3 0.9 2 1.1 2.2 0.1 4.7 0.1 5.5 0 0.8-0.1 2.2-0.9 3-1.7 0.8-0.8 2.3-3.6 3.3-6.2 0.9-2.5 1.7-5.2 1.7-5.9 0-0.7-0.7-1.3-1.5-1.3-0.8 0-1.9 0.9-2.5 2zm-155.1 12.8c-5.2 5.3-8.9 9.4-8.2 9.2 0.6-0.2 3.3-2.5 6-5.1 2.6-2.5 6.8-6.7 9.3-9.2 2.4-2.6 3.9-4.7 3.3-4.7-0.5 0-5.2 4.4-10.4 9.8zm-143.5 1.5c-0.3 1.2-0.3 2.8 0 3.5 0.3 0.7 1.1 1.2 1.6 1.2 0.6 0 1.5-0.9 2-2 0.7-1.4 0.6-2.4-0.2-3.5-0.7-0.8-1.6-1.5-2-1.5-0.4 0-1 1.1-1.4 2.3zm268.6-0.3c-0.8 0.5-2.7 1.2-4.2 1.5-2.7 0.5-2.7 0.6-1 2.6 0.9 1.1 2.2 2 2.7 2 0.6 0 1.7-1.2 2.5-2.8 0.8-1.5 1.5-3.1 1.7-3.5 0.1-0.4 0.1-0.7 0-0.7-0.1 0-0.9 0.5-1.7 0.9zm-37.2 8.5c-0.3 1.1-0.9 2.7-1.2 3.5-0.5 1.1 0.1 1.7 1.8 2 2.2 0.5 2.4 0.3 1.9-2-0.3-1.3-0.9-3.1-1.3-4-0.6-1.2-0.8-1.1-1.2 0.5zm55.2 5.3c3 0.2 7.5 0.2 10 0 2.5-0.2 0-0.4-5.5-0.4-5.5 0-7.5 0.2-4.5 0.4zm-37.5 1.2l-13 0.6c20.9 0.2 31.1-0.1 36-0.5l9-0.7c-14.7 0-24.8 0.3-32 0.6zm54.3 4.5c-0.5 2.8-0.8 7.1-0.8 9.5 0.1 3.5 0.3 4.1 1 2.8 0.6-1 0.9-5.2 0.8-9.5-0.3-7.6-0.3-7.7-1-2.8zm-200 5.3c-2.1 4.8-4.7 11.4-5.8 14.7-1.2 3.3-3.1 9.9-4.4 14.5-1.4 4.7-3.4 13.2-4.5 18.8-1.2 5.6-2 12.2-2 14.5 0.1 3.7 0.7 2.3 4.9-10.3 2.6-7.9 6.8-18.7 9.4-24 2.5-5.2 5.2-11.9 5.9-14.8 1.1-4.7 1.8-5.7 5.7-8.3 2.6-1.7 5.7-5 7.2-7.7 1.5-2.5 2.8-5 2.8-5.4 0-0.4-3.5-0.8-7.8-0.8h-7.7zm125.3-5c-0.6 2.1-1.9 9-3 15.3-1 6.3-2.2 14.2-2.5 17.5-0.5 4.9-0.4 5.6 0.5 4 0.7-1.1 3.1-4 5.3-6.4 2.3-2.4 6.2-5.2 8.6-6.3 4-1.7 5.9-1.9 14.5-1.3 8.9 0.6 10.6 0.4 14.8-1.4l4.7-2.1c3.5 8.6 5 11.2 5.5 11.5 0.6 0.2 2.2 0.1 3.5-0.2 1.4-0.4 2.9-1.1 3.2-1.7 0.5-0.7 1-0.3 1.4 0.9 0.3 1.1 1.2 3.5 2 5.2 0.8 1.9 2.2 3.3 3.2 3.3 1 0 3.1-0.4 4.7-1 1.7-0.5 3.6-2.1 4.3-3.5 0.7-1.4 1.2-5.1 1.2-8.3 0-4.5-0.4-6.2-2.2-8-2-1.9-2.1-2.5-1-4.7 0.7-1.4 1.3-3.5 1.3-4.8 0-1.5-1.4-3.1-4.8-5.4-2.6-1.8-6-3.2-7.5-3.3-1.8 0-2.8 0.5-2.8 1.5 0 0.8 0.6 2.7 1.3 4.2 0.6 1.6 2.4 3.9 3.9 5.3l2.7 2.5c-3.4 9.9-5.2 13.3-6.2 13.9-1.4 0.9-2.1 0.7-3.2-0.9-0.8-1.1-1.5-2.6-1.5-3.3 0-0.6 1.2-2.6 2.5-4.2 1.4-1.7 2.5-3.9 2.5-5 0-1.1-1.4-3-3.2-4.3-1.8-1.3-4.5-3-6-3.8-2.4-1.2-3.4-1.2-6.5-0.1-2.1 0.7-7.6 4.5-12.3 8.3-7.2 5.9-9 7-12.2 6.9-2.9 0-4.3-0.7-6.3-3-1.3-1.7-2.5-3.5-2.5-4 0-0.6 0.7-2.4 1.5-4 0.9-1.7 2.6-3.7 3.8-4.5 1.9-1.2 2-1.7 1-3-0.7-0.8-1.8-1.5-2.5-1.5-0.7 0.1-2.5-0.8-4-2-1.5-1.1-3.6-2-4.7-2-1.5 0-2.3 1-3 3.7zm132.7-0.2c-0.3 2.2-1.1 5.8-1.8 8-1.1 3.5-1 4.5 0.6 7.9 1.5 2.9 3.2 4.5 6.9 6.3 2.8 1.3 5.3 2.3 5.5 2.3 0.3 0-0.7-1.1-2.2-2.5-1.5-1.4-3.5-3.7-4.5-5.3-0.9-1.5-2.2-6.8-2.8-11.7-0.9-7.9-1.2-8.5-1.7-5zm51.2-2.5c0 0.8 1.2 8.9 2.5 18 1.4 9.1 3.4 22.8 4.6 30.5 1.1 7.7 2.4 14.4 3 15q1 1 1 0c0-0.6-0.5-2.6-1.1-4.5-0.5-1.9-1.4-8.2-2-14-0.5-5.8-1.7-15-2.5-20.5-0.9-5.5-2.3-13.4-3.1-17.5-0.8-4.1-1.7-7.7-2-8-0.2-0.3-0.4 0.2-0.4 1zm-267.5 2.2c-0.4 1.3-2.4 7-4.5 12.8-2.1 5.8-5.2 15.9-6.9 22.5-1.6 6.6-3.9 16.9-5 23-1 6-2.2 15-2.6 20l-0.7 9c13 1.1 29.5 1.5 45 1.5h28.2c-1.5-5-2-9.2-2-12.5 0-3.3 0.8-8.5 1.6-11.5 0.9-3 3-7.3 4.5-9.5 1.6-2.2 6-6 9.7-8.5l6.7-4.6c2.7-20.8 4.2-30.3 5-34.4 0.9-4.1 1.6-8.1 1.6-8.8-0.1-0.9-8.7-1.2-40-1.2h-39.9zm372.1 0c0.4 1.2 5 10.8 10.3 21.2 5.3 10.5 11.6 24.2 14 30.5 2.3 6.4 4.7 12.2 5.1 13q0.9 1.5 1-4.2c0-3.2-0.9-9.9-2-15-1.1-5.1-3.5-13.8-5.4-19.3-1.8-5.5-4.8-13.6-6.6-18-1.7-4.4-3.7-8.5-4.3-9.2-0.8-0.8-3.5-1.3-7-1.3-5.7 0-5.9 0.1-5.1 2.3zm-206 0.2c-1.4 1.3-1.4 1.9-0.2 4.3 0.7 1.5 2.1 3.5 3 4.5 0.9 1 2.9 1.7 4.6 1.7 1.6 0 4.3-0.6 6-1.5 2.1-1 3-2.2 3-4 0-1.3-0.9-3.4-2-4.5-1.5-1.5-3.3-2-7.4-2-3.5 0-6 0.6-7 1.5zm186 6.5c-0.3 3.9-0.3 8.5 0 10.3 0.3 1.8 1.4 5.5 2.4 8.2 0.9 2.8 2.9 10.2 4.4 16.5 2.2 9.2 2.4 11.7 1.4 12.3-0.8 0.4-1.6 3.9-2 9.5-0.4 4.8-0.7 9.8-0.7 11-0.1 1.2 0.3 2.2 0.9 2.2 0.5 0 1.7-1.3 2.5-3 1-1.9 1.5-5.9 1.5-11.5 0-6.7 0.5-9.5 2.2-13.2 1.3-2.6 2.4-4.9 2.5-5 0.2-0.1 1.2 0.2 2.3 0.7 1.1 0.6 2 1.8 2 2.8 0 1-1.4 3.1-3.1 4.7l-3.1 3c1 25.6 1.4 33.1 1.5 33.2 0.1 0.1 8.5 0.3 18.7 0.4l18.5 0.1c-0.3-5.9-1.9-12.2-3.8-17.7-1.9-5.5-5.5-15.1-8-21.5-2.4-6.3-7-16.4-10.1-22.5-3.1-6-6.5-12.5-7.7-14.5-1.2-2.1-3.6-4.1-5.9-5.2-2.2-1-4-1.5-4-1.3 0 0.3 0.6 1.8 1.2 3.3 0.7 1.5 2.3 3.9 3.5 5.2 1.3 1.4 2.8 4.1 3.4 6 0.6 2 0.8 5.3 0.5 7.5-0.4 2.2-2 6.3-3.6 9-1.6 2.8-3.8 6.2-4.9 7.5l-1.9 2.5c-2.5-9.3-4.7-16.5-6.4-22-1.6-5.5-3.2-11.1-3.4-12.5-0.2-1.3 1.4 2.7 3.6 9 2.2 6.4 4.8 12.7 5.7 14l1.6 2.5c3.4-4.5 3.8-6.6 3.7-14-0.1-7.7-0.4-9.4-2.3-12-1.3-1.6-2.8-4.2-3.5-5.7-0.7-1.5-2.7-3.7-4.5-4.7-1.7-1.1-3.5-2-3.8-2-0.4-0.1-0.9 3.1-1.3 6.9zm-363.6-1.2c-2.4 2.1-8.3 9.6-13 16.7-4.8 7.2-9.5 15.5-10.5 18.5-1.2 3.8-1.6 6.9-1.1 9.8 0.3 2.3 1.7 6.4 3 9 1.3 2.6 2.6 5.6 3 6.7 0.4 1.5 0.1 2.1-1.4 2.3-1.2 0.1-3.6-1.2-5.8-3.4-2.8-2.7-4.3-3.4-6-3-1.9 0.6-2.2 0.3-2.2-1.9 0-1.7-0.4-2.3-1.5-2-0.8 0.3-2 2.5-2.6 4.8-0.6 2.4-0.9 8.4-0.7 13.7 0.2 5.3 0.8 10.2 1.2 11 0.6 1.1 1.6-0.1 3.7-4.7 1.6-3.4 3.5-6.3 4.1-6.3 0.7 0 3.8 2.1 6.8 4.6 3 2.6 6.7 5.3 8.2 6.1 1.6 0.7 3 1.3 3.3 1.3 0.3 0 0.5-2.3 0.5-5.2 0-2.9 1.1-12 2.5-20.3 1.3-8.2 3.8-20.4 5.4-27 1.7-6.6 4.6-16.6 6.6-22.2 1.9-5.6 3.5-10.7 3.5-11.3 0-0.5-0.6-1-1.3-1-0.7 0-3.3 1.7-5.7 3.8zm170.6 8.5c-0.3 1.2-0.6 7.1-0.6 13v10.7c4.3-0.8 8.1-0.1 11.5 1.1 3.3 1.1 6.6 2.6 7.4 3.2 1 1 1 0.3-0.3-2.5l-1.6-3.8c6-3.7 7.8-5.7 8.3-7.5 0.7-2.3 0.4-3.2-1-4.2-1.1-0.8-3.3-1-5.8-0.6-2.7 0.4-5 0.1-7.3-1-1.7-0.9-4.6-3.7-6.2-6.2-1.7-2.4-3.2-4.5-3.4-4.5-0.2 0-0.7 1.1-1 2.3zm336.6 2.8c-1.5 0.6-2.1 1.7-2 3.2 0.2 1.7 1 2.3 3.3 2.5 1.6 0.2 3.9-0.3 5-1.2 1.6-1.1 1.8-1.8 0.9-3.2-0.6-1-2-1.9-3-2.1-1.1-0.1-2.9 0.3-4.2 0.8zm-538.9 21.7c-1.4 3.2-3.4 8.2-4.4 11.2-1.1 3.1-1.9 6.2-1.9 7 0 1.2 0.4 1.1 1.7-0.5 1-1.1 2.8-4.2 4-7 1.2-2.7 2.8-7.3 3.7-10.2 0.9-2.9 1.6-5.5 1.6-5.8 0-0.2-0.5-0.5-1-0.5-0.6 0-2.3 2.6-3.7 5.8zm199.4 3.7c-0.4 2.8-0.7 14.4-0.7 25.8v20.7c-46.9 0.1-65.6 0.4-71.8 0.8l-11.2 0.7c0-8.5 0.7-16.8 1.6-24 0.8-7.1 1.7-15.7 1.9-19 0.4-5.9 0.4-5.9-0.5-1.5-0.6 2.5-1.7 9.7-2.5 16-0.8 6.4-1.5 14.2-1.5 17.5 0 3.3-0.3 7.1-0.5 8.3-0.5 2.1-1 2.2-8 2.2-4.3 0-7.5 0.5-7.5 1 0 0.7 2.7 0.8 7.5 0.3l7.5-0.8c0 17.3 0.4 21.5 1 21.5 0.6 0 1-4.1 1-10.5v-10.5h83c0.8 49.3 1.2 70 1.5 77.8l0.5 14.2c-20.2 0-26.7 0.3-27.5 0.5-0.8 0.3-1.3 1-1 1.5 0.3 0.6 6.1 1 14.2 1h13.8c1.2 23.7 1.8 30.3 2.1 30 0.3-0.2 0.5-7.1 0.4-15.2v-14.8c24.5-0.4 28.4-0.8 28.7-1.7 0.2-1-3.1-1.3-14.5-1.3l-14.7 0.1c-1.2-36.1-1.5-56.8-1.5-69.3v-22.8h35.5c-1.2 48.5-1.8 68.8-2.1 76.5-0.4 7.7-0.4 13.8-0.1 13.5 0.3-0.2 1.1-8.8 1.6-19 0.5-10.1 1.6-30.3 2.3-44.7l1.3-26.3c11.2 0 13.4 0.4 14.5 1.5 0.8 0.9 2.5 1.6 3.7 1.6 1.3 0 2.3-0.5 2.3-1.1 0-0.5-1-1-2.3-1-1.2-0.1 0.5-0.7 3.8-1.5 4.2-0.9 14.1-1.3 33-1.4h27c-1.2-19-1.8-25.6-2-26.8-0.3-1.2-1.2-2.3-2-2.3-0.8 0-2.5-1.2-3.8-2.8-1.2-1.5-3-3.2-3.9-3.7-1.1-0.6-4.6-0.6-9.5 0-4.3 0.5-8.9 0.6-10.3 0.3-1.4-0.4-4.6-2.5-7.3-4.7-3.2-2.7-6.2-4.4-9.5-5-2.9-0.6-5.8-2-7.5-3.8q-2.8-2.8-2.7-1.3c0 0.9 2.1 3.7 4.8 6.3 3.8 3.8 5.1 4.6 7.2 4.1 1.4-0.4 4 0 6 0.9 1.9 0.9 4.7 2.9 6.1 4.4 1.5 1.6 3 4 3.4 5.3 0.4 1.4 0.4 4 0.1 5.8-0.3 1.8-1.8 4.7-3.4 6.4-1.5 1.7-4.3 3.7-6.2 4.5-1.9 0.8-6.9 3.8-11 6.6-4.1 2.8-9 5.5-10.8 5.9-2 0.5-3.2 0.5-3.2-0.2 0-0.5-1.8-3.3-4-6.2-2.5-3.3-4.8-7.9-6-12.3-1.2-3.8-3.2-9.2-4.5-12l-2.4-5-0.1 25.5c7.4 3.1 10.8 5.4 12.5 7.1l3 3-16.5-0.1-0.3-11.5-1.2 11-35.5 0.5c-0.4-42-0.8-49.6-1.3-46.5zm25.6 3.8c1.3 1.8 4.2 6.4 6.3 10.2l3.9 7c0.4-7.7 0.3-10.5 0-11.2-0.3-0.7-2.8-3.1-5.5-5.3-2.8-2.2-5.5-4-6.1-4-0.6 0 0 1.5 1.4 3.3zm134.7 19.7c-1.6 3.3-4.3 7.5-6 9.3-2.4 2.7-2.9 4.1-3 8.5v5.2c29.4 0 38-0.3 38-0.7 0-0.4-1.2-3.3-2.7-6.5-1.6-3.2-3.4-5.8-4.1-5.8-0.6 0-2.1 0.5-3.2 1-1.7 0.9-2.3 0.5-4.2-3.2-1.1-2.3-3.1-5.5-4.2-7-1.2-1.6-3.3-3.7-4.8-4.8l-2.7-2zm-36.7 1.5c0.3 0.9 0.6 6 0.6 11.5v10c9.3 0 11-0.4 11-1.2 0-0.7-0.9-3.1-2-5.3-1-2.2-1.9-4.4-2-5 0-0.5-1.5-3.3-3.4-6.2-1.9-2.9-3.7-5.3-4.1-5.3-0.4 0-0.5 0.7-0.1 1.5zm-335.3 8.3c-0.7 1.5-1.5 4.8-1.8 7.2-0.5 4.3-0.4 4.6 2.1 5l2.6 0.5c-1-11.6-1.3-15.1-1.4-15.2-0.1-0.2-0.7 1-1.5 2.5zm417.2 2.5c-0.5 2.9-0.5 5.5-0.1 5.7 0.3 0.3 0.8 1.9 1.1 3.5 0.2 1.7 0.5-0.9 0.6-5.7 0.1-4.8-0.1-8.8-0.3-8.8-0.2 0-0.8 2.4-1.3 5.3zm-67.3 12.7c-0.8 0.6-4.3 1-7.7 1h-6.3c-0.8 18.2-1.5 27.1-2 31.5-0.5 4.4-1.4 12.3-1.9 17.5-0.6 5.3-2.2 15.8-3.6 23.5-1.4 7.7-2.8 15-3 16.3l-0.5 2.2 75.5 0.1c4.2-9 7.4-18.1 9.8-26.1 2.5-7.9 4.8-16.3 5.2-18.5 0.6-3.4 0.5-3.7-0.6-2.2-1 1.4-2.4 1.8-5.3 1.5-2.1-0.1-4.2-0.9-4.7-1.8-0.4-0.8-1-4.1-1.3-7.2-0.5-4.6-1.3-6.7-4.1-10.3-1.9-2.4-3.2-4.9-3-5.5 0.3-0.5 0.9-1 1.3-1 0.4 0 2.5 1.7 4.6 3.8 2.2 2 4.9 6 6.2 8.7 1.3 2.8 3.1 5.8 4.1 6.8 1.5 1.4 2.1 1.5 2.9 0.5 0.6-0.7 1.7-5.1 2.3-9.8 0.6-4.6 1.1-13.2 1.1-19v-10.5c-6.6-0.4-19.5-0.7-33-1-13.4-0.3-24.7-0.7-25-1-0.2-0.3-2.5-0.5-5-0.5-2.4 0-5.1 0.5-6 1zm-351.7 5.8c0.4 3.1 0.9 6.5 1.2 7.5 0.4 1.4 1 1.1 3-1.8 1.4-1.9 2.5-4.3 2.5-5.2 0-1-0.2-2.8-0.5-4-0.4-1.8-1.2-2.3-3.6-2.3h-3.2zm37.7-3.2c0 1.4 0.5 3.5 1.2 4.7 0.6 1.3 3.7 5 6.8 8.3 3.1 3.3 6.5 7.6 7.5 9.5 1 1.9 3 5.3 4.5 7.5 2 2.9 4.8 5.1 10.5 8 4.3 2.2 8.8 5.3 10.1 7 1.3 1.6 2.8 4.3 3.3 6 0.7 2.3 0.4 4.7-1.4 10.5-1.3 4.1-2.8 12.2-3.4 18-0.6 5.8-1 10.5-0.8 10.5 0.1 0 13.6-0.1 30-0.3l29.7-0.2c0-3.5-0.9-9.2-2-15-1.1-5.8-3-20.4-4.1-32.5l-2.1-22c-10.1-10.9-13.8-15.6-14.8-17.5l-1.8-3.5c-42.4-1.2-58.8-1.5-63.9-1.5-9.2 0-9.3 0-9.3 2.5zm249.9 0.2c0 1-0.1 3.8-0.2 6.3-0.1 2.5-1.1 5.9-2.2 7.6-1.1 1.7-5.2 7.4-9.1 12.5-3.9 5.2-8.6 12.3-10.4 15.9-2.5 4.9-3.6 9-4.6 17-0.8 5.8-1.9 12.2-2.4 14.2-0.5 2.1-1.5 4.1-2.2 4.5-0.7 0.4-2.5 2.6-4 4.8-1.5 2.2-2.7 4.5-2.8 5.2 0 0.9 2.6 1.3 9.5 1.3 6 0 9.3 0.4 9 1-0.3 0.6 1 1 3 1 2 0 3.5-0.5 3.5-1 0-0.6-1.4-1.1-3.2-1.3-2.8-0.2-3.3-0.6-3.5-3-0.2-1.5 0.5-4.2 1.4-6 0.9-1.8 4.9-6.5 9-10.5 7.3-7.2 7.3-7.2 7.9-4.5 0.4 1.5 0.4 3.7 0.1 4.8-0.3 1.1-2.3 4.9-4.5 8.5-2.1 3.6-4.2 7.5-4.5 8.7l-0.7 2.3c36.5 0 47-0.2 47-0.5 0-0.3 1.4-7.4 3-15.8 1.6-8.4 3.8-23.3 4.9-33.2 1.1-9.9 2.3-23.3 2.6-29.8l0.5-11.7c-45.2 0-47 0.1-47.1 1.7zm136.1 8c0 8.4 0.3 10.1 2 12 1.2 1.3 3 2.2 4.2 2 1.7-0.2 2.7-1.5 4.1-5.7 1.1-3 2-7.2 2.1-9.3 0.1-2 0.5-3.7 0.9-3.7 0.4 0 0.7 0.6 0.7 1.4-0.1 0.8 0.6 1.8 1.5 2.3 1.3 0.6 1.4 1.3 0.6 3.3-0.5 1.4-1.7 6.8-2.6 12-1 5.2-2.7 11.2-3.8 13.4-1.4 2.5-3.4 4.3-5.7 5.2-1.9 0.8-4.4 1.4-5.5 1.4-1.7 0-1.5 0.5 1.3 3 1.8 1.6 3.8 2.8 4.5 2.6 0.7-0.2 3.5-1 6.2-1.7 2.8-0.7 5.8-1.9 6.8-2.8 1.2-1.1 1.8-1.2 1.8-0.4-0.1 0.7 0.5 1.1 1.2 0.8 0.7-0.3 2.7-3.5 4.6-7.2 1.9-3.8 4-8.5 4.8-10.6 0.7-2 1-3.5 0.6-3.3-0.4 0.2-2.6 2.9-4.8 6-2.2 3.1-4.5 5.8-5.2 6.1-0.7 0.3-1.3-0.2-1.3-1 0-0.8 0.5-1.7 1-2 0.6-0.3 2.5-3.7 4.3-7.6 2.4-5.2 3.6-6.9 4.7-6.4 0.9 0.3 2 0.7 2.5 0.8 0.6 0.1 2-2.7 3.2-6.3 1.3-3.6 2.3-8.2 2.3-10.3 0-3.3-0.2-3.7-2.5-3.7-1.8 0-2.8 0.8-3.5 2.7l-1.1 2.8c-4.9-5.5-5-5.5-17.4-5.5h-12.5zm133.1-0.1c0 1 0.5 2.4 1.2 3.1 0.7 0.7 1.8 1.3 2.5 1.2 0.8 0 1.1-1.1 1-2.7-0.2-2-0.9-2.9-2.4-3.1-1.5-0.2-2.2 0.2-2.3 1.5zm-520.1 3.6c0 2 1 9.2 2.1 16 1.1 6.7 3.1 17.6 4.5 24.2 1.4 6.6 4.2 17.6 6.2 24.3 2.1 6.8 4.1 12.3 4.5 12.3 0.4-0.1 0.8-0.4 0.8-0.8 0-0.4-0.7-2.8-1.6-5.3-0.9-2.4-3.2-11-5.1-19-1.9-7.9-5.1-23.5-6.9-34.5-1.9-11-3.7-20.2-4-20.5-0.3-0.2-0.5 1.2-0.5 3.3zm114.5 7.4c-3.8 0.7-10 1.3-13.7 1.1l-6.8-0.3c0.8 9.3 1.8 19.5 2.6 28.5 0.8 9.1 2.5 21.7 3.6 28 1.1 6.4 2.2 11.9 2.4 12.3 0.3 0.4 10.6 0.7 22.9 0.7h22.5c-1.1-4.2-1.4-8.4-1.4-12 0.1-3.5 0.3-9.2 0.5-12.5 0.4-5.6 0.1-6.6-5.1-17-5.2-10.5-5.5-11.3-5.5-18.8 0-7.3-0.1-8.1-2.4-9.5-1.4-0.9-4.7-1.7-7.5-1.8-2.8-0.1-8.2 0.5-12.1 1.3zm306.8 3.3c-1.3 3.1-2.3 5.9-2.3 6.3 0 0.4 0.7 0.7 1.5 0.7 0.9 0 1.5-0.9 1.5-2 0-1.1 0.5-2.9 1-4 0.6-1.1 0.9-3 0.8-4.2-0.2-1.7-0.8-0.8-2.5 3.2zm-459.6-1.5c-0.5 0.3-0.2 4.5 0.7 9.3 0.8 4.8 2.2 12.3 3.1 16.7 1 4.4 3 12.3 4.6 17.5 1.6 5.3 4.1 12.7 5.7 16.5l2.8 7c13.1 0.5 14.4 0.3 14.4-1 0-0.8-0.9-3.6-2-6.2-1.2-2.6-4.5-7.7-7.4-11.3-3-3.5-6.3-8.3-7.4-10.5-1.2-2.2-3-7.8-4.2-12.5-1.1-4.6-3.4-12.1-5.1-16.5-1.7-4.4-3.3-8.3-3.7-8.7-0.4-0.5-1.1-0.6-1.5-0.3zm6.1 2.2c0.3 1.6 2.4 6.9 4.8 11.8 2.4 5 6.9 13.1 10 18 3.1 5 8.7 12.6 12.4 17 3.7 4.4 9 9.9 11.9 12.3 2.8 2.3 5.1 3.9 5.1 3.5 0-0.4-4.1-5-9.2-10.3-5-5.2-11.3-12.8-14.1-17-2.8-4.1-6.4-9.9-8.1-13-1.7-3-4-7.7-5-10.5-1.1-2.7-3.1-6.9-4.5-9.4-1.4-2.4-2.8-4.6-3.2-4.8-0.3-0.2-0.4 0.8-0.1 2.4zm443.4 21.8c-2.8 5.2-8.3 13.8-12.2 19-3.8 5.3-7 9.8-7 10 0 0.3 1.5-0.5 3.4-1.7 1.8-1.3 4.4-3.6 5.9-5.3 2.5-2.9 2.6-2.9 4.7-1.2 1.1 0.9 2.5 1.5 3 1.2 0.6-0.2 2.8-3.5 5-7.2 2.1-3.7 4.6-9.4 5.5-12.5 1-3.7 1.2-6.4 0.7-7.5-0.5-1-1.6-2.3-2.4-3.1-1.2-1-2.2 0.2-6.6 8.3zm-556.8 5.3c-0.4 0.9-0.2 2.4 0.4 3.2 0.5 0.9 1.8 1.7 2.9 1.9 1.4 0.3 1.7 0.1 1.1-1.2-0.4-0.9-0.8-2.6-0.8-3.7 0-1.1-0.6-2-1.5-2-0.8 0-1.8 0.8-2.1 1.8zm528.3 0c-0.2 0.4-2.1 6.4-4.2 13.2-2 6.9-5 15.5-6.6 19-1.6 3.6-2.6 6.8-2.3 7 0.3 0.3 2-0.3 3.7-1.2 1.8-1 5.1-3.7 7.4-6 2.3-2.4 8-9.4 12.8-15.8 4.7-6.3 8.6-11.8 8.6-12.2 0-0.4-2.5-0.8-5.6-0.8-3.7 0-6.5-0.6-8.7-2-1.8-1.1-3.6-2-4-2-0.3 0-0.9 0.4-1.1 0.8zm-1.2 40.2c-2.6 0.5 0.2 0.8 8.8 0.9 8.2 0.1 12.6-0.2 12.2-0.9-0.2-0.5-4.1-0.9-8.7-0.8-4.5 0.1-10.1 0.4-12.3 0.8zm-379 0.8c1.7 0.2 4.8 0.2 7 0 2.2-0.3 0.9-0.4-3-0.4-3.8 0-5.6 0.1-4 0.4zm24.5 0c2.5 0.2 6.1 0.2 8 0 2-0.3-0.1-0.4-4.5-0.4-4.4 0-5.9 0.2-3.5 0.4zm-39.9 12c3.4 6.4 8.3 14.9 10.8 18.7 2.5 3.9 6.6 9.7 9 13 2.5 3.3 7.4 9.4 11 13.5 3.6 4.2 9.5 10.6 13.1 14.3l6.5 6.8c14-0.1 20.9-0.4 24.3-0.8l6.2-0.8c-12-12.1-18.2-17.6-21.5-19.9-3.3-2.4-11.1-10.1-17.5-17-6.3-7-14.4-16.7-18-21.5-3.5-4.8-7.9-10.9-9.7-13.4l-3.3-4.7h-17.2zm52.3-5.2c0.4 3.6 0.4 7.2 0.2 8-0.3 0.8-1.4 1.5-2.5 1.5-1.3 0-4.4-2.7-8-6.8-3.3-3.7-6.2-6.5-6.6-6.2-0.3 0.3 1.7 3.2 4.4 6.5 2.7 3.3 8.1 8.5 12 11.5 4 3 10.4 7.9 14.4 10.8 4 3 13.1 8.9 20.3 13.2 7.1 4.3 17.2 9.9 22.5 12.5 5.2 2.7 13.5 6.3 18.5 8.1 4.9 1.8 9.1 3.2 9.2 3.1 0.1-0.1-1.2-3.8-2.9-8.2-1.7-4.4-4.6-12.3-6.5-17.5-1.9-5.2-5.1-14-7.1-19.5-1.9-5.5-4.3-12.9-5.3-16.5l-1.7-6.5-61.5-0.5zm64.8-4.4c-0.1 1.3 2.2 9.3 5.2 17.9 3 8.5 6.8 19.3 8.5 24 1.8 4.6 4.7 12.6 6.6 17.7l3.5 9.3c14.7 4.6 18.9 5.1 34.7 5.7l18.6 0.8c-1-7.8-1.6-17.6-2-26.8l-0.8-16.7c-9.3 0-11.1-0.6-13.2-2.4-1.6-1.3-3.8-5.1-5.2-8.7-1.3-3.6-4.4-9.9-7-14.2l-4.6-7.7c-26.3 0-36.3-0.3-39.1-0.7-4.8-0.6-5.1-0.5-5.2 1.8zm108.4 0.1c-0.2 0.7-0.7 6.9-1 13.8-0.3 6.8-1 20.6-1.6 30.5-0.5 9.9-1.2 20.9-1.6 24.5l-0.7 6.5c16.9-1.3 27.8-2.1 35.1-2.6 7.2-0.5 14.4-1.5 15.8-2.2 1.9-1 3.6-4 7.5-13.7 2.8-6.9 8.1-21.5 11.8-32.5 3.8-11 7.1-21.3 7.5-22.8l0.6-2.7h-47c-4.3 5.2-6.8 7.5-8.4 8.6l-3 1.9c1-5.5 1.5-7.8 1.8-8.8 0.5-1.6-0.2-1.7-7.9-1.7-6 0-8.7 0.3-8.9 1.2zm75.4 3c-0.6 2.4-2.7 9.2-4.6 15.3-2 6-6.1 17.7-9.1 26-3.1 8.2-6.4 16.7-7.4 18.7-1 2.1-1.8 4-1.6 4.4 0.1 0.3 4.7-0.9 10.2-2.6 5.5-1.8 17-6.9 25.5-11.3 8.5-4.4 18-9.6 21-11.5 3-2 9.8-6.8 15-10.7 5.2-4 11.8-9.3 14.5-11.8 2.8-2.4 6.4-7.1 8.1-10.4 1.7-3.2 3.4-6.8 3.8-8.1l0.6-2.2h-74.9zm-80.3 1c-1 2.3-4.1 7.6-7 11.7-4.3 6.3-6.2 8-11.2 10.6-3.3 1.7-6.6 3.2-7.3 3.5-1 0.3-1.1 3.6-0.3 16.4 0.6 8.8 1.3 19.1 1.6 22.8l0.5 6.7h20.5c1.2-12 2.2-27.4 3-42 0.8-14.6 1.7-28.2 2-30.2 0.3-2.1 0.4-3.8 0.2-3.8-0.2 0-1.1 1.9-2 4.3zm180.4 7.6c-0.1 2.3-1 6.3-2.1 8.9-1.6 3.7-1.8 4.9-0.8 5.4 0.7 0.4 1.7 0.3 2.3-0.2 0.5-0.4 2.3-3.3 4-6.3 2.5-4.7 2.8-6 2-8.4-0.6-1.7-1.9-2.9-3.2-3.1-1.9-0.3-2.2 0.2-2.2 3.7zm-363.7 0.9c0.7 2 2.3 5.7 3.6 8.2 1.3 2.5 4.6 7.9 7.3 12 2.8 4.1 9.4 12.5 14.8 18.5 5.3 6.1 12.8 14 16.6 17.7l6.8 6.7c41.5-1.1 53.5-1.6 53.5-1.9 0-0.3-0.5-1.2-1.2-2.1-0.7-0.9-4.9-2.8-9.3-4.3-4.4-1.5-11.8-4.6-16.5-6.7-4.7-2.2-14.1-7.2-21-11.1-6.9-4-16.6-9.8-21.5-13.1-5-3.2-11-7.6-13.5-9.7l-4.5-3.7 0.7 12.2c-5.1-7-8.5-12.7-10.9-17.2-2.4-4.6-4.8-8.5-5.3-8.8-0.6-0.3-0.4 1.2 0.4 3.3zm348.1 6.9c-4.4 1.3-9.8 3.3-12 4.4-3.1 1.5-6.6 5.4-15.4 17.2-6.3 8.4-14.1 18.4-17.2 22.2-3.1 3.9-6.6 8-7.8 9.3l-2.1 2.2 28.5-0.1c15.3-15 22.5-22.8 25.9-26.9 3.5-4.1 7.5-9.3 8.9-11.5 1.5-2.2 2.7-4.3 2.7-4.7 0-0.4-2.1 0-4.8 0.9-2.6 0.9-5.9 2.4-7.5 3.5-1.8 1.2-2.7 1.4-2.7 0.6 0-0.7 0.6-2.6 1.4-4.3 0.8-1.6 3.5-4.4 6-6.2 3.7-2.7 4.6-3.9 4.6-6.3 0-1.6-0.1-2.9-0.3-2.9-0.1 0.1-3.8 1.2-8.2 2.6zm-24.6 7.2c-2.4 2.1-9.4 7.4-15.4 11.7-6.4 4.6-18.3 11.7-28.5 16.9-9.6 4.9-22.9 10.8-29.5 13.1-6.6 2.3-12.1 4.7-12.3 5.3-0.1 0.8 7.4 1.1 25.8 1.1h26c9-10.4 15.8-18.9 21-25.5 5.1-6.6 11.3-15 13.7-18.7 2.3-3.7 4.1-7 4-7.3-0.2-0.3-2.4 1.2-4.8 3.4zm128.1 41.1c-0.7 1.5-0.7 2.5 0.2 3.6 0.7 0.8 1.5 1.5 1.8 1.5 0.3 0 1-1.1 1.7-2.3 0.9-1.8 0.9-2.6 0-3.5-0.7-0.7-1.5-1.3-1.9-1.3-0.4 0-1.2 0.9-1.8 2zm-377.4 10.5l-22 1c10 8.6 16 13.6 19.9 16.7 3.8 3 10.4 8 14.5 11 4.1 3.1 11.3 7.6 16 10.1 4.7 2.5 14.3 6.3 21.5 8.5 7.1 2.2 15.5 4.5 18.5 5 3 0.6 8.2 1.3 11.5 1.6l6 0.6c-10.9-5.1-16.7-8.4-20-10.7-3.3-2.2-8.7-6.9-12-10.4-3.3-3.5-8.3-9.4-11-13.1-2.8-3.7-6.8-10-9-14-3.9-7.1-4.1-7.3-8-7.3-2.2 0-13.9 0.4-25.9 1zm65.4-0.5c1.9 0.5 6.5 1.1 10.2 1.4 4.3 0.4 6.8 0.2 6.8-0.4 0-0.5-1.7-1-3.8-1-2 0-6.6-0.2-10.2-0.5-5.1-0.3-5.8-0.3-3 0.5zm48 0l-4.5 0.7c8.5 0.1 13.9-0.2 17.5-0.6l6.5-0.8c-11.6 0-17 0.3-19.5 0.7zm-156.9 1l-12.4 0.5c6 5.5 10.5 8.9 13.8 11.2 3.3 2.2 9.4 6.1 13.5 8.6 4.1 2.5 12.7 7.1 19 10.3 6.3 3.1 17.3 7.7 24.5 10.1 7.1 2.5 15.6 5.1 18.7 5.9 3.2 0.8 5.8 1.2 5.8 0.9 0-0.3-4.2-2.5-9.3-4.9-5-2.5-12.8-7-17.2-10.2-4.4-3.1-12.7-9.5-18.5-14.3-5.8-4.7-13.1-10.9-16.3-13.8-3.1-2.9-6.5-5.2-7.5-5.1-0.9 0.1-7.3 0.5-14.1 0.8zm77.9-0.5c0 0.3 1.1 2.7 2.4 5.3 1.3 2.6 5 8.3 8.3 12.7 3.3 4.4 8.4 10.7 11.4 13.9 3 3.2 8.5 8 12.4 10.5 3.8 2.6 9.9 5.7 13.5 6.9 3.6 1.2 7.5 2.2 8.7 2.2 1.9 0 2.1-0.3 1.4-1.7-0.5-1-2.6-10.6-4.6-21.3-2-10.7-3.8-20.4-4-21.5-0.4-1.7-1.8-2.1-11.2-3.3-5.9-0.7-13.5-1.9-16.8-2.7-3.3-0.8-9.5-1.4-13.8-1.4-4.2-0.1-7.7 0.1-7.7 0.4zm56 0.5c-3.6 0.6-2.5 0.7 5.2 0.9 6 0.1 9.8-0.3 9.8-0.9 0-0.5-2.3-0.9-5.3-0.8-2.8 0.1-7.2 0.4-9.7 0.8zm69.1 3.8c-1.3 2.6-4.9 8.5-8 13.2-3.1 4.6-9.4 12.3-14.1 17.1q-8.5 8.6-15.5 12.5c-3.9 2.1-10.2 4.8-14 6.1l-7 2.3c7.7-0.8 13.6-1.8 18-2.6 4.4-0.9 14.1-3.8 21.5-6.6 7.4-2.8 18-7.3 23.5-10 5.5-2.8 12.7-6.9 16-9.1 3.3-2.2 9.1-6.6 13-9.7 3.8-3.2 9.9-8.5 13.5-11.8l6.5-6.1-51.2-0.1zm-29.5-2.7c-6.6 1.1-14.1 1.9-16.7 1.9l-4.6 0.1c-2.6 21.3-4.2 31.1-5.2 35.5-1.1 4.4-2 9-2 10.2 0 1.3 0.3 2.3 0.7 2.3 0.4 0 3.7-0.9 7.3-2 3.5-1 9.8-4.1 14-6.8 4.1-2.7 10.1-7.8 13.4-11.3 3.2-3.5 7.8-9.1 10.1-12.4 2.3-3.3 5.9-9.1 7.9-12.8l3.6-6.7c-12.8 0.1-21.9 1-28.5 2zm77.4 7.3c-5.3 5-12.9 11.7-17 14.9-4.1 3.1-12.8 8.6-19.4 12.1-6.6 3.5-15.2 7.6-19 9.1-3.9 1.5-7.3 3-7.5 3.3-0.3 0.3 1.5 0.2 4-0.2 2.4-0.4 9.4-2.2 15.5-4.1 6-1.8 16.1-5.5 22.5-8.1 6.3-2.7 16.6-7.8 22.9-11.4 6.2-3.5 16.3-10.2 22.5-14.8 6.1-4.6 11.5-8.8 12-9.2 0.6-0.6-4.9-0.9-13-0.9l-13.9 0.1zm-111.7-4.6c-6.6 0.2-9.3 0.6-9.2 1.5 0 0.7 0.5 3.3 1 5.8 0.6 2.4 2.2 10.5 3.5 18 1.4 7.4 3.2 15.5 4 18 1 2.6 2 4.1 2.5 3.5 0.4-0.6 1.9-6.7 3.3-13.5 1.4-6.9 3-17.2 3.7-22.9 0.6-5.7 1-10.4 0.8-10.5-0.2-0.1-4.5 0-9.6 0.1zm-105.3 137.2c-0.8 0.4-2.1 2.1-2.8 3.7-1 2.1-1.1 3.4-0.3 5.1 0.6 1.2 2 2.3 3.1 2.3 1.1 0 3-1.3 4.1-2.8 1.1-1.5 2-3.8 2-5 0-1.2-1-2.7-2.1-3.2-1.1-0.6-2.1-1-2.2-1-0.2 0-0.9 0.4-1.8 0.9zm120.5 13.7c-0.4 0.4-0.7 1.3-0.6 2 0.1 0.9 1.5 1.4 3.6 1.4 3 0 3.5-0.3 3-2-0.3-1.3-1.3-2-2.8-2-1.3 0-2.7 0.3-3.2 0.6z"/><path class="b" d="m602 573.5c0 0.3 2.1 1.4 4.8 2.5 2.6 1.1 5.6 2.1 6.7 2.1 1.1 0 2.6-0.7 3.3-1.6 1-1.2 0.9-1.7-0.8-2.5-1.1-0.5-4.7-1-8-1-3.3 0-6 0.2-6 0.5zm-202.6 38.5c-1.6 2.2-2.8 4.6-2.6 5.5 0.2 1.3 0.6 1.3 3.3-0.3 1.7-0.9 3.7-2.5 4.5-3.5 1-1.2 1.1-2.2 0.4-3.7-0.6-1.1-1.4-2-1.9-2-0.5 0-2.2 1.8-3.7 4zm320.6 93.8c0 0.4 1.8 4.5 4.1 9.2 2.3 4.7 4.5 9.5 5 10.8 0.5 1.2 2.4 2.8 4.1 3.6 1.8 0.7 3.6 1.2 4 1 0.5-0.2 0.8-0.9 0.8-1.4 0-0.5-0.9-1-2-1-1.3 0-3.4-2.1-6.2-6.2-2.3-3.5-5.1-8.7-6.3-11.5-1.2-2.9-2.5-5.3-2.8-5.3-0.4 0-0.7 0.3-0.7 0.8zm-86 31c0 0.4 0.5 2.3 1.1 4.2 0.7 1.9 1.4 3.6 1.5 3.8 0.2 0.1 1.3-0.3 2.4-0.8 1.7-0.9 2.3-0.5 4 3 1.1 2.2 2.5 4.2 3 4.5 0.5 0.3 1.2-1 1.5-2.7 0.3-1.8 0.2-5.4-0.2-8.1l-0.8-4.7c-9.7 0-12.5 0.3-12.5 0.8zm56.7 15c-0.3 1.5-0.1 3.4 0.4 4.2 0.4 0.8 1.2 2.1 1.6 2.8 0.6 1.1 1.3 1.1 3 0.3 1.3-0.6 2.3-1.9 2.3-2.8 0-1-1.3-3-3-4.5-1.6-1.6-3.2-2.8-3.4-2.8-0.2 0-0.6 1.2-0.9 2.8z"/></svg>