<svg xmlns="http://www.w3.org/2000/svg" viewBox="0 0 500 500">
  <!-- Outer Ring -->
  <circle cx="250" cy="250" r="220" stroke="gold" stroke-width="8" fill="none" />

  <!-- Quadrants -->
  <line x1="250" y1="30" x2="250" y2="470" stroke="gold" stroke-width="3" />
  <line x1="30" y1="250" x2="470" y2="250" stroke="gold" stroke-width="3" />

  <!-- Central Spiral -->
  <path d="M250,250
           m-5,0
           a5,5 0 1,0 10,0
           a10,10 0 1,0 -20,0
           a20,20 0 1,0 40,0
           a40,40 0 1,0 -80,0
           a80,80 0 1,0 160,0" 
        stroke="gold" stroke-width="3" fill="none" />

  <!-- Radiance -->
  <g stroke="gold" stroke-width="2">
    <line x1="250" y1="0" x2="250" y2="50" />
    <line x1="250" y1="500" x2="250" y2="450" />
    <line x1="0" y1="250" x2="50" y2="250" />
    <line x1="500" y1="250" x2="450" y2="250" />
    <line x1="80" y1="80" x2="120" y2="120" />
    <line x1="420" y1="80" x2="380" y2="120" />
    <line x1="80" y1="420" x2="120" y2="380" />
    <line x1="420" y1="420" x2="380" y2="380" />
  </g>
</svg>
