<svg version="1.2" xmlns="http://www.w3.org/2000/svg" viewBox="0 0 1536 1024" width="1536" height="1024"><style>.a{fill:#fcf7ee}.b{fill:#141616}.c{fill:#30312e}.d{fill:#827e77}.e{opacity:1;fill:#c0bbb4}</style><path fill-rule="evenodd" class="a" d="m0 0h1536v1024h-1536zm1041.7 824c-0.3 0.8-1.4 4.4-2.3 8-0.9 3.6-2.2 7.6-2.9 9-0.7 1.4-2.9 4-4.9 5.8-2 1.7-5.4 3.7-7.6 4.2-2.2 0.5-4.7 0.8-5.5 0.5-0.8-0.3-1.5-0.2-1.5 0.3-0.1 0.4 2.2 3.6 4.9 7.2 2.7 3.6 7.1 8.2 9.8 10.2 2.6 2 7.3 4.8 10.3 6.2 3 1.4 8.7 3.2 12.5 4.1 3.8 0.8 9.7 1.5 13 1.5 3.3 0 9.2-0.7 13-1.5 3.8-0.8 9.7-2.8 13-4.4 3.3-1.6 6.8-3.5 7.9-4.2 1.6-1.3 0.5-2.1-12.5-8.6-7.9-3.9-19.1-10.3-24.9-14.1-5.8-3.8-12.7-9.3-15.3-12.3-3.1-3.5-5.1-6.8-5.6-9.4-0.5-2.5-1-3.4-1.4-2.5z"/><path class="b" d="m476 93.1c-4.1 0.5-12 1.7-17.5 2.8-5.5 1.1-15.2 3.7-21.5 5.7-6.3 2.1-18 7.1-26 11.1-8 4-18.7 10.3-23.9 14-5.2 3.8-14.4 11.5-20.4 17.3-6 5.8-13.7 13.9-17 18-3.3 4.1-8.7 11.6-11.9 16.5-3.2 4.9-8.3 13.9-11.3 20-3 6.1-7.2 16.4-9.4 23-2.2 6.6-4.9 16.3-6 21.5-1.1 5.2-2.4 13.9-3 19.3-0.6 5.3-1.1 14.5-1.1 20.5 0 5.9 0.5 15 1 20.2 0.6 5.2 2 14.2 3.1 20 1.2 5.8 3.7 15.2 5.6 21 1.9 5.8 6.2 16.1 9.5 23 3.3 6.9 8.5 16.3 11.5 21 3.1 4.7 8.4 12.1 11.8 16.5 3.4 4.4 9.8 11.6 14.1 15.9 4.4 4.3 11 10.5 14.9 13.6 3.9 3.2 10.8 8.3 15.5 11.4 4.7 3.2 13.9 8.4 20.5 11.7 6.6 3.2 17.4 7.6 24 9.8 6.6 2.1 16.5 4.8 22 5.9 5.5 1.2 14.9 2.6 21 3.3 6.5 0.7 16.7 0.9 25 0.6 7.7-0.3 18-1.3 23-2.2 5-0.8 12.6-2.5 17-3.6 4.4-1.1 11.4-3.2 15.5-4.6 4.1-1.3 13.1-5.2 20-8.5 6.9-3.3 16.1-8.3 20.5-11.2 4.4-2.9 12.5-8.9 18-13.3 5.5-4.4 13.3-11.6 17.4-15.9 4.1-4.3 10.1-11.5 13.5-15.9 3.3-4.4 8.3-11.6 11-16 2.7-4.4 7.3-12.9 10.2-19 2.8-6.1 6.8-15.9 8.7-22 2-6.1 4.5-15.7 5.7-21.5 1.1-5.8 2.6-16.4 3.2-23.5l1.1-13 252.7 0.5c0 14.3 0.7 22.8 1.6 28 0.9 5.2 2.7 13.1 4.1 17.5 1.4 4.4 4.1 11.4 6.1 15.5 2 4.1 6.3 11.6 9.6 16.5 3.3 4.9 10 12.9 14.8 17.8 4.9 4.8 12.5 11.1 17.1 14.1 4.5 2.9 10.9 6.7 14.2 8.4 3.3 1.6 9.7 4.1 14.3 5.6 4.5 1.4 12.1 3.3 17 4.1 4.8 0.8 10.8 1.5 13.5 1.5h4.7c0 56.3 0 57 2 57 1.9 0 2-0.7 2.3-28.2l0.2-28.3c10.8-1 17.8-2 22.5-2.9 4.7-1 12.3-3.2 17-5.1 4.7-1.8 11.5-5 15.2-7.1 3.7-2.2 9.5-5.9 12.9-8.4 3.4-2.5 9.9-8.4 14.5-13.2 4.6-4.9 11-12.7 14.1-17.5 3.2-4.9 7.4-12.6 9.5-17.3 2-4.7 4.9-13 6.4-18.5 2.2-8.3 2.8-12.7 3.1-26.5 0.4-12.8 0.1-18.5-1.2-25.5-0.9-4.9-3-13.1-4.6-18-1.7-4.9-5-12.8-7.4-17.5-2.4-4.7-6.7-11.7-9.5-15.5-2.9-3.8-7.7-9.6-10.8-12.8-3.2-3.2-7.4-7.2-9.4-8.8-3.2-2.4-4.1-2.7-5.5-1.6-1.6 1.1-1.7 1-0.5-0.5 1-1.6 0.7-2.2-3-4.7-2.4-1.6-7.9-4.7-12.3-6.9-4.4-2.3-11.4-5.2-15.5-6.6-4.1-1.3-11.1-3.2-15.5-4.2-5.5-1.1-12.6-1.7-22.5-1.7-11 0-17 0.5-24.7 2.1-5.7 1.2-13.1 3.3-16.5 4.5-3.5 1.3-9.7 4.1-13.8 6.2-4.1 2-10.2 5.6-13.5 7.8-3.3 2.3-9.6 7.5-13.9 11.7-4.4 4.1-10.6 11.1-13.9 15.5-3.2 4.4-7.9 12.1-10.4 17-2.4 4.9-5.5 12.6-6.9 17-1.3 4.4-3 11.6-3.7 16l-1.3 8-252.9 0.5c-2-22.1-3.6-33.4-4.9-39.5-1.3-6.1-3.8-15.3-5.6-20.5-1.8-5.2-5.8-14.9-8.9-21.5-3.2-6.6-9.4-17.4-13.8-24-4.5-6.6-12.1-16.4-17-21.7-4.8-5.3-12.8-13.1-17.8-17.3-5-4.3-12.8-10.3-17.5-13.4-4.7-3.1-13-8-18.5-10.8-5.5-2.8-14.5-6.8-20-8.8-5.5-2.1-15-5-21-6.5-6-1.6-16.5-3.5-23.2-4.4-6.9-0.9-18.4-1.5-26-1.5-7.6 0.1-17.2 0.5-21.3 1zm622 394.6c-0.8 0.3-1.3 1.5-1.2 2.9 0.1 1.7 0.8 2.4 2.2 2.4 1.1 0 2.3-0.7 2.8-1.5 0.4-1 0.1-2.1-0.8-2.9-0.9-0.7-2.2-1.1-3-0.9zm-13.8 7.5l0.5 6.3c-5.7-2.7-8.2-3.2-9.7-2.9-1.4 0.3-3.7 1.9-5.2 3.5-1.8 1.8-3 4.5-3.4 7.1-0.5 3.1-0.1 5.4 1.2 8.2 1.1 2.2 3.2 4.5 4.9 5.3 1.9 1 4.1 1.3 6 0.9 1.7-0.4 3.8-1.5 4.8-2.4 1.7-1.6 1.8-1.6 1.7 0.5 0 1.8 0.4 2.2 2 1.8 1.9-0.5 2-1.3 2-17.5v-17c-5.3 0-5.3 0-4.8 6.2zm-87.4 0c0.2 3.2-0.1 3.8-1.8 3.8q-2 0-2 2 0 2 2 2c1.8 0 2 0.7 2 8.5 0 7.2 0.3 8.8 2 10.5 1.1 1.1 2.9 2 4 2 1.1 0 2.7-0.2 3.5-0.5 0.8-0.3 1.5-1.2 1.5-2 0-0.9-0.9-1.5-2.2-1.5-1.3 0-2.9-0.5-3.6-1.2-0.8-0.8-1.2-4-1.2-8.6v-7.2c5.3 0 6-0.4 6-2 0-1.6-0.6-2-3.2-1.8-2.3 0.2-3.2 0.7-3 1.8 0.3 1.3 0.1 1.3-1 0.1-1-1.1-1-1.4 0-1.7 0.7-0.3 1.1-1.9 1-4.2-0.2-3-0.6-3.8-2.2-3.8-1.7 0-2 0.6-1.8 3.8zm-20.5 4.3c-2.2 1-3.5 2.4-3.9 4.2-0.3 1.6-0.1 3.8 0.5 5 0.7 1.5 2.9 2.9 6.4 3.9 2.8 1 5.5 2.2 5.9 2.8 0.4 0.6 0.2 1.9-0.3 2.8-0.6 1.2-2.1 1.8-4.1 1.8-1.8 0-4.1-0.8-5-1.8-1.2-1.1-2.4-1.4-3.5-0.9-1.6 0.7-1.6 1 0.7 3.2 1.4 1.4 3.9 2.8 5.5 3.1 1.7 0.3 4.6-0.1 6.8-1 2.6-1.1 3.9-2.4 4.3-4.4 0.3-1.5 0.1-3.7-0.5-5-0.7-1.4-2.9-2.7-5.8-3.7-2.7-0.7-5.4-2.1-6-3-1-1.2-1-1.8 0-3 0.6-0.9 2.2-1.6 3.5-1.5 1.2 0 2.8 0.8 3.5 1.9 0.6 1 2 1.7 3 1.5 0.9-0.2 1.7-1.1 1.7-1.9 0-0.8-1-2.1-2.2-2.9-1.3-0.8-3.4-1.7-4.8-2-1.4-0.3-4 0.1-5.7 0.9zm43-0.4c-1.7 0.5-3.8 1.9-4.7 3.2-0.9 1.2-1.6 2.8-1.6 3.4 0 0.7 0.7 1.3 1.5 1.3 0.8 0 2.4-1.1 3.5-2.5 1.1-1.4 3-2.5 4.3-2.5 1.2-0.1 2.8 0.6 3.5 1.5 0.6 0.8 1.1 2.3 0.9 3.2q-0.2 1.8-4.7 2.9c-2.5 0.6-5.5 1.6-6.7 2.2-1.3 0.7-2.6 2.2-2.9 3.4-0.3 1.3-0.3 3.2 0 4.3 0.2 1.1 1.8 2.6 3.3 3.3 1.5 0.8 4 1.1 5.6 0.8 1.5-0.3 3.3-1.3 4.1-2.1 0.8-0.8 1.7-1.5 2-1.5 0.3 0 0.4 0.7 0.1 1.5-0.3 1 0.2 1.5 1.8 1.5 2.1 0 2.2-0.3 2.1-8.8 0-4.8-0.4-9.7-0.7-11-0.4-1.2-2.2-2.9-4.2-3.7-1.9-0.8-3.6-1.5-3.7-1.4-0.2 0-1.7 0.5-3.5 1zm29.7-0.4c-0.8 0.3-2.3 1.3-3.3 2.2-1.6 1.5-1.8 1.5-1.7-0.2 0-1-0.7-1.7-2-1.7-1.9 0-2 0.7-2 12 0 11.3 0.1 12 2 12 1.8 0 2-0.7 2-7.5 0-4.1 0.5-8.4 1-9.5 0.5-1.1 1.9-2.5 3-3 1.5-0.7 2.7-0.6 4.5 0.5 2.4 1.4 2.5 2 2.5 10.5 0 8.9 0 9 2.5 9h2.5c-0.5-18.4-0.8-20.2-2.5-21.9-1.1-1-3.1-2.1-4.5-2.4-1.4-0.3-3.2-0.3-4 0zm70.5 0c-1.1 0.3-2.8 1.2-3.8 2.2-1.6 1.5-1.8 1.5-1.7-0.2 0-1-0.7-1.7-2-1.7-1.9 0-2 0.7-2 12 0 11.3 0.1 12 2 12 1.8 0 2-0.7 2-7.8-0.1-5.9 0.3-8.2 1.7-10.1q1.8-2.3 4.8-2.3c1.7 0 3.5 0.6 4 1.2 0.5 0.6 1 5.1 1 10 0 8.7 0.1 9 2.3 9 2.1 0 2.2-0.3 2.2-9.5 0-8.5-0.2-9.8-2.2-11.9-1.3-1.3-3.2-2.6-4.3-2.9-1.1-0.2-2.9-0.2-4 0zm22.8 0.8c-1.8 0.8-3.8 2.4-4.3 3.5-0.5 1.1-1 3-1 4.2-0.1 1.3 0.8 3.4 1.9 4.8 1.9 2.5 1.9 2.5 0 3.7-1 0.7-1.9 2.1-1.9 3 0 1 0.5 2.4 1.2 3 1.1 1.1 0.9 1.5-0.5 2.5-1.3 0.9-1.7 2.3-1.5 4.3 0.2 1.9 1.2 3.4 2.8 4.3 1.5 0.8 5 1.2 8.8 1 5.4-0.3 6.7-0.7 8.3-2.8 1.1-1.4 2-3.5 1.9-4.8 0-1.2-0.9-3.1-2-4.2-1.6-1.6-3.3-2-7.7-2-4.1 0.1-6.2-0.4-7-1.5-1-1.2-1-1.6 0-2.2 0.6-0.4 3.1-0.7 5.4-0.8 3 0 4.9-0.7 6.8-2.5 2.3-2.1 2.6-3.1 2.1-6.3-0.5-3.2-0.3-3.7 1.4-3.7 1.4 0 1.9-0.6 1.8-2-0.3-1.7-1-2-4.3-1.9-2.2 0.1-5.1-0.1-6.5-0.4-1.4-0.4-3.9 0-5.7 0.8zm-45.3 11.5v12h5v-24h-5zm-131.8 32.8c-0.8 0.4-1.2 1.6-1 2.7 0.2 1.2 1.1 2 2.3 2 1.4 0 2-0.7 2-2.4 0-1.3-0.5-2.6-1-2.8-0.5-0.1-1.6 0.1-2.3 0.5zm66.2 0.4c-0.4 0.7-0.3 2.1 0 3 0.3 1 1.4 1.7 2.3 1.5 1-0.1 1.8-1 1.9-2.1 0.1-1-0.3-2.2-0.9-2.7-0.7-0.5-1.5-0.9-2-0.9-0.4 0-1 0.6-1.3 1.2zm72.7 0.3c-0.6 0.8-0.9 2.2-0.6 3 0.3 0.8 1.4 1.5 2.5 1.5 1.1 0 2.2-0.8 2.5-1.8 0.3-0.9-0.1-2.3-0.7-3-0.7-0.7-1.6-1.3-1.9-1.2-0.4 0-1.2 0.7-1.8 1.5zm-60.1 7c0 2.8-0.4 3.5-2 3.5q-2 0-2 2 0 2 2 2c1.8 0 2 0.7 2 8.5 0 7.2 0.3 8.8 2 10.5 1.3 1.3 3.1 1.9 5.2 1.7 2-0.1 3.2-0.8 3.5-2 0.2-1.2-0.4-1.7-2.2-1.7-1.4 0-2.7-0.3-2.9-0.8-0.2-0.4-0.5-4.1-0.7-8.2-0.2-7.5-0.2-7.5 2.4-7.8 2-0.1 2.7-0.8 2.7-2.2 0-1.5-0.7-2-2.5-2-2.2 0-2.5-0.4-2.5-3.5 0-3.1-0.3-3.5-2.5-3.5-2.2 0-2.5 0.4-2.5 3.5zm44 0c0 2.8-0.4 3.5-2 3.5q-2 0-2 2 0 2 2 2c1.8 0 2 0.7 2 8.5 0 7.2 0.3 8.8 2 10.5q2 2 5.2 1.7c2.2-0.1 3.4-0.8 3.5-2 0.2-1.2-0.4-1.7-2.2-1.7-1.5 0-2.9-0.8-3.5-2-0.5-1.1-1-4.9-1-8.5v-6.5c5.3 0 6-0.4 6-2 0-1.6-0.7-2-3-2-2.8 0-3-0.3-3-3.5 0-2.8-0.4-3.5-2-3.5-1.6 0-2 0.7-2 3.5zm-124 15.5v12l5 0.5v-24.5h-5zm13 0v12c5 0 5-0.1 5-8 0-4.4 0.5-8.9 1-10 0.7-1.4 2-2 4.3-2 1.7 0 3.8 0.5 4.5 1.2 0.8 0.9 1.2 4.4 1.2 10.3 0 8.7 0.1 9 2.3 8.7 2.1-0.3 2.2-0.6 1.9-10.5-0.3-7.9-0.7-10.6-2-12-1.2-1.2-3.1-1.8-6.2-1.7-2.9 0-4.8 0.5-5.5 1.5-0.5 0.9-1.3 1.6-1.7 1.5-0.5 0-0.8-0.7-0.8-1.5 0-0.8-0.9-1.5-2-1.5-1.9 0-2 0.7-2 12zm27.5-5.8c1.2 3.5 3.2 9 4.4 12.3 2.1 5.7 2.3 6 5.2 5.5 1.6-0.3 3.2-1.2 3.5-2 0.3-0.8 2.1-6 4-11.5 1.9-5.5 3.4-10.1 3.4-10.3 0-0.1-1-0.2-2.2-0.2-2 0-2.7 1.1-5.2 9.2-1.5 5.1-3.3 9.9-4 10.6-0.6 0.7-0.8 1.6-0.3 2 0.4 0.4 1.1 0.2 1.5-0.3 0.5-0.5 1.6-3.7 2.6-7 1-3.3 2.3-7.1 2.9-8.5 0.6-1.4 1-2.8 0.9-3.3-0.1-0.4 0.3-0.7 0.8-0.7 0.5 0 0.8 0.6 0.6 1.2-0.1 0.7-1.8 5.5-3.7 10.6-2.9 7.8-3.7 9.3-5.4 9-1.3-0.2-2.4-1.8-3.5-5.3-0.9-2.8-2.2-6.4-2.9-8-0.7-1.7-1.3-3.8-1.4-4.8-0.1-0.9-0.5-1.7-0.9-1.7-0.5 0-0.9-0.4-1-1-0.1-0.5 0.5-0.6 1.5-0.2 1 0.4 1.6 1.2 1.4 1.7-0.2 0.5 0.4 2.6 1.5 4.5 1 1.9 2.2 5.2 2.6 7.4 0.4 2.1 1 4 1.5 4.2 0.4 0.2 0.7-0.2 0.7-0.9 0-0.6-1.3-5-2.8-9.7-2.5-7.4-3.2-8.5-5.4-8.8l-2.5-0.3zm26.5 5.8c0 11.8 0.1 12 2.3 12 2.2 0 2.2-0.2 2.2-12 0-11.8 0-12-2.2-12-2.2 0-2.3 0.2-2.3 12zm31.5-9.6c-1.3 1.4-2.4 3.2-2.4 4-0.1 0.9 0.6 1.6 1.4 1.6 0.8 0 2.6-1.3 3.9-2.8 2.1-2.3 2.8-2.6 4.9-1.7 1.4 0.6 2.8 2.1 3.1 3.3 0.4 1.3 0.1 2.4-0.6 2.6-0.7 0.3-3.2 1-5.5 1.5-2.4 0.6-5.2 2-6.3 3.1-1.1 1.1-2 3.1-2 4.5 0 1.4 1 3.5 2.3 4.6 1.8 1.8 3 2.1 6.2 1.6 2.2-0.3 4.5-1.3 5-2.1 0.6-0.9 1.3-1.6 1.8-1.6 0.4 0 0.5 0.7 0.2 1.5-0.3 1 0.2 1.5 1.8 1.5 2 0 2.2-0.5 2.4-5.3 0.1-2.9 0-7.5-0.4-10.2-0.4-2.9-1.4-5.8-2.5-6.8-1.2-1.1-3.4-1.7-6.3-1.7-3.5 0-5.1 0.5-7 2.4zm41.5 9.6c0 11.2 0.1 12 2 12.5 1.9 0.5 2 0 2-12 0-11.8-0.1-12.5-2-12.5-1.9 0-2 0.7-2 12zm16.4-10.6c-1.2 0.7-2.9 2.4-3.8 3.7-0.9 1.4-1.5 4.6-1.6 7.6 0 4.4 0.5 5.8 2.8 8.4 2.1 2.3 3.8 3.2 7.2 3.5 2.7 0.3 5.5-0.1 6.9-0.8 1.3-0.7 3.3-2.4 4.3-3.8 1.2-1.6 1.9-4.3 2-7.5 0-2.8-0.4-6-1.1-7.3-0.6-1.2-2.4-2.9-4.1-3.7-1.6-0.8-4.7-1.5-6.7-1.5-2.1 0-4.8 0.7-5.9 1.4zm24.6 10.8c0.1 12.1 0.1 12.3 2.3 12 2.1-0.3 2.2-0.8 2.2-8.6 0-6 0.4-8.8 1.5-10 0.9-1 2.9-1.7 4.8-1.7 2.2 0.1 3.5 0.7 4.2 2.1 0.6 1.1 1 5.8 1 10.5 0 8 0.1 8.5 2 8 1.8-0.5 2-1.3 2-10.5 0-8.7-0.3-10.3-2-12-1.3-1.4-3.3-2-6.1-2-3 0-4.6 0.6-6 2.2l-1.9 2.3c0-3.9-0.6-4.5-2-4.5-1.9 0-2 0.6-2 12.2zm-84 56.3v25.5h4.5c-0.5-50.1-0.6-51-2.5-51-1.9 0-2 0.8-2 25.5zm-144 50.7c0 1.8-0.3 6.1-0.7 9.5l-0.8 6.3c3.9-1 5.9-1.9 7-2.7 1.1-0.7 2.8-1.3 3.8-1.3 0.9 0 2.6 0.9 3.7 2 1.2 1.2 2 3.3 2 5.5 0 2.2-0.8 4.2-2 5.5-1.1 1.1-3.1 2-4.5 2-1.4 0-3.4-1-4.5-2.3-1.1-1.2-2-2.6-2-3 0-0.4-0.9-0.5-2-0.2-1.1 0.3-2 0.7-2 1 0 0.3 0.7 1.8 1.5 3.5 0.9 1.9 2.7 3.4 4.8 4 1.7 0.6 4 1 5 1 0.9 0 3.1-0.7 4.7-1.5 1.7-0.8 3.7-2.9 4.5-4.5 0.8-1.7 1.5-4.1 1.5-5.5 0-1.4-0.7-3.9-1.5-5.5-0.8-1.7-2.4-3.5-3.5-4-1.1-0.6-3.5-1-5.2-1-1.8 0-4.3 0.6-5.5 1.5-1.3 0.8-2.1 1.9-1.8 2.5 0.3 0.5-0.2 1-1 1q-1.5 0-1-2c0.3-1.1 1-1.8 1.5-1.5 0.6 0.3 1-0.8 1-2.3 0-1.5 0.3-3.7 0.5-5 0.5-2 1.1-2.2 7.5-2.2 6.3 0 7-0.2 7-2 0-1.9-0.7-2-9-2h-9zm41 12c-2.9 8.4-5.4 15.8-5.6 16.5-0.2 0.8 0.6 1.2 2.1 1.2 2.1 0 2.7-0.7 3.8-4.1l1.2-4.1 14-0.1c2.8 7.7 3.4 8.4 5.8 8.3h2.7l-11.5-32.9-7.3-0.1zm164.9-14.1c-0.9 0.5-2.3 2.3-3.2 3.9-0.9 1.7-1.7 3.7-1.7 4.5 0 0.9 1 1.5 2.3 1.5 1.7 0 2.4-0.7 3-3q0.7-3 3.5-4c2.2-0.8 3.2-0.7 5.1 0.7 2.1 1.5 2.4 2.3 1.8 5.8-0.5 3.2-2 5.3-7.9 11.3-4.1 4.1-7.3 8.1-7.3 9.2 0 1.8 0.8 2 10.8 2 10.1 0 10.7-0.1 10.7-2 0-1.9-0.6-2-7.9-1.8l-8 0.3c9.8-10.1 13.2-14 13.8-15.3 0.6-1.2 1.1-3.3 1.1-4.7 0-1.4-0.4-3.5-1-4.8-0.5-1.2-2.1-2.8-3.5-3.5-1.3-0.7-4.2-1.2-6.2-1.2-2.1 0-4.5 0.5-5.4 1.1zm26.4 0.4c-1.3 0.8-3 2.9-3.9 4.7-1.1 2.2-1.7 5.7-1.6 10.3 0 4.1 0.7 8.5 1.6 10.7 1 2.4 2.9 4.4 4.9 5.4 2 1 4.4 1.4 6.2 1 1.7-0.3 4-1.6 5.2-2.8 1.2-1.3 2.7-3.6 3.3-5.1 0.6-1.5 1-5.3 1-8.5 0-3.1-0.4-7.4-1-9.5-0.5-2.1-2.2-4.6-3.7-5.7-1.6-1.2-4.3-2.1-6.3-2.1-1.9 0.1-4.5 0.7-5.7 1.6zm24.3 0.7c-1.4 1.3-3 3.7-3.6 5.5-0.9 3-0.8 3.3 1.3 3.3 1.6 0 2.7-0.9 3.7-3.2 1.2-2.5 2.2-3.4 4.5-3.6 1.7-0.1 3.6 0.3 4.3 1 0.7 0.7 1.3 2.5 1.3 4 0 1.5-0.7 4-1.5 5.5-0.8 1.5-4.2 5.5-7.5 8.8-3.4 3.3-6.1 6.8-6.1 7.7 0 1.6 1.2 1.8 10.5 1.8 9.9 0 10.5-0.1 10.5-2 0-1.9-0.6-2-7.5-1.8-4.1 0.2-7.5 0.2-7.5 0 0-0.1 2.5-2.6 5.6-5.5 3.1-2.9 6.5-7 7.6-9.2q1.9-4 1.4-7.3c-0.3-1.9-1.7-4-3.3-5.2-1.8-1.4-4.3-2.1-7-2-2.8 0-5 0.7-6.7 2.2zm24 7c-0.4 5.1-0.4 9.5-0.1 9.8 0.3 0.3 2.2-0.5 4.3-1.7 2.1-1.3 4.4-2.3 5.2-2.3 0.9 0 2.5 1 3.8 2.2 1.3 1.4 2.2 3.5 2.2 5.5 0 2-0.8 4.1-2 5.3-1.1 1.1-2.9 2-4 2-1.1 0-2.9-0.5-4-1-1.1-0.6-2-1.7-2-2.5 0-0.9-0.9-1.5-2.5-1.5-1.3 0-2.5 0.2-2.5 0.5 0 0.3 0.7 1.8 1.5 3.5 1 2 2.8 3.4 5.3 4.1 3 1 4.5 0.9 7.6-0.2 2.9-1.1 4.4-2.4 5.9-5.4 1.4-2.8 1.8-5 1.4-7.3-0.4-1.8-1.8-4.3-3.2-5.7-2-2-3.3-2.5-6.7-2.2-2.4 0.2-4.9 0.6-5.8 1-1.2 0.6-1.4-0.1-1-4.1l0.5-4.7c13.8-0.5 14.5-0.7 14.5-2.5 0-1.9-0.6-2-8.9-2h-8.9zm-104.7-3.5c-0.2 2.9-0.7 3.7-2.1 3.5q-1.7-0.3-1.7 1.7 0 2 2 2c1.8 0 2 0.7 2 8.5 0 7.2 0.3 8.8 2 10.5 1.2 1.3 3.1 1.9 4.7 1.8 1.8-0.2 2.9-0.9 3-2q0.3-1.8-1.7-1.8c-1.1 0-2.5-0.9-3-2-0.6-1.1-1-4.9-1-8.5v-6.5c5.2 0 6-0.4 6-1.7 0-1.3-0.8-1.8-2.8-1.8-2.4 0-2.7-0.3-2.9-3.7-0.2-3-0.6-3.8-2.2-3.8-1.6 0-2.1 0.8-2.3 3.8zm-106.5 4.1c-0.4 0.3-0.6 3.9-0.5 8.1 0.1 4.1 0.6 8.9 1.1 10.5 0.6 1.7 2.2 3.6 3.8 4.4 1.7 0.8 4 1.1 5.8 0.7 1.6-0.4 3.8-1.5 4.8-2.4 1.6-1.6 1.7-1.6 1.7 0.1 0 1.1 0.7 1.7 2 1.7 1.9 0 2-0.6 2-11.5v-11.5c-5 0-5 0.2-5 8 0 6.7-0.3 8.4-2 10-1.1 1.1-2.9 2-4 2-1.1 0-2.7-0.6-3.5-1.5-1.1-1-1.6-4-1.7-10.3-0.2-7.7-0.5-8.7-2.1-8.7-1 0-2.1 0.2-2.4 0.4zm30.9 1.9c-1.7 1.7-3.1 4.1-3.2 5.4 0 1.3 0.8 3.5 1.9 4.8 1.9 2.5 1.9 2.6 0 3.8-1.5 1-1.8 2-1.4 4.7 0.3 2 0 3.8-0.5 4-0.6 0.3-1 1.9-1 3.5 0 2.4 0.7 3.4 3 4.5 1.6 0.9 5 1.5 7.5 1.5 2.5 0 5.7-0.6 7.2-1.3 1.5-0.8 3.1-2.1 3.5-3 0.4-0.9 0.8-2.7 0.8-3.9 0-1.3-0.8-3-1.7-4-1.4-1.3-3.6-1.7-8.6-1.7-6-0.1-6.7-0.3-6.7-2.1 0-1.6 0.7-2 4-2 2.2 0 5.2-0.6 6.7-1.3 1.5-0.8 3.1-2.1 3.5-3 0.4-0.9 0.8-2.7 0.8-3.9 0-1.3-0.6-2.8-1.2-3.5-1.1-1.1-0.8-1.3 1.2-1.3 1.5 0 2.5-0.5 2.5-1.5 0-0.9-1-1.5-2.5-1.5-1.4 0-4.8-0.3-7.7-0.6-4.8-0.6-5.3-0.4-8.1 2.4zm24.6-1.9c0 0.3 0.1 4.5 0 9.1 0 4.7 0.2 9.4 0.5 10.5 0.3 1.1 1.7 2.6 3.1 3.3 1.4 0.7 3.4 1.2 4.3 1.2 1 0 3.1-0.7 4.8-1.5 1.6-0.8 3.1-1.5 3.2-1.5 0.2 0 0.1 0.5-0.2 1-0.3 0.6 0.6 1 2 1h2.5v-23c-5 0-5 0.1-5 8.3 0 6.6-0.3 8.6-1.7 10q-1.8 1.8-5.3 1.5c-2.4-0.2-3.4 0.1-3.3 1 0.2 0.7-0.4 1-1.2 0.7-0.8-0.2-1.5-0.9-1.5-1.5 0-0.5 0.5-1.3 1.2-1.7 0.9-0.6 1-0.3 0.4 0.7-0.6 1-0.6 1.2 0 0.5 0.5-0.5 0.7-5.2 0.4-10.5-0.5-8.3-0.7-9.5-2.4-9.6-1-0.1-1.8 0.1-1.8 0.5zm28.7 1.6c-1.3 1.3-2.5 3.3-2.5 4.2 0 1 0.5 2.6 1.2 3.6 0.7 1 3.5 2.6 6.3 3.5 4.1 1.5 5 2.2 5 4.3 0 2.1-0.5 2.5-3.8 2.7-2.6 0.2-3.9-0.2-4.2-1.3-0.3-0.8-1.4-1.5-2.5-1.5-1.1 0-2.2 0.4-2.5 0.8-0.2 0.4 0.5 1.8 1.8 3 1.2 1.3 3.9 2.5 6.2 2.8 2.4 0.3 5 0 6.5-0.8 1.4-0.7 2.9-2.5 3.5-4 0.7-1.9 0.6-3.4-0.3-5.2-0.9-1.9-2.6-3-6.7-4.1-3-0.8-5.7-2.1-6-3-0.3-0.8 0.4-2.3 1.5-3.2 1.7-1.5 2.4-1.6 4.5-0.5 1.4 0.7 2.5 1.7 2.5 2.2 0 0.6 0.9 0.8 2 0.5 1.1-0.2 2-0.9 2-1.5 0-0.5-1.3-1.9-2.8-3-1.5-1.1-4.2-2-6-2-2.2 0-4.1 0.9-5.7 2.5zm110.5 119.3c0 0.7-2.4 3.8-5.2 7-3.4 3.7-3.9 4.5-1.4 2.2 2.1-1.9 4.6-4.7 5.7-6.2 1-1.5 1.6-3.1 1.4-3.5-0.3-0.4-0.6-0.2-0.5 0.5zm-165 50.5c0 0.4 1.6 3.3 3.6 6.5 2.1 3.2 6.4 7.9 10 10.7 3.4 2.8 6.3 5.4 6.3 5.8 0.1 0.4-0.7 0.3-1.7-0.2-0.9-0.4-3.2-2.2-5-4-1.8-1.7-3.7-3.1-4.4-3.1-0.6 0-1-0.2-0.7-0.5 0.2-0.3-1.2-2.2-3.2-4.2-1.9-2.1-4.5-5.1-5.8-6.8l-2.3-3c2.9 5.3 6.4 9.8 9.7 13.3 3.3 3.5 8.5 7.9 11.5 9.8 3 1.8 9.2 4.5 13.7 5.9 7 2.1 8.2 2.8 7.6 4.3-0.4 0.9-3.8 7.1-7.6 13.7-3.8 6.6-7.2 12.3-7.4 12.5-0.3 0.3-2.6 0.4-5.1 0.3-2.6-0.2-7.1 0.4-10 1.2-2.9 0.8-5.5 2.1-5.8 2.8-0.4 0.7-0.2 1.6 0.2 2 0.5 0.4 2.9 0 5.4-0.8 2.8-1 5.4-1.2 6.8-0.7 2.3 0.7 2.2 0.8-1.8 4.5-2.2 2-4 4.4-4 5.2 0 0.9 0.3 1.5 0.7 1.5 0.4 0 2.9-1.7 5.6-3.7 2.6-2.1 4.7-4.2 4.7-4.8 0.1-0.5-2 0.7-4.5 2.8-2.5 2-4.7 3.6-5 3.5-0.2-0.2 1.7-1.9 4.3-4 4.6-3.7 4.8-3.7 12.7-3.6 6.3 0.2 8-0.1 8-1.2 0-0.9-1.7-1.8-4-2.4-2.2-0.5-4.1-1-4.3-1-0.2 0 2.8-5.2 6.5-11.6 3.8-6.3 7.4-12.8 8.1-14.5 1.2-3 1.2-3 10-3.1 5.4 0 11-0.8 14.9-2 3.4-1 6.4-1.6 6.7-1.4 0.2 0.3-3.5 8.4-8.2 18-4.7 9.7-8.5 18.1-8.6 18.7q-0.1 1.1-1.9 0.2c-0.9-0.5-2.8-0.9-4.2-0.9-1.4 0-4.9 0.9-7.8 2-2.9 1-5.6 2.6-6 3.5-0.4 0.8-0.3 1.8 0.3 2 0.5 0.3 2.2 0 3.7-0.6 1.5-0.6 4.1-1.5 5.8-1.9 1.6-0.4 3.3-0.6 3.7-0.4 0.4 0.2-1 2.1-3.3 4.2-2.2 2-4 4.3-4 5 0.1 0.7 0.5 1.5 1.1 1.7 0.5 0.3 3.3-1.7 6.2-4.5 3.5-3.2 6.7-5.3 9.3-5.9 2.2-0.6 6-1 8.5-1 4 0 4.3-0.2 3-1.5-0.8-0.8-3.4-1.6-5.8-1.8-2.3-0.1-4.2-0.4-4.2-0.5 0-0.2 3.8-8.1 8.5-17.8 4.7-9.6 8.5-18.1 8.5-19 0-0.8 2.7-3 6-5 3.3-1.9 6.3-4 6.7-4.7 0.4-0.7-0.4-0.5-1.8 0.5-1.3 1-4.5 2.8-7.1 4-3.3 1.6-4.8 3-5.1 4.7-0.3 1.4-4.3 10.2-8.8 19.5-4.6 9.4-8.2 17.4-8.1 17.8 0.1 0.4-0.3 0.5-0.8 0.2-0.6-0.3 0.2-2.9 1.9-6.2 1.5-3.2 5.6-11.4 8.9-18.3 3.3-6.8 5.8-12.8 5.4-13.2-0.4-0.4-4.3 0.2-8.7 1.3-6 1.5-10.4 2-17.5 1.8-6.1-0.2-12.1-1.1-16.5-2.4-3.9-1.2-8.4-2.9-10-3.9-1.7-0.9-2.1-1.4-1-1.1 1.1 0.4 5.4 1.8 9.5 3.2 4.2 1.4 11 2.7 15.5 3 5.5 0.4 10.5 0.1 16-1.1 4.4-0.9 10.7-2.9 14-4.5 3.3-1.6 6.5-3.5 7.1-4.2 0.7-0.8-1.8 0.1-5.5 1.9-3.6 1.8-9.3 3.9-12.6 4.7-3.3 0.9-10.3 1.5-15.5 1.5-5.2 0-12-0.6-15-1.5-3-0.8-8.4-2.9-12-4.6-4.1-2-9-5.6-13.1-9.8-3.7-3.6-7.6-8.1-8.8-10.1-1.1-1.9-2.1-3.1-2.1-2.7z"/><path class="c" d="m1065.3 466.5c0 3.9 0.2 5.2 0.4 3 0.2-2.2 0.2-5.4 0-7-0.2-1.6-0.4 0.1-0.4 4zm60 48c0 4.4 0.2 6 0.4 3.5 0.2-2.5 0.2-6.1 0-8-0.2-1.9-0.4 0.1-0.4 4.5zm-121.3 42.5c0 0.6 0.3 1 0.8 1 0.4 0 0.8 0.8 0.9 1.7 0.1 1 0.7 3.2 1.4 4.8 0.7 1.6 2 5.3 2.9 8 1.1 3.5 2.2 5.1 3.5 5.3 1.7 0.3 2.5-1.2 5.4-9 1.9-5.1 3.6-9.9 3.7-10.5 0.2-0.7-0.1-1.3-0.6-1.3-0.5 0-0.9 0.3-0.8 0.8 0 0.4-0.3 1.6-0.7 2.7-0.5 1.1-1.9 5.1-3.1 9-1.2 3.9-2.8 7.2-3.6 7.4-0.9 0.4-1.1 0-0.5-1.2 0.4-1.1 0.3-1.6-0.4-1.5-0.6 0.2-1.8-2.2-2.6-5.2-0.8-3-2.1-6.4-2.8-7.5-0.8-1.1-1.2-2.5-0.9-3 0.3-0.5-0.2-1.3-1.1-1.7-0.9-0.4-1.6-0.3-1.5 0.2zm-6.6 12.5c0 5 0.1 7.2 0.3 5 0.2-2.2 0.2-6.3 0-9-0.2-2.8-0.3-1-0.3 4zm68 53.5c0 14 0.2 19.9 0.3 13 0.2-6.9 0.2-18.4 0-25.5-0.1-7.1-0.3-1.5-0.3 12.5zm-24.1 66c0 4.1 0.2 5.9 0.4 4 0.2-1.9 0.2-5.3 0-7.5-0.2-2.2-0.4-0.6-0.4 3.5zm-123.3 7.7c-0.7 0.2-1.3 0.9-1.2 1.4 0.1 0.5 1.2 1.8 2.5 2.9 1.2 1.1 3.1 2 4.2 2 1.8-0.1 1.8-0.2-0.2-1.1-1.3-0.5-2.1-1.4-1.8-1.9 0.3-0.5-0.1-0.9-0.7-0.8-0.7 0.2-1.3-0.5-1.2-1.4 0-1 0-1.8 0-1.7-0.1 0-0.8 0.3-1.6 0.6zm108 70.5c0 0.5-0.9 0.6-2 0.3-1.1-0.3-2 0-2 0.5 0 0.5-0.5 0.8-1 0.5-0.5-0.3-1 0-1 0.5 0 0.5-0.5 0.8-1 0.5-0.5-0.3-1 0.1-1 0.7 0 0.7-0.2 1-0.5 0.5-0.3-0.4-1.7 0.4-3.2 1.8-1.6 1.4-3 2.3-3.3 2-0.3-0.3-1.4 0.5-2.5 1.8l-2 2.2c4.5-3.6 4.4-3.3 2-0.7-1.6 1.8-4 3.5-5.2 3.8-1.5 0.2-2 0.8-1.5 1.6 0.5 0.9-0.4 1-3.5 0.5-3.2-0.5-4.1-0.4-3.5 0.5 0.5 0.8-0.1 1-2.3 0.7-1.6-0.3-3.5 0-4 0.6-0.5 0.6-1.1 1.6-1.2 2.3-0.2 0.8 0.3 0.9 1.5 0.5 1.2-0.5 1.5-0.4 1 0.5-0.6 0.9-0.2 1 1.5 0.5 1.6-0.5 2-0.4 1.5 0.5-0.6 0.9-0.1 1 2 0.5 2-0.5 2.5-0.4 2 0.5q-0.8 1.2 0.7 0.7c0.8-0.3 1.5 0 1.5 0.5 0 0.5 0.5 0.8 1 0.5 0.5-0.3 1.2 0 1.5 0.5 0.3 0.5 1 0.8 1.5 0.5 0.5-0.3 1.7 0.3 2.6 1.3 0.9 1 1.2 1.1 0.7 0.2-0.5-1.1-0.4-1.3 0.5-0.8 0.7 0.5 0.9 1.7 0.5 3-0.4 1.4-0.3 2 0.3 1.6 0.5-0.3 1 0.7 1.2 2.3 0.1 1.7-0.2 2.7-0.8 2.4-0.6-0.3-0.8 1.2-0.5 4 0.3 2.7 0.1 4.5-0.5 4.5-0.6 0-0.9 4.8-0.7 13 0.1 7.1 0.5 13 1 13 0.4 0 0.5 1.1 0.2 2.5-0.4 1.8-0.2 2.3 0.7 1.8 0.9-0.6 1-0.2 0.5 1.5-0.4 1.3-0.3 2.2 0.3 2.2 0.5 0 0.8 0.5 0.5 1-0.3 0.5 0 1 0.5 1 0.5 0 0.8 0.5 0.5 1-0.3 0.5 0 1 0.5 1 0.5 0 0.8 0.5 0.5 1-0.3 0.5 0 1 0.7 1 0.6 0 0.8 0.2 0.5 0.5-0.4 0.3 0.2 1.4 1.3 2.5 1.1 1.1 1.8 2.5 1.5 3-0.3 0.5 0.1 0.9 0.8 0.8 0.6-0.2 1.1 0.5 1 1.4-0.2 1 0.1 1.7 0.5 1.6 0.4-0.2 2.2 0.8 3.9 2.2 2.4 1.9 2.9 2.8 2 3.6-0.9 0.9-0.8 1.4 0.3 2 1.1 0.6 1.3 0.5 0.8-0.4-0.5-0.7-0.2-1.2 0.7-1.2 0.8 0 1.5 0.5 1.5 1 0 0.5 1.9 2.3 4.3 4 2.3 1.6 4.4 2.8 4.7 2.5 0.3-0.3-0.7-1.4-2.2-2.5-1.6-1.1-2.6-2.5-2.3-3 0.3-0.5-0.1-0.8-0.7-0.5-0.7 0.2-2.8-0.9-4.5-2.5-1.8-1.7-4.4-4.8-5.8-7-1.4-2.2-2.2-4.3-1.7-4.7 0.4-0.3 0.1-0.3-0.5 0-0.8 0.4-1.5-0.2-1.9-1.6-0.3-1.3-0.1-2.5 0.8-3 0.7-0.4 2.7-0.6 4.4-0.5 1.9 0.2 2.9-0.1 2.5-0.7-0.3-0.5 0.3-0.6 1.7-0.2 1.3 0.4 2 0.3 1.7-0.3-0.3-0.5 0.1-1.1 0.8-1.1 0.6-0.1 1.4-0.2 1.7-0.2 0.3 0 1.6-1.2 3-2.5 1.4-1.4 1.8-2.2 1-1.8-0.8 0.4-0.7 0.2 0.2-0.6 1-0.7 1.4-1.7 1-2.1-0.4-0.4-0.1-0.7 0.6-0.7 0.8 0 0.9-0.6 0.5-1.8-0.5-1.2-0.4-1.5 0.5-0.9q1.2 0.7 0.7-0.8c-0.3-0.8 0-1.5 0.5-1.5 0.5 0 0.8-0.9 0.5-2-0.3-1.1 0-2 0.5-2 0.5 0 0.9-1.1 0.8-2.4-0.2-1.3 0-2.2 0.5-2 0.4 0.2 0.7-0.5 0.7-1.6 0-1.1 0.5-2 1-2 0.5 0 1.1 0.6 1.1 1.3 0.1 0.6 0.1 1.5 0 2 0 0.4 0.4 0.7 0.9 0.7 0.5 0 0.8 0.7 0.5 1.5-0.3 0.8 0 1.5 0.7 1.5 0.6 0 0.9 0.3 0.5 0.8-0.3 0.4 0.4 1.5 1.6 2.5 1.2 1 1.6 1.6 1 1.3-0.7-0.3-1.3-0.5-1.3-0.3 0 0.1 1.7 1.8 3.7 3.7 2 1.9 3.3 2.8 2.9 2-0.4-0.8 0.2-0.4 1.4 1 1.2 1.4 2.6 2.5 3.1 2.5 0.6 0 1.4 0.7 1.9 1.5 0.5 0.8 1 1 1 0.5 0-0.5 0.5-0.2 1 0.7 0.6 1 1.5 1.6 2 1.3 0.5-0.3 1.2 0.2 1.5 1 0.3 0.8 1 1.3 1.5 1 0.5-0.3 1 0 1 0.5 0 0.5 0.7 1 1.5 1 0.8 0 1.5 0.5 1.5 1 0 0.5 0.5 0.8 1 0.5 0.5-0.3 1 0 1 0.5 0 0.5 0.9 1 2 1 1.1 0 2.4 0.8 3 1.7 0.5 1 1 1.5 1 1 0-0.4 0.7 0 1.5 0.8 0.8 0.8 2 1.3 2.5 1 0.5-0.3 1 0 1 0.5 0 0.5 0.5 0.8 1 0.5 0.5-0.3 1.7 0.2 2.5 1 0.8 0.8 1.7 1.2 2 0.7 0.3-0.4 0.5-0.1 0.5 0.5 0 0.7 0.5 1.1 1 0.8 0.5-0.3 1 0 1 0.5 0 0.5 0.5 0.8 1 0.5 0.5-0.3 1 0 1 0.5 0 0.6 0.8 0.7 1.8 0.3 1.3-0.6 1.5-0.5 0.7 0.7-0.8 1.2-0.6 1.3 0.8 0.7 1-0.4 2.3-0.1 3.2 0.8 0.8 0.8 1.7 1.2 2 0.7 0.3-0.4 0.5-0.1 0.5 0.5 0 0.7-0.5 2.2-1 3.3-0.6 1.2-1.5 1.7-2.2 1.3q-1.3-0.8-0.5 0.5c0.5 0.8-1.3 2.1-5.5 4.2-3.5 1.6-9.9 3.7-14.3 4.6-5.5 1.1-10.5 1.5-16 1.1-4.5-0.3-11.3-1.6-15.5-3-4.1-1.4-8.4-2.8-9.5-3.2-1.1-0.3-0.7 0.1 1 1.1 1.7 0.9 6.2 2.7 10 3.8 4.5 1.4 10.4 2.3 16.5 2.4 7.1 0.2 11.6-0.2 17.5-1.7 4.4-1.2 8.3-1.8 8.7-1.3 0.4 0.4-2 6.3-5.4 13.2-3.3 6.9-7.3 15.1-8.9 18.3-1.7 3.3-2.5 5.9-1.9 6.2 0.5 0.3 0.9 0.2 0.8-0.2-0.1-0.5 3.5-8.4 8.1-17.8 4.5-9.4 8.6-18.2 8.9-19.8 0.4-1.5 1.4-2.8 2.2-2.9 0.8-0.1 2-0.2 2.6-0.2 0.6-0.1 0.9-0.5 0.5-1.1-0.4-0.6 0.1-0.7 1.2-0.2 1 0.4 1.5 0.3 1.2-0.3-0.3-0.5 0.1-1.1 0.8-1.1 0.6-0.1 1.5-0.1 2 0 0.4 0 0.5-0.4 0.2-0.9-0.3-0.5 0.4-1.5 1.5-2 1.1-0.5 2-0.7 2-0.2 0 0.4 0.5 0 1-0.8 0.9-1.3 1.1-1.3 1.9 0 0.5 0.8 1.4 1.2 2 0.8 0.6-0.5 1.1-0.3 1.1 0.2 0 0.5 0.5 0.8 1 0.5 0.5-0.3 1.2 0 1.5 0.5 0.3 0.5 1 0.7 1.6 0.3 0.6-0.5 1.5-0.1 2 0.7 0.5 0.9 2 1.4 3.9 1.3 1.7-0.2 2.8 0.1 2.5 0.7-0.3 0.6 0.4 0.7 1.8 0.3 1.6-0.5 2-0.4 1.5 0.5-0.6 0.8-0.2 1 1.2 0.7 1.1-0.3 2 0 2 0.5 0 0.5 0.9 0.8 2 0.5 1.1-0.3 2-0.2 2 0.3 0 0.4 1.2 0.5 2.5 0.2 1.4-0.3 2.8-1.1 3-1.7 0.3-0.7 0-1.3-0.5-1.3-0.5 0-0.8-0.7-0.5-1.5q0.5-1.5-0.7-0.7c-0.9 0.5-1 0.2-0.5-1 0.4-1.1 0.3-1.8-0.5-1.8-0.6 0-0.8-0.2-0.5-0.5 0.4-0.3-0.2-1.4-1.3-2.5-1.1-1.1-1.8-2.5-1.5-3 0.3-0.5 0-1-0.5-1-0.5 0-1.7-1.1-2.5-2.5-0.8-1.4-1-2.3-0.5-2 0.5 0.3 0.4-0.4-0.2-1.4-0.7-1.1-1.6-1.8-2-1.5-0.5 0.2-1-0.2-1.2-0.8-0.2-0.7-0.4-1.6-0.5-2 0-0.5-1-2.2-2.1-3.8-1.7-2.5-1.8-3.3-0.7-5 0.6-1.1 1.8-2 2.5-2 0.6 0 1.7-0.9 2.2-2 0.5-1.1 1.3-1.8 1.8-1.5 0.4 0.2 1.5-0.6 2.5-1.8 1-1.2 1.5-1.5 1.1-0.7-0.4 0.8 0.7 0 2.4-1.7 1.8-1.8 3.7-3.1 4.2-2.8 0.5 0.3 1.2-0.2 1.5-1 0.3-0.8 1-1.3 1.5-1 0.5 0.3 1.2-0.2 1.5-1 0.3-0.8 1-1.3 1.5-1 0.5 0.3 1.2-0.2 1.5-1 0.3-0.8 1-1.3 1.5-1 0.5 0.3 1 0 1-0.5 0-0.5 0.5-0.8 1-0.5 0.5 0.3 1.2-0.2 1.5-1 0.3-0.8 1-1.3 1.5-1 0.5 0.3 1 0 1-0.5 0-0.5 1.1-1.7 2.5-2.5 1.7-1 2.3-1.1 1.9-0.2-0.3 0.6 0.4 0.1 1.5-1.3 1.1-1.4 2-2 2-1.5 0 0.5 1-0.1 2.1-1.5 1.2-1.4 1.8-1.8 1.4-1-0.4 0.8-0.5 1.3-0.2 1 0.3-0.3 2.8-3.1 5.6-6.2 2.9-3.2 5.5-5.5 5.9-5 0.3 0.4 0.3 0.1 0-0.5-0.4-0.7 0.1-2 1.1-2.9 1.5-1.4 1.5-1.7 0.2-2.4-1.1-0.5-1.2-1.2-0.5-2.1 0.7-1 0.7-1.2-0.2-0.6-0.7 0.4-1.3 0.4-1.3 0 0-0.5-1.3-0.8-2.9-0.8-1.6 0-2.6 0.4-2.2 0.9 0.3 0.6-0.5 0.8-2.1 0.5-1.5-0.2-2.8-0.1-2.8 0.4 0 0.4-0.7 0.5-1.5 0.2-0.8-0.3-1.5 0-1.5 0.5 0 0.5-0.7 0.8-1.5 0.5q-1.5-0.5-0.7 0.7c0.5 0.9 0.2 1-1 0.5-1-0.4-1.8-0.3-1.8 0.3 0 0.5-0.5 0.8-1 0.5-0.5-0.3-1 0-1 0.5 0 0.5-1 1.3-2.2 1.6-1.3 0.3-2.6 0.6-3 0.5-0.5-0.1-0.8 0.4-0.8 0.9 0 0.5-0.5 0.8-1 0.5-0.5-0.3-1 0.1-1 0.8 0 0.6-0.3 0.9-0.7 0.5-0.5-0.4-1.4 0-2.1 1-0.9 1-1.1 1.1-0.7 0.2 0.4-0.8-0.1-0.6-0.9 0.5-0.9 1.1-1.6 1.5-1.6 1-0.1-0.5-0.5-0.2-1 0.8-0.6 0.9-1.9 1.7-3 1.7-1.1 0-2.9 1-4 2.3-1.1 1.2-2 1.7-2.1 1.2 0-0.5-0.4-0.2-0.9 0.8-0.6 0.9-1.5 1.5-2 1.2-0.5-0.3-1 0-1 0.5 0 0.5-0.3 0.9-0.7 0.8-0.5-0.1-1.8 0.3-3 1-1.3 0.7-3.2 2.1-4.3 3.2-1.1 1.1-2.5 1.8-3 1.5-0.5-0.3-1 0-1 0.5 0 0.5-0.3 0.9-0.7 0.8-0.5-0.1-2.5 0.7-4.5 1.8l-3.8 1.9c-4.3-4.3-5.9-5.2-6.3-4.8-0.5 0.5-0.7 0.1-0.5-0.7 0.1-0.8-0.3-1.4-1-1.5-0.8 0-2.5-1.4-3.9-3-1.4-1.6-2.2-2.3-1.8-1.5 0.3 0.8-0.8-0.1-2.6-2-1.7-1.9-2.8-2.8-2.4-2 0.4 0.8-0.7-0.1-2.4-2-1.8-1.9-2.9-2.8-2.6-2 0.4 0.8-0.5 0.3-1.9-1.2-1.4-1.6-2.6-2.5-2.6-2 0 0.4-1-0.4-2.1-1.8-1.1-1.4-1.8-1.8-1.4-1 0.4 0.8-0.3 0.4-1.5-1-1.1-1.4-2.1-2.2-2-1.7 0 0.4-1.2-0.5-2.6-2-1.5-1.6-2-1.9-1.3-0.8 1.3 1.8 1.2 1.9-0.3 0.8-1-0.7-1.6-2-1.3-2.8 0.3-0.8 0-1.5-0.5-1.5-0.5 0-0.8-0.5-0.5-1 0.3-0.5 0-1-0.5-1-0.5 0-0.8-0.5-0.5-1 0.3-0.5 0-1-0.7-1-0.6 0-0.8-0.3-0.5-0.7 0.4-0.5 0-2-0.8-3.5-0.8-1.6-2-2.8-2.5-2.8-0.5 0-0.9-0.3-0.7-0.7 0.1-0.5-2-3-4.8-5.8-2.7-2.7-4.6-4.4-4.2-3.7q0.7 1.2-1.8-0.3c-1.4-0.8-2.5-2-2.5-2.5 0-0.5-0.5-0.8-1-0.5-0.5 0.3-1.1 0-1.2-0.6-0.2-0.7-1.8-1.1-3.5-1-1.8 0-3.1-0.2-2.9-0.6 0.2-0.5-3.1-0.8-7.5-0.8-4.3 0-7.9 0.3-7.9 0.8zm5.9 155.4c-2.1 1.8-4.4 3.1-4.9 2.8-0.5-0.3-1-0.3-1 0 0 0.3 1 1 2.3 1.6 1.2 0.7 1.9 0.8 1.4 0.3-0.4-0.5 0-1.7 0.8-2.7 0.8-0.9 1.9-1.7 2.5-1.7 0.5 0 0.7 0.6 0.3 1.2-0.3 0.8-0.2 0.9 0.3 0.5 0.5-0.5 0.9-1.2 0.9-1.5 0-0.4 0.4-1.3 0.8-2 0.4-0.6 1.2-1 1.7-0.7 0.5 0.3 1.2 0.2 1.4-0.3 0.2-0.4-0.3-0.7-1.1-0.8-0.8 0-3.2 1.4-5.4 3.3z"/><path class="d" d="m1039.4 511c0 6.9 0.1 9.6 0.3 6 0.2-3.6 0.2-9.2 0-12.5-0.2-3.3-0.3-0.4-0.3 6.5zm-38.1-1.5c0 3.9 0.2 5.2 0.4 3 0.2-2.2 0.2-5.4 0-7-0.2-1.6-0.4 0.1-0.4 4zm113 5c0 4.4 0.2 6 0.4 3.5 0.2-2.5 0.2-6.1 0-8-0.2-1.9-0.4 0.1-0.4 4.5zm-10.9 53c0 6 0.1 8.3 0.3 5 0.2-3.3 0.2-8.3 0-11-0.2-2.8-0.3 0-0.3 6zm-11.1-1c0 3.9 0.2 5.2 0.4 3 0.2-2.2 0.2-5.4 0-7-0.2-1.6-0.4 0.1-0.4 4zm73 3.5c0 4.7 0.2 6.5 0.4 4 0.2-2.5 0.2-6.3 0-8.5-0.2-2.2-0.4-0.2-0.4 4.5zm-240.8 105.7c1.6 0.2 4.8 0.2 7 0 2.2-0.2 0.8-0.4-3-0.4-3.9 0-5.7 0.2-4 0.4zm280.5 0c1.9 0.2 5.3 0.2 7.5 0 2.2-0.2 0.6-0.4-3.5-0.4-4.1 0-5.9 0.2-4 0.4zm-107.7 9.7c-0.3 0.7-0.4 3.8-0.1 6.7l0.4 5.4c0.4-11.9 0.6-12.5 2.6-12.9l2.3-0.3c-3.5-0.2-4.8 0.3-5.2 1.1zm83.2 18.6l-11 0.6c17.1 0.3 21.7 0 22-0.6 0.2-0.5 0.3-0.9 0.2-0.8-0.1 0.1-5.2 0.5-11.2 0.8zm-57.5 0.7c3 0.2 8.2 0.2 11.5 0 3.3-0.2 0.8-0.3-5.5-0.3-6.3 0-9 0.1-6 0.3z"/><path class="e" d="m943.3 294c0 4.1 0.2 5.9 0.4 4 0.2-1.9 0.2-5.3 0-7.5-0.2-2.2-0.4-0.6-0.4 3.5zm117.1 151c0 15.7 0.2 22 0.3 14 0.2-8 0.2-20.8 0-28.5-0.1-7.7-0.3-1.2-0.3 14.5zm49 66c0 6.3 0.1 8.8 0.3 5.5 0.2-3.3 0.2-8.5 0-11.5-0.2-3-0.3-0.3-0.3 6zm-113.1-1c0 4.1 0.2 5.9 0.4 4 0.2-1.9 0.2-5.3 0-7.5-0.2-2.2-0.4-0.6-0.4 3.5zm48 5c0 4.1 0.2 5.9 0.4 4 0.2-1.9 0.2-5.3 0-7.5-0.2-2.2-0.4-0.6-0.4 3.5zm-13.9 52.5c0 7.1 0.1 9.9 0.3 6 0.2-3.9 0.2-9.7 0-13-0.2-3.3-0.3-0.1-0.3 7zm56.9-0.5c0 4.1 0.2 5.9 0.4 4 0.2-1.9 0.2-5.3 0-7.5-0.2-2.2-0.4-0.6-0.4 3.5zm21 0.5c0 4.4 0.2 6 0.4 3.5 0.2-2.5 0.2-6.1 0-8-0.2-1.9-0.4 0.1-0.4 4.5zm52.1 4c0 5 0.1 7.2 0.3 5 0.2-2.2 0.2-6.3 0-9-0.2-2.8-0.3-1-0.3 4zm-100 52c0 13.8 0.2 19.6 0.3 13 0.2-6.6 0.2-17.9 0-25-0.1-7.1-0.3-1.8-0.3 12z"/><path class="a" d="m477 97.7c-1.9 0.2-7.3 1-12 1.9-4.7 0.8-12.6 2.6-17.5 3.9-4.9 1.3-14.2 4.5-20.5 7-6.3 2.6-14.4 6.3-18 8.2-3.6 2-9.9 5.9-14 8.6-4.1 2.8-10.9 7.7-15 11.1-4.1 3.4-10.6 9.3-14.4 13.1-3.8 3.8-9.8 10.6-13.3 15-3.5 4.4-8.8 11.8-11.7 16.5-2.9 4.7-7.1 12.1-9.3 16.5-2.2 4.4-5.7 12.5-7.8 18-2 5.5-4.8 14.1-6.1 19-1.2 4.9-3 13.7-3.8 19.5-0.9 6.1-1.6 17.4-1.6 27 0 9.5 0.6 20.7 1.5 26.5 0.8 5.5 2.7 14.7 4.1 20.5 1.5 5.8 4.2 14.6 6.1 19.5 1.9 4.9 5.7 13.5 8.5 19 2.7 5.5 7.8 14.3 11.3 19.5 3.5 5.2 9.9 13.8 14.3 19 4.3 5.2 12.1 13.2 17.3 17.8 5.2 4.6 14.1 11.5 19.9 15.4 5.8 3.9 14.6 9.1 19.5 11.6 4.9 2.4 13.1 6 18 7.9 4.9 1.9 14.2 4.8 20.5 6.4 6.3 1.6 16.6 3.6 22.8 4.4 6.1 0.8 16.8 1.5 23.7 1.5 6.9 0 17.6-0.7 23.8-1.5 6.1-0.8 16.6-2.8 23.2-4.5 6.6-1.7 17.4-5.3 24-8.1 6.6-2.7 17-7.8 23-11.4 6-3.6 14.3-9.2 18.4-12.3 4.1-3.1 11.3-9.3 15.9-13.7 4.7-4.4 11.3-11.4 14.7-15.5 3.4-4.1 8.9-11.6 12.2-16.5 3.4-4.9 8.7-14.2 11.8-20.5 3.2-6.3 7.7-17.4 10.1-24.5 2.4-7.1 5.3-18.4 6.6-25 1.9-10.2 2.2-15.4 2.3-34.5 0-14.4-0.5-25.2-1.3-30-0.8-4.1-2.5-12-3.9-17.5-1.4-5.5-4-13.8-5.8-18.5-1.8-4.7-5.5-13-8.2-18.5-2.8-5.5-8.2-14.7-12.1-20.5-3.9-5.8-10.6-14.6-14.9-19.5-4.3-4.9-11.7-12.3-16.3-16.4-4.7-4-13.2-10.5-19-14.3-5.8-3.9-14.8-9.2-20-11.8-5.2-2.6-13.8-6.3-19-8.3-5.2-1.9-14-4.7-19.5-6.1-5.5-1.3-14.7-3.2-20.5-4-6.8-1-16.5-1.5-27.5-1.4-9.4 0.1-18.6 0.3-20.5 0.5zm569.5 83.4c-3.3 0.5-9.4 1.7-13.5 2.8-4.1 1-10.9 3.3-15 5-4.1 1.7-11.1 5.3-15.5 8-4.4 2.7-11.4 7.8-15.5 11.3-4.1 3.5-10.1 9.7-13.5 13.9-3.3 4.2-7.9 11-10.2 15-2.4 4.1-5.9 11.8-7.8 17.1-1.9 5.4-4.2 13.7-5 18.5-0.9 4.9-1.6 14.4-1.6 21.3 0 6.9 0.2 14.3 0.6 16.5 0.3 2.2 1.1 6.2 1.6 9 0.6 2.7 2.2 8.6 3.6 13 1.4 4.4 4.2 11.1 6.1 15 1.9 3.9 5.8 10.4 8.6 14.5 2.7 4.1 8.2 10.8 12.1 14.8 3.8 4 7.2 7.3 7.5 7.2 0.3 0 2.1-4.5 4-10.1 3.4-9.7 3.6-10 6.3-9.7 2.7 0.3 3.1 1 6.3 10.3 1.9 5.5 3.4 10.3 3.4 10.7 0 0.5-0.9 0.8-2 0.8-1.3 0-2.3-1-2.9-2.8-0.7-2.4-1.3-2.7-5.2-2.6-3.5 0.1-4.5 0.5-4.8 2-0.2 1.1-0.7 2.5-1.2 3.1-0.6 0.9 0.9 2.6 5.4 5.6 3.4 2.4 7.8 5.3 9.7 6.4 1.9 1.2 6.3 3.3 9.8 4.7 3.4 1.4 10.1 3.7 15 5.1 4.8 1.4 13.7 3 19.7 3.6 7.8 0.7 13.9 0.7 21-0.1 5.5-0.6 13.6-2 18-3.1 4.4-1.1 11.8-3.7 16.5-5.7 4.7-2.1 12.5-6.4 17.5-9.7 5-3.2 12.6-9.5 17-14 4.4-4.4 10.5-11.6 13.5-16 3-4.4 7.4-12.3 9.9-17.5 2.4-5.2 5.8-14.7 7.4-21 2.7-10.4 3-13 3-27.5 0-11.8-0.4-18.1-1.7-24-1-4.4-3.1-11.8-4.8-16.5-1.6-4.7-4.8-11.9-7-16-2.2-4.1-6.1-10.4-8.8-14-2.6-3.6-8.6-10.1-13.1-14.5-4.6-4.5-11.3-10.1-14.9-12.5-3.6-2.4-10.1-6.1-14.5-8.1-4.4-2.1-11.8-4.9-16.5-6.2-4.7-1.4-12.5-3-17.5-3.6-5-0.6-12.6-1-17-1-4.4 0.1-10.7 0.5-14 1zm97.2 322.2c-1.3 0.8-1.7 2.2-1.5 4.2 0.2 2.1 1 3.2 3 4 2.2 0.8 3.1 0.6 4.8-1 1.1-1.1 2.1-2.8 2-3.7 0-1-1-2.5-2.2-3.3-1.3-0.8-2.8-1.5-3.3-1.5-0.6 0-1.9 0.6-2.8 1.3zm-69.3 0.5c-0.6 0.4-1.6 1.7-2.3 3-0.6 1.2-1.1 3.6-1.1 5.2 0 1.9 0.9 3.9 2.5 5.5 1.9 1.9 3.2 2.4 5.2 1.9 1.6-0.3 3.4-1.3 4.1-2.2 0.7-0.9 1.2-3.7 1.2-6.2 0.1-3-0.5-5.1-1.7-6.2-1-1-2.9-1.8-4.3-1.8-1.4 0-3 0.4-3.6 0.8zm-52.9 9.6c-3.3 0.9-4 1.6-4 3.6 0 2 0.6 2.6 2.7 2.8 1.7 0.1 3.6-0.6 4.8-1.8 1.1-1.1 2-2.9 2-4 0-1.1-0.3-2-0.8-1.9-0.4 0-2.5 0.6-4.7 1.3zm119.5 11.8c-0.8 0.7-1.3 1.8-1.2 2.5 0.1 0.7 1.1 1.8 2.2 2.3 1.1 0.5 3.5 1 5.3 1 1.8 0 3.8-0.6 4.5-1.2 0.7-0.7 1.2-2.1 1.2-3 0-1-0.7-2-1.5-2.3-0.8-0.3-3.2-0.5-5.3-0.5-2.1 0-4.4 0.5-5.2 1.2zm-19.2 35.9c-1.9 1.7-2.2 2.8-1.8 6.6 0.4 3.4 1.2 5.1 3 6.6 1.7 1.3 3.3 1.7 5.2 1.3 1.8-0.4 3.4-1.8 4.4-3.8 1-2.1 1.4-4.4 1-6.3-0.4-1.6-1.5-3.8-2.4-4.8-0.9-1-2.9-1.8-4.5-1.7-1.5 0-3.7 0.9-4.9 2.1zm-52.6 8c-1.8 0.5-3.7 1.6-4.3 2.4-0.5 0.8-0.7 2.2-0.4 3 0.3 0.8 1.6 1.5 3 1.5 1.4 0 3.4-0.9 4.5-2 1.1-1.1 2-2.9 2-4 0-1.1-0.3-2-0.8-1.9-0.4 0-2.2 0.5-4 1zm81.7 107.6c-0.9 1-1.5 4.8-1.7 10.5-0.2 8.2 0 9 2.3 11.3 1.9 1.9 3 2.3 4.7 1.8 1.2-0.5 2.8-2.3 3.5-4 0.7-1.8 1.3-5.8 1.3-8.8 0-3-0.5-6.7-1.1-8.2-0.6-1.6-1.6-3.1-2.2-3.5-0.7-0.4-2.2-0.8-3.3-0.8-1.2 0-2.8 0.7-3.5 1.7zm-186.9 6.8l-2.5 7.5h10.5c-3.9-11.2-5.2-14.6-5.3-14.7-0.1-0.1-1.3 3.2-2.7 7.2zm56 1.7c-0.8 0.7-1.3 2.2-1.2 3.5 0.1 1.3 1.2 2.8 2.4 3.4 1.3 0.6 3.3 0.8 4.5 0.5 1.4-0.4 2.5-1.6 2.8-3.1 0.3-1.4-0.1-3.2-0.8-4-0.6-0.9-2.3-1.6-3.7-1.5-1.5 0-3.2 0.5-4 1.2zm-2.1 21.3c-1.2 1.3-1.1 1.8 0.6 3.6 1.1 1.1 3.3 2 5 1.9 1.7 0 3.8-0.5 4.8-1.2 1.1-0.8 1.7-2.2 1.5-3.3-0.3-1.6-1.2-2.1-5.4-2.3-3.6-0.2-5.5 0.2-6.5 1.3zm4 77.4c-0.6 1.1-1 3-1 4.3 0.1 1.3 0.5 2.9 0.9 3.6 0.4 0.7 1.8 1.2 3.2 1 1.6-0.2 2.8-1.2 3.4-2.8 0.5-1.4 0.6-3.7 0.2-5.2-0.4-2.1-1.2-2.8-3.1-2.8-1.4 0-2.9 0.8-3.6 1.9z"/><path class="b" d="m647.1 167.5c-0.1 0.3 1.6 2.8 3.6 5.5 2.1 2.8 4 4.8 4.3 4.6 0.3-0.3-0.4-1.8-1.5-3.3-1.1-1.6-1.9-3-1.8-3.3 0.1-0.3-0.9-1.3-2.2-2.3-1.3-1-2.4-1.5-2.4-1.2zm349.4 197.8c-0.2 0.6-1.9 5.4-3.7 10.5l-3.3 9.2c-8.1-7-10.7-8.7-11-8.3-0.2 0.5 0.9 1.9 2.5 3.3 1.6 1.4 3.2 2.3 3.5 2 0.3-0.3 0.5-0.1 0.5 0.5 0 0.6 1.3 1.8 3 2.7 3 1.8 3 1.8 4.5-0.7 0.8-1.4 1.3-3.4 1-4.5-0.3-1.1 0-2 0.5-2 0.5 0 0.8 0.4 0.5 1-0.3 0.6 1.4 1 4.3 1 4.3 0 4.8 0.2 6 3 0.6 1.6 1.9 3 2.7 3 0.8 0 1.3-0.6 1.1-1.3-0.3-0.6-1.9-5.6-3.8-11-2.9-8.5-3.6-9.7-5.6-9.7-1.2 0-2.5 0.6-2.7 1.2zm-360.3 47.8c-4 4.4-6.7 8.2-6.2 8.5 0.5 0.3 1-0.1 1-0.8 0-0.6 1.4-2.1 3-3.2 1.6-1.1 3-2.4 3-3 0-0.6 1.7-2.7 3.8-4.7 2-2.1 3.4-4 3.1-4.3-0.3-0.3-3.8 3.1-7.7 7.5z"/><path class="c" d="m482.5 94.2c-6.1 0.4-15.7 1.7-21.5 2.7-5.8 1.1-16.1 3.9-23 6.1-6.9 2.2-17.7 6.5-24 9.6-6.3 3.1-15.2 8.1-19.8 11-4.5 3-9.6 6.7-11.2 8.4-1.6 1.7-3 2.7-3 2.2 0.1-0.4-0.7 0-1.6 0.8-0.9 0.8-2.1 2.4-2.6 3.5-0.6 1.3 0.1 0.9 1.8-1 1.5-1.7 3-3 3.3-2.9 0.3 0.1 2.1-0.9 3.9-2.2 1.8-1.4 3.7-2.1 4.5-1.7q1.2 0.8 0.5-0.5-0.8-1.2 6-5.6c3.7-2.4 9.6-6 13.2-7.9 3.6-2 11-5.5 16.5-7.7 5.5-2.2 14.5-5.4 20-7 5.5-1.6 14.1-3.6 19-4.5 5.3-1 16.7-1.9 28-2.2 11.9-0.3 22.4-0.1 28 0.6 5 0.7 12.4 1.9 16.5 2.7 4.1 0.8 11.3 2.6 16 4.1 4.7 1.4 11.9 3.9 16 5.5 4.1 1.6 10.5 4.4 14.3 6.3 3.7 1.9 6.5 2.9 6.2 2.2-0.3-0.6-4.3-3-8.9-5.2-4.7-2.2-8.7-3.8-8.9-3.5-0.2 0.3-1 0-1.8-0.6-0.8-0.7-6.4-2.8-12.4-4.7-6-1.9-15.5-4.4-21-5.6-5.5-1.1-16.5-2.4-24.5-3-8-0.5-15.4-0.8-16.5-0.8-1.1 0.1-6.9 0.5-13 0.9zm108.5 23.8c0 0.5 0.5 1 1 1 0.5 0 2.9 1.3 5.3 2.9 2.3 1.6 5.6 3.4 7.2 4l3 1.1c-3.9-3-5.3-3.7-5.7-3.4-0.5 0.2-0.9 0.1-1-0.4-0.2-0.4-2.2-1.9-4.5-3.5-2.4-1.5-4.5-2.7-4.8-2.7-0.3 0-0.5 0.4-0.5 1zm18 11.7c1.4 1 2.7 1.8 3 1.8 0.3 0 2.5 1.9 5 4.2 2.5 2.3 4.7 3.9 5 3.6 0.3-0.2-1.7-2.5-4.5-4.9-2.7-2.4-4.9-4.7-4.8-5.1 0.1-0.5-1.3-0.9-3-1l-3.2-0.3zm-245.5 19.6c-5.5 5.7-11.5 12.2-13.2 14.5-1.8 2.3-3.3 4.5-3.3 4.9 0 0.4-0.9 1.3-2 2-1.1 0.7-2 1.9-2 2.8 0 0.8-0.6 1.4-1.2 1.4-0.7 0-1 0.4-0.6 0.8 0.5 0.4 1.6 0 2.5-1 1-1 2.2-1.4 2.8-1 0.5 0.4 0.4 0-0.3-1-1-1.4-0.9-1.8 0.3-2.2 0.8-0.3 1.5-1 1.5-1.5 0-0.6 1.6-2.7 3.5-4.8 1.9-2.1 3.7-4.4 4-5.2 0.3-0.9 3.7-4.5 7.6-8 3.9-3.6 8-7.8 9-9.3 1-1.5 1.8-2.7 1.6-2.7-0.1 0-4.7 4.6-10.2 10.3zm260.6-8.8c0.7 1.1 5 5.8 9.6 10.5 4.5 4.6 9.3 9.9 10.7 11.7 1.4 1.8 2.4 3.7 2.1 4.3-0.3 0.5-0.2 0.9 0.2 0.7 0.5-0.1 1.8 0.4 2.9 1.3 1.2 0.8 2.1 1.7 2.1 2-0.1 0.2 0.7 1.7 1.6 3.2 0.9 1.5 1.4 3.3 1 4-0.5 0.8-0.4 1 0.2 0.5 0.6-0.4 2 0.4 3.2 1.8 1.3 1.4 2.3 2.7 2.3 3 0 0.2 1.5 3 3.3 6.2 1.9 3.2 5.2 9.6 7.4 14.3 2.2 4.6 5.6 13.2 7.6 19 2 5.7 4.5 14.7 5.6 20 1.1 5.2 2.5 13.3 3.1 18 0.5 4.6 1 14.9 1 22.7 0 7.8-0.7 19.3-1.5 25.5-0.8 6.2-2.8 16.4-4.4 22.8-1.6 6.3-4.9 16.4-7.4 22.5-2.4 6-5.4 13-6.7 15.5-1.2 2.4-5.4 9.6-9.3 16-3.9 6.3-7.8 12-8.6 12.7q-1.6 1.3-0.4 1.3c0.7 0 3.5-3.4 6.3-7.5 2.7-4.2 5-7.8 5-8 0-0.3 1.3-2.5 2.9-4.8 1.6-2.3 4.8-8.3 7.1-13.2 2.3-5 5.4-12.4 6.9-16.5 1.5-4.2 4-12.3 5.4-18 1.5-5.8 3.4-15.2 4.2-20.8 0.9-6.1 1.5-17.2 1.5-27.5 0-9.5-0.7-21.7-1.5-27.2-0.7-5.5-2.3-13.9-3.4-18.5-1.1-4.7-3.2-11.9-4.6-16-1.5-4.2-3.6-9.6-4.7-12-1-2.5-4-8.6-6.5-13.5-2.5-5-6.8-12.5-9.7-16.8-2.8-4.3-5.5-7.8-6-7.8-0.5 0-0.7-0.3-0.3-0.7 0.3-0.4-2-3.9-5.3-7.7-3.2-3.9-8.4-9.7-11.4-13-3-3.3-5.3-6.4-5.1-6.8 0.3-0.4 0-1-0.5-1.2-0.5-0.3-0.9-0.2-0.9 0.2 0.1 0.4 0.1 1.1 0 1.5 0 0.4-1.5-0.7-3.2-2.5-1.8-1.8-2.5-2.3-1.8-1.2zm420.9 37.6c-3.6 0.4-10.4 1.9-15.2 3.3-4.9 1.4-11.4 3.7-14.5 5.1-3.2 1.4-9.2 4.5-13.3 6.9-4.1 2.5-8.7 5.5-10.2 6.7-1.8 1.6-3 2.1-3.8 1.4q-1.1-1-0.8 0c0.2 0.6-0.8 2.5-2.2 4.2-1.6 2-2.9 2.8-3.5 2.2-0.6-0.6-2.3 0.4-4.5 2.8-1.9 2-2.8 3.1-2 2.5 0.8-0.7 1.7-1 2-0.7 0.3 0.3-1.7 2.9-4.4 5.7-2.7 2.9-5.3 5.1-5.7 5-0.5-0.1-0.7 0.2-0.4 0.8 0.3 0.5-0.2 2-1 3.2-0.8 1.2-1.5 2.7-1.6 3.3 0 0.5 0.7 0.3 1.6-0.5 0.8-0.9 1.3-1.7 1-1.8-0.3-0.1 0.3-1.2 1.3-2.4 0.9-1.3 5.9-6.7 11-12 5-5.4 9.2-9.5 9.2-9.1 0 0.4 1.2-0.4 2.7-1.8 1.6-1.5 4.8-4 7.3-5.7 2.5-1.6 8.1-4.8 12.5-7 4.4-2.2 11.1-5 15-6.2 3.8-1.2 10.2-2.8 14-3.7 3.8-0.8 12-1.7 18.2-2 7.8-0.4 14.4-0.1 22 1 5.9 0.9 14.8 3.1 19.8 4.8 5 1.7 12.6 4.9 17 7.1 4.4 2.1 8.9 4.8 10 5.8 1.1 1.1 2.6 1.9 3.3 1.9 0.6 0.1 1-0.4 0.7-0.9-0.3-0.6-0.7-0.8-1-0.5-0.3 0.2-1.5-0.5-2.7-1.6-1.3-1.1-6.8-4.2-12.3-6.9-5.5-2.7-14-6-19-7.5-5-1.4-12.2-3-16-3.5-3.8-0.6-11.7-1-17.5-0.9-5.8 0.1-13.4 0.5-17 1zm-707.6 4.6c-0.5 0.4-2.9 4.1-5.2 8.3-2.3 4.1-4 7.7-3.7 8 0.3 0.2 0.6 0.2 0.8 0 0.2-0.3 2.4-4.3 4.9-8.8 2.5-4.5 4.4-8.2 4.4-8.2-0.1 0-0.6 0.3-1.2 0.7zm-13.3 24.3c-1.7 3.8-3.1 7.5-3.1 8.2 0 0.7-0.4 1.7-0.8 2.3-0.5 0.5-1.8 4.1-3 8-1.1 3.8-2.8 9.7-3.5 13-0.8 3.3-2.1 9.1-2.9 13-0.9 4.7-1.3 15-1.3 32 0.1 23.4 0.2 25.8 2.8 38 1.6 7.1 4.4 17.7 6.3 23.5 1.9 5.7 5.7 15.1 8.5 20.7 2.7 5.6 6.8 13.3 9 17 2.3 3.7 4.5 6.9 5 7 0.5 0.1 0.9 0.7 0.9 1.3 0 0.5 2.2 4 5 7.7 2.7 3.7 6 7.4 7.2 8.1 2.2 1.3 2.1 1.2-0.3-1.5-1.4-1.5-4.2-5.2-6.2-8.1-2-2.9-3.5-5.7-3.2-6.2 0.3-0.6-0.1-0.9-0.7-0.8-0.7 0.1-1.3-0.5-1.3-1.4 0-0.9-0.3-1.4-0.7-1.2-0.5 0.2-2.8-2.9-5.2-6.9-2.5-4-6.5-11.5-8.9-16.7-2.5-5.3-6.1-14.5-8.1-20.5-2-6.1-4.5-15.1-5.5-20-1.1-5-2.5-13.1-3.1-18-0.8-5.7-1-16-0.7-28 0.3-10.5 0.7-20.2 1-21.5 0.3-1.4 1-5 1.5-8 0.6-3.1 1.7-8.2 2.6-11.5 0.8-3.3 3.2-10.8 5.2-16.5 2-5.8 4.6-12.7 5.8-15.3 1.2-2.6 1.9-4.7 1.5-4.7-0.4 0-2.1 3.1-3.8 7zm815.8 0.5c4.1 3.8 7.9 7.6 8.5 8.3 0.6 0.8 2.3 2.7 3.9 4.3 1.5 1.6 2.6 3 2.5 3.1-0.1 0.1 0.6 1.5 1.5 3 0.9 1.5 2.3 2.8 3 2.8 0.7 0 0.2-1-1-2.3-1.3-1.2-2.3-2.7-2.3-3.2 0-0.6-3.9-5.2-8.7-10.2-4.9-5-10.1-10-11.8-11-1.6-1 0.3 1.3 4.4 5.2zm20.1 22.5c0 0.2 2.5 5.4 5.5 11.5 3.1 6 6.5 14.1 7.6 18 1.2 3.8 2.8 10.3 3.6 14.5 0.8 4.1 1.8 13.1 2.2 20l0.8 12.5c0.2-14.8-0.4-23.3-1.2-28.5-0.8-5.3-1.9-11.1-2.5-13-0.6-2-1.3-4.4-1.5-5.5-0.3-1.1-1.6-5-3.1-8.5-1.4-3.6-3.9-9-5.4-12-1.6-3.1-3.5-6.4-4.4-7.5-0.8-1.1-1.6-1.8-1.6-1.5zm-203.8 14.3c-2.3 4.8-5.1 12.4-6.3 16.9-1.2 4.5-2.6 11.4-3.3 15.3l-1.2 7c-197.2 0-254.4 0.3-254.4 0.7 0 0.4 57.3 0.6 127.3 0.5l127.2-0.2c-0.2 13.1 0.2 20.3 0.7 24.5 0.5 4.1 2 12 3.4 17.5 1.4 5.5 4.6 14.2 7 19.5 2.5 5.2 6.9 13.1 9.9 17.5 2.9 4.4 8.5 11.3 12.4 15.5 3.9 4.1 6.7 7.9 6.3 8.4-0.4 0.6 0.1 0.3 1.1-0.5 1.7-1.3 1.7-1.6 0.3-2.7-0.9-0.7-1.3-1.8-1-2.5 0.5-0.9 0.3-0.9-0.5-0.2-0.9 0.7-2.1 0.2-4.1-1.5-1.6-1.4-2.7-2.9-2.5-3.3 0.3-0.4 1.3-0.2 2.3 0.5 1.4 1 1.5 1 0.4-0.3-0.7-0.8-1.6-1.4-2.1-1.4-0.4 0-2.1-1.2-3.7-2.5-1.7-1.4-3.2-3-3.5-3.5-0.2-0.6-2.6-4.4-5.3-8.5-2.8-4.2-6.6-10.9-8.7-15-2-4.2-4.8-11.6-6.2-16.5-1.4-5-3.1-12-3.7-15.5-0.6-3.6-1.1-12.4-1.1-19.5 0-7.2 0.3-14.6 0.6-16.5 0.4-2 1.1-5.8 1.6-8.5 0.6-2.8 2.2-8.6 3.6-13 1.4-4.4 3.8-10.7 5.4-14 1.5-3.3 2.7-6.2 2.5-6.4-0.1-0.3-2.1 3.4-4.4 8.2zm220.9 70.7c-0.7 4.6-2.8 13.2-4.7 19-1.9 5.7-5.1 13.4-7.1 17-1.9 3.5-4.7 8.3-6.2 10.5-1.4 2.2-2.9 4.1-3.3 4.2-0.5 0.1-0.6 0.7-0.3 1.3 0.3 0.5-0.5 1.5-1.7 2.2-1.3 0.6-2.6 1.1-3 1-0.5-0.1-0.6 0.3-0.3 1 0.3 0.7-2.9 4.6-7 8.8-4.1 4.1-7.5 7.9-7.5 8.5 0 0.5 1.6-0.8 3.5-3 2-2.2 3.6-3.6 3.6-3 0.1 0.5 0.1 1.3 0 1.7 0 0.4 0 0.8 0.2 0.8 0.1 0 1.6-1.5 3.2-3.3 1.8-2 2-2.4 0.5-1-1.4 1.3-2.7 2-3 1.7-0.3-0.2 2-3.1 5-6.2 3.1-3.2 7.4-8.4 9.7-11.7 2.2-3.3 6-9.9 8.3-14.5 2.4-4.7 5.3-11.5 6.5-15 1.2-3.6 3-10.4 3.9-15 1-4.7 1.6-9.7 1.4-11-0.2-1.4-0.9 1.3-1.7 6zm-43.1 73.6c-0.3 0.5-3.1 2.7-6.2 4.9-3.2 2.2-5.6 4.1-5.3 4.2 0.3 0.1 2-0.6 3.8-1.7 1.7-1.1 4.6-3.1 6.2-4.5 1.7-1.3 2.8-2.7 2.5-3.1-0.3-0.3-0.8-0.2-1 0.2zm-140.9 2.2c0.8 1.2 4.1 4 7.4 6.1 3.3 2.1 8.3 4.9 11 6.3 2.8 1.4 8.4 3.7 12.5 5.1 4.1 1.4 11.1 3.2 15.5 4 4.4 0.9 11.8 1.8 16.5 2.1 7.2 0.4 7.7 0.3 3-0.4-3-0.5-9.3-1.4-14-2-4.7-0.6-13.7-2.8-20-5-6.8-2.3-14.9-6-20-9-4.7-2.9-9.6-6.2-10.9-7.4l-2.4-2.1zm124.4 8.9c-1.6 0.9-6.9 3.3-11.7 5.4-4.8 2.1-13.3 4.8-18.8 5.9-5.5 1.1-11.9 2-14.2 2-2.4 0.1-5.2 0.5-6.3 1-1.3 0.6 0.2 0.8 4.5 0.4 3.6-0.3 10.3-1.2 15-2.1 4.7-0.8 11.7-2.7 15.5-4.1 3.9-1.4 9.6-3.8 12.8-5.4 3.1-1.5 5.9-3.3 6.2-3.8 0.2-0.6 0.3-1 0.2-1-0.1 0-1.5 0.8-3.2 1.7zm-475.2 5.5q-0.8 1.2 0.5 0.5c0.7-0.4 1.2-0.4 1.2 0 0 0.4-1.5 2.3-3.5 4.3-1.9 1.9-3.5 3.8-3.5 4.2 0 0.4-1 1.6-2.2 2.7-1.3 1.1-2.7 2-3.3 2-0.5 0.1 0.4-1.4 2-3.2 1.6-1.8 0.6-1-2.3 1.8-2.8 2.7-5.2 5.2-5.2 5.5-0.1 0.2 0.6-0.2 1.5-1 1.4-1.4 1.6-1.4 1.6 0.2-0.1 1-0.6 1.7-1.3 1.7-0.7 0-3 1.8-5 4-2.1 2.2-3.8 3.8-3.8 3.6 0-0.3-3 1.8-6.7 4.6-3.7 2.8-7 5.4-7.3 5.7-0.3 0.4-1.6 1.3-3 2.1-1.4 0.8-6.5 3.7-11.5 6.4-4.9 2.8-13.7 7-19.5 9.4-5.8 2.4-14.3 5.5-19 6.8-4.7 1.4-13 3.4-18.5 4.5-6.4 1.3-16.1 2.3-27 2.6-11 0.4-20.5 0.2-27-0.6-5.5-0.6-14.3-2.1-19.5-3.2-5.2-1.1-13.8-3.3-19-5.1-5.2-1.7-12.9-4.6-17-6.4-4.1-1.8-7.7-3.1-8-2.8-0.3 0.2 3 2 7.3 4 4.2 1.9 8.2 3.5 8.7 3.5 0.6 0 1.8 0.4 2.8 0.9 0.9 0.6 5.5 2.1 10.2 3.5 4.7 1.3 11.9 3.1 16 3.9 4.1 0.9 11.3 2.1 16 2.7 5.6 0.8 15.2 1 27.5 0.7 10.8-0.3 22.7-1.2 27.5-2.2 4.7-0.8 12.6-2.7 17.5-4 5-1.3 13.1-4 18-5.9 5-1.8 12.8-5.3 17.5-7.6 4.7-2.4 11-5.9 14-7.8 3-1.9 8.8-5.9 12.8-8.9 4.4-3.2 7.7-5 8.5-4.6 0.7 0.5 0.9 0.4 0.5-0.2-0.4-0.6 4-5.4 9.8-10.8 5.7-5.4 10.4-10.4 10.4-11.2 0-0.9 0.7-1.8 1.5-2 0.8-0.3 2-1.4 2.5-2.5 0.8-1.6 0.7-2.1-0.5-2.5-0.8-0.2-1.8 0.1-2.2 0.7zm-284 7.2c2 2 3.4 3.6 3 3.7-0.4 0-1.2 0-1.8-0.1-0.5-0.2-0.4 0.5 0.3 1.4 0.7 0.8 2 1.4 3 1.2 1-0.1 3.8 2 7.2 5.5 3 3.2 5.9 5.8 6.3 5.8 0.4 0 1.7 1.3 3 2.8 1.2 1.5 2.1 3.1 2 3.5-0.2 0.4 0.2 0.5 0.7 0.3 0.6-0.3 1.9 0.2 3.1 1.2 1.1 1 2 1.3 1.9 0.8 0-0.6 1.2 0.2 2.7 1.8 1.6 1.6 3.6 3.3 4.6 3.8 0.9 0.5 1.7 0.5 1.7 0.1 0.1-0.4-2-2.2-4.5-4-2.9-2.1-4.2-3.7-3.7-4.5q0.7-1.2-0.5-0.5c-0.7 0.4-2 0.3-2.8-0.2-0.8-0.6-1.3-1.5-1-2 0.3-0.6 0-0.8-0.7-0.5-0.7 0.3-4.2-2-7.7-5.2-3.5-3.2-9.1-8.7-12.5-12.1-3.3-3.5-6.5-6.3-7.1-6.3-0.5 0 0.7 1.6 2.8 3.5zm703.7 31.6c0 17.3 0.4 27 1 27 0.7 0 1-9.7 1-27 0-17.4-0.3-27-1-27-0.6 0-1 9.6-1 27zm-664.9 0.9c0 0.6 3.1 2.9 6.9 5.1 3.9 2.2 7.7 4 8.5 4 0.8 0 1.7 0.5 1.9 1.2 0.4 1 0.5 1 0.5 0 0.1-0.7-1.1-1.8-2.6-2.4-1.5-0.7-5-2.7-7.8-4.4-2.7-1.7-5.5-3.4-6.1-3.8-0.7-0.4-1.2-0.3-1.3 0.3zm689.1 51.9c0.2 4 0.5 7.5 0.8 7.7 0.3 0.1 0.4-3 0.3-6.9-0.1-3.9-0.5-7.4-0.8-7.6-0.4-0.3-0.5 2.8-0.3 6.8zm-110.5 4.4c-1.3 0.9-1.7 2.3-1.5 4.7 0.3 3.3 0.6 3.6 5.6 5 3.6 1.1 5.8 2.4 6.8 4.1l1.5 2.5c-0.5-4.7-1.5-5.3-6.8-7-6-2-6.3-2.2-6.3-5.3 0-2.6 0.5-3.3 2.3-3.7 1.2-0.3 3.1-0.7 4.2-0.9 1.3-0.3 0.9-0.5-1-0.5-1.7-0.1-3.8 0.4-4.8 1.1zm65.4 9.5c0 6.9 0.3 11.3 0.9 11.3 0.6 0 0.9-3.4 0.8-8.5-0.2-5.2 0.1-8.5 0.7-8.6 0.6 0 0.5-0.3-0.1-0.7-0.6-0.4-1.4-1.6-1.6-2.7-0.3-1.1-0.6 3-0.7 9.2zm58.3 0.3c0 6.3 0.2 8.8 0.4 5.5 0.2-3.3 0.2-8.5 0-11.5-0.2-3.1-0.4-0.4-0.4 6zm-45-9.1c-0.5 0.7-0.3 1 0.6 0.8 1.2-0.2 1.6 1.7 2.1 9.8l0.5 10c0.8-17.6 0.6-19.5-0.7-20.5-1.1-0.8-1.8-0.8-2.5-0.1zm56.7 9.3c0 6.6 0.3 10.8 0.9 10.8 0.6 0 0.9-3.4 0.8-8.5-0.2-4.7 0.1-8.5 0.5-8.5 0.4 0 0.7-0.5 0.7-1 0-0.6-0.4-0.8-1-0.5-0.5 0.2-1.2-0.3-1.4-1.3-0.2-1-0.4 3.1-0.5 9zm29.1-9c-0.7 0.7-1.1 3-0.9 5.2 0.1 2.1 0.7 4 1.2 4.1 0.6 0.1 0.7 0 0.3-0.2-0.4-0.2-0.8-1.8-0.8-3.6 0-1.8 0.6-3.8 1.3-4.5 0.6-0.7 1-1.5 0.6-1.7-0.3-0.3-1.1 0-1.7 0.7zm-141.4 9.1c0.2 4.5 0.5 8.7 0.8 9.4 0.2 0.7 1.9 1.2 3.7 1.1l3.2-0.1c-6-1.3-6-1.3-6.3-9.2-0.1-4.4-0.6-8.4-1-8.7-0.4-0.4-0.5 2.9-0.4 7.5zm127.6-6.1c0.3 1.2 0.6 5.5 0.6 9.5 0 4 0.4 7.3 0.8 7.3 0.4-0.1 0.6-1.1 0.6-2.3-0.1-1.2-0.3-5.5-0.3-9.5-0.1-4.7-0.5-7.2-1.2-7.2-0.8 0-0.9 0.8-0.5 2.2zm-97.7 7.6c0.2 4.8 0.5 8.9 0.8 9.2 0.3 0.2 0.6-3.5 0.6-8.2 0.1-4.8-0.3-8.9-0.7-9.2-0.5-0.2-0.8 3.4-0.7 8.2zm60.3 39.4c0 1.8 0.6 3.8 1.3 4.5 1 1 1 1.3 0 1.3-1 0-1.2 2.2-1 8.7 0.1 4.8 0.6 9.3 1 10 0.4 0.7 2.2 1.2 4 1.1 2.7-0.1 2.8-0.2 0.7-0.6-1.4-0.2-2.8-1-3.2-1.6-0.4-0.6-0.8-4.9-0.8-9.4v-8.2l6.5-0.3c-5.6-1.2-6-1.7-6.2-5-0.2-2.1-0.7-3.7-1.3-3.7-0.5 0-1 1.4-1 3.2zm-24.9 5.2c-1.3 0.9-2.3 2.1-2.2 2.6 0.1 0.5 1 0 2.1-1.1 1.4-1.6 2.8-2 5.2-1.7 1.8 0.3 4.2 0.8 5.3 1.3 1.5 0.5 1.8 0.4 1-0.4-0.5-0.7-2.8-1.4-5-1.7-2.8-0.4-4.7-0.1-6.4 1zm57.4-0.3c-1.1 0.5-2.5 1.8-3.2 2.9-0.7 1.1-1.6 4-2 6.5-0.6 3.3-0.5 4.5 0.5 4.5 0.8 0 1.2-1.6 1.2-4.3 0.1-2.5 0.8-5.2 1.8-6.5 0.9-1.2 3.5-2.6 5.7-3.1 3.6-0.8 3.7-0.9 1-1-1.6 0-3.9 0.4-5 1zm34.5-0.2c1.5 0.4 2.4 1.3 2.2 2.1-0.3 1.2-0.1 1.2 1.3 0 1.5-1.4 1.8-1.4 2.6 0q0.9 1.4 0.9 0.2c0-0.7-0.9-1.7-2-2.2-1.1-0.6-3.2-1-4.7-0.9l-2.8 0.1zm-189.6 10.5c0 6.1 0.2 8.3 0.4 5 0.2-3.3 0.2-8.2 0-11-0.2-2.7-0.4 0-0.4 6zm65.9 0c-0.2 6.5 0.1 10.5 0.7 10.5 0.6 0 1-4.1 1-10.5 0-5.8-0.3-10.5-0.7-10.5-0.4 0-0.9 4.8-1 10.5zm72.8 0c0 6.4 0.3 10.5 0.9 10.5 0.6 0 1-4.1 1-10.5 0-5.8-0.4-10.5-0.9-10.5-0.5 0-0.9 4.7-1 10.5zm-58.7 0.5l0.1 9.5c5.8 0.3 6.1 0.2 4.3-0.1-1.9-0.3-2.9-1.1-3.3-2.6-0.2-1.3-0.6-5.4-0.8-9.3-0.2-4.4-0.3-3.4-0.3 2.5zm29.4-1.7c0.2 3.4 0.4 7.6 0.6 9.2 0.2 1.7 0.4-1.1 0.5-6.2 0-5.1-0.2-9.3-0.6-9.3-0.4 0-0.7 2.8-0.5 6.3zm59.4-2c0.8 2.3 0.8 4.2 0 6.7-0.6 1.9-0.9 3.7-0.7 4 0.2 0.3 0.9-1.3 1.6-3.5 0.6-2.2 0.9-5.4 0.7-7.2-0.3-1.8-0.9-3.3-1.5-3.3-0.8 0-0.8 0.9-0.1 3.3zm26.8 5.2c0 5 0.4 8.5 1 8.5 0.6 0 1-3.5 1-8.5 0-5-0.4-8.5-1-8.5-0.6 0-1 3.5-1 8.5zm-167.2 1c-0.1 4.1 0.1 7.5 0.5 7.5 0.4 0 0.7-3.4 0.7-7.5 0-4.1-0.2-7.5-0.4-7.5-0.2 0-0.6 3.4-0.8 7.5zm152 0c-0.1 4.1 0.1 7.5 0.5 7.5 0.4 0 0.7-3.4 0.7-7.5 0-4.1-0.2-7.5-0.4-7.5-0.2 0-0.6 3.4-0.8 7.5zm-167.4 0.5c0 4.1 0.1 5.9 0.3 4 0.3-1.9 0.3-5.3 0-7.5-0.2-2.2-0.3-0.6-0.3 3.5zm138.5 2.8c0.6 1.2 2.8 2.9 4.9 3.8 2 0.8 3.9 1.3 4.2 1 0.3-0.2-0.6-0.8-2-1.1-1.4-0.4-3.8-1.9-5.4-3.3-2.6-2.5-2.8-2.5-1.7-0.4zm-55.9 49.7c0 15.7 0.4 24.5 1 24.5 0.7 0 1-8.8 1-24.5 0-15.6-0.3-24.5-1-24.5-0.6 0-1 8.9-1 24.5zm-143.4 51c-0.3 1.1-0.5 3.6-0.4 5.5 0.1 3.2 0.2 3.1 0.7-1l0.6-4.5 15-1c-14.7-0.9-15.4-0.8-15.9 1zm205.4-1c-1.4 0.7-2.3 1.5-2.1 1.7 0.3 0.2-0.1 1.4-0.8 2.8-1.1 2.4-1.1 2.4 0.3 0.5 0.9-1.1 1.3-2.3 1.1-2.7-0.3-0.4 0.8-1.3 2.5-1.9 1.6-0.6 4-0.9 5.2-0.6 1.3 0.2 3.2 0.8 4.3 1.2q2 0.6-0.5-0.9c-1.4-0.8-3.6-1.5-5-1.5-1.4 0-3.6 0.6-5 1.4zm26.4 0.3c-1.2 0.9-2.7 2.8-3.4 4.2-0.8 1.8-0.3 1.4 1.9-1.2 1.8-2.1 4.2-3.8 5.9-4.1 2.6-0.4 2.6-0.4 0.2-0.5-1.4-0.1-3.4 0.6-4.6 1.6zm9.6 1.7c2.2 2.4 2.6 3.8 2.9 11.4 0.4 7.9 0.2 8.9-2 11.9-1.9 2.6-3.1 3.3-5.9 3.2-1.9 0-4-0.3-4.6-0.7-0.6-0.4-1.6-1.8-2.2-3-0.7-1.3-1.2-5.1-1.3-8.5 0-3.5-0.4-7-0.9-7.8-0.7-1-1-0.3-1 2.5 0 2.2 0.3 6.2 0.8 8.9 0.4 2.9 1.6 5.9 3 7.3 1.5 1.6 3.4 2.3 6 2.3 2.6 0.1 4.4-0.6 6-2.2 1.3-1.3 2.7-4.3 3.2-6.8 0.5-2.5 0.6-6.7 0.3-9.5-0.2-2.7-1.1-6.1-1.7-7.5-0.7-1.4-2.2-2.8-3.2-3.3-1.5-0.6-1.3-0.2 0.6 1.8zm25.3-1.5c0.2 0.8 0.9 3.4 1.6 5.8 0.6 2.3 1.3 4.2 1.6 4.2 0.3 0 0.4-1.5 0.3-3.4-0.2-1.9-0.7-3.1-1.3-2.7-0.6 0.4-0.7-0.1-0.2-1.1 0.4-1.1 0.2-2.3-0.8-3-1.2-1.1-1.4-1-1.2 0.2zm18.2-0.3c1.7 0.3 4.8 0.3 7 0 2.2-0.2 0.9-0.3-3-0.4-3.8 0-5.6 0.2-4 0.4zm-244.6 14c-2.4 7-4.5 13.4-4.6 14.1-0.2 0.7 0.2 1.2 0.7 1.2 0.6 0 0.8-0.7 0.5-1.5-0.3-0.8 0-1.5 0.5-1.5 0.6 0 0.8-0.4 0.5-1-0.3-0.5 0-1 0.5-1 0.6 0 1-0.5 0.9-1.2-0.1-0.7-0.1-2.2 0-3.3 0.1-1.6 0.3-1.7 1.4-0.7 0.7 0.7 3.7 1.2 7.5 1.2 3.4 0 6.4-0.3 6.6-0.7 0.3-0.4-2.6-0.6-6.2-0.5-3.7 0.2-7 0-7.5-0.5-0.4-0.4 0.4-3.9 1.8-7.8 1.4-3.8 2.4-7.6 2.2-8.3-0.3-0.7-2.4 4.4-4.8 11.5zm10.4-11.2c0.4 1.1 0.9 3.3 1.2 4.8 0.3 1.5 1 2.7 1.5 2.7 0.6 0 0.8 0.5 0.5 1-0.3 0.6 0.1 1.4 0.7 1.8 0.9 0.5 1.1 0.1 0.6-1.3-0.4-1.1-1.2-3.6-2-5.6-0.7-2-1.7-4.1-2.2-4.5-0.5-0.5-0.6 0-0.3 1.1zm125.2 1.7c0 2.6-0.4 3.3-2.5 3.8l-2.5 0.7c4.7 0.7 5.5 0.3 5.9-1.2 0.3-1.1 0.6-3 0.6-4.2 0-1.3-0.3-2.3-0.8-2.3-0.4 0-0.8 1.5-0.7 3.2zm41.2-1.4c-0.4 0.7-0.2 1.4 0.3 1.7 0.7 0.3 0.6 1.3-0.1 2.8-0.6 1.2-0.7 2.6-0.2 3 0.4 0.4 1.2-0.6 1.6-2.3 0.4-1.6 0.3-3.8-0.1-4.7-0.7-1.3-1.1-1.4-1.5-0.5zm-147.3 13.5c0 4.8 0.3 8.7 0.6 8.7 0.3 0 0.4-3.2 0.2-7.2-0.1-4-0.4-8-0.6-8.8-0.2-0.8-0.3 2.5-0.2 7.3zm15.4-0.4c-0.1 4.4 0 9.2 0.3 10.8 0.3 1.5 0.7-2 0.8-7.9 0.1-5.9-0.1-10.8-0.3-10.8-0.2 0-0.6 3.6-0.8 7.9zm39.4 1.4c0.1 6.1 0.6 9.6 1.5 10.5 0.7 0.7 1.7 1.2 2.1 1.2 0.4 0.1 0.4-0.3 0-0.7-0.4-0.4-0.2-1.4 0.5-2.2 1-1.2 1-1.3 0-0.8-0.8 0.4-1.6-0.1-2-1.2-0.4-1.1-0.7-5.1-0.7-9 0.1-3.9-0.3-7.1-0.8-7.1-0.5 0-0.7 4.2-0.6 9.3zm15.6-1.4c-0.1 4.4 0 9.2 0.4 10.8 0.3 1.5 0.6-2 0.7-7.9 0.1-5.9-0.1-10.8-0.3-10.8-0.2 0-0.6 3.6-0.8 7.9zm11.6-5.1c-0.4 0.9-0.3 2.7 0 4 0.4 1.5 1.8 2.6 4.4 3.3 2 0.6 3.9 0.8 4.2 0.6 0.3-0.3-0.8-0.8-2.5-1.1-1.6-0.3-3.5-1.2-4.2-2.1-0.7-0.8-1.1-2.6-1-4 0.2-1.4 0.2-2.5 0-2.5-0.2 0-0.6 0.8-0.9 1.8zm-145.9-0.3c0.6 0.2 2.2 0.6 3.6 1 1.4 0.3 2.7 1 2.9 1.6 0.2 0.6-0.2 0.7-1.1 0.2-0.9-0.5-1.2-0.4-0.6 0.5 0.4 0.7 1.2 1 1.7 0.7 0.6-0.3 1.5 0.4 2 1.5 0.6 1.1 1 2.8 1 3.8 0 0.9-0.5 3-1.2 4.5-0.8 1.7-2.5 3.1-4.3 3.7-2.1 0.6-2.4 0.9-1 0.9 1.1 0.1 3-0.5 4.3-1.4 1.2-0.8 2-1.9 1.7-2.5-0.3-0.5 0-1 0.5-1 0.6 0 1-2 1-4.5 0-3.4-0.6-5.1-2.5-7-1.7-1.7-3.5-2.5-5.7-2.4-1.8 0-2.8 0.2-2.3 0.4zm281 0c0.6 0.2 2.3 0.6 3.8 0.9 1.7 0.4 3.3 1.7 4.2 3.6 0.8 1.7 1.5 3.9 1.5 5 0 1.1-0.7 3.4-1.5 5-0.8 1.7-1.3 3-1 3 0.3 0 1.2-1.3 2-3 0.8-1.6 1.5-4.3 1.5-6 0-1.6-0.3-3.7-0.7-4.6-0.4-0.9-2-2.3-3.5-3-1.5-0.8-3.8-1.3-5-1.3-1.3 0-1.8 0.2-1.3 0.4zm-110.6 1.3c-0.1 0.4-0.2 3.5-0.3 7 0 3.4 0.3 6.2 0.7 6.2 0.4 0 0.7-3.1 0.7-7 0-3.8-0.2-7-0.5-7-0.3 0-0.5 0.4-0.6 0.8zm103.3 11.9c-0.1 0.5 0.4 1.6 1.1 2.6 0.7 0.9 1.6 1.4 2 1 0.4-0.4 0.8-0.2 0.7 0.5 0 0.7 1 1.2 2.3 1.1 2.1 0 2.1-0.1 0.2-0.8-1.1-0.4-2-1.4-2-2.2 0-0.8-0.4-1.4-1-1.4-0.5 0-1.5-0.4-2.1-0.8-0.7-0.4-1.2-0.4-1.2 0zm-78.2 4.6c0 0.4 4.2 0.6 9.3 0.6 5.1-0.1 7.9-0.3 6.2-0.5-1.6-0.2-5.8-0.4-9.2-0.6-3.5-0.2-6.3 0.1-6.3 0.5zm-103.1 1.5c-1.1 1.5-1.1 1.5 0.1 0.5 0.8-0.7 3.8-1.3 6.7-1.3 2.9 0 6 0.2 6.8 0.5 0.8 0.3 1.5 1.2 1.5 2 0 0.8 0.5 1.5 1 1.5 0.6 0 1-0.4 1-1 0-0.5-1-1.7-2.2-2.5-1.4-0.9-4.5-1.5-7.9-1.5-4.2 0-6 0.5-7 1.8zm159.1-1c2.5 0.2 6.8 0.2 9.5 0 2.8-0.3 0.7-0.4-4.5-0.4-5.2 0-7.5 0.1-5 0.4zm-120.7 186.9c-1.7 3.2-3.6 5.7-4.2 5.6-0.6-0.2-0.9 0.3-0.6 1 0.3 0.7-1.5 4.7-4 9-2.5 4.2-4.9 7.5-5.5 7.2-0.5-0.3-0.9 0.1-0.7 0.8 0.1 0.8-2.2 1.4-7.8 1.8-4.4 0.3-8.9 1.1-10 1.8l-2 1.3c3.1-1.1 8.1-1.6 13-1.8 5.8-0.2 7.9 0 6 0.5-2.2 0.6-1.1 0.8 4.5 0.8 5.3 0 6.5-0.2 4-0.6-1.9-0.4-4-1-4.7-1.4-1-0.5-0.6-1.8 1.3-4.9 1.4-2.4 4.3-7.4 6.5-11.3 2.2-3.8 4.4-7.7 4.8-8.5 0.4-0.8 1.3-2.5 2-3.7 0.6-1.3 1-2.5 0.8-2.8-0.2-0.4-1.7 2-3.4 5.2zm3.2 32.3c-2.2 1-3.6 1.9-3.2 1.9 0.4 0.1 2.4-0.6 4.5-1.4 2-0.9 5.6-1.4 7.9-1.3 3.1 0.2 3.9 0.6 3.2 1.6q-0.9 1.2 0.6 1.7c0.8 0.3 1.3 0.1 1-0.5-0.3-0.5 0.1-1.3 0.8-1.7 0.7-0.4 3.9-0.9 7.2-1.3 4.7-0.5 3.4-0.6-6-0.7-9.7-0.1-12.7 0.2-16 1.7z"/><path class="d" d="m311.4 282.5c0 5.5 0.1 7.5 0.3 4.5 0.2-3 0.2-7.5 0-10-0.2-2.5-0.3 0-0.3 5.5zm374.9 0.5c0 4.7 0.2 6.5 0.4 4 0.2-2.5 0.2-6.3 0-8.5-0.2-2.2-0.4-0.2-0.4 4.5z"/><path class="a" d="m998.2 370c-0.5 1.4-1.2 3.5-1.6 4.8-0.5 1.9-0.2 2.2 2.4 2.2 1.6 0 3-0.1 3-0.3 0-0.1-0.7-2.2-1.4-4.7-1.3-4.3-1.4-4.4-2.4-2z"/><path class="b" d="m1011.3 249c-5.2 14.7-5.3 15-3 15 1.7 0 2.5-0.8 3.5-4l1.2-4h13c2.2 7.2 3 8 4.8 8 1.2 0 2.2-0.3 2.2-0.8 0-0.4-2.2-7-4.9-14.7l-4.9-14-6.7-0.6zm79.8 0.1v15h5v-30h-5zm-52.1 9.2c0 14.5 0.1 15.3 2 15.5 1.9 0.2 2-0.2 1.8-5.7-0.2-4.1 0.2-6.2 1-6.5 0.7-0.3 1.1 0 1 0.6-0.1 0.7 0.9 1.7 2.3 2.2 1.8 0.7 3.4 0.5 6-0.7 1.9-0.8 4-2.7 4.7-4.1 0.7-1.4 1.3-4.1 1.3-6 0-2-0.7-4.8-1.4-6.3-0.8-1.5-2.1-3.1-3-3.5-0.9-0.4-3.2-0.7-5.1-0.7-2 0-4.5 0.8-5.6 1.7-1.9 1.7-2 1.7-2 0 0-0.9-0.6-1.7-1.4-1.7-1.3 0-1.6 2.3-1.6 15.2zm26.1 0c0 14.6 0 15.3 2 15.3 1.7 0 2-0.7 2-5.8v-5.7c5.3 2.6 6.7 2.7 9.4 1.9 1.8-0.6 4.1-2.1 5-3.3 1-1.3 1.6-4.1 1.6-7.4 0-4.2-0.5-5.7-2.5-7.7-1.9-1.9-3.6-2.5-6.5-2.5-2.1 0-4.6 0.6-5.4 1.5-0.8 0.8-1.8 1.5-2.1 1.5-0.3 0-0.3-0.7 0-1.5q0.5-1.5-1.5-1.5c-2 0-2 0.6-2 15.2zm39.3-12.8c-2.5 2.1-2.8 3.1-2.8 8 0 4.7 0.4 5.9 2.7 8.3 2.3 2.3 3.6 2.7 7.5 2.6 3.7-0.1 5.1-0.6 6.5-2.5 1-1.3 1.8-2.7 1.8-3.1 0-0.4-1-0.7-2-0.7-1.1 0-2.3 0.6-2.5 1.5-0.4 0.9-1.8 1.5-4 1.5-2.7 0-4-0.7-5.3-2.6-1-1.3-1.5-2.8-1.1-3.1 0.3-0.3 3.8-0.5 7.7-0.5l7.2 0.2c0-5.9-0.8-7.8-2.5-9.5-1.9-1.9-3.6-2.5-6.5-2.5-2.7 0-4.8 0.7-6.7 2.4zm-719.8 12.1c-2.2 0.8-5.3 2.7-6.9 4.2-1.6 1.5-3.8 4.6-4.9 6.8-1.6 3-2.1 5.8-2.1 11.5 0 5.7 0.5 8.4 2.2 11.7 1.2 2.4 2.6 4 3.2 3.8 0.5-0.3 0.7 0.1 0.5 1-0.4 1 0.9 2.3 3.7 3.9 2.3 1.4 6.1 2.8 8.3 3.1 2.3 0.4 6.3 0.2 9.5-0.6 4.1-1 6.5-2.3 9.5-5.4 2.2-2.2 4.4-5 4.8-6.3 0.3-1.2 0.3-2.4-0.1-2.6-0.4-0.2-2-0.6-3.5-1-2.3-0.5-2.8-0.3-3.2 1.6-0.2 1.3-2 3.7-4 5.5-3.1 2.9-4.2 3.3-9 3.3-4.9 0-6-0.4-9.3-3.4-2.1-1.9-4.3-5.1-5-7.2-0.7-2.2-1.2-5.7-1.2-7.9-0.1-2.3 1-6.3 2.4-9.3 2-4.1 3.5-5.7 6.8-7.3 3.3-1.6 5.2-1.9 8.3-1.3 2.2 0.4 5 1.7 6.4 2.8 1.3 1.2 3.1 3.7 4 5.7 1.5 3.4 1.7 3.5 4.8 2.7l3.3-0.8c-2-5.8-4-9-5.8-10.8-1.8-1.8-4.9-3.7-7-4.2-2.1-0.6-5.6-1-7.7-1-2.2 0-5.9 0.7-8 1.5zm213.6 0c-0.8 1-0.8 2.1-0.1 3.5 0.6 1.2 1.8 1.9 3.1 1.7 1.2-0.1 2.6-0.9 3.1-1.7 0.6-0.9 0.8-2.3 0.4-3.3-0.4-1-1.7-1.7-3-1.7-1.4 0-2.9 0.6-3.5 1.5zm-107.1 22.5v23h6.5v-46h-6.5zm85-14c0 4.6-0.2 5-2.5 5-2 0-2.5 0.5-2.5 2.5 0 2 0.5 2.5 2.5 2.5h2.5c-0.1 20 0.2 21.8 1.9 24.2 1.1 1.5 3.3 3 4.8 3.3 1.5 0.3 4 0.3 5.5 0 2.1-0.4 2.8-1.1 2.8-3 0-2.2-0.5-2.5-3.3-2.5-1.8 0-3.8-0.6-4.5-1.3-0.9-0.8-1.3-4.4-1.3-11l0.1-9.7c7.6 0 8-0.3 8-2.5 0-2.3-0.4-2.5-4-2.5h-4c0-9.9-0.1-10-3-10-3 0-3 0.1-3 5zm-151 5.6c-1.4 1-3 2.4-3.5 3.3-0.6 0.9-1.4 2.6-1.8 3.8-0.7 2-0.4 2.3 2 2.3 2 0 3.1-0.7 4-2.5 0.7-1.4 2.3-2.8 3.5-3.1 1.2-0.3 3.4-0.4 4.7-0.3 1.4 0.2 3.1 1.5 4 3.1q1.6 2.7 0.6 3.7c-0.6 0.6-4.2 1.8-8 2.7-4.5 1.1-7.9 2.5-9.3 4-1.5 1.5-2.2 3.6-2.2 5.9 0 1.9 0.4 4.4 1 5.5 0.5 1.1 2.6 2.5 4.7 3.1 2.7 0.8 4.7 0.8 7.3 0 1.9-0.5 4.1-1.7 5-2.6 0.8-0.9 1.8-1.6 2.2-1.6 0.4 0 0.5 1 0.3 2.1-0.5 1.6 0 2 2.5 2h3c-0.1-21-0.4-24.3-1.8-27-1-1.9-2.9-4.1-4.2-4.8-1.4-0.6-4.6-1.2-7-1.2-2.7 0-5.6 0.7-7 1.6zm34.9 0.6c-1.9 1.3-4.2 3.9-5.2 5.8-1 1.9-1.7 5.6-1.7 8.2 0 2.6 0.6 6.3 1.5 8.3 0.8 1.9 1.9 3.2 2.5 3 0.5-0.3 0.7 0.1 0.5 1-0.4 0.9 0.6 2.1 2.7 3.2 1.9 1 5.5 1.7 8.8 1.7 3.8 0 6.3-0.6 8.3-2 1.6-1 3.5-3.2 4.3-4.7 1.3-2.6 1.2-2.7-1.4-3.1-2-0.3-3.3 0.3-4.7 2-1.2 1.4-3.6 2.7-5.5 3-3 0.5-4.1 0.2-6.8-2.3-1.7-1.5-3.4-4.1-3.7-5.6l-0.5-2.7h24.5c-1.3-7.4-2.3-10.5-3.1-11.8-0.8-1.2-2.9-3.1-4.7-4.2-2-1.3-5-2-7.8-2-3.1 0-5.7 0.7-8 2.2zm53 0c-1.9 1.3-4.2 3.9-5.2 5.8-1 2-1.7 5.7-1.7 8.7 0 3.3 0.7 6.8 2 9.3 1.4 3 3.1 4.5 6.7 6.1 3.5 1.6 5.8 2 8.5 1.5 2.1-0.3 5-1.3 6.5-2 1.5-0.8 3.3-2.7 4-4.3 0.7-1.5 1.2-2.9 1-2.9-0.1-0.1-1.5-0.4-3-0.8-2.1-0.5-2.7-0.3-2.7 0.9 0 0.8-1.4 2.1-3 3-1.7 0.8-3.7 1.5-4.5 1.5-0.9 0-2.8-0.7-4.3-1.4-1.5-0.8-3.3-2.6-4-4-0.7-1.5-1.2-3.3-1.2-4.1 0-1.3 1.9-1.5 11.5-1.5h11.5c0-6.2-0.7-9.4-1.5-11-0.9-1.7-3-3.9-4.8-5-2-1.3-5-2-7.8-2-3.1 0-5.7 0.7-8 2.2zm32.9 0.6c-2.5 2.2-3.3 3.8-3.3 6.4 0 2.2 0.7 4.4 2 5.7 1.1 1.2 3.7 2.7 6 3.2 2.2 0.6 5.2 1.6 6.7 2.2 1.6 0.7 3 1.7 3.3 2.4 0.2 0.7 0 2.2-0.5 3.3-0.6 1.1-2.1 2.2-3.3 2.6-1.2 0.3-3.5 0.3-5 0-1.5-0.4-3.3-1.5-4-2.6-1.1-1.7-1.7-1.9-4-1-2.7 1-2.7 1-1 3.5 1 1.4 3.5 3.3 5.8 4.1 2.7 1.1 5.3 1.3 8.5 0.8 2.7-0.4 5.3-1.6 6.7-3.1 1.2-1.3 2.5-3.6 2.8-5.1 0.4-1.5 0.2-3.9-0.4-5.2-0.6-1.4-2.1-3.1-3.4-3.7-1.2-0.7-4.3-1.8-6.7-2.4-2.5-0.6-5.1-1.6-5.8-2.3-0.8-0.6-1.3-2-1.3-3.1 0-1.2 1.1-2.6 2.5-3.3 1.8-0.9 3.3-0.9 5.1-0.2 1.3 0.5 2.7 1.6 3 2.5 0.2 0.9 1.7 1.5 3.5 1.5 1.7 0 2.9-0.6 2.9-1.3 0-0.7-0.8-2.2-1.7-3.4-1-1.1-2.8-2.6-4-3.2-1.2-0.6-4.3-1.1-6.7-1.1-3.6 0-5.2 0.6-7.7 2.8zm72.5-1.4c-1.2 0.7-2.9 2.4-3.7 3.7-0.9 1.3-1.6 3.3-1.6 4.4-0.1 1.1 0.8 3.2 1.9 4.7 1.3 1.7 3.7 3.2 6.3 3.9 2.3 0.6 5.5 1.6 7 2.2 2.2 0.9 2.8 1.8 2.8 3.9 0 1.7-0.8 3.1-2 3.8-1.2 0.5-3.2 1-4.5 1-1.4 0-3.7-1.2-5-2.5-1.8-1.8-3.3-2.4-5-2-1.4 0.2-2.5 0.9-2.5 1.5 0 0.5 1.2 2.2 2.7 3.7 1.6 1.6 4.5 3.2 6.8 3.6 2.2 0.4 5.3 0.5 7 0.1 1.6-0.4 4-1.4 5.3-2.3 1.3-0.9 2.8-3.3 3.5-5.4 1-3.3 0.9-4-0.9-6.5-1.5-1.9-4.2-3.4-9-4.9-3.8-1.3-7.3-2.9-7.7-3.8-0.4-0.8-0.3-2.4 0.3-3.5 0.7-1.5 2-2 4.5-2 2.2 0 4.1 0.7 5.2 2 1 1.1 3 2 4.5 2 1.5 0 2.8-0.5 2.8-1 0-0.6-1.6-2.6-3.5-4.5-3.1-3.1-4.2-3.5-8.3-3.5-2.6 0-5.7 0.6-6.9 1.4zm-20.3 15.6v16h6v-32h-6zm463.8-3.8c-0.7 0.7-1.2 1.8-1.1 2.5 0.2 0.7 0.9 1.5 1.7 1.8 0.9 0.2 2 0.2 2.5 0 0.6-0.3 1-1.4 1-2.4 0-1.1-0.7-2.2-1.4-2.4-0.8-0.3-2-0.1-2.7 0.5zm-21.9 0.4c-0.8 0.4-2.5 1.6-3.7 2.7-1.4 1.3-2.3 3.3-2.3 5.2 0 1.6 0.8 4 1.8 5.2 0.9 1.2 4.7 3.2 8.2 4.5 5.8 2 6.6 2.6 6.8 5 0.2 2.1-0.4 3.2-2.5 4.4-1.5 0.9-3.4 1.4-4.3 1.1-0.8-0.3-2.4-0.8-3.5-1.2l-2-0.7c3.1 2.5 5.1 3.2 6.3 3.2 1.2 0 3.6-0.7 5.2-1.5 2.7-1.4 3-2 2.8-5.5-0.1-2.1-0.5-3.7-0.8-3.5-0.2 0.2-1.4-0.3-2.5-1.1-1-0.8-2.7-1.4-3.7-1.4-1 0-2-0.5-2.3-1-0.3-0.7 0.6-0.8 2.3-0.4 1.5 0.4 4 1.3 5.5 2 2.3 1.2 2.7 2 2.7 5.4 0 3.2-0.5 4.4-2.7 6.1-2.2 1.6-3.7 2-7.3 1.5-2.4-0.2-4.6-1-4.7-1.5-0.1-0.6-0.7-0.9-1.3-0.6-0.5 0.2-1.3-0.1-1.7-0.8q-0.7-1.2 0.5-0.5c0.7 0.4 1.5 0.3 1.7-0.2 0.3-0.6 0-1.9-0.7-2.9-0.7-1-2-1.7-3-1.5-1 0.2-1.8 0.6-1.8 0.9 0 0.2 0.6 1.5 1.2 2.7 0.6 1.3 2 3 3.2 4 1.4 1.1 3.9 1.7 6.9 1.7 2.6 0.1 5.9-0.5 7.2-1.2 1.4-0.7 3-2.2 3.5-3.5 0.6-1.2 1-3.4 1-4.7 0-1.5-1.1-3.6-2.7-5-1.5-1.4-4.9-3-7.5-3.5-3.2-0.7-5.3-1.8-6.5-3.6-1.6-2.3-1.6-2.6-0.1-4.5 1-1.2 2.8-1.9 5-2 1.9 0 4.1 0.7 5.1 1.8 0.9 1 1.7 2.3 1.7 3 0 0.8 0.9 1.1 2 0.8 1.1-0.3 2.1-1.3 2.1-2.3 0-0.9-1-2.8-2.3-4-1.5-1.5-3.8-2.5-6.8-2.7-2.4-0.3-5.1-0.2-6 0.1zm49.5 0.6c-0.4 0.7-0.1 1.9 0.7 2.6 0.7 0.8 1.9 1.1 2.6 0.8 0.7-0.4 1.2-1.5 1.2-2.6 0-1.4-0.6-2-1.9-2-1.1 0-2.2 0.5-2.6 1.2zm-10.5 10c-1.7 1.8-2 1.9-2 0.5 0-1.1-0.7-1.7-2-1.7-1.8 0-2 0.6-2 11 0 10.3 0.2 11 2 11 1.9 0 2.1-0.7 2.1-7.3 0-4 0.6-8 1.2-8.9 0.7-1 2.5-1.8 4-1.8 2.3 0 2.7-0.5 2.7-2.5 0-1.9-0.5-2.5-1.9-2.5-1.1 0-2.9 1-4.1 2.2zm-17.5 9.8c0 10.7 0.1 11 2.3 11 2.2 0 2.2-0.3 2.2-11 0-10.8 0-11-2.2-11-2.2 0-2.3 0.2-2.3 11zm28.5 0c0 10.3 0.2 11 2 11 1.9 0 2-0.7 2-11 0-10.4-0.1-11-2-11-1.8 0-2 0.6-2 11zm-92 35.5v10.5c11.7 0 13-0.4 13-1.5 0-1.2-1.2-1.5-5-1.5h-5c0-16.4-0.2-18-1.5-18-1.2 0-1.5 1.8-1.5 10.5zm109-7c0 1.5-0.7 2.7-1.7 3-1.6 0.6-1.6 0.7 0 1.8 1.2 0.8 1.7 2.6 1.7 6.4 0 4.5 0.4 5.4 2.3 6.4 1.2 0.5 2.8 0.8 3.5 0.5 0.7-0.4 1.2-1.1 1.2-1.6 0-0.6-0.9-1-2-1-1.7 0-2-0.7-2-5 0-4.4 0.3-5 2-5 1.2 0 2-0.7 2-1.5 0-0.9-0.8-1.5-2-1.5-1.4 0-2-0.7-2-2.5 0-1.6-0.5-2.5-1.5-2.5-0.9 0-1.5 0.9-1.5 2.5zm-92.5 10c0 6 0.4 7.5 1.5 7.5 1.3 0 1.5-1.5 1.5-7.5 0-6-0.3-7.5-1.5-7.5-1.2 0-1.5 1.5-1.5 7.5zm8.9-5.4c-1.1 1.3-1.9 3.6-1.9 6.1 0 2.8 0.6 4.4 2 5.4 1.1 0.8 3.2 1.7 4.5 2 1.7 0.4 3.4-0.1 5-1.4 1.9-1.4 2.6-3 2.8-6.1 0.2-3-0.3-4.7-1.8-6.1-1.2-1.2-3.3-2-5.3-2-2.1 0-4 0.7-5.3 2.1zm16.6 5.4c0 6 0.3 7.5 1.5 7.5 1.2 0 1.5-1.3 1.5-5 0-3.1 0.6-5.6 1.5-6.5 0.9-0.9 2.6-1.4 4-1.3 1.3 0.2 2.7 0.7 3.2 1.2 0.5 0.5 0.4 0.6-0.2 0.3-0.6-0.3-1 1.7-1 5.4 0 4 0.4 5.9 1.3 5.9 0.9 0 1.3-2 1.3-6.3 0-3.7-0.5-6.7-1.3-7.5-0.7-0.7-2.4-1.3-3.8-1.3-1.4 0.1-3.1 0.6-3.8 1.3-0.9 1-1.2 1-1.2 0 0-0.7-0.6-1.2-1.5-1.2-1.2 0-1.5 1.5-1.5 7.5zm19.1-6.3c-0.6 0.7-1 2.4-0.8 3.7 0.2 1.7 1.2 2.7 3.7 3.6 2 0.6 3.7 1.8 3.9 2.6 0.2 0.7-0.2 1.7-1 2.1-0.7 0.4-2.5 0-3.9-0.9-1.3-0.8-2.8-1.1-3.3-0.7-0.4 0.5 0.2 1.7 1.5 2.6 1.3 1 3 1.8 3.8 1.8 0.9 0 2.6-0.7 3.8-1.5 1.2-0.9 2.3-2.5 2.3-3.8 0-1.4-0.9-2.7-2.5-3.5-1.4-0.7-3.2-1.2-4.1-1.2-0.8 0-1.5-0.7-1.5-1.5 0-0.9 0.7-1.8 1.5-2 0.9-0.3 2.2-0.1 3 0.5 0.9 0.5 2.1 0.9 2.7 0.7 0.7-0.1 0.6-0.9-0.5-2-0.9-0.9-2.9-1.7-4.5-1.7-1.6 0-3.4 0.5-4.1 1.2zm15.5-0.1c-1.3 0.7-1.8 1.9-1.7 3.9 0.1 1.6 0.6 3.2 1.1 3.5q1 0.5 0 2c-0.5 0.8-0.7 2.4-0.5 3.5 0.3 1.1 0.1 2-0.5 2-0.5 0-1 0.9-1 2 0 1.1 1 2.4 2 3 1.1 0.5 3.4 1 5 1 1.7 0 4-0.5 5-1q2-1 2-4c0-1.8-0.6-3.2-1.5-3.5-0.8-0.3-3.2-0.5-5.5-0.5-2.7 0-3.8-0.4-3.6-1.3 0.2-0.7 1.2-1.3 2.2-1.3 1.1-0.1 2.7-0.2 3.7-0.3 1-0.1 2.3-1.2 3-2.6 1-2 1-2.7-0.3-4.1-1.3-1.6-1.2-1.7 1-1 1.8 0.5 2.5 0.3 2.3-0.6-0.2-0.9-2.1-1.4-5.5-1.5-2.9-0.1-6.1 0.2-7.2 0.8zm15.9 0.7c-1 1-1.7 2.1-1.6 2.5 0.1 0.4 0.8 0.7 1.6 0.7 0.9 0 1.8-0.7 2-1.5 0.3-0.9 1.5-1.4 2.8-1.3 1.2 0.2 2.3 1 2.5 2 0.2 1.3-0.9 2.1-4 3-3.5 1.1-4.3 1.7-4.5 4-0.2 2.1 0.4 3.1 2.3 4 2.1 1.1 2.9 1 5.5-1 2-1.5 2.8-1.8 2.4-0.7-0.2 0.8 0 1.5 0.5 1.5 0.6 0 1-2.7 1-6q0-6-1.5-7.5c-0.8-0.9-2.7-1.5-4.3-1.5-1.6 0-3.7 0.8-4.7 1.8zm29.4-0.7c-0.9 0.6-2.1 2.2-2.7 3.7-0.9 1.9-0.9 3.6-0.2 5.7 0.5 1.6 2.1 3.5 3.5 4.2 1.4 0.7 3.1 1.3 3.8 1.3 0.7 0 2.4-0.8 3.7-1.9 1.4-1.1 2.2-2.3 1.8-2.8-0.5-0.5-1.7-0.3-2.8 0.4-1.1 0.7-2.9 1.3-4 1.3-1 0-2.4-0.9-3-2-0.5-1.1-1-2.3-1-2.5 0-0.3 2.8-0.5 6-0.5 5.8 0 6-0.1 5.4-2.3-0.3-1.2-1.4-3-2.2-4-0.9-1-2.8-1.8-4.2-1.7-1.3 0-3.2 0.5-4.1 1.1zm-107 38.5c0.1 9.4 0.4 11.4 1.6 11.4 1.3 0 1.5-1.9 1.4-11.4-0.2-9.3-0.4-11.3-1.7-11.3-1.2 0-1.5 1.9-1.3 11.3zm114.1-6.1c0.1 1.5-0.5 2.5-1.4 2.5-0.9 0-1.5 0.4-1.5 1 0 0.5 0.6 1 1.5 1 1.1 0 1.4 1.2 1.4 5.2 0 3.6 0.5 5.7 1.5 6.5 0.9 0.7 2.3 1.2 3.2 1 0.9-0.1 1.8-0.8 2-1.5 0.2-0.7-0.5-1.2-1.6-1.2-1.8 0-2-0.7-2-5 0-4.4 0.2-5 2-5 1 0 2-0.5 2-1 0-0.6-1-1-2-1-1.5 0-2-0.7-2-2.5 0-1.6-0.6-2.5-1.5-2.5-1 0-1.5 0.9-1.5 2.5zm-96.5 2.5c-1.2 0.7-1.8 2-1.7 3.8 0 1.5 0.6 3.1 1.2 3.7 0.7 0.7 0.6 1.3-0.5 2.2-1.2 1-1.3 1.8-0.5 3.3q1 2 0 2c-0.6 0-1.1 0.8-1.1 1.7 0 1 0.6 2.3 1.3 3 0.7 0.7 3.3 1.3 5.8 1.3 2.5 0 5.1-0.6 5.8-1.3 0.6-0.7 1.2-2.2 1.2-3.5 0-1.2-0.9-2.7-2-3.2-1.1-0.6-3.6-1-5.5-1q-3.5 0-3.2-1.3c0.2-0.7 1.5-1.1 3-1 1.6 0.2 3.5-0.5 4.7-1.7 1.2-1.2 1.7-2.8 1.5-4q-0.5-2 1-2c0.8 0 1.5-0.5 1.5-1 0-0.6-0.8-1-1.8-1-1-0.1-3.3-0.3-5.2-0.6-2-0.2-4.4 0-5.5 0.6zm20.5-0.1c-0.9 0.5-2.3 0.7-3.3 0.5-1.5-0.4-1.7 0.4-1.7 7.1 0 6 0.2 7.5 1.5 7.5 1.1 0 1.4-1.3 1.4-5.3 0-2.9 0.6-5.8 1.2-6.5 0.7-0.7 2.1-1.2 3.1-1.2 0.9 0 2.2 0.8 2.7 1.7 0.5 1 0.8 3.8 0.7 6.2-0.1 2.8 0.3 4.5 1.1 4.7 0.9 0.3 1.3-1.5 1.3-6.6 0-6-0.3-7.2-2-8-1.1-0.6-2.6-1-3.3-1-0.7 0-1.9 0.4-2.7 0.9zm17.4 0.7c-1.2 1-1.9 1.2-1.7 0.5 0.2-0.6-0.3-1.1-1.2-1.1-1.3 0-1.5 1.3-1.5 7.5 0 6 0.2 7.5 1.5 7.5 1.1 0 1.5-1.3 1.5-5.3 0-2.9 0.3-5.7 0.7-6.3 0.4-0.6 2-1.3 3.6-1.5 1.5-0.3 3.1 0 3.5 0.6q0.6 1-0.8 0c-1.2-0.8-1.4-0.7-0.8 0.7 0.4 1 0.8 4 0.8 6.8 0 3.5 0.3 4.9 1.2 4.6 0.8-0.2 1.1-1.6 0.9-3.7-0.1-1.9 0.2-4.7 0.8-6.2 0.8-2 1.7-2.7 3.3-2.5 2 0.2 2.3 0.9 2.5 6.5 0.2 4.8 0.6 6.3 1.8 6.3 1.1 0 1.5-1.4 1.5-6.5 0-4.5-0.5-7-1.5-8-0.9-0.9-2.2-1.5-3-1.5-0.9 0-2.6 0.5-3.8 1-1.6 0.8-2.5 0.8-3.2 0-0.6-0.6-1.7-1.1-2.5-1.1-0.9 0-2.5 0.8-3.6 1.7zm24.4 0.3c-1.8 1.4-2.3 2.9-2.3 6.1 0 3.2 0.5 4.6 2.5 6.1 1.3 1.1 3.4 1.9 4.5 1.9 1 0 3-0.7 4.2-1.5 1.2-0.9 2.3-2 2.3-2.5 0-0.6-0.7-1-1.5-1-0.9 0-1.5 0.4-1.5 1 0 0.5-0.8 1.2-1.8 1.5-1 0.3-2.8-0.2-4-1-1.2-0.9-2.2-2.2-2.2-3 0-1.2 1-1.4 5.5-1 5.3 0.5 5.5 0.4 5.5-2 0-1.4-1-3.4-2-4.5-1.1-1.1-3.1-2-4.4-2-1.3 0-3.5 0.8-4.8 1.9zm19.6-0.3c-1.2 1-1.9 1.2-1.7 0.5 0.2-0.6-0.3-1.1-1.2-1.1-1.3 0-1.5 1.3-1.5 7.5 0 6 0.2 7.5 1.5 7.5 1.1 0 1.5-1.5 1.7-6.3 0.2-6.2 0.3-6.2 3.3-6.2 2.9 0 3 0 3.2 6.2 0.2 4.8 0.6 6.3 1.8 6.3 1.1 0 1.5-1.4 1.5-6.3 0-4.7-0.4-6.7-1.8-8-0.9-0.9-2.4-1.7-3.2-1.7-0.9 0-2.5 0.7-3.6 1.6zm-91.5 6.9c0.1 6 0.3 7.5 1.6 7.5 1.2 0 1.5-1.5 1.5-7.5 0-6-0.3-7.5-1.5-7.5-1.3 0-1.5 1.5-1.5 7.5z"/><path class="c" d="m497.4 280c0 12.4 0.2 17.3 0.3 11 0.2-6.3 0.2-16.4 0-22.5-0.1-6.1-0.3-0.9-0.3 11.5zm564 24c0 5.8 0.1 8 0.3 5 0.2-3 0.2-7.8 0-10.5-0.2-2.8-0.3-0.3-0.3 5.5zm-18-5c0.3 0.5 1.4 1 2.4 1 0.9 0 2.6 0.6 3.7 1.5 1.1 0.8 2.2 1.3 2.5 1 0.3-0.2 0.6 1.4 0.8 3.6 0.2 3.4-0.1 4.1-2.8 5.4-1.7 0.8-3.9 1.5-5 1.5-1.1 0-2.9-0.4-4-1-1.2-0.6-1.7-1.5-1.3-2.3 0.5-0.9 0.4-0.9-0.8 0-0.8 0.7-1.8 1-2.3 0.5-0.5-0.4-0.6-0.1-0.3 0.5 0.4 0.7 1.2 1.1 1.7 0.8 0.5-0.3 1.1 0 1.3 0.6 0.1 0.6 2.2 1.3 4.7 1.6 3.6 0.4 5.1 0.1 7.3-1.6 2.1-1.7 2.7-2.9 2.7-6.1 0-3.4-0.4-4.2-2.7-5.4-1.6-0.7-4.1-1.6-5.7-2-1.8-0.4-2.6-0.3-2.2 0.4zm-26.1 43.5c0 3.9 0.2 5.2 0.4 3 0.2-2.2 0.2-5.4 0-7-0.2-1.6-0.4 0.1-0.4 4z"/><path class="d" d="m1038.4 259c0 8.5 0.2 11.9 0.3 7.5 0.2-4.4 0.2-11.4 0-15.5-0.1-4.1-0.3-0.5-0.3 8zm-434 28c0 8.5 0.2 11.9 0.3 7.5 0.2-4.4 0.2-11.4 0-15.5-0.1-4.1-0.3-0.5-0.3 8zm-29.1 0c0 4.1 0.2 5.9 0.4 4 0.2-1.9 0.2-5.3 0-7.5-0.2-2.2-0.4-0.6-0.4 3.5zm514.1 17c0 5.8 0.1 8 0.3 5 0.2-3 0.2-7.8 0-10.5-0.2-2.8-0.3-0.3-0.3 5.5zm-88 34.5c0 4.9 0.1 7.2 0.3 5 0.2-2.2 0.2-6.3 0-9-0.2-2.8-0.3-0.9-0.3 4zm41.8 6.3c-0.2 4-0.6 5.3-2 5.6-1.6 0.3-1.6 0.4 0 0.5 1 0 2-0.5 2.3-1.1 0.3-0.7 0.4-3.3 0.2-5.8l-0.4-4.5zm-45.3 5.5c0.4 0.4 3.6 0.7 7.2 0.5l6.5-0.3c-11.2-0.7-14.1-0.6-13.7-0.2z"/><path class="e" d="m997.4 339.5c0 5.5 0.1 7.5 0.3 4.5 0.2-3 0.2-7.5 0-10-0.2-2.5-0.3 0-0.3 5.5zm22.9 39c0 4.4 0.2 6 0.4 3.5 0.2-2.5 0.2-6.1 0-8-0.2-1.9-0.4 0.1-0.4 4.5z"/><path class="a" d="m1017.6 244.3c-1 2.8-1.9 5.8-2.2 6.4-0.3 0.9 0.9 1.3 4.1 1.3 3.1 0 4.4-0.4 4.1-1.3-0.1-0.6-1-3.6-1.9-6.5-0.8-2.8-1.7-5.2-2-5.2-0.2 0-1.2 2.4-2.1 5.2zm29.4 2.5c-0.8 0.3-2.1 1.3-2.8 2.2-0.7 0.9-1.2 3.1-1.2 4.8 0 1.9 0.8 4.1 2 5.3 1.1 1.1 2.9 2 4 2 1.1 0 2.9-0.9 4-2 1.1-1.1 2-3.3 2-5 0-1.9-0.9-3.9-2.5-5.5-1.4-1.4-2.8-2.5-3.3-2.4-0.4 0-1.4 0.3-2.2 0.6zm24.6 1.7c-1.4 1.4-2.5 3.4-2.6 4.6 0 1.1 0.5 3 1.1 4.2 0.7 1.3 1.7 2.6 2.3 3 0.6 0.4 1.9 0.8 2.8 0.8 1 0 2.7-0.9 3.8-2 1.2-1.2 2-3.4 2-5.3 0-1.7-0.5-3.9-1.2-4.8-0.7-1-2.3-2-3.5-2.4-1.6-0.4-2.9 0.1-4.7 1.9zm36-1.3c-1.1 0.5-1.9 1.7-1.8 2.4 0.2 1.1 1.6 1.5 5.2 1.5 2.7 0 5-0.5 5-1 0-0.6-0.7-1.7-1.5-2.5-0.8-0.8-2.3-1.5-3.3-1.5-0.9 0-2.6 0.5-3.6 1.1zm-645.1 30.4c-1.3 1.3-2.4 3.1-2.5 4 0 1.2 1.4 1.5 8 1.5 6.4 0 8-0.3 8-1.5 0-0.8-1.1-2.6-2.5-4-1.6-1.6-3.6-2.5-5.5-2.5-2 0-4 0.9-5.5 2.5zm54.4-1.4c-0.9 0.5-2.3 2.3-3.3 3.9l-1.6 3c16.8 0 17 0 16.4-2.3-0.3-1.2-1.5-3-2.7-4-1.2-1-3.3-1.8-4.7-1.7-1.4 0-3.2 0.5-4.1 1.1zm-86.1 13.4c-2 0.7-4.2 2-4.7 2.7-0.6 0.7-1.1 1.7-1.1 2.3 0 0.6 0.5 1.6 1.2 2.3 0.7 0.7 2.7 1.2 4.3 1.2 1.6 0 4-0.9 5.2-2 1.4-1.2 2.3-3.2 2.3-5 0-2.2-0.5-3-1.8-3-0.9 0.1-3.4 0.7-5.4 1.5zm594.2 51.2c-0.8 2.1-0.7 3.3 0.5 5 0.8 1.3 2.3 2.3 3.3 2.3 1 0 2.3-0.6 3-1.3 0.7-0.6 1.2-2.3 1.2-3.7 0-1.4-0.5-3.1-1.2-3.8-0.7-0.7-2.3-1.2-3.6-1.2-1.5 0-2.6 0.9-3.2 2.7zm51.2-0.5c0.2 1.7 0.9 2.3 2.8 2.3 1.8 0 2.5-0.5 2.5-2 0-1.4-0.8-2.1-2.8-2.3-2.3-0.3-2.7 0-2.5 2zm44.3-1.6c-0.4 0.4-0.8 1.1-0.7 1.6 0.1 0.4 1.8 0.8 3.7 0.8 2.3 0 3.4-0.4 3.2-1.3-0.2-0.6-1.5-1.3-2.8-1.5-1.4-0.2-2.9 0-3.4 0.4zm-26.1 5.6c-1.5 0.5-2.7 1.4-2.6 1.9 0.1 0.5 0.9 1.2 1.7 1.6 1 0.5 2.2 0.2 3.1-0.7 0.9-0.8 1.4-2 1.1-2.6-0.3-0.8-1.3-0.8-3.3-0.2zm-19.4 8.3c0 0.8 0.9 1.7 2 2 1.1 0.3 2.9 0.3 4 0 1.1-0.3 2-1.2 2-2 0-1.1-1.1-1.5-4-1.5-2.9 0-4 0.4-4 1.5zm-42.7 22c-0.4 0.9-0.4 2 0.2 2.6 0.5 0.6 1.9 0.9 3 0.7 1.2-0.2 2-1.1 2-2.3 0-1.3-0.8-2.1-2.2-2.3-1.3-0.2-2.5 0.3-3 1.3zm62.2-0.9c-0.4 0.4-0.8 1.1-0.7 1.6 0.1 0.4 1.8 0.8 3.7 0.8 2.3 0 3.4-0.4 3.2-1.3-0.2-0.6-1.5-1.3-2.8-1.5-1.4-0.2-2.9 0-3.4 0.4zm-63.3 14.1c0.3 1.3 1.2 1.8 3.8 1.8 2.4 0 3.5-0.5 3.5-1.5 0-1-1.2-1.6-3.8-1.8-3.2-0.3-3.7 0-3.5 1.5z"/><path class="c" d="m1016.9 237c-0.6 1-1 2.5-0.9 3.2 0.1 0.7 0.6 0.1 1.1-1.5 0.6-1.9 1.4-2.6 2.7-2.2 1.1 0.4 2.5 3.2 4.1 8.3 1.4 4.2 2.6 8.1 2.6 8.7 0.1 0.6 0.7 2.4 1.4 4 0.6 1.6 1.4 3.6 1.6 4.3 0.3 0.6 1.1 1.2 1.8 1.2 0.9 0.1 0.9-0.2 0.1-1.2-0.6-0.7-1.4-2.7-1.8-4.3-0.4-1.6-1.3-4.3-2-6-0.7-1.7-2.2-5.6-3.2-8.9-1.4-4.1-2.6-6.1-4.2-6.7-1.7-0.6-2.5-0.4-3.3 1.1zm76.5 12c0 8 0.2 11.4 0.3 7.5 0.2-3.8 0.2-10.4 0-14.5-0.1-4.1-0.3-1-0.3 7zm-53.3 9c-0.1 8 0.1 14.3 0.4 14 0.2-0.3 0.5-5.4 0.6-11.5 0-6.6 0.6-11.6 1.2-12.4 0.9-1.2 0.9-1.3 0-0.8-0.9 0.5-1.4-0.1-1.7-1.5-0.2-1.3-0.4 4.2-0.5 12.2zm-28-7c-0.6 1.7-0.8 3.1-0.3 3.3 0.4 0.2 2.5 0.4 4.7 0.4l4 0.1c-6.5-1.2-7-1.7-6.9-4.1 0.1-1.5 0-2.7-0.1-2.7-0.2 0-0.8 1.3-1.4 3zm-620.6 6.5c-0.5 0.2-2.7 0.6-4.7 0.9-2.3 0.4-5.3 1.9-7.5 3.9-2 1.7-4.4 5-5.4 7.2-1 2.2-1.8 5.4-1.8 7 0.1 2.4 0.3 1.9 1.3-2 0.7-2.7 1.8-6 2.4-7.2 0.7-1.3 2.7-3.4 4.5-4.7 1.7-1.3 4.3-2.7 5.6-3.1 1.8-0.5 2.3-0.4 1.7 0.5q-0.7 1.3 0.6 0.4c0.7-0.4 2.7-0.7 4.3-0.6 2.1 0.2 3-0.1 3-1.2 0-0.9-0.3-1.1-0.9-0.5-0.6 0.5-1.4 0.9-1.8 0.9-0.4 0-0.6-0.4-0.3-1 0.2-0.6 0.3-1 0.2-0.9-0.1 0-0.6 0.2-1.2 0.4zm101.7 6.8l0.1 6.2c1.1-10.3 1.4-11.3 1.8-9.5l0.6 2.5c0.3-4.6-0.2-5.5-1.2-5.5-1.2 0-1.5 1.3-1.3 6.3zm-63.7 7.4c-1.6 0.3-3.4 0.8-4 1.3-0.6 0.5-0.5 1.1 0.5 1.6 1.1 0.7 1.3 0.5 0.7-0.3-0.4-0.8-0.2-1.3 0.6-1.2 0.6 0.1 2.4 0.1 4 0 1.5 0 2.7-0.5 2.7-1.1 0-0.6-0.3-0.9-0.7-0.9-0.5 0.1-2.1 0.4-3.8 0.6zm36 0.3c-0.3 0.6-1.2 0.7-2 0.4-0.9-0.3-2.6 0.5-3.8 1.8-1.4 1.3-1.5 1.8-0.5 1.1 1-0.7 2.4-1 3-0.5 1 0.5 1 0.3 0.3-0.8-0.8-1.2-0.6-1.3 0.8-0.7 0.9 0.4 1.9 0.3 2.2-0.3 0.3-0.6 1.5-0.7 2.8-0.3 1.6 0.5 2 0.3 1.5-0.5-0.5-0.7-1.5-1.2-2.3-1.2-0.7 0-1.6 0.4-2 1zm27.8 6.5c0 4.4 0.2 6 0.4 3.5 0.2-2.5 0.2-6.1 0-8-0.2-1.9-0.4 0.1-0.4 4.5zm58.7-6.5c0 0.6 1.2 1.1 2.8 1.1 1.5 0.1 3.3 0.1 4 0 0.6 0 1 0.2 0.8 0.7-0.2 0.4 0.2 1.6 1 2.7 0.8 1.1 1.4 1.6 1.4 1 0.1-0.6-0.3-1.4-0.7-1.8-0.4-0.5-0.8-1.4-0.8-2 0-0.7-0.7-1.2-1.5-1.2-0.9 0-2-0.4-2.5-0.8-0.6-0.4-1.8-0.7-2.7-0.7-1 0-1.8 0.4-1.8 1zm69.8 0.2c0.1 0.4-0.5 0.6-1.3 0.3-0.9-0.3-2.3 0.1-3.3 0.8-1.6 1.3-1.6 1.4 0.1 2 1.1 0.5 1.6 0.3 1.5-0.5-0.2-0.7 0.8-1.4 2.2-1.5 1.4-0.2 3.3-0.4 4.3-0.3 0.9 0 1.6-0.4 1.5-1-0.1-0.5-1.3-0.9-2.7-0.8-1.4 0.1-2.4 0.6-2.3 1zm-21.8 0.8c0 0.6 0.5 0.8 1 0.5 0.6-0.3 1.1 4.2 1.3 12.3l0.3 12.7c0.4-24.5 0.2-26.5-1.1-26.5-0.8 0-1.5 0.4-1.5 1zm-104.7 8.5c0 4.4 0.2 6 0.4 3.5 0.2-2.5 0.2-6.1 0-8-0.2-1.9-0.4 0.1-0.4 4.5zm82.1 4.5c0 5.2 0.1 7.3 0.3 4.5 0.2-2.7 0.2-7 0-9.5-0.2-2.5-0.3-0.2-0.3 5zm-69.8-3.7c-0.3 1.2-0.6 3.2-0.6 4.5 0 1.2 0.7 2.4 1.5 2.7 0.8 0.3 1.7 1.9 2 3.5 0.3 1.6 1.1 3.3 1.7 3.8 0.9 0.5 1 0.2 0.4-1.3-0.4-1.1-1.1-2.9-1.4-4-0.3-1.1-1.1-2.3-1.9-2.7-0.9-0.6-1.1-2.1-0.8-4.8 0.3-2.2 0.3-4 0.1-4-0.2 0-0.7 1-1 2.3zm25.4 2c0 0.9-2.7 1.1-11.2 0.9-6.2-0.2-10.9 0-10.5 0.5 0.5 0.4 5.8 0.9 11.8 1.1 10.3 0.2 10.9 0.1 10.9-1.8 0-1.1-0.2-2-0.5-2-0.3 0-0.5 0.6-0.5 1.3zm-101.6 1.6c-1.6 0.3-3.7 1.1-4.5 1.8-0.8 0.6-1.7 1.1-2.1 1-0.3-0.1-1 0.1-1.5 0.6-0.4 0.4 0.3 0.5 1.7 0.2 1.4-0.3 3-0.9 3.5-1.2 0.6-0.4 3-1.2 5.5-1.9 2.5-0.7 3.6-1.2 2.5-1.2-1.1 0-3.4 0.3-5.1 0.7zm28.9 0.1c0.9 0.6 4.8 0.9 8.6 0.8 3.8-0.2 7.3-0.6 7.7-1 0.4-0.5-3.5-0.8-8.7-0.8-6.6 0.1-8.9 0.3-7.6 1zm576.7 1.6c-1.2 1.5-2.2 3.3-2.1 4 0.1 0.8 0.3 1.4 0.6 1.4 0.3 0 0.9-1.2 1.5-2.7 0.5-1.6 2-3.3 3.2-4 1.8-0.9 1.9-1.2 0.6-1.2-0.9-0.1-2.6 1.1-3.8 2.5zm-542 7.9c0 3.5-0.5 5.7-1.3 5.9-0.6 0.3-0.4 0.5 0.5 0.5 1.5 0.1 1.8-0.8 1.8-5.9 0-3.3-0.2-6-0.5-6-0.3 0-0.5 2.5-0.5 5.5zm568.4 8c0 5.5 0.1 7.5 0.3 4.5 0.2-3 0.2-7.5 0-10-0.2-2.5-0.3 0-0.3 5.5zm28 0.5c0 5.2 0.1 7.3 0.3 4.5 0.2-2.7 0.2-7 0-9.5-0.2-2.5-0.3-0.2-0.3 5zm-513.4-7c0 0.8 0.7 2.2 1.7 3.1 1 0.9 2.5 1.6 3.5 1.5 1.2-0.1 1.4-0.5 0.7-1.8-0.5-1-1.5-2.1-2.1-2.5q-1.3-0.8-0.5 0.5c0.4 0.6 0.2 1.4-0.3 1.7-0.5 0.3-1.4-0.5-1.9-1.7-0.6-1.4-1-1.7-1.1-0.8zm-67.3 1c0.7 0.8 1.1 1.7 0.8 2-0.2 0.3 0.4 0.7 1.3 0.8 0.9 0.1 4.3 0.4 7.4 0.7 3.7 0.3 5.6 0.1 5.3-0.5-0.3-0.6-2-0.9-3.9-0.7-1.8 0.1-4-0.4-5-1-0.9-0.7-2.1-1.1-2.6-0.8-0.5 0.3-1.8-0.1-2.8-0.7-1.5-1.1-1.5-1.1-0.5 0.2zm-37.8 1.4c-0.2 0.3-2 0.6-4 0.8-2 0.2-4 0.6-4.3 0.9-0.4 0.4 1.5 0.7 4.1 0.7 3.6 0.1 4.8-0.2 4.9-1.3 0-0.8 0-1.5-0.1-1.5-0.1 0-0.4 0.2-0.6 0.4zm78.1 1.5c-1 0.6 0.1 0.9 3.5 1 3.5 0 4.6-0.2 3.5-0.9-0.8-0.5-2.4-1-3.5-1-1.1 0-2.7 0.4-3.5 0.9zm524.3 6.1c0 4.1 0.2 5.9 0.4 4 0.2-1.9 0.2-5.3 0-7.5-0.2-2.2-0.4-0.6-0.4 3.5zm-75.9 32.5c0 5.5 0.1 7.5 0.3 4.5 0.2-3 0.2-7.5 0-10-0.2-2.5-0.3 0-0.3 5.5z"/><path class="d" d="m467.5 283l-9 0.6c13.8 0.3 17.7 0 18-0.6 0.2-0.6 0.3-0.9 0.2-0.8-0.1 0.1-4.3 0.5-9.2 0.8zm49 0.7c2.7 0.2 6.8 0.2 9 0 2.2-0.2 0-0.3-5-0.3-5 0-6.8 0.1-4 0.3z"/></svg>