<svg version="1.2" xmlns="http://www.w3.org/2000/svg" viewBox="0 0 1024 1024" width="1024" height="1024"><style>.a{fill:#2f2e2a}.b{fill:#2c2d2a}.c{fill:#d0a256}.d{fill:#cb9f56}.e{fill:#907540}</style><path class="a" d="m0 512v512h1024v-1024h-1024z"/><path class="b" d="m671.3 171c0 4.7 0.2 6.5 0.4 4 0.2-2.5 0.2-6.3 0-8.5-0.2-2.2-0.4-0.2-0.4 4.5zm-298.7 82.1c-4.4 2.1-7.9 4.1-7.8 4.4 0.1 0.3 3.8-1.3 8.2-3.5 4.4-2.2 8-4.2 8-4.5 0-0.3-0.1-0.5-0.2-0.5-0.2 0.1-3.9 1.9-8.2 4.1zm125.9-2.4c2.8 0.2 6.8 0.2 9 0 2.2-0.2 0-0.3-5-0.3-4.9 0-6.7 0.1-4 0.3zm19.5 0c2.5 0.2 6.1 0.2 8 0 1.9-0.2-0.1-0.4-4.5-0.4-4.4 0-6 0.2-3.5 0.4zm-220.5 57.6l-11 11.2c17.4-17.1 22.5-22.1 22.5-22.2 0-0.2-0.1-0.3-0.3-0.3-0.1 0-5.2 5.1-11.2 11.3zm207.9 17.7c0 10.7 0.2 15.2 0.3 10 0.2-5.2 0.2-14 0-19.5-0.1-5.5-0.3-1.2-0.3 9.5zm-187.9 4.3l-7 7.2c11.3-10.9 14.5-14.1 14.5-14.2 0-0.2-0.1-0.3-0.3-0.3-0.1 0-3.4 3.3-7.2 7.3zm-107.2 177.7c0 4.7 0.2 6.5 0.4 4 0.2-2.5 0.2-6.3 0-8.5-0.2-2.2-0.4-0.2-0.4 4.5zm573.1 12c0 9.6 0.2 13.5 0.3 8.5 0.2-5 0.2-12.8 0-17.5-0.1-4.7-0.3-0.6-0.3 9zm-573.1 14.5c0 3.9 0.2 5.2 0.4 3 0.2-2.2 0.2-5.4 0-7-0.2-1.6-0.4 0.1-0.4 4zm448.7 28.8c5.8 5.9 10.6 10.7 10.8 10.7 0.1 0 0.2-0.1 0.2-0.2 0-0.2-4.8-5-10.7-10.8l-10.8-10.5zm60.2 126.5c-0.1 2.3-0.1 4.3 0.1 4.3 0.1 0 1.5-1.7 3-3.8 2.6-3.4 2.6-3.5 0.3-1l-2.6 2.7c-0.6-5.9-0.7-5.7-0.8-2.2zm5.3 41.5l-11 11.2c17.4-17 22.5-22.1 22.5-22.2 0-0.1-0.1-0.3-0.3-0.3-0.1 0-5.2 5.1-11.2 11.3z"/><path class="c" d="m511 221.7c1.9 0.2 5.3 0.2 7.5 0 2.2-0.2 0.6-0.4-3.5-0.4-4.1 0-5.9 0.2-4 0.4zm-5 27c3 0.2 8.2 0.2 11.5 0 3.3-0.2 0.8-0.3-5.5-0.3-6.3 0-9 0.1-6 0.3zm-208 61.1l-11.5 11.7c18.2-17.8 23.5-23.1 23.5-23.2 0-0.2-0.1-0.3-0.3-0.3-0.1 0-5.4 5.3-11.7 11.8zm209.4 22.7c0 7.1 0.1 9.9 0.3 6 0.2-3.9 0.2-9.7 0-13-0.2-3.3-0.3-0.1-0.3 7zm343.9 3.5c0 4.1 0.2 5.9 0.4 4 0.2-1.9 0.2-5.3 0-7.5-0.2-2.2-0.4-0.6-0.4 3.5zm-65.9 182.5c0 6 0.1 8.3 0.3 5 0.2-3.3 0.2-8.2 0-11-0.2-2.7-0.3 0-0.3 6zm-481.9-7.8c4.9 0.2 13.3 0.2 18.5 0 5.2-0.1 1.2-0.3-9-0.3-10.2 0-14.4 0.2-9.5 0.3zm395.5 0c3 0.2 8.2 0.2 11.5 0 3.3-0.2 0.8-0.3-5.5-0.3-6.3 0-9 0.1-6 0.3zm113.4 9.3c0 5.2 0.1 7.3 0.3 4.5 0.2-2.7 0.2-7 0-9.5-0.2-2.5-0.3-0.2-0.3 5zm-479.5-1.8c-0.4 1-4.7 1.4-16.5 1.8l-15.9 0.6c26.7 0.4 30.4 0.1 32-1 1.1-0.8 1.8-1.7 1.5-2.1-0.3-0.3-0.8 0-1.1 0.7zm369.1 2.5c4.7 0.2 12.8 0.2 18 0 5.2-0.1 1.4-0.3-8.5-0.3-9.9 0-14.2 0.2-9.5 0.3zm-43 44.6c5.8 5.9 10.6 10.7 10.7 10.7 0.2 0 0.3-0.1 0.3-0.2 0-0.2-4.8-5-10.7-10.8l-10.8-10.5zm63.5 166l-11 11.2c17.4-17 22.5-22.1 22.5-22.2 0-0.1-0.1-0.3-0.3-0.3-0.1 0-5.2 5.1-11.2 11.3zm-217 87.5c3.8 0.2 9.7 0.2 13 0 3.3-0.2 0.1-0.4-7-0.4-7.2 0-9.9 0.2-6 0.4z"/><path fill-rule="evenodd" class="d" d="m678.9 160c2.8 0 5.3 0.4 5.6 1 0.3 0.6 2.3 0.8 4.5 0.5 2.3-0.3 4-0.1 4 0.5 0 0.6 1.5 0.8 3.5 0.5 2.6-0.4 3.3-0.2 2.8 0.7-0.6 0.9 0 1 2.5 0.5 1.9-0.4 3.2-0.3 3.2 0.3 0 0.6 1.1 0.8 2.5 0.5 1.4-0.3 2.5-0.1 2.5 0.5 0 0.6 1.1 0.8 2.5 0.5 1.8-0.4 2.3-0.2 1.8 0.7-0.6 0.9-0.2 1 1.5 0.5 1.3-0.4 2.2-0.3 2.2 0.3 0 0.6 0.9 0.8 2 0.5 1.1-0.3 2-0.1 2 0.5 0 0.6 0.7 0.8 1.5 0.5 0.8-0.3 1.5-0.1 1.5 0.5 0 0.6 1 0.7 2.3 0.3 1.8-0.5 2-0.4 1.2 0.7-0.8 1.2-0.6 1.3 0.8 0.7 0.9-0.4 1.7-0.3 1.7 0.3 0 0.6 0.7 0.8 1.5 0.5 0.8-0.3 1.5-0.1 1.5 0.5 0 0.6 0.7 0.8 1.5 0.5 0.8-0.3 1.5-0.1 1.5 0.5 0 0.6 0.5 0.8 1 0.5 0.5-0.3 1-0.1 1 0.5 0 0.6 0.7 0.8 1.5 0.5 0.8-0.3 1.5-0.1 1.5 0.5 0 0.6 0.5 0.8 1 0.5 0.5-0.3 1-0.1 1 0.5 0 0.6 0.7 0.8 1.5 0.5q1.5-0.5 0.8 0.7c-0.6 0.9-0.3 1 1 0.5 0.9-0.4 1.7-0.3 1.7 0.3 0 0.6 0.5 0.8 1 0.5 0.5-0.3 1-0.1 1 0.5 0 0.6 0.5 0.8 1 0.5 0.5-0.3 1-0.1 1 0.5 0 0.6 0.5 0.8 1 0.5 0.5-0.3 1 0.1 1 0.8 0 0.6 0.2 0.9 0.5 0.5 0.3-0.5 1.4 0.1 2.5 1.2 1.1 1.1 2.5 1.8 3 1.5 0.5-0.3 1 0.1 1 0.8 0 0.6 0.3 0.9 0.7 0.5 0.4-0.4 1.4 0 2.1 1 0.9 1 1.1 1.1 0.7 0.2-0.4-0.8 0.1-0.6 0.9 0.5 0.9 1.1 1.6 1.6 1.6 1 0.1-0.6 0.5-0.2 1 0.8 0.6 0.9 1.5 1.5 2 1.2 0.5-0.3 1.2 0.2 1.5 1 0.3 0.8 1 1.3 1.5 1 0.5-0.3 1.2 0.2 1.5 1 0.3 0.8 1 1.3 1.5 1 0.5-0.3 1.5 0.4 2 1.5 0.5 1.1 1.4 1.9 1.9 1.8 0.4-0.2 1.8 0.8 3 2.2 1.3 1.4 1.9 1.8 1.5 1-0.4-0.8 1.2 0.5 3.5 3 2.4 2.5 3.8 3.6 3.1 2.5-0.7-1.1 1 0.4 3.6 3.2 2.7 2.9 7 7.2 9.5 9.5 2.5 2.4 3.8 3.9 2.9 3.3-0.9-0.6 0.2 0.8 2.4 2.9 2.3 2.2 3.4 3.6 2.6 3.2-0.8-0.4 0.1 0.7 2 2.5 1.9 1.7 2.8 2.8 2 2.5-0.8-0.4-0.4 0.2 1 1.4 1.4 1.1 2 2.1 1.5 2.1-0.5 0 0.1 0.9 1.5 2 1.4 1.1 1.8 1.8 1 1.4-0.9-0.4-0.8-0.1 0.2 0.7 1 0.7 1.4 1.6 1 2-0.4 0.4 0.1 1 1.1 1.3 0.9 0.3 1.5 0.9 1.2 1.5-0.3 0.6 0.4 1.9 1.5 3 1.1 1.1 1.7 2 1.3 2-0.5 0 0 0.5 1 1 0.9 0.6 1.5 1.7 1.2 2.5-0.3 0.8 0.2 1.7 1 2 0.8 0.3 1.3 0.9 1 1.5-0.3 0.6 0 1 0.5 1 0.5 0 0.8 0.4 0.5 1-0.3 0.6 0 1 0.5 1 0.5 0 0.8 0.4 0.5 1-0.3 0.6 0.3 2.2 1.2 3.8 1 1.5 1.6 3 1.5 3.5-0.1 0.4 0.3 0.7 0.8 0.7 0.6 0 0.7 0.8 0.3 1.8-0.5 1.2-0.4 1.5 0.5 1q1.2-0.8 0.7 0.7c-0.3 0.8 0 1.5 0.5 1.5 0.5 0 0.8 0.4 0.5 1-0.3 0.6 0 1 0.5 1 0.5 0 0.8 0.7 0.5 1.5-0.3 0.8 0 1.5 0.5 1.5 0.5 0 0.8 0.7 0.5 1.5-0.3 0.8 0 1.5 0.5 1.5 0.6 0 0.7 1 0.3 2.3-0.5 1.7-0.4 2 0.7 1.2 1.1-0.8 1.2-0.5 0.7 1.3-0.4 1.2-0.3 2.2 0.3 2.2 0.5 0 0.8 0.9 0.5 2-0.3 1.1 0 2 0.5 2 0.5 0 0.8 0.9 0.5 2-0.3 1.1 0 2 0.5 2 0.6 0 0.7 1.1 0.3 2.8-0.6 2.2-0.4 2.5 0.7 1.7 1.1-0.8 1.2-0.4 0.7 2.3-0.4 1.9-0.3 3.2 0.3 3.2 0.6 0 0.7 1.4 0.3 3.8-0.5 2.8-0.4 3.5 0.5 3 0.9-0.6 1 0.4 0.5 4.2-0.5 3.2-0.4 5 0.2 5 0.6 0 1 3.9 1 9.8 0 7.4-0.4 10-1.5 11-1.3 1.2-1.3 1.3 0 0.6 0.9-0.4 1.2-0.3 0.7 0.2-0.5 0.5-3.1 1-5.8 1.1-3.6 0.2-4.7 0-4.1-0.9 0.5-0.9-0.8-1-5.5-0.5-4 0.4-6.3 0.3-6.3-0.3 0-0.6-2.3-0.8-6-0.5-3.7 0.3-6 0.1-6-0.5 0-0.6-2.1-0.7-5.7-0.3-4.8 0.6-5.6 0.4-4.8-0.7 0.8-1.2 0-1.3-5.2-0.7-4.7 0.5-6.1 0.4-5.5-0.5 0.5-0.9-1-1-6-0.5-5.2 0.5-6.6 0.4-6-0.5 0.5-0.9-0.8-1-5.5-0.5-4 0.4-6.3 0.3-6.3-0.3 0-0.6-2.3-0.8-6-0.5-3.7 0.3-6 0.1-6-0.5 0-0.6-2.3-0.8-6.2-0.3-5.2 0.5-6.1 0.4-5.3-0.7 0.8-1.1-0.1-1.3-5.2-0.7-4.8 0.5-6.3 0.4-6.3-0.6 0-0.9-1.4-1-6-0.5-4.1 0.6-6.2 0.4-6.7-0.3-0.5-0.8-2.6-1-6-0.5-4 0.4-5.1 0.3-4.5-0.6 0.5-0.9-0.9-1-6-0.5-5.2 0.5-6.8 0.4-6.8-0.6 0-0.9-1.2-1-5-0.5-3.7 0.6-5 0.5-5-0.5 0-0.6-0.2-0.9-0.5-0.5-0.3 0.5-1.3 0-2.3-1-1.1-1-1.6-2.5-1.3-3.7 0.4-1.6 0.2-1.8-0.9-1-1.1 0.8-1.2 0.1-0.7-4.3 0.4-3.2 0.3-5.2-0.3-5.2-0.6 0-0.7-2-0.2-5.5 0.5-4.2 0.4-5.5-0.5-5.5-1 0-1.2-1.5-0.8-5.5 0.3-3.3 0.1-5.5-0.5-5.5-0.6 0-0.7-2.2-0.2-6 0.5-4.6 0.4-6-0.5-6-1 0-1.1-1.7-0.6-6.8 0.5-5.5 0.4-6.5-0.7-5.7-1.1 0.8-1.2-0.1-0.7-5.3 0.5-3.9 0.3-6.2-0.3-6.2-0.6 0-0.7-2.3-0.3-6.3 0.6-5.1 0.4-6-0.7-5.2-1.1 0.8-1.2-0.1-0.7-5.3 0.4-3.8 0.3-6.4-0.3-6.7-0.6-0.3-0.7-2.9-0.3-6.8 0.6-5.1 0.4-6-0.7-5.2-1.1 0.8-1.2-0.1-0.7-5.8 0.5-4.2 0.3-6.7-0.3-6.7-0.6 0-0.7-2.2-0.2-6 0.5-4.6 0.4-6-0.5-6-1 0-1.1-1.5-0.5-6 0.5-4.6 0.4-6-0.5-6-1 0-1.2-1.9-0.7-7.8 0.4-5.5 0.2-7.3-0.5-6.2-0.8 1.1-1.1 0.1-1.1-4.3 0-4.2 0.4-5.8 1.5-6.2 0.8-0.3 1.2-0.9 0.9-1.5-0.4-0.6 1.4-1 4.5-1zm-166.1 61.4c11.7 0.1 18.8 0.5 18.4 1-0.5 0.6 2 0.7 6.6 0.3 5.5-0.5 7-0.4 6.5 0.5-0.6 0.9 0.5 1 4.5 0.5 3.9-0.5 5-0.4 4.5 0.5-0.6 0.9 0.1 1 3 0.5 2.3-0.4 3.7-0.3 3.7 0.3 0 0.6 1.5 0.8 3.5 0.5 2-0.3 3.5-0.1 3.5 0.5 0 0.6 1.1 0.8 2.5 0.5 1.4-0.3 2.5-0.1 2.5 0.5 0 0.6 0.9 0.8 2 0.5 1.1-0.3 2-0.1 2 0.5 0 0.6 0.6 0.8 1.3 0.6 0.6-0.2 1.7 0.2 2.2 0.8 0.5 0.6 1 2.8 1 4.8 0 2.1-0.3 3.8-0.7 3.8-0.5 0-0.5 1.2-0.1 2.8 0.6 2.2 0.4 2.5-0.7 1.7-1.1-0.8-1.3-0.5-0.9 1.7 0.2 1.5 0.1 2.8-0.3 2.8-0.5 0-0.6 1.1-0.3 2.5q0.5 2.5-1 3c-0.9 0.3-1.2 1-0.7 1.7q0.7 1.3-0.5 0.5c-0.7-0.4-1.3-0.3-1.3 0.3 0 0.6-0.9 1-2 1-1.3 0-1.7-0.4-1.2-1.2 0.5-0.9-0.1-1-2.5-0.5-2 0.4-3.3 0.3-3.3-0.3 0-0.6-1.3-0.8-3-0.5-1.7 0.3-3 0.1-3-0.5 0-0.6-1.3-0.8-3-0.5-1.7 0.3-3 0.1-3-0.5 0-0.6-1.5-0.7-3.7-0.3-3.1 0.6-3.6 0.4-2.8-0.7 0.8-1.2 0.1-1.3-4.2-0.7-3.3 0.4-5.3 0.3-5.3-0.3 0-0.6-3-0.8-8.2-0.4-6 0.4-7.9 0.2-6.8-0.5 1.1-0.8-1.6-1.1-9.7-1.1-7.3 0-11.6 0.4-12 1.1-0.6 0.8-3.2 0.9-8.8 0.4-6-0.6-7.8-0.5-7.2 0.3 0.5 0.9-0.7 1-4.5 0.5-4-0.5-5.1-0.4-4.5 0.5 0.5 0.9-0.4 1-3.5 0.5-3.2-0.5-4.1-0.4-3.5 0.5 0.5 0.9-0.3 1-3 0.5-3.1-0.6-3.6-0.4-2.8 0.7 0.8 1.1 0.4 1.2-2.2 0.7-2-0.4-3.3-0.3-3.3 0.3 0 0.6-0.9 0.8-2 0.5-1.1-0.3-2-0.1-2 0.5 0 0.6-1.1 0.8-2.5 0.5-1.4-0.3-2.5-0.1-2.5 0.5 0 0.6-0.9 0.8-2 0.5-1.1-0.3-2-0.1-2 0.5 0 0.6-0.9 0.8-2 0.5-1.1-0.3-2-0.1-2 0.5 0 0.6-0.7 0.8-1.5 0.5-0.8-0.3-1.5-0.1-1.5 0.5 0 0.6-0.9 0.8-2 0.5-1.1-0.3-2-0.1-2 0.5 0 0.6-0.7 0.8-1.5 0.5-0.8-0.3-1.5-0.1-1.5 0.5 0 0.6-0.7 0.8-1.5 0.5-0.8-0.3-1.5-0.1-1.5 0.5 0 0.6-0.7 0.8-1.5 0.5-0.8-0.3-1.5-0.1-1.5 0.5 0 0.6-0.7 0.8-1.5 0.5-0.8-0.3-1.5-0.1-1.5 0.5 0 0.6-0.7 0.8-1.5 0.5-0.8-0.3-1.5-0.1-1.5 0.5 0 0.6-0.4 0.8-1 0.5-0.5-0.3-1-0.1-1 0.5 0 0.6-0.7 0.8-1.5 0.5-0.8-0.3-1.5-0.1-1.5 0.5 0 0.6-0.7 0.8-1.5 0.5-0.8-0.3-1.5-0.1-1.5 0.5 0 0.6-0.4 0.8-1 0.5-0.5-0.3-1-0.1-1 0.5 0 0.6-0.7 0.8-1.5 0.5-0.8-0.3-1.5-0.1-1.5 0.5 0 0.6-0.4 0.8-1 0.5-0.5-0.3-1-0.1-1 0.5 0 0.6-0.4 0.8-1 0.5-0.5-0.3-1-0.1-1 0.5 0 0.6-0.4 0.8-1 0.5-0.5-0.3-1-0.1-1 0.5 0 0.6-0.8 0.7-1.7 0.3-1.3-0.5-1.6-0.4-1 0.5q0.7 1.2-0.8 0.7c-0.8-0.3-1.5-0.1-1.5 0.5 0 0.6-0.4 0.8-1 0.5-0.5-0.3-1-0.1-1 0.5 0 0.6-0.4 0.8-1 0.5-0.5-0.3-1-0.1-1 0.5 0 0.6-0.4 0.8-1 0.5-0.5-0.3-1-0.1-1 0.5 0 0.6-0.4 0.8-1 0.5-0.5-0.3-1-0.1-1 0.5 0 0.6-0.4 0.8-1 0.5-0.5-0.3-1-0.1-1 0.5 0 0.6-0.4 0.8-1 0.5-0.5-0.3-1.9 0.4-3 1.5-1.1 1.1-2.2 1.7-2.5 1.3-0.3-0.5-0.5-0.2-0.5 0.5 0 0.6-0.4 1-1 0.7-0.5-0.3-1-0.1-1 0.5 0 0.6-0.4 0.8-1 0.5-0.5-0.3-1.2 0.2-1.5 1-0.3 0.8-0.9 1.3-1.5 1-0.5-0.3-1-0.1-1 0.5 0 0.6-0.4 0.8-1 0.5-0.5-0.3-1.4 0.3-2 1.3-0.5 0.9-0.9 1.3-1 0.7 0-0.6-0.7-0.1-1.6 1-0.8 1.1-1.3 1.3-0.9 0.5 0.4-0.8-0.3-0.4-1.5 1-1.2 1.4-1.9 1.8-1.5 1 0.4-0.8-0.3-0.4-1.5 1-1.2 1.4-1.9 1.8-1.5 1 0.4-0.8-0.1-0.6-1 0.5-0.9 1.1-2 2-2.6 2-0.5 0-1.4 0.7-1.9 1.5-0.5 0.8-1 1.1-1 0.5 0-0.6-1 0.1-2.1 1.5-1.1 1.4-1.8 1.8-1.4 1 0.3-0.8-0.6-0.1-2 1.5-1.5 1.6-2.4 2.3-2 1.5 0.3-0.8-0.8 0.1-2.6 2-1.7 1.9-2.8 2.8-2.4 2 0.4-0.8-1.2 0.5-3.5 3-2.3 2.5-3.7 3.6-3 2.5 0.7-1.1-1.3 0.7-4.4 4-3 3.3-5.6 5.6-5.6 5 0-0.6-1.3 0.4-2.9 2-1.7 1.6-2.8 3.3-2.6 3.8 0.3 0.4-2.8 3.7-6.7 7.3-4 3.6-6.6 6.3-5.8 5.9 0.8-0.5-0.3 0.9-2.5 2.9-2.2 2.1-3.3 3.4-2.5 3 0.8-0.3-0.1 0.8-2 2.6-1.9 1.8-2.8 2.8-2 2.4 0.9-0.5 0.2 0.4-1.5 1.9-1.6 1.6-2.3 2.6-1.5 2.2 0.8-0.4 0.6 0.1-0.5 1-1.1 0.9-2 2-2 2.5 0 0.5-0.9 1.6-2 2.5-1.1 0.9-1.3 1.4-0.5 1 0.8-0.4 0.4 0.3-1 1.4-1.4 1.1-2 2.1-1.5 2.1 0.6 0 0.1 0.6-1 1.5-1.1 0.8-1.5 1.4-1 1.5 0.6 0 0.1 0.6-1 1.5-1.1 0.8-1.5 1.4-1 1.5 0.6 0 0.1 0.7-1 1.6-1.1 0.8-1.3 1.3-0.5 0.9 0.8-0.4 0.6 0.1-0.5 0.9-1.1 0.9-1.7 1.6-1.2 1.6 0.4 0-0.2 0.9-1.3 2-1.1 1.1-1.8 2.4-1.5 3 0.3 0.6-0.1 1-0.7 1-0.7 0-1 0.2-0.5 0.5 0.4 0.3-0.2 1.4-1.3 2.5-1.1 1.1-1.8 2.4-1.5 3 0.3 0.6 0.1 1-0.5 1-0.5 0-0.8 0.4-0.5 1 0.3 0.6 0.1 1-0.5 1-0.5 0-0.8 0.4-0.5 1 0.3 0.6 0.1 1-0.5 1-0.5 0-0.8 0.4-0.5 1 0.3 0.6 0.1 1-0.5 1-0.5 0-0.8 0.4-0.5 1 0.3 0.6 0.1 1-0.5 1-0.5 0-0.8 0.4-0.5 1 0.3 0.6 0.1 1-0.5 1-0.5 0-0.8 0.4-0.5 1 0.3 0.6 0.1 1-0.5 1-0.5 0-0.8 0.4-0.5 1 0.3 0.6 0.1 1-0.5 1-0.5 0-0.8 0.4-0.5 1 0.3 0.6 0.1 1-0.5 1-0.6 0-0.7 0.8-0.3 1.8 0.6 1.3 0.5 1.5-0.7 0.7-1.2-0.8-1.3-0.6-0.7 0.8 0.4 0.9 0.3 1.7-0.3 1.7-0.5 0-0.8 0.4-0.5 1 0.3 0.6 0.1 1-0.5 1-0.6 0-0.7 0.8-0.3 1.8 0.6 1.3 0.5 1.5-0.7 0.7-1.2-0.8-1.3-0.6-0.7 0.8 0.4 0.9 0.3 1.7-0.3 1.7-0.5 0-0.8 0.7-0.5 1.5 0.3 0.8 0.1 1.5-0.5 1.5-0.5 0-0.8 0.4-0.5 1 0.3 0.6 0.1 1-0.5 1-0.5 0-0.8 0.7-0.5 1.5 0.3 0.8 0.1 1.5-0.5 1.5-0.5 0-0.8 0.7-0.5 1.5 0.3 0.8 0.1 1.5-0.5 1.5-0.5 0-0.8 0.7-0.5 1.5 0.3 0.8 0.1 1.5-0.5 1.5-0.5 0-0.8 0.7-0.5 1.5 0.3 0.8 0.1 1.5-0.5 1.5-0.5 0-0.8 0.7-0.5 1.5 0.3 0.8 0.1 1.5-0.5 1.5-0.5 0-0.8 0.9-0.5 2 0.3 1.1 0.1 2-0.5 2-0.5 0-0.8 0.7-0.5 1.5 0.3 0.8 0.1 1.5-0.5 1.5-0.5 0-0.8 0.9-0.5 2 0.3 1.1 0.1 2-0.5 2-0.5 0-0.8 1.1-0.5 2.5 0.4 1.8 0.2 2.3-0.7 1.8-0.9-0.6-1-0.1-0.5 2 0.4 1.6 0.3 2.7-0.3 2.7-0.5 0-0.8 1.1-0.5 2.5 0.3 1.4 0.1 2.5-0.5 2.5-0.6 0-0.7 1.3-0.3 3.3 0.5 2.6 0.4 3-0.7 2.2-1.1-0.8-1.3-0.3-0.7 2.8 0.5 2.7 0.4 3.5-0.5 3-0.9-0.6-1 0.4-0.5 4 0.4 2.9 0.3 4.7-0.3 4.7-0.6 0-0.8 2.2-0.5 5.5 0.3 3 0.2 5.5-0.2 5.5-0.5 0-0.8 9.9-0.8 21.9 0 13.3 0.4 21.7 0.9 21.3 0.6-0.4 0.7 1.6 0.3 5.1-0.4 3.6-0.3 5.7 0.3 5.7 0.6 0 0.8 1.7 0.5 4-0.3 2.3-0.1 4 0.5 4 0.6 0 0.8 1.3 0.5 3-0.3 1.7-0.1 3 0.5 3 0.6 0 0.7 1.3 0.3 3.3-0.6 2.6-0.5 3 0.7 2.2 1.1-0.8 1.3-0.5 0.7 1.8-0.4 1.6-0.3 2.7 0.3 2.7 0.6 0 0.8 1.1 0.5 2.5-0.3 1.4 0 2.5 0.5 2.5 0.6 0 0.8 0.9 0.5 2-0.3 1.1 0 2 0.5 2 0.6 0 0.8 0.9 0.5 2-0.3 1.1 0 2 0.5 2 0.6 0 0.8 0.7 0.5 1.5-0.3 0.8 0 1.5 0.5 1.5 0.6 0 0.8 0.9 0.5 2-0.3 1.1 0 2 0.5 2 0.6 0 0.7 0.9 0.3 2.3-0.6 1.8-0.4 2 0.7 1.2 1.1-0.8 1.2-0.5 0.5 1.5-0.7 2.1-0.6 2.3 0.5 1.5 1.2-0.8 1.3-0.6 0.7 0.8-0.4 0.9-0.3 1.7 0.3 1.7 0.6 0 0.7 1 0.3 2.3-0.5 1.8-0.4 2 0.7 1.2 1.2-0.8 1.3-0.6 0.7 0.8-0.4 0.9-0.3 1.7 0.3 1.7 0.6 0 0.8 0.7 0.5 1.5-0.3 0.8 0 1.5 0.5 1.5 0.6 0 0.7 0.8 0.3 1.8-0.6 1.3-0.5 1.5 0.7 0.7 1.2-0.8 1.3-0.6 0.7 0.8-0.4 0.9-0.3 1.7 0.3 1.7 0.6 0 0.8 0.5 0.5 1-0.3 0.5 0 1 0.5 1 0.6 0 0.8 0.7 0.5 1.5-0.3 0.8 0 1.5 0.5 1.5 0.6 0 0.8 0.5 0.5 1-0.3 0.5 0 1 0.5 1 0.6 0 0.8 0.5 0.5 1-0.3 0.5 0 1 0.5 1 0.6 0 0.7 0.8 0.3 1.8-0.5 1.2-0.4 1.5 0.5 1 0.8-0.5 1-0.3 0.6 0.5-0.3 0.6 0.2 2 1 3 0.9 0.9 1.3 1.9 0.9 2.2-0.3 0.3-0.1 0.5 0.5 0.5 0.7 0 1 0.5 0.7 1-0.3 0.5 0 1 0.5 1 0.6 0 0.8 0.5 0.5 1-0.3 0.5 0 1 0.5 1 0.6 0 0.8 0.5 0.5 1-0.3 0.5 0.4 1.9 1.5 3 1.1 1.1 1.7 2.2 1.3 2.5-0.3 0.3-0.1 0.5 0.5 0.5 0.7 0 1 0.5 0.7 1-0.3 0.5 0 1 0.5 1 0.6 0 0.8 0.5 0.5 1-0.3 0.5 0.3 1.8 1.3 2.8 0.9 1 1.8 2.5 2 3.3 0.2 0.8 1 1.9 1.7 2.4 0.8 0.5 1.1 1.3 0.7 1.7-0.4 0.4 0.1 1 1.1 1.3 0.9 0.3 1.5 1 1.2 1.5-0.3 0.5 0.7 2.1 2.3 3.5 1.5 1.4 2.3 2.6 1.7 2.6-0.5 0-0.2 0.4 0.8 0.9 0.9 0.6 1.5 1.5 1.2 2-0.3 0.5 0.2 1.2 1 1.5 0.8 0.3 1.3 1 1 1.5-0.3 0.5 0.4 1.5 1.5 2 1.1 0.5 1.9 1.4 1.8 1.9-0.2 0.5 0.6 1.7 1.7 2.6 1.1 0.9 1.3 1.4 0.5 1-0.8-0.3 0.1 0.8 2 2.6 1.9 1.7 2.8 2.8 2 2.5-0.8-0.4-0.1 0.5 1.5 1.9 1.6 1.5 2.3 2.4 1.5 2-0.8-0.3-0.5 0.3 0.8 1.4 1.2 1.2 2.7 1.9 3.2 1.6 0.6-0.3 0.7-2.1 0.3-4.5-0.7-3.3-0.5-4 0.7-4 1.2 0 1.4-0.9 0.8-5-0.6-3.7-0.5-5 0.5-5 0.8 0 1-0.8 0.5-3-0.5-1.8-0.4-3 0.2-3 0.6 0 0.8-1.1 0.5-2.5-0.3-1.4 0-2.5 0.5-2.5 0.6 0 0.8-1.1 0.5-2.5-0.3-1.4 0-2.5 0.5-2.5 0.6 0 0.8-0.9 0.5-2-0.3-1.1 0-2 0.5-2 0.6 0 0.7-1 0.3-2.2-0.5-1.9-0.4-2.1 0.7-1.3 1.1 0.8 1.3 0.6 0.7-1.2-0.4-1.4-0.3-2.3 0.3-2.3 0.6 0 0.8-0.7 0.5-1.5-0.3-0.8 0-1.5 0.5-1.5 0.6 0 0.8-0.7 0.5-1.5-0.3-0.8 0-1.5 0.5-1.5 0.6 0 0.8-0.7 0.5-1.5-0.3-0.8 0-1.5 0.5-1.5 0.6 0 0.8-0.7 0.5-1.5-0.3-0.8 0-1.5 0.5-1.5 0.6 0 0.8-0.5 0.5-1-0.3-0.5 0-1 0.5-1 0.6 0 0.8-0.7 0.5-1.5-0.3-0.8 0-1.5 0.5-1.5 0.6 0 0.8-0.5 0.5-1-0.3-0.5 0-1 0.5-1 0.6 0 0.8-0.7 0.5-1.5q-0.5-1.5 0.7-0.7c0.9 0.5 1 0.2 0.5-1-0.4-1-0.3-1.8 0.3-1.8 0.6 0 0.8-0.5 0.5-1-0.3-0.5 0-1 0.5-1 0.6 0 0.8-0.5 0.5-1-0.3-0.5 0.1-1 0.8-1 0.6 0 0.9-0.2 0.5-0.5-0.5-0.3 0.1-1.4 1.2-2.5 1.1-1.1 1.8-2.5 1.5-3-0.3-0.5 0-1 0.5-1 0.6 0 0.8-0.5 0.5-1-0.3-0.5 0-1 0.5-1 0.6 0 0.8-0.5 0.5-1-0.3-0.5 0.2-1.2 1-1.5 0.8-0.3 1.3-1 1-1.5-0.3-0.5 0.1-1 0.8-1 0.6 0 0.9-0.3 0.5-0.7-0.4-0.4-0.1-1.3 0.7-1.8 0.7-0.5 1.5-1.6 1.7-2.4 0.2-0.8 1.1-2.3 2.1-3.3 0.9-1 1.5-2.3 1.2-2.8-0.3-0.5 0.3-1.2 1.3-1.5 0.9-0.3 1.4-0.9 1-1.3-0.4-0.4 0.3-1.5 1.5-2.5 1.2-1 1.5-1.6 0.7-1.2-0.8 0.4-0.4-0.3 1-1.5 1.4-1.2 1.8-1.9 1-1.5-0.8 0.4-0.1-0.5 1.5-2 1.6-1.4 2.3-2.3 1.5-1.9-0.8 0.3 0.1-0.8 2-2.5 1.9-1.8 2.8-2.9 2-2.5-0.8 0.4 1-1.6 4-4.5 3-3 4.4-4.5 3-3.5-1.4 1 0.4-1.2 4-4.8 3.6-3.7 6.8-6.5 7.3-6.3 0.4 0.3 2.3-1.4 4.3-3.7 2.1-2.4 3.4-3.6 3-2.8-0.4 0.8 0.7-0.1 2.5-2 1.7-1.9 2.8-2.8 2.5-2-0.4 0.8 0.4 0.3 1.8-1.2 1.4-1.6 2.6-2.5 2.6-2 0 0.4 0.7-0.2 1.5-1.3 0.9-1.1 1.5-1.5 1.5-1 0 0.5 1-0.1 2.1-1.5 1.1-1.4 1.8-1.8 1.4-1-0.4 0.8 0.3 0.4 1.5-1 1.2-1.4 1.9-1.8 1.5-1-0.4 0.9-0.1 0.8 0.7-0.2 0.7-1 1.6-1.4 2-1 0.4 0.4 1-0.1 1.3-1 0.3-1 1-1.6 1.5-1.3 0.6 0.3 1 0 1-0.5 0-0.5 0.5-0.8 1-0.5 0.6 0.3 1.2-0.2 1.5-1 0.3-0.8 1-1.3 1.5-1 0.6 0.3 1 0 1-0.5 0-0.5 0.5-0.8 1-0.5 0.6 0.3 1 0 1-0.5 0-0.5 0.5-0.8 1-0.5 0.6 0.3 1 0 1-0.5 0-0.5 0.5-0.8 1-0.5 0.6 0.3 1 0 1-0.5 0-0.5 0.5-0.8 1-0.5 0.6 0.3 1 0 1-0.5 0-0.5 0.5-0.8 1-0.5 0.6 0.3 1 0 1-0.5 0-0.5 0.5-0.8 1-0.5 0.6 0.3 1 0 1-0.5 0-0.5 0.5-0.8 1-0.5 0.6 0.3 1 0 1-0.5 0-0.5 0.5-0.8 1-0.5 0.6 0.3 1 0 1-0.5 0-0.5 0.7-0.8 1.5-0.5 0.8 0.3 1.5 0 1.5-0.5 0-0.5 0.5-0.8 1-0.5 0.6 0.3 1 0 1-0.5 0-0.6 0.8-0.7 1.8-0.3 1.3 0.6 1.5 0.5 0.7-0.7-0.8-1.2-0.6-1.3 0.8-0.7 0.9 0.4 1.7 0.3 1.7-0.3 0-0.5 0.7-0.8 1.5-0.5 0.8 0.3 1.5 0 1.5-0.5 0-0.5 0.7-0.8 1.5-0.5 0.8 0.3 1.5 0 1.5-0.5 0-0.6 0.8-0.7 1.8-0.3 1.3 0.6 1.5 0.5 0.7-0.7-0.8-1.1-0.6-1.2 1.3-0.7 1.2 0.4 2.2 0.3 2.2-0.3 0-0.5 0.7-0.8 1.5-0.5 0.8 0.3 1.5 0 1.5-0.5 0-0.5 0.7-0.8 1.5-0.5 0.8 0.3 1.5 0 1.5-0.5 0-0.5 0.9-0.8 2-0.5 1.1 0.3 2 0 2-0.5 0-0.5 0.9-0.8 2-0.5 1.1 0.3 2 0 2-0.5 0-0.6 0.9-0.8 2-0.5 1.1 0.3 2 0.1 2-0.5 0-0.6 1.1-0.8 2.5-0.5 1.4 0.3 2.5 0.1 2.5-0.5 0-0.6 1.1-0.8 2.5-0.5 1.4 0.3 2.5 0.1 2.5-0.5 0-0.6 1.2-0.7 3-0.2 2.2 0.5 3 0.3 3-0.5 0-1 1.1-1.1 4.3-0.6 3.1 0.5 4 0.4 3.5-0.5-0.6-0.9 0.7-1 5.5-0.5 4.7 0.5 6 0.4 5.5-0.5-0.6-0.9 2.2-1.2 11.7-1.2 9.5 0 12.3 0.3 11.8 1.2-0.6 0.9 0.7 1 5.5 0.5 3.9-0.4 6.2-0.3 6.2 0.3 0 0.6 1.7 0.8 4 0.5 2.8-0.4 4-0.1 4 0.8 0 0.8 0.8 1 3 0.5 1.8-0.5 3-0.4 3 0.2 0 0.6 1.3 0.7 3.3 0.3 2.6-0.5 3-0.4 2.2 0.7-0.8 1.1-0.5 1.3 1.8 0.7 1.6-0.4 2.7-0.3 2.7 0.3 0 0.6 1.1 0.8 2.5 0.5 1.4-0.3 2.5-0.1 2.5 0.5 0 0.5 0.7 0.8 1.5 0.5 0.8-0.3 1.5 0 1.5 0.5 0 0.5 0.9 0.8 2 0.5 1.1-0.3 2 0 2 0.5 0 0.5 0.7 0.8 1.5 0.5 0.8-0.3 1.7 0 2 0.5 0.3 0.5 1 0.8 1.5 0.5 0.5-0.3 1 0 1 0.5 0 0.6 1 0.7 2.3 0.3 1.7-0.5 2-0.4 1.2 0.7-0.8 1.1-0.5 1.2 1.5 0.5 2.1-0.7 2.3-0.6 1.5 0.5-0.8 1.2-0.6 1.3 0.8 0.7 0.9-0.4 1.7-0.3 1.7 0.3 0 0.5 0.7 0.8 1.5 0.5 0.8-0.3 1.5 0 1.5 0.5 0 0.5 0.7 0.8 1.5 0.5 0.8-0.3 1.5 0 1.5 0.5 0 0.5 0.5 0.8 1 0.5 0.5-0.3 1 0 1 0.5 0 0.6 0.8 0.7 1.8 0.3 1.3-0.6 1.5-0.5 0.7 0.7-0.8 1.2-0.6 1.3 0.8 0.7 0.9-0.4 1.7-0.3 1.7 0.3 0 0.5 0.5 0.8 1 0.5 0.5-0.3 1 0 1 0.5 0 0.5 0.5 0.8 1 0.5 0.5-0.3 1-0.2 1 0.3-0.1 0.4 1.4 1.4 3.2 2.2 1.8 0.8 3.6 1.4 4.1 1.2 0.4-0.1 0.7 0.3 0.7 0.8 0 0.5 0.5 0.8 1 0.5 0.5-0.3 1 0 1 0.5 0 0.5 0.5 0.8 1 0.5 0.5-0.3 1 0 1 0.5 0 0.5 1.4 1.7 3 2.5 1.6 0.8 3 1.2 3 0.8 0-0.5 0.5 0 1 1 0.6 0.9 1.5 1.5 2 1.2 0.5-0.3 1.2 0.2 1.5 1 0.3 0.8 1 1.3 1.5 1 0.5-0.3 1.2 0.2 1.5 1 0.3 0.8 1 1.3 1.5 1 0.5-0.3 1.2 0.3 1.5 1.3 0.3 0.9 0.9 1.4 1.3 1 0.4-0.4 1.5 0.3 2.5 1.5 1 1.2 1.5 1.5 1.2 0.7-0.4-0.8 0.5-0.1 2 1.5 1.4 1.6 2.3 2.3 1.9 1.5-0.4-0.8 1 0.3 3.1 2.5 2 2.2 3.2 3.1 2.5 2-0.7-1.1 0.8 0.3 3.3 3 2.6 2.8 4.6 4.5 4.7 4 0-0.5 2.4 1.5 5.4 4.5 3.1 3 5.3 5.8 5.1 6.3-0.3 0.4 1.4 2.3 3.8 4.3 2.3 2.1 3.5 3.3 2.7 2.9-0.8-0.5-0.4 0.5 0.9 2.1 1.4 1.6 3.9 4.2 5.5 5.8 1.7 1.6 2.4 2.5 1.6 2.2-0.8-0.4-0.5 0.1 0.7 1.1 1.2 1 1.9 2.1 1.5 2.5-0.4 0.4 0.1 1 1.1 1.3 0.9 0.3 1.5 1 1.2 1.5-0.3 0.5 0.2 1.2 1 1.5 0.8 0.3 1.3 1 1 1.5-0.3 0.5 0.3 1.8 1.3 2.8 0.9 1 1.8 2.5 2 3.3 0.2 0.8 1 1.9 1.7 2.4 0.8 0.5 1.2 1.3 0.8 1.8-0.3 0.4-0.1 0.7 0.5 0.7 0.7 0 1.1 0.3 1.1 0.8-0.1 0.4-0.1 1.3 0 2 0 0.6 0.6 1 1.1 0.7 0.5-0.3 0.8 0.2 0.5 1-0.3 0.8 0.2 1.7 1 2 0.8 0.3 1.3 1 1 1.5-0.3 0.5 0 1 0.5 1 0.5 0 0.8 0.5 0.5 1-0.3 0.5 0 1 0.5 1 0.5 0 0.8 0.7 0.5 1.5-0.3 0.8 0.3 2.3 1.3 3.3 1 0.9 1.6 2.4 1.3 3.2-0.4 1.1-0.1 1.3 0.9 0.5 1.2-0.8 1.3-0.6 0.7 0.8-0.4 0.9-0.3 1.7 0.3 1.7 0.5 0 0.8 0.5 0.5 1-0.3 0.5 0 1 0.5 1 0.5 0 0.8 0.5 0.5 1-0.3 0.5 0 1 0.5 1 0.6 0 0.7 0.8 0.3 1.8-0.5 1.2-0.4 1.5 0.5 1q1.2-0.8 0.7 0.7c-0.3 0.8 0 1.5 0.5 1.5 0.6 0 0.7 0.8 0.3 1.8-0.5 1.2-0.4 1.5 0.5 1q1.2-0.8 0.7 0.7c-0.3 0.8 0 1.5 0.5 1.5 0.5 0 0.8 0.7 0.5 1.5-0.3 0.8 0 1.5 0.5 1.5 0.6 0 0.7 0.9 0.3 2.3-0.6 1.8-0.4 2 0.7 1.2 1.1-0.8 1.2-0.6 0.7 1.3-0.4 1.2-0.3 2.2 0.3 2.2 0.5 0 0.8 0.9 0.5 2-0.3 1.1 0 2 0.5 2 0.5 0 0.8 0.9 0.5 2-0.3 1.1 0 2 0.5 2 0.5 0 0.8 1.1 0.5 2.5-0.3 1.4 0 2.5 0.5 2.5 0.5 0 0.8 1.1 0.5 2.5-0.3 1.4 0 2.5 0.5 2.5 0.6 0 0.8 1.5 0.5 3.5-0.3 2-0.1 3.5 0.5 3.5 0.6 0 0.7 2 0.3 5.3-0.5 3.9-0.4 5 0.5 4.5 0.8-0.6 1.2 0.2 1.2 2.7 0 1.9 0.3 3.5 0.8 3.5 0.4 0.1 1.4-0.7 2.2-1.6 1.3-1.6 1.3-1.7 0-1-0.8 0.4-0.4-0.1 1-1.3 1.4-1.1 2.5-2.4 2.5-2.9 0-0.5 1.1-2 2.5-3.2 1.4-1.2 1.8-1.8 1-1.5-0.8 0.4-0.1-0.5 1.5-2 1.6-1.4 2.3-2.3 1.5-2-0.8 0.4-0.4-0.3 1-1.4 1.4-1.1 2-2 1.5-2-0.5 0 0.1-1 1.5-2.1 1.4-1.2 1.8-1.9 1-1.5-0.8 0.4-0.4-0.3 1-1.5 1.4-1.2 1.8-1.9 1-1.5-0.9 0.4-0.8 0.1 0.2-0.7 1-0.7 1.4-1.6 1-2-0.4-0.4 0.1-1 1.1-1.3 0.9-0.3 1.5-1 1.2-1.5-0.3-0.5 0.2-1.2 1-1.5 0.8-0.3 1.3-1 1-1.5-0.3-0.5 0-1 0.5-1 0.5 0 0.8-0.5 0.5-1-0.3-0.5 0.2-1.2 1-1.5 0.8-0.3 1.3-1 1-1.5-0.3-0.5 0-1 0.5-1 0.5 0 0.8-0.5 0.5-1-0.3-0.5 0.2-1.2 1-1.5 0.8-0.3 1.3-1 1-1.5-0.3-0.5 0.1-1 0.8-1 0.6 0 0.9-0.2 0.5-0.5-0.5-0.3 0.1-1.4 1.2-2.5 1.1-1.1 1.8-2.5 1.5-3-0.3-0.5 0-1 0.5-1 0.5 0 0.8-0.5 0.5-1-0.3-0.5 0-1 0.5-1 0.5 0 0.8-0.5 0.5-1-0.3-0.5 0-1 0.5-1 0.5 0 0.8-0.5 0.5-1-0.3-0.5 0-1 0.5-1 0.5 0 0.8-0.5 0.5-1-0.3-0.5 0-1 0.5-1 0.5 0 0.8-0.5 0.5-1-0.3-0.5 0-1 0.5-1 0.5 0 0.8-0.5 0.5-1-0.3-0.5 0-1 0.5-1 0.5 0 0.8-0.7 0.5-1.5-0.3-0.8 0-1.5 0.5-1.5 0.5 0 0.8-0.5 0.5-1-0.3-0.5 0-1 0.5-1 0.5 0 0.8-0.5 0.5-1-0.3-0.5 0-1 0.5-1 0.5 0 0.8-0.5 0.5-1-0.3-0.5 0-1 0.5-1 0.5 0 0.8-0.7 0.5-1.5-0.3-0.8 0-1.5 0.5-1.5 0.5 0 0.8-0.5 0.5-1-0.3-0.5 0-1 0.5-1 0.5 0 0.8-0.7 0.5-1.5-0.3-0.8 0-1.5 0.5-1.5 0.5 0 0.8-0.5 0.5-1-0.3-0.5 0-1 0.5-1 0.5 0 0.8-0.7 0.5-1.5-0.3-0.8 0-1.5 0.5-1.5 0.5 0 0.8-0.7 0.5-1.5-0.3-0.8 0-1.5 0.5-1.5 0.5 0 0.8-0.7 0.5-1.5-0.3-0.8 0-1.5 0.5-1.5 0.5 0 0.8-0.7 0.5-1.5-0.3-0.8 0-1.5 0.5-1.5 0.5 0 0.8-0.7 0.5-1.5-0.3-0.8 0-1.5 0.5-1.5 0.5 0 0.8-0.9 0.5-2-0.3-1.1 0-2 0.5-2 0.5 0 0.8-0.7 0.5-1.5-0.3-0.8 0-1.5 0.5-1.5 0.5 0 0.8-0.9 0.5-2-0.3-1.1 0-2 0.5-2 0.5 0 0.8-0.9 0.5-2-0.3-1.1 0-2 0.5-2 0.5 0 0.8-0.9 0.5-2-0.3-1.1 0-2 0.5-2 0.5 0 0.8-1.1 0.5-2.5-0.3-1.4 0-2.5 0.5-2.5 0.6 0 0.8-1.3 0.5-3-0.3-1.7-0.1-3 0.5-3 0.6 0 0.7-1.3 0.3-3.2-0.5-2.7-0.4-3.1 0.7-2.3 1.1 0.8 1.2 0.2 0.7-3.2-0.4-2.7-0.3-4.3 0.3-4.3 0.6 0 0.8-1.8 0.5-4.5-0.3-2.8-0.1-4.3 0.5-4 0.7 0.3 0.8-2.7 0.3-8.7-0.5-7.1-0.4-9.1 0.5-8.5 0.9 0.5 1.2-2 1.2-9.8 0-7.9-0.3-10.3-1.2-9.7-0.9 0.5-1-1.2-0.5-7 0.5-5 0.3-7.8-0.3-7.8-0.6 0-0.8-1.8-0.5-4.5 0.3-2.7 0.1-4.5-0.5-4.5-0.6 0-0.7-1.3-0.4-3.2 0.4-2 0.2-3.6-0.5-4-0.7-0.5-0.8-1.9-0.3-3.8 0.5-2.2 0.3-3-0.5-3-0.9 0-1.1-0.9-0.8-2.5 0.3-1.4 0-2.5-0.5-2.5-0.5 0-0.8-1.1-0.5-2.5 0.3-1.4 0-2.5-0.5-2.5-0.5 0-0.8-0.9-0.5-2 0.3-1.1 0-2-0.5-2-0.5 0-0.8-0.9-0.5-2 0.3-1.1 0-2-0.5-2-0.5 0-0.8-0.7-0.5-1.5 0.3-0.8 0-1.7-0.5-2-0.5-0.3-0.8-1.2-0.5-2 0.3-0.8 0-1.5-0.5-1.5-0.5 0-0.8-0.7-0.5-1.5 0.3-0.8 0-1.5-0.5-1.5-0.5 0-0.8-0.9-0.5-2 0.3-1.1 0.2-2-0.2-2-0.5 0-0.7-1.7-0.6-3.8 0.1-2 0.7-4.1 1.4-4.7 1-0.8 1.1-0.6 0.4 0.5-0.7 1-0.4 0.9 0.8-0.2 0.9-1 2.4-1.6 3.2-1.3 0.8 0.3 1.5 0.1 1.5-0.5 0-0.6 0.7-0.8 1.5-0.5 0.8 0.3 1.5 0.1 1.5-0.5 0-0.6 0.7-0.8 1.5-0.5 0.8 0.3 1.5 0.1 1.5-0.5 0-0.6 0.7-0.8 1.5-0.5 0.8 0.3 1.5 0.1 1.5-0.5 0-0.6 0.8-0.8 1.8-0.5 0.9 0.3 2 0 2.3-0.7 0.5-1 1.3-0.7 3 1 1.3 1.2 2.7 2.2 3.2 2.2 0.4 0 0.5 0.9 0.2 2-0.3 1.1 0 2 0.5 2 0.5 0 0.8 0.7 0.5 1.5-0.3 0.8 0 1.5 0.5 1.5 0.5 0 0.8 0.9 0.5 2-0.3 1.1 0 2 0.5 2 0.6 0 0.7 1 0.3 2.3-0.5 1.7-0.4 2 0.7 1.2 1.1-0.8 1.2-0.5 0.7 1.3-0.4 1.2-0.3 2.2 0.3 2.2 0.5 0 0.8 0.9 0.5 2-0.3 1.1 0 2.2 0.5 2.5 0.5 0.3 0.8 1.4 0.5 2.5-0.3 1.1 0 2 0.5 2 0.6 0 0.7 1.1 0.3 2.8-0.6 2.2-0.4 2.5 0.7 1.7 1.1-0.8 1.2-0.4 0.5 2.5-0.7 2.9-0.6 3.3 0.5 2.5 1.1-0.8 1.3-0.3 0.7 2.8-0.4 2.2-0.3 3.7 0.3 3.7 0.6 0 0.7 1.6 0.3 4.3-0.5 3.1-0.4 4 0.5 3.5 0.9-0.6 1.1 0.4 0.7 3.7-0.3 2.7-0.1 4.5 0.5 4.5 0.6 0 0.8 2.9 0.5 7.8-0.3 4.2-0.2 6.9 0.2 6 0.5-1 0.8 7.3 0.8 18.2 0 12.7-0.4 20-1 20-0.6 0-0.7 2.1-0.2 6 0.5 4.5 0.4 5.8-0.5 5.3-0.9-0.6-1 0.5-0.5 4.5 0.5 3.9 0.4 5-0.5 4.5-0.9-0.6-1 0.2-0.5 3 0.5 2.7 0.4 3.7-0.5 3.7-0.9 0-1.1 0.8-0.5 3 0.4 1.8 0.3 3-0.3 3-0.6 0-0.7 1.3-0.3 3.3 0.5 2.6 0.4 3-0.7 2.2-1.2-0.8-1.3-0.4-0.7 2.3 0.5 2.4 0.4 3-0.5 2.5-0.9-0.6-1-0.1-0.5 2 0.4 1.6 0.3 2.7-0.3 2.7-0.5 0-0.8 0.9-0.5 2 0.3 1.1 0 2-0.5 2-0.5 0-0.8 0.9-0.5 2 0.3 1.1 0 2-0.5 2-0.6 0-0.7 1-0.3 2.3 0.5 1.8 0.4 2-0.7 1.2-1.1-0.8-1.3-0.6-0.7 1.3 0.4 1.3 0.3 2.2-0.3 2.2-0.5 0-0.8 0.7-0.5 1.5 0.3 0.8 0 1.5-0.5 1.5-0.5 0-0.8 0.9-0.5 2 0.3 1.1 0 2-0.5 2-0.5 0-0.8 0.7-0.5 1.5 0.3 0.8 0 1.5-0.5 1.5-0.5 0-0.8 0.7-0.5 1.5 0.3 0.8 0 1.5-0.5 1.5-0.5 0-0.8 0.5-0.5 1 0.3 0.5 0 1-0.5 1-0.5 0-0.8 0.7-0.5 1.5 0.3 0.8 0 1.5-0.5 1.5-0.5 0-0.8 0.7-0.5 1.5 0.3 0.8 0 1.5-0.5 1.5-0.5 0-0.8 0.5-0.5 1 0.3 0.5 0 1-0.5 1-0.5 0-0.8 0.7-0.5 1.5 0.3 0.8 0 1.5-0.5 1.5-0.5 0-0.8 0.5-0.5 1 0.3 0.5 0 1-0.5 1-0.5 0-0.8 0.7-0.5 1.5 0.3 0.8 0 1.5-0.5 1.5-0.5 0-0.8 0.5-0.5 1 0.3 0.5 0 1-0.5 1-0.5 0-0.8 0.7-0.5 1.5q0.5 1.5-0.7 0.8c-0.9-0.6-1-0.3-0.5 1 0.4 0.9 0.3 1.7-0.3 1.7-0.5 0-0.8 0.5-0.5 1 0.3 0.5 0 1-0.5 1-0.5 0-0.8 0.5-0.5 1 0.3 0.5 0 1-0.5 1-0.5 0-0.8 0.5-0.5 1 0.3 0.5 0 1-0.5 1-0.5 0-0.8 0.5-0.5 1 0.3 0.5 0.2 1-0.2 1-0.5 0-1.9 2.3-3.3 5.2-1.4 2.8-2.4 5.6-2.2 6 0.1 0.4-0.3 0.8-0.8 0.8-0.5 0-0.8 0.5-0.5 1 0.3 0.5 0 1-0.5 1-0.5 0-0.8 0.5-0.5 1 0.3 0.5 0 1-0.5 1-0.5 0-0.8 0.5-0.5 1 0.3 0.5-0.2 1.2-1 1.5-0.8 0.3-1.3 1-1 1.5 0.3 0.5 0 1-0.5 1-0.5 0-0.8 0.5-0.5 1 0.3 0.5-0.2 1.2-1 1.5-0.8 0.3-1.3 1-1 1.5 0.3 0.5 0 1-0.5 1-0.5 0-1.7 1.1-2.5 2.5-0.8 1.4-1.6 3.1-1.7 3.7-0.2 0.7-1 1.8-1.8 2.5-0.8 0.7-1 1.2-0.5 1.3 0.5 0 0.1 0.6-1 1.5-1.1 0.8-1.5 1.4-1 1.4 0.5 0-0.1 1-1.5 2.1-1.4 1.2-1.8 1.9-1 1.5 0.8-0.4 0.6 0.1-0.5 1-1.1 0.9-2 2-2 2.6 0 0.5-0.7 1.4-1.5 1.9-0.8 0.5-1.5 1.3-1.5 1.9 0 0.5-1.1 1.9-2.5 3.1-1.4 1.2-1.8 1.8-1 1.5 0.8-0.4-0.3 1-2.5 3-2.2 2-3.3 3.3-2.5 2.9 0.8-0.4-0.5 1.2-3 3.5-2.5 2.4-3.6 3.8-2.5 3.1 1.1-0.7-1.4 1.9-5.5 5.8-4.1 3.9-7 7.1-6.5 7.1 0.5 0.1-0.6 1.6-2.5 3.5-1.9 2-3.8 3.3-4.2 3.1-0.5-0.3-3.3 2.3-6.5 5.8-3.1 3.4-5.1 5.3-4.4 4.2 0.7-1.1-0.6 0-2.9 2.5-2.3 2.5-3.9 3.8-3.5 3 0.3-0.8-0.8 0.1-2.6 2-1.7 1.9-2.8 2.8-2.5 2 0.4-0.8-0.4-0.3-1.8 1.3-1.4 1.5-2.8 2.5-3.1 2.2-0.3-0.3-2.2 1.2-4.2 3.3-2.1 2-3.3 3-2.8 2.2 0.6-0.9-0.4-0.6-2.3 0.8-1.7 1.2-3.2 2.7-3.2 3.2 0 0.5-0.5 0.8-1 0.5-0.5-0.3-1.2 0.2-1.5 1-0.3 0.8-1 1.3-1.5 1-0.5-0.3-1.2 0.2-1.5 1-0.3 0.8-1 1.3-1.5 1-0.5-0.3-1.2 0.2-1.5 1-0.3 0.8-1 1.3-1.5 1-0.5-0.3-1 0-1 0.5 0 0.5-0.5 0.8-1 0.5-0.5-0.3-1.2 0.2-1.5 1-0.3 0.8-1 1.3-1.5 1-0.5-0.3-1.9 0.4-3 1.5-1.1 1.1-2.2 1.7-2.5 1.3-0.3-0.5-0.5-0.2-0.5 0.5 0 0.6-0.5 1-1 0.7-0.5-0.3-1.9 0.4-3 1.5-1.1 1.1-2.2 1.7-2.5 1.3-0.3-0.5-0.5-0.2-0.5 0.5 0 0.6-0.5 1-1 0.7-0.5-0.3-1 0-1 0.5 0 0.5-0.5 0.8-1 0.5-0.5-0.3-1 0-1 0.5 0 0.5-0.5 0.8-1 0.5-0.5-0.3-1 0-1 0.5 0 0.5-0.5 0.8-1 0.5-0.5-0.3-1 0-1 0.5 0 0.5-0.5 0.8-1 0.5-0.5-0.3-1 0-1 0.5 0 0.5-0.5 0.8-1 0.5-0.5-0.3-1 0-1 0.5 0 0.5-0.5 0.8-1 0.5-0.5-0.3-1 0-1 0.5 0 0.6-0.8 0.7-1.7 0.3-1.4-0.6-1.6-0.5-0.8 0.7 0.8 1.2 0.6 1.3-0.7 0.7-1-0.4-1.8-0.3-1.8 0.3 0 0.5-0.5 0.8-1 0.5-0.5-0.3-1 0-1 0.5 0 0.5-0.5 0.8-1 0.5-0.5-0.3-1 0-1 0.5 0 0.5-0.7 0.8-1.5 0.5-0.8-0.3-1.5 0-1.5 0.5 0 0.5-0.5 0.8-1 0.5-0.5-0.3-1 0-1 0.5 0 0.5-0.7 0.8-1.5 0.5-0.8-0.3-1.5 0-1.5 0.5 0 0.6-0.8 0.7-1.7 0.3-1.3-0.5-1.6-0.4-1 0.5q0.7 1.2-0.8 0.7c-0.8-0.3-1.5 0-1.5 0.5 0 0.5-0.7 0.8-1.5 0.5-0.8-0.3-1.5 0-1.5 0.5 0 0.5-0.7 0.8-1.5 0.5-0.8-0.3-1.5 0-1.5 0.5 0 0.5-0.5 0.8-1 0.5-0.5-0.3-1.2 0-1.5 0.5-0.3 0.5-1.2 0.8-2 0.5-0.8-0.3-1.5 0-1.5 0.5 0 0.5-0.7 0.8-1.5 0.5-0.8-0.3-1.5 0-1.5 0.5 0 0.5-0.7 0.8-1.5 0.5-0.8-0.3-1.5 0-1.5 0.5 0 0.5-0.9 0.8-2 0.5-1.1-0.3-2 0-2 0.5 0 0.5-0.7 0.8-1.5 0.5-0.8-0.3-1.5 0-1.5 0.5 0 0.5-0.9 0.8-2 0.5-1.1-0.3-2 0-2 0.5 0 0.5-0.9 0.8-2 0.5-1.1-0.3-2 0-2 0.5 0 0.5-0.9 0.8-2 0.5-1.1-0.3-2 0-2 0.5 0 0.5-1.1 0.8-2.5 0.5-1.4-0.3-2.5 0-2.5 0.5 0 0.5-1.1 0.8-2.5 0.5-1.4-0.3-2.5 0-2.5 0.5 0 0.5-1.1 0.8-2.5 0.5-1.4-0.3-2.5 0-2.5 0.5 0 0.6-1.3 0.7-3.2 0.3-2.5-0.5-3.1-0.4-2.5 0.5 0.5 0.9-0.4 1.2-3 1.2-2.1 0-5.7 0-8 0-2.4 0-4.3 0.5-4.3 1 0 0.6-2.3 0.7-6.2 0.3-3.9-0.4-6.1-0.3-5.6 0.3 0.4 0.5-7.1 0.9-19.7 0.9-12.5 0-20.1-0.4-19.7-0.9 0.4-0.6-1.7-0.7-5.5-0.3-4.8 0.5-6.1 0.4-5.5-0.5 0.5-0.9-0.5-1-4-0.5-3 0.4-4.8 0.3-4.8-0.3 0-0.6-1.5-0.8-3.5-0.5-2 0.3-3.5 0.1-3.5-0.5 0-0.6-1.3-0.8-3-0.5-1.7 0.3-3 0.1-3-0.5 0-0.5-1.1-0.8-2.5-0.5-1.4 0.3-2.7 0-3-0.5-0.3-0.5-1.4-0.8-2.5-0.5-1.1 0.3-2 0-2-0.5 0-0.5-1.1-0.8-2.5-0.5-1.8 0.4-2.3 0.2-1.7-0.7 0.5-0.9 0-1-2-0.5-2.1 0.5-2.6 0.4-2-0.5 0.5-0.9 0.1-1-1.5-0.5-1.4 0.4-2.3 0.3-2.3-0.3 0-0.5-0.9-0.8-2-0.5-1.1 0.3-2 0-2-0.5 0-0.5-0.9-0.8-2-0.5-1.1 0.3-2 0-2-0.5 0-0.5-0.7-0.8-1.5-0.5-0.8 0.3-1.5 0-1.5-0.5 0-0.5-0.7-0.8-1.5-0.5-0.8 0.3-1.5 0-1.5-0.5 0-0.5-0.7-0.8-1.5-0.5-0.8 0.3-1.5 0-1.5-0.5 0-0.5-0.7-0.8-1.5-0.5-0.8 0.3-1.5 0-1.5-0.5 0-0.5-0.7-0.8-1.5-0.5-0.8 0.3-1.5 0-1.5-0.5 0-0.5-0.7-0.8-1.5-0.5-0.8 0.3-1.5 0-1.5-0.5 0-0.5-0.7-0.8-1.5-0.5-0.8 0.3-1.5 0-1.5-0.5 0-0.5-0.4-0.8-1-0.5-0.5 0.3-1 0-1-0.5 0-0.5-0.7-0.8-1.5-0.5q-1.5 0.5-0.7-0.7c0.5-0.9 0.2-1-1-0.5-1 0.4-1.8 0.3-1.8-0.3 0-0.5-0.7-0.8-1.5-0.5-0.8 0.3-1.5 0-1.5-0.5 0-0.5-0.4-0.8-1-0.5-0.5 0.3-1 0-1-0.5 0-0.5-0.7-0.8-1.5-0.5q-1.5 0.5-0.7-0.7c0.5-0.9 0.2-1-1-0.5-1 0.4-1.8 0.3-1.8-0.3 0-0.5-0.4-0.8-1-0.5-0.5 0.3-1 0-1-0.5 0-0.5-0.4-0.8-1-0.5-0.5 0.3-1 0-1-0.5 0-0.5-0.4-0.8-1-0.5-0.5 0.3-1 0.2-1-0.2 0-0.5-1.6-1.6-3.7-2.6-2.1-1-4.1-1.8-4.5-1.7-0.5 0-1.5-0.7-2.3-1.5-0.8-0.8-1.9-1.3-2.5-1-0.5 0.3-1 0-1-0.5 0-0.5-0.4-0.8-1-0.5-0.5 0.3-1 0-1-0.5 0-0.5-0.4-0.8-1-0.5-0.5 0.3-1 0-1-0.5 0-0.5-0.4-0.8-1-0.5-0.5 0.3-1.2-0.2-1.5-1-0.3-0.8-0.9-1.3-1.5-1-0.5 0.3-1-0.1-1-0.7 0-0.7-0.3-1-0.7-0.6-0.4 0.4-1.4 0-2.1-1-0.9-1-1.1-1.1-0.7-0.2 0.4 0.8-0.1 0.6-0.9-0.5-0.9-1.1-1.6-1.5-1.6-1 0 0.5-0.6 0.1-1.5-1-0.8-1.1-1.4-1.5-1.5-1 0 0.5-0.7 0.1-1.6-1-0.8-1.1-1.3-1.3-0.9-0.5 0.4 0.8-0.3 0.4-1.5-1-1.2-1.4-1.9-1.8-1.5-1 0.4 0.8-0.3 0.4-1.5-1-1.2-1.4-1.9-1.8-1.5-1 0.4 0.8-0.1 0.6-1-0.5-0.9-1.1-2.1-1.9-2.6-1.7-0.5 0.1-0.9-0.3-0.9-0.8 0-0.5-1.5-2-3.2-3.2-2-1.5-2.9-1.7-2.4-0.8 0.4 0.8-0.4 0.1-1.9-1.5-1.4-1.6-2.3-2.3-2-1.5 0.4 0.8-0.5 0.1-2-1.5-1.4-1.6-2.3-2.3-1.9-1.5 0.3 0.8-0.8-0.1-2.5-2-1.8-1.9-2.9-2.8-2.5-2 0.3 0.8-0.8-0.1-2.5-2-1.8-1.9-2.9-2.8-2.5-2 0.3 0.8-1.8-1-4.7-4.1-3-3.1-4.7-4.6-3.9-3.5 0.8 1.2-3.3-2.6-9-8.3-5.8-5.6-10.5-10.7-10.5-11.2 0-0.6-1.8-2.6-4-4.6-2.2-1.9-3.1-3-2-2.3 1.1 0.7 0.2-0.5-2-2.6-2.2-2.1-3.9-4.2-3.7-4.6 0.1-0.5-1.7-2.7-4-5-2.4-2.4-3.6-3.9-2.8-3.5 0.8 0.5 0.4-0.1-1-1.4-1.4-1.2-2.4-2.6-2.2-3 0.1-0.5-0.5-1.1-1.3-1.4-0.8-0.3-1.3-1-1-1.5 0.3-0.5-0.2-1.2-1-1.5-0.8-0.3-1.3-1-1-1.5 0.3-0.5-0.2-1.2-1-1.5-0.8-0.3-1.3-1-1-1.5 0.3-0.5-0.2-1.2-1-1.5-0.8-0.3-1.3-1-1-1.5 0.3-0.5-0.2-1.2-1-1.5-0.8-0.3-1.3-1-1-1.5 0.3-0.5-0.2-1.2-1-1.5-0.8-0.3-1.3-1-1-1.5 0.3-0.5 0.1-1-0.5-1-0.5 0-0.8-0.5-0.5-1 0.3-0.5-0.4-1.9-1.5-3-1.1-1.1-1.7-2.2-1.3-2.5 0.3-0.3 0.1-0.5-0.5-0.5-0.7 0-1-0.5-0.7-1 0.3-0.5-0.2-1.2-1-1.5-0.8-0.3-1.3-1-1-1.5 0.3-0.5 0.1-1-0.5-1-0.5 0-0.8-0.5-0.5-1 0.3-0.5 0.1-1-0.5-1-0.5 0-0.8-0.5-0.5-1 0.3-0.5 0.1-1-0.5-1-0.5 0-0.8-0.5-0.5-1 0.3-0.5 0.1-1-0.5-1-0.5 0-0.8-0.5-0.5-1 0.3-0.5 0.1-1-0.5-1-0.5 0-0.8-0.5-0.5-1 0.3-0.5 0.1-1-0.5-1-0.5 0-0.8-0.5-0.5-1 0.3-0.5 0.1-1-0.5-1-0.5 0-0.8-0.5-0.5-1 0.3-0.5 0.1-1-0.5-1-0.5 0-0.8-0.5-0.5-1 0.3-0.5 0.1-1-0.5-1-0.6 0-0.7-0.8-0.3-1.7 0.5-1.3 0.4-1.6-0.5-1q-1.2 0.7-0.7-0.8c0.3-0.8 0.1-1.5-0.5-1.5-0.5 0-0.8-0.5-0.5-1 0.3-0.5 0.1-1-0.5-1-0.5 0-0.8-0.5-0.5-1 0.3-0.5 0.1-1-0.5-1-0.5 0-0.8-0.7-0.5-1.5 0.3-0.8 0.1-1.5-0.5-1.5-0.5 0-0.8-0.5-0.5-1 0.3-0.5 0.1-1-0.5-1-0.6 0-0.7-0.8-0.3-1.7 0.5-1.3 0.4-1.6-0.5-1q-1.2 0.7-0.7-0.8c0.3-0.8 0.1-1.5-0.5-1.5-0.5 0-0.8-0.7-0.5-1.5 0.3-0.8 0.1-1.5-0.5-1.5-0.6 0-0.7-0.8-0.3-1.7 0.5-1.3 0.4-1.6-0.5-1q-1.2 0.7-0.7-0.8c0.3-0.8 0.1-1.5-0.5-1.5-0.5 0-0.8-0.7-0.5-1.5 0.3-0.8 0.1-1.5-0.5-1.5-0.5 0-0.8-0.7-0.5-1.5 0.3-0.8 0.1-1.5-0.5-1.5-0.5 0-0.8-0.7-0.5-1.5 0.3-0.8 0.1-1.5-0.5-1.5-0.6 0-0.7-1-0.3-2.2 0.5-1.8 0.4-2.1-0.7-1.3-1.1 0.8-1.2 0.5-0.7-1.2 0.4-1.3 0.3-2.3-0.3-2.3-0.5 0-0.8-0.7-0.5-1.5 0.3-0.8 0.1-1.5-0.5-1.5-0.5 0-0.8-0.9-0.5-2 0.3-1.1 0.1-2-0.5-2-0.5 0-0.8-0.9-0.5-2 0.3-1.1 0.1-2-0.5-2-0.5 0-0.8-0.9-0.5-2 0.3-1.1 0.1-2-0.5-2-0.5 0-0.8-1.1-0.5-2.5 0.3-1.4 0.1-2.5-0.5-2.5-0.5 0-0.8-1.1-0.5-2.5 0.3-1.4 0.1-2.5-0.5-2.5-0.5 0-0.8-1.1-0.5-2.5 0.3-1.4 0.1-2.5-0.5-2.5-0.6 0-0.7-1.5-0.3-3.7 0.5-2.8 0.4-3.6-0.5-3-0.9 0.5-1-0.4-0.5-3.5 0.6-3.5 0.5-4.1-0.7-3.3-1.1 0.8-1.2 0.1-0.7-4.2 0.4-3.3 0.3-5.3-0.3-5.3-0.6 0-0.7-2.5-0.2-7 0.5-5.4 0.4-7-0.5-7-1 0-1.3-3.6-1.3-14.5 0-10.9 0.3-14.5 1.3-14.5 0.9 0 1-1.8 0.5-7.5-0.6-5.7-0.5-7.5 0.5-7.5 0.9 0 1-1.2 0.5-5-0.6-3.8-0.5-4.8 0.4-4.2 0.9 0.5 1-0.4 0.5-3.5-0.5-3.2-0.4-4.3 0.6-4.3 0.8 0 1-0.8 0.5-3-0.6-2.1-0.4-3 0.5-3 0.8 0 1-0.8 0.5-3-0.5-1.8-0.4-3 0.2-3 0.6 0 0.8-1.1 0.5-2.5-0.3-1.4 0-2.5 0.5-2.5 0.6 0 0.8-1.1 0.5-2.5-0.4-1.8-0.2-2.3 0.7-1.7 0.9 0.5 1 0 0.5-2-0.4-1.7-0.3-2.8 0.3-2.8 0.6 0 0.8-0.9 0.5-2-0.3-1.1 0-2 0.5-2 0.6 0 0.7-1 0.3-2.2-0.5-1.9-0.4-2.1 0.7-1.3 1.1 0.8 1.3 0.6 0.7-1.2-0.4-1.4-0.3-2.3 0.3-2.3 0.6 0 0.7-1 0.3-2.2-0.5-1.8-0.4-2.1 0.7-1.3 1.1 0.8 1.2 0.5 0.7-1.2-0.4-1.3-0.3-2.3 0.3-2.3 0.6 0 0.8-0.7 0.5-1.5-0.3-0.8 0-1.5 0.5-1.5 0.6 0 0.8-0.7 0.5-1.5-0.3-0.8 0-1.5 0.5-1.5 0.6 0 0.8-0.7 0.5-1.5-0.3-0.8 0-1.5 0.5-1.5 0.6 0 0.8-0.7 0.5-1.5-0.3-0.8 0-1.5 0.5-1.5 0.6 0 0.8-0.4 0.5-1-0.3-0.6 0-1 0.5-1 0.6 0 0.8-0.7 0.5-1.5-0.3-0.8 0-1.5 0.5-1.5 0.6 0 0.8-0.7 0.5-1.5q-0.5-1.5 0.7-0.7c0.9 0.5 1 0.2 0.5-1-0.4-1-0.3-1.8 0.3-1.8 0.6 0 0.7-0.8 0.3-1.7-0.6-1.4-0.5-1.6 0.7-0.8 1.2 0.8 1.3 0.6 0.7-0.7-0.4-1-0.3-1.8 0.3-1.8 0.6 0 0.8-0.4 0.5-1-0.3-0.6 0-1 0.5-1 0.6 0 0.8-0.4 0.5-1-0.3-0.6 0-1 0.5-1 0.6 0 0.8-0.7 0.5-1.5q-0.5-1.5 0.7-0.7c0.9 0.5 1 0.2 0.5-1-0.4-1-0.3-1.8 0.3-1.8 0.6 0 0.8-0.4 0.5-1-0.3-0.6 0-1 0.5-1 0.6 0 0.8-0.4 0.5-1-0.3-0.6 0-1 0.5-1 0.6 0 0.8-0.4 0.5-1-0.3-0.6 0-1 0.5-1 0.6 0 0.8-0.4 0.5-1-0.3-0.6 0-1 0.5-1 0.6 0 0.8-0.4 0.5-1-0.3-0.6 0-1 0.5-1 0.6 0 0.8-0.4 0.5-1-0.3-0.6 0-1 0.5-1 0.6 0 0.8-0.4 0.5-1-0.3-0.6 0-1 0.5-1 0.6 0 0.8-0.4 0.5-1-0.3-0.6 0-1 0.5-1 0.6 0 1.5-0.9 2-2 0.8-1.5 0.7-1.9-0.2-1.4-0.7 0.3-0.5 0 0.4-0.8 1-0.7 1.4-1.7 1-2.1-0.4-0.4 0-0.7 0.8-0.7 0.8 0 1.2-0.3 0.8-0.7-0.4-0.4 0-1.4 1-2.1 1-0.9 1.1-1.1 0.2-0.7-0.8 0.4-0.6-0.1 0.5-0.9 1.1-0.9 1.6-1.6 1-1.6-0.5-0.1-0.2-0.5 0.8-1 0.9-0.6 1.5-1.4 1.2-2-0.3-0.6 0-1 0.5-1 0.6 0 0.9-0.4 0.8-0.9-0.2-0.5 0.6-1.7 1.7-2.6 1.1-0.9 1.3-1.4 0.5-1-0.8 0.4-0.4-0.3 1-1.5 1.4-1.2 1.8-1.9 1-1.5-0.8 0.4-0.4-0.3 1-1.5 1.4-1.2 1.8-1.9 1-1.5-0.8 0.4-0.4-0.3 1-1.4 1.4-1.1 2.1-2 1.5-2-0.5 0 0.1-1 1.5-2.1 1.4-1.2 1.8-1.8 1-1.5-0.8 0.4-0.1-0.5 1.5-2 1.6-1.4 2.3-2.3 1.5-2-0.8 0.4-0.4-0.2 1-1.4 1.4-1.1 2.5-2.4 2.5-2.9 0-0.5 1.4-2.1 3-3.6 1.6-1.5 2.3-2.4 1.5-2-0.8 0.4 0.5-1.2 3-3.5 2.5-2.4 3.6-3.7 2.5-3-1.1 0.7 0.9-1.4 4.5-4.7 3.6-3.4 10.5-10.3 15.5-15.5 4.9-5.2 8.3-8.5 7.5-7.3-0.8 1.1 0.7-0.2 3.4-3 2.8-2.8 4.4-4.2 3.7-3.1-0.8 1.1-0.1 0.6 1.4-1 1.6-1.6 3.2-3 3.7-3 0.5 0 1.8-1.1 2.9-2.5 1.2-1.4 1.8-1.8 1.4-1-0.4 0.8 0.2 0.5 1.2-0.7 1-1.2 2-2 2.3-1.7 0.3 0.2 1.9-0.8 3.7-2.3 1.8-1.5 3.5-2.6 3.8-2.3 0.2 0.3 0.7-0.3 1-1.2 0.3-1 1-1.6 1.5-1.3 0.6 0.3 1.2-0.2 1.5-1 0.3-0.8 1-1.3 1.5-1 0.6 0.3 1.4-0.3 2-1.2 0.5-1 0.9-1.4 1-0.8 0 0.6 0.7 0.1 1.6-1 0.8-1.1 1.3-1.3 0.9-0.5-0.4 0.9-0.2 0.8 0.7-0.2 0.7-1 1.6-1.4 2-1 0.4 0.4 1-0.1 1.3-1 0.3-1 1-1.6 1.5-1.3 0.6 0.3 1 0.1 1-0.5 0-0.6 0.5-0.8 1-0.5 0.6 0.3 1 0.1 1-0.5 0-0.6 0.5-0.8 1-0.5 0.6 0.3 1.9-0.4 3-1.5 1.1-1.1 2.2-1.7 2.5-1.2 0.3 0.4 0.5 0.1 0.5-0.5 0-0.7 0.5-1.1 1-0.8 0.6 0.3 1 0.1 1-0.5 0-0.6 0.5-0.8 1-0.5 0.6 0.3 1 0.1 1-0.5 0-0.6 0.5-0.8 1-0.5 0.6 0.3 1 0.1 1-0.5 0-0.6 0.5-0.8 1-0.5 0.6 0.3 1 0.1 1-0.5 0-0.6 0.5-0.8 1-0.5 0.6 0.3 1 0.1 1-0.5 0-0.6 0.5-0.8 1-0.5 0.6 0.3 1 0.1 1-0.5 0-0.6 0.5-0.8 1-0.5 0.6 0.3 1 0.1 1-0.5 0-0.6 0.5-0.8 1-0.5 0.6 0.3 1 0.1 1-0.5 0-0.6 0.5-0.8 1-0.5 0.6 0.3 1 0.1 1-0.5 0-0.6 0.8-0.7 1.8-0.3 1.2 0.5 1.5 0.4 1-0.5q-0.8-1.2 0.7-0.7c0.8 0.3 1.5 0.1 1.5-0.5 0-0.6 0.5-0.8 1-0.5 0.6 0.3 1 0.1 1-0.5 0-0.6 0.8-0.7 1.8-0.3 1.3 0.6 1.5 0.5 0.7-0.7-0.8-1.2-0.6-1.3 0.8-0.7 0.9 0.4 1.7 0.3 1.7-0.3 0-0.6 0.5-0.8 1-0.5 0.6 0.3 1 0.1 1-0.5 0-0.6 0.7-0.8 1.5-0.5 0.8 0.3 1.5 0.1 1.5-0.5 0-0.6 0.7-0.8 1.5-0.5 0.8 0.3 1.5 0.1 1.5-0.5 0-0.6 0.5-0.8 1-0.5 0.6 0.3 1 0.1 1-0.5 0-0.6 0.7-0.8 1.5-0.5 0.8 0.3 1.5 0.1 1.5-0.5 0-0.6 0.7-0.8 1.5-0.5 0.8 0.3 1.5 0.1 1.5-0.5 0-0.6 0.7-0.8 1.5-0.5 0.8 0.3 1.5 0.1 1.5-0.5 0-0.6 0.7-0.8 1.5-0.5 0.8 0.3 1.5 0.1 1.5-0.5 0-0.6 0.7-0.8 1.5-0.5 0.8 0.3 1.5 0.1 1.5-0.5 0-0.6 0.7-0.8 1.5-0.5 0.8 0.3 1.5 0.1 1.5-0.5 0-0.6 0.9-0.8 2-0.5 1.1 0.3 2 0.1 2-0.5 0-0.6 0.7-0.8 1.5-0.5 0.8 0.3 1.7 0.1 2-0.5 0.3-0.6 1.2-0.8 2-0.5 0.8 0.3 1.5 0.1 1.5-0.5 0-0.6 0.9-0.8 2-0.5 1.1 0.3 2 0.1 2-0.5 0-0.6 1.1-0.8 2.5-0.5 1.4 0.3 2.5 0.1 2.5-0.5 0-0.6 1.1-0.7 2.8-0.3 2 0.5 2.5 0.4 2-0.5-0.6-0.9-0.1-1.1 1.7-0.7 1.4 0.3 2.5 0.1 2.5-0.5 0-0.6 1.1-0.8 2.5-0.5 1.4 0.3 2.5 0.1 2.5-0.5 0-0.6 1.3-0.8 3-0.5 1.7 0.3 3 0.1 3-0.5 0-0.6 1.7-0.8 4-0.5 2.3 0.3 4 0.1 4-0.5 0-0.6 1.7-0.7 4.5-0.2 3.4 0.5 4.5 0.4 4.5-0.5 0-1 1.4-1.1 5.3-0.6 3.1 0.3 5.5 0.2 5.8-0.4 0.4-0.6 8-1 19.7-0.9zm-0.8 82.1q3 0 3.5 1.8c0.3 0.9 1 1.5 1.5 1.2 0.6-0.3 1 6.2 1 37.5l-2.5 2.5c-1.4 1.4-3.2 2.5-4 2.5-0.8 0-1.3-0.4-1-1 0.3-0.6-0.3-1.2-1.2-1.5-1.6-0.4-1.8-2.3-1.8-20.9 0-11.2 0.3-20.2 0.8-20 0.4 0.2 0.7-0.2 0.7-0.8 0-0.8 1.3-1.3 3-1.3zm-199 207c17.3 0 19.1 0.2 19.5 1.8 0.3 0.9 1 1.5 1.5 1.2 0.6-0.3 1 0.6 1 2 0 1.4-0.3 2.3-0.7 2.1-0.5-0.2-1.4 0.2-2 1-0.7 0.8-1.1 1.5-0.9 1.7 0.2 0.1-8 0.2-18.4 0.2-10.3 0-18.6-0.3-18.4-0.7 0.2-0.5-0.2-1.2-0.8-1.8-0.7-0.5-1.7-0.7-2.1-0.2-0.4 0.4-0.7-0.5-0.7-2 0-1.6 0.5-2.6 1-2.3 0.6 0.3 1.2-0.3 1.5-1.2 0.4-1.6 2.2-1.8 19.5-1.8zm398.8 0c16.5 0 18.3 0.2 18.7 1.8 0.3 0.9 1 1.5 1.5 1.2 0.5-0.3 0.9 0.5 0.8 1.8-0.2 1.2-1 2.9-1.8 3.7-1.2 1.2-4.8 1.5-19.5 1.5-14.7 0-18.3-0.3-19.5-1.5-0.8-0.8-1.5-2.4-1.5-3.5 0-1.1 0.7-2.7 1.5-3.5 1.2-1.2 4.9-1.5 19.8-1.5z"/><path class="e" d="m297.5 309.3l-8 8.2c12.8-12.4 16.5-16.1 16.5-16.3 0-0.1-0.1-0.2-0.3-0.2-0.1 0-3.8 3.7-8.2 8.2zm208.9 16.3c0 10.4 0.2 14.5 0.3 9 0.2-5.5 0.2-14.1 0-19-0.1-4.9-0.3-0.4-0.3 10zm278 193c0 5.5 0.1 7.5 0.3 4.5 0.2-3 0.2-7.5 0-10-0.2-2.5-0.3 0-0.3 5.5z"/><path class="a" d="m507 516.1c1.7 0.6-0.4 0.8-6.6 0.6-5.7-0.1-8.9 0.2-8.5 0.8 0.4 0.5-0.8 0.6-3.2 0.2-2.4-0.5-4.2-0.3-5.1 0.5-1.2 1.1 0.9 3.8 13.3 16.8 12.9 13.4 15.1 15.3 16.5 14.2 0.9-0.6 1.4-1.7 1.1-2.2-0.3-0.5-0.1-0.9 0.4-0.8 0.6 0.2 6.8-5.8 13.9-13.2 7.4-7.7 12.4-13.6 11.6-13.8-0.8-0.1-1.2-0.7-0.9-1.2 0.3-0.6-1.2-0.8-4.3-0.3-3.5 0.5-4.5 0.4-4-0.5 0.6-0.9-0.9-1-6.5-0.5-5.5 0.5-7 0.4-6.5-0.5 0.6-0.9-1-1.2-6.5-1.1-5.4 0.1-6.6 0.3-4.7 1zm-44 5.9c0 0.6-1 0.7-2.3 0.3-1.8-0.5-2-0.4-1.2 0.7 0.8 1.1 0.6 1.3-1.3 0.7-1.3-0.4-2.2-0.3-2.2 0.3 0 0.5-0.7 0.8-1.5 0.5-0.8-0.3-1.5 0-1.5 0.5 0 0.6-1 0.7-2.3 0.3-1.7-0.5-2-0.4-1.2 0.7 0.8 1.1 0.5 1.2-1.5 0.5-2-0.7-2.3-0.6-1.5 0.5 0.8 1.1 0.5 1.2-1.5 0.5-2.1-0.7-2.3-0.6-1.5 0.5 0.8 1.2 0.6 1.3-0.8 0.7-0.9-0.4-1.7-0.3-1.7 0.3 0 0.5-0.7 0.8-1.5 0.5-0.8-0.3-1.5 0-1.5 0.5 0 0.5-0.4 0.8-1 0.5-0.6-0.3-1 0-1 0.5 0 0.5-0.7 0.8-1.5 0.5-0.8-0.3-1.5 0-1.5 0.5 0 0.5-0.4 0.8-1 0.5-0.6-0.3-1 0-1 0.5 0 0.5-0.4 0.8-1 0.5-0.6-0.3-1 0-1 0.5 0 0.5-0.7 0.8-1.5 0.5q-1.5-0.5-0.8 0.7c0.6 0.9 0.3 1-1 0.5-1.2-0.5-1.5-0.3-1 0.5 0.6 0.9 0.3 1-1 0.5-1-0.4-1.5-0.3-1.2 0.3 0.3 0.5-0.1 1.1-0.8 1.1-0.6 0.1-1.5 0.1-2 0-0.4 0-0.7 0.4-0.7 0.9 0 0.5-0.4 0.8-1 0.5-0.6-0.3-1.2 0.4-1.5 1.5-0.3 1.1 0.1 2.4 0.7 3 0.7 0.5 1.5 0.8 1.8 0.5 0.3-0.3 11.6 10.7 25.2 24.3l24.8 24.7c4.9-5.4 12.4-13.2 19.9-20.7l13.6-13.8c-27.1-27.5-35.6-35.6-36.3-35.8-0.6-0.1-1.2-0.7-1.2-1.2 0-0.5-0.4-1-1-1-0.6 0-1 0.5-1 1zm83 12.5c-7.4 7.4-13.7 13.2-14 12.9-0.3-0.2-3 2.1-6 5.2l-5.5 5.6 35.5 36.3c20.1-20.1 25.7-26.2 25.5-26.5-0.2-0.3 3.7-4.7 8.8-9.8 5.1-5.1 9.4-9 9.7-8.8 0.3 0.3 2.7-1.7 5.5-4.6 2.7-2.8 4.4-4.8 3.7-4.4-0.6 0.3-1.2 0.1-1.2-0.4 0-0.5-0.5-0.8-1-0.5-0.5 0.3-1 0-1-0.5 0-0.5-0.5-0.8-1-0.5-0.5 0.3-1 0-1-0.5 0-0.5-0.5-0.8-1-0.5-0.5 0.3-1 0-1-0.5 0-0.5-0.5-0.8-1-0.5-0.5 0.3-1 0-1-0.5 0-0.5-0.5-0.8-1-0.5-0.5 0.3-1 0-1-0.5 0-0.5-0.5-0.8-1-0.5-0.5 0.3-1.7 0.3-2.5 0-0.8-0.3-1.3-1-1-1.5 0.3-0.5-0.2-0.8-1-0.5-0.8 0.3-1.5 0-1.5-0.5 0-0.5-0.5-0.8-1-0.5-0.5 0.3-1 0-1-0.5 0-0.5-0.7-0.8-1.5-0.5-0.8 0.3-1.5 0-1.5-0.5 0-0.6-0.8-0.7-1.8-0.3-1.3 0.6-1.5 0.5-0.7-0.7 0.8-1.2 0.6-1.3-0.8-0.7-0.9 0.4-1.7 0.3-1.7-0.3 0-0.5-0.7-0.8-1.5-0.5-0.8 0.3-1.5 0-1.5-0.5 0-0.5-0.7-0.8-1.5-0.5-0.8 0.3-1.5 0-1.5-0.5 0-0.5-0.7-0.8-1.5-0.5-0.8 0.3-1.5 0-1.5-0.5 0-0.6-0.9-0.7-2.3-0.3-1.8 0.6-2 0.4-1.2-0.7 0.8-1.1 0.6-1.2-1.3-0.7-1.2 0.4-2.2 0.3-2.2-0.3 0-0.5-0.9-0.8-2-0.5-1.1 0.3-2 0-2-0.5 0-0.5-0.3-1-0.8-1-0.4 0-6.8 6.1-14.2 13.5zm-143.4 14.2c-1.4 1.3-1.7 1.4-1.2 0.3 0.4-0.8-0.2-0.4-1.3 1-1.1 1.4-2 2-2 1.5 0-0.5-1 0.1-2.1 1.5-1.2 1.4-1.9 1.8-1.5 1 0.4-0.8-0.2-0.4-1.4 1-1.1 1.4-2.4 2.5-2.9 2.5-0.5 0-2.1 1.4-3.6 3-1.5 1.6-2.5 2.3-2.1 1.5 0.4-0.8-1.1 0.6-3.4 3.2-2.3 2.7-4.4 4.6-4.8 4.3-0.5-0.2-2.6 1.5-4.8 3.8l-4 4.2 9-8-9 9.5c3.9 4.3 3.5 4.1 1.8 2.3-1.8-1.8-3.3-3-3.3-2.6 0 0.5 1.7 2.5 3.7 4.6 2.1 2 4.2 3.4 4.7 3 0.5-0.5 0.6-0.3 0.3 0.2-0.3 0.5 2.1 3.7 5.5 7 3.3 3.3 5.7 5.3 5.2 4.5-0.6-1.1-0.5-1.3 0.4-0.8 0.6 0.5 1 1.1 0.7 1.5-0.3 0.5 1.8 3.1 4.7 6 2.9 2.9 5.7 4.9 6.3 4.5 0.5-0.4 0.7-0.3 0.3 0.3-0.4 0.5 0.3 2 1.5 3.3 1.2 1.2 2.6 1.9 3.1 1.5 0.5-0.5 0.6-0.3 0.3 0.2-0.3 0.5 2.1 3.7 5.4 7 3.2 3.3 5.9 5.5 5.9 5 0-0.5 2.2 1.2 4.9 4 2.8 2.7 4.8 5.3 4.6 5.7-0.3 0.5 0.1 1.1 0.8 1.5 0.6 0.3 1 0.3 0.7 0-0.3-0.4 4.4-5.6 10.4-11.5 6-5.9 13.8-13.7 17.5-17.4l6.6-6.6c-7-7.2-9.4-8.9-9.8-8.5-0.5 0.5-0.7 0.1-0.5-0.7 0.1-0.8-0.3-1.4-0.9-1.3-0.7 0.2-1.1 0-0.9-0.5 0.3-0.4-5-6.2-11.7-13-6.7-6.7-12.6-11.9-13-11.5-0.5 0.4-0.7 0.1-0.5-0.7 0.2-0.8-0.3-1.4-0.9-1.3-0.7 0.2-1.1 0-0.8-0.5 0.2-0.4-3.3-4.4-7.8-9-7.9-7.9-8.3-8.2-10.1-6.5zm213.7 3.3c-2.6 2.7-5 4.7-5.3 4.5-0.3-0.2-1.9 1-3.5 2.8l-3 3.2 7-6c-5.4 5.8-7.5 7.1-8 6.8-0.5-0.3-0.6-0.2-0.2 0.3 0.4 0.5-7.9 9.5-18.5 20.1-10.6 10.6-19.1 19.5-18.8 19.7 0.3 0.3 7.9 8 17 17.1l16.5 16.5c11.3-11.2 14.5-14 14.5-13.5 0 0.5 4-3 8.9-8 5-5 8.8-9.2 8.6-9.5-0.2-0.3 5.4-6.4 12.5-13.5 12.3-12.4 12.9-13.1 11.2-14.8-0.9-1-1.2-1.7-0.7-1.7 0.5 0-1-2-3.5-4.4-2.5-2.5-4.8-4.3-5.2-4.1-0.5 0.3-2.7-1.6-5-4.3-2.2-2.6-3.5-3.8-2.8-2.7 0.7 1.1-0.7 0-3.1-2.5-2.3-2.5-3.9-3.8-3.5-3 0.4 0.8-0.2 0.4-1.4-1-1.1-1.4-2.1-2-2.1-1.5 0 0.5-0.9-0.1-2-1.5-1.1-1.4-1.8-1.8-1.4-1 0.4 0.8-0.2 0.5-1.3-0.7l-2-2.2zm-121.6 33.8l-16.7 16.7 34.7 35 34.2-34c-26.7-26.7-34.7-34.5-35-34.5-0.3 0-8 7.5-17.2 16.8zm-137.3 3.4c-0.5 0.7-1 2-1.1 2.8-0.2 0.8-1.5 2.6-3.1 3.9-1.5 1.3-2.1 2-1.3 1.6 0.9-0.4 0.4 0.3-1 1.5-1.3 1.2-1.8 1.9-1 1.5 0.9-0.4 0.4 0.3-1 1.5-1.3 1.2-1.8 1.9-1 1.5 1.4-0.6 1.4-0.5 0 0.7-0.8 0.7-1.6 2-1.8 2.8-0.1 0.8-1 2.1-2 2.8-0.9 0.7-1.2 1.2-0.7 1.2 0.6 0 0.1 0.7-1 1.6-1.1 0.8-1.4 1.3-0.7 1 0.9-0.4 1-0.1 0.2 1.4-0.5 1.1-1.4 2-2 2-0.5 0-0.7 0.5-0.5 1 0.3 0.6 0.1 1-0.5 1-0.5 0-0.9 0.3-0.9 0.8 0.1 0.4 0.1 1.3 0 2 0 0.6-0.5 1-1.1 0.7-0.5-0.3-0.7 0.2-0.5 1 0.3 0.8-0.1 1.7-1 2q-1.5 0.5-0.7 2.3c0.5 1.2 0.3 1.5-0.5 1q-1.3-0.8-0.8 0.7c0.3 0.8 0.1 1.5-0.5 1.5-0.5 0-0.7 0.5-0.5 1 0.3 0.6 0.1 1-0.5 1-0.5 0-0.7 0.5-0.5 1 0.3 0.6 0.1 1-0.5 1-0.5 0-0.7 0.8-0.2 1.8 0.5 1.3 0.4 1.5-0.8 0.7-1.1-0.8-1.3-0.6-0.7 0.8 0.4 0.9 0.3 1.7-0.3 1.7-0.5 0-0.7 0.7-0.5 1.5 0.3 0.8 0.1 1.5-0.5 1.5-0.5 0-0.7 0.7-0.5 1.5 0.3 0.8 0.1 1.5-0.5 1.5-0.5 0-0.7 0.7-0.5 1.5 0.3 0.8 0.1 1.5-0.5 1.5-0.5 0-0.7 0.7-0.5 1.5 0.3 0.8 0.1 1.5-0.5 1.5-0.5 0-0.7 0.7-0.5 1.5 0.3 0.8 0.1 1.5-0.5 1.5-0.5 0-0.7 0.9-0.5 2 0.3 1.1 0.1 2-0.5 2-0.5 0-0.7 0.9-0.5 2 0.3 1.1 0.1 2-0.5 2-0.6 0-0.7 1.1-0.3 2.8 0.6 2.2 0.5 2.5-0.6 1.7-1.2-0.8-1.3-0.4-0.6 2.5 0.7 2.9 0.6 3.3-0.5 2.5-1.1-0.8-1.2-0.4-0.6 2.3 0.4 1.9 0.2 3.2-0.4 3.2-0.6 0-0.7 2-0.3 5.3 0.4 3.2 0.4 5-0.2 4.6-0.6-0.4-0.9 3.4-0.7 10 0.2 9.5 0.5 10.9 2.5 12.8 1.2 1.3 2.6 2 3 1.8 0.4-0.3 3.3 2.4 6.5 6 4 4.4 6.2 6.2 7.2 5.7 1.2-0.5 1.3-0.3 0.6 0.8-0.5 0.8 0.5 0.2 2.2-1.5 1.8-1.6 3-3.3 2.7-3.7-0.3-0.5 14.1-15.1 32-32.5 17.8-17.5 32.1-32.2 31.7-32.8-0.4-0.5-0.2-0.7 0.3-0.3 0.6 0.4 3.1-1.3 5.5-3.7l4.5-4.5c-40.3-40.2-52.4-51.8-53-51.7-0.5 0.1-0.9-0.2-0.8-0.8 0.2-0.5-0.8-2-2-3.3-1.8-1.9-2.5-2.1-3.2-1zm297.7 10.4c-7.3 6.8-10.9 10.8-10.4 11.7 0.4 0.7 0.3 0.9-0.3 0.5-0.5-0.4-5.8 4.3-11.7 10.3-5.9 6.1-10.8 11.4-11 12-0.1 0.5-0.7 0.9-1.3 0.9-0.5 0.1-3.6 2.6-6.7 5.8l-5.8 5.7c7.4 7.3 9.9 9.2 10.3 9 0.4-0.3 0.6-0.2 0.5 0.3-0.2 0.4 14.6 15.6 32.7 33.8 18.2 18.1 29.4 29.1 25 24.5l-8-8.6c14.3 14 18.2 18.3 18 18.8-0.3 0.4 0.1 1 0.8 1.4 0.7 0.5 1 0.4 0.6-0.2-0.3-0.5 1.3-2.6 3.5-4.5 3-2.5 3.6-2.8 2.2-1-1.1 1.4 1.7-1.3 6.2-6l8.1-8.5c0.1-10.8-0.2-12.3-1-11.7-0.9 0.5-1-1-0.5-6 0.5-5.1 0.3-6.6-0.6-6-0.9 0.5-1-0.3-0.5-3 0.5-2.7 0.4-3.8-0.5-3.8-0.9 0-1.1-0.8-0.5-3 0.5-2.2 0.4-2.8-0.5-2.2-0.8 0.5-1-0.1-0.7-2 0.2-1.5 0.1-2.8-0.3-2.8-0.4 0-0.5-1.1-0.3-2.5 0.4-1.8 0.2-2.3-0.7-1.7-0.8 0.5-0.9 0.1-0.5-1.5 0.4-1.3 0.3-2.3-0.3-2.3-0.5 0-0.7-1-0.3-2.2 0.6-1.8 0.4-2.1-0.7-1.3-1.1 0.8-1.2 0.5-0.7-1.2 0.4-1.3 0.3-2.3-0.3-2.3-0.5 0-0.7-0.7-0.5-1.5q0.5-1.5-0.7-0.7c-0.8 0.5-0.9 0.1-0.3-1.8 0.7-2 0.6-2.3-0.5-1.5-1.1 0.8-1.3 0.6-0.7-0.7 0.4-1 0.3-1.8-0.3-1.8-0.5 0-0.7-0.8-0.2-1.7 0.5-1.4 0.4-1.6-0.8-0.8-1.1 0.8-1.3 0.6-0.7-0.7 0.4-1 0.3-1.8-0.3-1.8-0.5 0-0.7-0.7-0.5-1.5q0.5-1.5-0.7-0.7c-0.9 0.5-1 0.2-0.5-1 0.4-1 0.3-1.8-0.3-1.8-0.5 0-0.7-0.4-0.5-1 0.3-0.5 0.1-1-0.5-1-0.5 0-0.7-0.4-0.5-1 0.3-0.5 0.1-1-0.5-1-0.5 0-0.7-0.4-0.5-1 0.3-0.5 0.1-1-0.5-1-0.5 0-0.7-0.4-0.5-1 0.3-0.5 0.1-1-0.5-1-0.5 0-0.7-0.4-0.5-1 0.3-0.5 0.1-1-0.5-1-0.5 0-0.7-0.4-0.5-1 0.3-0.5-0.1-1.2-1-1.5-0.8-0.3-1.2-1.2-1-2 0.3-0.8 0.1-1.5-0.5-1.5-0.5 0-0.7-0.4-0.5-1 0.3-0.5-0.1-1.2-1-1.5-0.8-0.3-1.2-0.9-1-1.5 0.3-0.5 0-1-0.6-1-0.7 0-0.9-0.3-0.6-0.7 0.4-0.5-0.1-1.4-1-2.1-1-0.7-1.1-1-0.3-0.6 0.9 0.4 0.3-0.5-1.2-1.9-1.7-1.6-2.5-3.2-2-3.9 0.4-0.8 0.3-1-0.3-0.6-0.5 0.4-1.5-0.2-2.2-1.3-1-1.5-1-1.8 0-1.3 0.7 0.4-0.1-0.6-1.8-2.1-1.6-1.4-2.3-2.3-1.5-2 0.9 0.4 0.6-0.1-0.5-1-1.1-0.8-2-2-2-2.4 0-0.5-0.2-1.2-0.6-1.4-0.3-0.3-5.6 4.2-11.7 9.9zm-111 22.7c-6.2 6.1-10.9 11.6-10.5 12.1 0.5 0.5 0.4 0.7-0.2 0.3-0.5-0.3-2.8 1.2-5 3.4-2.2 2.2-3.9 4.2-3.7 4.5 0.1 0.2-0.1 0.7-0.4 1.2-0.4 0.4-0.3 0 0.2-0.8 0.7-1.3 0.6-1.3-0.9 0-1 0.8-1.7 2.1-1.7 2.8 0 0.6 7.7 8.9 17 18.2l17 17c26-26.5 33.6-34.2 33.7-34.3 0.1-0.1-3-3.6-7-7.7-3.9-4.1-11.7-11.9-17.2-17.2-5.5-5.4-9.8-10-9.6-10.3 0.3-0.3 0.3-0.5 0-0.5-0.2 0-5.5 5.1-11.7 11.3zm-82.2-3.7c-4.1 3.8-12 11.5-17.5 17.2-7 7.2-9.7 10.6-9 11.4 0.7 0.8 0.6 0.9-0.5 0.3-0.8-0.4 1.2 2 4.5 5.3 3.3 3.4 6.5 5.8 7 5.4 0.6-0.4 0.7-0.2 0.3 0.3-0.4 0.6 4.1 5.8 10 11.8l10.7 10.7 35-34.9c-20-20.6-27.4-28.3-29.4-30.5l-3.6-3.9zm-73 72.7c-20 19.9-36.3 36.6-36.2 37 0.1 0.4-0.4 0.6-1 0.5-0.7-0.2-1.2 0.3-1 1 0.1 0.7-0.1 1-0.5 0.7-0.5-0.2-1.7 0.5-2.8 1.6-1.1 1.2-1.5 2-0.8 1.8 0.6-0.2 1.9 0.5 2.8 1.6 0.9 1.1 1.4 1.4 1 0.5-0.4-0.8 0.3-0.3 1.5 1 1.1 1.4 2.1 2.1 2.1 1.5 0-0.5 0.9 0.2 2 1.5 1.1 1.4 1.7 1.9 1.3 1-0.7-1.3-0.6-1.3 1.2 0 1 0.8 2.7 2.4 3.7 3.5 1 1.1 1.6 1.4 1.2 0.5-0.4-0.9-0.1-0.8 0.7 0.3 0.7 0.9 1.6 1.4 2 1 0.4-0.4 1 0 1.3 1 0.3 0.9 1 1.5 1.5 1.2 0.6-0.2 1.2 0.2 1.5 1 0.3 0.9 1 1.3 1.5 1 0.6-0.2 1 0 1 0.5 0 0.6 0.5 0.8 1 0.5 0.6-0.2 1.9 0.4 3 1.5 1.1 1.1 2.2 1.7 2.5 1.3 0.3-0.4 0.5-0.2 0.5 0.5 0 0.7 0.5 1 1 0.7 0.6-0.2 1 0 1 0.5 0 0.6 0.5 0.8 1 0.5 0.6-0.2 1 0 1 0.5 0 0.6 0.5 0.8 1 0.5 0.6-0.2 1.2 0.2 1.5 1 0.3 0.9 1.2 1.4 2 1.3 0.8-0.2 4.6-3.4 8.4-7.3 3.9-3.8 6.7-7.4 6.3-8-0.4-0.5-0.2-0.7 0.3-0.3 0.6 0.4 1.9-0.3 3-1.5 1-1.2 13.3-13.6 27.2-27.7 13.9-14 25.6-25.3 26-25 0.5 0.3-4.4-4.8-10.7-11.3-6.3-6.4-11.7-11.7-12-11.7-0.3 0 4.5 5.1 10.5 11.3l11 11.2c-18.1-17.8-23.1-23.4-22.7-24 0.4-0.5 0.2-0.6-0.3-0.2-0.6 0.3-2-0.3-3.3-1.5-1.2-1.3-1.9-2.6-1.5-3.1 0.5-0.5 0.1-0.7-0.7-0.5-0.8 0.2-1.4-0.2-1.2-0.9 0.1-0.7-0.3-1.2-1-1-0.7 0.1-1.2-0.3-1.3-0.9 0-0.7-0.3-1.4-0.6-1.7-0.3-0.3-16.9 15.7-36.9 35.6zm114.7-28.5c-4.3 4.2-7.5 8.1-7.2 8.5 0.3 0.4-0.1 1.1-0.7 1.5-0.9 0.5-1 0.3-0.4-0.8 0.5-0.8-3.2 2.6-8.2 7.5-6.9 6.8-8.9 9.4-8.2 10.5 0.5 0.9 8.2 8.9 17.2 17.8l16.3 16.3c25.6-25.7 33.1-33.6 33.3-34.1 0.1-0.5-0.5-1.2-1.3-1.5-0.8-0.2-1.4-0.8-1.2-1.2 0.1-0.4-7-7.9-15.8-16.5l-16.1-15.8zm78.8 9.8l-16.9 17.6c53.4 53.7 69.5 69.4 70.2 69.6 0.7 0.1 1.3-0.2 1.3-0.7 0-0.6 0.4-0.8 1-0.5 0.5 0.3 1 0 1-0.5 0-0.6 0.4-0.8 1-0.5 0.5 0.3 0.9-0.1 0.9-0.8 0-0.7 0.2-0.9 0.5-0.5 0.3 0.4 1.5-0.1 2.6-1.2 1.1-1.1 2.4-1.8 3-1.5 0.5 0.3 0.9-0.1 0.9-0.8 0-0.7 0.3-0.9 0.8-0.5 0.4 0.4 1.3 0 2.1-1 0.8-1.1 1-1.1 0.6-0.2-0.3 0.8 0.2 0.5 1.2-0.7 1-1.2 2.5-2.3 3.3-2.5 0.9-0.2 2.1-1 2.9-1.8 1.2-1.4 1.2-1.4 0.6 0-0.3 0.8 0.4 0.4 1.6-1 1.1-1.4 1.8-1.8 1.5-1-0.4 0.8 0.3 0.4 1.5-1 1.1-1.4 1.8-1.8 1.5-1-0.4 0.9-0.2 0.8 0.6-0.3 0.8-0.9 1.7-1.5 2.1-1.2 0.4 0.3 1.2-0.4 1.8-1.5 0.5-1.1 1.3-1.8 1.7-1.5 0.4 0.3 1.3-0.4 2-1.5 0.7-1.1 1.7-1.8 2.3-1.5 0.5 0.3 1.1-0.1 1.4-0.8 0.2-0.7-3.5-5-8.3-9.7l-8.6-8.5 16.9 18c-16.6-16.3-21.5-21.2-21.5-21.5 0-0.3 1 0.4 2.3 1.5l2.3 2c-3.1-3.5-4.4-4.4-4.7-4.2-0.4 0.1-13.2-12.3-28.5-27.6-15.3-15.3-27.7-28-27.4-28.2 0.2-0.3 0.2-0.5-0.1-0.5-0.2 0-8.1 7.9-17.4 17.5zm-115.7 27.2c-1 1-1.4 2.2-1 2.6 0.4 0.5 0.2 0.7-0.4 0.5-0.6-0.2-6.9 5.5-14 12.7-7 7.1-12.8 13.3-12.8 13.6 0 0.4-0.5 1.1-1 1.5-0.5 0.5-0.5 0.3 0-0.6 0.4-0.8-0.4-0.4-1.9 1-1.5 1.4-2.7 2.7-2.7 3 0 0.3 0.8-0.2 1.8-1 1.6-1.4 1.6-1.4 0.5 0.2-0.7 1-1.6 1.6-2 1.3-0.4-0.3-1.5 0.3-2.5 1.2-1 1-1.4 2.2-1 2.7 0.4 0.5 0.3 0.6-0.2 0.3-0.6-0.4-6.9 5.4-14 12.9-7.2 7.5-13.3 14.1-13.5 14.7-0.3 0.7 0 0.9 0.8 0.4 0.6-0.4 1.2-0.3 1.2 0.3 0 0.5 0.4 0.8 1 0.5 0.5-0.3 1-0.1 1 0.5 0 0.5 0.6 0.8 1.5 0.5 0.8-0.3 1.5-0.1 1.5 0.5 0 0.5 0.4 0.8 1 0.5 0.5-0.3 1-0.1 1 0.5 0 0.5 0.6 0.8 1.5 0.5 0.8-0.3 1.5-0.1 1.5 0.5 0 0.5 0.7 0.7 1.7 0.3 1.4-0.6 1.5-0.5 0.8 0.7-0.8 1.1-0.7 1.3 0.7 0.7 1-0.4 1.8-0.3 1.8 0.3 0 0.5 0.6 0.8 1.5 0.5 0.8-0.3 1.5-0.1 1.5 0.5 0 0.5 0.6 0.8 1.5 0.5 0.8-0.3 1.5-0.1 1.5 0.5 0 0.5 0.6 0.8 1.5 0.5 0.8-0.3 1.5-0.1 1.5 0.5 0 0.5 0.6 0.8 1.5 0.5 0.8-0.3 1.5-0.1 1.5 0.5 0 0.5 0.6 0.8 1.5 0.5 0.8-0.3 1.5-0.1 1.5 0.5 0 0.5 0.6 0.8 1.5 0.5 0.8-0.3 1.7-0.1 2 0.5 0.2 0.5 1.1 0.8 2 0.5 0.8-0.3 1.5-0.1 1.5 0.5 0 0.6 0.9 0.7 2.2 0.3 1.6-0.5 2-0.3 1.5 0.5-0.5 0.9 0 1 2 0.5 2.3-0.6 2.6-0.5 1.8 0.7-0.9 1.2-0.7 1.3 1 0.7 1.2-0.5 2.2-0.3 2.7 0.5 0.5 0.9 8.9-7.1 26-24.5l25.3-25.7c-20.2-20.2-26.5-25.7-27-25.3-0.5 0.4-0.6 0.3-0.2-0.2 0.3-0.6-1.3-2.9-3.7-5.3-4-4.1-4.3-4.2-5.9-2.5zm72 17l-16.7 16.8c38.7 38.7 49.9 49.6 49.9 49.2 0-0.4 1-0.5 2.1-0.2 1.1 0.3 2 0 2-0.5 0-0.6 0.9-0.8 2-0.5 1.1 0.3 2 0 2-0.5 0-0.6 0.9-0.8 2-0.5 1.1 0.3 2 0 2-0.5 0-0.6 0.9-0.7 2.2-0.3 1.8 0.5 2 0.4 1.3-0.7-0.8-1.1-0.6-1.2 1.2-0.7 1.3 0.4 2.3 0.3 2.3-0.3 0-0.6 0.6-0.8 1.5-0.5 0.8 0.3 1.5 0 1.5-0.5 0-0.6 0.6-0.8 1.5-0.5 0.8 0.3 1.5 0 1.5-0.5 0-0.6 0.6-0.8 1.5-0.5 0.8 0.3 1.5 0 1.5-0.5 0-0.6 0.6-0.8 1.5-0.5 0.8 0.3 1.5 0 1.5-0.5 0-0.6 0.7-0.7 1.7-0.3 1.4 0.6 1.5 0.4 0.8-0.7-0.9-1.1-0.6-1.2 1.5-0.5 2 0.7 2.3 0.6 1.5-0.6-0.8-1.1-0.7-1.2 0.7-0.6 1 0.4 1.8 0.2 1.8-0.3 0-0.6 0.7-0.7 1.7-0.3 1.4 0.6 1.5 0.4 0.8-0.7-0.8-1.2-0.7-1.3 0.7-0.7 1 0.4 1.8 0.2 1.8-0.3 0-0.6 0.4-0.8 1-0.5 0.5 0.3 1 0 1-0.5 0-0.6 0.7-0.8 1.7-0.4 1.4 0.5 1.6 0.2 1-1.5-0.5-1.5-0.4-1.9 0.5-1.5 0.7 0.4-1.7-2.3-5.2-5.9-3.6-3.7-7-6.4-7.5-6-0.6 0.3-0.7 0.2-0.3-0.3 0.4-0.5-0.9-2.6-3-4.7-2.1-2.1-4.3-3.7-5-3.7-0.7 0-1-0.5-0.7-1 0.2-0.6-0.1-1.5-0.8-2-0.7-0.6-1.6-0.7-2.1-0.3-0.4 0.4-0.7 0.3-0.5-0.3 0.2-0.5-2.7-4.1-6.5-8-3.8-3.8-7.3-6.8-7.8-6.7-0.5 0.2-0.6-0.1-0.4-0.5 0.3-0.4-0.5-1.7-1.7-2.9-1.2-1.2-2.7-2.2-3.2-2.3-0.6 0-1-0.4-1-0.9 0-0.6-4.3-4.9-9.4-9.8-5.2-4.8-9.7-8.9-10.1-9.1-0.3-0.1-8.1 7.3-17.3 16.5zm-48.3 48.4c-17 17-21.3 21.9-19.2 21.4 1.5-0.3 2.8-0.1 2.8 0.5 0 0.6 1.5 0.8 3.5 0.5 2-0.3 3.5-0.1 3.5 0.5 0 0.6 1.8 0.7 5 0.2 3.1-0.4 5-0.4 5 0.3 0 0.6 7.7 1 21.4 1 11.7 0 20.8-0.4 20.2-0.8-0.6-0.5 2-0.6 5.9-0.3 5.1 0.5 6.6 0.3 5.5-0.5-1.2-0.8-0.4-0.9 3.2-0.5 3.5 0.4 4.6 0.3 4-0.6-0.5-0.8 0.1-1 2.3-0.5 2.6 0.6 2.1-0.3-5.5-8.1-4.6-4.8-8.9-8.7-9.5-8.7-0.6 0-1.1-0.7-1.1-1.5 0-0.8-0.6-1.4-1.2-1.3-0.7 0.2-1.1-0.3-1-1 0.1-0.7-0.3-1.1-1-1-0.7 0.2-1-0.2-0.7-0.7 0.2-0.6-4.2-5.3-9.8-10.4-5.6-5.2-10.5-9.7-10.8-10-0.4-0.3-10.5 9.4-22.5 21.5z"/><path fill-rule="evenodd" class="b" d="m498 516.7c1.9 0.2 5.3 0.2 7.5 0 2.2-0.2 0.6-0.4-3.5-0.4-4.1 0-5.9 0.2-4 0.4zm-13 6.8c3 3 5.7 5.5 6 5.5 0.3 0-1.8-2.2-4.5-4.9-3.7-3.6-4.6-5-3.5-5.4 0.9-0.3 0.5-0.6-1-0.6-2.3-0.1-2 0.4 3 5.4zm55.5-4.8c1.7 0.4 1.1 1.4-4.5 7.1l-6.5 6.7c11.3-10.9 14.5-14.1 14.5-14.3 0-0.1-1.2-0.1-2.8-0.1-2 0.1-2.2 0.3-0.7 0.6zm-1 21.5l-19 19.3c29.8-29.5 38.5-38.1 38.5-38.3 0-0.1-0.1-0.2-0.3-0.2-0.1 0-8.8 8.7-19.2 19.2zm-53 2.5l16 16.3-27 27.5 28-27.5-33-32.5zm-46.5 22.8c14 14 25.7 25.5 26 25.5 0.3 0-10.7-11.4-24.5-25.4-13.7-13.9-25.4-25.4-26-25.5-0.5-0.1 10.5 11.3 24.5 25.4zm142.3 0.7l-26.3 26.3-13.5-13 13.5 14c41.5-41.5 53.3-53.5 53-53.5-0.3 0-12.3 11.8-26.7 26.2zm-180.4-17.5c-1.1 1.5-1.1 1.6 0.2 0.5 1.2-1.1 2.6-0.1 8.9 6l7.5 7.3c-11.2-12.1-14.6-15.5-14.8-15.5-0.3 0-1.1 0.7-1.8 1.7zm190.6 26.3l-28 28 17 16.5-16-16.6c43.4-43.4 55.8-55.9 55.5-55.9-0.3 0-13.1 12.6-28.5 28zm55.7-4.3l8.8 8.8-57.5 57.5-18-17.5 18 18.5 58.5-58.5c-13.1-13.6-17.3-17.6-17.7-17.6-0.4 0 3.1 4 7.9 8.8zm-274.2 0.8l-7.5 7.5 7 6.5-6-6.6c11.6-11.6 14.7-14.9 14.5-14.9-0.3 0-3.9 3.3-8 7.5zm120.2 13.7l-17.2 17.3 31.5 31-30.5-31 34-34c26.3 26.3 33.6 34.4 33.2 34.9-0.4 0.7-0.1 0.7 0.8 0.2 1.2-0.7-2.4-4.7-16-18.3-9.6-9.5-17.7-17.4-18-17.4-0.3 0-8.3 7.8-17.8 17.3zm-32.3 32.5l-6.4 6.8c10-9.3 13.2-12.2 13.5-12.3 0.3-0.1 0.2-0.5-0.1-0.7-0.3-0.3-3.5 2.5-7 6.2zm84.6 3.5l-9 9.3 18.5-18 19.5 19c-14.7-15.2-19.2-19.6-19.5-19.6-0.3 0-4.6 4.2-9.5 9.3zm-56 12.5l12 12.3-34 33.9-21-20.4 21 21.5 35-35-25-24.5zm-49 4.4l-7 7.3c11.3-10.9 14.5-14.1 14.5-14.3 0-0.1-0.1-0.2-0.3-0.2-0.1 0-3.4 3.3-7.2 7.2zm144.8 4.5l3.7 3.8-27.5 28 28.5-28c-5.3-5.8-7.2-7.5-7.7-7.5-0.4 0 0.9 1.7 3 3.7zm-195.3 46l-33.5 33.8 67-66.5 34 34-46 46.5 47-46.5-35-35zm115-27l-6.5 6.7 13-12.5 31 30.5c-23.6-24.4-30.6-31.5-30.8-31.5-0.1 0-3.2 3.1-6.7 6.8zm91.4-3.5l-1.9 2.2 4.6-4 78.4 78c-60.4-60.8-78.3-78.5-78.6-78.5-0.3 0-1.5 1.1-2.5 2.3zm-23.4 22.5l-9.5 9.7c15.1-14.7 19.5-19.1 19.5-19.2 0-0.1-0.1-0.3-0.3-0.3-0.1 0-4.5 4.4-9.7 9.8zm-213.2 20l-23.7 23.7-4.6-3.9 4.5 4.9c37.6-37.5 48.3-48.5 48-48.5-0.3 0-11.2 10.7-24.2 23.8zm183.7-12.3c1.9 1.4 1.3 2.1-13.5 17.2l-15.5 15.8c30.5-29.8 31.9-31.5 30.5-32.9-0.8-0.9-1.9-1.6-2.5-1.6-0.5 0-0.1 0.7 1 1.5zm-66.2 0.3c-0.8 0.5 5 6.9 17 18.7l18.2 18c-27.7-27.8-34.5-35.5-34.2-36.2 0.4-0.7 0.5-1.2 0.4-1.2-0.1 0-0.7 0.3-1.4 0.7zm-161.1 10.2l-0.2 7.5 14.5 14-13.4-14-0.7-15zm281.8 25.5c16.2 16.3 29.7 29.6 30 29.6 0.3 0-12.6-13.3-28.7-29.6-16.1-16.2-29.6-29.5-30-29.5-0.4 0 12.5 13.3 28.7 29.5zm-60.7-8.2l-17.3 17.2 50.5 50-49.5-50 34-34 11.5 11c-8.5-8.9-11.2-11.5-11.5-11.5-0.3 0-8.3 7.8-17.7 17.3zm140-0.7l9.7 9.9 7.5-7.9-7.5 6.9-19.5-18.9zm-188.2 49.2l-22.5 22.8 45-44.6 7.9 7.6c-5.6-6.6-7.4-8.5-7.6-8.5-0.2 0-10.5 10.2-22.8 22.7zm-8.6-9.5l-6.9 7.3c11.2-10.9 14.5-14.2 14.5-14.3 0-0.1-0.2-0.2-0.3-0.2-0.2 0-3.4 3.2-7.3 7.2zm23.1 34.5c4.4 0.2 11.3 0.2 15.5 0 4.1-0.2 0.5-0.3-8-0.3-8.6 0-11.9 0.1-7.5 0.3z"/><path fill-rule="evenodd" class="c" d="m318 327.5c-4.1 4.1-7.3 7.5-7 7.5 0.3 0 3.9-3.4 8-7.5 4.1-4.1 7.2-7.5 6.9-7.5-0.2 0-3.8 3.4-7.9 7.5zm188.5 187.2c3.9 0.2 9.7 0.2 13 0 3.3-0.2 0.1-0.3-7-0.3-7.1 0-9.9 0.1-6 0.3zm31.5 11.1l-6.5 6.7c10.5-10.1 13.5-13.1 13.5-13.2 0-0.2-0.1-0.3-0.3-0.3-0.1 0-3.2 3-6.7 6.8zm0.5 13.5l-18 18.2c28.3-27.9 36.5-36.1 36.5-36.2 0-0.2-0.1-0.3-0.3-0.3-0.1 0-8.3 8.2-18.2 18.3zm-52.5 1.2c9.6 9.6 17.7 17.5 18 17.5 0.3 0-7.3-7.9-16.7-17.5-9.5-9.6-17.6-17.5-18-17.5-0.5 0 7.1 7.9 16.7 17.5zm97 27.3l-26.5 26.7c41.5-41.1 53.5-53.1 53.5-53.2 0-0.2-0.1-0.3-0.3-0.3-0.1 0-12.1 12-26.7 26.8zm-144.5-1.8c13.2 13.2 24.2 24 24.5 24 0.3 0-10.2-10.8-23.2-24-13.1-13.2-24.1-24-24.5-24-0.5 0 10 10.8 23.2 24zm-27.5-12.5c3.6 3.6 6.7 6.5 7 6.5 0.3 0-2.3-2.9-5.7-6.5-3.4-3.6-6.5-6.5-7-6.5-0.4 0 2.1 2.9 5.7 6.5zm180 21.3l-27.5 27.7c43-42.6 55.5-55.1 55.5-55.2 0-0.2-0.1-0.3-0.3-0.3-0.1 0-12.6 12.5-27.7 27.8zm-99-3l-11.5 11.7c18.2-17.8 23.5-23.1 23.5-23.2 0-0.2-0.1-0.3-0.3-0.3-0.1 0-5.4 5.3-11.7 11.8zm157-2.3c4.7 4.7 8.7 8.5 9 8.5 0.3 0-3.2-3.8-7.7-8.5-4.5-4.7-8.6-8.5-9-8.5-0.4 0 3 3.8 7.7 8.5zm-276 1c-4.1 4.1-7.3 7.5-7 7.5 0.3 0 3.9-3.4 8-7.5 4.1-4.1 7.2-7.5 6.9-7.5-0.2 0-3.8 3.4-7.9 7.5zm61 6c6.3 6.3 11.7 11.5 12 11.5 0.3 0-4.5-5.2-10.7-11.5-6.2-6.3-11.6-11.5-12-11.5-0.4 0 4.4 5.2 10.7 11.5zm60 7.3l-17.5 17.7c27.5-27.1 35.5-35.1 35.5-35.2 0-0.2-0.1-0.3-0.3-0.3-0.1 0-8.1 8-17.7 17.8zm35.5 0.2c9.4 9.4 17.2 17 17.5 17 0.3 0-7-7.6-16.2-17-9.2-9.3-17.1-17-17.5-17-0.5 0 6.8 7.6 16.2 17zm10.5-4.7c0 0.1 3.5 3.6 7.7 7.7l7.8 7.5c-11.2-12-14.6-15.5-15-15.5-0.3 0-0.5 0.1-0.5 0.3zm89 30.2c-15.7 15.7-28.3 28.5-28 28.5 0.3 0 13.3-12.8 29-28.5 15.7-15.7 28.3-28.5 28-28.5-0.3 0-13.3 12.8-29 28.5zm43.1-13.7c3 4 5.5 7.3 5.6 7.2 0.2 0-1.6-2.7-4-6.1-2.3-3.4-4.8-6.6-5.6-7.3-0.8-0.6 1 2.2 4 6.2zm-178.6 25.2c9.4 9.4 17.2 17 17.5 17 0.3 0-7-7.6-16.2-17-9.2-9.3-17.1-17-17.5-17-0.5 0 6.8 7.6 16.2 17zm36.5-0.2l-16.5 16.7c26-25.6 33.5-33.1 33.5-33.2 0-0.2-0.1-0.3-0.3-0.3-0.1 0-7.6 7.5-16.7 16.8zm40.5-9.8c3.9 3.9 7.2 7 7.5 7 0.3 0-2.5-3.1-6.2-7-3.7-3.8-7.1-7-7.5-7-0.4 0 2.3 3.1 6.2 7zm-179 10c7.1 7.2 13.2 13 13.5 13 0.3 0-5.2-5.8-12.2-13-7-7.1-13.1-13-13.5-13-0.4 0 5.1 5.8 12.2 13zm151.5 1.8l-11.5 11.7c18.2-17.8 23.5-23.1 23.5-23.2 0-0.2-0.1-0.3-0.3-0.3-0.1 0-5.4 5.3-11.7 11.8zm23.5-1.8c5.5 5.5 10.2 10 10.5 10 0.3 0-3.9-4.5-9.2-10-5.4-5.5-10.1-10-10.5-10-0.4 0 3.7 4.5 9.2 10zm-153.5 6.3c5.8 5.9 10.6 10.7 10.7 10.7 0.2 0 0.3-0.1 0.3-0.2 0-0.2-4.8-5-10.7-10.8l-10.8-10.5zm22.5 1l-10 10.2c15.9-15.5 20.5-20.1 20.5-20.2 0-0.1-0.1-0.3-0.3-0.3-0.1 0-4.7 4.7-10.2 10.3zm155 2.7c3.9 3.9 7.2 7.1 7.5 7.1 0.3 0-2.5-3.2-6.2-7-3.7-3.9-7.1-7.1-7.5-7.1-0.4 0 2.3 3.2 6.2 7zm-148 4.3l-10 10.2c15.9-15.5 20.5-20.1 20.5-20.2 0-0.1-0.1-0.3-0.3-0.3-0.1 0-4.7 4.7-10.2 10.3zm46.5-5c0 0.1 3.5 3.6 7.7 7.7l7.8 7.5c-11.2-12-14.6-15.5-15-15.5-0.3 0-0.5 0.2-0.5 0.3zm-3 34.5l-17.5 17.7c27.5-27.1 35.5-35.1 35.5-35.2 0-0.1-0.1-0.3-0.3-0.3-0.1 0-8.1 8-17.7 17.8zm91.5-3.5l-13 13.2c20.5-20.1 26.5-26.1 26.5-26.2 0-0.1-0.1-0.3-0.3-0.3-0.1 0-6.1 6-13.2 13.3zm-188 27l-34 34.2c53.1-52.7 68.5-68.1 68.5-68.2 0-0.1-0.1-0.3-0.3-0.3-0.1 0-15.5 15.5-34.2 34.3zm136-21.3c7.1 7.2 13.2 13.1 13.5 13.1 0.3 0-5.2-5.9-12.2-13.1-7-7.1-13.1-13-13.5-13-0.4 0 5.1 5.9 12.2 13zm-83 5c9.4 9.4 17.2 17.1 17.5 17.1 0.3 0-7-7.7-16.2-17.1-9.2-9.3-17.1-17-17.5-17-0.5 0 6.8 7.7 16.2 17zm196.5 21.5c21.2 21.2 38.7 38.5 39 38.5 0.3 0-16.7-17.3-37.7-38.5-21.1-21.1-38.6-38.5-39-38.5-0.5 0 16.5 17.4 37.7 38.5zm-182.5-22.5c5.5 5.6 10.2 10.1 10.5 10.1 0.3 0-3.9-4.5-9.2-10-5.4-5.6-10.1-10.1-10.5-10.1-0.4 0 3.7 4.5 9.2 10zm118.5 6.8l-11.5 11.7c18.2-17.8 23.5-23.1 23.5-23.2 0-0.1-0.1-0.3-0.3-0.3-0.1 0-5.4 5.3-11.7 11.8zm-214 25l-23.5 23.7c36.8-36.4 47.5-47.1 47.5-47.2 0-0.1-0.1-0.3-0.3-0.3-0.1 0-10.8 10.7-23.7 23.8zm347.3-6.8c0 4.2 0.2 6 0.4 4 0.2-1.9 0.2-5.3 0-7.5-0.2-2.2-0.4-0.6-0.4 3.5zm-267.8 14.3l-19 19.2c29.8-29.4 38.5-38.1 38.5-38.2 0-0.1-0.1-0.3-0.3-0.3-0.1 0-8.8 8.7-19.2 19.3zm53-2.3c9.4 9.4 17.2 17.1 17.5 17.1 0.3 0-7-7.7-16.2-17.1-9.2-9.3-17.1-17-17.5-17-0.5 0 6.8 7.7 16.2 17zm44-6.7l-10 10.2c15.9-15.5 20.5-20.1 20.5-20.2 0-0.1-0.1-0.3-0.3-0.3-0.1 0-4.7 4.7-10.2 10.3zm39 2.7c3.9 3.9 7.2 7.1 7.5 7.1 0.3 0-2.5-3.2-6.2-7-3.7-3.9-7.1-7.1-7.5-7.1-0.4 0 2.3 3.2 6.2 7zm-39 11.3l-17 17.2c26.7-26.3 34.5-34.1 34.5-34.2 0-0.1-0.1-0.3-0.3-0.3-0.1 0-7.9 7.8-17.2 17.3zm136-2.3c7.1 7.2 13.2 13.1 13.5 13.1 0.3 0-5.2-5.9-12.2-13.1-7-7.1-13.1-13-13.5-13-0.4 0 5.1 5.9 12.2 13zm-351.5 0.5c3.6 3.6 6.7 6.6 7 6.6 0.3 0-2.3-3-5.7-6.5-3.4-3.6-6.5-6.6-7-6.6-0.4 0 2.1 3 5.7 6.5zm270.5 6.5c3.9 3.9 7.2 7.1 7.5 7.1 0.3 0-2.5-3.2-6.2-7-3.7-3.9-7.1-7.1-7.5-7.1-0.4 0 2.3 3.2 6.2 7zm-98 4c4.4 4.5 8.2 8.1 8.5 8.1 0.3 0-3-3.6-7.2-8-4.2-4.5-8.1-8.1-8.5-8.1-0.4 0 2.8 3.6 7.2 8zm119 17c7.1 7.2 13.2 13.1 13.5 13.1 0.3 0-5.2-5.9-12.2-13.1-7-7.1-13.1-13-13.5-13-0.4 0 5.1 5.9 12.2 13zm-68.5 18.5c13.5 13.5 24.7 24.5 25 24.5 0.3 0-10.4-11-23.7-24.5-13.4-13.4-24.6-24.5-25-24.5-0.5 0 10.2 11.1 23.7 24.5zm-56.5 4.8l-22 22.2c34.5-34.1 44.5-44.1 44.5-44.2 0-0.1-0.1-0.3-0.3-0.3-0.1 0-10.1 10.1-22.2 22.3zm-81-7l-8 8.2c12.8-12.4 16.5-16.1 16.5-16.2 0-0.1-0.1-0.3-0.3-0.3-0.1 0-3.8 3.8-8.2 8.3zm54 19l-8 8.2c12.8-12.4 16.5-16.1 16.5-16.2 0-0.1-0.1-0.3-0.3-0.3-0.1 0-3.8 3.8-8.2 8.3z"/><path class="d" d="m443.5 570c10.4 10.5 19.2 19 19.5 19 0.3 0-7.9-8.5-18.2-19-10.3-10.4-19.1-19-19.5-19-0.5 0 7.8 8.5 18.2 19zm48 1.3l-11 11.2c17.4-17 22.5-22.1 22.5-22.3 0-0.1-0.1-0.2-0.3-0.2-0.1 0-5.2 5.1-11.2 11.3zm37.5 13.2c9.1 9.1 16.7 16.5 17 16.5 0.3 0-6.8-7.4-15.7-16.5-9-9.1-16.6-16.5-17-16.5-0.5 0 6.6 7.4 15.7 16.5zm42 26c3.6 3.6 6.7 6.5 7 6.5 0.3 0-2.3-2.9-5.7-6.5-3.4-3.6-6.5-6.5-7-6.5-0.4 0 2.1 2.9 5.7 6.5zm-76 11c8.5 8.5 15.7 15.5 16 15.5 0.3 0-6.4-7-14.7-15.5-8.4-8.5-15.6-15.5-16-15.5-0.5 0 6.2 7 14.7 15.5zm71 0c5.2 5.2 9.7 9.5 10 9.5 0.3 0-3.6-4.3-8.7-9.5-5.1-5.2-9.6-9.5-10-9.5-0.4 0 3.5 4.3 8.7 9.5zm-131 6.3l-9.5 9.7c15.1-14.7 19.5-19.1 19.5-19.2 0-0.2-0.1-0.3-0.3-0.3-0.1 0-4.5 4.4-9.7 9.8zm156 2.7c3.6 3.6 6.7 6.5 7 6.5 0.3 0-2.3-2.9-5.7-6.5-3.4-3.6-6.5-6.5-7-6.5-0.4 0 2.1 2.9 5.7 6.5zm-148 5.3l-9.5 9.7c15.1-14.7 19.5-19.1 19.5-19.3 0-0.1-0.1-0.2-0.3-0.2-0.1 0-4.5 4.4-9.7 9.8zm52.5 2.2c3.9 3.9 7.2 7 7.5 7 0.3 0-2.5-3.1-6.2-7-3.7-3.8-7.1-7-7.5-7-0.4 0 2.3 3.1 6.2 7zm-10 26.3l-17 17.2c26.7-26.4 34.5-34.1 34.5-34.3 0-0.1-0.1-0.2-0.3-0.2-0.1 0-7.9 7.8-17.2 17.3zm90-2.1l-11 11.3c17.4-17 22.5-22.1 22.5-22.3 0-0.1-0.1-0.2-0.3-0.2-0.1 0-5.2 5.1-11.2 11.2zm-50.5 5.3c6.9 6.9 12.7 12.5 13 12.5 0.3 0-5-5.6-11.7-12.5-6.7-6.9-12.6-12.5-13-12.5-0.4 0 4.8 5.6 11.7 12.5zm91.5 4.5c7.7 7.7 14.2 14 14.5 14 0.3 0-5.7-6.3-13.2-14-7.6-7.7-14.1-14-14.5-14-0.5 0 5.5 6.3 13.2 14zm-219 9.2l-16 16.3c25.2-24.8 32.5-32.1 32.5-32.3 0-0.1-0.1-0.2-0.3-0.2-0.1 0-7.4 7.3-16.2 16.2zm180.5-5.5l-8.5 8.8c13.6-13.2 17.5-17.1 17.5-17.3 0-0.1-0.1-0.2-0.3-0.2-0.1 0-4.1 3.9-8.7 8.7zm-211.5 20.5l-17 17.3c26.7-26.4 34.5-34.1 34.5-34.3 0-0.1-0.1-0.2-0.3-0.2-0.1 0-7.9 7.8-17.2 17.2zm170.5 4.5l-9.5 9.8c15.1-14.7 19.5-19.1 19.5-19.3 0-0.1-0.1-0.2-0.3-0.2-0.1 0-4.5 4.4-9.7 9.7zm40 2.8c3.6 3.6 6.7 6.5 7 6.5 0.3 0-2.3-2.9-5.7-6.5-3.4-3.6-6.5-6.5-7-6.5-0.4 0 2.1 2.9 5.7 6.5zm-214 12.2l-6.5 6.8c10.5-10.1 13.5-13.1 13.5-13.3 0-0.1-0.1-0.2-0.3-0.2-0.1 0-3.2 3-6.7 6.7zm230 3.8c3.6 3.6 6.7 6.5 7 6.5 0.3 0-2.3-2.9-5.7-6.5-3.4-3.6-6.5-6.5-7-6.5-0.4 0 2.1 2.9 5.7 6.5zm-165 2.2l-6.5 6.8c10.5-10.1 13.5-13.1 13.5-13.3 0-0.1-0.1-0.2-0.3-0.2-0.1 0-3.2 3-6.7 6.7zm186 18.8c6.9 6.9 12.7 12.5 13 12.5 0.3 0-5-5.6-11.7-12.5-6.7-6.9-12.6-12.5-13-12.5-0.4 0 4.8 5.6 11.7 12.5zm-206 17c-4.1 4.1-7.3 7.5-7 7.5 0.3 0 3.9-3.4 8-7.5 4.1-4.1 7.2-7.5 6.9-7.5-0.2 0-3.8 3.4-7.9 7.5z"/><path class="e" d="m544.5 534.3l-13 13.2c20.5-20.1 26.5-26.1 26.5-26.2 0-0.2-0.1-0.3-0.3-0.3-0.1 0-6.1 6-13.2 13.3zm-61.5 4.2c4.7 4.7 8.7 8.5 9 8.5 0.3 0-3.2-3.8-7.7-8.5-4.5-4.7-8.6-8.5-9-8.5-0.4 0 3 3.8 7.7 8.5zm107.5 20.8l-9 9.2c14.3-14 18.5-18.1 18.5-18.2 0-0.2-0.1-0.3-0.3-0.3-0.1 0-4.3 4.2-9.2 9.3zm-4.5 21.5l-16.5 16.7c26-25.6 33.5-33.1 33.5-33.2 0-0.2-0.1-0.3-0.3-0.3-0.1 0-7.6 7.5-16.7 16.8zm-85-3.3c-4.1 4.1-7.3 7.5-7 7.5 0.3 0 3.9-3.4 8-7.5 4.1-4.1 7.2-7.5 6.9-7.5-0.2 0-3.8 3.4-7.9 7.5zm140 19.3l-9.5 9.7c15.1-14.7 19.5-19.1 19.5-19.2 0-0.2-0.1-0.3-0.3-0.3-0.1 0-4.5 4.4-9.7 9.8zm-34.5 34.5l-7 7.2c11.3-10.8 14.5-14.1 14.5-14.2 0-0.2-0.1-0.3-0.3-0.3-0.1 0-3.4 3.3-7.2 7.3zm37.5 68.2c6.3 6.3 11.7 11.5 12 11.5 0.3 0-4.5-5.2-10.7-11.5-6.2-6.3-11.6-11.5-12-11.5-0.4 0 4.4 5.2 10.7 11.5zm-196.5 2.8l-10 10.2c15.9-15.5 20.5-20.1 20.5-20.2 0-0.2-0.1-0.3-0.3-0.3-0.1 0-4.7 4.6-10.2 10.3zm90 14l-17 17.2c26.7-26.3 34.5-34.1 34.5-34.2 0-0.2-0.1-0.3-0.3-0.3-0.1 0-7.9 7.8-17.2 17.3zm-37.5-2.8c6.3 6.3 11.7 11.5 12 11.5 0.3 0-4.5-5.2-10.7-11.5-6.2-6.3-11.6-11.5-12-11.5-0.4 0 4.4 5.2 10.7 11.5zm44 44c12.9 12.9 23.7 23.5 24 23.5 0.3 0-10-10.6-22.7-23.5-12.8-12.9-23.6-23.5-24-23.5-0.5 0 9.8 10.6 22.7 23.5zm-59.5 11.8l-17 17.2c26.7-26.3 34.5-34.1 34.5-34.2 0-0.2-0.1-0.3-0.3-0.3-0.1 0-7.9 7.8-17.2 17.3zm22.5 21.4c1.9 0.2 5.3 0.2 7.5 0 2.2-0.2 0.6-0.4-3.5-0.4-4.1 0-5.9 0.2-4 0.4z"/><path class="a" d="m411 554.5c3.6 3.6 6.7 6.5 7 6.5 0.3 0-2.3-2.9-5.7-6.5-3.4-3.6-6.5-6.5-7-6.5-0.4 0 2.1 2.9 5.7 6.5zm14 13.8c0 0.1 3.5 3.6 7.7 7.7l7.8 7.5c-11.2-12-14.6-15.5-15-15.5-0.3 0-0.5 0.1-0.5 0.2zm144 12.5l-12.5 12.8c19.8-19.4 25.5-25.1 25.5-25.3 0-0.1-0.1-0.2-0.3-0.2-0.1 0-5.8 5.7-12.7 12.8zm54 33.9l-8.5 8.8c13.6-13.2 17.5-17.1 17.5-17.3 0-0.1-0.1-0.2-0.3-0.2-0.1 0-4.1 3.9-8.7 8.8zm-236.5 2.2c5.5 5.5 10.2 10 10.5 10 0.3 0-3.9-4.5-9.2-10-5.4-5.5-10.1-10-10.5-10-0.4 0 3.7 4.5 9.2 10zm141 5c-8.3 8.3-14.8 15-14.5 15 0.3 0 7.2-6.7 15.5-15 8.2-8.2 14.7-15 14.5-15-0.3 0-7.3 6.8-15.5 15zm-37 99c4.9 5 9.2 9 9.5 9 0.3 0-3.4-4-8.2-9-4.8-4.9-9.1-9-9.5-9-0.4 0 3.3 4 8.2 9zm-29 54.3l-8 8.2c12.8-12.4 16.5-16.1 16.5-16.2 0-0.2-0.1-0.3-0.3-0.3-0.1 0-3.8 3.7-8.2 8.3z"/><path class="b" d="m431.5 576c4.4 4.4 8.2 8 8.5 8 0.3 0-3-3.6-7.2-8-4.2-4.4-8.1-8-8.5-8-0.4 0 2.8 3.6 7.2 8zm95.5 45.8l-15.5 15.7c24.4-24 31.5-31.1 31.5-31.2 0-0.2-0.1-0.3-0.3-0.3-0.1 0-7.2 7.1-15.7 15.8zm-141-4.5c5.8 5.9 10.6 10.7 10.8 10.7 0.1 0 0.2-0.1 0.2-0.2 0-0.2-4.8-5-10.7-10.8l-10.8-10.5zm28.3 9.3l10.7 10.9 21.5-21.9-21.5 20.9-21.5-20.9zm241.8 67c6.3 6.3 11.7 11.5 11.9 11.5 0.3 0-4.5-5.2-10.7-11.5-6.1-6.4-11.5-11.6-12-11.6-0.4 0 4.4 5.2 10.7 11.6zm-166 28c5.3 5.2 9.8 9.5 10 9.5 0.3 0-3.6-4.3-8.7-9.5-5-5.3-9.5-9.6-10-9.6-0.4 0 3.5 4.3 8.7 9.6zm-29 53.2l-8.5 8.8c13.6-13.2 17.6-17.2 17.6-17.3 0-0.1-0.2-0.2-0.3-0.2-0.2 0-4.1 3.9-8.8 8.7z"/></svg>