<svg version="1.2" xmlns="http://www.w3.org/2000/svg" viewBox="0 0 1024 1024" width="1024" height="1024"><style>.a{fill:#f3f3f3}.b{opacity:1}.c{fill:#9b9b9b}.d{fill:#5b5b5b}.e{fill:#2d2d2d}</style><path class="a" d="m0 512v512h1024v-1024h-1024z"/><path class="b" d="m491 51.2c-9.1 0.4-21.4 1.2-27.5 1.8-6.1 0.6-18.9 2.5-28.5 4.1-9.6 1.6-24.7 4.7-33.5 6.9-8.8 2.2-23.4 6.6-32.5 9.6-9.1 3.1-21 7.4-26.5 9.6-5.5 2.3-17.2 7.5-26 11.8-8.8 4.2-20.9 10.5-27 14-6.1 3.5-16.2 9.7-22.5 13.8-6.3 4.1-16.7 11.3-23 16.1-6.3 4.7-16.2 12.6-22 17.5-5.8 5-15.6 14-21.9 20.1-6.2 6-16.4 16.8-22.6 24-6.1 7.1-14.5 17.3-18.6 22.5-4.1 5.2-12.2 16.7-18.1 25.5-5.8 8.8-13.4 20.9-16.9 27-3.5 6.1-9.3 17.3-13 25-3.7 7.7-9.4 20.7-12.7 29-3.3 8.2-7.8 20.6-10 27.5-2.2 6.9-5.6 18.6-7.6 26-1.9 7.4-4.6 19.6-6 27-1.4 7.4-3.4 20.2-4.5 28.5-1.1 8.2-2.5 23.6-3.2 34-0.6 11.3-0.8 26.1-0.4 36.5 0.3 9.6 1.5 25.1 2.6 34.5 1 9.4 3.1 23.5 4.5 31.5 1.4 8 4.4 21.7 6.6 30.5 2.2 8.8 6.2 22.7 9 31 2.7 8.2 7.3 20.6 10 27.5 2.8 6.9 8.1 18.8 11.8 26.5 3.7 7.7 10.2 20.1 14.5 27.5 4.2 7.4 12.2 20 17.6 28 5.4 8 14 19.7 19.1 26.1 5.1 6.5 14.9 17.9 21.8 25.4 6.9 7.6 18.1 18.9 25 25.1 6.9 6.2 17.9 15.6 24.5 20.9 6.6 5.3 18.1 13.8 25.5 18.9 7.4 5.1 19.8 13 27.5 17.6 7.7 4.6 21 11.8 29.5 16 8.5 4.3 21.1 10 28 12.8 6.9 2.7 17.2 6.7 23 8.7 5.8 2 16.8 5.4 24.5 7.6 7.7 2.2 21.6 5.5 31 7.4 9.4 1.9 24.2 4.3 33 5.4 8.8 1.1 24.6 2.5 35 3.1 14.2 0.9 24.5 0.9 40.5 0.1 11.8-0.7 28.5-2.1 37-3.1 8.5-1.1 20.5-2.9 26.5-4.1 6-1.1 18.2-3.8 27-6 8.8-2.2 23.2-6.4 32-9.4 8.8-2.9 22.1-7.9 29.5-11 7.4-3.1 21.4-9.7 31-14.6 9.6-4.8 23.6-12.6 31-17.1 7.4-4.6 18.2-11.7 24-15.8 5.8-4.1 17.2-12.8 25.5-19.5 8.2-6.6 22.9-19.9 32.5-29.5 9.7-9.6 21-21.5 25.1-26.5 4.2-5 10.7-13 14.5-18 3.9-5 10.4-14 14.6-20 4.2-6 10.8-16.4 14.8-23 3.9-6.6 10.4-18.5 14.5-26.5 4-8 9.3-19.2 11.8-25 2.4-5.8 6.6-16.4 9.1-23.5 2.6-7.1 6.7-19.8 9.1-28 2.3-8.3 5.4-20.4 6.9-27 1.4-6.6 3.5-17.2 4.5-23.5 1.1-6.3 2.8-18.3 3.8-26.5 1.4-11.7 1.8-22.4 1.8-48.5-0.1-26-0.5-36.6-1.8-47.5-1-7.7-2.5-18.1-3.3-23-0.8-4.9-2.6-14.4-4-21-1.4-6.6-4.1-17.9-6-25-1.9-7.1-5.9-20.3-8.9-29.3-3-8.9-8.2-22.6-11.6-30.5-3.3-7.8-9-19.8-12.4-26.7-3.5-6.9-9.5-17.7-13.2-24-3.8-6.3-11-17.6-16-25-5.1-7.4-13.5-18.9-18.8-25.5-5.3-6.6-15.1-18-21.8-25.3-6.7-7.4-18.1-18.7-25.2-25.2-7.1-6.5-18.2-16-24.5-21-6.3-5-18.5-13.8-27-19.5-8.5-5.7-20.7-13.4-27-17-6.3-3.7-17.8-9.7-25.5-13.5-7.7-3.7-21.4-9.7-30.5-13.3-9.1-3.6-21.6-8.1-27.8-10.1-6.1-2-17.2-5.2-24.5-7.1-7.2-1.9-18.6-4.6-25.2-5.9-6.6-1.4-18.3-3.4-26-4.5-7.7-1.1-20.1-2.5-27.5-3-7.4-0.6-19.8-1.2-27.5-1.4-7.7-0.1-21.4 0.1-30.5 0.5z"/><path class="c" d="m958.4 495.5c0 5.5 0.1 7.5 0.3 4.5 0.2-3 0.2-7.5 0-10-0.2-2.5-0.3 0-0.3 5.5z"/><path class="a" d="m470 68.5c-7.4 0.8-18.2 2.1-24 3-5.8 0.9-17.9 3.2-27 5.2-9.1 1.9-23.3 5.4-31.5 7.8-8.3 2.4-20.4 6.4-27 8.8-6.6 2.5-17.4 6.8-24 9.6-6.6 2.9-18.4 8.6-26.3 12.6-7.8 4.1-19.2 10.5-25.2 14.3-6.1 3.7-16.5 10.6-23.3 15.4-6.7 4.8-17.9 13.4-24.9 19.2-7.1 5.8-17.8 15.4-23.9 21.4-6.2 5.9-16.1 16.3-22.2 23.2-6 6.9-15.1 17.9-20.2 24.5-5.1 6.6-12.4 16.7-16.2 22.5-3.9 5.8-9.8 15.2-13.3 21-3.5 5.8-10.2 18.4-14.9 28-4.8 9.6-11 23.4-13.8 30.5-2.8 7.1-7 18.6-9.2 25.5-2.3 6.9-5.9 19.7-8.1 28.5-2.2 8.8-5.1 22.1-6.4 29.5-1.4 7.4-3.3 20-4.3 28-1.4 11.4-1.8 21.7-1.8 48.5 0 26.7 0.4 37 1.8 48 1 7.7 2.5 18 3.3 23 0.8 5 2.2 12.4 3 16.5 0.8 4.1 2.6 12 4 17.5 1.4 5.5 4.3 16.1 6.5 23.5 2.3 7.4 7.3 21.6 11.1 31.5 3.9 9.9 11 25.6 15.8 35 4.8 9.4 12 22.4 16 29 4 6.6 10.3 16.3 13.9 21.5 3.6 5.2 10.9 14.9 16.2 21.5 5.2 6.6 14.2 17.1 20 23.4 5.7 6.3 16.5 17.1 23.9 23.9 7.4 6.9 19.3 17.2 26.5 22.9 7.2 5.7 18.9 14.3 26 19.2 7.1 4.9 18.6 12.1 25.5 16.1 6.9 4 18.1 10.1 25 13.5 6.9 3.5 17.4 8.4 23.5 11 6.1 2.6 19.6 7.5 30 11 10.4 3.5 25.5 8 33.5 9.9 8 1.9 20.6 4.6 28 6 7.4 1.4 20 3.3 28 4.3 11.3 1.4 21.9 1.8 48 1.8 25.9 0 36.8-0.4 48-1.8 8-1 18.8-2.5 24-3.3 5.2-0.8 15.6-2.8 23-4.5 7.4-1.6 18.2-4.4 24-6.1 5.8-1.6 15.5-4.7 21.5-6.8 6-2 15.3-5.4 20.5-7.5 5.2-2 16.7-7.2 25.5-11.4 8.8-4.3 22.1-11.2 29.5-15.6 7.4-4.3 17.3-10.4 22-13.5 4.7-3.1 13.9-9.7 20.5-14.7 6.6-4.9 17-13.1 23-18.3 6-5.2 16.6-15.1 23.5-22 6.9-6.9 16.9-17.7 22.4-24 5.4-6.3 14.7-18 20.7-26 6-8 15.2-21.7 20.5-30.5 5.3-8.8 13.6-24.1 18.4-34 4.8-9.9 10.5-22.3 12.5-27.5 2.1-5.2 6-16 8.7-24 2.6-8 6.4-20.4 8.3-27.5 1.9-7.1 4.5-18.9 5.9-26 1.5-7.1 3.5-20 4.6-28.5 1-8.5 2.4-23.8 3.1-34 0.6-10.6 0.9-25.4 0.5-34.5-0.4-8.8-1.3-22.5-2.2-30.5-0.8-8-2.6-21.2-4-29.5-1.3-8.2-4.2-22.2-6.3-31-2.2-8.8-6-22.5-8.6-30.5-2.6-8-6.7-19.4-9-25.5-2.3-6.1-6.8-16.6-10-23.5-3.2-6.9-8.7-17.9-12.3-24.5-3.6-6.6-9.7-16.9-13.5-23-3.8-6.1-10.8-16.3-15.5-22.9-4.8-6.5-12.7-16.6-17.5-22.5-4.9-5.8-13.9-16-20-22.5-6.2-6.6-17.1-17.1-24.2-23.3-7.1-6.3-18-15.2-24-19.7-6-4.6-16.4-11.9-23-16.3-6.6-4.4-17.2-11-23.5-14.5-6.3-3.6-16-8.8-21.5-11.6-5.5-2.7-15.6-7.3-22.5-10.2-6.9-2.9-17.2-7.1-23-9.2-5.8-2.2-17.3-5.9-25.5-8.3-8.2-2.4-21.3-5.7-29-7.4-7.7-1.7-18.3-3.7-23.5-4.6-5.2-0.8-15.1-2.2-22-3.1-8.3-1-23.6-1.7-45.5-1.9-23.6-0.3-36.9 0-46.5 1z"/><path class="d" d="m506.5 66.7c2.8 0.2 6.8 0.2 9 0 2.2-0.2 0-0.3-5-0.3-4.9 0-6.8 0.1-4 0.3zm-0.5 860c2.5 0.2 6.8 0.2 9.5 0 2.8-0.2 0.7-0.3-4.5-0.3-5.2 0-7.5 0.1-5 0.3z"/><path fill-rule="evenodd" class="b" d="m508.3 101h12.4l-0.4 17.3c-0.2 9.4-0.6 19.4-1.5 27.2l6.9 0.7c3.7 0.5 9.6 0.8 13 0.8 5.9 0 6.3 0.2 6.3 2.3 0 1.2-0.4 3.9-0.8 5.9-0.7 3.7-0.8 3.7-4.7 3.3-2.2-0.3-10.8-0.7-34-1.7l0.7-9.2c0.4-5 1.1-17.5 1.4-27.9zm-26.3 1l0.1 6.3c0 3.4 0.7 14.3 1.4 24.2 0.8 10 1.5 20 1.5 26.5h-12l-0.5-5.2c-0.3-2.9-1.4-15.4-4-50.3l2.5-0.6c1.4-0.3 4.5-0.7 11-0.9zm-62 9.1c3.4 0 7.1 0.7 9.5 1.8 2.2 1.1 5.5 3.5 10.5 9.1l-9 6-3.2-3c-1.8-1.7-4.6-3.3-6.3-3.6-1.6-0.3-4.8 0-7 0.7-2.2 0.8-5.3 2.5-6.8 3.9-1.6 1.4-3.4 3.8-4.1 5.3-0.6 1.4-1.2 4.8-1.3 7.5-0.2 2.6 0.3 6.6 0.9 8.7 0.6 2.2 2.7 5.7 4.7 7.7 2.1 2.1 5.1 3.9 7.1 4.4 2 0.3 5.2 0.4 7.3 0.1 2.2-0.4 5.3-2 7.5-4 2.1-1.9 4.3-5 5-7 1-2.9 1-3.6 0-3.6-0.7 0-4 0.7-7.3 1.5-4.8 1.3-6.1 1.3-6.7 0.2-0.3-0.7-0.9-2.8-1.2-4.8-0.4-1.9-0.5-3.5-0.3-3.5 0.1-0.1 5.6-1.6 12.2-3.3 6.6-1.8 12.2-3.1 12.3-2.9 0.1 0.1 1.8 6.3 3.7 13.7 1.9 7.5 3.5 13.9 3.5 14.3 0 0.4-1.6 1-3.7 1.4-2.1 0.3-4.2 0.8-4.8 1-0.5 0.2-1.3-0.7-2.5-4.7l-4.2 4.3c-2.3 2.4-6.1 5.1-8.3 6.2-2.2 1-5.5 2.1-7.5 2.3-1.9 0.3-6.2-0.3-9.5-1.2-3.3-1-7.5-2.8-9.5-4-1.9-1.3-4.2-3.1-5.1-4.2-1-1-2.8-4.1-4-6.9-1.8-3.9-2.3-6.8-2.3-13.5 0-7.3 0.3-9.1 2.6-13.5 1.5-2.7 3.9-6.1 5.5-7.6 1.6-1.4 4-3.3 5.3-4.2 1.4-0.9 4.6-2.3 7-3.1 2.5-0.8 7-1.4 10-1.5zm199.3 5c2.6 0 7.3 0.8 10.5 1.7 3.2 1 7.5 3.2 9.6 4.8 2.1 1.6 5.2 5 6.8 7.4 1.6 2.5 3.3 6.8 3.9 9.5 0.7 3.6 0.7 6.6-0.2 10.5-0.6 3.1-2 7.4-3.1 9.5-1.1 2.2-3.4 5.6-5.1 7.4-1.7 1.8-5 4.2-7.2 5.4-2.2 1.1-6.4 2.2-9.5 2.5-3.6 0.3-7.5-0.1-11.5-1.2-3.3-1-7.8-3-10-4.5-2.2-1.5-5.4-4.7-7.2-7.1-1.8-2.5-3.8-6.7-4.4-9.5-0.6-2.7-0.8-7.2-0.4-10 0.3-2.7 1.7-7.2 3-10 1.3-2.7 4.5-6.9 7.2-9.2 2.7-2.4 6.6-4.9 8.8-5.7 2.2-0.8 6.2-1.4 8.8-1.5zm-259.7 15.3c0.1 0.1 4.8 11.3 10.3 24.9 5.6 13.6 10.1 25.1 10.2 25.5 0 0.4-2.5 2-11.1 6.2l-10.1-24.7c-5.5-13.6-10.3-25.2-10.5-25.8-0.3-0.5 2.1-2.1 5.3-3.6 3.1-1.4 5.8-2.5 5.9-2.5zm319.7 4.9l4.1 2c2.3 1.1 10.1 5.1 30.6 15.7l-2.2 4.6c-1.2 2.5-2.6 4.5-3 4.5-0.4 0-5.5-2.5-21.8-11.1l-2.5 5.5c-1.3 3.1-2.3 5.7-2.2 5.9 0.1 0.2 4 2.3 16.7 8.6l-5 10-17-9-4.5 9.3c-2.5 5.1-4.6 9.6-4.7 10.1-0.2 0.5-2.7-0.4-11.3-4.6l8.8-19.6c4.9-10.8 10-22.4 11.4-25.8zm-362.8 16.8c1.1 0 4 1 6.5 2.2 2.4 1.3 5 3.3 5.7 4.5 1.3 2.1 1.1 2.5-2.9 5.3-4.3 2.9-4.3 2.9-6.3 0.9-1.1-1.1-3.1-1.9-4.5-1.9-1.3 0-4.4 1.2-6.7 2.5q-4.3 2.5-4.9 5.2c-0.3 1.6-0.2 3.5 0.4 4.3 0.5 0.8 2.3 1.6 3.8 1.8 1.6 0.2 5.6-0.6 8.9-1.8 3.3-1.1 8.5-2.3 11.5-2.6 4.6-0.4 6.3-0.1 10 1.8 2.7 1.4 5.1 3.6 6.2 5.8 1.1 2 1.9 5.6 1.9 8.5 0 3.8-0.7 6-2.8 9.2-1.5 2.3-4.8 5.7-7.3 7.5-2.4 1.8-6.5 3.8-9 4.5-2.4 0.7-6.4 1.3-8.7 1.3-2.3 0-5.6-0.7-7.3-1.5-1.6-0.8-3.9-2.6-5-4-1.1-1.4-1.8-2.8-1.5-3.3 0.2-0.4 2.4-1.8 4.9-3.2 4.3-2.4 4.6-2.4 6.3-0.8 1.1 1 3.4 1.8 5.6 1.8 2.1 0 4.8-0.5 6-1.1 1.2-0.6 3.5-2.3 5-3.8 1.5-1.4 2.8-3.5 2.7-4.6 0-1.1-1-3-2.2-4.3-1.3-1.3-3.4-2.2-5-2.2-1.5 0-6.2 1.1-10.5 2.5-4.3 1.4-9.9 2.5-12.5 2.5-4 0-5.3-0.5-8.3-3.3-2-1.7-4-4.8-4.6-6.7-0.6-1.9-0.8-5.1-0.5-7 0.4-1.9 1.8-5.2 3.1-7.3 1.4-2 4.5-5 6.8-6.6 2.3-1.6 6.3-3.6 8.7-4.4 2.5-0.9 5.4-1.6 6.5-1.7zm200 38.5c17.8 0.2 30.8 0.9 38 1.9 6.1 0.9 17.3 3 25 4.7 7.7 1.7 19.2 4.7 25.5 6.6 6.4 1.9 16.7 5.5 23 8 6.4 2.5 18.1 7.8 26 11.9 8 4 19.4 10.4 25.3 14.1 5.9 3.7 15.4 10.2 21 14.4 5.6 4.2 15.2 12.1 21.2 17.6 6.1 5.5 15.8 15.2 21.5 21.7 5.8 6.4 14.4 16.8 19 23.1 4.7 6.2 11.5 16 15 21.7 3.5 5.6 9.5 16.4 13.1 23.8 3.7 7.4 9 19.6 11.8 27 2.7 7.4 6.1 17.5 7.5 22.5 1.4 4.9 3.5 13.3 4.7 18.5 1.1 5.2 3 15.1 4.1 22 1.4 8.7 2.2 19.6 2.5 35.5 0.4 13.6 0.1 27.9-0.5 35-0.6 6.6-2 17.4-3.2 24-1.1 6.6-3.6 18.1-5.4 25.5-1.9 7.4-5.3 18.9-7.5 25.5-2.3 6.6-6.9 18.3-10.3 26-3.4 7.7-9.3 19.4-13.1 26-3.8 6.6-9.5 15.8-12.6 20.5-3.2 4.7-9.5 13.2-14.1 19-4.6 5.8-14.3 16.4-21.4 23.6-7.2 7.2-17.6 16.8-23.1 21.4-5.5 4.5-14.2 11.3-19.5 15-5.2 3.7-14.2 9.6-20 13-5.7 3.5-16.3 9.1-23.5 12.5-7.1 3.4-17.2 7.9-22.5 9.9-5.2 2-14.4 5.1-20.5 7-6 1.9-16.1 4.5-22.5 5.9-6.3 1.5-15.3 3.3-20 4.1-4.6 0.8-14.3 2-21.5 2.7-8.2 0.7-20.7 1-34 0.6-13.4-0.4-25.8-1.3-34.5-2.6-7.4-1.2-17.7-3-23-4.1-5.2-1.2-14-3.4-19.5-5-5.5-1.6-14.7-4.6-20.5-6.6-5.7-2-16.8-6.5-24.5-10-7.7-3.6-18-8.7-23-11.6-4.9-2.8-13.9-8.4-20-12.4-6-4-15.9-11.3-21.9-16.1-6.1-4.8-16.2-14-22.6-20.3-6.4-6.3-15-15.6-19.1-20.5-4.2-5-10.8-13.5-14.8-19-4-5.5-10.1-14.7-13.5-20.5-3.5-5.8-9.2-16.4-12.8-23.5-3.6-7.2-8.5-18.2-11-24.5-2.5-6.3-6.1-16.9-8.1-23.5-1.9-6.6-4.6-17.6-6-24.5-1.4-6.9-3.3-17.9-4.2-24.5-0.9-6.6-1.8-19.9-2.2-29.5-0.3-9.8 0-24.1 0.6-32.5 0.7-8.3 2.1-20.6 3.2-27.5 1.1-6.9 3.2-17 4.5-22.5 1.4-5.5 3.7-13.8 5.1-18.5 1.4-4.7 4.7-14.1 7.4-21 2.7-6.9 7.6-17.7 10.8-24 3.2-6.3 8.3-15.6 11.4-20.5 3-5 8.6-13.3 12.3-18.5 3.7-5.2 10.9-14.5 16-20.5 5.1-6.1 14.2-15.8 20.1-21.7 6-5.8 13.1-12.5 15.8-14.9 2.8-2.3 8.4-6.8 12.5-9.9 4.2-3.2 12-8.6 17.5-12.2 5.5-3.6 14.1-8.8 19-11.6 5-2.8 14.4-7.5 21-10.5 6.6-3 18.1-7.5 25.5-10.1 7.5-2.6 19.6-6.2 27-8.1 7.5-1.9 17.8-4.2 23-5.1 5.3-0.9 14.7-2.2 21-3 7.9-0.9 20.1-1.2 38.5-0.9zm-374 281c2.9 0.3 6.5 1.5 8.5 2.8 2 1.3 4.5 3.9 5.7 5.8 1.2 1.9 2.5 5.4 2.9 7.9 0.5 3.1 0.2 5.8-0.9 8.5-0.8 2.2-3 5.4-4.8 7.1-1.9 1.6-5.2 3.6-7.4 4.3-2.4 0.9-5.7 1.1-8.5 0.7-2.4-0.4-6.1-1.8-8.2-3.1-2.1-1.4-4.7-4.3-5.8-6.5-1.1-2.3-1.9-6-1.9-8.8 0-2.9 0.8-6.4 2.2-9.1 1.2-2.4 3.6-5.3 5.2-6.5 1.7-1.1 4.2-2.3 5.5-2.8 1.4-0.4 4.8-0.5 7.5-0.3zm737.5-0.4c2.5-0.1 6.3 0.7 8.5 1.7 2.2 1 5.3 3.4 6.8 5.3 1.5 1.8 3 5.4 3.5 7.9 0.5 2.5 0.5 6.4 0.1 8.7-0.6 3-2 5.5-4.6 8.1-2.1 2-5.6 4.3-7.8 4.9-2.2 0.7-5.2 1.3-6.7 1.3-1.5 0-4.4-0.7-6.5-1.6-2.1-0.8-4.8-2.5-6.1-3.7-1.3-1.2-3.2-4-4.3-6.2-1-2.2-1.8-5.5-1.8-7.3 0-1.7 0.6-4.9 1.5-7 0.9-2 2.6-5 3.8-6.7 1.2-1.6 3.8-3.5 5.7-4.2 1.9-0.7 5.5-1.2 7.9-1.2zm-26.3 82.6c3.2 0.8 6 1.6 6.1 1.6 0.1 0.1-0.4 3.1-1.2 6.7-0.9 3.6-1.5 7.3-1.5 8.2 0 1.4 1.3 2.1 5.2 2.8 2.9 0.6 12.7 2.9 38.2 9.1l-1.5 6c-0.8 3.3-1.8 5.9-2.2 5.9-0.4 0-9.8-2.3-20.8-5-11-2.8-20.6-5-21.5-5q-1.5 0-3.6 7.2c-1.1 4-2.1 7.4-2.2 7.6-0.1 0.2-2.8-0.5-5.9-1.5-4.4-1.4-5.7-2.2-5.2-3.3 0.3-0.8 2.6-10.1 5.1-20.5 2.5-10.5 4.6-19.5 4.8-20.2 0.2-0.8 1.8-0.8 6.2 0.4zm-678.7 6.4c0.7-0.1 1.1 0.2 0.8 0.6-0.3 0.5-0.1 3.1 0.6 6 0.6 2.9 0.9 5.3 0.6 5.3-0.2 0-11.5 2.3-25 5-13.4 2.8-25.4 5.3-26.5 5.6-1.7 0.5-2.1-0.2-2.9-4.8-0.5-2.9-1-5.7-1-6.2 0-0.5 11.6-3.3 25.9-6.2 14.3-2.8 26.7-5.2 27.5-5.3zm6.5 31.9c0.6 0 1.8 2.7 4.5 12l-6.1 7.2c-3.3 4-9.4 11.3-13.4 16.3-4.1 4.9-7.4 9.3-7.4 9.7 0 0.5 2.5-0.3 5.7-1.6 3.2-1.4 10.8-4.3 17-6.5 8.2-3 11.4-3.8 11.7-2.9 0.3 0.7 1.2 3.1 3.4 9.3l-25.7 9.3c-14.1 5.1-25.7 9.1-25.7 9 0-0.2-1-2.7-4.5-10.8l10.8-13.3c6-7.2 12.3-15.1 14-17.5 1.8-2.3 3.2-4.3 3.2-4.5 0-0.1-7.5 2.4-16.7 5.5-9.2 3.1-17.2 5.7-17.8 5.8-0.5 0-1.7-2.3-2.7-5.2-0.9-2.9-1.6-5.3-1.5-5.3 0.2 0 11.5-3.7 25.2-8.3 13.8-4.5 25.5-8.2 26-8.2zm654.9 17.3c0.6 0.3 11.6 5.1 24.4 10.6 12.8 5.6 23.7 10.1 24.2 10.1 0.6 0 1 0.6 1 1.2 0 0.7-0.8 3.5-1.8 6.3-1.5 3.8-2.5 5.1-4.3 5.3-1.3 0.1-11.1 1.6-21.9 3.3-10.7 1.7-19.6 3.1-19.7 3.2-0.1 0.1 6 3 13.5 6.4 7.6 3.4 15.4 6.9 21.2 9.3l-2.6 5.2c-1.4 2.9-2.8 5.5-3 5.8-0.3 0.3-11.8-5.1-25.7-12-13.8-6.9-25.3-12.5-25.4-12.5-0.1 0 0.8-2.5 4.5-11l19.9-2.4c10.9-1.3 20.9-2.7 22.2-3 1.9-0.5-1.4-2.2-14.7-7.6-16.6-6.8-17.2-7.1-16.6-9.5 0.3-1.4 1.3-4 2.1-5.9 0.9-1.8 2.1-3.1 2.7-2.8zm-633.9 38.7c0.5 0 2.2 2.6 6.5 11.5l-13.2 15.3c-7.3 8.4-13 15.5-12.8 15.7 0.3 0.2 8.9-1.4 19-3.5 10.2-2.2 19.3-4.2 20.3-4.5 1.3-0.4 2.4 0.9 4.7 5.5 1.7 3.3 2.7 6 2.3 6-0.4 0-13.4 2.1-28.8 4.5-15.4 2.5-28 4.4-28 4.3-0.1-0.2-1.3-2.4-5.5-9.8l17.3-22.5c9.5-12.4 17.7-22.5 18.2-22.5zm607.3 17c0.1 0 2.1 1.2 4.3 2.7 2.2 1.6 4 3 4 3.3 0 0.3-3.2 5.2-7.1 11-3.8 5.8-6.9 10.8-7 11.2 0 0.5 2.1 2.3 9.3 7.3l1.8-2.5c1-1.4 3.6-5.5 9.4-15.6l4.7 3.5c4.4 3.4 4.5 3.7 2.7 5.1-1 0.8-3.7 4.5-9.9 15l5.3 3.6c2.9 1.9 5.5 3.2 5.9 2.7 0.3-0.4 3.7-5.6 14.3-22l4.3 2.9c2.7 1.7 4 3.3 3.6 4-0.4 0.7-4.7 7.6-9.7 15.3-4.9 7.7-9.4 14.6-10 15.3-0.9 1.1-5.8-1.8-24.2-13.9-12.6-8.3-23.1-15.3-23.2-15.5-0.1-0.2 4.6-7.8 10.5-16.9 5.9-9.1 10.8-16.5 11-16.5zm-573.9 39c0.4 0 2.6 1.9 9.3 8.5l-8.3 7.1c-4.6 3.8-13.6 11.4-20.1 16.7-6.5 5.3-12.1 9.7-12.5 9.7-0.4 0-2.4-1.9-8.1-8.5l18.2-15.1c10-8.3 18.8-15.9 19.5-16.8 0.8-0.9 1.7-1.6 2-1.6zm544.4 12c1.5 0 4.5 0.9 6.7 2 2.2 1.1 4 2.3 4 2.7 0 0.5-1.7 2.6-3.7 4.7-3.2 3.3-4 3.7-5.5 2.7-1-0.6-2.8-1.1-4-1.1-1.4-0.1-3.7 1.5-6 4-2.1 2.2-3.8 5-3.8 6.2 0 1.3 0.8 3.1 1.8 4.1 1.2 1.3 2.5 1.6 4.2 1.1 1.4-0.4 6.4-2.9 11-5.5 4.7-2.7 10.1-5.1 12-5.4 2.6-0.4 4.8 0 8 1.7 3 1.5 5.3 3.7 6.8 6.3 1.4 2.5 2.2 5.7 2.2 8.5 0 3.1-0.8 6-2.8 9.5-1.6 2.7-4.6 6.4-6.8 8.2-2.1 1.7-5.9 4.1-8.4 5.2-2.4 1.1-5.8 2.1-7.5 2.1-1.6 0-5-0.9-12-4l2-2.3c1.1-1.2 3.1-3.4 4.5-4.9 2.3-2.5 2.7-2.6 4.8-1.2 1.7 1 3.1 1.2 5.5 0.4 1.8-0.5 4.7-2.4 6.5-4.2 2.4-2.4 3.3-4.2 3.3-6.6 0-2.3-0.8-3.8-2.8-5.3-1.9-1.4-3.6-1.8-5.3-1.4-1.3 0.3-4.7 2-7.5 3.7-2.7 1.8-7 4.2-9.5 5.5-2.8 1.5-6.1 2.3-9 2.3-3.9-0.1-4.9-0.6-8.2-4-2.9-3.1-3.9-5.1-4.4-8.8-0.4-3.5-0.1-5.7 1.3-8.6 1-2.1 3.9-6 6.4-8.5 2.5-2.5 6.5-5.6 9-6.9 2.4-1.2 5.7-2.2 7.2-2.2zm-522.5 19.5c2.9 0.3 7.2 1.4 9.5 2.5 2.3 1.1 6 3.5 8.2 5.3 2.2 1.9 5.4 5.8 7 8.8 2.6 4.6 3 6.5 3 12.4 0 5.3-0.6 8.1-2.2 11.2-1.3 2.4-3.9 6.2-6 8.5-2.1 2.2-6 5.2-8.8 6.4-3.2 1.6-6.8 2.4-10.2 2.4-2.9 0-7.6-0.9-10.5-1.9-2.9-1.1-7.6-4.1-10.6-6.8-2.9-2.6-6.5-7.1-7.8-9.8-2.1-4.1-2.4-6.1-2.1-11.5 0.2-3.6 1.2-8.3 2.3-10.5 1-2.2 3.8-5.9 6.2-8.3 2.3-2.3 5.7-5 7.5-5.9 1.8-0.9 4.6-2 6.2-2.4 1.7-0.5 5.4-0.6 8.3-0.4zm482.6 15.5c0.6 0 5.5 6.2 11.1 13.7 5.5 7.5 13.1 17.2 23.5 29.3l-5.2 4c-2.9 2.3-5.5 4.1-5.8 4.1-0.2-0.1-7.2-2.5-15.5-5.5-8.2-3-17.4-6.4-20.5-7.5-3-1.2-5.5-2-5.6-1.9-0.2 0.2 4.9 6.7 11.2 14.5 6.3 7.9 11.3 14.6 11 15-0.2 0.5-2.4 2.3-5 4-2.5 1.8-4.5 3-4.5 2.5 0-0.4-5.3-7.5-11.8-15.7-6.4-8.3-13.9-17.7-16.5-21-2.7-3.3-4.5-6.3-4-6.6 0.4-0.3 3-2.2 10.7-7.8l19.5 6.9c10.8 3.8 19.6 6.8 19.7 6.7 0.1-0.1-4.9-6.5-22.4-28.2l4.6-3.3c2.5-1.7 5-3.2 5.5-3.2zm-434.2 19.1l4.7 3.5c2.5 1.9 5 3.6 5.4 3.7 0.4 0.1-4 7.4-9.8 16.2-5.9 8.8-11.3 17.2-12.1 18.7-1.3 2.7-1.2 2.9 2.4 5.2 2.1 1.3 6.6 4.1 16.3 10.1l-3 4.2c-1.7 2.4-3.4 4.3-3.8 4.3-0.4 0-1.4-0.6-2.3-1.4-0.8-0.7-7.1-4.8-14-9.1-6.8-4.3-12.6-8-12.7-8.1-0.1-0.2 4.4-7.9 10.1-17.2 5.7-9.2 12.3-19.7 14.6-23.4zm375.8 26.2c4 0.3 8 1.2 10.5 2.4 2.2 1.2 5.4 3.6 7.2 5.4 1.7 1.9 4.1 5.4 5.4 7.9 1.2 2.5 2.4 7.2 2.7 10.5 0.4 4.2 0 7.6-1.3 11.5-1.3 3.9-3.3 6.9-6.9 10.6-3.5 3.4-7 5.8-11.1 7.3-4.6 1.8-7.4 2.2-12 1.8-3.3-0.2-7.8-1.3-10-2.5-2.2-1.1-5.5-3.5-7.3-5.3-1.8-1.9-4.5-5.9-6-8.9-2.2-4.6-2.7-6.8-2.7-13.6 0-7.2 0.3-8.6 3-13 1.8-2.9 5.1-6.3 8-8.2 2.8-1.9 7-4 9.5-4.8 2.7-0.8 7.2-1.3 11-1.1zm-321.1 7.7c0.4 0 3.3 1 12.4 4.5l-0.6 11c-0.4 6-1 19-1.4 28.7-0.8 17.1-0.8 17.7-2.8 17.1-1.1-0.3-3.6-1.2-5.5-1.8-3.4-1.2-3.5-1.3-3.5-12.7l-21-8-7 7.3-5-2.3c-2.7-1.2-5.2-2.4-5.5-2.5-0.3-0.1 8.5-9.5 19.4-20.8 11-11.3 20.2-20.5 20.5-20.5zm53.1 19.5c6.9 1.7 13.9 3.9 15.5 4.7 1.7 0.8 4.3 2.9 5.8 4.7 1.9 2.1 2.7 4.2 2.7 6.6 0 1.9-0.4 4.6-1 6-0.5 1.4-1.9 3.4-3 4.5-1.1 1.1-3.1 2-4.5 2-1.4 0-2.5 0.3-2.5 0.7 0 0.4 0.9 1.3 2 2 1.1 0.7 2.7 2.9 3.5 4.8 1 2.2 1.3 4.8 0.9 7.2-0.3 2.1-1.5 5.2-2.5 7-1 1.8-3.2 4-4.9 4.8-1.6 0.8-5 1.5-7.5 1.5-2.5 0-10.4-1.4-17.7-3.2-7.3-1.7-13.4-3.1-13.6-3.2-0.2-0.1 2.9-11.6 6.8-25.6 3.9-14 7.2-26 7.4-26.6 0.1-0.7 4.6 0 12.6 2.1zm203.5-1.2c4.5 0.2 8.4 1 10.9 2.2 2.2 1.1 4.8 3.2 7.6 7.5l-10 6-3-2.5c-2.2-1.9-4.1-2.5-7.5-2.5-2.5 0-6.3 0.9-8.5 2-2.2 1.1-4.6 3.3-5.5 5-0.8 1.6-1.5 5.1-1.5 7.7 0 3.3 0.9 6.6 2.8 10.3 1.6 3.3 4.1 6.4 6.2 7.8 1.9 1.2 4.9 2.2 6.5 2.2 1.7 0 4.8-0.9 7-2 2.4-1.1 4.9-3.4 6.2-5.7 1.3-2.1 2.3-4.5 2.3-5.3 0-1.2 1.4-1.5 6-1.5 4.7 0 6 0.3 6 1.5 0 0.8-0.4 3.1-0.9 5-0.6 1.9-2.7 5.5-4.8 7.9-2.1 2.4-6 5.5-8.8 6.9-3.2 1.6-7.4 2.7-11.5 3-4.4 0.3-8.1-0.1-11.5-1.1-2.8-0.9-6.7-3.3-9-5.4-2.6-2.4-4.9-5.9-6.3-9.6-1.4-3.7-2.2-7.9-2.2-12 0-3.4 0.6-8 1.3-10.2 0.7-2.1 3.2-6 5.7-8.6 2.8-2.8 6.6-5.4 10-6.7 4.2-1.7 7.2-2.1 12.5-1.9zm-161 10.6l6 0.6c3.3 0.4 6.1 0.8 6.2 0.8 0.1 0.1-1.2 9.9-2.8 21.7-1.6 11.8-2.8 21.6-2.7 21.8 0.2 0.1 5.6 0.8 23.8 2.7l-0.6 5c-0.4 2.7-0.7 5.1-0.8 5.3 0 0.1-8.2-0.7-18.1-1.8-9.9-1.1-18.1-2.1-18.3-2.3-0.1-0.1 1.5-12.3 3.5-27zm80.3 3.3c3.6-0.1 5.3 0.2 5.3 1 0 0.7 0.3 2.9 1.4 8.6l-5.5 0.6c-3 0.3-8.8 0.8-20.5 1.7l0.5 10.9 18.8-1.5 0.4 5.3c0.2 3 0.2 5.6-0.1 5.8-0.2 0.2-3.6 0.4-7.5 0.4-3.9 0-8.1 0.2-9.3 0.5-2 0.4-2.3 1.1-2.3 12l27-1.5 0.5 10.8-5.5 0.6c-3 0.3-12.1 0.9-35 2.1v-27.8c0-15.2 0.2-27.8 0.3-27.8 0.1-0.1 6.1-0.5 13.2-0.9 7.2-0.3 15.4-0.7 18.3-0.8z"/><path class="c" d="m821.4 494.5c0 6.1 0.1 8.3 0.3 5 0.2-3.3 0.2-8.3 0-11-0.2-2.8-0.3-0.1-0.3 6z"/><path class="d" d="m505 190.7c2.5 0.2 6.8 0.2 9.5 0 2.8-0.2 0.7-0.3-4.5-0.3-5.2 0-7.5 0.1-5 0.3zm4.5 614c2.2 0.2 6 0.2 8.5 0 2.5-0.2 0.7-0.4-4-0.4-4.7 0-6.7 0.2-4.5 0.4z"/><path fill-rule="evenodd" class="a" d="m621.5 127.1c1.6 0 4.8 0.7 7 1.7 2.2 1 5.1 3.4 6.4 5.3 1.4 1.9 2.7 5.2 2.9 7.4 0.3 2.2-0.2 6.3-1.1 9-1.1 3.3-3 6.3-5.6 8.8-2.3 2-5.3 4-6.9 4.3-1.5 0.4-4.3 0.3-6.2-0.1-1.9-0.4-4.9-1.5-6.5-2.5-1.6-1-3.9-3.4-5-5.2-1.3-2.2-1.9-5.1-1.9-8.8 0-3.6 0.7-6.9 2.1-9.5 1.2-2.2 3.2-5 4.5-6.2 1.2-1.2 3.4-2.6 4.8-3.2 1.4-0.5 3.9-1 5.5-1zm-101.5 79.6c9.6 0.2 22.7 1 29 1.8 6.3 0.8 15.1 2.2 19.5 3 4.4 0.9 12.3 2.7 17.5 4 5.2 1.3 14.7 4.2 21 6.3 6.3 2.2 15.1 5.4 19.5 7.2 4.4 1.7 14.3 6.4 22 10.3 7.7 4 20.1 11.2 27.5 16.2 7.5 4.9 18.5 13.1 24.5 18 6 5 15.5 13.5 21 19 5.5 5.5 14.3 15.2 19.5 21.5 5.1 6.3 13.2 17.4 17.9 24.5 4.7 7.2 11.6 18.9 15.3 26 3.6 7.2 8.4 17.5 10.6 23 2.2 5.5 5.5 15 7.5 21 1.9 6.1 4.7 16.2 6.1 22.5 1.4 6.3 3.2 16.2 4.1 22 0.9 5.8 2 17.5 2.6 26 0.7 10.8 0.7 20.8 0 33-0.6 9.6-2 23.1-3.1 30-1.2 6.9-3.5 17.9-5.1 24.5-1.7 6.6-4.4 16-5.9 21-1.6 5-4.8 13.5-7.1 19-2.2 5.5-6.9 15.6-10.3 22.5-3.4 6.9-9.7 17.9-13.9 24.5-4.2 6.6-10.2 15.5-13.4 19.7-3.2 4.2-10.1 12.4-15.3 18.3-5.2 5.8-14.6 15.2-20.9 20.8-6.2 5.6-16.3 14-22.5 18.5-6.1 4.6-15.8 11.2-21.6 14.7-5.8 3.4-15.9 9-22.5 12.3-6.6 3.2-17.2 8-23.5 10.5-6.3 2.5-16.7 6.1-23 8-6.3 2-16.9 4.7-23.5 6-6.6 1.4-17.4 3.4-24 4.3-9 1.4-18.2 1.8-37 1.8-20.6 0-27.4-0.4-39-2.2-7.7-1.2-21.9-4.1-31.5-6.6-9.6-2.4-23.8-6.7-31.5-9.6-7.7-2.8-21-8.6-29.5-12.8-8.5-4.2-22.2-12.1-30.5-17.6-8.2-5.5-20.2-14.4-26.5-19.7-6.3-5.3-16.2-14.5-22-20.5-5.8-6-13.9-15.2-18.1-20.4-4.2-5.2-9.6-12.4-12.1-16-2.5-3.6-7.2-11-10.5-16.5-3.3-5.5-8.3-14.6-11.2-20.2-2.8-5.7-6.6-14-8.5-18.5-1.9-4.6-5.1-13.3-7-19.3-2-6-4.9-16.6-6.5-23.5-1.7-6.9-3.9-18.1-5.1-25-1.1-6.9-2.4-20.1-2.9-29.5-0.6-9.4-0.8-20.4-0.5-24.5 0.3-4.1 0.9-12.7 1.5-19 0.6-6.3 2.1-17.4 3.4-24.5 1.3-7.1 4-18.4 5.9-25 1.8-6.6 5.1-16.5 7.1-22 2.1-5.5 6-14.9 8.7-21 2.8-6.1 7.3-15.1 10.1-20 2.8-4.9 8.5-14.2 12.8-20.5 4.3-6.3 10.8-15.3 14.6-20 3.7-4.7 12.8-14.6 20.3-22.1 7.4-7.5 18-17.2 23.5-21.5 5.5-4.4 14.5-10.9 20-14.5 5.5-3.6 14.9-9.3 21-12.7 6.1-3.3 16.2-8.4 22.5-11.3 6.3-2.8 18.8-7.6 27.8-10.5 9.2-3.1 23.7-6.9 33.5-8.8 9.4-1.9 22.1-4 28.2-4.6 6.1-0.6 13.5-1.2 16.5-1.4 3-0.2 13.4-0.2 23 0.1zm-262.5 541.3c1.6 0 5 1 7.5 2.2 3.3 1.7 5.1 3.5 6.8 6.8 1.8 3.6 2.1 5.3 1.5 8.5-0.4 2.2-2.1 5.8-3.8 8-1.7 2.2-4.9 5-7.1 6.2-2.1 1.3-5.4 2.3-7.1 2.3-1.8 0-5.1-0.9-7.3-2-2.2-1.1-4.9-3.5-6-5.2-1.1-1.8-2.3-4.2-2.6-5.3-0.3-1.1-0.1-3.9 0.5-6.2 0.6-2.4 2.6-5.9 4.4-7.9 1.7-2 4.8-4.5 6.7-5.5 1.9-1 4.9-1.8 6.5-1.9zm420.5 60.1c1.9-0.1 5 0.8 6.8 1.9 1.7 1.1 4.3 3.5 5.6 5.3 1.3 1.7 2.8 4.8 3.5 6.7 0.6 1.9 1.1 5.3 1.1 7.5 0 2.2-0.9 5.5-2 7.3-1.1 1.8-3.9 4.1-6.2 5.2-2.4 1.1-5.5 2-7 2-1.6 0-4-0.6-5.5-1.4-1.6-0.8-4-2.7-5.4-4.3-1.5-1.5-3.4-4.2-4.2-5.8-0.8-1.6-1.8-4.6-2.2-6.5-0.4-1.9-0.2-5.1 0.4-7 0.6-1.9 2.3-4.7 3.8-6.2 1.6-1.5 3.9-3.1 5.3-3.7 1.4-0.5 4.1-1 6-1zm-318.6 14.5l0.3 9c0.2 4.9 0.2 9 0.1 9.2-0.2 0.1-3.1-1-12.9-5.3zm53.5 11.8c0.9 0.3 3.5 0.9 5.9 1.5 2.7 0.7 4.6 1.9 5.3 3.3 0.6 1.3 0.8 3.3 0.5 4.5-0.3 1.3-1.5 2.7-2.6 3.3-1.3 0.7-3.5 0.6-6.7-0.1-2.7-0.6-5.3-1.4-5.9-1.7-0.8-0.5-0.7-2.2 0.4-6 1.2-4 1.9-5.1 3.1-4.8zm-6 21c0.9 0.2 3.5 0.9 5.9 1.5 2.3 0.6 4.9 1.8 5.7 2.6 0.8 0.8 1.5 2.8 1.5 4.5 0 1.6-0.7 3.7-1.6 4.5-0.8 0.8-2.6 1.5-4 1.5-1.3 0-4.7-0.6-7.4-1.3-2.8-0.7-5-1.6-5-2 0-0.4 0.7-3.2 1.6-6.3 1.3-4.2 2-5.4 3.3-5z"/><path class="b" d="m497.5 233.1c-3.9 0.5-11.1 2.1-16 3.5-4.9 1.4-13.1 4.6-18 7.2-4.9 2.6-12.4 7.2-16.5 10.3-4.1 3.1-9.9 8.3-12.9 11.5-3 3.3-8 9.7-11 14.4-3.1 4.7-6.8 11.1-8.1 14.3-2.4 5.7-2.8 6.1-11 10.5-4.7 2.5-12.3 7.1-17 10.2-4.7 3.1-13 9.3-18.5 13.7-5.5 4.4-13.3 11.6-17.3 15.9-4.1 4.3-11.5 13.3-16.4 19.9-5 6.6-11.2 15.5-13.7 19.8-2.5 4.3-5 7.8-5.6 7.7-0.6 0-4.8 1.8-9.5 4.1-4.7 2.3-11.2 6-14.5 8.2-3.3 2.3-9.1 7.1-12.9 10.7-3.8 3.6-8.9 9.2-11.5 12.5-2.5 3.3-6.4 9.6-8.8 14-2.3 4.4-5.4 11.4-6.8 15.5-1.4 4.1-3.2 11.3-4 16-0.9 4.7-1.5 12.8-1.5 18 0 5.2 0.7 13.6 1.5 18.5 0.9 5 2.5 11.9 3.7 15.5 1.1 3.6 3.7 9.6 5.6 13.5 1.9 3.9 5.3 9.7 7.5 13 2.2 3.3 7.7 9.8 12.1 14.4 4.6 4.7 12 10.9 17.1 14.2 4.9 3.3 10.8 6.6 13 7.5 3.5 1.3 4.5 2.4 8.2 9.7 2.3 4.5 7.7 13.6 12.1 20.2 4.3 6.6 11.2 16 15.4 21 4.1 5 12.4 13.7 18.4 19.4 6 5.7 15 13.4 19.9 17.1 4.9 3.7 13.3 9.3 18.5 12.4 5.2 3.1 10.2 5.9 11 6.1 0.8 0.3 3.8 5.1 6.7 10.7 2.8 5.7 7.4 13.2 10.1 16.8 2.7 3.6 7.6 9.1 10.8 12.2 3.3 3.2 8.6 7.8 11.9 10.3 3.3 2.5 9.8 6.5 14.5 8.9 4.7 2.4 11.2 5.3 14.5 6.4 3.3 1.1 9.8 2.7 14.5 3.6 4.7 0.9 13 1.6 18.5 1.6 5.5 0 13.9-0.7 18.8-1.5 4.8-0.8 12.4-2.9 16.9-4.5 4.6-1.7 11.7-4.9 15.8-7.1 4.1-2.3 10-6 13-8.4 3-2.3 8.7-7.6 12.5-11.6 3.9-4.1 9.1-10.5 11.7-14.4 2.5-3.9 6.3-10.4 8.3-14.5 3.5-7.1 4-7.7 10.3-11 3.7-1.9 11.2-6.4 16.7-10.1 5.5-3.6 12.9-9 16.5-11.9 3.6-3 9.6-8.3 13.5-11.8 3.9-3.6 10.5-10.4 14.8-15.1 4.3-4.7 10.9-13.1 14.6-18.6 3.8-5.5 9.8-15.5 13.3-22.2 6.2-12.1 6.4-12.3 11.8-14.9 3-1.4 8.5-4.6 12.3-7 3.7-2.4 10.2-7.7 14.4-11.8 4.3-4 10.3-10.9 13.3-15.2 3-4.4 7.3-11.9 9.7-16.9 2.3-5 5.2-12.8 6.3-17.5 1.5-5.9 2.3-12.9 2.7-23 0.4-12.1 0.1-16.2-1.6-24.7-1.2-5.7-3.5-13.8-5.2-18-1.6-4.3-4.7-10.7-6.8-14.3-2.1-3.6-6.6-10-10-14.2-3.3-4.3-9.8-10.8-14.4-14.4-4.7-3.7-12.9-8.9-19.2-12-6-3-11.5-5.4-12-5.4-0.5 0-1.8-1.7-2.9-3.7-1-2.1-5-8.5-8.9-14.3-3.8-5.8-10-14.1-13.7-18.5-3.7-4.4-10.7-11.7-15.4-16.2-4.7-4.6-13-11.6-18.4-15.6-5.3-4-13.5-9.6-18.2-12.4-4.7-2.8-11-6.3-14-7.8-4.9-2.4-5.8-3.3-8-8.3-1.4-3.2-5.1-9.6-8.2-14.4-3.2-4.9-9.1-12.1-13.1-16.1-3.9-4.1-9.9-9.3-13.2-11.7-3.3-2.4-9.1-6.1-13-8.2-3.9-2-10.4-4.9-14.5-6.4-4.1-1.4-10.9-3.2-15-4-4.1-0.8-12.2-1.7-18-1.9-5.8-0.2-13.6 0-17.5 0.6z"/><path fill-rule="evenodd" class="a" d="m515 248.5c7.2 0.2 15.2 1.1 19 2.1 3.6 0.9 9.9 3.1 14 4.8 4.1 1.8 11.1 5.6 15.4 8.6 4.3 3 11.1 8.9 15 13.1 3.9 4.2 8 9.1 11.1 14.4l-2-0.8c-1.1-0.5-5.8-2-10.5-3.3-4.7-1.4-13.9-3.6-20.5-4.9-6.6-1.3-17-2.9-23-3.6-6.8-0.7-17.5-0.9-28-0.6-9.4 0.4-21.7 1.3-27.5 2.2-5.8 0.8-15 2.6-20.5 3.9-5.5 1.4-12.9 3.4-16.4 4.4-3.8 1.2-6.1 1.5-5.6 0.8 0.5-0.6 2.2-2.9 3.8-5.1 1.7-2.2 5.3-6.4 8.1-9.3 2.8-2.9 8-7.5 11.6-10.1 3.6-2.7 9.2-6.2 12.5-7.8 3.3-1.7 8.5-3.8 11.5-4.8 3-1 8.6-2.4 12.5-3.1 4.4-0.9 11.6-1.2 19.5-0.9zm1 46c15.2 0.2 22.7 0.9 34 2.8 8 1.4 19.9 4.1 26.5 6 6.6 1.9 16.3 5.4 21.5 7.6 5.2 2.3 14.2 6.8 20 10.1 5.8 3.4 14.5 9 19.5 12.5 5 3.5 13.5 10.6 18.9 15.7 5.5 5.1 12.5 12.4 15.5 16.1 3.1 3.7 5.4 6.9 5.1 7.1-0.3 0.2-11.9 6.5-25.8 14-13.8 7.5-26.1 14.2-27.1 14.9-1.7 1.1-3 0.1-12.8-9.3-6-5.8-14.9-13.2-19.8-16.5-5-3.3-12.8-7.9-17.5-10.3-4.7-2.3-13.2-5.8-19-7.6-5.8-1.9-14.8-4.1-20-5-5.7-1-15.3-1.6-24-1.6-8.8 0-18.3 0.6-24 1.6-5.2 0.9-13.6 3-18.5 4.6-4.9 1.6-13.3 5.2-18.5 7.9-5.2 2.8-13.7 8-18.9 11.7-5.2 3.7-13.6 10.6-18.8 15.5-5.1 4.8-9.5 8.7-9.8 8.7-0.3 0-12.6-6.4-54.4-28.5l4.6-5.5c2.6-3 7.8-8.8 11.7-12.8 3.9-4.1 10.5-10.2 14.6-13.6 4.1-3.5 11.3-8.9 16-12 4.7-3.2 14.6-8.8 22-12.5 7.4-3.7 19.1-8.6 26-10.8 6.9-2.3 18.1-5.3 25-6.7 6.9-1.4 16.1-3 20.5-3.5 4.4-0.5 16.8-0.8 27.5-0.6zm-2 73c10.3 0.2 19.3 1 24 2 4.1 0.9 12.2 3.4 18 5.6 5.8 2.2 14.1 6 18.5 8.6 4.4 2.5 10.5 6.5 13.5 8.8 3 2.3 8.3 6.9 11.7 10.1 3.5 3.2 6.3 6.2 6.3 6.7 0 0.4-1.7 1.2-3.7 1.9-2.1 0.6-6 1.1-8.8 1-2.7-0.1-6.6-0.7-8.5-1.3-1.9-0.7-9.6-3.7-17-6.9-7.4-3.1-15.7-6.3-18.5-7.1-3-0.8-9.3-1.4-16-1.3-8.8 0.1-12.5 0.6-26 5l-7.5-2.4c-5.3-1.6-10-2.4-16-2.4-5.4-0.1-10.7 0.5-14.5 1.7-3.3 0.9-9.8 3.6-14.5 6-4.7 2.3-11.2 5.2-14.5 6.5-4.5 1.6-7.4 2.1-11.5 1.7-3-0.2-6.9-1-11.5-2.9l7-6.4c3.9-3.5 10.8-9 15.5-12.3 4.7-3.2 13-8.1 18.5-10.9 5.5-2.7 13.1-5.9 17-7.1 3.9-1.2 10.4-2.8 14.5-3.6 5.3-1 12.4-1.3 24-1zm172.3 17.9l3.3 5.1c1.8 2.7 5.8 9.9 8.8 16 3 6.1 7.7 17.8 10.5 26 2.7 8.3 6 20.2 7.2 26.5 1.1 6.3 1.7 11.6 1.3 11.8-0.5 0.1-17.9 9.8-38.6 21.5-27.2 15.3-40.7 23.5-59.3 37.9l-44.5-44.5c-24.5-24.5-45.5-44.8-46.8-45.1-1.7-0.5-3.7 0.7-9 5.2-3.7 3.2-10.5 9.4-15.2 13.8-4.7 4.3-11 10.2-14 13-3.6 3.3-7 5.5-9.8 6.3-3.3 0.9-4.9 0.8-7.5-0.2-1.7-0.8-4.2-2.7-5.5-4.3-1.2-1.6-2.5-4.3-2.8-5.9-0.4-1.9 0.1-4.6 1.2-7.2 1.4-3 7.7-9.9 21.9-23.6 11-10.7 21.9-20.3 24.2-21.5 2.4-1.2 6.9-2.9 10-3.7 3.2-0.8 8.5-1.5 11.8-1.5 3.3 0 8.7 0.7 12 1.5 3.3 0.9 11.4 4 18 6.9 6.6 2.9 14.7 6.1 18 7.1 3.3 0.9 8.9 1.7 12.5 1.7 3.6 0.1 9.2-0.7 12.5-1.6 3.3-1 17.9-8.1 32.5-15.9 14.6-7.8 31.2-16.6 36.9-19.7zm-347.2 0.6c0.5 0 12.3 6 26.2 13.4 13.9 7.3 31.7 16.6 39.7 20.5 12.7 6.3 15.4 7.3 21.5 7.8 3.9 0.3 9.5 0 12.5-0.6 3-0.7 11.6-4.1 19-7.7 7.5-3.5 16.2-6.9 19.5-7.6 3.4-0.6 7.8-0.8 14 0.3l-18.6 18.2c-14.5 14-19.3 19.4-21.4 23.7-1.5 3-2.9 7.7-3.2 10.5-0.4 3.4 0 6.7 1.3 10.5 1.2 3.4 3.6 7.3 6.5 10.5 2.8 3 6.7 5.9 10 7.3 4.5 2 6.7 2.3 12.4 2 4.2-0.3 8.6-1.2 11-2.4 2.1-1.1 11.6-8.8 38-32.5l40.3 40.3c32.1 32 40.5 41.1 41.6 44.3 0.9 2.6 1.1 5.1 0.5 7.5-0.4 1.9-1.8 4.2-3.1 5.2-1.4 1-4.1 1.7-11.3 1.7l-28.5-28.4c-27.1-27.1-28.7-28.5-32.2-28.5-2.5 0-4.5 0.7-5.8 2-1.2 1.2-2 3.3-2 5.5 0 3.2 1.9 5.3 27.1 30.2 14.9 14.7 27.7 28 28.5 29.5 0.8 1.5 1.4 4.1 1.4 5.8 0 1.6-0.7 4.3-1.5 6-1 2.1-2.6 3.2-5.2 3.9-2.8 0.7-4.6 0.6-6.8-0.4-1.6-0.7-15.4-13.8-30.5-28.9-24.7-24.9-27.8-27.6-30.7-27.6-1.9 0-4.1 0.8-5.3 2-1.1 1.1-2 2.7-2.1 3.7-0.1 1 0 2.7 0.1 3.8 0.1 1.1 11.2 13.1 25.5 27.5 13.9 14 25.8 26.5 26.4 27.7 0.6 1.2 1.1 3.6 1.1 5.3 0 1.6-0.5 4.1-1.2 5.6-0.7 1.4-2.5 3.2-4 4-1.5 0.7-4.1 1.4-5.8 1.4-1.8 0-4.6-1.3-7.2-3.3-2.4-1.9-5.5-5.1-7.1-7.3-1.5-2.2-4.2-6.2-6-8.9-2-3.1-5-6.1-8.2-8-2.8-1.7-7-3.2-9.7-3.5-4.3-0.5-4.8-0.8-5.4-3.5-0.3-1.7-1.4-4.6-2.4-6.5-0.9-2-3.5-5.1-5.6-7-2.1-1.8-5.3-4-7.1-4.7-1.8-0.7-5.3-1.3-7.8-1.3-4 0-4.5-0.3-4.5-2.3 0.1-1.2-0.6-3.9-1.5-6-0.8-2.1-2.9-5.4-4.7-7.4-1.8-2-5.1-4.5-7.3-5.6-2.2-1.1-6.2-2.2-14-2.9l-1.7-5.4c-1.2-3.6-3.2-6.9-6-9.8-2.9-2.9-6.1-4.9-9.8-6.1-3.6-1.2-7-1.6-10-1.3-2.5 0.3-6.3 1.4-8.5 2.5-2.2 1.1-6.6 4.7-15.4 13.8l-4.8-4.6c-2.6-2.6-6.4-5.8-8.3-7.2-1.9-1.4-15.6-9.3-30.5-17.5-14.8-8.3-30.6-17.2-35-19.7-4.4-2.6-8.1-4.8-8.2-4.9-0.2-0.1 0.8-5.9 2.2-12.9 1.4-7 4.3-18.3 6.6-25 2.2-6.7 6.1-16.7 8.8-22.2 2.6-5.5 6.7-13.3 9-17.3 2.3-4 4.6-7.2 5.2-7.2zm-33.6 27.4c0 0.1-1.4 4.7-3.3 10.2-1.8 5.4-4.6 15.3-6.3 21.9-1.6 6.6-3.6 17.1-4.5 23.5-1 6.8-1.6 18.2-1.6 28 0 9 0.5 20.1 1.2 24.5 0.6 4.4 2.1 12.7 3.2 18.5 1.1 5.7 3.1 14.1 4.4 18.5 1.3 4.4 2.3 8 2.2 8.2-0.2 0.1-3.5-2.6-7.5-6-4-3.5-9.6-9.2-12.4-12.7-2.8-3.6-7.3-11-10-16.5-2.6-5.5-5.8-14.1-7-19-1.7-7-2.2-11.9-2.2-21.5 0.1-10 0.6-14.5 2.6-22 1.4-5.3 4.3-13.1 6.5-17.5 2.2-4.4 6-10.7 8.5-14 2.5-3.3 6.5-7.9 8.9-10.3 2.4-2.3 7.2-6.4 10.7-9.1 3.6-2.7 6.5-4.8 6.6-4.7zm419.5 3.6c3.6 2.4 9.3 7.1 12.6 10.4 3.3 3.3 8 9 10.4 12.6 2.4 3.5 5.9 9.6 7.7 13.5 1.7 3.8 4.2 11 5.4 16 1.8 6.9 2.3 11.9 2.3 21.5 0 8.2-0.6 15-1.7 20-1 4.1-3.3 11.1-5.2 15.5-1.9 4.4-5 10.4-6.7 13.3-1.8 2.9-6.5 8.8-10.4 13-3.9 4.2-9.1 9-15.9 13.8l2.8-9c1.5-5.1 3.6-13.4 4.7-18.6 1-5.3 2.5-13.6 3.1-18.5 0.6-5 1.1-16.5 1.1-25.5 0-9.9-0.7-21-1.7-27.5-0.9-6.1-3.1-16.9-5-24-1.8-7.2-4.5-16.2-5.8-20-1.4-3.9-2.8-7.9-3.3-8.9-0.6-1.4 1-0.7 5.6 2.4zm-6.5 71l0.3 9.7c0.2 5.4-0.2 14.3-0.8 19.8-0.6 5.5-2.2 15.1-3.6 21.5-1.4 6.3-4 16-5.8 21.5-1.9 5.5-5.6 14.9-8.3 21-2.7 6-7.8 15.7-11.2 21.5-3.5 5.7-8.8 13.8-11.9 17.9-3.1 4.1-10 12-15.2 17.4-5.2 5.5-13.8 13.4-19 17.6-5.2 4.2-13.5 10.3-18.5 13.5-4.9 3.3-14.4 8.7-21 12.1-6.6 3.3-18.3 8.2-26 10.7-7.7 2.6-19.6 5.8-26.5 7.2-6.9 1.4-19 3-27 3.6-10.4 0.8-17.8 0.8-26.5 0-6.6-0.6-16.3-1.8-21.5-2.7-5.2-0.8-14.5-3.1-20.7-4.9-6.2-1.9-16.8-5.8-23.5-8.7-6.8-2.9-17-8.1-22.8-11.5-5.8-3.5-14.5-9.3-19.5-13-4.9-3.7-14.9-12.5-22.1-19.7-7.1-7.2-15.9-16.9-19.4-21.5-3.5-4.7-8.5-11.9-11.1-16-2.5-4.2-6.9-12-9.6-17.5-2.8-5.5-6.7-14.5-8.7-20-2.1-5.5-5.1-15.2-6.7-21.5-1.6-6.4-3.6-16.6-4.4-22.8-0.8-6.2-1.5-16.4-1.5-22.7 0-6.4 0.2-11.5 0.5-11.5 0.3 0 7.2 3.7 15.3 8.3 8.1 4.6 22.3 12.5 31.5 17.7 13.5 7.6 16.8 9.9 17.3 12 0.3 1.3 1.9 6.7 3.6 12 1.7 5.2 5.3 14.2 8 20 2.7 5.7 7.9 15 11.6 20.5 4.3 6.6 10.5 13.9 18.2 21.5 6.3 6.3 14.7 13.6 18.5 16.1 3.9 2.6 10.8 6.7 15.5 9.2 4.7 2.5 12.6 6.1 17.5 8 5 1.9 13.4 4.4 18.8 5.6 5.3 1.1 15 2.5 21.5 3 7.7 0.6 15.3 0.6 22.2 0 5.8-0.6 13.7-1.7 17.5-2.5 3.9-0.9 11-2.9 15.8-4.5 4.8-1.6 12.4-4.8 17-7.1 4.5-2.3 10-5.3 12.2-6.7 2.2-1.4 7.4-5.2 11.5-8.3 4.1-3.1 11.4-9.6 16.1-14.5 4.8-4.9 10.7-11.5 13.1-14.8 2.5-3.3 6.6-9.6 9-14 2.4-4.4 6.1-11.9 8.1-16.5 2-4.7 5.1-13.6 10.2-31zm-298.6 36c3.3 0 4.8 0.6 7.2 3q3 3 3 6c0 1.7-0.7 4.3-1.5 5.8-0.7 1.5-5.1 6.4-9.7 10.9-4.6 4.4-9.5 8.3-10.8 8.6-1.4 0.4-3.9 0-5.5-0.6-1.7-0.7-3.8-2.4-4.8-3.7-1.1-1.5-1.7-4-1.5-6.4 0.1-3.6 1.2-5 9.8-13.8 9.1-9.3 9.8-9.8 13.8-9.8zm215.4 14.1c0.4-0.1-1 3.9-3.1 8.7-2.1 4.8-5.7 12.1-8.1 16.2-2.3 4.2-6.6 10.7-9.5 14.5-2.9 3.9-8.5 10.1-12.4 13.8-3.9 3.7-10.4 9.1-14.4 12.1-4 3-11.2 7.5-16 10-4.8 2.5-9.1 4.6-9.5 4.6-0.4 0.1 0.5-1.2 2-2.7 1.4-1.5 3.4-4.5 4.2-6.5 0.9-2.1 1.6-4.9 1.6-6.3 0-2.3 0.3-2.5 4.7-2.5 2.6 0 6.3-0.4 8.3-0.9 1.9-0.6 5.4-2.7 7.9-4.8 2.4-2.1 5.2-5.5 6.2-7.5 1-2.1 2.2-5.8 2.6-8.3 0.7-3.9 1.1-4.5 3.3-4.5 1.3 0 4.3-0.6 6.5-1.2 2.3-0.7 6.1-3.3 9.1-6.3 3.4-3.3 5.5-6.3 6.3-9 0.6-2.2 1-6.1 0.8-8.7-0.2-4.5-0.1-4.8 4.3-7.7 2.4-1.6 4.8-3 5.2-3zm-191.2 7.7l4.7 0.5c3.4 0.4 5.4 1.3 7 3.1 1.7 2 2.3 3.9 2.3 7.4-0.1 4.7-0.1 4.8-12.3 17-11.3 11.2-12.6 12.2-16 12.2-2.1 0-4.7-0.4-6-1-1.2-0.6-2.8-1.9-3.5-3-0.7-1.1-1.3-3.7-1.4-5.7-0.1-2.4 0.6-4.9 1.9-6.8 1.2-1.6 6.9-7.6 12.7-13.4zm31 24.3c2.5 0 5.5 0.7 6.7 1.5 1.2 0.8 2.7 3.1 3.3 5 0.6 2.3 0.6 4.6 0 6.8-0.7 2.1-5.2 7.4-12.8 14.9-11.7 11.7-11.8 11.7-16.5 11.8-4 0-5.2-0.5-7.7-3q-3-3-3-6c0-1.6 0.6-4.2 1.4-5.7 0.7-1.6 6.5-7.9 12.8-14 11.1-10.9 11.6-11.3 15.8-11.3zm27.2 23.1c1.5-0.1 4 0.5 5.5 1.3 1.5 0.7 3.3 2.5 4 4 0.7 1.4 1.2 4.1 1.2 5.9 0 2.7-1.5 4.7-10.2 13.5-10 10-10.4 10.3-14.7 10.3-3.7 0-5.1-0.6-7.3-2.8-2.3-2.3-2.8-3.6-2.8-7.5 0.1-4.6 0.4-5.1 8.6-13.9 4.7-5 9.5-9.5 10.7-10 1.3-0.4 3.5-0.8 5-0.8zm26.1 24c1.7 1.8 4.3 3.7 5.7 4.4 1.3 0.7 4.3 1.7 10.5 2.9l-6 1.3c-3.3 0.7-9.9 1.6-23.1 2.7l4.1-5c2.3-2.7 4.5-5.9 4.9-7.1 0.8-2.3 0.8-2.3 3.9 0.8zm-93.1 88.4l8.1 2.8c4.5 1.6 12.4 3.9 17.7 5.2 5.2 1.3 14.2 3.1 20 3.9 5.7 0.8 15.6 1.8 22 2.2 6.3 0.3 17.1 0.1 24-0.4 6.8-0.6 17.2-2 23-3.1 5.7-1.1 15.4-3.5 21.5-5.2 6-1.7 12.2-3.7 13.7-4.5 1.5-0.8 2.7-1.1 2.7-0.6 0 0.4-2.2 3.6-4.8 7.2-2.7 3.6-7.3 8.7-10.3 11.4-2.9 2.7-8.5 7-12.3 9.5-3.9 2.6-10.4 6.1-14.5 7.8-4.2 1.7-11.4 3.9-16 4.9-6.6 1.3-11.6 1.5-22 1.1-9.6-0.3-15.6-1.1-20.5-2.6-3.9-1.2-9.7-3.4-13-4.9-3.3-1.6-9-4.8-12.5-7.1-3.6-2.4-10.4-8.3-15-13.1-4.7-4.8-9.3-10-10.2-11.6z"/><path class="c" d="m563 527.5c6.9 6.9 12.7 12.5 13 12.5 0.3 0-5-5.6-11.7-12.5-6.7-6.9-12.6-12.5-13-12.5-0.4 0 4.8 5.6 11.7 12.5zm-61 91.3l-8.5 8.7c13.6-13.2 17.5-17.1 17.5-17.2 0-0.2-0.1-0.3-0.3-0.3-0.1 0-4.1 3.9-8.7 8.8z"/><path class="d" d="m718.8 491.8c0.2 2.6 0.4 5.6 0.6 6.7 0.2 1.1 0.4-1 0.5-4.8 0-3.7-0.2-6.7-0.6-6.7-0.5 0-0.7 2.1-0.5 4.8zm-413.7 3.4c0.1 4 0.3 6.4 0.5 5.3 0.2-1.1 0.5-4.4 0.6-7.3 0.2-2.8 0-5.2-0.4-5.2-0.5 0-0.7 3.3-0.7 7.2zm255.4 81.8c3.9 3.9 7.2 7 7.5 7 0.3 0-2.5-3.1-6.2-7-3.7-3.8-7.1-7-7.5-7-0.4 0 2.4 3.1 6.2 7z"/><path class="e" d="m539 555.3c5.8 5.9 10.6 10.7 10.8 10.7 0.1 0 0.2-0.1 0.2-0.2 0-0.2-4.8-5-10.7-10.8l-10.8-10.5z"/></svg>