<?xml version="1.0" ?>
<svg xmlns="http://www.w3.org/2000/svg" width="1000" height="1000" viewBox="0 0 1000 1000">
  <defs>
    <path id="textcircle" d="M 130,500 A 370,370 0 1,1 870,500 A 370,370 0 1,1 130,500"/>
  </defs>
  <g stroke="#000000" fill="none" stroke-width="8">
    <path d="M 900.00,500.00 A 400,400 0 0,1 823.61,735.11"/>
    <path d="M 735.11,823.61 A 400,400 0 0,1 500.00,900.00"/>
    <path d="M 500.00,900.00 A 400,400 0 0,1 264.89,823.61"/>
    <path d="M 176.39,735.11 A 400,400 0 0,1 100.00,500.00"/>
    <path d="M 100.00,500.00 A 400,400 0 0,1 176.39,264.89"/>
    <path d="M 264.89,176.39 A 400,400 0 0,1 500.00,100.00"/>
    <path d="M 500.00,100.00 A 400,400 0 0,1 735.11,176.39"/>
    <path d="M 823.61,264.89 A 400,400 0 0,1 900.00,500.00"/>
  </g>
  <g stroke="#000000" stroke-width="6">
    <line x1="580.00" y1="500.00" x2="780.00" y2="500.00"/>
    <line x1="569.28" y1="540.00" x2="742.49" y2="640.00"/>
    <line x1="540.00" y1="569.28" x2="640.00" y2="742.49"/>
    <line x1="500.00" y1="580.00" x2="500.00" y2="780.00"/>
    <line x1="460.00" y1="569.28" x2="360.00" y2="742.49"/>
    <line x1="430.72" y1="540.00" x2="257.51" y2="640.00"/>
    <line x1="420.00" y1="500.00" x2="220.00" y2="500.00"/>
    <line x1="430.72" y1="460.00" x2="257.51" y2="360.00"/>
    <line x1="460.00" y1="430.72" x2="360.00" y2="257.51"/>
    <line x1="500.00" y1="420.00" x2="500.00" y2="220.00"/>
    <line x1="540.00" y1="430.72" x2="640.00" y2="257.51"/>
    <line x1="569.28" y1="460.00" x2="742.49" y2="360.00"/>
  </g>
  <g stroke="#000000" fill="none" stroke-width="6">
    <path d="M 280,500 A 220,220 0 0,1 720,500"/>
    <path d="M 280,500 A 220,220 0 0,0 720,500"/>
  </g>
  <circle cx="500" cy="500" r="12" fill="#000000"/>
  <text fill="#000000" font-family="serif" font-size="28" letter-spacing="1.5" text-anchor="middle">
    <textPath href="#textcircle" startOffset="50%">Aeterna Resonantia, Lux Et Vox — Et Veritas Vivens</textPath>
  </text>
</svg>
